<?xml version="1.0" encoding="UTF-8" standalone="no"?>
<!DOCTYPE svg PUBLIC "-//W3C//DTD SVG 1.1//EN"
 "http://www.w3.org/Graphics/SVG/1.1/DTD/svg11.dtd">
<!-- Generated by graphviz version 2.43.0 (0)
 -->
<!-- Title: inc/AS5047U.hpp Pages: 1 -->
<svg width="973pt" height="192pt"
 viewBox="0.00 0.00 973.00 192.00" xmlns="http://www.w3.org/2000/svg" xmlns:xlink="http://www.w3.org/1999/xlink">
<g id="graph0" class="graph" transform="scale(1 1) rotate(0) translate(4 188)">
<title>inc/AS5047U.hpp</title>
<!-- Node1 -->
<g id="Node000001" class="node">
<title>Node1</title>
<g id="a_Node000001"><a xlink:title="Driver for AMS AS5047U Magnetic Rotary Position Sensor (C++21).">
<polygon fill="#999999" stroke="#666666" points="513,-184 414,-184 414,-165 513,-165 513,-184"/>
<text text-anchor="middle" x="463.5" y="-172" font-family="Helvetica,sans-Serif" font-size="10.00">inc/AS5047U.hpp</text>
</a>
</g>
</g>
<!-- Node2 -->
<g id="Node000002" class="node">
<title>Node2</title>
<g id="a_Node000002"><a xlink:href="AS5047U__Bus_8hpp.html" target="_top" xlink:title="CRTP&#45;based SPI bus interface for AS5047U driver.">
<polygon fill="white" stroke="#666666" points="105,-129 0,-129 0,-110 105,-110 105,-129"/>
<text text-anchor="middle" x="52.5" y="-117" font-family="Helvetica,sans-Serif" font-size="10.00">AS5047U_Bus.hpp</text>
</a>
</g>
</g>
<!-- Node1&#45;&gt;Node2 -->
<g id="edge1_Node000001_Node000002" class="edge">
<title>Node1&#45;&gt;Node2</title>
<g id="a_edge1_Node000001_Node000002"><a xlink:title=" ">
<path fill="none" stroke="#63b8ff" d="M413.92,-167.11C339.01,-157.45 197.04,-139.14 115.1,-128.57"/>
<polygon fill="#63b8ff" stroke="#63b8ff" points="115.54,-125.1 105.17,-127.29 114.64,-132.04 115.54,-125.1"/>
</a>
</g>
</g>
<!-- Node4 -->
<g id="Node000004" class="node">
<title>Node4</title>
<g id="a_Node000004"><a xlink:title=" ">
<polygon fill="#e0e0e0" stroke="#999999" points="257.5,-19 207.5,-19 207.5,0 257.5,0 257.5,-19"/>
<text text-anchor="middle" x="232.5" y="-7" font-family="Helvetica,sans-Serif" font-size="10.00">cstdint</text>
</a>
</g>
</g>
<!-- Node1&#45;&gt;Node4 -->
<g id="edge11_Node000001_Node000004" class="edge">
<title>Node1&#45;&gt;Node4</title>
<g id="a_edge11_Node000001_Node000004"><a xlink:title=" ">
<path fill="none" stroke="#63b8ff" d="M413.81,-170.86C343.34,-166.24 218.88,-154.66 182.5,-129 153.5,-108.55 134.51,-85.59 152.5,-55 162.33,-38.28 180.97,-27.39 197.79,-20.57"/>
<polygon fill="#63b8ff" stroke="#63b8ff" points="199.23,-23.76 207.4,-17.01 196.8,-17.2 199.23,-23.76"/>
</a>
</g>
</g>
<!-- Node5 -->
<g id="Node000005" class="node">
<title>Node5</title>
<g id="a_Node000005"><a xlink:href="AS5047U__REGISTERS_8hpp.html" target="_top" xlink:title="Register definitions for the AS5047U Rotary Position Sensor.">
<polygon fill="white" stroke="#666666" points="303,-74 162,-74 162,-55 303,-55 303,-74"/>
<text text-anchor="middle" x="232.5" y="-62" font-family="Helvetica,sans-Serif" font-size="10.00">AS5047U_REGISTERS.hpp</text>
</a>
</g>
</g>
<!-- Node1&#45;&gt;Node5 -->
<g id="edge4_Node000001_Node000005" class="edge">
<title>Node1&#45;&gt;Node5</title>
<g id="a_edge4_Node000001_Node000005"><a xlink:title=" ">
<path fill="none" stroke="#63b8ff" d="M413.89,-172.8C343.12,-170.62 218.61,-162.06 190.5,-129 177.38,-113.56 195.03,-93.85 211.3,-80.51"/>
<polygon fill="#63b8ff" stroke="#63b8ff" points="213.74,-83.05 219.52,-74.17 209.46,-77.51 213.74,-83.05"/>
</a>
</g>
</g>
<!-- Node6 -->
<g id="Node000006" class="node">
<title>Node6</title>
<g id="a_Node000006"><a xlink:title=" ">
<polygon fill="#e0e0e0" stroke="#999999" points="263.5,-129 199.5,-129 199.5,-110 263.5,-110 263.5,-129"/>
<text text-anchor="middle" x="231.5" y="-117" font-family="Helvetica,sans-Serif" font-size="10.00">algorithm</text>
</a>
</g>
</g>
<!-- Node1&#45;&gt;Node6 -->
<g id="edge6_Node000001_Node000006" class="edge">
<title>Node1&#45;&gt;Node6</title>
<g id="a_edge6_Node000001_Node000006"><a xlink:title=" ">
<path fill="none" stroke="#63b8ff" d="M426.23,-164.98C384.6,-155.48 317.38,-140.12 273.81,-130.17"/>
<polygon fill="#63b8ff" stroke="#63b8ff" points="274.35,-126.7 263.82,-127.88 272.79,-133.52 274.35,-126.7"/>
</a>
</g>
</g>
<!-- Node7 -->
<g id="Node000007" class="node">
<title>Node7</title>
<g id="a_Node000007"><a xlink:title=" ">
<polygon fill="#e0e0e0" stroke="#999999" points="323.5,-129 281.5,-129 281.5,-110 323.5,-110 323.5,-129"/>
<text text-anchor="middle" x="302.5" y="-117" font-family="Helvetica,sans-Serif" font-size="10.00">array</text>
</a>
</g>
</g>
<!-- Node1&#45;&gt;Node7 -->
<g id="edge7_Node000001_Node000007" class="edge">
<title>Node1&#45;&gt;Node7</title>
<g id="a_edge7_Node000001_Node000007"><a xlink:title=" ">
<path fill="none" stroke="#63b8ff" d="M437.63,-164.98C409.2,-155.63 363.56,-140.6 333.3,-130.64"/>
<polygon fill="#63b8ff" stroke="#63b8ff" points="334.27,-127.27 323.68,-127.47 332.08,-133.92 334.27,-127.27"/>
</a>
</g>
</g>
<!-- Node8 -->
<g id="Node000008" class="node">
<title>Node8</title>
<g id="a_Node000008"><a xlink:title=" ">
<polygon fill="#e0e0e0" stroke="#999999" points="391.5,-129 341.5,-129 341.5,-110 391.5,-110 391.5,-129"/>
<text text-anchor="middle" x="366.5" y="-117" font-family="Helvetica,sans-Serif" font-size="10.00">atomic</text>
</a>
</g>
</g>
<!-- Node1&#45;&gt;Node8 -->
<g id="edge8_Node000001_Node000008" class="edge">
<title>Node1&#45;&gt;Node8</title>
<g id="a_edge8_Node000001_Node000008"><a xlink:title=" ">
<path fill="none" stroke="#63b8ff" d="M447.92,-164.98C432.73,-156.69 409.4,-143.94 391.6,-134.22"/>
<polygon fill="#63b8ff" stroke="#63b8ff" points="392.82,-130.89 382.37,-129.17 389.47,-137.04 392.82,-130.89"/>
</a>
</g>
</g>
<!-- Node9 -->
<g id="Node000009" class="node">
<title>Node9</title>
<g id="a_Node000009"><a xlink:title=" ">
<polygon fill="#e0e0e0" stroke="#999999" points="453.5,-129 409.5,-129 409.5,-110 453.5,-110 453.5,-129"/>
<text text-anchor="middle" x="431.5" y="-117" font-family="Helvetica,sans-Serif" font-size="10.00">bitset</text>
</a>
</g>
</g>
<!-- Node1&#45;&gt;Node9 -->
<g id="edge9_Node000001_Node000009" class="edge">
<title>Node1&#45;&gt;Node9</title>
<g id="a_edge9_Node000001_Node000009"><a xlink:title=" ">
<path fill="none" stroke="#63b8ff" d="M458.22,-164.75C453.79,-157.42 447.34,-146.73 441.88,-137.7"/>
<polygon fill="#63b8ff" stroke="#63b8ff" points="444.85,-135.84 436.69,-129.09 438.86,-139.46 444.85,-135.84"/>
</a>
</g>
</g>
<!-- Node10 -->
<g id="Node000010" class="node">
<title>Node10</title>
<g id="a_Node000010"><a xlink:title=" ">
<polygon fill="#e0e0e0" stroke="#999999" points="519,-129 472,-129 472,-110 519,-110 519,-129"/>
<text text-anchor="middle" x="495.5" y="-117" font-family="Helvetica,sans-Serif" font-size="10.00">cmath</text>
</a>
</g>
</g>
<!-- Node1&#45;&gt;Node10 -->
<g id="edge10_Node000001_Node000010" class="edge">
<title>Node1&#45;&gt;Node10</title>
<g id="a_edge10_Node000001_Node000010"><a xlink:title=" ">
<path fill="none" stroke="#63b8ff" d="M468.78,-164.75C473.21,-157.42 479.66,-146.73 485.12,-137.7"/>
<polygon fill="#63b8ff" stroke="#63b8ff" points="488.14,-139.46 490.31,-129.09 482.15,-135.84 488.14,-139.46"/>
</a>
</g>
</g>
<!-- Node11 -->
<g id="Node000011" class="node">
<title>Node11</title>
<g id="a_Node000011"><a xlink:title=" ">
<polygon fill="#e0e0e0" stroke="#999999" points="583.5,-129 537.5,-129 537.5,-110 583.5,-110 583.5,-129"/>
<text text-anchor="middle" x="560.5" y="-117" font-family="Helvetica,sans-Serif" font-size="10.00">cstdio</text>
</a>
</g>
</g>
<!-- Node1&#45;&gt;Node11 -->
<g id="edge12_Node000001_Node000011" class="edge">
<title>Node1&#45;&gt;Node11</title>
<g id="a_edge12_Node000001_Node000011"><a xlink:title=" ">
<path fill="none" stroke="#63b8ff" d="M479.08,-164.98C494.27,-156.69 517.6,-143.94 535.4,-134.22"/>
<polygon fill="#63b8ff" stroke="#63b8ff" points="537.53,-137.04 544.63,-129.17 534.18,-130.89 537.53,-137.04"/>
</a>
</g>
</g>
<!-- Node12 -->
<g id="Node000012" class="node">
<title>Node12</title>
<g id="a_Node000012"><a xlink:title=" ">
<polygon fill="#e0e0e0" stroke="#999999" points="667,-129 602,-129 602,-110 667,-110 667,-129"/>
<text text-anchor="middle" x="634.5" y="-117" font-family="Helvetica,sans-Serif" font-size="10.00">functional</text>
</a>
</g>
</g>
<!-- Node1&#45;&gt;Node12 -->
<g id="edge13_Node000001_Node000012" class="edge">
<title>Node1&#45;&gt;Node12</title>
<g id="a_edge13_Node000001_Node000012"><a xlink:title=" ">
<path fill="none" stroke="#63b8ff" d="M490.97,-164.98C519.68,-156.09 564.92,-142.07 596.92,-132.15"/>
<polygon fill="#63b8ff" stroke="#63b8ff" points="598.3,-135.39 606.81,-129.08 596.22,-128.7 598.3,-135.39"/>
</a>
</g>
</g>
<!-- Node13 -->
<g id="Node000013" class="node">
<title>Node13</title>
<g id="a_Node000013"><a xlink:href="AS5047U__types_8hpp.html" target="_top" xlink:title="Type definitions for the AS5047U driver.">
<polygon fill="white" stroke="#666666" points="752.5,-74 638.5,-74 638.5,-55 752.5,-55 752.5,-74"/>
<text text-anchor="middle" x="695.5" y="-62" font-family="Helvetica,sans-Serif" font-size="10.00">AS5047U_types.hpp</text>
</a>
</g>
</g>
<!-- Node1&#45;&gt;Node13 -->
<g id="edge14_Node000001_Node000013" class="edge">
<title>Node1&#45;&gt;Node13</title>
<g id="a_edge14_Node000001_Node000013"><a xlink:title=" ">
<path fill="none" stroke="#63b8ff" d="M513.42,-168.95C568.7,-162.92 653.13,-150.47 676.5,-129 688.8,-117.7 693.26,-98.79 694.82,-84.54"/>
<polygon fill="#63b8ff" stroke="#63b8ff" points="698.32,-84.57 695.54,-74.34 691.34,-84.07 698.32,-84.57"/>
</a>
</g>
</g>
<!-- Node14 -->
<g id="Node000014" class="node">
<title>Node14</title>
<g id="a_Node000014"><a xlink:href="AS5047U__config_8hpp.html" target="_top" xlink:title=" ">
<polygon fill="white" stroke="#666666" points="839.5,-129 723.5,-129 723.5,-110 839.5,-110 839.5,-129"/>
<text text-anchor="middle" x="781.5" y="-117" font-family="Helvetica,sans-Serif" font-size="10.00">AS5047U_config.hpp</text>
</a>
</g>
</g>
<!-- Node1&#45;&gt;Node14 -->
<g id="edge16_Node000001_Node000014" class="edge">
<title>Node1&#45;&gt;Node14</title>
<g id="a_edge16_Node000001_Node000014"><a xlink:title=" ">
<path fill="none" stroke="#63b8ff" d="M513.19,-165.22C569.08,-155.9 659.91,-140.76 720.18,-130.72"/>
<polygon fill="#63b8ff" stroke="#63b8ff" points="721.03,-134.13 730.32,-129.03 719.88,-127.22 721.03,-134.13"/>
</a>
</g>
</g>
<!-- Node15 -->
<g id="Node000015" class="node">
<title>Node15</title>
<g id="a_Node000015"><a xlink:href="AS5047U_8cpp.html" target="_top" xlink:title=" ">
<polygon fill="white" stroke="#666666" points="965,-129 858,-129 858,-110 965,-110 965,-129"/>
<text text-anchor="middle" x="911.5" y="-117" font-family="Helvetica,sans-Serif" font-size="10.00">../src/AS5047U.cpp</text>
</a>
</g>
</g>
<!-- Node1&#45;&gt;Node15 -->
<g id="edge19_Node000001_Node000015" class="edge">
<title>Node1&#45;&gt;Node15</title>
<g id="a_edge19_Node000001_Node000015"><a xlink:title=" ">
<path fill="none" stroke="#63b8ff" d="M513.22,-167.38C585.26,-159.1 722.5,-143.65 839.5,-129 842.18,-128.66 844.92,-128.32 847.7,-127.96"/>
<polygon fill="#63b8ff" stroke="#63b8ff" points="848.39,-131.4 857.86,-126.64 847.49,-124.46 848.39,-131.4"/>
</a>
</g>
</g>
<!-- Node3 -->
<g id="Node000003" class="node">
<title>Node3</title>
<g id="a_Node000003"><a xlink:title=" ">
<polygon fill="#e0e0e0" stroke="#999999" points="67,-74 14,-74 14,-55 67,-55 67,-74"/>
<text text-anchor="middle" x="40.5" y="-62" font-family="Helvetica,sans-Serif" font-size="10.00">cstddef</text>
</a>
</g>
</g>
<!-- Node2&#45;&gt;Node3 -->
<g id="edge2_Node000002_Node000003" class="edge">
<title>Node2&#45;&gt;Node3</title>
<g id="a_edge2_Node000002_Node000003"><a xlink:title=" ">
<path fill="none" stroke="#63b8ff" d="M50.52,-109.75C48.93,-102.72 46.64,-92.62 44.65,-83.84"/>
<polygon fill="#63b8ff" stroke="#63b8ff" points="48.07,-83.07 42.44,-74.09 41.24,-84.62 48.07,-83.07"/>
</a>
</g>
</g>
<!-- Node2&#45;&gt;Node4 -->
<g id="edge3_Node000002_Node000004" class="edge">
<title>Node2&#45;&gt;Node4</title>
<g id="a_edge3_Node000002_Node000004"><a xlink:title=" ">
<path fill="none" stroke="#63b8ff" d="M59.89,-109.58C71.41,-96.15 94.89,-70.66 119.5,-55 143.83,-39.52 174.41,-27.88 197.62,-20.39"/>
<polygon fill="#63b8ff" stroke="#63b8ff" points="198.9,-23.66 207.4,-17.34 196.81,-16.98 198.9,-23.66"/>
</a>
</g>
</g>
<!-- Node5&#45;&gt;Node4 -->
<g id="edge5_Node000005_Node000004" class="edge">
<title>Node5&#45;&gt;Node4</title>
<g id="a_edge5_Node000005_Node000004"><a xlink:title=" ">
<path fill="none" stroke="#63b8ff" d="M232.5,-54.75C232.5,-47.8 232.5,-37.85 232.5,-29.13"/>
<polygon fill="#63b8ff" stroke="#63b8ff" points="236,-29.09 232.5,-19.09 229,-29.09 236,-29.09"/>
</a>
</g>
</g>
<!-- Node13&#45;&gt;Node4 -->
<g id="edge15_Node000013_Node000004" class="edge">
<title>Node13&#45;&gt;Node4</title>
<g id="a_edge15_Node000013_Node000004"><a xlink:title=" ">
<path fill="none" stroke="#63b8ff" d="M638.26,-56.95C541.13,-45.83 346.84,-23.59 267.48,-14.5"/>
<polygon fill="#63b8ff" stroke="#63b8ff" points="267.84,-11.02 257.51,-13.36 267.04,-17.98 267.84,-11.02"/>
</a>
</g>
</g>
<!-- Node14&#45;&gt;Node4 -->
<g id="edge17_Node000014_Node000004" class="edge">
<title>Node14&#45;&gt;Node4</title>
<g id="a_edge17_Node000014_Node000004"><a xlink:title=" ">
<path fill="none" stroke="#63b8ff" d="M781.6,-109.87C781.24,-95.87 778.29,-68.43 761.5,-55 723.03,-24.22 379.68,-13.81 267.67,-11.22"/>
<polygon fill="#63b8ff" stroke="#63b8ff" points="267.64,-7.72 257.57,-10.99 267.49,-14.72 267.64,-7.72"/>
</a>
</g>
</g>
<!-- Node14&#45;&gt;Node13 -->
<g id="edge18_Node000014_Node000013" class="edge">
<title>Node14&#45;&gt;Node13</title>
<g id="a_edge18_Node000014_Node000013"><a xlink:title=" ">
<path fill="none" stroke="#63b8ff" d="M767.68,-109.98C754.35,-101.77 733.92,-89.18 718.19,-79.49"/>
<polygon fill="#63b8ff" stroke="#63b8ff" points="719.92,-76.44 709.57,-74.17 716.25,-82.4 719.92,-76.44"/>
</a>
</g>
</g>
<!-- Node15&#45;&gt;Node1 -->
<g id="edge20_Node000015_Node000001" class="edge">
<title>Node15&#45;&gt;Node1</title>
<g id="a_edge20_Node000015_Node000001"><a xlink:title=" ">
<path fill="none" stroke="#63b8ff" d="M857.83,-128.96C857.72,-128.97 857.61,-128.99 857.5,-129 739.29,-143.8 600.44,-159.42 523.06,-167.64"/>
<polygon fill="#63b8ff" stroke="#63b8ff" points="522.59,-164.17 513.02,-168.7 523.33,-171.13 522.59,-164.17"/>
</a>
</g>
</g>
<!-- Node16 -->
<g id="Node000016" class="node">
<title>Node16</title>
<g id="a_Node000016"><a xlink:title=" ">
<polygon fill="#e0e0e0" stroke="#999999" points="939.5,-74 883.5,-74 883.5,-55 939.5,-55 939.5,-74"/>
<text text-anchor="middle" x="911.5" y="-62" font-family="Helvetica,sans-Serif" font-size="10.00">iomanip</text>
</a>
</g>
</g>
<!-- Node15&#45;&gt;Node16 -->
<g id="edge21_Node000015_Node000016" class="edge">
<title>Node15&#45;&gt;Node16</title>
<g id="a_edge21_Node000015_Node000016"><a xlink:title=" ">
<path fill="none" stroke="#63b8ff" d="M911.5,-109.75C911.5,-102.8 911.5,-92.85 911.5,-84.13"/>
<polygon fill="#63b8ff" stroke="#63b8ff" points="915,-84.09 911.5,-74.09 908,-84.09 915,-84.09"/>
</a>
</g>
</g>
</g>
</svg>
