<?xml version="1.0" encoding="UTF-8" standalone="no"?>
<!DOCTYPE svg PUBLIC "-//W3C//DTD SVG 1.1//EN"
 "http://www.w3.org/Graphics/SVG/1.1/DTD/svg11.dtd">
<!-- Generated by graphviz version 2.43.0 (0)
 -->
<!-- Title: inc/AS5047U_Bus.hpp Pages: 1 -->
<svg width="1116pt" height="159pt"
 viewBox="0.00 0.00 1115.50 159.00" xmlns="http://www.w3.org/2000/svg" xmlns:xlink="http://www.w3.org/1999/xlink">
<g id="graph0" class="graph" transform="scale(1 1) rotate(0) translate(4 155)">
<title>inc/AS5047U_Bus.hpp</title>
<!-- Node1 -->
<g id="Node000001" class="node">
<title>Node1</title>
<g id="a_Node000001"><a xlink:title="CRTP&#45;based SPI bus interface for AS5047U driver.">
<polygon fill="#999999" stroke="#666666" points="579,-151 457,-151 457,-132 579,-132 579,-151"/>
<text text-anchor="middle" x="518" y="-139" font-family="Helvetica,sans-Serif" font-size="10.00">inc/AS5047U_Bus.hpp</text>
</a>
</g>
</g>
<!-- Node2 -->
<g id="Node000002" class="node">
<title>Node2</title>
<g id="a_Node000002"><a xlink:href="Esp32As5047uBus_8hpp.html" target="_top" xlink:title="ESP32 SPI transport implementation for AS5047U driver.">
<polygon fill="white" stroke="#666666" points="650,-96 520,-96 520,-66 650,-66 650,-96"/>
<text text-anchor="start" x="528" y="-84" font-family="Helvetica,sans-Serif" font-size="10.00">examples/esp32/main</text>
<text text-anchor="middle" x="585" y="-73" font-family="Helvetica,sans-Serif" font-size="10.00">/Esp32As5047uBus.hpp</text>
</a>
</g>
</g>
<!-- Node1&#45;&gt;Node2 -->
<g id="edge1_Node000001_Node000002" class="edge">
<title>Node1&#45;&gt;Node2</title>
<g id="a_edge1_Node000001_Node000002"><a xlink:title=" ">
<path fill="none" stroke="#63b8ff" d="M535.48,-125.23C545.8,-116.23 558.76,-104.91 568.83,-96.11"/>
<polygon fill="#63b8ff" stroke="#63b8ff" points="533.12,-122.65 527.89,-131.87 537.72,-127.93 533.12,-122.65"/>
</a>
</g>
</g>
<!-- Node9 -->
<g id="Node000009" class="node">
<title>Node9</title>
<g id="a_Node000009"><a xlink:href="AS5047U_8hpp.html" target="_top" xlink:title="Driver for AMS AS5047U Magnetic Rotary Position Sensor (C++21).">
<polygon fill="white" stroke="#666666" points="501.5,-90.5 402.5,-90.5 402.5,-71.5 501.5,-71.5 501.5,-90.5"/>
<text text-anchor="middle" x="452" y="-78.5" font-family="Helvetica,sans-Serif" font-size="10.00">inc/AS5047U.hpp</text>
</a>
</g>
</g>
<!-- Node1&#45;&gt;Node9 -->
<g id="edge8_Node000001_Node000009" class="edge">
<title>Node1&#45;&gt;Node9</title>
<g id="a_edge8_Node000001_Node000009"><a xlink:title=" ">
<path fill="none" stroke="#63b8ff" d="M500.76,-125.22C488.34,-114.21 472.03,-99.75 461.78,-90.67"/>
<polygon fill="#63b8ff" stroke="#63b8ff" points="498.46,-127.85 508.26,-131.87 503.1,-122.62 498.46,-127.85"/>
</a>
</g>
</g>
<!-- Node3 -->
<g id="Node000003" class="node">
<title>Node3</title>
<g id="a_Node000003"><a xlink:href="BasicAngleReadingExample_8cpp.html" target="_top" xlink:title="Basic angle reading example with diagnostics.">
<polygon fill="white" stroke="#666666" points="794,-30 618,-30 618,0 794,0 794,-30"/>
<text text-anchor="start" x="626" y="-18" font-family="Helvetica,sans-Serif" font-size="10.00">examples/esp32/main</text>
<text text-anchor="middle" x="706" y="-7" font-family="Helvetica,sans-Serif" font-size="10.00">/BasicAngleReadingExample.cpp</text>
</a>
</g>
</g>
<!-- Node2&#45;&gt;Node3 -->
<g id="edge2_Node000002_Node000003" class="edge">
<title>Node2&#45;&gt;Node3</title>
<g id="a_edge2_Node000002_Node000003"><a xlink:title=" ">
<path fill="none" stroke="#63b8ff" d="M620.47,-61.24C639.35,-51.25 662.18,-39.18 679.51,-30.01"/>
<polygon fill="#63b8ff" stroke="#63b8ff" points="618.76,-58.19 611.55,-65.95 622.03,-64.37 618.76,-58.19"/>
</a>
</g>
</g>
<!-- Node4 -->
<g id="Node000004" class="node">
<title>Node4</title>
<g id="a_Node000004"><a xlink:href="ConfigurationExample_8cpp.html" target="_top" xlink:title="Configuration example with ABI, UVW, and PWM setup.">
<polygon fill="white" stroke="#666666" points="960,-30 812,-30 812,0 960,0 960,-30"/>
<text text-anchor="start" x="820" y="-18" font-family="Helvetica,sans-Serif" font-size="10.00">examples/esp32/main</text>
<text text-anchor="middle" x="886" y="-7" font-family="Helvetica,sans-Serif" font-size="10.00">/ConfigurationExample.cpp</text>
</a>
</g>
</g>
<!-- Node2&#45;&gt;Node4 -->
<g id="edge3_Node000002_Node000004" class="edge">
<title>Node2&#45;&gt;Node4</title>
<g id="a_edge3_Node000002_Node000004"><a xlink:title=" ">
<path fill="none" stroke="#63b8ff" d="M660.25,-64C709.37,-53.56 772.89,-40.05 820.04,-30.03"/>
<polygon fill="#63b8ff" stroke="#63b8ff" points="659.37,-60.61 650.31,-66.11 660.82,-67.46 659.37,-60.61"/>
</a>
</g>
</g>
<!-- Node5 -->
<g id="Node000005" class="node">
<title>Node5</title>
<g id="a_Node000005"><a xlink:href="DriverIntegrationTest_8cpp.html" target="_top" xlink:title="Comprehensive Integration Test Suite for AS5047U Driver.">
<polygon fill="white" stroke="#666666" points="259.5,-30 116.5,-30 116.5,0 259.5,0 259.5,-30"/>
<text text-anchor="start" x="124.5" y="-18" font-family="Helvetica,sans-Serif" font-size="10.00">examples/esp32/main</text>
<text text-anchor="middle" x="188" y="-7" font-family="Helvetica,sans-Serif" font-size="10.00">/DriverIntegrationTest.cpp</text>
</a>
</g>
</g>
<!-- Node2&#45;&gt;Node5 -->
<g id="edge4_Node000002_Node000005" class="edge">
<title>Node2&#45;&gt;Node5</title>
<g id="a_edge4_Node000002_Node000005"><a xlink:title=" ">
<path fill="none" stroke="#63b8ff" d="M509.69,-65.82C402.1,-47.84 373.22,-46.76 269,-30 265.9,-29.5 262.73,-28.99 259.54,-28.46"/>
<polygon fill="#63b8ff" stroke="#63b8ff" points="509.21,-69.29 519.65,-67.49 510.37,-62.38 509.21,-69.29"/>
</a>
</g>
</g>
<!-- Node6 -->
<g id="Node000006" class="node">
<title>Node6</title>
<g id="a_Node000006"><a xlink:href="Esp32As5047uBus_8cpp.html" target="_top" xlink:title="ESP32 SPI transport implementation for AS5047U driver.">
<polygon fill="white" stroke="#666666" points="1107.5,-30 978.5,-30 978.5,0 1107.5,0 1107.5,-30"/>
<text text-anchor="start" x="986.5" y="-18" font-family="Helvetica,sans-Serif" font-size="10.00">examples/esp32/main</text>
<text text-anchor="middle" x="1043" y="-7" font-family="Helvetica,sans-Serif" font-size="10.00">/Esp32As5047uBus.cpp</text>
</a>
</g>
</g>
<!-- Node2&#45;&gt;Node6 -->
<g id="edge5_Node000002_Node000006" class="edge">
<title>Node2&#45;&gt;Node6</title>
<g id="a_edge5_Node000002_Node000006"><a xlink:title=" ">
<path fill="none" stroke="#63b8ff" d="M660.21,-71.5C737.76,-62.44 862.1,-47.06 969,-30 972.1,-29.51 975.27,-28.98 978.46,-28.44"/>
<polygon fill="#63b8ff" stroke="#63b8ff" points="659.58,-68.05 650.05,-72.69 660.39,-75.01 659.58,-68.05"/>
</a>
</g>
</g>
<!-- Node7 -->
<g id="Node000007" class="node">
<title>Node7</title>
<g id="a_Node000007"><a xlink:href="FullFeaturesExample_8cpp.html" target="_top" xlink:title="Comprehensive example demonstrating all AS5047U features.">
<polygon fill="white" stroke="#666666" points="420,-30 278,-30 278,0 420,0 420,-30"/>
<text text-anchor="start" x="286" y="-18" font-family="Helvetica,sans-Serif" font-size="10.00">examples/esp32/main</text>
<text text-anchor="middle" x="349" y="-7" font-family="Helvetica,sans-Serif" font-size="10.00">/FullFeaturesExample.cpp</text>
</a>
</g>
</g>
<!-- Node2&#45;&gt;Node7 -->
<g id="edge6_Node000002_Node000007" class="edge">
<title>Node2&#45;&gt;Node7</title>
<g id="a_edge6_Node000002_Node000007"><a xlink:title=" ">
<path fill="none" stroke="#63b8ff" d="M523.25,-63.25C485.12,-52.91 436.76,-39.8 400.67,-30.01"/>
<polygon fill="#63b8ff" stroke="#63b8ff" points="522.64,-66.72 533.21,-65.95 524.47,-59.96 522.64,-66.72"/>
</a>
</g>
</g>
<!-- Node8 -->
<g id="Node000008" class="node">
<title>Node8</title>
<g id="a_Node000008"><a xlink:href="VelocityReadingExample_8cpp.html" target="_top" xlink:title="Velocity reading example with unit conversions.">
<polygon fill="white" stroke="#666666" points="599.5,-30 438.5,-30 438.5,0 599.5,0 599.5,-30"/>
<text text-anchor="start" x="446.5" y="-18" font-family="Helvetica,sans-Serif" font-size="10.00">examples/esp32/main</text>
<text text-anchor="middle" x="519" y="-7" font-family="Helvetica,sans-Serif" font-size="10.00">/VelocityReadingExample.cpp</text>
</a>
</g>
</g>
<!-- Node2&#45;&gt;Node8 -->
<g id="edge7_Node000002_Node000008" class="edge">
<title>Node2&#45;&gt;Node8</title>
<g id="a_edge7_Node000002_Node000008"><a xlink:title=" ">
<path fill="none" stroke="#63b8ff" d="M562.98,-58.65C553.31,-49.27 542.23,-38.53 533.61,-30.16"/>
<polygon fill="#63b8ff" stroke="#63b8ff" points="560.74,-61.35 570.35,-65.8 565.61,-56.32 560.74,-61.35"/>
</a>
</g>
</g>
<!-- Node9&#45;&gt;Node3 -->
<g id="edge9_Node000009_Node000003" class="edge">
<title>Node9&#45;&gt;Node3</title>
<g id="a_edge9_Node000009_Node000003"><a xlink:title=" ">
<path fill="none" stroke="#63b8ff" d="M495.83,-68.96C538.62,-58.17 603.9,-41.73 650.34,-30.02"/>
<polygon fill="#63b8ff" stroke="#63b8ff" points="494.83,-65.6 485.99,-71.44 496.54,-72.39 494.83,-65.6"/>
</a>
</g>
</g>
<!-- Node9&#45;&gt;Node4 -->
<g id="edge10_Node000009_Node000004" class="edge">
<title>Node9&#45;&gt;Node4</title>
<g id="a_edge10_Node000009_Node000004"><a xlink:title=" ">
<path fill="none" stroke="#63b8ff" d="M495.27,-69.16C500.55,-68 505.89,-66.92 511,-66 639.7,-42.87 673.61,-48.88 803,-30 805.89,-29.58 808.84,-29.14 811.81,-28.68"/>
<polygon fill="#63b8ff" stroke="#63b8ff" points="494.23,-65.8 485.25,-71.43 495.78,-72.63 494.23,-65.8"/>
</a>
</g>
</g>
<!-- Node9&#45;&gt;Node5 -->
<g id="edge11_Node000009_Node000005" class="edge">
<title>Node9&#45;&gt;Node5</title>
<g id="a_edge11_Node000009_Node000005"><a xlink:title=" ">
<path fill="none" stroke="#63b8ff" d="M406.73,-69.02C362.26,-58.24 294.22,-41.75 245.85,-30.02"/>
<polygon fill="#63b8ff" stroke="#63b8ff" points="406.13,-72.48 416.67,-71.44 407.78,-65.68 406.13,-72.48"/>
</a>
</g>
</g>
<!-- Node9&#45;&gt;Node7 -->
<g id="edge12_Node000009_Node000007" class="edge">
<title>Node9&#45;&gt;Node7</title>
<g id="a_edge12_Node000009_Node000007"><a xlink:title=" ">
<path fill="none" stroke="#63b8ff" d="M429.33,-65.91C412.21,-55.28 388.84,-40.75 371.72,-30.12"/>
<polygon fill="#63b8ff" stroke="#63b8ff" points="427.77,-69.06 438.11,-71.37 431.46,-63.12 427.77,-69.06"/>
</a>
</g>
</g>
<!-- Node9&#45;&gt;Node8 -->
<g id="edge13_Node000009_Node000008" class="edge">
<title>Node9&#45;&gt;Node8</title>
<g id="a_edge13_Node000009_Node000008"><a xlink:title=" ">
<path fill="none" stroke="#63b8ff" d="M468.32,-64.41C479.28,-53.94 493.6,-40.26 504.22,-30.12"/>
<polygon fill="#63b8ff" stroke="#63b8ff" points="465.85,-61.93 461.04,-71.37 470.68,-66.99 465.85,-61.93"/>
</a>
</g>
</g>
<!-- Node10 -->
<g id="Node000010" class="node">
<title>Node10</title>
<g id="a_Node000010"><a xlink:href="AS5047U_8cpp.html" target="_top" xlink:title=" ">
<polygon fill="white" stroke="#666666" points="98,-24.5 0,-24.5 0,-5.5 98,-5.5 98,-24.5"/>
<text text-anchor="middle" x="49" y="-12.5" font-family="Helvetica,sans-Serif" font-size="10.00">src/AS5047U.cpp</text>
</a>
</g>
</g>
<!-- Node9&#45;&gt;Node10 -->
<g id="edge14_Node000009_Node000010" class="edge">
<title>Node9&#45;&gt;Node10</title>
<g id="a_edge14_Node000009_Node000010"><a xlink:title=" ">
<path fill="none" stroke="#63b8ff" d="M392.09,-73.03C323.06,-64.61 206.34,-49.15 107,-30 98.86,-28.43 90.15,-26.48 82.01,-24.53"/>
<polygon fill="#63b8ff" stroke="#63b8ff" points="391.99,-76.55 402.34,-74.27 392.83,-69.6 391.99,-76.55"/>
</a>
</g>
</g>
</g>
</svg>
