<?xml version="1.0" encoding="UTF-8" standalone="no"?>
<!DOCTYPE svg PUBLIC "-//W3C//DTD SVG 1.1//EN"
 "http://www.w3.org/Graphics/SVG/1.1/DTD/svg11.dtd">
<!-- Generated by graphviz version 2.43.0 (0)
 -->
<!-- Title: src/as5047u.cpp Pages: 1 -->
<svg width="887pt" height="247pt"
 viewBox="0.00 0.00 887.00 247.00" xmlns="http://www.w3.org/2000/svg" xmlns:xlink="http://www.w3.org/1999/xlink">
<g id="graph0" class="graph" transform="scale(1 1) rotate(0) translate(4 243)">
<title>src/as5047u.cpp</title>
<!-- Node1 -->
<g id="Node000001" class="node">
<title>Node1</title>
<g id="a_Node000001"><a xlink:title=" ">
<polygon fill="#999999" stroke="#666666" points="488,-239 393,-239 393,-220 488,-220 488,-239"/>
<text text-anchor="middle" x="440.5" y="-227" font-family="Helvetica,sans-Serif" font-size="10.00">src/as5047u.cpp</text>
</a>
</g>
</g>
<!-- Node2 -->
<g id="Node000002" class="node">
<title>Node2</title>
<g id="a_Node000002"><a xlink:href="as5047u_8hpp.html" target="_top" xlink:title="Driver for AMS AS5047U Magnetic Rotary Position Sensor (C++21).">
<polygon fill="white" stroke="#666666" points="493,-184 388,-184 388,-165 493,-165 493,-184"/>
<text text-anchor="middle" x="440.5" y="-172" font-family="Helvetica,sans-Serif" font-size="10.00">../inc/as5047u.hpp</text>
</a>
</g>
</g>
<!-- Node1&#45;&gt;Node2 -->
<g id="edge1_Node000001_Node000002" class="edge">
<title>Node1&#45;&gt;Node2</title>
<g id="a_edge1_Node000001_Node000002"><a xlink:title=" ">
<path fill="none" stroke="#63b8ff" d="M435.33,-219.75C433.84,-212.8 433.4,-202.85 434.02,-194.13"/>
<polygon fill="#63b8ff" stroke="#63b8ff" points="437.51,-194.47 435.37,-184.09 430.57,-193.53 437.51,-194.47"/>
</a>
</g>
</g>
<!-- Node16 -->
<g id="Node000016" class="node">
<title>Node16</title>
<g id="a_Node000016"><a xlink:title=" ">
<polygon fill="#e0e0e0" stroke="#999999" points="567.5,-184 511.5,-184 511.5,-165 567.5,-165 567.5,-184"/>
<text text-anchor="middle" x="539.5" y="-172" font-family="Helvetica,sans-Serif" font-size="10.00">iomanip</text>
</a>
</g>
</g>
<!-- Node1&#45;&gt;Node16 -->
<g id="edge21_Node000001_Node000016" class="edge">
<title>Node1&#45;&gt;Node16</title>
<g id="a_edge21_Node000001_Node000016"><a xlink:title=" ">
<path fill="none" stroke="#63b8ff" d="M456.41,-219.98C472.05,-211.61 496.16,-198.7 514.38,-188.95"/>
<polygon fill="#63b8ff" stroke="#63b8ff" points="516.14,-191.98 523.3,-184.17 512.84,-185.8 516.14,-191.98"/>
</a>
</g>
</g>
<!-- Node2&#45;&gt;Node1 -->
<g id="edge20_Node000002_Node000001" class="edge">
<title>Node2&#45;&gt;Node1</title>
<g id="a_edge20_Node000002_Node000001"><a xlink:title=" ">
<path fill="none" stroke="#63b8ff" d="M445.63,-184.09C447.14,-190.99 447.59,-200.93 446.99,-209.66"/>
<polygon fill="#63b8ff" stroke="#63b8ff" points="443.5,-209.38 445.67,-219.75 450.44,-210.29 443.5,-209.38"/>
</a>
</g>
</g>
<!-- Node3 -->
<g id="Node000003" class="node">
<title>Node3</title>
<g id="a_Node000003"><a xlink:href="as5047u__spi__interface_8hpp.html" target="_top" xlink:title="CRTP&#45;based SPI bus interface for AS5047U driver.">
<polygon fill="white" stroke="#666666" points="147,-129 0,-129 0,-110 147,-110 147,-129"/>
<text text-anchor="middle" x="73.5" y="-117" font-family="Helvetica,sans-Serif" font-size="10.00">as5047u_spi_interface.hpp</text>
</a>
</g>
</g>
<!-- Node2&#45;&gt;Node3 -->
<g id="edge2_Node000002_Node000003" class="edge">
<title>Node2&#45;&gt;Node3</title>
<g id="a_edge2_Node000002_Node000003"><a xlink:title=" ">
<path fill="none" stroke="#63b8ff" d="M387.92,-165.91C323.41,-156.59 213.85,-140.77 142.59,-130.48"/>
<polygon fill="#63b8ff" stroke="#63b8ff" points="142.76,-126.97 132.36,-129 141.76,-133.89 142.76,-126.97"/>
</a>
</g>
</g>
<!-- Node5 -->
<g id="Node000005" class="node">
<title>Node5</title>
<g id="a_Node000005"><a xlink:title=" ">
<polygon fill="#e0e0e0" stroke="#999999" points="292.5,-19 242.5,-19 242.5,0 292.5,0 292.5,-19"/>
<text text-anchor="middle" x="267.5" y="-7" font-family="Helvetica,sans-Serif" font-size="10.00">cstdint</text>
</a>
</g>
</g>
<!-- Node2&#45;&gt;Node5 -->
<g id="edge12_Node000002_Node000005" class="edge">
<title>Node2&#45;&gt;Node5</title>
<g id="a_edge12_Node000002_Node000005"><a xlink:title=" ">
<path fill="none" stroke="#63b8ff" d="M387.9,-167.79C332.53,-160.89 249.93,-147.82 224.5,-129 195.98,-107.88 177.12,-85.94 194.5,-55 202.85,-40.14 218.4,-29.65 233.01,-22.61"/>
<polygon fill="#63b8ff" stroke="#63b8ff" points="234.65,-25.71 242.39,-18.47 231.82,-19.31 234.65,-25.71"/>
</a>
</g>
</g>
<!-- Node6 -->
<g id="Node000006" class="node">
<title>Node6</title>
<g id="a_Node000006"><a xlink:href="as5047u__registers_8hpp.html" target="_top" xlink:title="Register definitions for the AS5047U Rotary Position Sensor.">
<polygon fill="white" stroke="#666666" points="331,-74 204,-74 204,-55 331,-55 331,-74"/>
<text text-anchor="middle" x="267.5" y="-62" font-family="Helvetica,sans-Serif" font-size="10.00">as5047u_registers.hpp</text>
</a>
</g>
</g>
<!-- Node2&#45;&gt;Node6 -->
<g id="edge5_Node000002_Node000006" class="edge">
<title>Node2&#45;&gt;Node6</title>
<g id="a_edge5_Node000002_Node000006"><a xlink:title=" ">
<path fill="none" stroke="#63b8ff" d="M387.6,-169.61C332.53,-164.33 251.66,-152.69 232.5,-129 220.48,-114.13 235.04,-94.56 248.87,-81.09"/>
<polygon fill="#63b8ff" stroke="#63b8ff" points="251.28,-83.63 256.31,-74.31 246.56,-78.46 251.28,-83.63"/>
</a>
</g>
</g>
<!-- Node7 -->
<g id="Node000007" class="node">
<title>Node7</title>
<g id="a_Node000007"><a xlink:title=" ">
<polygon fill="#e0e0e0" stroke="#999999" points="305.5,-129 241.5,-129 241.5,-110 305.5,-110 305.5,-129"/>
<text text-anchor="middle" x="273.5" y="-117" font-family="Helvetica,sans-Serif" font-size="10.00">algorithm</text>
</a>
</g>
</g>
<!-- Node2&#45;&gt;Node7 -->
<g id="edge7_Node000002_Node000007" class="edge">
<title>Node2&#45;&gt;Node7</title>
<g id="a_edge7_Node000002_Node000007"><a xlink:title=" ">
<path fill="none" stroke="#63b8ff" d="M413.67,-164.98C385.63,-156.09 341.45,-142.07 310.2,-132.15"/>
<polygon fill="#63b8ff" stroke="#63b8ff" points="311.13,-128.77 300.54,-129.08 309.01,-135.44 311.13,-128.77"/>
</a>
</g>
</g>
<!-- Node8 -->
<g id="Node000008" class="node">
<title>Node8</title>
<g id="a_Node000008"><a xlink:title=" ">
<polygon fill="#e0e0e0" stroke="#999999" points="365.5,-129 323.5,-129 323.5,-110 365.5,-110 365.5,-129"/>
<text text-anchor="middle" x="344.5" y="-117" font-family="Helvetica,sans-Serif" font-size="10.00">array</text>
</a>
</g>
</g>
<!-- Node2&#45;&gt;Node8 -->
<g id="edge8_Node000002_Node000008" class="edge">
<title>Node2&#45;&gt;Node8</title>
<g id="a_edge8_Node000002_Node000008"><a xlink:title=" ">
<path fill="none" stroke="#63b8ff" d="M425.08,-164.98C410.05,-156.69 386.96,-143.94 369.34,-134.22"/>
<polygon fill="#63b8ff" stroke="#63b8ff" points="370.65,-130.94 360.2,-129.17 367.27,-137.07 370.65,-130.94"/>
</a>
</g>
</g>
<!-- Node9 -->
<g id="Node000009" class="node">
<title>Node9</title>
<g id="a_Node000009"><a xlink:title=" ">
<polygon fill="#e0e0e0" stroke="#999999" points="433.5,-129 383.5,-129 383.5,-110 433.5,-110 433.5,-129"/>
<text text-anchor="middle" x="408.5" y="-117" font-family="Helvetica,sans-Serif" font-size="10.00">atomic</text>
</a>
</g>
</g>
<!-- Node2&#45;&gt;Node9 -->
<g id="edge9_Node000002_Node000009" class="edge">
<title>Node2&#45;&gt;Node9</title>
<g id="a_edge9_Node000002_Node000009"><a xlink:title=" ">
<path fill="none" stroke="#63b8ff" d="M435.22,-164.75C430.79,-157.42 424.34,-146.73 418.88,-137.7"/>
<polygon fill="#63b8ff" stroke="#63b8ff" points="421.85,-135.84 413.69,-129.09 415.86,-139.46 421.85,-135.84"/>
</a>
</g>
</g>
<!-- Node10 -->
<g id="Node000010" class="node">
<title>Node10</title>
<g id="a_Node000010"><a xlink:title=" ">
<polygon fill="#e0e0e0" stroke="#999999" points="495.5,-129 451.5,-129 451.5,-110 495.5,-110 495.5,-129"/>
<text text-anchor="middle" x="473.5" y="-117" font-family="Helvetica,sans-Serif" font-size="10.00">bitset</text>
</a>
</g>
</g>
<!-- Node2&#45;&gt;Node10 -->
<g id="edge10_Node000002_Node000010" class="edge">
<title>Node2&#45;&gt;Node10</title>
<g id="a_edge10_Node000002_Node000010"><a xlink:title=" ">
<path fill="none" stroke="#63b8ff" d="M445.95,-164.75C450.51,-157.42 457.17,-146.73 462.79,-137.7"/>
<polygon fill="#63b8ff" stroke="#63b8ff" points="465.84,-139.43 468.15,-129.09 459.9,-135.73 465.84,-139.43"/>
</a>
</g>
</g>
<!-- Node11 -->
<g id="Node000011" class="node">
<title>Node11</title>
<g id="a_Node000011"><a xlink:title=" ">
<polygon fill="#e0e0e0" stroke="#999999" points="561,-129 514,-129 514,-110 561,-110 561,-129"/>
<text text-anchor="middle" x="537.5" y="-117" font-family="Helvetica,sans-Serif" font-size="10.00">cmath</text>
</a>
</g>
</g>
<!-- Node2&#45;&gt;Node11 -->
<g id="edge11_Node000002_Node000011" class="edge">
<title>Node2&#45;&gt;Node11</title>
<g id="a_edge11_Node000002_Node000011"><a xlink:title=" ">
<path fill="none" stroke="#63b8ff" d="M456.08,-164.98C471.27,-156.69 494.6,-143.94 512.4,-134.22"/>
<polygon fill="#63b8ff" stroke="#63b8ff" points="514.53,-137.04 521.63,-129.17 511.18,-130.89 514.53,-137.04"/>
</a>
</g>
</g>
<!-- Node12 -->
<g id="Node000012" class="node">
<title>Node12</title>
<g id="a_Node000012"><a xlink:title=" ">
<polygon fill="#e0e0e0" stroke="#999999" points="625.5,-129 579.5,-129 579.5,-110 625.5,-110 625.5,-129"/>
<text text-anchor="middle" x="602.5" y="-117" font-family="Helvetica,sans-Serif" font-size="10.00">cstdio</text>
</a>
</g>
</g>
<!-- Node2&#45;&gt;Node12 -->
<g id="edge13_Node000002_Node000012" class="edge">
<title>Node2&#45;&gt;Node12</title>
<g id="a_edge13_Node000002_Node000012"><a xlink:title=" ">
<path fill="none" stroke="#63b8ff" d="M466.53,-164.98C494.57,-155.81 539.26,-141.19 569.69,-131.23"/>
<polygon fill="#63b8ff" stroke="#63b8ff" points="571.01,-134.49 579.42,-128.05 568.83,-127.83 571.01,-134.49"/>
</a>
</g>
</g>
<!-- Node13 -->
<g id="Node000013" class="node">
<title>Node13</title>
<g id="a_Node000013"><a xlink:title=" ">
<polygon fill="#e0e0e0" stroke="#999999" points="709,-129 644,-129 644,-110 709,-110 709,-129"/>
<text text-anchor="middle" x="676.5" y="-117" font-family="Helvetica,sans-Serif" font-size="10.00">functional</text>
</a>
</g>
</g>
<!-- Node2&#45;&gt;Node13 -->
<g id="edge14_Node000002_Node000013" class="edge">
<title>Node2&#45;&gt;Node13</title>
<g id="a_edge14_Node000002_Node000013"><a xlink:title=" ">
<path fill="none" stroke="#63b8ff" d="M478.42,-164.98C520.97,-155.43 589.82,-139.97 634.12,-130.02"/>
<polygon fill="#63b8ff" stroke="#63b8ff" points="635,-133.41 643.99,-127.8 633.47,-126.58 635,-133.41"/>
</a>
</g>
</g>
<!-- Node14 -->
<g id="Node000014" class="node">
<title>Node14</title>
<g id="a_Node000014"><a xlink:href="as5047u__types_8hpp.html" target="_top" xlink:title="Type definitions for the AS5047U driver.">
<polygon fill="white" stroke="#666666" points="793,-74 682,-74 682,-55 793,-55 793,-74"/>
<text text-anchor="middle" x="737.5" y="-62" font-family="Helvetica,sans-Serif" font-size="10.00">as5047u_types.hpp</text>
</a>
</g>
</g>
<!-- Node2&#45;&gt;Node14 -->
<g id="edge15_Node000002_Node000014" class="edge">
<title>Node2&#45;&gt;Node14</title>
<g id="a_edge15_Node000002_Node000014"><a xlink:title=" ">
<path fill="none" stroke="#63b8ff" d="M493.1,-165.8C572.51,-154.07 714.27,-132.7 718.5,-129 731.07,-117.99 735.49,-99.04 736.97,-84.71"/>
<polygon fill="#63b8ff" stroke="#63b8ff" points="740.48,-84.63 737.62,-74.43 733.49,-84.19 740.48,-84.63"/>
</a>
</g>
</g>
<!-- Node15 -->
<g id="Node000015" class="node">
<title>Node15</title>
<g id="a_Node000015"><a xlink:href="as5047u__config_8hpp.html" target="_top" xlink:title=" ">
<polygon fill="white" stroke="#666666" points="879,-129 766,-129 766,-110 879,-110 879,-129"/>
<text text-anchor="middle" x="822.5" y="-117" font-family="Helvetica,sans-Serif" font-size="10.00">as5047u_config.hpp</text>
</a>
</g>
</g>
<!-- Node2&#45;&gt;Node15 -->
<g id="edge17_Node000002_Node000015" class="edge">
<title>Node2&#45;&gt;Node15</title>
<g id="a_edge17_Node000002_Node000015"><a xlink:title=" ">
<path fill="none" stroke="#63b8ff" d="M493.21,-166.19C561.63,-156.69 681.07,-140.12 755.75,-129.76"/>
<polygon fill="#63b8ff" stroke="#63b8ff" points="756.55,-133.18 765.98,-128.34 755.59,-126.25 756.55,-133.18"/>
</a>
</g>
</g>
<!-- Node4 -->
<g id="Node000004" class="node">
<title>Node4</title>
<g id="a_Node000004"><a xlink:title=" ">
<polygon fill="#e0e0e0" stroke="#999999" points="100,-74 47,-74 47,-55 100,-55 100,-74"/>
<text text-anchor="middle" x="73.5" y="-62" font-family="Helvetica,sans-Serif" font-size="10.00">cstddef</text>
</a>
</g>
</g>
<!-- Node3&#45;&gt;Node4 -->
<g id="edge3_Node000003_Node000004" class="edge">
<title>Node3&#45;&gt;Node4</title>
<g id="a_edge3_Node000003_Node000004"><a xlink:title=" ">
<path fill="none" stroke="#63b8ff" d="M73.5,-109.75C73.5,-102.8 73.5,-92.85 73.5,-84.13"/>
<polygon fill="#63b8ff" stroke="#63b8ff" points="77,-84.09 73.5,-74.09 70,-84.09 77,-84.09"/>
</a>
</g>
</g>
<!-- Node3&#45;&gt;Node5 -->
<g id="edge4_Node000003_Node000005" class="edge">
<title>Node3&#45;&gt;Node5</title>
<g id="a_edge4_Node000003_Node000005"><a xlink:title=" ">
<path fill="none" stroke="#63b8ff" d="M83.81,-109.86C99.73,-96.79 131.6,-71.78 161.5,-55 184.49,-42.1 211.97,-30.67 233.2,-22.62"/>
<polygon fill="#63b8ff" stroke="#63b8ff" points="234.61,-25.83 242.76,-19.06 232.17,-19.27 234.61,-25.83"/>
</a>
</g>
</g>
<!-- Node6&#45;&gt;Node5 -->
<g id="edge6_Node000006_Node000005" class="edge">
<title>Node6&#45;&gt;Node5</title>
<g id="a_edge6_Node000006_Node000005"><a xlink:title=" ">
<path fill="none" stroke="#63b8ff" d="M267.5,-54.75C267.5,-47.8 267.5,-37.85 267.5,-29.13"/>
<polygon fill="#63b8ff" stroke="#63b8ff" points="271,-29.09 267.5,-19.09 264,-29.09 271,-29.09"/>
</a>
</g>
</g>
<!-- Node14&#45;&gt;Node5 -->
<g id="edge16_Node000014_Node000005" class="edge">
<title>Node14&#45;&gt;Node5</title>
<g id="a_edge16_Node000014_Node000005"><a xlink:title=" ">
<path fill="none" stroke="#63b8ff" d="M681.74,-57.21C583.88,-46.18 383.94,-23.63 302.85,-14.49"/>
<polygon fill="#63b8ff" stroke="#63b8ff" points="302.99,-10.98 292.66,-13.34 302.21,-17.94 302.99,-10.98"/>
</a>
</g>
</g>
<!-- Node15&#45;&gt;Node5 -->
<g id="edge18_Node000015_Node000005" class="edge">
<title>Node15&#45;&gt;Node5</title>
<g id="a_edge18_Node000015_Node000005"><a xlink:title=" ">
<path fill="none" stroke="#63b8ff" d="M822.6,-109.86C822.24,-95.86 819.29,-68.42 802.5,-55 763.53,-23.85 415.56,-13.68 302.68,-11.18"/>
<polygon fill="#63b8ff" stroke="#63b8ff" points="302.58,-7.68 292.51,-10.96 302.43,-14.68 302.58,-7.68"/>
</a>
</g>
</g>
<!-- Node15&#45;&gt;Node14 -->
<g id="edge19_Node000015_Node000014" class="edge">
<title>Node15&#45;&gt;Node14</title>
<g id="a_edge19_Node000015_Node000014"><a xlink:title=" ">
<path fill="none" stroke="#63b8ff" d="M808.84,-109.98C795.66,-101.77 775.47,-89.18 759.93,-79.49"/>
<polygon fill="#63b8ff" stroke="#63b8ff" points="761.74,-76.49 751.41,-74.17 758.04,-82.43 761.74,-76.49"/>
</a>
</g>
</g>
</g>
</svg>
