<?xml version="1.0" encoding="UTF-8" standalone="no"?>
<!DOCTYPE svg PUBLIC "-//W3C//DTD SVG 1.1//EN"
 "http://www.w3.org/Graphics/SVG/1.1/DTD/svg11.dtd">
<!-- Generated by graphviz version 2.43.0 (0)
 -->
<!-- Title: examples/esp32/main/configuration_example.cpp Pages: 1 -->
<svg width="1671pt" height="269pt"
 viewBox="0.00 0.00 1671.00 269.00" xmlns="http://www.w3.org/2000/svg" xmlns:xlink="http://www.w3.org/1999/xlink">
<g id="graph0" class="graph" transform="scale(1 1) rotate(0) translate(4 265)">
<title>examples/esp32/main/configuration_example.cpp</title>
<!-- Node1 -->
<g id="Node000001" class="node">
<title>Node1</title>
<g id="a_Node000001"><a xlink:title="Configuration example with ABI, UVW, and PWM setup.">
<polygon fill="#999999" stroke="#666666" points="939.5,-261 787.5,-261 787.5,-231 939.5,-231 939.5,-261"/>
<text text-anchor="start" x="795.5" y="-249" font-family="Helvetica,sans-Serif" font-size="10.00">examples/esp32/main</text>
<text text-anchor="middle" x="863.5" y="-238" font-family="Helvetica,sans-Serif" font-size="10.00">/configuration_example.cpp</text>
</a>
</g>
</g>
<!-- Node2 -->
<g id="Node000002" class="node">
<title>Node2</title>
<g id="a_Node000002"><a xlink:title=" ">
<polygon fill="#e0e0e0" stroke="#999999" points="63,-134.5 0,-134.5 0,-115.5 63,-115.5 63,-134.5"/>
<text text-anchor="middle" x="31.5" y="-122.5" font-family="Helvetica,sans-Serif" font-size="10.00">esp_log.h</text>
</a>
</g>
</g>
<!-- Node1&#45;&gt;Node2 -->
<g id="edge1_Node000001_Node000002" class="edge">
<title>Node1&#45;&gt;Node2</title>
<g id="a_edge1_Node000001_Node000002"><a xlink:title=" ">
<path fill="none" stroke="#63b8ff" d="M787.27,-242.36C636.82,-236.64 306.74,-221.45 196.5,-195 144.51,-182.53 87.81,-155.62 56.26,-139.33"/>
<polygon fill="#63b8ff" stroke="#63b8ff" points="57.79,-136.19 47.31,-134.65 54.54,-142.39 57.79,-136.19"/>
</a>
</g>
</g>
<!-- Node3 -->
<g id="Node000003" class="node">
<title>Node3</title>
<g id="a_Node000003"><a xlink:title=" ">
<polygon fill="#e0e0e0" stroke="#999999" points="1217,-195 1104,-195 1104,-176 1217,-176 1217,-195"/>
<text text-anchor="middle" x="1160.5" y="-183" font-family="Helvetica,sans-Serif" font-size="10.00">freertos/FreeRTOS.h</text>
</a>
</g>
</g>
<!-- Node1&#45;&gt;Node3 -->
<g id="edge2_Node000001_Node000003" class="edge">
<title>Node1&#45;&gt;Node3</title>
<g id="a_edge2_Node000001_Node000003"><a xlink:title=" ">
<path fill="none" stroke="#63b8ff" d="M934.64,-230.99C987.67,-220.54 1058.96,-206.5 1107.16,-197.01"/>
<polygon fill="#63b8ff" stroke="#63b8ff" points="1107.94,-200.42 1117.07,-195.05 1106.59,-193.55 1107.94,-200.42"/>
</a>
</g>
</g>
<!-- Node4 -->
<g id="Node000004" class="node">
<title>Node4</title>
<g id="a_Node000004"><a xlink:title=" ">
<polygon fill="#e0e0e0" stroke="#999999" points="1323.5,-195 1235.5,-195 1235.5,-176 1323.5,-176 1323.5,-195"/>
<text text-anchor="middle" x="1279.5" y="-183" font-family="Helvetica,sans-Serif" font-size="10.00">freertos/task.h</text>
</a>
</g>
</g>
<!-- Node1&#45;&gt;Node4 -->
<g id="edge3_Node000001_Node000004" class="edge">
<title>Node1&#45;&gt;Node4</title>
<g id="a_edge3_Node000001_Node000004"><a xlink:title=" ">
<path fill="none" stroke="#63b8ff" d="M939.7,-235C1010.91,-225.55 1120.45,-210.71 1225.15,-195.17"/>
<polygon fill="#63b8ff" stroke="#63b8ff" points="1225.89,-198.6 1235.26,-193.67 1224.86,-191.68 1225.89,-198.6"/>
</a>
</g>
</g>
<!-- Node5 -->
<g id="Node000005" class="node">
<title>Node5</title>
<g id="a_Node000005"><a xlink:title=" ">
<polygon fill="#e0e0e0" stroke="#999999" points="139.5,-134.5 81.5,-134.5 81.5,-115.5 139.5,-115.5 139.5,-134.5"/>
<text text-anchor="middle" x="110.5" y="-122.5" font-family="Helvetica,sans-Serif" font-size="10.00">memory</text>
</a>
</g>
</g>
<!-- Node1&#45;&gt;Node5 -->
<g id="edge4_Node000001_Node000005" class="edge">
<title>Node1&#45;&gt;Node5</title>
<g id="a_edge4_Node000001_Node000005"><a xlink:title=" ">
<path fill="none" stroke="#63b8ff" d="M787.37,-242.51C645.53,-237.25 346.18,-223.14 246.5,-195 203.38,-182.83 157.84,-156.6 131.93,-140.21"/>
<polygon fill="#63b8ff" stroke="#63b8ff" points="133.61,-137.14 123.3,-134.67 129.82,-143.02 133.61,-137.14"/>
</a>
</g>
</g>
<!-- Node6 -->
<g id="Node000006" class="node">
<title>Node6</title>
<g id="a_Node000006"><a xlink:title=" ">
<polygon fill="#e0e0e0" stroke="#999999" points="1391.5,-195 1341.5,-195 1341.5,-176 1391.5,-176 1391.5,-195"/>
<text text-anchor="middle" x="1366.5" y="-183" font-family="Helvetica,sans-Serif" font-size="10.00">stdio.h</text>
</a>
</g>
</g>
<!-- Node1&#45;&gt;Node6 -->
<g id="edge5_Node000001_Node000006" class="edge">
<title>Node1&#45;&gt;Node6</title>
<g id="a_edge5_Node000001_Node000006"><a xlink:title=" ">
<path fill="none" stroke="#63b8ff" d="M939.91,-240.13C1031.02,-233.58 1187.99,-219.98 1331.46,-194.95"/>
<polygon fill="#63b8ff" stroke="#63b8ff" points="1332.09,-198.39 1341.33,-193.21 1330.88,-191.5 1332.09,-198.39"/>
</a>
</g>
</g>
<!-- Node7 -->
<g id="Node000007" class="node">
<title>Node7</title>
<g id="a_Node000007"><a xlink:href="as5047u_8hpp.html" target="_top" xlink:title="Driver for AMS AS5047U Magnetic Rotary Position Sensor (C++21).">
<polygon fill="white" stroke="#666666" points="1086,-195 963,-195 963,-176 1086,-176 1086,-195"/>
<text text-anchor="middle" x="1024.5" y="-183" font-family="Helvetica,sans-Serif" font-size="10.00">../../../inc/as5047u.hpp</text>
</a>
</g>
</g>
<!-- Node1&#45;&gt;Node7 -->
<g id="edge6_Node000001_Node000007" class="edge">
<title>Node1&#45;&gt;Node7</title>
<g id="a_edge6_Node000001_Node000007"><a xlink:title=" ">
<path fill="none" stroke="#63b8ff" d="M902.06,-230.99C929.29,-221.1 965.38,-207.98 991.32,-198.56"/>
<polygon fill="#63b8ff" stroke="#63b8ff" points="992.52,-201.84 1000.72,-195.14 990.13,-195.26 992.52,-201.84"/>
</a>
</g>
</g>
<!-- Node23 -->
<g id="Node000023" class="node">
<title>Node23</title>
<g id="a_Node000023"><a xlink:href="esp32__as5047u__bus_8hpp.html" target="_top" xlink:title="ESP32 SPI transport implementation for AS5047U driver (header&#45;only)">
<polygon fill="white" stroke="#666666" points="391.5,-195 255.5,-195 255.5,-176 391.5,-176 391.5,-195"/>
<text text-anchor="middle" x="323.5" y="-183" font-family="Helvetica,sans-Serif" font-size="10.00">esp32_as5047u_bus.hpp</text>
</a>
</g>
</g>
<!-- Node1&#45;&gt;Node23 -->
<g id="edge28_Node000001_Node000023" class="edge">
<title>Node1&#45;&gt;Node23</title>
<g id="a_edge28_Node000001_Node000023"><a xlink:title=" ">
<path fill="none" stroke="#63b8ff" d="M787.28,-236.74C685.14,-225.68 504.83,-206.14 401.7,-194.97"/>
<polygon fill="#63b8ff" stroke="#63b8ff" points="401.98,-191.48 391.66,-193.88 401.22,-198.44 401.98,-191.48"/>
</a>
</g>
</g>
<!-- Node24 -->
<g id="Node000024" class="node">
<title>Node24</title>
<g id="a_Node000024"><a xlink:href="esp32__as5047u__test__config_8hpp.html" target="_top" xlink:title="Hardware configuration for AS5047U driver on ESP32&#45;C6.">
<polygon fill="white" stroke="#666666" points="535.5,-140 419.5,-140 419.5,-110 535.5,-110 535.5,-140"/>
<text text-anchor="start" x="427.5" y="-128" font-family="Helvetica,sans-Serif" font-size="10.00">esp32_as5047u_test</text>
<text text-anchor="middle" x="477.5" y="-117" font-family="Helvetica,sans-Serif" font-size="10.00">_config.hpp</text>
</a>
</g>
</g>
<!-- Node1&#45;&gt;Node24 -->
<g id="edge37_Node000001_Node000024" class="edge">
<title>Node1&#45;&gt;Node24</title>
<g id="a_edge37_Node000001_Node000024"><a xlink:title=" ">
<path fill="none" stroke="#63b8ff" d="M818.09,-231C747.04,-209.1 609.81,-166.79 533.01,-143.11"/>
<polygon fill="#63b8ff" stroke="#63b8ff" points="533.63,-139.64 523.04,-140.04 531.57,-146.33 533.63,-139.64"/>
</a>
</g>
</g>
<!-- Node8 -->
<g id="Node000008" class="node">
<title>Node8</title>
<g id="a_Node000008"><a xlink:href="as5047u__spi__interface_8hpp.html" target="_top" xlink:title="CRTP&#45;based SPI bus interface for AS5047U driver.">
<polygon fill="white" stroke="#666666" points="701,-134.5 554,-134.5 554,-115.5 701,-115.5 701,-134.5"/>
<text text-anchor="middle" x="627.5" y="-122.5" font-family="Helvetica,sans-Serif" font-size="10.00">as5047u_spi_interface.hpp</text>
</a>
</g>
</g>
<!-- Node7&#45;&gt;Node8 -->
<g id="edge7_Node000007_Node000008" class="edge">
<title>Node7&#45;&gt;Node8</title>
<g id="a_edge7_Node000007_Node000008"><a xlink:title=" ">
<path fill="none" stroke="#63b8ff" d="M963.49,-175.98C901.13,-167.22 801.51,-153.03 715.5,-140 707.45,-138.78 699,-137.47 690.64,-136.16"/>
<polygon fill="#63b8ff" stroke="#63b8ff" points="690.95,-132.67 680.53,-134.57 689.86,-139.58 690.95,-132.67"/>
</a>
</g>
</g>
<!-- Node10 -->
<g id="Node000010" class="node">
<title>Node10</title>
<g id="a_Node000010"><a xlink:title=" ">
<polygon fill="#e0e0e0" stroke="#999999" points="755.5,-19 705.5,-19 705.5,0 755.5,0 755.5,-19"/>
<text text-anchor="middle" x="730.5" y="-7" font-family="Helvetica,sans-Serif" font-size="10.00">cstdint</text>
</a>
</g>
</g>
<!-- Node7&#45;&gt;Node10 -->
<g id="edge17_Node000007_Node000010" class="edge">
<title>Node7&#45;&gt;Node10</title>
<g id="a_edge17_Node000007_Node000010"><a xlink:title=" ">
<path fill="none" stroke="#63b8ff" d="M1086.06,-177.02C1089.25,-176.67 1092.41,-176.33 1095.5,-176 1139.11,-171.39 1458.94,-172.39 1488.5,-140 1497.49,-130.15 1491.22,-123.05 1488.5,-110 1483.05,-83.89 1486.36,-70.28 1464.5,-55 1406.81,-14.69 903.93,-10.81 765.59,-10.5"/>
<polygon fill="#63b8ff" stroke="#63b8ff" points="765.54,-7 755.54,-10.49 765.53,-14 765.54,-7"/>
</a>
</g>
</g>
<!-- Node11 -->
<g id="Node000011" class="node">
<title>Node11</title>
<g id="a_Node000011"><a xlink:href="as5047u__registers_8hpp.html" target="_top" xlink:title="Register definitions for the AS5047U Rotary Position Sensor.">
<polygon fill="white" stroke="#666666" points="1663,-74 1536,-74 1536,-55 1663,-55 1663,-74"/>
<text text-anchor="middle" x="1599.5" y="-62" font-family="Helvetica,sans-Serif" font-size="10.00">as5047u_registers.hpp</text>
</a>
</g>
</g>
<!-- Node7&#45;&gt;Node11 -->
<g id="edge10_Node000007_Node000011" class="edge">
<title>Node7&#45;&gt;Node11</title>
<g id="a_edge10_Node000007_Node000011"><a xlink:title=" ">
<path fill="none" stroke="#63b8ff" d="M1086.06,-177C1089.25,-176.65 1092.41,-176.32 1095.5,-176 1190.01,-166.35 1434.88,-179.03 1521.5,-140 1549.41,-127.42 1573.49,-100.52 1587.24,-82.72"/>
<polygon fill="#63b8ff" stroke="#63b8ff" points="1590.3,-84.48 1593.46,-74.37 1584.68,-80.3 1590.3,-84.48"/>
</a>
</g>
</g>
<!-- Node12 -->
<g id="Node000012" class="node">
<title>Node12</title>
<g id="a_Node000012"><a xlink:title=" ">
<polygon fill="#e0e0e0" stroke="#999999" points="953.5,-134.5 889.5,-134.5 889.5,-115.5 953.5,-115.5 953.5,-134.5"/>
<text text-anchor="middle" x="921.5" y="-122.5" font-family="Helvetica,sans-Serif" font-size="10.00">algorithm</text>
</a>
</g>
</g>
<!-- Node7&#45;&gt;Node12 -->
<g id="edge12_Node000007_Node000012" class="edge">
<title>Node7&#45;&gt;Node12</title>
<g id="a_edge12_Node000007_Node000012"><a xlink:title=" ">
<path fill="none" stroke="#63b8ff" d="M1009.3,-175.87C992.49,-166.32 965.18,-150.81 945.48,-139.62"/>
<polygon fill="#63b8ff" stroke="#63b8ff" points="947.18,-136.56 936.76,-134.67 943.73,-142.65 947.18,-136.56"/>
</a>
</g>
</g>
<!-- Node13 -->
<g id="Node000013" class="node">
<title>Node13</title>
<g id="a_Node000013"><a xlink:title=" ">
<polygon fill="#e0e0e0" stroke="#999999" points="1013.5,-134.5 971.5,-134.5 971.5,-115.5 1013.5,-115.5 1013.5,-134.5"/>
<text text-anchor="middle" x="992.5" y="-122.5" font-family="Helvetica,sans-Serif" font-size="10.00">array</text>
</a>
</g>
</g>
<!-- Node7&#45;&gt;Node13 -->
<g id="edge13_Node000007_Node000013" class="edge">
<title>Node7&#45;&gt;Node13</title>
<g id="a_edge13_Node000007_Node000013"><a xlink:title=" ">
<path fill="none" stroke="#63b8ff" d="M1019.78,-175.87C1015.15,-167.4 1007.95,-154.24 1002.11,-143.57"/>
<polygon fill="#63b8ff" stroke="#63b8ff" points="1005.11,-141.76 997.24,-134.67 998.97,-145.12 1005.11,-141.76"/>
</a>
</g>
</g>
<!-- Node14 -->
<g id="Node000014" class="node">
<title>Node14</title>
<g id="a_Node000014"><a xlink:title=" ">
<polygon fill="#e0e0e0" stroke="#999999" points="1081.5,-134.5 1031.5,-134.5 1031.5,-115.5 1081.5,-115.5 1081.5,-134.5"/>
<text text-anchor="middle" x="1056.5" y="-122.5" font-family="Helvetica,sans-Serif" font-size="10.00">atomic</text>
</a>
</g>
</g>
<!-- Node7&#45;&gt;Node14 -->
<g id="edge14_Node000007_Node000014" class="edge">
<title>Node7&#45;&gt;Node14</title>
<g id="a_edge14_Node000007_Node000014"><a xlink:title=" ">
<path fill="none" stroke="#63b8ff" d="M1029.22,-175.87C1033.85,-167.4 1041.05,-154.24 1046.89,-143.57"/>
<polygon fill="#63b8ff" stroke="#63b8ff" points="1050.03,-145.12 1051.76,-134.67 1043.89,-141.76 1050.03,-145.12"/>
</a>
</g>
</g>
<!-- Node15 -->
<g id="Node000015" class="node">
<title>Node15</title>
<g id="a_Node000015"><a xlink:title=" ">
<polygon fill="#e0e0e0" stroke="#999999" points="1143.5,-134.5 1099.5,-134.5 1099.5,-115.5 1143.5,-115.5 1143.5,-134.5"/>
<text text-anchor="middle" x="1121.5" y="-122.5" font-family="Helvetica,sans-Serif" font-size="10.00">bitset</text>
</a>
</g>
</g>
<!-- Node7&#45;&gt;Node15 -->
<g id="edge15_Node000007_Node000015" class="edge">
<title>Node7&#45;&gt;Node15</title>
<g id="a_edge15_Node000007_Node000015"><a xlink:title=" ">
<path fill="none" stroke="#63b8ff" d="M1038.81,-175.87C1054.5,-166.41 1079.9,-151.09 1098.41,-139.92"/>
<polygon fill="#63b8ff" stroke="#63b8ff" points="1100.37,-142.83 1107.13,-134.67 1096.76,-136.83 1100.37,-142.83"/>
</a>
</g>
</g>
<!-- Node16 -->
<g id="Node000016" class="node">
<title>Node16</title>
<g id="a_Node000016"><a xlink:title=" ">
<polygon fill="#e0e0e0" stroke="#999999" points="1209,-134.5 1162,-134.5 1162,-115.5 1209,-115.5 1209,-134.5"/>
<text text-anchor="middle" x="1185.5" y="-122.5" font-family="Helvetica,sans-Serif" font-size="10.00">cmath</text>
</a>
</g>
</g>
<!-- Node7&#45;&gt;Node16 -->
<g id="edge16_Node000007_Node000016" class="edge">
<title>Node7&#45;&gt;Node16</title>
<g id="a_edge16_Node000007_Node000016"><a xlink:title=" ">
<path fill="none" stroke="#63b8ff" d="M1050.67,-175.97C1076.67,-167.36 1117.6,-153.45 1152.5,-140 1153.88,-139.47 1155.29,-138.91 1156.7,-138.35"/>
<polygon fill="#63b8ff" stroke="#63b8ff" points="1158.13,-141.55 1166.04,-134.51 1155.46,-135.07 1158.13,-141.55"/>
</a>
</g>
</g>
<!-- Node17 -->
<g id="Node000017" class="node">
<title>Node17</title>
<g id="a_Node000017"><a xlink:title=" ">
<polygon fill="#e0e0e0" stroke="#999999" points="1273.5,-134.5 1227.5,-134.5 1227.5,-115.5 1273.5,-115.5 1273.5,-134.5"/>
<text text-anchor="middle" x="1250.5" y="-122.5" font-family="Helvetica,sans-Serif" font-size="10.00">cstdio</text>
</a>
</g>
</g>
<!-- Node7&#45;&gt;Node17 -->
<g id="edge18_Node000007_Node000017" class="edge">
<title>Node7&#45;&gt;Node17</title>
<g id="a_edge18_Node000007_Node000017"><a xlink:title=" ">
<path fill="none" stroke="#63b8ff" d="M1073.02,-175.98C1112.69,-168.4 1169.94,-156.04 1218.5,-140 1219.94,-139.52 1221.4,-139.01 1222.87,-138.46"/>
<polygon fill="#63b8ff" stroke="#63b8ff" points="1224.49,-141.59 1232.45,-134.6 1221.87,-135.09 1224.49,-141.59"/>
</a>
</g>
</g>
<!-- Node18 -->
<g id="Node000018" class="node">
<title>Node18</title>
<g id="a_Node000018"><a xlink:title=" ">
<polygon fill="#e0e0e0" stroke="#999999" points="1357,-134.5 1292,-134.5 1292,-115.5 1357,-115.5 1357,-134.5"/>
<text text-anchor="middle" x="1324.5" y="-122.5" font-family="Helvetica,sans-Serif" font-size="10.00">functional</text>
</a>
</g>
</g>
<!-- Node7&#45;&gt;Node18 -->
<g id="edge19_Node000007_Node000018" class="edge">
<title>Node7&#45;&gt;Node18</title>
<g id="a_edge19_Node000007_Node000018"><a xlink:title=" ">
<path fill="none" stroke="#63b8ff" d="M1086.03,-176.55C1138.65,-169.13 1216.16,-156.68 1282.5,-140 1285.3,-139.3 1288.17,-138.5 1291.05,-137.65"/>
<polygon fill="#63b8ff" stroke="#63b8ff" points="1292.2,-140.96 1300.7,-134.63 1290.11,-134.28 1292.2,-140.96"/>
</a>
</g>
</g>
<!-- Node19 -->
<g id="Node000019" class="node">
<title>Node19</title>
<g id="a_Node000019"><a xlink:href="as5047u__types_8hpp.html" target="_top" xlink:title="Type definitions for the AS5047U driver.">
<polygon fill="white" stroke="#666666" points="786,-74 675,-74 675,-55 786,-55 786,-74"/>
<text text-anchor="middle" x="730.5" y="-62" font-family="Helvetica,sans-Serif" font-size="10.00">as5047u_types.hpp</text>
</a>
</g>
</g>
<!-- Node7&#45;&gt;Node19 -->
<g id="edge20_Node000007_Node000019" class="edge">
<title>Node7&#45;&gt;Node19</title>
<g id="a_edge20_Node000007_Node000019"><a xlink:title=" ">
<path fill="none" stroke="#63b8ff" d="M962.83,-182.22C891.48,-178.29 779.88,-167.78 749.5,-140 734.21,-126.02 730.48,-101.61 729.91,-84.56"/>
<polygon fill="#63b8ff" stroke="#63b8ff" points="733.41,-84.14 729.91,-74.14 726.41,-84.14 733.41,-84.14"/>
</a>
</g>
</g>
<!-- Node20 -->
<g id="Node000020" class="node">
<title>Node20</title>
<g id="a_Node000020"><a xlink:href="as5047u__config_8hpp.html" target="_top" xlink:title=" ">
<polygon fill="white" stroke="#666666" points="871,-134.5 758,-134.5 758,-115.5 871,-115.5 871,-134.5"/>
<text text-anchor="middle" x="814.5" y="-122.5" font-family="Helvetica,sans-Serif" font-size="10.00">as5047u_config.hpp</text>
</a>
</g>
</g>
<!-- Node7&#45;&gt;Node20 -->
<g id="edge22_Node000007_Node000020" class="edge">
<title>Node7&#45;&gt;Node20</title>
<g id="a_edge22_Node000007_Node000020"><a xlink:title=" ">
<path fill="none" stroke="#63b8ff" d="M993.96,-175.99C957.26,-165.77 895.55,-148.58 854.92,-137.26"/>
<polygon fill="#63b8ff" stroke="#63b8ff" points="855.65,-133.83 845.07,-134.52 853.77,-140.57 855.65,-133.83"/>
</a>
</g>
</g>
<!-- Node21 -->
<g id="Node000021" class="node">
<title>Node21</title>
<g id="a_Node000021"><a xlink:href="as5047u_8cpp.html" target="_top" xlink:title=" ">
<polygon fill="white" stroke="#666666" points="1479.5,-134.5 1375.5,-134.5 1375.5,-115.5 1479.5,-115.5 1479.5,-134.5"/>
<text text-anchor="middle" x="1427.5" y="-122.5" font-family="Helvetica,sans-Serif" font-size="10.00">../src/as5047u.cpp</text>
</a>
</g>
</g>
<!-- Node7&#45;&gt;Node21 -->
<g id="edge25_Node000007_Node000021" class="edge">
<title>Node7&#45;&gt;Node21</title>
<g id="a_edge25_Node000007_Node000021"><a xlink:title=" ">
<path fill="none" stroke="#63b8ff" d="M1086,-176.08C1174.87,-164.55 1331.16,-144.72 1357.5,-140 1362.91,-139.03 1368.57,-137.89 1374.24,-136.7"/>
<polygon fill="#63b8ff" stroke="#63b8ff" points="1375.35,-140.04 1384.39,-134.5 1373.87,-133.2 1375.35,-140.04"/>
</a>
</g>
</g>
<!-- Node9 -->
<g id="Node000009" class="node">
<title>Node9</title>
<g id="a_Node000009"><a xlink:title=" ">
<polygon fill="#e0e0e0" stroke="#999999" points="618,-74 565,-74 565,-55 618,-55 618,-74"/>
<text text-anchor="middle" x="591.5" y="-62" font-family="Helvetica,sans-Serif" font-size="10.00">cstddef</text>
</a>
</g>
</g>
<!-- Node8&#45;&gt;Node9 -->
<g id="edge8_Node000008_Node000009" class="edge">
<title>Node8&#45;&gt;Node9</title>
<g id="a_edge8_Node000008_Node000009"><a xlink:title=" ">
<path fill="none" stroke="#63b8ff" d="M622.19,-115.37C616.92,-106.81 608.71,-93.47 602.11,-82.74"/>
<polygon fill="#63b8ff" stroke="#63b8ff" points="605.06,-80.85 596.83,-74.17 599.09,-84.52 605.06,-80.85"/>
</a>
</g>
</g>
<!-- Node8&#45;&gt;Node10 -->
<g id="edge9_Node000008_Node000010" class="edge">
<title>Node8&#45;&gt;Node10</title>
<g id="a_edge9_Node000008_Node000010"><a xlink:title=" ">
<path fill="none" stroke="#63b8ff" d="M630.97,-115.14C636.76,-101.17 649.45,-73.72 666.5,-55 677.65,-42.76 692.75,-32.06 705.49,-24.22"/>
<polygon fill="#63b8ff" stroke="#63b8ff" points="707.43,-27.14 714.25,-19.04 703.86,-21.12 707.43,-27.14"/>
</a>
</g>
</g>
<!-- Node11&#45;&gt;Node10 -->
<g id="edge11_Node000011_Node000010" class="edge">
<title>Node11&#45;&gt;Node10</title>
<g id="a_edge11_Node000011_Node000010"><a xlink:title=" ">
<path fill="none" stroke="#63b8ff" d="M1535.68,-56.27C1530.88,-55.81 1526.12,-55.38 1521.5,-55 1230.02,-30.94 877.02,-16.15 765.8,-11.83"/>
<polygon fill="#63b8ff" stroke="#63b8ff" points="765.93,-8.33 755.8,-11.44 765.66,-15.32 765.93,-8.33"/>
</a>
</g>
</g>
<!-- Node19&#45;&gt;Node10 -->
<g id="edge21_Node000019_Node000010" class="edge">
<title>Node19&#45;&gt;Node10</title>
<g id="a_edge21_Node000019_Node000010"><a xlink:title=" ">
<path fill="none" stroke="#63b8ff" d="M730.5,-54.75C730.5,-47.8 730.5,-37.85 730.5,-29.13"/>
<polygon fill="#63b8ff" stroke="#63b8ff" points="734,-29.09 730.5,-19.09 727,-29.09 734,-29.09"/>
</a>
</g>
</g>
<!-- Node20&#45;&gt;Node10 -->
<g id="edge23_Node000020_Node000010" class="edge">
<title>Node20&#45;&gt;Node10</title>
<g id="a_edge23_Node000020_Node000010"><a xlink:title=" ">
<path fill="none" stroke="#63b8ff" d="M813.99,-115.11C812.78,-101.11 808.78,-73.61 795.5,-55 786.17,-41.92 771.71,-31.47 758.8,-24"/>
<polygon fill="#63b8ff" stroke="#63b8ff" points="760.22,-20.79 749.77,-19.08 756.88,-26.94 760.22,-20.79"/>
</a>
</g>
</g>
<!-- Node20&#45;&gt;Node19 -->
<g id="edge24_Node000020_Node000019" class="edge">
<title>Node20&#45;&gt;Node19</title>
<g id="a_edge24_Node000020_Node000019"><a xlink:title=" ">
<path fill="none" stroke="#63b8ff" d="M802.11,-115.37C788.71,-106.04 767.12,-91.01 751.15,-79.88"/>
<polygon fill="#63b8ff" stroke="#63b8ff" points="753.15,-77.01 742.95,-74.17 749.15,-82.75 753.15,-77.01"/>
</a>
</g>
</g>
<!-- Node21&#45;&gt;Node7 -->
<g id="edge26_Node000021_Node000007" class="edge">
<title>Node21&#45;&gt;Node7</title>
<g id="a_edge26_Node000021_Node000007"><a xlink:title=" ">
<path fill="none" stroke="#63b8ff" d="M1401.82,-134.5C1393.45,-136.47 1384.16,-138.45 1375.5,-140 1349.02,-144.75 1191.2,-164.76 1096.36,-176.26"/>
<polygon fill="#63b8ff" stroke="#63b8ff" points="1095.76,-172.81 1086.25,-177.49 1096.6,-179.76 1095.76,-172.81"/>
</a>
</g>
</g>
<!-- Node22 -->
<g id="Node000022" class="node">
<title>Node22</title>
<g id="a_Node000022"><a xlink:title=" ">
<polygon fill="#e0e0e0" stroke="#999999" points="1455.5,-74 1399.5,-74 1399.5,-55 1455.5,-55 1455.5,-74"/>
<text text-anchor="middle" x="1427.5" y="-62" font-family="Helvetica,sans-Serif" font-size="10.00">iomanip</text>
</a>
</g>
</g>
<!-- Node21&#45;&gt;Node22 -->
<g id="edge27_Node000021_Node000022" class="edge">
<title>Node21&#45;&gt;Node22</title>
<g id="a_edge27_Node000021_Node000022"><a xlink:title=" ">
<path fill="none" stroke="#63b8ff" d="M1427.5,-115.37C1427.5,-107.25 1427.5,-94.81 1427.5,-84.39"/>
<polygon fill="#63b8ff" stroke="#63b8ff" points="1431,-84.17 1427.5,-74.17 1424,-84.17 1431,-84.17"/>
</a>
</g>
</g>
<!-- Node23&#45;&gt;Node2 -->
<g id="edge34_Node000023_Node000002" class="edge">
<title>Node23&#45;&gt;Node2</title>
<g id="a_edge34_Node000023_Node000002"><a xlink:title=" ">
<path fill="none" stroke="#63b8ff" d="M260,-176C208.91,-168.5 135.5,-156.24 72.5,-140 69.86,-139.32 67.15,-138.55 64.43,-137.73"/>
<polygon fill="#63b8ff" stroke="#63b8ff" points="65.32,-134.34 54.73,-134.62 63.18,-141.01 65.32,-134.34"/>
</a>
</g>
</g>
<!-- Node23&#45;&gt;Node5 -->
<g id="edge36_Node000023_Node000005" class="edge">
<title>Node23&#45;&gt;Node5</title>
<g id="a_edge36_Node000023_Node000005"><a xlink:title=" ">
<path fill="none" stroke="#63b8ff" d="M288.5,-175.98C254.01,-167.43 199.9,-153.61 153.5,-140 150.91,-139.24 148.23,-138.43 145.55,-137.6"/>
<polygon fill="#63b8ff" stroke="#63b8ff" points="146.48,-134.22 135.89,-134.54 144.37,-140.9 146.48,-134.22"/>
</a>
</g>
</g>
<!-- Node23&#45;&gt;Node8 -->
<g id="edge29_Node000023_Node000008" class="edge">
<title>Node23&#45;&gt;Node8</title>
<g id="a_edge29_Node000023_Node000008"><a xlink:title=" ">
<path fill="none" stroke="#63b8ff" d="M367.7,-175.99C422.19,-165.51 514.74,-147.7 573.41,-136.41"/>
<polygon fill="#63b8ff" stroke="#63b8ff" points="574.08,-139.84 583.24,-134.52 572.76,-132.97 574.08,-139.84"/>
</a>
</g>
</g>
<!-- Node23&#45;&gt;Node10 -->
<g id="edge35_Node000023_Node000010" class="edge">
<title>Node23&#45;&gt;Node10</title>
<g id="a_edge35_Node000023_Node000010"><a xlink:title=" ">
<path fill="none" stroke="#63b8ff" d="M273.03,-175.96C223.08,-165.34 157.89,-144.31 186.5,-110 251.95,-31.49 584.81,-14.75 695.01,-11.34"/>
<polygon fill="#63b8ff" stroke="#63b8ff" points="695.37,-14.83 705.26,-11.04 695.17,-7.83 695.37,-14.83"/>
</a>
</g>
</g>
<!-- Node23&#45;&gt;Node24 -->
<g id="edge30_Node000023_Node000024" class="edge">
<title>Node23&#45;&gt;Node24</title>
<g id="a_edge30_Node000023_Node000024"><a xlink:title=" ">
<path fill="none" stroke="#63b8ff" d="M345.89,-175.99C368.06,-167.57 402.65,-154.43 430.81,-143.73"/>
<polygon fill="#63b8ff" stroke="#63b8ff" points="432.37,-146.89 440.48,-140.06 429.89,-140.34 432.37,-146.89"/>
</a>
</g>
</g>
<!-- Node25 -->
<g id="Node000025" class="node">
<title>Node25</title>
<g id="a_Node000025"><a xlink:title=" ">
<polygon fill="#e0e0e0" stroke="#999999" points="273.5,-134.5 195.5,-134.5 195.5,-115.5 273.5,-115.5 273.5,-134.5"/>
<text text-anchor="middle" x="234.5" y="-122.5" font-family="Helvetica,sans-Serif" font-size="10.00">driver/gpio.h</text>
</a>
</g>
</g>
<!-- Node23&#45;&gt;Node25 -->
<g id="edge32_Node000023_Node000025" class="edge">
<title>Node23&#45;&gt;Node25</title>
<g id="a_edge32_Node000023_Node000025"><a xlink:title=" ">
<path fill="none" stroke="#63b8ff" d="M310.37,-175.87C296.17,-166.54 273.3,-151.51 256.38,-140.38"/>
<polygon fill="#63b8ff" stroke="#63b8ff" points="257.97,-137.24 247.69,-134.67 254.12,-143.08 257.97,-137.24"/>
</a>
</g>
</g>
<!-- Node26 -->
<g id="Node000026" class="node">
<title>Node26</title>
<g id="a_Node000026"><a xlink:title=" ">
<polygon fill="#e0e0e0" stroke="#999999" points="401.5,-134.5 291.5,-134.5 291.5,-115.5 401.5,-115.5 401.5,-134.5"/>
<text text-anchor="middle" x="346.5" y="-122.5" font-family="Helvetica,sans-Serif" font-size="10.00">driver/spi_master.h</text>
</a>
</g>
</g>
<!-- Node23&#45;&gt;Node26 -->
<g id="edge33_Node000023_Node000026" class="edge">
<title>Node23&#45;&gt;Node26</title>
<g id="a_edge33_Node000023_Node000026"><a xlink:title=" ">
<path fill="none" stroke="#63b8ff" d="M326.89,-175.87C330.16,-167.57 335.19,-154.78 339.34,-144.22"/>
<polygon fill="#63b8ff" stroke="#63b8ff" points="342.69,-145.25 343.09,-134.67 336.18,-142.69 342.69,-145.25"/>
</a>
</g>
</g>
<!-- Node24&#45;&gt;Node10 -->
<g id="edge31_Node000024_Node000010" class="edge">
<title>Node24&#45;&gt;Node10</title>
<g id="a_edge31_Node000024_Node000010"><a xlink:title=" ">
<path fill="none" stroke="#63b8ff" d="M489.75,-109.91C504.17,-94.21 529.58,-69.16 556.5,-55 601.08,-31.55 658.69,-19.98 695.13,-14.63"/>
<polygon fill="#63b8ff" stroke="#63b8ff" points="695.85,-18.06 705.27,-13.22 694.88,-11.13 695.85,-18.06"/>
</a>
</g>
</g>
</g>
</svg>
