<?xml version="1.0" encoding="UTF-8" standalone="no"?>
<!DOCTYPE svg PUBLIC "-//W3C//DTD SVG 1.1//EN"
 "http://www.w3.org/Graphics/SVG/1.1/DTD/svg11.dtd">
<!-- Generated by graphviz version 2.43.0 (0)
 -->
<!-- Title: examples/esp32/main/DriverIntegrationTest.cpp Pages: 1 -->
<svg width="1835pt" height="258pt"
 viewBox="0.00 0.00 1834.50 258.00" xmlns="http://www.w3.org/2000/svg" xmlns:xlink="http://www.w3.org/1999/xlink">
<g id="graph0" class="graph" transform="scale(1 1) rotate(0) translate(4 254)">
<title>examples/esp32/main/DriverIntegrationTest.cpp</title>
<!-- Node1 -->
<g id="Node000001" class="node">
<title>Node1</title>
<g id="a_Node000001"><a xlink:title="Comprehensive Integration Test Suite for AS5047U Driver.">
<polygon fill="#999999" stroke="#666666" points="1233.5,-250 1090.5,-250 1090.5,-220 1233.5,-220 1233.5,-250"/>
<text text-anchor="start" x="1098.5" y="-238" font-family="Helvetica,sans-Serif" font-size="10.00">examples/esp32/main</text>
<text text-anchor="middle" x="1162" y="-227" font-family="Helvetica,sans-Serif" font-size="10.00">/DriverIntegrationTest.cpp</text>
</a>
</g>
</g>
<!-- Node2 -->
<g id="Node000002" class="node">
<title>Node2</title>
<g id="a_Node000002"><a xlink:title=" ">
<polygon fill="#e0e0e0" stroke="#999999" points="1497.5,-129 1434.5,-129 1434.5,-110 1497.5,-110 1497.5,-129"/>
<text text-anchor="middle" x="1466" y="-117" font-family="Helvetica,sans-Serif" font-size="10.00">esp_log.h</text>
</a>
</g>
</g>
<!-- Node1&#45;&gt;Node2 -->
<g id="edge1_Node000001_Node000002" class="edge">
<title>Node1&#45;&gt;Node2</title>
<g id="a_edge1_Node000001_Node000002"><a xlink:title=" ">
<path fill="none" stroke="#63b8ff" d="M1233.79,-228.17C1303.77,-221.22 1404.05,-207.48 1435,-184 1449.49,-173.01 1457.59,-153.46 1461.85,-138.95"/>
<polygon fill="#63b8ff" stroke="#63b8ff" points="1465.29,-139.61 1464.39,-129.05 1458.51,-137.87 1465.29,-139.61"/>
</a>
</g>
</g>
<!-- Node3 -->
<g id="Node000003" class="node">
<title>Node3</title>
<g id="a_Node000003"><a xlink:title=" ">
<polygon fill="#e0e0e0" stroke="#999999" points="916,-184 832,-184 832,-165 916,-165 916,-184"/>
<text text-anchor="middle" x="874" y="-172" font-family="Helvetica,sans-Serif" font-size="10.00">esp_system.h</text>
</a>
</g>
</g>
<!-- Node1&#45;&gt;Node3 -->
<g id="edge2_Node000001_Node000003" class="edge">
<title>Node1&#45;&gt;Node3</title>
<g id="a_edge2_Node000001_Node000003"><a xlink:title=" ">
<path fill="none" stroke="#63b8ff" d="M1093.02,-219.99C1041.7,-209.56 972.75,-195.56 926.02,-186.07"/>
<polygon fill="#63b8ff" stroke="#63b8ff" points="926.61,-182.61 916.11,-184.05 925.21,-189.47 926.61,-182.61"/>
</a>
</g>
</g>
<!-- Node4 -->
<g id="Node000004" class="node">
<title>Node4</title>
<g id="a_Node000004"><a xlink:title=" ">
<polygon fill="#e0e0e0" stroke="#999999" points="1309.5,-129 1196.5,-129 1196.5,-110 1309.5,-110 1309.5,-129"/>
<text text-anchor="middle" x="1253" y="-117" font-family="Helvetica,sans-Serif" font-size="10.00">freertos/FreeRTOS.h</text>
</a>
</g>
</g>
<!-- Node1&#45;&gt;Node4 -->
<g id="edge3_Node000001_Node000004" class="edge">
<title>Node1&#45;&gt;Node4</title>
<g id="a_edge3_Node000001_Node000004"><a xlink:title=" ">
<path fill="none" stroke="#63b8ff" d="M1162.86,-219.99C1164.42,-205.04 1168.78,-181.31 1181,-165 1191.34,-151.2 1207.32,-140.71 1221.6,-133.38"/>
<polygon fill="#63b8ff" stroke="#63b8ff" points="1223.17,-136.51 1230.66,-129.03 1220.13,-130.2 1223.17,-136.51"/>
</a>
</g>
</g>
<!-- Node5 -->
<g id="Node000005" class="node">
<title>Node5</title>
<g id="a_Node000005"><a xlink:title=" ">
<polygon fill="#e0e0e0" stroke="#999999" points="1416,-129 1328,-129 1328,-110 1416,-110 1416,-129"/>
<text text-anchor="middle" x="1372" y="-117" font-family="Helvetica,sans-Serif" font-size="10.00">freertos/task.h</text>
</a>
</g>
</g>
<!-- Node1&#45;&gt;Node5 -->
<g id="edge4_Node000001_Node000005" class="edge">
<title>Node1&#45;&gt;Node5</title>
<g id="a_edge4_Node000001_Node000005"><a xlink:title=" ">
<path fill="none" stroke="#63b8ff" d="M1188.17,-219.85C1228.99,-197.79 1307.26,-155.49 1347.21,-133.9"/>
<polygon fill="#63b8ff" stroke="#63b8ff" points="1348.91,-136.96 1356.04,-129.12 1345.58,-130.8 1348.91,-136.96"/>
</a>
</g>
</g>
<!-- Node6 -->
<g id="Node000006" class="node">
<title>Node6</title>
<g id="a_Node000006"><a xlink:title=" ">
<polygon fill="#e0e0e0" stroke="#999999" points="916,-129 858,-129 858,-110 916,-110 916,-129"/>
<text text-anchor="middle" x="887" y="-117" font-family="Helvetica,sans-Serif" font-size="10.00">memory</text>
</a>
</g>
</g>
<!-- Node1&#45;&gt;Node6 -->
<g id="edge5_Node000001_Node000006" class="edge">
<title>Node1&#45;&gt;Node6</title>
<g id="a_edge5_Node000001_Node000006"><a xlink:title=" ">
<path fill="none" stroke="#63b8ff" d="M1090.17,-224C1051.05,-216.6 1002.68,-204.21 963,-184 939.21,-171.88 916.33,-151.11 902,-136.63"/>
<polygon fill="#63b8ff" stroke="#63b8ff" points="904.42,-134.11 894.96,-129.34 899.38,-138.97 904.42,-134.11"/>
</a>
</g>
</g>
<!-- Node7 -->
<g id="Node000007" class="node">
<title>Node7</title>
<g id="a_Node000007"><a xlink:title=" ">
<polygon fill="#e0e0e0" stroke="#999999" points="1240,-184 1190,-184 1190,-165 1240,-165 1240,-184"/>
<text text-anchor="middle" x="1215" y="-172" font-family="Helvetica,sans-Serif" font-size="10.00">stdio.h</text>
</a>
</g>
</g>
<!-- Node1&#45;&gt;Node7 -->
<g id="edge6_Node000001_Node000007" class="edge">
<title>Node1&#45;&gt;Node7</title>
<g id="a_edge6_Node000001_Node000007"><a xlink:title=" ">
<path fill="none" stroke="#63b8ff" d="M1174.83,-219.84C1182.52,-211.35 1192.33,-200.52 1200.33,-191.69"/>
<polygon fill="#63b8ff" stroke="#63b8ff" points="1202.94,-194.03 1207.06,-184.27 1197.75,-189.33 1202.94,-194.03"/>
</a>
</g>
</g>
<!-- Node8 -->
<g id="Node000008" class="node">
<title>Node8</title>
<g id="a_Node000008"><a xlink:href="AS5047U_8hpp.html" target="_top" xlink:title="Driver for AMS AS5047U Magnetic Rotary Position Sensor (C++21).">
<polygon fill="white" stroke="#666666" points="505,-184 379,-184 379,-165 505,-165 505,-184"/>
<text text-anchor="middle" x="442" y="-172" font-family="Helvetica,sans-Serif" font-size="10.00">../../../inc/AS5047U.hpp</text>
</a>
</g>
</g>
<!-- Node1&#45;&gt;Node8 -->
<g id="edge7_Node000001_Node000008" class="edge">
<title>Node1&#45;&gt;Node8</title>
<g id="a_edge7_Node000001_Node000008"><a xlink:title=" ">
<path fill="none" stroke="#63b8ff" d="M1090.33,-228.18C952.92,-217.01 653.75,-192.7 515.16,-181.44"/>
<polygon fill="#63b8ff" stroke="#63b8ff" points="515.32,-177.95 505.07,-180.62 514.75,-184.92 515.32,-177.95"/>
</a>
</g>
</g>
<!-- Node22 -->
<g id="Node000022" class="node">
<title>Node22</title>
<g id="a_Node000022"><a xlink:href="Esp32As5047uBus_8hpp.html" target="_top" xlink:title="ESP32 SPI transport implementation for AS5047U driver.">
<polygon fill="white" stroke="#666666" points="1099.5,-184 972.5,-184 972.5,-165 1099.5,-165 1099.5,-184"/>
<text text-anchor="middle" x="1036" y="-172" font-family="Helvetica,sans-Serif" font-size="10.00">Esp32As5047uBus.hpp</text>
</a>
</g>
</g>
<!-- Node1&#45;&gt;Node22 -->
<g id="edge26_Node000001_Node000022" class="edge">
<title>Node1&#45;&gt;Node22</title>
<g id="a_edge26_Node000001_Node000022"><a xlink:title=" ">
<path fill="none" stroke="#63b8ff" d="M1131.82,-219.99C1111.17,-210.4 1084,-197.79 1063.87,-188.44"/>
<polygon fill="#63b8ff" stroke="#63b8ff" points="1065.15,-185.18 1054.61,-184.14 1062.2,-191.52 1065.15,-185.18"/>
</a>
</g>
</g>
<!-- Node25 -->
<g id="Node000025" class="node">
<title>Node25</title>
<g id="a_Node000025"><a xlink:href="TestFramework_8h.html" target="_top" xlink:title="Shared testing framework for ESP32&#45;C6 comprehensive test suites.">
<polygon fill="white" stroke="#666666" points="1426,-184 1326,-184 1326,-165 1426,-165 1426,-184"/>
<text text-anchor="middle" x="1376" y="-172" font-family="Helvetica,sans-Serif" font-size="10.00">TestFramework.h</text>
</a>
</g>
</g>
<!-- Node1&#45;&gt;Node25 -->
<g id="edge33_Node000001_Node000025" class="edge">
<title>Node1&#45;&gt;Node25</title>
<g id="a_edge33_Node000001_Node000025"><a xlink:title=" ">
<path fill="none" stroke="#63b8ff" d="M1213.26,-219.99C1250.51,-209.8 1300.27,-196.2 1334.92,-186.73"/>
<polygon fill="#63b8ff" stroke="#63b8ff" points="1335.99,-190.07 1344.71,-184.05 1334.14,-183.31 1335.99,-190.07"/>
</a>
</g>
</g>
<!-- Node9 -->
<g id="Node000009" class="node">
<title>Node9</title>
<g id="a_Node000009"><a xlink:href="AS5047U__Bus_8hpp.html" target="_top" xlink:title="CRTP&#45;based SPI bus interface for AS5047U driver.">
<polygon fill="white" stroke="#666666" points="839.5,-129 734.5,-129 734.5,-110 839.5,-110 839.5,-129"/>
<text text-anchor="middle" x="787" y="-117" font-family="Helvetica,sans-Serif" font-size="10.00">AS5047U_Bus.hpp</text>
</a>
</g>
</g>
<!-- Node8&#45;&gt;Node9 -->
<g id="edge8_Node000008_Node000009" class="edge">
<title>Node8&#45;&gt;Node9</title>
<g id="a_edge8_Node000008_Node000009"><a xlink:title=" ">
<path fill="none" stroke="#63b8ff" d="M497.43,-164.98C559.36,-155.47 659.39,-140.1 724.17,-130.15"/>
<polygon fill="#63b8ff" stroke="#63b8ff" points="724.9,-133.58 734.25,-128.6 723.84,-126.66 724.9,-133.58"/>
</a>
</g>
</g>
<!-- Node11 -->
<g id="Node000011" class="node">
<title>Node11</title>
<g id="a_Node000011"><a xlink:title=" ">
<polygon fill="#e0e0e0" stroke="#999999" points="432,-19 382,-19 382,0 432,0 432,-19"/>
<text text-anchor="middle" x="407" y="-7" font-family="Helvetica,sans-Serif" font-size="10.00">cstdint</text>
</a>
</g>
</g>
<!-- Node8&#45;&gt;Node11 -->
<g id="edge18_Node000008_Node000011" class="edge">
<title>Node8&#45;&gt;Node11</title>
<g id="a_edge18_Node000008_Node000011"><a xlink:title=" ">
<path fill="none" stroke="#63b8ff" d="M378.77,-170.72C315.1,-166.44 223.22,-155.69 201,-129 148.8,-66.28 300.2,-29.74 371.78,-16.37"/>
<polygon fill="#63b8ff" stroke="#63b8ff" points="372.51,-19.79 381.72,-14.56 371.26,-12.91 372.51,-19.79"/>
</a>
</g>
</g>
<!-- Node12 -->
<g id="Node000012" class="node">
<title>Node12</title>
<g id="a_Node000012"><a xlink:href="AS5047U__REGISTERS_8hpp.html" target="_top" xlink:title="Register definitions for the AS5047U Rotary Position Sensor.">
<polygon fill="white" stroke="#666666" points="534.5,-74 393.5,-74 393.5,-55 534.5,-55 534.5,-74"/>
<text text-anchor="middle" x="464" y="-62" font-family="Helvetica,sans-Serif" font-size="10.00">AS5047U_REGISTERS.hpp</text>
</a>
</g>
</g>
<!-- Node8&#45;&gt;Node12 -->
<g id="edge11_Node000008_Node000012" class="edge">
<title>Node8&#45;&gt;Node12</title>
<g id="a_edge11_Node000008_Node000012"><a xlink:title=" ">
<path fill="none" stroke="#63b8ff" d="M505.13,-170.89C569.61,-166.75 663.38,-156.11 686,-129 691.41,-122.52 691.35,-116.53 686,-110 668.17,-88.25 600.92,-76.91 545.06,-71.14"/>
<polygon fill="#63b8ff" stroke="#63b8ff" points="545.07,-67.62 534.77,-70.12 544.38,-74.59 545.07,-67.62"/>
</a>
</g>
</g>
<!-- Node13 -->
<g id="Node000013" class="node">
<title>Node13</title>
<g id="a_Node000013"><a xlink:title=" ">
<polygon fill="#e0e0e0" stroke="#999999" points="274,-129 210,-129 210,-110 274,-110 274,-129"/>
<text text-anchor="middle" x="242" y="-117" font-family="Helvetica,sans-Serif" font-size="10.00">algorithm</text>
</a>
</g>
</g>
<!-- Node8&#45;&gt;Node13 -->
<g id="edge13_Node000008_Node000013" class="edge">
<title>Node8&#45;&gt;Node13</title>
<g id="a_edge13_Node000008_Node000013"><a xlink:title=" ">
<path fill="none" stroke="#63b8ff" d="M409.87,-164.98C375.75,-155.94 321.68,-141.62 284.17,-131.67"/>
<polygon fill="#63b8ff" stroke="#63b8ff" points="284.62,-128.17 274.05,-128.99 282.82,-134.94 284.62,-128.17"/>
</a>
</g>
</g>
<!-- Node14 -->
<g id="Node000014" class="node">
<title>Node14</title>
<g id="a_Node000014"><a xlink:title=" ">
<polygon fill="#e0e0e0" stroke="#999999" points="334,-129 292,-129 292,-110 334,-110 334,-129"/>
<text text-anchor="middle" x="313" y="-117" font-family="Helvetica,sans-Serif" font-size="10.00">array</text>
</a>
</g>
</g>
<!-- Node8&#45;&gt;Node14 -->
<g id="edge14_Node000008_Node000014" class="edge">
<title>Node8&#45;&gt;Node14</title>
<g id="a_edge14_Node000008_Node000014"><a xlink:title=" ">
<path fill="none" stroke="#63b8ff" d="M421.27,-164.98C400.24,-156.34 367.45,-142.87 343.46,-133.02"/>
<polygon fill="#63b8ff" stroke="#63b8ff" points="344.68,-129.73 334.1,-129.17 342.02,-136.21 344.68,-129.73"/>
</a>
</g>
</g>
<!-- Node15 -->
<g id="Node000015" class="node">
<title>Node15</title>
<g id="a_Node000015"><a xlink:title=" ">
<polygon fill="#e0e0e0" stroke="#999999" points="402,-129 352,-129 352,-110 402,-110 402,-129"/>
<text text-anchor="middle" x="377" y="-117" font-family="Helvetica,sans-Serif" font-size="10.00">atomic</text>
</a>
</g>
</g>
<!-- Node8&#45;&gt;Node15 -->
<g id="edge15_Node000008_Node000015" class="edge">
<title>Node8&#45;&gt;Node15</title>
<g id="a_edge15_Node000008_Node000015"><a xlink:title=" ">
<path fill="none" stroke="#63b8ff" d="M431.56,-164.98C421.85,-157.07 407.18,-145.11 395.5,-135.58"/>
<polygon fill="#63b8ff" stroke="#63b8ff" points="397.6,-132.78 387.63,-129.17 393.17,-138.2 397.6,-132.78"/>
</a>
</g>
</g>
<!-- Node16 -->
<g id="Node000016" class="node">
<title>Node16</title>
<g id="a_Node000016"><a xlink:title=" ">
<polygon fill="#e0e0e0" stroke="#999999" points="464,-129 420,-129 420,-110 464,-110 464,-129"/>
<text text-anchor="middle" x="442" y="-117" font-family="Helvetica,sans-Serif" font-size="10.00">bitset</text>
</a>
</g>
</g>
<!-- Node8&#45;&gt;Node16 -->
<g id="edge16_Node000008_Node000016" class="edge">
<title>Node8&#45;&gt;Node16</title>
<g id="a_edge16_Node000008_Node000016"><a xlink:title=" ">
<path fill="none" stroke="#63b8ff" d="M442,-164.75C442,-157.8 442,-147.85 442,-139.13"/>
<polygon fill="#63b8ff" stroke="#63b8ff" points="445.5,-139.09 442,-129.09 438.5,-139.09 445.5,-139.09"/>
</a>
</g>
</g>
<!-- Node17 -->
<g id="Node000017" class="node">
<title>Node17</title>
<g id="a_Node000017"><a xlink:title=" ">
<polygon fill="#e0e0e0" stroke="#999999" points="529.5,-129 482.5,-129 482.5,-110 529.5,-110 529.5,-129"/>
<text text-anchor="middle" x="506" y="-117" font-family="Helvetica,sans-Serif" font-size="10.00">cmath</text>
</a>
</g>
</g>
<!-- Node8&#45;&gt;Node17 -->
<g id="edge17_Node000008_Node000017" class="edge">
<title>Node8&#45;&gt;Node17</title>
<g id="a_edge17_Node000008_Node000017"><a xlink:title=" ">
<path fill="none" stroke="#63b8ff" d="M452.28,-164.98C461.84,-157.07 476.28,-145.11 487.78,-135.58"/>
<polygon fill="#63b8ff" stroke="#63b8ff" points="490.06,-138.24 495.53,-129.17 485.6,-132.85 490.06,-138.24"/>
</a>
</g>
</g>
<!-- Node18 -->
<g id="Node000018" class="node">
<title>Node18</title>
<g id="a_Node000018"><a xlink:title=" ">
<polygon fill="#e0e0e0" stroke="#999999" points="594,-129 548,-129 548,-110 594,-110 594,-129"/>
<text text-anchor="middle" x="571" y="-117" font-family="Helvetica,sans-Serif" font-size="10.00">cstdio</text>
</a>
</g>
</g>
<!-- Node8&#45;&gt;Node18 -->
<g id="edge19_Node000008_Node000018" class="edge">
<title>Node8&#45;&gt;Node18</title>
<g id="a_edge19_Node000008_Node000018"><a xlink:title=" ">
<path fill="none" stroke="#63b8ff" d="M462.73,-164.98C483.76,-156.34 516.55,-142.87 540.54,-133.02"/>
<polygon fill="#63b8ff" stroke="#63b8ff" points="541.98,-136.21 549.9,-129.17 539.32,-129.73 541.98,-136.21"/>
</a>
</g>
</g>
<!-- Node19 -->
<g id="Node000019" class="node">
<title>Node19</title>
<g id="a_Node000019"><a xlink:title=" ">
<polygon fill="#e0e0e0" stroke="#999999" points="677.5,-129 612.5,-129 612.5,-110 677.5,-110 677.5,-129"/>
<text text-anchor="middle" x="645" y="-117" font-family="Helvetica,sans-Serif" font-size="10.00">functional</text>
</a>
</g>
</g>
<!-- Node8&#45;&gt;Node19 -->
<g id="edge20_Node000008_Node000019" class="edge">
<title>Node8&#45;&gt;Node19</title>
<g id="a_edge20_Node000008_Node000019"><a xlink:title=" ">
<path fill="none" stroke="#63b8ff" d="M474.62,-164.98C509.39,-155.91 564.59,-141.49 602.69,-131.55"/>
<polygon fill="#63b8ff" stroke="#63b8ff" points="603.67,-134.91 612.47,-128.99 601.91,-128.13 603.67,-134.91"/>
</a>
</g>
</g>
<!-- Node20 -->
<g id="Node000020" class="node">
<title>Node20</title>
<g id="a_Node000020"><a xlink:href="AS5047U__types_8hpp.html" target="_top" xlink:title="Type definitions for the AS5047U driver.">
<polygon fill="white" stroke="#666666" points="177,-74 63,-74 63,-55 177,-55 177,-74"/>
<text text-anchor="middle" x="120" y="-62" font-family="Helvetica,sans-Serif" font-size="10.00">AS5047U_types.hpp</text>
</a>
</g>
</g>
<!-- Node8&#45;&gt;Node20 -->
<g id="edge21_Node000008_Node000020" class="edge">
<title>Node8&#45;&gt;Node20</title>
<g id="a_edge21_Node000008_Node000020"><a xlink:title=" ">
<path fill="none" stroke="#63b8ff" d="M378.8,-168.69C309.2,-162.45 202.57,-149.83 168,-129 150.11,-118.22 136.62,-98.04 128.56,-83.31"/>
<polygon fill="#63b8ff" stroke="#63b8ff" points="131.55,-81.47 123.87,-74.17 125.32,-84.67 131.55,-81.47"/>
</a>
</g>
</g>
<!-- Node21 -->
<g id="Node000021" class="node">
<title>Node21</title>
<g id="a_Node000021"><a xlink:href="AS5047U__config_8hpp.html" target="_top" xlink:title=" ">
<polygon fill="white" stroke="#666666" points="116,-129 0,-129 0,-110 116,-110 116,-129"/>
<text text-anchor="middle" x="58" y="-117" font-family="Helvetica,sans-Serif" font-size="10.00">AS5047U_config.hpp</text>
</a>
</g>
</g>
<!-- Node8&#45;&gt;Node21 -->
<g id="edge23_Node000008_Node000021" class="edge">
<title>Node8&#45;&gt;Node21</title>
<g id="a_edge23_Node000008_Node000021"><a xlink:title=" ">
<path fill="none" stroke="#63b8ff" d="M380.3,-164.98C310.89,-155.4 198.46,-139.89 126.41,-129.94"/>
<polygon fill="#63b8ff" stroke="#63b8ff" points="126.47,-126.42 116.09,-128.52 125.51,-133.35 126.47,-126.42"/>
</a>
</g>
</g>
<!-- Node10 -->
<g id="Node000010" class="node">
<title>Node10</title>
<g id="a_Node000010"><a xlink:title=" ">
<polygon fill="#e0e0e0" stroke="#999999" points="813.5,-74 760.5,-74 760.5,-55 813.5,-55 813.5,-74"/>
<text text-anchor="middle" x="787" y="-62" font-family="Helvetica,sans-Serif" font-size="10.00">cstddef</text>
</a>
</g>
</g>
<!-- Node9&#45;&gt;Node10 -->
<g id="edge9_Node000009_Node000010" class="edge">
<title>Node9&#45;&gt;Node10</title>
<g id="a_edge9_Node000009_Node000010"><a xlink:title=" ">
<path fill="none" stroke="#63b8ff" d="M787,-109.75C787,-102.8 787,-92.85 787,-84.13"/>
<polygon fill="#63b8ff" stroke="#63b8ff" points="790.5,-84.09 787,-74.09 783.5,-84.09 790.5,-84.09"/>
</a>
</g>
</g>
<!-- Node9&#45;&gt;Node11 -->
<g id="edge10_Node000009_Node000011" class="edge">
<title>Node9&#45;&gt;Node11</title>
<g id="a_edge10_Node000009_Node000011"><a xlink:title=" ">
<path fill="none" stroke="#63b8ff" d="M756.86,-109.94C687.29,-90.16 515.77,-41.41 441.83,-20.4"/>
<polygon fill="#63b8ff" stroke="#63b8ff" points="442.65,-16.99 432.07,-17.63 440.73,-23.73 442.65,-16.99"/>
</a>
</g>
</g>
<!-- Node12&#45;&gt;Node11 -->
<g id="edge12_Node000012_Node000011" class="edge">
<title>Node12&#45;&gt;Node11</title>
<g id="a_edge12_Node000012_Node000011"><a xlink:title=" ">
<path fill="none" stroke="#63b8ff" d="M454.84,-54.98C446.5,-47.23 433.97,-35.58 423.82,-26.14"/>
<polygon fill="#63b8ff" stroke="#63b8ff" points="426.03,-23.42 416.32,-19.17 421.26,-28.54 426.03,-23.42"/>
</a>
</g>
</g>
<!-- Node20&#45;&gt;Node11 -->
<g id="edge22_Node000020_Node000011" class="edge">
<title>Node20&#45;&gt;Node11</title>
<g id="a_edge22_Node000020_Node000011"><a xlink:title=" ">
<path fill="none" stroke="#63b8ff" d="M166.11,-54.98C223.48,-44.39 320.17,-26.53 371.88,-16.99"/>
<polygon fill="#63b8ff" stroke="#63b8ff" points="372.7,-20.39 381.9,-15.13 371.43,-13.51 372.7,-20.39"/>
</a>
</g>
</g>
<!-- Node21&#45;&gt;Node11 -->
<g id="edge24_Node000021_Node000011" class="edge">
<title>Node21&#45;&gt;Node11</title>
<g id="a_edge24_Node000021_Node000011"><a xlink:title=" ">
<path fill="none" stroke="#63b8ff" d="M54.04,-109.87C48.5,-96.38 40.56,-70.24 54,-55 74.81,-31.4 286.18,-17.17 371.53,-12.35"/>
<polygon fill="#63b8ff" stroke="#63b8ff" points="371.98,-15.83 381.77,-11.79 371.59,-8.84 371.98,-15.83"/>
</a>
</g>
</g>
<!-- Node21&#45;&gt;Node20 -->
<g id="edge25_Node000021_Node000020" class="edge">
<title>Node21&#45;&gt;Node20</title>
<g id="a_edge25_Node000021_Node000020"><a xlink:title=" ">
<path fill="none" stroke="#63b8ff" d="M67.96,-109.98C77.13,-102.15 90.94,-90.34 102.03,-80.86"/>
<polygon fill="#63b8ff" stroke="#63b8ff" points="104.53,-83.33 109.86,-74.17 99.98,-78.01 104.53,-83.33"/>
</a>
</g>
</g>
<!-- Node22&#45;&gt;Node2 -->
<g id="edge30_Node000022_Node000002" class="edge">
<title>Node22&#45;&gt;Node2</title>
<g id="a_edge30_Node000022_Node000002"><a xlink:title=" ">
<path fill="none" stroke="#63b8ff" d="M1099.58,-168.01C1174.69,-161.12 1303.61,-148.05 1424.13,-129"/>
<polygon fill="#63b8ff" stroke="#63b8ff" points="1424.95,-132.41 1434.27,-127.37 1423.84,-125.5 1424.95,-132.41"/>
</a>
</g>
</g>
<!-- Node22&#45;&gt;Node6 -->
<g id="edge32_Node000022_Node000006" class="edge">
<title>Node22&#45;&gt;Node6</title>
<g id="a_edge32_Node000022_Node000006"><a xlink:title=" ">
<path fill="none" stroke="#63b8ff" d="M1012.06,-164.98C987.44,-156.23 948.88,-142.51 921.08,-132.62"/>
<polygon fill="#63b8ff" stroke="#63b8ff" points="921.97,-129.22 911.38,-129.17 919.62,-135.82 921.97,-129.22"/>
</a>
</g>
</g>
<!-- Node22&#45;&gt;Node9 -->
<g id="edge27_Node000022_Node000009" class="edge">
<title>Node22&#45;&gt;Node9</title>
<g id="a_edge27_Node000022_Node000009"><a xlink:title=" ">
<path fill="none" stroke="#63b8ff" d="M995.99,-164.98C952.83,-155.8 884.02,-141.15 837.24,-131.19"/>
<polygon fill="#63b8ff" stroke="#63b8ff" points="837.83,-127.74 827.32,-129.08 836.37,-134.59 837.83,-127.74"/>
</a>
</g>
</g>
<!-- Node22&#45;&gt;Node11 -->
<g id="edge31_Node000022_Node000011" class="edge">
<title>Node22&#45;&gt;Node11</title>
<g id="a_edge31_Node000022_Node000011"><a xlink:title=" ">
<path fill="none" stroke="#63b8ff" d="M1021.43,-164.97C976.78,-138.91 843.56,-61.64 822,-55 686.35,-13.24 515.34,-9.33 442.48,-9.8"/>
<polygon fill="#63b8ff" stroke="#63b8ff" points="442.43,-6.3 432.46,-9.9 442.5,-13.3 442.43,-6.3"/>
</a>
</g>
</g>
<!-- Node23 -->
<g id="Node000023" class="node">
<title>Node23</title>
<g id="a_Node000023"><a xlink:title=" ">
<polygon fill="#e0e0e0" stroke="#999999" points="1178,-129 1100,-129 1100,-110 1178,-110 1178,-129"/>
<text text-anchor="middle" x="1139" y="-117" font-family="Helvetica,sans-Serif" font-size="10.00">driver/gpio.h</text>
</a>
</g>
</g>
<!-- Node22&#45;&gt;Node23 -->
<g id="edge28_Node000022_Node000023" class="edge">
<title>Node22&#45;&gt;Node23</title>
<g id="a_edge28_Node000022_Node000023"><a xlink:title=" ">
<path fill="none" stroke="#63b8ff" d="M1052.55,-164.98C1068.89,-156.57 1094.13,-143.59 1113.13,-133.81"/>
<polygon fill="#63b8ff" stroke="#63b8ff" points="1114.86,-136.86 1122.15,-129.17 1111.66,-130.63 1114.86,-136.86"/>
</a>
</g>
</g>
<!-- Node24 -->
<g id="Node000024" class="node">
<title>Node24</title>
<g id="a_Node000024"><a xlink:title=" ">
<polygon fill="#e0e0e0" stroke="#999999" points="1082,-129 972,-129 972,-110 1082,-110 1082,-129"/>
<text text-anchor="middle" x="1027" y="-117" font-family="Helvetica,sans-Serif" font-size="10.00">driver/spi_master.h</text>
</a>
</g>
</g>
<!-- Node22&#45;&gt;Node24 -->
<g id="edge29_Node000022_Node000024" class="edge">
<title>Node22&#45;&gt;Node24</title>
<g id="a_edge29_Node000022_Node000024"><a xlink:title=" ">
<path fill="none" stroke="#63b8ff" d="M1034.51,-164.75C1033.33,-157.8 1031.64,-147.85 1030.16,-139.13"/>
<polygon fill="#63b8ff" stroke="#63b8ff" points="1033.58,-138.36 1028.46,-129.09 1026.68,-139.53 1033.58,-138.36"/>
</a>
</g>
</g>
<!-- Node25&#45;&gt;Node2 -->
<g id="edge34_Node000025_Node000002" class="edge">
<title>Node25&#45;&gt;Node2</title>
<g id="a_edge34_Node000025_Node000002"><a xlink:title=" ">
<path fill="none" stroke="#63b8ff" d="M1390.46,-164.98C1404.42,-156.77 1425.79,-144.18 1442.25,-134.49"/>
<polygon fill="#63b8ff" stroke="#63b8ff" points="1444.44,-137.26 1451.28,-129.17 1440.88,-131.23 1444.44,-137.26"/>
</a>
</g>
</g>
<!-- Node25&#45;&gt;Node4 -->
<g id="edge37_Node000025_Node000004" class="edge">
<title>Node25&#45;&gt;Node4</title>
<g id="a_edge37_Node000025_Node000004"><a xlink:title=" ">
<path fill="none" stroke="#63b8ff" d="M1356.24,-164.98C1336.27,-156.38 1305.2,-142.99 1282.35,-133.15"/>
<polygon fill="#63b8ff" stroke="#63b8ff" points="1283.69,-129.91 1273.12,-129.17 1280.92,-136.34 1283.69,-129.91"/>
</a>
</g>
</g>
<!-- Node25&#45;&gt;Node5 -->
<g id="edge40_Node000025_Node000005" class="edge">
<title>Node25&#45;&gt;Node5</title>
<g id="a_edge40_Node000025_Node000005"><a xlink:title=" ">
<path fill="none" stroke="#63b8ff" d="M1375.34,-164.75C1374.82,-157.8 1374.06,-147.85 1373.41,-139.13"/>
<polygon fill="#63b8ff" stroke="#63b8ff" points="1376.89,-138.8 1372.65,-129.09 1369.91,-139.32 1376.89,-138.8"/>
</a>
</g>
</g>
<!-- Node25&#45;&gt;Node23 -->
<g id="edge36_Node000025_Node000023" class="edge">
<title>Node25&#45;&gt;Node23</title>
<g id="a_edge36_Node000025_Node000023"><a xlink:title=" ">
<path fill="none" stroke="#63b8ff" d="M1337.92,-164.98C1297.01,-155.84 1231.89,-141.27 1187.38,-131.32"/>
<polygon fill="#63b8ff" stroke="#63b8ff" points="1187.9,-127.85 1177.38,-129.08 1186.37,-134.68 1187.9,-127.85"/>
</a>
</g>
</g>
<!-- Node26 -->
<g id="Node000026" class="node">
<title>Node26</title>
<g id="a_Node000026"><a xlink:title=" ">
<polygon fill="#e0e0e0" stroke="#999999" points="1590,-129 1516,-129 1516,-110 1590,-110 1590,-129"/>
<text text-anchor="middle" x="1553" y="-117" font-family="Helvetica,sans-Serif" font-size="10.00">esp_timer.h</text>
</a>
</g>
</g>
<!-- Node25&#45;&gt;Node26 -->
<g id="edge35_Node000025_Node000026" class="edge">
<title>Node25&#45;&gt;Node26</title>
<g id="a_edge35_Node000025_Node000026"><a xlink:title=" ">
<path fill="none" stroke="#63b8ff" d="M1404.44,-164.98C1434.28,-156.05 1481.38,-141.94 1514.53,-132.02"/>
<polygon fill="#63b8ff" stroke="#63b8ff" points="1515.76,-135.3 1524.34,-129.08 1513.76,-128.6 1515.76,-135.3"/>
</a>
</g>
</g>
<!-- Node27 -->
<g id="Node000027" class="node">
<title>Node27</title>
<g id="a_Node000027"><a xlink:title=" ">
<polygon fill="#e0e0e0" stroke="#999999" points="1705.5,-129 1608.5,-129 1608.5,-110 1705.5,-110 1705.5,-129"/>
<text text-anchor="middle" x="1657" y="-117" font-family="Helvetica,sans-Serif" font-size="10.00">freertos/queue.h</text>
</a>
</g>
</g>
<!-- Node25&#45;&gt;Node27 -->
<g id="edge38_Node000025_Node000027" class="edge">
<title>Node25&#45;&gt;Node27</title>
<g id="a_edge38_Node000025_Node000027"><a xlink:title=" ">
<path fill="none" stroke="#63b8ff" d="M1421.15,-164.98C1470.26,-155.72 1548.82,-140.9 1601.62,-130.94"/>
<polygon fill="#63b8ff" stroke="#63b8ff" points="1602.32,-134.37 1611.5,-129.08 1601.02,-127.5 1602.32,-134.37"/>
</a>
</g>
</g>
<!-- Node28 -->
<g id="Node000028" class="node">
<title>Node28</title>
<g id="a_Node000028"><a xlink:title=" ">
<polygon fill="#e0e0e0" stroke="#999999" points="1826.5,-129 1723.5,-129 1723.5,-110 1826.5,-110 1826.5,-129"/>
<text text-anchor="middle" x="1775" y="-117" font-family="Helvetica,sans-Serif" font-size="10.00">freertos/semphr.h</text>
</a>
</g>
</g>
<!-- Node25&#45;&gt;Node28 -->
<g id="edge39_Node000025_Node000028" class="edge">
<title>Node25&#45;&gt;Node28</title>
<g id="a_edge39_Node000025_Node000028"><a xlink:title=" ">
<path fill="none" stroke="#63b8ff" d="M1426.28,-167.06C1490.48,-158.81 1605.3,-143.92 1713.21,-129.23"/>
<polygon fill="#63b8ff" stroke="#63b8ff" points="1713.86,-132.68 1723.29,-127.86 1712.91,-125.74 1713.86,-132.68"/>
</a>
</g>
</g>
</g>
</svg>
