<?xml version="1.0" encoding="UTF-8" standalone="no"?>
<!DOCTYPE svg PUBLIC "-//W3C//DTD SVG 1.1//EN"
 "http://www.w3.org/Graphics/SVG/1.1/DTD/svg11.dtd">
<!-- Generated by graphviz version 2.43.0 (0)
 -->
<!-- Title: examples/esp32/main/DriverIntegrationTest.cpp Pages: 1 -->
<svg width="1747pt" height="313pt"
 viewBox="0.00 0.00 1747.00 313.00" xmlns="http://www.w3.org/2000/svg" xmlns:xlink="http://www.w3.org/1999/xlink">
<g id="graph0" class="graph" transform="scale(1 1) rotate(0) translate(4 309)">
<title>examples/esp32/main/DriverIntegrationTest.cpp</title>
<!-- Node1 -->
<g id="Node000001" class="node">
<title>Node1</title>
<g id="a_Node000001"><a xlink:title="Comprehensive Integration Test Suite for AS5047U Driver.">
<polygon fill="#999999" stroke="#666666" points="669,-305 526,-305 526,-275 669,-275 669,-305"/>
<text text-anchor="start" x="534" y="-293" font-family="Helvetica,sans-Serif" font-size="10.00">examples/esp32/main</text>
<text text-anchor="middle" x="597.5" y="-282" font-family="Helvetica,sans-Serif" font-size="10.00">/DriverIntegrationTest.cpp</text>
</a>
</g>
</g>
<!-- Node2 -->
<g id="Node000002" class="node">
<title>Node2</title>
<g id="a_Node000002"><a xlink:title=" ">
<polygon fill="#e0e0e0" stroke="#999999" points="352.5,-239 302.5,-239 302.5,-220 352.5,-220 352.5,-239"/>
<text text-anchor="middle" x="327.5" y="-227" font-family="Helvetica,sans-Serif" font-size="10.00">stdio.h</text>
</a>
</g>
</g>
<!-- Node1&#45;&gt;Node2 -->
<g id="edge1_Node000001_Node000002" class="edge">
<title>Node1&#45;&gt;Node2</title>
<g id="a_edge1_Node000001_Node000002"><a xlink:title=" ">
<path fill="none" stroke="#63b8ff" d="M532.28,-274.91C486,-264.9 422.44,-251.15 366.5,-239 365.24,-238.73 363.96,-238.45 362.67,-238.17"/>
<polygon fill="#63b8ff" stroke="#63b8ff" points="363.19,-234.7 352.67,-235.99 361.7,-241.54 363.19,-234.7"/>
</a>
</g>
</g>
<!-- Node3 -->
<g id="Node000003" class="node">
<title>Node3</title>
<g id="a_Node000003"><a xlink:title=" ">
<polygon fill="#e0e0e0" stroke="#999999" points="801.5,-184 743.5,-184 743.5,-165 801.5,-165 801.5,-184"/>
<text text-anchor="middle" x="772.5" y="-172" font-family="Helvetica,sans-Serif" font-size="10.00">memory</text>
</a>
</g>
</g>
<!-- Node1&#45;&gt;Node3 -->
<g id="edge2_Node000001_Node000003" class="edge">
<title>Node1&#45;&gt;Node3</title>
<g id="a_edge2_Node000001_Node000003"><a xlink:title=" ">
<path fill="none" stroke="#63b8ff" d="M614.35,-274.91C632.17,-260.32 661.42,-237.28 688.5,-220 706.76,-208.35 728.37,-196.95 745.1,-188.6"/>
<polygon fill="#63b8ff" stroke="#63b8ff" points="746.9,-191.62 754.33,-184.06 743.81,-185.34 746.9,-191.62"/>
</a>
</g>
</g>
<!-- Node4 -->
<g id="Node000004" class="node">
<title>Node4</title>
<g id="a_Node000004"><a xlink:title=" ">
<polygon fill="#e0e0e0" stroke="#999999" points="113,-184 0,-184 0,-165 113,-165 113,-184"/>
<text text-anchor="middle" x="56.5" y="-172" font-family="Helvetica,sans-Serif" font-size="10.00">freertos/FreeRTOS.h</text>
</a>
</g>
</g>
<!-- Node1&#45;&gt;Node4 -->
<g id="edge3_Node000001_Node000004" class="edge">
<title>Node1&#45;&gt;Node4</title>
<g id="a_edge3_Node000001_Node000004"><a xlink:title=" ">
<path fill="none" stroke="#63b8ff" d="M525.98,-276.5C486.38,-268.33 436.77,-255.98 394.5,-239 378.8,-232.69 377.49,-225.54 361.5,-220 350.34,-216.13 209.57,-196.44 123.23,-184.59"/>
<polygon fill="#63b8ff" stroke="#63b8ff" points="123.62,-181.11 113.24,-183.22 122.67,-188.04 123.62,-181.11"/>
</a>
</g>
</g>
<!-- Node5 -->
<g id="Node000005" class="node">
<title>Node5</title>
<g id="a_Node000005"><a xlink:title=" ">
<polygon fill="#e0e0e0" stroke="#999999" points="219.5,-184 131.5,-184 131.5,-165 219.5,-165 219.5,-184"/>
<text text-anchor="middle" x="175.5" y="-172" font-family="Helvetica,sans-Serif" font-size="10.00">freertos/task.h</text>
</a>
</g>
</g>
<!-- Node1&#45;&gt;Node5 -->
<g id="edge4_Node000001_Node000005" class="edge">
<title>Node1&#45;&gt;Node5</title>
<g id="a_edge4_Node000001_Node000005"><a xlink:title=" ">
<path fill="none" stroke="#63b8ff" d="M547.64,-275C515.82,-265.68 473.87,-252.67 437.5,-239 417.94,-231.65 414.41,-226.34 394.5,-220 364.4,-210.41 283.96,-195.01 229.42,-185.08"/>
<polygon fill="#63b8ff" stroke="#63b8ff" points="230.01,-181.63 219.55,-183.29 228.77,-188.52 230.01,-181.63"/>
</a>
</g>
</g>
<!-- Node6 -->
<g id="Node000006" class="node">
<title>Node6</title>
<g id="a_Node000006"><a xlink:title=" ">
<polygon fill="#e0e0e0" stroke="#999999" points="629,-184 566,-184 566,-165 629,-165 629,-184"/>
<text text-anchor="middle" x="597.5" y="-172" font-family="Helvetica,sans-Serif" font-size="10.00">esp_log.h</text>
</a>
</g>
</g>
<!-- Node1&#45;&gt;Node6 -->
<g id="edge5_Node000001_Node000006" class="edge">
<title>Node1&#45;&gt;Node6</title>
<g id="a_edge5_Node000001_Node000006"><a xlink:title=" ">
<path fill="none" stroke="#63b8ff" d="M597.5,-274.63C597.5,-254.21 597.5,-216.81 597.5,-194.24"/>
<polygon fill="#63b8ff" stroke="#63b8ff" points="601,-194.23 597.5,-184.23 594,-194.23 601,-194.23"/>
</a>
</g>
</g>
<!-- Node7 -->
<g id="Node000007" class="node">
<title>Node7</title>
<g id="a_Node000007"><a xlink:title=" ">
<polygon fill="#e0e0e0" stroke="#999999" points="964.5,-239 880.5,-239 880.5,-220 964.5,-220 964.5,-239"/>
<text text-anchor="middle" x="922.5" y="-227" font-family="Helvetica,sans-Serif" font-size="10.00">esp_system.h</text>
</a>
</g>
</g>
<!-- Node1&#45;&gt;Node7 -->
<g id="edge6_Node000001_Node000007" class="edge">
<title>Node1&#45;&gt;Node7</title>
<g id="a_edge6_Node000001_Node000007"><a xlink:title=" ">
<path fill="none" stroke="#63b8ff" d="M669.22,-276.09C729.99,-265.15 815.68,-249.73 870.16,-239.92"/>
<polygon fill="#63b8ff" stroke="#63b8ff" points="871.07,-243.31 880.29,-238.1 869.83,-236.42 871.07,-243.31"/>
</a>
</g>
</g>
<!-- Node8 -->
<g id="Node000008" class="node">
<title>Node8</title>
<g id="a_Node000008"><a xlink:href="AS5047U_8hpp.html" target="_top" xlink:title="Driver for AMS AS5047U Magnetic Rotary Position Sensor (C++21).">
<polygon fill="white" stroke="#666666" points="1382.5,-184 1256.5,-184 1256.5,-165 1382.5,-165 1382.5,-184"/>
<text text-anchor="middle" x="1319.5" y="-172" font-family="Helvetica,sans-Serif" font-size="10.00">../../../inc/AS5047U.hpp</text>
</a>
</g>
</g>
<!-- Node1&#45;&gt;Node8 -->
<g id="edge7_Node000001_Node000008" class="edge">
<title>Node1&#45;&gt;Node8</title>
<g id="a_edge7_Node000001_Node000008"><a xlink:title=" ">
<path fill="none" stroke="#63b8ff" d="M669.01,-278.73C716.49,-270.73 779.73,-257.79 833.5,-239 851.33,-232.77 853.36,-225.24 871.5,-220 999.65,-182.96 1156.05,-175.53 1246.08,-174.69"/>
<polygon fill="#63b8ff" stroke="#63b8ff" points="1246.21,-178.19 1256.18,-174.62 1246.16,-171.19 1246.21,-178.19"/>
</a>
</g>
</g>
<!-- Node19 -->
<g id="Node000019" class="node">
<title>Node19</title>
<g id="a_Node000019"><a xlink:href="Esp32As5047uBus_8hpp.html" target="_top" xlink:title="ESP32 SPI transport implementation for AS5047U driver.">
<polygon fill="white" stroke="#666666" points="824,-239 697,-239 697,-220 824,-220 824,-239"/>
<text text-anchor="middle" x="760.5" y="-227" font-family="Helvetica,sans-Serif" font-size="10.00">Esp32As5047uBus.hpp</text>
</a>
</g>
</g>
<!-- Node1&#45;&gt;Node19 -->
<g id="edge22_Node000001_Node000019" class="edge">
<title>Node1&#45;&gt;Node19</title>
<g id="a_edge22_Node000001_Node000019"><a xlink:title=" ">
<path fill="none" stroke="#63b8ff" d="M636.54,-274.99C664.1,-265.1 700.65,-251.98 726.91,-242.56"/>
<polygon fill="#63b8ff" stroke="#63b8ff" points="728.2,-245.81 736.43,-239.14 725.83,-239.22 728.2,-245.81"/>
</a>
</g>
</g>
<!-- Node22 -->
<g id="Node000022" class="node">
<title>Node22</title>
<g id="a_Node000022"><a xlink:href="TestFramework_8h.html" target="_top" xlink:title="Shared testing framework for ESP32&#45;C6 comprehensive test suites.">
<polygon fill="white" stroke="#666666" points="546.5,-239 446.5,-239 446.5,-220 546.5,-220 546.5,-239"/>
<text text-anchor="middle" x="496.5" y="-227" font-family="Helvetica,sans-Serif" font-size="10.00">TestFramework.h</text>
</a>
</g>
</g>
<!-- Node1&#45;&gt;Node22 -->
<g id="edge29_Node000001_Node000022" class="edge">
<title>Node1&#45;&gt;Node22</title>
<g id="a_edge29_Node000001_Node000022"><a xlink:title=" ">
<path fill="none" stroke="#63b8ff" d="M573.31,-274.99C557.21,-265.66 536.16,-253.47 520.17,-244.21"/>
<polygon fill="#63b8ff" stroke="#63b8ff" points="521.82,-241.12 511.42,-239.14 518.31,-247.18 521.82,-241.12"/>
</a>
</g>
</g>
<!-- Node9 -->
<g id="Node000009" class="node">
<title>Node9</title>
<g id="a_Node000009"><a xlink:href="AS5047U__REGISTERS_8hpp.html" target="_top" xlink:title="Register definitions for the AS5047U Rotary Position Sensor.">
<polygon fill="white" stroke="#666666" points="1739,-74 1598,-74 1598,-55 1739,-55 1739,-74"/>
<text text-anchor="middle" x="1668.5" y="-62" font-family="Helvetica,sans-Serif" font-size="10.00">AS5047U_REGISTERS.hpp</text>
</a>
</g>
</g>
<!-- Node8&#45;&gt;Node9 -->
<g id="edge8_Node000008_Node000009" class="edge">
<title>Node8&#45;&gt;Node9</title>
<g id="a_edge8_Node000008_Node000009"><a xlink:title=" ">
<path fill="none" stroke="#63b8ff" d="M1382.65,-171.19C1437.66,-167.27 1518.55,-156.79 1583.5,-129 1610.32,-117.52 1636.49,-95.94 1652.55,-81.15"/>
<polygon fill="#63b8ff" stroke="#63b8ff" points="1655.12,-83.54 1659.98,-74.12 1650.31,-78.45 1655.12,-83.54"/>
</a>
</g>
</g>
<!-- Node10 -->
<g id="Node000010" class="node">
<title>Node10</title>
<g id="a_Node000010"><a xlink:title=" ">
<polygon fill="#e0e0e0" stroke="#999999" points="1420.5,-19 1370.5,-19 1370.5,0 1420.5,0 1420.5,-19"/>
<text text-anchor="middle" x="1395.5" y="-7" font-family="Helvetica,sans-Serif" font-size="10.00">cstdint</text>
</a>
</g>
</g>
<!-- Node8&#45;&gt;Node10 -->
<g id="edge15_Node000008_Node000010" class="edge">
<title>Node8&#45;&gt;Node10</title>
<g id="a_edge15_Node000008_Node000010"><a xlink:title=" ">
<path fill="none" stroke="#63b8ff" d="M1382.71,-168.65C1437.37,-162.98 1510.38,-151.38 1528.5,-129 1564.35,-84.72 1479.73,-42.8 1429.46,-22.78"/>
<polygon fill="#63b8ff" stroke="#63b8ff" points="1430.5,-19.43 1419.91,-19.07 1427.97,-25.96 1430.5,-19.43"/>
</a>
</g>
</g>
<!-- Node11 -->
<g id="Node000011" class="node">
<title>Node11</title>
<g id="a_Node000011"><a xlink:title=" ">
<polygon fill="#e0e0e0" stroke="#999999" points="1183.5,-129 1119.5,-129 1119.5,-110 1183.5,-110 1183.5,-129"/>
<text text-anchor="middle" x="1151.5" y="-117" font-family="Helvetica,sans-Serif" font-size="10.00">algorithm</text>
</a>
</g>
</g>
<!-- Node8&#45;&gt;Node11 -->
<g id="edge10_Node000008_Node000011" class="edge">
<title>Node8&#45;&gt;Node11</title>
<g id="a_edge10_Node000008_Node000011"><a xlink:title=" ">
<path fill="none" stroke="#63b8ff" d="M1292.51,-164.98C1264.3,-156.09 1219.86,-142.07 1188.42,-132.15"/>
<polygon fill="#63b8ff" stroke="#63b8ff" points="1189.29,-128.75 1178.7,-129.08 1187.19,-135.43 1189.29,-128.75"/>
</a>
</g>
</g>
<!-- Node12 -->
<g id="Node000012" class="node">
<title>Node12</title>
<g id="a_Node000012"><a xlink:title=" ">
<polygon fill="#e0e0e0" stroke="#999999" points="1243.5,-129 1201.5,-129 1201.5,-110 1243.5,-110 1243.5,-129"/>
<text text-anchor="middle" x="1222.5" y="-117" font-family="Helvetica,sans-Serif" font-size="10.00">array</text>
</a>
</g>
</g>
<!-- Node8&#45;&gt;Node12 -->
<g id="edge11_Node000008_Node000012" class="edge">
<title>Node8&#45;&gt;Node12</title>
<g id="a_edge11_Node000008_Node000012"><a xlink:title=" ">
<path fill="none" stroke="#63b8ff" d="M1303.92,-164.98C1288.73,-156.69 1265.4,-143.94 1247.6,-134.22"/>
<polygon fill="#63b8ff" stroke="#63b8ff" points="1248.82,-130.89 1238.37,-129.17 1245.47,-137.04 1248.82,-130.89"/>
</a>
</g>
</g>
<!-- Node13 -->
<g id="Node000013" class="node">
<title>Node13</title>
<g id="a_Node000013"><a xlink:title=" ">
<polygon fill="#e0e0e0" stroke="#999999" points="1311.5,-129 1261.5,-129 1261.5,-110 1311.5,-110 1311.5,-129"/>
<text text-anchor="middle" x="1286.5" y="-117" font-family="Helvetica,sans-Serif" font-size="10.00">atomic</text>
</a>
</g>
</g>
<!-- Node8&#45;&gt;Node13 -->
<g id="edge12_Node000008_Node000013" class="edge">
<title>Node8&#45;&gt;Node13</title>
<g id="a_edge12_Node000008_Node000013"><a xlink:title=" ">
<path fill="none" stroke="#63b8ff" d="M1314.05,-164.75C1309.49,-157.42 1302.83,-146.73 1297.21,-137.7"/>
<polygon fill="#63b8ff" stroke="#63b8ff" points="1300.1,-135.73 1291.85,-129.09 1294.16,-139.43 1300.1,-135.73"/>
</a>
</g>
</g>
<!-- Node14 -->
<g id="Node000014" class="node">
<title>Node14</title>
<g id="a_Node000014"><a xlink:title=" ">
<polygon fill="#e0e0e0" stroke="#999999" points="1373.5,-129 1329.5,-129 1329.5,-110 1373.5,-110 1373.5,-129"/>
<text text-anchor="middle" x="1351.5" y="-117" font-family="Helvetica,sans-Serif" font-size="10.00">bitset</text>
</a>
</g>
</g>
<!-- Node8&#45;&gt;Node14 -->
<g id="edge13_Node000008_Node000014" class="edge">
<title>Node8&#45;&gt;Node14</title>
<g id="a_edge13_Node000008_Node000014"><a xlink:title=" ">
<path fill="none" stroke="#63b8ff" d="M1324.78,-164.75C1329.21,-157.42 1335.66,-146.73 1341.12,-137.7"/>
<polygon fill="#63b8ff" stroke="#63b8ff" points="1344.14,-139.46 1346.31,-129.09 1338.15,-135.84 1344.14,-139.46"/>
</a>
</g>
</g>
<!-- Node15 -->
<g id="Node000015" class="node">
<title>Node15</title>
<g id="a_Node000015"><a xlink:title=" ">
<polygon fill="#e0e0e0" stroke="#999999" points="1439,-129 1392,-129 1392,-110 1439,-110 1439,-129"/>
<text text-anchor="middle" x="1415.5" y="-117" font-family="Helvetica,sans-Serif" font-size="10.00">cmath</text>
</a>
</g>
</g>
<!-- Node8&#45;&gt;Node15 -->
<g id="edge14_Node000008_Node000015" class="edge">
<title>Node8&#45;&gt;Node15</title>
<g id="a_edge14_Node000008_Node000015"><a xlink:title=" ">
<path fill="none" stroke="#63b8ff" d="M1334.92,-164.98C1349.95,-156.69 1373.04,-143.94 1390.66,-134.22"/>
<polygon fill="#63b8ff" stroke="#63b8ff" points="1392.73,-137.07 1399.8,-129.17 1389.35,-130.94 1392.73,-137.07"/>
</a>
</g>
</g>
<!-- Node16 -->
<g id="Node000016" class="node">
<title>Node16</title>
<g id="a_Node000016"><a xlink:title=" ">
<polygon fill="#e0e0e0" stroke="#999999" points="1503.5,-129 1457.5,-129 1457.5,-110 1503.5,-110 1503.5,-129"/>
<text text-anchor="middle" x="1480.5" y="-117" font-family="Helvetica,sans-Serif" font-size="10.00">cstdio</text>
</a>
</g>
</g>
<!-- Node8&#45;&gt;Node16 -->
<g id="edge16_Node000008_Node000016" class="edge">
<title>Node8&#45;&gt;Node16</title>
<g id="a_edge16_Node000008_Node000016"><a xlink:title=" ">
<path fill="none" stroke="#63b8ff" d="M1345.37,-164.98C1373.16,-155.84 1417.4,-141.27 1447.64,-131.32"/>
<polygon fill="#63b8ff" stroke="#63b8ff" points="1448.91,-134.59 1457.31,-128.13 1446.72,-127.94 1448.91,-134.59"/>
</a>
</g>
</g>
<!-- Node17 -->
<g id="Node000017" class="node">
<title>Node17</title>
<g id="a_Node000017"><a xlink:href="AS5047U__types_8hpp.html" target="_top" xlink:title="Type definitions for the AS5047U driver.">
<polygon fill="white" stroke="#666666" points="1452.5,-74 1338.5,-74 1338.5,-55 1452.5,-55 1452.5,-74"/>
<text text-anchor="middle" x="1395.5" y="-62" font-family="Helvetica,sans-Serif" font-size="10.00">AS5047U_types.hpp</text>
</a>
</g>
</g>
<!-- Node8&#45;&gt;Node17 -->
<g id="edge17_Node000008_Node000017" class="edge">
<title>Node8&#45;&gt;Node17</title>
<g id="a_edge17_Node000008_Node000017"><a xlink:title=" ">
<path fill="none" stroke="#63b8ff" d="M1382.61,-167.37C1432.52,-161.07 1496.39,-149.25 1512.5,-129 1533.19,-102.99 1493.71,-86.16 1455.14,-76.41"/>
<polygon fill="#63b8ff" stroke="#63b8ff" points="1455.93,-73 1445.39,-74.08 1454.3,-79.81 1455.93,-73"/>
</a>
</g>
</g>
<!-- Node18 -->
<g id="Node000018" class="node">
<title>Node18</title>
<g id="a_Node000018"><a xlink:href="AS5047U__config_8hpp.html" target="_top" xlink:title=" ">
<polygon fill="white" stroke="#666666" points="1101.5,-129 985.5,-129 985.5,-110 1101.5,-110 1101.5,-129"/>
<text text-anchor="middle" x="1043.5" y="-117" font-family="Helvetica,sans-Serif" font-size="10.00">AS5047U_config.hpp</text>
</a>
</g>
</g>
<!-- Node8&#45;&gt;Node18 -->
<g id="edge19_Node000008_Node000018" class="edge">
<title>Node8&#45;&gt;Node18</title>
<g id="a_edge19_Node000008_Node000018"><a xlink:title=" ">
<path fill="none" stroke="#63b8ff" d="M1275.16,-164.98C1227.01,-155.74 1150.08,-140.97 1098.21,-131.01"/>
<polygon fill="#63b8ff" stroke="#63b8ff" points="1098.67,-127.53 1088.19,-129.08 1097.35,-134.41 1098.67,-127.53"/>
</a>
</g>
</g>
<!-- Node9&#45;&gt;Node10 -->
<g id="edge9_Node000009_Node000010" class="edge">
<title>Node9&#45;&gt;Node10</title>
<g id="a_edge9_Node000009_Node000010"><a xlink:title=" ">
<path fill="none" stroke="#63b8ff" d="M1624.64,-54.98C1570.74,-44.52 1480.37,-26.98 1430.75,-17.34"/>
<polygon fill="#63b8ff" stroke="#63b8ff" points="1431.3,-13.88 1420.81,-15.41 1429.96,-20.76 1431.3,-13.88"/>
</a>
</g>
</g>
<!-- Node17&#45;&gt;Node10 -->
<g id="edge18_Node000017_Node000010" class="edge">
<title>Node17&#45;&gt;Node10</title>
<g id="a_edge18_Node000017_Node000010"><a xlink:title=" ">
<path fill="none" stroke="#63b8ff" d="M1395.5,-54.75C1395.5,-47.8 1395.5,-37.85 1395.5,-29.13"/>
<polygon fill="#63b8ff" stroke="#63b8ff" points="1399,-29.09 1395.5,-19.09 1392,-29.09 1399,-29.09"/>
</a>
</g>
</g>
<!-- Node18&#45;&gt;Node10 -->
<g id="edge20_Node000018_Node000010" class="edge">
<title>Node18&#45;&gt;Node10</title>
<g id="a_edge20_Node000018_Node000010"><a xlink:title=" ">
<path fill="none" stroke="#63b8ff" d="M1071.42,-109.94C1135.11,-90.39 1291.06,-42.55 1360.8,-21.15"/>
<polygon fill="#63b8ff" stroke="#63b8ff" points="1361.91,-24.47 1370.44,-18.19 1359.86,-17.78 1361.91,-24.47"/>
</a>
</g>
</g>
<!-- Node18&#45;&gt;Node17 -->
<g id="edge21_Node000018_Node000017" class="edge">
<title>Node18&#45;&gt;Node17</title>
<g id="a_edge21_Node000018_Node000017"><a xlink:title=" ">
<path fill="none" stroke="#63b8ff" d="M1100.05,-109.98C1162.44,-100.59 1262.74,-85.49 1328.89,-75.53"/>
<polygon fill="#63b8ff" stroke="#63b8ff" points="1329.43,-78.99 1338.79,-74.04 1328.38,-72.07 1329.43,-78.99"/>
</a>
</g>
</g>
<!-- Node19&#45;&gt;Node3 -->
<g id="edge28_Node000019_Node000003" class="edge">
<title>Node19&#45;&gt;Node3</title>
<g id="a_edge28_Node000019_Node000003"><a xlink:title=" ">
<path fill="none" stroke="#63b8ff" d="M762.48,-219.75C764.07,-212.72 766.36,-202.62 768.35,-193.84"/>
<polygon fill="#63b8ff" stroke="#63b8ff" points="771.76,-194.62 770.56,-184.09 764.93,-193.07 771.76,-194.62"/>
</a>
</g>
</g>
<!-- Node19&#45;&gt;Node6 -->
<g id="edge26_Node000019_Node000006" class="edge">
<title>Node19&#45;&gt;Node6</title>
<g id="a_edge26_Node000019_Node000006"><a xlink:title=" ">
<path fill="none" stroke="#63b8ff" d="M734.31,-219.98C707.06,-211.13 664.2,-197.19 633.72,-187.28"/>
<polygon fill="#63b8ff" stroke="#63b8ff" points="634.49,-183.85 623.89,-184.08 632.32,-190.5 634.49,-183.85"/>
</a>
</g>
</g>
<!-- Node19&#45;&gt;Node8 -->
<g id="edge23_Node000019_Node000008" class="edge">
<title>Node19&#45;&gt;Node8</title>
<g id="a_edge23_Node000019_Node000008"><a xlink:title=" ">
<path fill="none" stroke="#63b8ff" d="M824.34,-221.46C829.13,-220.96 833.89,-220.46 838.5,-220 983.01,-205.44 1152.14,-190.21 1246.43,-181.89"/>
<polygon fill="#63b8ff" stroke="#63b8ff" points="1246.78,-185.37 1256.44,-181 1246.17,-178.4 1246.78,-185.37"/>
</a>
</g>
</g>
<!-- Node19&#45;&gt;Node10 -->
<g id="edge27_Node000019_Node000010" class="edge">
<title>Node19&#45;&gt;Node10</title>
<g id="a_edge27_Node000019_Node000010"><a xlink:title=" ">
<path fill="none" stroke="#63b8ff" d="M814.93,-219.96C859.95,-212 919.47,-199.1 938.5,-184 967.46,-161.02 947.57,-133.03 976.5,-110 1054.34,-48.04 1096.68,-77.93 1193.5,-55 1251.84,-41.18 1320.01,-26.46 1360.37,-17.89"/>
<polygon fill="#63b8ff" stroke="#63b8ff" points="1361.19,-21.29 1370.25,-15.8 1359.74,-14.45 1361.19,-21.29"/>
</a>
</g>
</g>
<!-- Node20 -->
<g id="Node000020" class="node">
<title>Node20</title>
<g id="a_Node000020"><a xlink:title=" ">
<polygon fill="#e0e0e0" stroke="#999999" points="929.5,-184 819.5,-184 819.5,-165 929.5,-165 929.5,-184"/>
<text text-anchor="middle" x="874.5" y="-172" font-family="Helvetica,sans-Serif" font-size="10.00">driver/spi_master.h</text>
</a>
</g>
</g>
<!-- Node19&#45;&gt;Node20 -->
<g id="edge24_Node000019_Node000020" class="edge">
<title>Node19&#45;&gt;Node20</title>
<g id="a_edge24_Node000019_Node000020"><a xlink:title=" ">
<path fill="none" stroke="#63b8ff" d="M778.82,-219.98C797.16,-211.46 825.61,-198.23 846.73,-188.41"/>
<polygon fill="#63b8ff" stroke="#63b8ff" points="848.26,-191.56 855.85,-184.17 845.31,-185.21 848.26,-191.56"/>
</a>
</g>
</g>
<!-- Node21 -->
<g id="Node000021" class="node">
<title>Node21</title>
<g id="a_Node000021"><a xlink:title=" ">
<polygon fill="#e0e0e0" stroke="#999999" points="725.5,-184 647.5,-184 647.5,-165 725.5,-165 725.5,-184"/>
<text text-anchor="middle" x="686.5" y="-172" font-family="Helvetica,sans-Serif" font-size="10.00">driver/gpio.h</text>
</a>
</g>
</g>
<!-- Node19&#45;&gt;Node21 -->
<g id="edge25_Node000019_Node000021" class="edge">
<title>Node19&#45;&gt;Node21</title>
<g id="a_edge25_Node000019_Node000021"><a xlink:title=" ">
<path fill="none" stroke="#63b8ff" d="M748.61,-219.98C737.35,-211.92 720.21,-199.65 706.79,-190.03"/>
<polygon fill="#63b8ff" stroke="#63b8ff" points="708.77,-187.15 698.61,-184.17 704.7,-192.84 708.77,-187.15"/>
</a>
</g>
</g>
<!-- Node22&#45;&gt;Node4 -->
<g id="edge33_Node000022_Node000004" class="edge">
<title>Node22&#45;&gt;Node4</title>
<g id="a_edge33_Node000022_Node000004"><a xlink:title=" ">
<path fill="none" stroke="#63b8ff" d="M446.27,-222.68C376.36,-214.54 245.47,-199.19 122.95,-184.05"/>
<polygon fill="#63b8ff" stroke="#63b8ff" points="123.38,-180.57 113.02,-182.82 122.52,-187.52 123.38,-180.57"/>
</a>
</g>
</g>
<!-- Node22&#45;&gt;Node5 -->
<g id="edge36_Node000022_Node000005" class="edge">
<title>Node22&#45;&gt;Node5</title>
<g id="a_edge36_Node000022_Node000005"><a xlink:title=" ">
<path fill="none" stroke="#63b8ff" d="M446.34,-220.22C387.5,-210.5 290.31,-194.46 229.76,-184.46"/>
<polygon fill="#63b8ff" stroke="#63b8ff" points="230.07,-180.96 219.63,-182.79 228.92,-187.87 230.07,-180.96"/>
</a>
</g>
</g>
<!-- Node22&#45;&gt;Node6 -->
<g id="edge30_Node000022_Node000006" class="edge">
<title>Node22&#45;&gt;Node6</title>
<g id="a_edge30_Node000022_Node000006"><a xlink:title=" ">
<path fill="none" stroke="#63b8ff" d="M512.73,-219.98C528.68,-211.61 553.28,-198.7 571.88,-188.95"/>
<polygon fill="#63b8ff" stroke="#63b8ff" points="573.75,-191.92 580.98,-184.17 570.5,-185.72 573.75,-191.92"/>
</a>
</g>
</g>
<!-- Node22&#45;&gt;Node21 -->
<g id="edge32_Node000022_Node000021" class="edge">
<title>Node22&#45;&gt;Node21</title>
<g id="a_edge32_Node000022_Node000021"><a xlink:title=" ">
<path fill="none" stroke="#63b8ff" d="M527.03,-219.98C559.2,-211.01 610.06,-196.82 645.67,-186.89"/>
<polygon fill="#63b8ff" stroke="#63b8ff" points="647.04,-190.14 655.73,-184.08 645.16,-183.4 647.04,-190.14"/>
</a>
</g>
</g>
<!-- Node23 -->
<g id="Node000023" class="node">
<title>Node23</title>
<g id="a_Node000023"><a xlink:title=" ">
<polygon fill="#e0e0e0" stroke="#999999" points="311.5,-184 237.5,-184 237.5,-165 311.5,-165 311.5,-184"/>
<text text-anchor="middle" x="274.5" y="-172" font-family="Helvetica,sans-Serif" font-size="10.00">esp_timer.h</text>
</a>
</g>
</g>
<!-- Node22&#45;&gt;Node23 -->
<g id="edge31_Node000022_Node000023" class="edge">
<title>Node22&#45;&gt;Node23</title>
<g id="a_edge31_Node000022_Node000023"><a xlink:title=" ">
<path fill="none" stroke="#63b8ff" d="M460.83,-219.98C422.67,-210.87 362.03,-196.4 320.35,-186.45"/>
<polygon fill="#63b8ff" stroke="#63b8ff" points="320.99,-183 310.45,-184.08 319.36,-189.81 320.99,-183"/>
</a>
</g>
</g>
<!-- Node24 -->
<g id="Node000024" class="node">
<title>Node24</title>
<g id="a_Node000024"><a xlink:title=" ">
<polygon fill="#e0e0e0" stroke="#999999" points="427,-184 330,-184 330,-165 427,-165 427,-184"/>
<text text-anchor="middle" x="378.5" y="-172" font-family="Helvetica,sans-Serif" font-size="10.00">freertos/queue.h</text>
</a>
</g>
</g>
<!-- Node22&#45;&gt;Node24 -->
<g id="edge34_Node000022_Node000024" class="edge">
<title>Node22&#45;&gt;Node24</title>
<g id="a_edge34_Node000022_Node000024"><a xlink:title=" ">
<path fill="none" stroke="#63b8ff" d="M477.54,-219.98C458.47,-211.42 428.84,-198.11 406.95,-188.28"/>
<polygon fill="#63b8ff" stroke="#63b8ff" points="408.36,-185.07 397.8,-184.17 405.49,-191.46 408.36,-185.07"/>
</a>
</g>
</g>
<!-- Node25 -->
<g id="Node000025" class="node">
<title>Node25</title>
<g id="a_Node000025"><a xlink:title=" ">
<polygon fill="#e0e0e0" stroke="#999999" points="548,-184 445,-184 445,-165 548,-165 548,-184"/>
<text text-anchor="middle" x="496.5" y="-172" font-family="Helvetica,sans-Serif" font-size="10.00">freertos/semphr.h</text>
</a>
</g>
</g>
<!-- Node22&#45;&gt;Node25 -->
<g id="edge35_Node000022_Node000025" class="edge">
<title>Node22&#45;&gt;Node25</title>
<g id="a_edge35_Node000022_Node000025"><a xlink:title=" ">
<path fill="none" stroke="#63b8ff" d="M496.5,-219.75C496.5,-212.8 496.5,-202.85 496.5,-194.13"/>
<polygon fill="#63b8ff" stroke="#63b8ff" points="500,-194.09 496.5,-184.09 493,-194.09 500,-194.09"/>
</a>
</g>
</g>
</g>
</svg>
