<?xml version="1.0" encoding="UTF-8" standalone="no"?>
<!DOCTYPE svg PUBLIC "-//W3C//DTD SVG 1.1//EN"
 "http://www.w3.org/Graphics/SVG/1.1/DTD/svg11.dtd">
<!-- Generated by graphviz version 2.43.0 (0)
 -->
<!-- Title: examples/esp32/main/Esp32As5047uBus.hpp Pages: 1 -->
<svg width="1308pt" height="258pt"
 viewBox="0.00 0.00 1307.50 258.00" xmlns="http://www.w3.org/2000/svg" xmlns:xlink="http://www.w3.org/1999/xlink">
<g id="graph0" class="graph" transform="scale(1 1) rotate(0) translate(4 254)">
<title>examples/esp32/main/Esp32As5047uBus.hpp</title>
<!-- Node1 -->
<g id="Node000001" class="node">
<title>Node1</title>
<g id="a_Node000001"><a xlink:title="ESP32 SPI transport implementation for AS5047U driver.">
<polygon fill="#999999" stroke="#666666" points="1111.5,-250 981.5,-250 981.5,-220 1111.5,-220 1111.5,-250"/>
<text text-anchor="start" x="989.5" y="-238" font-family="Helvetica,sans-Serif" font-size="10.00">examples/esp32/main</text>
<text text-anchor="middle" x="1046.5" y="-227" font-family="Helvetica,sans-Serif" font-size="10.00">/Esp32As5047uBus.hpp</text>
</a>
</g>
</g>
<!-- Node2 -->
<g id="Node000002" class="node">
<title>Node2</title>
<g id="a_Node000002"><a xlink:href="AS5047U_8hpp.html" target="_top" xlink:title="Driver for AMS AS5047U Magnetic Rotary Position Sensor (C++21).">
<polygon fill="white" stroke="#666666" points="556.5,-184 430.5,-184 430.5,-165 556.5,-165 556.5,-184"/>
<text text-anchor="middle" x="493.5" y="-172" font-family="Helvetica,sans-Serif" font-size="10.00">../../../inc/AS5047U.hpp</text>
</a>
</g>
</g>
<!-- Node1&#45;&gt;Node2 -->
<g id="edge1_Node000001_Node000002" class="edge">
<title>Node1&#45;&gt;Node2</title>
<g id="a_edge1_Node000001_Node000002"><a xlink:title=" ">
<path fill="none" stroke="#63b8ff" d="M981.44,-227.12C877.72,-216.15 675.54,-194.76 566.83,-183.26"/>
<polygon fill="#63b8ff" stroke="#63b8ff" points="566.93,-179.75 556.61,-182.18 566.19,-186.71 566.93,-179.75"/>
</a>
</g>
</g>
<!-- Node4 -->
<g id="Node000004" class="node">
<title>Node4</title>
<g id="a_Node000004"><a xlink:title=" ">
<polygon fill="#e0e0e0" stroke="#999999" points="634.5,-19 584.5,-19 584.5,0 634.5,0 634.5,-19"/>
<text text-anchor="middle" x="609.5" y="-7" font-family="Helvetica,sans-Serif" font-size="10.00">cstdint</text>
</a>
</g>
</g>
<!-- Node1&#45;&gt;Node4 -->
<g id="edge22_Node000001_Node000004" class="edge">
<title>Node1&#45;&gt;Node4</title>
<g id="a_edge22_Node000001_Node000004"><a xlink:title=" ">
<path fill="none" stroke="#63b8ff" d="M990.39,-219.89C968.43,-212.16 944.29,-200.66 926.5,-184 879.78,-140.26 913.75,-93.33 862.5,-55 828.64,-29.68 706.14,-17.45 644.88,-12.82"/>
<polygon fill="#63b8ff" stroke="#63b8ff" points="644.77,-9.3 634.55,-12.06 644.26,-16.28 644.77,-9.3"/>
</a>
</g>
</g>
<!-- Node15 -->
<g id="Node000015" class="node">
<title>Node15</title>
<g id="a_Node000015"><a xlink:title=" ">
<polygon fill="#e0e0e0" stroke="#999999" points="1045.5,-184 935.5,-184 935.5,-165 1045.5,-165 1045.5,-184"/>
<text text-anchor="middle" x="990.5" y="-172" font-family="Helvetica,sans-Serif" font-size="10.00">driver/spi_master.h</text>
</a>
</g>
</g>
<!-- Node1&#45;&gt;Node15 -->
<g id="edge19_Node000001_Node000015" class="edge">
<title>Node1&#45;&gt;Node15</title>
<g id="a_edge19_Node000001_Node000015"><a xlink:title=" ">
<path fill="none" stroke="#63b8ff" d="M1032.94,-219.84C1024.82,-211.35 1014.45,-200.52 1006,-191.69"/>
<polygon fill="#63b8ff" stroke="#63b8ff" points="1008.33,-189.07 998.89,-184.27 1003.28,-193.91 1008.33,-189.07"/>
</a>
</g>
</g>
<!-- Node16 -->
<g id="Node000016" class="node">
<title>Node16</title>
<g id="a_Node000016"><a xlink:title=" ">
<polygon fill="#e0e0e0" stroke="#999999" points="1141.5,-184 1063.5,-184 1063.5,-165 1141.5,-165 1141.5,-184"/>
<text text-anchor="middle" x="1102.5" y="-172" font-family="Helvetica,sans-Serif" font-size="10.00">driver/gpio.h</text>
</a>
</g>
</g>
<!-- Node1&#45;&gt;Node16 -->
<g id="edge20_Node000001_Node000016" class="edge">
<title>Node1&#45;&gt;Node16</title>
<g id="a_edge20_Node000001_Node000016"><a xlink:title=" ">
<path fill="none" stroke="#63b8ff" d="M1060.06,-219.84C1068.18,-211.35 1078.55,-200.52 1087,-191.69"/>
<polygon fill="#63b8ff" stroke="#63b8ff" points="1089.72,-193.91 1094.11,-184.27 1084.67,-189.07 1089.72,-193.91"/>
</a>
</g>
</g>
<!-- Node17 -->
<g id="Node000017" class="node">
<title>Node17</title>
<g id="a_Node000017"><a xlink:title=" ">
<polygon fill="#e0e0e0" stroke="#999999" points="1223,-184 1160,-184 1160,-165 1223,-165 1223,-184"/>
<text text-anchor="middle" x="1191.5" y="-172" font-family="Helvetica,sans-Serif" font-size="10.00">esp_log.h</text>
</a>
</g>
</g>
<!-- Node1&#45;&gt;Node17 -->
<g id="edge21_Node000001_Node000017" class="edge">
<title>Node1&#45;&gt;Node17</title>
<g id="a_edge21_Node000001_Node000017"><a xlink:title=" ">
<path fill="none" stroke="#63b8ff" d="M1081.23,-219.99C1105.42,-210.23 1137.4,-197.33 1160.69,-187.93"/>
<polygon fill="#63b8ff" stroke="#63b8ff" points="1162.12,-191.13 1170.09,-184.14 1159.5,-184.63 1162.12,-191.13"/>
</a>
</g>
</g>
<!-- Node18 -->
<g id="Node000018" class="node">
<title>Node18</title>
<g id="a_Node000018"><a xlink:title=" ">
<polygon fill="#e0e0e0" stroke="#999999" points="1299.5,-184 1241.5,-184 1241.5,-165 1299.5,-165 1299.5,-184"/>
<text text-anchor="middle" x="1270.5" y="-172" font-family="Helvetica,sans-Serif" font-size="10.00">memory</text>
</a>
</g>
</g>
<!-- Node1&#45;&gt;Node18 -->
<g id="edge23_Node000001_Node000018" class="edge">
<title>Node1&#45;&gt;Node18</title>
<g id="a_edge23_Node000001_Node000018"><a xlink:title=" ">
<path fill="none" stroke="#63b8ff" d="M1100.15,-219.99C1140.61,-209.42 1195.17,-195.17 1231.53,-185.68"/>
<polygon fill="#63b8ff" stroke="#63b8ff" points="1232.48,-189.05 1241.27,-183.13 1230.71,-182.27 1232.48,-189.05"/>
</a>
</g>
</g>
<!-- Node3 -->
<g id="Node000003" class="node">
<title>Node3</title>
<g id="a_Node000003"><a xlink:href="AS5047U__REGISTERS_8hpp.html" target="_top" xlink:title="Register definitions for the AS5047U Rotary Position Sensor.">
<polygon fill="white" stroke="#666666" points="141,-74 0,-74 0,-55 141,-55 141,-74"/>
<text text-anchor="middle" x="70.5" y="-62" font-family="Helvetica,sans-Serif" font-size="10.00">AS5047U_REGISTERS.hpp</text>
</a>
</g>
</g>
<!-- Node2&#45;&gt;Node3 -->
<g id="edge2_Node000002_Node000003" class="edge">
<title>Node2&#45;&gt;Node3</title>
<g id="a_edge2_Node000002_Node000003"><a xlink:title=" ">
<path fill="none" stroke="#63b8ff" d="M430.31,-169.01C346.62,-162.41 203.95,-148.71 155.5,-129 128.47,-118.01 102.35,-96.31 86.36,-81.36"/>
<polygon fill="#63b8ff" stroke="#63b8ff" points="88.6,-78.66 78.97,-74.25 83.75,-83.71 88.6,-78.66"/>
</a>
</g>
</g>
<!-- Node2&#45;&gt;Node4 -->
<g id="edge9_Node000002_Node000004" class="edge">
<title>Node2&#45;&gt;Node4</title>
<g id="a_edge9_Node000002_Node000004"><a xlink:title=" ">
<path fill="none" stroke="#63b8ff" d="M430.42,-173.59C350.41,-172.21 219.13,-164.42 188.5,-129 182.98,-122.61 183.26,-116.62 188.5,-110 236.69,-49.1 481.78,-21.66 574.18,-13.36"/>
<polygon fill="#63b8ff" stroke="#63b8ff" points="574.76,-16.83 584.42,-12.47 574.15,-9.85 574.76,-16.83"/>
</a>
</g>
</g>
<!-- Node5 -->
<g id="Node000005" class="node">
<title>Node5</title>
<g id="a_Node000005"><a xlink:title=" ">
<polygon fill="#e0e0e0" stroke="#999999" points="261.5,-129 197.5,-129 197.5,-110 261.5,-110 261.5,-129"/>
<text text-anchor="middle" x="229.5" y="-117" font-family="Helvetica,sans-Serif" font-size="10.00">algorithm</text>
</a>
</g>
</g>
<!-- Node2&#45;&gt;Node5 -->
<g id="edge4_Node000002_Node000005" class="edge">
<title>Node2&#45;&gt;Node5</title>
<g id="a_edge4_Node000002_Node000005"><a xlink:title=" ">
<path fill="none" stroke="#63b8ff" d="M450.31,-164.98C407.48,-156.51 339.71,-143.05 271.75,-129.24"/>
<polygon fill="#63b8ff" stroke="#63b8ff" points="272.22,-125.77 261.72,-127.2 270.83,-132.63 272.22,-125.77"/>
</a>
</g>
</g>
<!-- Node6 -->
<g id="Node000006" class="node">
<title>Node6</title>
<g id="a_Node000006"><a xlink:title=" ">
<polygon fill="#e0e0e0" stroke="#999999" points="321.5,-129 279.5,-129 279.5,-110 321.5,-110 321.5,-129"/>
<text text-anchor="middle" x="300.5" y="-117" font-family="Helvetica,sans-Serif" font-size="10.00">array</text>
</a>
</g>
</g>
<!-- Node2&#45;&gt;Node6 -->
<g id="edge5_Node000002_Node000006" class="edge">
<title>Node2&#45;&gt;Node6</title>
<g id="a_edge5_Node000002_Node000006"><a xlink:title=" ">
<path fill="none" stroke="#63b8ff" d="M461.92,-164.98C431.06,-156.62 382.48,-143.42 331.65,-129.3"/>
<polygon fill="#63b8ff" stroke="#63b8ff" points="332.37,-125.87 321.8,-126.56 330.49,-132.61 332.37,-125.87"/>
</a>
</g>
</g>
<!-- Node7 -->
<g id="Node000007" class="node">
<title>Node7</title>
<g id="a_Node000007"><a xlink:title=" ">
<polygon fill="#e0e0e0" stroke="#999999" points="389.5,-129 339.5,-129 339.5,-110 389.5,-110 389.5,-129"/>
<text text-anchor="middle" x="364.5" y="-117" font-family="Helvetica,sans-Serif" font-size="10.00">atomic</text>
</a>
</g>
</g>
<!-- Node2&#45;&gt;Node7 -->
<g id="edge6_Node000002_Node000007" class="edge">
<title>Node2&#45;&gt;Node7</title>
<g id="a_edge6_Node000002_Node000007"><a xlink:title=" ">
<path fill="none" stroke="#63b8ff" d="M472.77,-164.98C451.74,-156.34 418.95,-142.87 394.96,-133.02"/>
<polygon fill="#63b8ff" stroke="#63b8ff" points="396.18,-129.73 385.6,-129.17 393.52,-136.21 396.18,-129.73"/>
</a>
</g>
</g>
<!-- Node8 -->
<g id="Node000008" class="node">
<title>Node8</title>
<g id="a_Node000008"><a xlink:title=" ">
<polygon fill="#e0e0e0" stroke="#999999" points="451.5,-129 407.5,-129 407.5,-110 451.5,-110 451.5,-129"/>
<text text-anchor="middle" x="429.5" y="-117" font-family="Helvetica,sans-Serif" font-size="10.00">bitset</text>
</a>
</g>
</g>
<!-- Node2&#45;&gt;Node8 -->
<g id="edge7_Node000002_Node000008" class="edge">
<title>Node2&#45;&gt;Node8</title>
<g id="a_edge7_Node000002_Node000008"><a xlink:title=" ">
<path fill="none" stroke="#63b8ff" d="M483.22,-164.98C473.66,-157.07 459.22,-145.11 447.72,-135.58"/>
<polygon fill="#63b8ff" stroke="#63b8ff" points="449.9,-132.85 439.97,-129.17 445.44,-138.24 449.9,-132.85"/>
</a>
</g>
</g>
<!-- Node9 -->
<g id="Node000009" class="node">
<title>Node9</title>
<g id="a_Node000009"><a xlink:title=" ">
<polygon fill="#e0e0e0" stroke="#999999" points="517,-129 470,-129 470,-110 517,-110 517,-129"/>
<text text-anchor="middle" x="493.5" y="-117" font-family="Helvetica,sans-Serif" font-size="10.00">cmath</text>
</a>
</g>
</g>
<!-- Node2&#45;&gt;Node9 -->
<g id="edge8_Node000002_Node000009" class="edge">
<title>Node2&#45;&gt;Node9</title>
<g id="a_edge8_Node000002_Node000009"><a xlink:title=" ">
<path fill="none" stroke="#63b8ff" d="M493.5,-164.75C493.5,-157.8 493.5,-147.85 493.5,-139.13"/>
<polygon fill="#63b8ff" stroke="#63b8ff" points="497,-139.09 493.5,-129.09 490,-139.09 497,-139.09"/>
</a>
</g>
</g>
<!-- Node10 -->
<g id="Node000010" class="node">
<title>Node10</title>
<g id="a_Node000010"><a xlink:title=" ">
<polygon fill="#e0e0e0" stroke="#999999" points="581.5,-129 535.5,-129 535.5,-110 581.5,-110 581.5,-129"/>
<text text-anchor="middle" x="558.5" y="-117" font-family="Helvetica,sans-Serif" font-size="10.00">cstdio</text>
</a>
</g>
</g>
<!-- Node2&#45;&gt;Node10 -->
<g id="edge10_Node000002_Node000010" class="edge">
<title>Node2&#45;&gt;Node10</title>
<g id="a_edge10_Node000002_Node000010"><a xlink:title=" ">
<path fill="none" stroke="#63b8ff" d="M503.94,-164.98C513.65,-157.07 528.32,-145.11 540,-135.58"/>
<polygon fill="#63b8ff" stroke="#63b8ff" points="542.33,-138.2 547.87,-129.17 537.9,-132.78 542.33,-138.2"/>
</a>
</g>
</g>
<!-- Node11 -->
<g id="Node000011" class="node">
<title>Node11</title>
<g id="a_Node000011"><a xlink:href="AS5047U__types_8hpp.html" target="_top" xlink:title="Type definitions for the AS5047U driver.">
<polygon fill="white" stroke="#666666" points="666.5,-74 552.5,-74 552.5,-55 666.5,-55 666.5,-74"/>
<text text-anchor="middle" x="609.5" y="-62" font-family="Helvetica,sans-Serif" font-size="10.00">AS5047U_types.hpp</text>
</a>
</g>
</g>
<!-- Node2&#45;&gt;Node11 -->
<g id="edge11_Node000002_Node000011" class="edge">
<title>Node2&#45;&gt;Node11</title>
<g id="a_edge11_Node000002_Node000011"><a xlink:title=" ">
<path fill="none" stroke="#63b8ff" d="M529.38,-164.98C549.93,-158.37 574.7,-147.18 590.5,-129 601.24,-116.65 605.91,-98.43 607.94,-84.67"/>
<polygon fill="#63b8ff" stroke="#63b8ff" points="611.46,-84.72 609.1,-74.39 604.5,-83.93 611.46,-84.72"/>
</a>
</g>
</g>
<!-- Node12 -->
<g id="Node000012" class="node">
<title>Node12</title>
<g id="a_Node000012"><a xlink:href="AS5047U__config_8hpp.html" target="_top" xlink:title=" ">
<polygon fill="white" stroke="#666666" points="753.5,-129 637.5,-129 637.5,-110 753.5,-110 753.5,-129"/>
<text text-anchor="middle" x="695.5" y="-117" font-family="Helvetica,sans-Serif" font-size="10.00">AS5047U_config.hpp</text>
</a>
</g>
</g>
<!-- Node2&#45;&gt;Node12 -->
<g id="edge13_Node000002_Node000012" class="edge">
<title>Node2&#45;&gt;Node12</title>
<g id="a_edge13_Node000002_Node000012"><a xlink:title=" ">
<path fill="none" stroke="#63b8ff" d="M525.95,-164.98C560.46,-155.93 615.16,-141.58 653.06,-131.64"/>
<polygon fill="#63b8ff" stroke="#63b8ff" points="654.01,-135.01 662.79,-129.08 652.23,-128.23 654.01,-135.01"/>
</a>
</g>
</g>
<!-- Node13 -->
<g id="Node000013" class="node">
<title>Node13</title>
<g id="a_Node000013"><a xlink:href="AS5047U_8cpp.html" target="_top" xlink:title=" ">
<polygon fill="white" stroke="#666666" points="879,-129 772,-129 772,-110 879,-110 879,-129"/>
<text text-anchor="middle" x="825.5" y="-117" font-family="Helvetica,sans-Serif" font-size="10.00">../src/AS5047U.cpp</text>
</a>
</g>
</g>
<!-- Node2&#45;&gt;Node13 -->
<g id="edge16_Node000002_Node000013" class="edge">
<title>Node2&#45;&gt;Node13</title>
<g id="a_edge16_Node000002_Node000013"><a xlink:title=" ">
<path fill="none" stroke="#63b8ff" d="M541.73,-164.98C599.89,-155.36 697.66,-139.74 761.93,-129.81"/>
<polygon fill="#63b8ff" stroke="#63b8ff" points="762.59,-133.24 771.94,-128.26 761.53,-126.33 762.59,-133.24"/>
</a>
</g>
</g>
<!-- Node3&#45;&gt;Node4 -->
<g id="edge3_Node000003_Node000004" class="edge">
<title>Node3&#45;&gt;Node4</title>
<g id="a_edge3_Node000003_Node000004"><a xlink:title=" ">
<path fill="none" stroke="#63b8ff" d="M141,-56.44C145.91,-55.95 150.78,-55.47 155.5,-55 311.69,-39.54 498.13,-21.35 574.38,-13.92"/>
<polygon fill="#63b8ff" stroke="#63b8ff" points="574.78,-17.4 584.4,-12.94 574.11,-10.43 574.78,-17.4"/>
</a>
</g>
</g>
<!-- Node11&#45;&gt;Node4 -->
<g id="edge12_Node000011_Node000004" class="edge">
<title>Node11&#45;&gt;Node4</title>
<g id="a_edge12_Node000011_Node000004"><a xlink:title=" ">
<path fill="none" stroke="#63b8ff" d="M609.5,-54.75C609.5,-47.8 609.5,-37.85 609.5,-29.13"/>
<polygon fill="#63b8ff" stroke="#63b8ff" points="613,-29.09 609.5,-19.09 606,-29.09 613,-29.09"/>
</a>
</g>
</g>
<!-- Node12&#45;&gt;Node4 -->
<g id="edge14_Node000012_Node000004" class="edge">
<title>Node12&#45;&gt;Node4</title>
<g id="a_edge14_Node000012_Node000004"><a xlink:title=" ">
<path fill="none" stroke="#63b8ff" d="M694.61,-109.88C692.88,-96.84 688.09,-71.86 675.5,-55 665.79,-41.99 651.09,-31.55 638.03,-24.06"/>
<polygon fill="#63b8ff" stroke="#63b8ff" points="639.36,-20.8 628.9,-19.13 636.04,-26.96 639.36,-20.8"/>
</a>
</g>
</g>
<!-- Node12&#45;&gt;Node11 -->
<g id="edge15_Node000012_Node000011" class="edge">
<title>Node12&#45;&gt;Node11</title>
<g id="a_edge15_Node000012_Node000011"><a xlink:title=" ">
<path fill="none" stroke="#63b8ff" d="M681.68,-109.98C668.35,-101.77 647.92,-89.18 632.19,-79.49"/>
<polygon fill="#63b8ff" stroke="#63b8ff" points="633.92,-76.44 623.57,-74.17 630.25,-82.4 633.92,-76.44"/>
</a>
</g>
</g>
<!-- Node13&#45;&gt;Node2 -->
<g id="edge17_Node000013_Node000002" class="edge">
<title>Node13&#45;&gt;Node2</title>
<g id="a_edge17_Node000013_Node000002"><a xlink:title=" ">
<path fill="none" stroke="#63b8ff" d="M777.14,-129.04C720.42,-138.42 626.19,-153.48 561.99,-163.43"/>
<polygon fill="#63b8ff" stroke="#63b8ff" points="561.3,-160 551.96,-164.98 562.37,-166.92 561.3,-160"/>
</a>
</g>
</g>
<!-- Node14 -->
<g id="Node000014" class="node">
<title>Node14</title>
<g id="a_Node000014"><a xlink:title=" ">
<polygon fill="#e0e0e0" stroke="#999999" points="853.5,-74 797.5,-74 797.5,-55 853.5,-55 853.5,-74"/>
<text text-anchor="middle" x="825.5" y="-62" font-family="Helvetica,sans-Serif" font-size="10.00">iomanip</text>
</a>
</g>
</g>
<!-- Node13&#45;&gt;Node14 -->
<g id="edge18_Node000013_Node000014" class="edge">
<title>Node13&#45;&gt;Node14</title>
<g id="a_edge18_Node000013_Node000014"><a xlink:title=" ">
<path fill="none" stroke="#63b8ff" d="M825.5,-109.75C825.5,-102.8 825.5,-92.85 825.5,-84.13"/>
<polygon fill="#63b8ff" stroke="#63b8ff" points="829,-84.09 825.5,-74.09 822,-84.09 829,-84.09"/>
</a>
</g>
</g>
</g>
</svg>
