<?xml version="1.0" encoding="UTF-8" standalone="no"?>
<!DOCTYPE svg PUBLIC "-//W3C//DTD SVG 1.1//EN"
 "http://www.w3.org/Graphics/SVG/1.1/DTD/svg11.dtd">
<!-- Generated by graphviz version 2.43.0 (0)
 -->
<!-- Title: examples/esp32/main/FullFeaturesExample.cpp Pages: 1 -->
<svg width="1268pt" height="258pt"
 viewBox="0.00 0.00 1267.50 258.00" xmlns="http://www.w3.org/2000/svg" xmlns:xlink="http://www.w3.org/1999/xlink">
<g id="graph0" class="graph" transform="scale(1 1) rotate(0) translate(4 254)">
<title>examples/esp32/main/FullFeaturesExample.cpp</title>
<!-- Node1 -->
<g id="Node000001" class="node">
<title>Node1</title>
<g id="a_Node000001"><a xlink:title="Comprehensive example demonstrating all AS5047U features.">
<polygon fill="#999999" stroke="#666666" points="806.5,-250 664.5,-250 664.5,-220 806.5,-220 806.5,-250"/>
<text text-anchor="start" x="672.5" y="-238" font-family="Helvetica,sans-Serif" font-size="10.00">examples/esp32/main</text>
<text text-anchor="middle" x="735.5" y="-227" font-family="Helvetica,sans-Serif" font-size="10.00">/FullFeaturesExample.cpp</text>
</a>
</g>
</g>
<!-- Node2 -->
<g id="Node000002" class="node">
<title>Node2</title>
<g id="a_Node000002"><a xlink:title=" ">
<polygon fill="#e0e0e0" stroke="#999999" points="63,-129 0,-129 0,-110 63,-110 63,-129"/>
<text text-anchor="middle" x="31.5" y="-117" font-family="Helvetica,sans-Serif" font-size="10.00">esp_log.h</text>
</a>
</g>
</g>
<!-- Node1&#45;&gt;Node2 -->
<g id="edge1_Node000001_Node000002" class="edge">
<title>Node1&#45;&gt;Node2</title>
<g id="a_edge1_Node000001_Node000002"><a xlink:title=" ">
<path fill="none" stroke="#63b8ff" d="M664.5,-234.3C558.62,-233.23 353.8,-225.34 185.5,-184 138.32,-172.41 86.73,-148.68 56.85,-133.74"/>
<polygon fill="#63b8ff" stroke="#63b8ff" points="58.09,-130.44 47.59,-129.04 54.92,-136.69 58.09,-130.44"/>
</a>
</g>
</g>
<!-- Node3 -->
<g id="Node000003" class="node">
<title>Node3</title>
<g id="a_Node000003"><a xlink:title=" ">
<polygon fill="#e0e0e0" stroke="#999999" points="930,-184 817,-184 817,-165 930,-165 930,-184"/>
<text text-anchor="middle" x="873.5" y="-172" font-family="Helvetica,sans-Serif" font-size="10.00">freertos/FreeRTOS.h</text>
</a>
</g>
</g>
<!-- Node1&#45;&gt;Node3 -->
<g id="edge2_Node000001_Node000003" class="edge">
<title>Node1&#45;&gt;Node3</title>
<g id="a_edge2_Node000001_Node000003"><a xlink:title=" ">
<path fill="none" stroke="#63b8ff" d="M768.55,-219.99C791.48,-210.27 821.74,-197.44 843.88,-188.06"/>
<polygon fill="#63b8ff" stroke="#63b8ff" points="845.28,-191.26 853.12,-184.14 842.55,-184.82 845.28,-191.26"/>
</a>
</g>
</g>
<!-- Node4 -->
<g id="Node000004" class="node">
<title>Node4</title>
<g id="a_Node000004"><a xlink:title=" ">
<polygon fill="#e0e0e0" stroke="#999999" points="1036.5,-184 948.5,-184 948.5,-165 1036.5,-165 1036.5,-184"/>
<text text-anchor="middle" x="992.5" y="-172" font-family="Helvetica,sans-Serif" font-size="10.00">freertos/task.h</text>
</a>
</g>
</g>
<!-- Node1&#45;&gt;Node4 -->
<g id="edge3_Node000001_Node000004" class="edge">
<title>Node1&#45;&gt;Node4</title>
<g id="a_edge3_Node000001_Node000004"><a xlink:title=" ">
<path fill="none" stroke="#63b8ff" d="M797.06,-219.99C842.47,-209.65 903.35,-195.79 945.02,-186.31"/>
<polygon fill="#63b8ff" stroke="#63b8ff" points="945.95,-189.69 954.92,-184.05 944.4,-182.86 945.95,-189.69"/>
</a>
</g>
</g>
<!-- Node5 -->
<g id="Node000005" class="node">
<title>Node5</title>
<g id="a_Node000005"><a xlink:title=" ">
<polygon fill="#e0e0e0" stroke="#999999" points="139.5,-129 81.5,-129 81.5,-110 139.5,-110 139.5,-129"/>
<text text-anchor="middle" x="110.5" y="-117" font-family="Helvetica,sans-Serif" font-size="10.00">memory</text>
</a>
</g>
</g>
<!-- Node1&#45;&gt;Node5 -->
<g id="edge4_Node000001_Node000005" class="edge">
<title>Node1&#45;&gt;Node5</title>
<g id="a_edge4_Node000001_Node000005"><a xlink:title=" ">
<path fill="none" stroke="#63b8ff" d="M664.12,-230.11C545.73,-223.12 313.99,-206.98 235.5,-184 196.94,-172.71 156.13,-149.57 132.01,-134.57"/>
<polygon fill="#63b8ff" stroke="#63b8ff" points="133.65,-131.46 123.33,-129.06 129.9,-137.37 133.65,-131.46"/>
</a>
</g>
</g>
<!-- Node6 -->
<g id="Node000006" class="node">
<title>Node6</title>
<g id="a_Node000006"><a xlink:title=" ">
<polygon fill="#e0e0e0" stroke="#999999" points="1104.5,-184 1054.5,-184 1054.5,-165 1104.5,-165 1104.5,-184"/>
<text text-anchor="middle" x="1079.5" y="-172" font-family="Helvetica,sans-Serif" font-size="10.00">stdio.h</text>
</a>
</g>
</g>
<!-- Node1&#45;&gt;Node6 -->
<g id="edge5_Node000001_Node000006" class="edge">
<title>Node1&#45;&gt;Node6</title>
<g id="a_edge5_Node000001_Node000006"><a xlink:title=" ">
<path fill="none" stroke="#63b8ff" d="M806.61,-224.29C867.37,-215.59 957.28,-201.76 1044.51,-184.06"/>
<polygon fill="#63b8ff" stroke="#63b8ff" points="1045.21,-187.49 1054.3,-182.05 1043.8,-180.63 1045.21,-187.49"/>
</a>
</g>
</g>
<!-- Node7 -->
<g id="Node000007" class="node">
<title>Node7</title>
<g id="a_Node000007"><a xlink:href="AS5047U_8hpp.html" target="_top" xlink:title="Driver for AMS AS5047U Magnetic Rotary Position Sensor (C++21).">
<polygon fill="white" stroke="#666666" points="798.5,-184 672.5,-184 672.5,-165 798.5,-165 798.5,-184"/>
<text text-anchor="middle" x="735.5" y="-172" font-family="Helvetica,sans-Serif" font-size="10.00">../../../inc/AS5047U.hpp</text>
</a>
</g>
</g>
<!-- Node1&#45;&gt;Node7 -->
<g id="edge6_Node000001_Node000007" class="edge">
<title>Node1&#45;&gt;Node7</title>
<g id="a_edge6_Node000001_Node000007"><a xlink:title=" ">
<path fill="none" stroke="#63b8ff" d="M735.5,-219.84C735.5,-212.21 735.5,-202.7 735.5,-194.45"/>
<polygon fill="#63b8ff" stroke="#63b8ff" points="739,-194.27 735.5,-184.27 732,-194.27 739,-194.27"/>
</a>
</g>
</g>
<!-- Node21 -->
<g id="Node000021" class="node">
<title>Node21</title>
<g id="a_Node000021"><a xlink:href="Esp32As5047uBus_8hpp.html" target="_top" xlink:title="ESP32 SPI transport implementation for AS5047U driver.">
<polygon fill="white" stroke="#666666" points="372,-184 245,-184 245,-165 372,-165 372,-184"/>
<text text-anchor="middle" x="308.5" y="-172" font-family="Helvetica,sans-Serif" font-size="10.00">Esp32As5047uBus.hpp</text>
</a>
</g>
</g>
<!-- Node1&#45;&gt;Node21 -->
<g id="edge25_Node000001_Node000021" class="edge">
<title>Node1&#45;&gt;Node21</title>
<g id="a_edge25_Node000001_Node000021"><a xlink:title=" ">
<path fill="none" stroke="#63b8ff" d="M664.03,-224.21C585.53,-213.45 460.14,-196.27 381.17,-185.46"/>
<polygon fill="#63b8ff" stroke="#63b8ff" points="381.2,-181.93 370.82,-184.04 380.25,-188.86 381.2,-181.93"/>
</a>
</g>
</g>
<!-- Node8 -->
<g id="Node000008" class="node">
<title>Node8</title>
<g id="a_Node000008"><a xlink:href="AS5047U__Bus_8hpp.html" target="_top" xlink:title="CRTP&#45;based SPI bus interface for AS5047U driver.">
<polygon fill="white" stroke="#666666" points="525,-129 420,-129 420,-110 525,-110 525,-129"/>
<text text-anchor="middle" x="472.5" y="-117" font-family="Helvetica,sans-Serif" font-size="10.00">AS5047U_Bus.hpp</text>
</a>
</g>
</g>
<!-- Node7&#45;&gt;Node8 -->
<g id="edge7_Node000007_Node000008" class="edge">
<title>Node7&#45;&gt;Node8</title>
<g id="a_edge7_Node000007_Node000008"><a xlink:title=" ">
<path fill="none" stroke="#63b8ff" d="M693.24,-164.98C647.46,-155.76 574.36,-141.03 524.95,-131.07"/>
<polygon fill="#63b8ff" stroke="#63b8ff" points="525.58,-127.63 515.09,-129.08 524.2,-134.49 525.58,-127.63"/>
</a>
</g>
</g>
<!-- Node10 -->
<g id="Node000010" class="node">
<title>Node10</title>
<g id="a_Node000010"><a xlink:title=" ">
<polygon fill="#e0e0e0" stroke="#999999" points="886.5,-19 836.5,-19 836.5,0 886.5,0 886.5,-19"/>
<text text-anchor="middle" x="861.5" y="-7" font-family="Helvetica,sans-Serif" font-size="10.00">cstdint</text>
</a>
</g>
</g>
<!-- Node7&#45;&gt;Node10 -->
<g id="edge17_Node000007_Node000010" class="edge">
<title>Node7&#45;&gt;Node10</title>
<g id="a_edge17_Node000007_Node000010"><a xlink:title=" ">
<path fill="none" stroke="#63b8ff" d="M798.9,-166.04C899.86,-154.08 1086.12,-131.7 1088.5,-129 1147.54,-62.04 974.29,-27.22 896.84,-15.31"/>
<polygon fill="#63b8ff" stroke="#63b8ff" points="896.99,-11.8 886.58,-13.78 895.96,-18.72 896.99,-11.8"/>
</a>
</g>
</g>
<!-- Node11 -->
<g id="Node000011" class="node">
<title>Node11</title>
<g id="a_Node000011"><a xlink:href="AS5047U__REGISTERS_8hpp.html" target="_top" xlink:title="Register definitions for the AS5047U Rotary Position Sensor.">
<polygon fill="white" stroke="#666666" points="786,-74 645,-74 645,-55 786,-55 786,-74"/>
<text text-anchor="middle" x="715.5" y="-62" font-family="Helvetica,sans-Serif" font-size="10.00">AS5047U_REGISTERS.hpp</text>
</a>
</g>
</g>
<!-- Node7&#45;&gt;Node11 -->
<g id="edge10_Node000007_Node000011" class="edge">
<title>Node7&#45;&gt;Node11</title>
<g id="a_edge10_Node000007_Node000011"><a xlink:title=" ">
<path fill="none" stroke="#63b8ff" d="M676.13,-164.96C634.94,-157.68 585.27,-145.73 572.5,-129 550.28,-99.9 591.11,-83.84 634.75,-75.15"/>
<polygon fill="#63b8ff" stroke="#63b8ff" points="635.49,-78.58 644.68,-73.31 634.21,-71.69 635.49,-78.58"/>
</a>
</g>
</g>
<!-- Node12 -->
<g id="Node000012" class="node">
<title>Node12</title>
<g id="a_Node000012"><a xlink:title=" ">
<polygon fill="#e0e0e0" stroke="#999999" points="1199.5,-129 1135.5,-129 1135.5,-110 1199.5,-110 1199.5,-129"/>
<text text-anchor="middle" x="1167.5" y="-117" font-family="Helvetica,sans-Serif" font-size="10.00">algorithm</text>
</a>
</g>
</g>
<!-- Node7&#45;&gt;Node12 -->
<g id="edge12_Node000007_Node000012" class="edge">
<title>Node7&#45;&gt;Node12</title>
<g id="a_edge12_Node000007_Node000012"><a xlink:title=" ">
<path fill="none" stroke="#63b8ff" d="M798.81,-166.12C802.09,-165.74 805.33,-165.37 808.5,-165 947.6,-148.9 983.02,-149.73 1121.5,-129 1122.77,-128.81 1124.05,-128.61 1125.34,-128.41"/>
<polygon fill="#63b8ff" stroke="#63b8ff" points="1126.09,-131.83 1135.38,-126.72 1124.94,-124.93 1126.09,-131.83"/>
</a>
</g>
</g>
<!-- Node13 -->
<g id="Node000013" class="node">
<title>Node13</title>
<g id="a_Node000013"><a xlink:title=" ">
<polygon fill="#e0e0e0" stroke="#999999" points="1259.5,-129 1217.5,-129 1217.5,-110 1259.5,-110 1259.5,-129"/>
<text text-anchor="middle" x="1238.5" y="-117" font-family="Helvetica,sans-Serif" font-size="10.00">array</text>
</a>
</g>
</g>
<!-- Node7&#45;&gt;Node13 -->
<g id="edge13_Node000007_Node000013" class="edge">
<title>Node7&#45;&gt;Node13</title>
<g id="a_edge13_Node000007_Node000013"><a xlink:title=" ">
<path fill="none" stroke="#63b8ff" d="M798.8,-166.03C802.08,-165.67 805.33,-165.33 808.5,-165 982.85,-147.01 1031.24,-160.95 1207.45,-128.85"/>
<polygon fill="#63b8ff" stroke="#63b8ff" points="1208.11,-132.29 1217.31,-127.03 1206.84,-125.4 1208.11,-132.29"/>
</a>
</g>
</g>
<!-- Node14 -->
<g id="Node000014" class="node">
<title>Node14</title>
<g id="a_Node000014"><a xlink:title=" ">
<polygon fill="#e0e0e0" stroke="#999999" points="631.5,-129 581.5,-129 581.5,-110 631.5,-110 631.5,-129"/>
<text text-anchor="middle" x="606.5" y="-117" font-family="Helvetica,sans-Serif" font-size="10.00">atomic</text>
</a>
</g>
</g>
<!-- Node7&#45;&gt;Node14 -->
<g id="edge14_Node000007_Node000014" class="edge">
<title>Node7&#45;&gt;Node14</title>
<g id="a_edge14_Node000007_Node000014"><a xlink:title=" ">
<path fill="none" stroke="#63b8ff" d="M714.77,-164.98C693.74,-156.34 660.95,-142.87 636.96,-133.02"/>
<polygon fill="#63b8ff" stroke="#63b8ff" points="638.18,-129.73 627.6,-129.17 635.52,-136.21 638.18,-129.73"/>
</a>
</g>
</g>
<!-- Node15 -->
<g id="Node000015" class="node">
<title>Node15</title>
<g id="a_Node000015"><a xlink:title=" ">
<polygon fill="#e0e0e0" stroke="#999999" points="693.5,-129 649.5,-129 649.5,-110 693.5,-110 693.5,-129"/>
<text text-anchor="middle" x="671.5" y="-117" font-family="Helvetica,sans-Serif" font-size="10.00">bitset</text>
</a>
</g>
</g>
<!-- Node7&#45;&gt;Node15 -->
<g id="edge15_Node000007_Node000015" class="edge">
<title>Node7&#45;&gt;Node15</title>
<g id="a_edge15_Node000007_Node000015"><a xlink:title=" ">
<path fill="none" stroke="#63b8ff" d="M725.22,-164.98C715.66,-157.07 701.22,-145.11 689.72,-135.58"/>
<polygon fill="#63b8ff" stroke="#63b8ff" points="691.9,-132.85 681.97,-129.17 687.44,-138.24 691.9,-132.85"/>
</a>
</g>
</g>
<!-- Node16 -->
<g id="Node000016" class="node">
<title>Node16</title>
<g id="a_Node000016"><a xlink:title=" ">
<polygon fill="#e0e0e0" stroke="#999999" points="759,-129 712,-129 712,-110 759,-110 759,-129"/>
<text text-anchor="middle" x="735.5" y="-117" font-family="Helvetica,sans-Serif" font-size="10.00">cmath</text>
</a>
</g>
</g>
<!-- Node7&#45;&gt;Node16 -->
<g id="edge16_Node000007_Node000016" class="edge">
<title>Node7&#45;&gt;Node16</title>
<g id="a_edge16_Node000007_Node000016"><a xlink:title=" ">
<path fill="none" stroke="#63b8ff" d="M735.5,-164.75C735.5,-157.8 735.5,-147.85 735.5,-139.13"/>
<polygon fill="#63b8ff" stroke="#63b8ff" points="739,-139.09 735.5,-129.09 732,-139.09 739,-139.09"/>
</a>
</g>
</g>
<!-- Node17 -->
<g id="Node000017" class="node">
<title>Node17</title>
<g id="a_Node000017"><a xlink:title=" ">
<polygon fill="#e0e0e0" stroke="#999999" points="823.5,-129 777.5,-129 777.5,-110 823.5,-110 823.5,-129"/>
<text text-anchor="middle" x="800.5" y="-117" font-family="Helvetica,sans-Serif" font-size="10.00">cstdio</text>
</a>
</g>
</g>
<!-- Node7&#45;&gt;Node17 -->
<g id="edge18_Node000007_Node000017" class="edge">
<title>Node7&#45;&gt;Node17</title>
<g id="a_edge18_Node000007_Node000017"><a xlink:title=" ">
<path fill="none" stroke="#63b8ff" d="M745.94,-164.98C755.65,-157.07 770.32,-145.11 782,-135.58"/>
<polygon fill="#63b8ff" stroke="#63b8ff" points="784.33,-138.2 789.87,-129.17 779.9,-132.78 784.33,-138.2"/>
</a>
</g>
</g>
<!-- Node18 -->
<g id="Node000018" class="node">
<title>Node18</title>
<g id="a_Node000018"><a xlink:title=" ">
<polygon fill="#e0e0e0" stroke="#999999" points="907,-129 842,-129 842,-110 907,-110 907,-129"/>
<text text-anchor="middle" x="874.5" y="-117" font-family="Helvetica,sans-Serif" font-size="10.00">functional</text>
</a>
</g>
</g>
<!-- Node7&#45;&gt;Node18 -->
<g id="edge19_Node000007_Node000018" class="edge">
<title>Node7&#45;&gt;Node18</title>
<g id="a_edge19_Node000007_Node000018"><a xlink:title=" ">
<path fill="none" stroke="#63b8ff" d="M757.83,-164.98C780.7,-156.27 816.46,-142.63 842.36,-132.75"/>
<polygon fill="#63b8ff" stroke="#63b8ff" points="843.66,-136 851.76,-129.17 841.17,-129.46 843.66,-136"/>
</a>
</g>
</g>
<!-- Node19 -->
<g id="Node000019" class="node">
<title>Node19</title>
<g id="a_Node000019"><a xlink:href="AS5047U__types_8hpp.html" target="_top" xlink:title="Type definitions for the AS5047U driver.">
<polygon fill="white" stroke="#666666" points="992.5,-74 878.5,-74 878.5,-55 992.5,-55 992.5,-74"/>
<text text-anchor="middle" x="935.5" y="-62" font-family="Helvetica,sans-Serif" font-size="10.00">AS5047U_types.hpp</text>
</a>
</g>
</g>
<!-- Node7&#45;&gt;Node19 -->
<g id="edge20_Node000007_Node000019" class="edge">
<title>Node7&#45;&gt;Node19</title>
<g id="a_edge20_Node000007_Node000019"><a xlink:title=" ">
<path fill="none" stroke="#63b8ff" d="M797.56,-164.93C842.92,-157.47 899.39,-145.28 916.5,-129 928.6,-117.48 933.09,-98.61 934.71,-84.42"/>
<polygon fill="#63b8ff" stroke="#63b8ff" points="938.21,-84.52 935.48,-74.28 931.23,-83.99 938.21,-84.52"/>
</a>
</g>
</g>
<!-- Node20 -->
<g id="Node000020" class="node">
<title>Node20</title>
<g id="a_Node000020"><a xlink:href="AS5047U__config_8hpp.html" target="_top" xlink:title=" ">
<polygon fill="white" stroke="#666666" points="1079.5,-129 963.5,-129 963.5,-110 1079.5,-110 1079.5,-129"/>
<text text-anchor="middle" x="1021.5" y="-117" font-family="Helvetica,sans-Serif" font-size="10.00">AS5047U_config.hpp</text>
</a>
</g>
</g>
<!-- Node7&#45;&gt;Node20 -->
<g id="edge22_Node000007_Node000020" class="edge">
<title>Node7&#45;&gt;Node20</title>
<g id="a_edge22_Node000007_Node000020"><a xlink:title=" ">
<path fill="none" stroke="#63b8ff" d="M781.45,-164.98C831.44,-155.72 911.39,-140.9 965.14,-130.94"/>
<polygon fill="#63b8ff" stroke="#63b8ff" points="965.99,-134.35 975.19,-129.08 964.72,-127.46 965.99,-134.35"/>
</a>
</g>
</g>
<!-- Node9 -->
<g id="Node000009" class="node">
<title>Node9</title>
<g id="a_Node000009"><a xlink:title=" ">
<polygon fill="#e0e0e0" stroke="#999999" points="554,-74 501,-74 501,-55 554,-55 554,-74"/>
<text text-anchor="middle" x="527.5" y="-62" font-family="Helvetica,sans-Serif" font-size="10.00">cstddef</text>
</a>
</g>
</g>
<!-- Node8&#45;&gt;Node9 -->
<g id="edge8_Node000008_Node000009" class="edge">
<title>Node8&#45;&gt;Node9</title>
<g id="a_edge8_Node000008_Node000009"><a xlink:title=" ">
<path fill="none" stroke="#63b8ff" d="M481.58,-109.75C489.59,-102.03 501.46,-90.6 511.12,-81.28"/>
<polygon fill="#63b8ff" stroke="#63b8ff" points="513.81,-83.55 518.59,-74.09 508.96,-78.51 513.81,-83.55"/>
</a>
</g>
</g>
<!-- Node8&#45;&gt;Node10 -->
<g id="edge9_Node000008_Node000010" class="edge">
<title>Node8&#45;&gt;Node10</title>
<g id="a_edge9_Node000008_Node000010"><a xlink:title=" ">
<path fill="none" stroke="#63b8ff" d="M472.31,-109.95C472.52,-96.06 475.13,-68.79 491.5,-55 541.58,-12.83 743.71,-9.52 826.19,-9.99"/>
<polygon fill="#63b8ff" stroke="#63b8ff" points="826.3,-13.49 836.33,-10.07 826.35,-6.49 826.3,-13.49"/>
</a>
</g>
</g>
<!-- Node11&#45;&gt;Node10 -->
<g id="edge11_Node000011_Node000010" class="edge">
<title>Node11&#45;&gt;Node10</title>
<g id="a_edge11_Node000011_Node000010"><a xlink:title=" ">
<path fill="none" stroke="#63b8ff" d="M738.96,-54.98C763.08,-46.23 800.87,-32.51 828.1,-22.62"/>
<polygon fill="#63b8ff" stroke="#63b8ff" points="829.41,-25.87 837.62,-19.17 827.02,-19.29 829.41,-25.87"/>
</a>
</g>
</g>
<!-- Node19&#45;&gt;Node10 -->
<g id="edge21_Node000019_Node000010" class="edge">
<title>Node19&#45;&gt;Node10</title>
<g id="a_edge21_Node000019_Node000010"><a xlink:title=" ">
<path fill="none" stroke="#63b8ff" d="M923.61,-54.98C912.35,-46.92 895.21,-34.65 881.79,-25.03"/>
<polygon fill="#63b8ff" stroke="#63b8ff" points="883.77,-22.15 873.61,-19.17 879.7,-27.84 883.77,-22.15"/>
</a>
</g>
</g>
<!-- Node20&#45;&gt;Node10 -->
<g id="edge23_Node000020_Node000010" class="edge">
<title>Node20&#45;&gt;Node10</title>
<g id="a_edge23_Node000020_Node000010"><a xlink:title=" ">
<path fill="none" stroke="#63b8ff" d="M1021.21,-109.83C1020.28,-96.27 1016.52,-70.06 1001.5,-55 973.59,-27.01 928.16,-16.6 896.66,-12.75"/>
<polygon fill="#63b8ff" stroke="#63b8ff" points="896.86,-9.25 886.55,-11.67 896.13,-16.21 896.86,-9.25"/>
</a>
</g>
</g>
<!-- Node20&#45;&gt;Node19 -->
<g id="edge24_Node000020_Node000019" class="edge">
<title>Node20&#45;&gt;Node19</title>
<g id="a_edge24_Node000020_Node000019"><a xlink:title=" ">
<path fill="none" stroke="#63b8ff" d="M1007.68,-109.98C994.35,-101.77 973.92,-89.18 958.19,-79.49"/>
<polygon fill="#63b8ff" stroke="#63b8ff" points="959.92,-76.44 949.57,-74.17 956.25,-82.4 959.92,-76.44"/>
</a>
</g>
</g>
<!-- Node21&#45;&gt;Node2 -->
<g id="edge29_Node000021_Node000002" class="edge">
<title>Node21&#45;&gt;Node2</title>
<g id="a_edge29_Node000021_Node000002"><a xlink:title=" ">
<path fill="none" stroke="#63b8ff" d="M261.88,-164.97C216.38,-156.58 144.93,-143.26 73.37,-129.14"/>
<polygon fill="#63b8ff" stroke="#63b8ff" points="73.76,-125.65 63.27,-127.15 72.4,-132.52 73.76,-125.65"/>
</a>
</g>
</g>
<!-- Node21&#45;&gt;Node5 -->
<g id="edge31_Node000021_Node000005" class="edge">
<title>Node21&#45;&gt;Node5</title>
<g id="a_edge31_Node000021_Node000005"><a xlink:title=" ">
<path fill="none" stroke="#63b8ff" d="M276.69,-164.98C242.11,-155.73 186.84,-140.94 149.64,-130.98"/>
<polygon fill="#63b8ff" stroke="#63b8ff" points="150.22,-127.51 139.65,-128.3 148.41,-134.27 150.22,-127.51"/>
</a>
</g>
</g>
<!-- Node21&#45;&gt;Node8 -->
<g id="edge26_Node000021_Node000008" class="edge">
<title>Node21&#45;&gt;Node8</title>
<g id="a_edge26_Node000021_Node000008"><a xlink:title=" ">
<path fill="none" stroke="#63b8ff" d="M334.85,-164.98C362.26,-156.13 405.39,-142.19 436.06,-132.28"/>
<polygon fill="#63b8ff" stroke="#63b8ff" points="437.5,-135.49 445.94,-129.08 435.35,-128.83 437.5,-135.49"/>
</a>
</g>
</g>
<!-- Node21&#45;&gt;Node10 -->
<g id="edge30_Node000021_Node000010" class="edge">
<title>Node21&#45;&gt;Node10</title>
<g id="a_edge30_Node000021_Node000010"><a xlink:title=" ">
<path fill="none" stroke="#63b8ff" d="M321.29,-164.69C334.24,-155.76 354.82,-141.5 372.5,-129 418.53,-96.47 422.92,-75.32 475.5,-55 539.17,-30.39 743.41,-16.88 826.17,-12.3"/>
<polygon fill="#63b8ff" stroke="#63b8ff" points="826.54,-15.79 836.33,-11.75 826.16,-8.8 826.54,-15.79"/>
</a>
</g>
</g>
<!-- Node22 -->
<g id="Node000022" class="node">
<title>Node22</title>
<g id="a_Node000022"><a xlink:title=" ">
<polygon fill="#e0e0e0" stroke="#999999" points="235.5,-129 157.5,-129 157.5,-110 235.5,-110 235.5,-129"/>
<text text-anchor="middle" x="196.5" y="-117" font-family="Helvetica,sans-Serif" font-size="10.00">driver/gpio.h</text>
</a>
</g>
</g>
<!-- Node21&#45;&gt;Node22 -->
<g id="edge27_Node000021_Node000022" class="edge">
<title>Node21&#45;&gt;Node22</title>
<g id="a_edge27_Node000021_Node000022"><a xlink:title=" ">
<path fill="none" stroke="#63b8ff" d="M290.51,-164.98C272.57,-156.5 244.78,-143.35 224.07,-133.54"/>
<polygon fill="#63b8ff" stroke="#63b8ff" points="225.36,-130.28 214.82,-129.17 222.36,-136.61 225.36,-130.28"/>
</a>
</g>
</g>
<!-- Node23 -->
<g id="Node000023" class="node">
<title>Node23</title>
<g id="a_Node000023"><a xlink:title=" ">
<polygon fill="#e0e0e0" stroke="#999999" points="363.5,-129 253.5,-129 253.5,-110 363.5,-110 363.5,-129"/>
<text text-anchor="middle" x="308.5" y="-117" font-family="Helvetica,sans-Serif" font-size="10.00">driver/spi_master.h</text>
</a>
</g>
</g>
<!-- Node21&#45;&gt;Node23 -->
<g id="edge28_Node000021_Node000023" class="edge">
<title>Node21&#45;&gt;Node23</title>
<g id="a_edge28_Node000021_Node000023"><a xlink:title=" ">
<path fill="none" stroke="#63b8ff" d="M308.5,-164.75C308.5,-157.8 308.5,-147.85 308.5,-139.13"/>
<polygon fill="#63b8ff" stroke="#63b8ff" points="312,-139.09 308.5,-129.09 305,-139.09 312,-139.09"/>
</a>
</g>
</g>
</g>
</svg>
