<?xml version="1.0" encoding="UTF-8" standalone="no"?>
<!DOCTYPE svg PUBLIC "-//W3C//DTD SVG 1.1//EN"
 "http://www.w3.org/Graphics/SVG/1.1/DTD/svg11.dtd">
<!-- Generated by graphviz version 2.43.0 (0)
 -->
<!-- Title: examples/esp32/main/VelocityReadingExample.cpp Pages: 1 -->
<svg width="1092pt" height="313pt"
 viewBox="0.00 0.00 1091.50 313.00" xmlns="http://www.w3.org/2000/svg" xmlns:xlink="http://www.w3.org/1999/xlink">
<g id="graph0" class="graph" transform="scale(1 1) rotate(0) translate(4 309)">
<title>examples/esp32/main/VelocityReadingExample.cpp</title>
<!-- Node1 -->
<g id="Node000001" class="node">
<title>Node1</title>
<g id="a_Node000001"><a xlink:title="Velocity reading example with unit conversions.">
<polygon fill="#999999" stroke="#666666" points="288.5,-305 127.5,-305 127.5,-275 288.5,-275 288.5,-305"/>
<text text-anchor="start" x="135.5" y="-293" font-family="Helvetica,sans-Serif" font-size="10.00">examples/esp32/main</text>
<text text-anchor="middle" x="208" y="-282" font-family="Helvetica,sans-Serif" font-size="10.00">/VelocityReadingExample.cpp</text>
</a>
</g>
</g>
<!-- Node2 -->
<g id="Node000002" class="node">
<title>Node2</title>
<g id="a_Node000002"><a xlink:title=" ">
<polygon fill="#e0e0e0" stroke="#999999" points="50,-239 0,-239 0,-220 50,-220 50,-239"/>
<text text-anchor="middle" x="25" y="-227" font-family="Helvetica,sans-Serif" font-size="10.00">stdio.h</text>
</a>
</g>
</g>
<!-- Node1&#45;&gt;Node2 -->
<g id="edge1_Node000001_Node000002" class="edge">
<title>Node1&#45;&gt;Node2</title>
<g id="a_edge1_Node000001_Node000002"><a xlink:title=" ">
<path fill="none" stroke="#63b8ff" d="M164.17,-274.99C132.29,-264.8 89.71,-251.18 60.07,-241.71"/>
<polygon fill="#63b8ff" stroke="#63b8ff" points="60.76,-238.26 50.17,-238.55 58.63,-244.93 60.76,-238.26"/>
</a>
</g>
</g>
<!-- Node3 -->
<g id="Node000003" class="node">
<title>Node3</title>
<g id="a_Node000003"><a xlink:title=" ">
<polygon fill="#e0e0e0" stroke="#999999" points="66,-184 8,-184 8,-165 66,-165 66,-184"/>
<text text-anchor="middle" x="37" y="-172" font-family="Helvetica,sans-Serif" font-size="10.00">memory</text>
</a>
</g>
</g>
<!-- Node1&#45;&gt;Node3 -->
<g id="edge2_Node000001_Node000003" class="edge">
<title>Node1&#45;&gt;Node3</title>
<g id="a_edge2_Node000001_Node000003"><a xlink:title=" ">
<path fill="none" stroke="#63b8ff" d="M181.94,-274.88C164.64,-265.25 141.59,-251.95 122,-239 98.45,-223.43 72.63,-203.74 55.7,-190.45"/>
<polygon fill="#63b8ff" stroke="#63b8ff" points="57.73,-187.59 47.71,-184.13 53.39,-193.08 57.73,-187.59"/>
</a>
</g>
</g>
<!-- Node4 -->
<g id="Node000004" class="node">
<title>Node4</title>
<g id="a_Node000004"><a xlink:title=" ">
<polygon fill="#e0e0e0" stroke="#999999" points="441.5,-239 328.5,-239 328.5,-220 441.5,-220 441.5,-239"/>
<text text-anchor="middle" x="385" y="-227" font-family="Helvetica,sans-Serif" font-size="10.00">freertos/FreeRTOS.h</text>
</a>
</g>
</g>
<!-- Node1&#45;&gt;Node4 -->
<g id="edge3_Node000001_Node000004" class="edge">
<title>Node1&#45;&gt;Node4</title>
<g id="a_edge3_Node000001_Node000004"><a xlink:title=" ">
<path fill="none" stroke="#63b8ff" d="M250.4,-274.99C280.68,-264.98 320.95,-251.67 349.53,-242.22"/>
<polygon fill="#63b8ff" stroke="#63b8ff" points="350.72,-245.52 359.12,-239.05 348.53,-238.87 350.72,-245.52"/>
</a>
</g>
</g>
<!-- Node5 -->
<g id="Node000005" class="node">
<title>Node5</title>
<g id="a_Node000005"><a xlink:title=" ">
<polygon fill="#e0e0e0" stroke="#999999" points="548,-239 460,-239 460,-220 548,-220 548,-239"/>
<text text-anchor="middle" x="504" y="-227" font-family="Helvetica,sans-Serif" font-size="10.00">freertos/task.h</text>
</a>
</g>
</g>
<!-- Node1&#45;&gt;Node5 -->
<g id="edge4_Node000001_Node000005" class="edge">
<title>Node1&#45;&gt;Node5</title>
<g id="a_edge4_Node000001_Node000005"><a xlink:title=" ">
<path fill="none" stroke="#63b8ff" d="M278.9,-274.99C331.75,-264.54 402.8,-250.5 450.84,-241.01"/>
<polygon fill="#63b8ff" stroke="#63b8ff" points="451.59,-244.43 460.72,-239.05 450.23,-237.56 451.59,-244.43"/>
</a>
</g>
</g>
<!-- Node6 -->
<g id="Node000006" class="node">
<title>Node6</title>
<g id="a_Node000006"><a xlink:title=" ">
<polygon fill="#e0e0e0" stroke="#999999" points="147.5,-184 84.5,-184 84.5,-165 147.5,-165 147.5,-184"/>
<text text-anchor="middle" x="116" y="-172" font-family="Helvetica,sans-Serif" font-size="10.00">esp_log.h</text>
</a>
</g>
</g>
<!-- Node1&#45;&gt;Node6 -->
<g id="edge5_Node000001_Node000006" class="edge">
<title>Node1&#45;&gt;Node6</title>
<g id="a_edge5_Node000001_Node000006"><a xlink:title=" ">
<path fill="none" stroke="#63b8ff" d="M178.38,-274.89C163.43,-266.4 146.14,-254.26 135,-239 125.35,-225.78 120.56,-207.66 118.21,-194.16"/>
<polygon fill="#63b8ff" stroke="#63b8ff" points="121.65,-193.5 116.75,-184.11 114.72,-194.51 121.65,-193.5"/>
</a>
</g>
</g>
<!-- Node7 -->
<g id="Node000007" class="node">
<title>Node7</title>
<g id="a_Node000007"><a xlink:href="AS5047U_8hpp.html" target="_top" xlink:title="Driver for AMS AS5047U Magnetic Rotary Position Sensor (C++21).">
<polygon fill="white" stroke="#666666" points="638,-184 512,-184 512,-165 638,-165 638,-184"/>
<text text-anchor="middle" x="575" y="-172" font-family="Helvetica,sans-Serif" font-size="10.00">../../../inc/AS5047U.hpp</text>
</a>
</g>
</g>
<!-- Node1&#45;&gt;Node7 -->
<g id="edge6_Node000001_Node000007" class="edge">
<title>Node1&#45;&gt;Node7</title>
<g id="a_edge6_Node000001_Node000007"><a xlink:title=" ">
<path fill="none" stroke="#63b8ff" d="M228.73,-274.77C255.39,-256.72 300.45,-227.07 319,-220 378.18,-197.44 449.44,-186.25 501.74,-180.73"/>
<polygon fill="#63b8ff" stroke="#63b8ff" points="502.33,-184.19 511.93,-179.7 501.63,-177.22 502.33,-184.19"/>
</a>
</g>
</g>
<!-- Node20 -->
<g id="Node000020" class="node">
<title>Node20</title>
<g id="a_Node000020"><a xlink:href="Esp32As5047uBus_8hpp.html" target="_top" xlink:title="ESP32 SPI transport implementation for AS5047U driver.">
<polygon fill="white" stroke="#666666" points="271.5,-239 144.5,-239 144.5,-220 271.5,-220 271.5,-239"/>
<text text-anchor="middle" x="208" y="-227" font-family="Helvetica,sans-Serif" font-size="10.00">Esp32As5047uBus.hpp</text>
</a>
</g>
</g>
<!-- Node1&#45;&gt;Node20 -->
<g id="edge24_Node000001_Node000020" class="edge">
<title>Node1&#45;&gt;Node20</title>
<g id="a_edge24_Node000001_Node000020"><a xlink:title=" ">
<path fill="none" stroke="#63b8ff" d="M208,-274.84C208,-267.21 208,-257.7 208,-249.45"/>
<polygon fill="#63b8ff" stroke="#63b8ff" points="211.5,-249.27 208,-239.27 204.5,-249.27 211.5,-249.27"/>
</a>
</g>
</g>
<!-- Node8 -->
<g id="Node000008" class="node">
<title>Node8</title>
<g id="a_Node000008"><a xlink:href="AS5047U__REGISTERS_8hpp.html" target="_top" xlink:title="Register definitions for the AS5047U Rotary Position Sensor.">
<polygon fill="white" stroke="#666666" points="1083.5,-74 942.5,-74 942.5,-55 1083.5,-55 1083.5,-74"/>
<text text-anchor="middle" x="1013" y="-62" font-family="Helvetica,sans-Serif" font-size="10.00">AS5047U_REGISTERS.hpp</text>
</a>
</g>
</g>
<!-- Node7&#45;&gt;Node8 -->
<g id="edge7_Node000007_Node000008" class="edge">
<title>Node7&#45;&gt;Node8</title>
<g id="a_edge7_Node000007_Node000008"><a xlink:title=" ">
<path fill="none" stroke="#63b8ff" d="M638.05,-169.43C725,-163.16 876.8,-149.66 928,-129 955.06,-118.08 981.17,-96.37 997.15,-81.39"/>
<polygon fill="#63b8ff" stroke="#63b8ff" points="999.77,-83.73 1004.54,-74.27 994.91,-78.69 999.77,-83.73"/>
</a>
</g>
</g>
<!-- Node9 -->
<g id="Node000009" class="node">
<title>Node9</title>
<g id="a_Node000009"><a xlink:title=" ">
<polygon fill="#e0e0e0" stroke="#999999" points="390,-19 340,-19 340,0 390,0 390,-19"/>
<text text-anchor="middle" x="365" y="-7" font-family="Helvetica,sans-Serif" font-size="10.00">cstdint</text>
</a>
</g>
</g>
<!-- Node7&#45;&gt;Node9 -->
<g id="edge14_Node000007_Node000009" class="edge">
<title>Node7&#45;&gt;Node9</title>
<g id="a_edge14_Node000007_Node000009"><a xlink:title=" ">
<path fill="none" stroke="#63b8ff" d="M638.3,-174.1C721.91,-173.38 862.41,-166.44 895,-129 900.54,-122.63 896.85,-118.24 895,-110 889.08,-83.62 891.18,-70.46 869,-55 830.68,-28.3 508.21,-15.25 400.14,-11.6"/>
<polygon fill="#63b8ff" stroke="#63b8ff" points="400.18,-8.1 390.07,-11.26 399.95,-15.09 400.18,-8.1"/>
</a>
</g>
</g>
<!-- Node10 -->
<g id="Node000010" class="node">
<title>Node10</title>
<g id="a_Node000010"><a xlink:title=" ">
<polygon fill="#e0e0e0" stroke="#999999" points="440,-129 376,-129 376,-110 440,-110 440,-129"/>
<text text-anchor="middle" x="408" y="-117" font-family="Helvetica,sans-Serif" font-size="10.00">algorithm</text>
</a>
</g>
</g>
<!-- Node7&#45;&gt;Node10 -->
<g id="edge9_Node000007_Node000010" class="edge">
<title>Node7&#45;&gt;Node10</title>
<g id="a_edge9_Node000007_Node000010"><a xlink:title=" ">
<path fill="none" stroke="#63b8ff" d="M548.17,-164.98C520.13,-156.09 475.95,-142.07 444.7,-132.15"/>
<polygon fill="#63b8ff" stroke="#63b8ff" points="445.63,-128.77 435.04,-129.08 443.51,-135.44 445.63,-128.77"/>
</a>
</g>
</g>
<!-- Node11 -->
<g id="Node000011" class="node">
<title>Node11</title>
<g id="a_Node000011"><a xlink:title=" ">
<polygon fill="#e0e0e0" stroke="#999999" points="500,-129 458,-129 458,-110 500,-110 500,-129"/>
<text text-anchor="middle" x="479" y="-117" font-family="Helvetica,sans-Serif" font-size="10.00">array</text>
</a>
</g>
</g>
<!-- Node7&#45;&gt;Node11 -->
<g id="edge10_Node000007_Node000011" class="edge">
<title>Node7&#45;&gt;Node11</title>
<g id="a_edge10_Node000007_Node000011"><a xlink:title=" ">
<path fill="none" stroke="#63b8ff" d="M559.58,-164.98C544.55,-156.69 521.46,-143.94 503.84,-134.22"/>
<polygon fill="#63b8ff" stroke="#63b8ff" points="505.15,-130.94 494.7,-129.17 501.77,-137.07 505.15,-130.94"/>
</a>
</g>
</g>
<!-- Node12 -->
<g id="Node000012" class="node">
<title>Node12</title>
<g id="a_Node000012"><a xlink:title=" ">
<polygon fill="#e0e0e0" stroke="#999999" points="568,-129 518,-129 518,-110 568,-110 568,-129"/>
<text text-anchor="middle" x="543" y="-117" font-family="Helvetica,sans-Serif" font-size="10.00">atomic</text>
</a>
</g>
</g>
<!-- Node7&#45;&gt;Node12 -->
<g id="edge11_Node000007_Node000012" class="edge">
<title>Node7&#45;&gt;Node12</title>
<g id="a_edge11_Node000007_Node000012"><a xlink:title=" ">
<path fill="none" stroke="#63b8ff" d="M569.72,-164.75C565.29,-157.42 558.84,-146.73 553.38,-137.7"/>
<polygon fill="#63b8ff" stroke="#63b8ff" points="556.35,-135.84 548.19,-129.09 550.36,-139.46 556.35,-135.84"/>
</a>
</g>
</g>
<!-- Node13 -->
<g id="Node000013" class="node">
<title>Node13</title>
<g id="a_Node000013"><a xlink:title=" ">
<polygon fill="#e0e0e0" stroke="#999999" points="630,-129 586,-129 586,-110 630,-110 630,-129"/>
<text text-anchor="middle" x="608" y="-117" font-family="Helvetica,sans-Serif" font-size="10.00">bitset</text>
</a>
</g>
</g>
<!-- Node7&#45;&gt;Node13 -->
<g id="edge12_Node000007_Node000013" class="edge">
<title>Node7&#45;&gt;Node13</title>
<g id="a_edge12_Node000007_Node000013"><a xlink:title=" ">
<path fill="none" stroke="#63b8ff" d="M580.45,-164.75C585.01,-157.42 591.67,-146.73 597.29,-137.7"/>
<polygon fill="#63b8ff" stroke="#63b8ff" points="600.34,-139.43 602.65,-129.09 594.4,-135.73 600.34,-139.43"/>
</a>
</g>
</g>
<!-- Node14 -->
<g id="Node000014" class="node">
<title>Node14</title>
<g id="a_Node000014"><a xlink:title=" ">
<polygon fill="#e0e0e0" stroke="#999999" points="695.5,-129 648.5,-129 648.5,-110 695.5,-110 695.5,-129"/>
<text text-anchor="middle" x="672" y="-117" font-family="Helvetica,sans-Serif" font-size="10.00">cmath</text>
</a>
</g>
</g>
<!-- Node7&#45;&gt;Node14 -->
<g id="edge13_Node000007_Node000014" class="edge">
<title>Node7&#45;&gt;Node14</title>
<g id="a_edge13_Node000007_Node000014"><a xlink:title=" ">
<path fill="none" stroke="#63b8ff" d="M590.58,-164.98C605.77,-156.69 629.1,-143.94 646.9,-134.22"/>
<polygon fill="#63b8ff" stroke="#63b8ff" points="649.03,-137.04 656.13,-129.17 645.68,-130.89 649.03,-137.04"/>
</a>
</g>
</g>
<!-- Node15 -->
<g id="Node000015" class="node">
<title>Node15</title>
<g id="a_Node000015"><a xlink:title=" ">
<polygon fill="#e0e0e0" stroke="#999999" points="760,-129 714,-129 714,-110 760,-110 760,-129"/>
<text text-anchor="middle" x="737" y="-117" font-family="Helvetica,sans-Serif" font-size="10.00">cstdio</text>
</a>
</g>
</g>
<!-- Node7&#45;&gt;Node15 -->
<g id="edge15_Node000007_Node000015" class="edge">
<title>Node7&#45;&gt;Node15</title>
<g id="a_edge15_Node000007_Node000015"><a xlink:title=" ">
<path fill="none" stroke="#63b8ff" d="M601.03,-164.98C629.07,-155.81 673.76,-141.19 704.19,-131.23"/>
<polygon fill="#63b8ff" stroke="#63b8ff" points="705.51,-134.49 713.92,-128.05 703.33,-127.83 705.51,-134.49"/>
</a>
</g>
</g>
<!-- Node16 -->
<g id="Node000016" class="node">
<title>Node16</title>
<g id="a_Node000016"><a xlink:href="AS5047U__types_8hpp.html" target="_top" xlink:title="Type definitions for the AS5047U driver.">
<polygon fill="white" stroke="#666666" points="337,-74 223,-74 223,-55 337,-55 337,-74"/>
<text text-anchor="middle" x="280" y="-62" font-family="Helvetica,sans-Serif" font-size="10.00">AS5047U_types.hpp</text>
</a>
</g>
</g>
<!-- Node7&#45;&gt;Node16 -->
<g id="edge16_Node000007_Node000016" class="edge">
<title>Node7&#45;&gt;Node16</title>
<g id="a_edge16_Node000007_Node000016"><a xlink:title=" ">
<path fill="none" stroke="#63b8ff" d="M511.84,-169.73C418.07,-163.48 251.08,-149.58 233,-129 219,-113.06 239.08,-93.2 257.16,-79.97"/>
<polygon fill="#63b8ff" stroke="#63b8ff" points="259.49,-82.63 265.72,-74.06 255.51,-76.87 259.49,-82.63"/>
</a>
</g>
</g>
<!-- Node17 -->
<g id="Node000017" class="node">
<title>Node17</title>
<g id="a_Node000017"><a xlink:href="AS5047U__config_8hpp.html" target="_top" xlink:title=" ">
<polygon fill="white" stroke="#666666" points="358,-129 242,-129 242,-110 358,-110 358,-129"/>
<text text-anchor="middle" x="300" y="-117" font-family="Helvetica,sans-Serif" font-size="10.00">AS5047U_config.hpp</text>
</a>
</g>
</g>
<!-- Node7&#45;&gt;Node17 -->
<g id="edge18_Node000007_Node000017" class="edge">
<title>Node7&#45;&gt;Node17</title>
<g id="a_edge18_Node000007_Node000017"><a xlink:title=" ">
<path fill="none" stroke="#63b8ff" d="M530.82,-164.98C482.85,-155.74 406.19,-140.97 354.52,-131.01"/>
<polygon fill="#63b8ff" stroke="#63b8ff" points="355.01,-127.54 344.53,-129.08 353.69,-134.41 355.01,-127.54"/>
</a>
</g>
</g>
<!-- Node18 -->
<g id="Node000018" class="node">
<title>Node18</title>
<g id="a_Node000018"><a xlink:href="AS5047U_8cpp.html" target="_top" xlink:title=" ">
<polygon fill="white" stroke="#666666" points="885.5,-129 778.5,-129 778.5,-110 885.5,-110 885.5,-129"/>
<text text-anchor="middle" x="832" y="-117" font-family="Helvetica,sans-Serif" font-size="10.00">../src/AS5047U.cpp</text>
</a>
</g>
</g>
<!-- Node7&#45;&gt;Node18 -->
<g id="edge21_Node000007_Node000018" class="edge">
<title>Node7&#45;&gt;Node18</title>
<g id="a_edge21_Node000007_Node000018"><a xlink:title=" ">
<path fill="none" stroke="#63b8ff" d="M611.18,-164.98C653.88,-155.76 725.18,-141.03 775.23,-131.07"/>
<polygon fill="#63b8ff" stroke="#63b8ff" points="776.13,-134.46 785.26,-129.08 774.77,-127.59 776.13,-134.46"/>
</a>
</g>
</g>
<!-- Node8&#45;&gt;Node9 -->
<g id="edge8_Node000008_Node000009" class="edge">
<title>Node8&#45;&gt;Node9</title>
<g id="a_edge8_Node000008_Node000009"><a xlink:title=" ">
<path fill="none" stroke="#63b8ff" d="M942.05,-56.29C937.3,-55.85 932.58,-55.41 928,-55 728.58,-37.15 489.09,-19.46 400.33,-13.04"/>
<polygon fill="#63b8ff" stroke="#63b8ff" points="400.49,-9.54 390.27,-12.31 399.99,-16.52 400.49,-9.54"/>
</a>
</g>
</g>
<!-- Node16&#45;&gt;Node9 -->
<g id="edge17_Node000016_Node000009" class="edge">
<title>Node16&#45;&gt;Node9</title>
<g id="a_edge17_Node000016_Node000009"><a xlink:title=" ">
<path fill="none" stroke="#63b8ff" d="M293.66,-54.98C306.84,-46.77 327.03,-34.18 342.57,-24.49"/>
<polygon fill="#63b8ff" stroke="#63b8ff" points="344.46,-27.43 351.09,-19.17 340.76,-21.49 344.46,-27.43"/>
</a>
</g>
</g>
<!-- Node17&#45;&gt;Node9 -->
<g id="edge19_Node000017_Node000009" class="edge">
<title>Node17&#45;&gt;Node9</title>
<g id="a_edge19_Node000017_Node000009"><a xlink:title=" ">
<path fill="none" stroke="#63b8ff" d="M311.85,-109.9C322.27,-101.75 337.11,-88.62 346,-74 354.41,-60.17 359.31,-42.38 362.02,-29.14"/>
<polygon fill="#63b8ff" stroke="#63b8ff" points="365.47,-29.75 363.82,-19.29 358.58,-28.5 365.47,-29.75"/>
</a>
</g>
</g>
<!-- Node17&#45;&gt;Node16 -->
<g id="edge20_Node000017_Node000016" class="edge">
<title>Node17&#45;&gt;Node16</title>
<g id="a_edge20_Node000017_Node000016"><a xlink:title=" ">
<path fill="none" stroke="#63b8ff" d="M296.7,-109.75C294.02,-102.65 290.15,-92.4 286.81,-83.56"/>
<polygon fill="#63b8ff" stroke="#63b8ff" points="290.05,-82.21 283.24,-74.09 283.5,-84.68 290.05,-82.21"/>
</a>
</g>
</g>
<!-- Node18&#45;&gt;Node7 -->
<g id="edge22_Node000018_Node000007" class="edge">
<title>Node18&#45;&gt;Node7</title>
<g id="a_edge22_Node000018_Node000007"><a xlink:title=" ">
<path fill="none" stroke="#63b8ff" d="M795.51,-129.08C752.68,-138.33 681.36,-153.07 631.41,-163"/>
<polygon fill="#63b8ff" stroke="#63b8ff" points="630.54,-159.61 621.41,-164.98 631.9,-166.47 630.54,-159.61"/>
</a>
</g>
</g>
<!-- Node19 -->
<g id="Node000019" class="node">
<title>Node19</title>
<g id="a_Node000019"><a xlink:title=" ">
<polygon fill="#e0e0e0" stroke="#999999" points="860,-74 804,-74 804,-55 860,-55 860,-74"/>
<text text-anchor="middle" x="832" y="-62" font-family="Helvetica,sans-Serif" font-size="10.00">iomanip</text>
</a>
</g>
</g>
<!-- Node18&#45;&gt;Node19 -->
<g id="edge23_Node000018_Node000019" class="edge">
<title>Node18&#45;&gt;Node19</title>
<g id="a_edge23_Node000018_Node000019"><a xlink:title=" ">
<path fill="none" stroke="#63b8ff" d="M832,-109.75C832,-102.8 832,-92.85 832,-84.13"/>
<polygon fill="#63b8ff" stroke="#63b8ff" points="835.5,-84.09 832,-74.09 828.5,-84.09 835.5,-84.09"/>
</a>
</g>
</g>
<!-- Node20&#45;&gt;Node3 -->
<g id="edge30_Node000020_Node000003" class="edge">
<title>Node20&#45;&gt;Node3</title>
<g id="a_edge30_Node000020_Node000003"><a xlink:title=" ">
<path fill="none" stroke="#63b8ff" d="M180.53,-219.98C151.82,-211.09 106.58,-197.07 74.58,-187.15"/>
<polygon fill="#63b8ff" stroke="#63b8ff" points="75.28,-183.7 64.69,-184.08 73.2,-190.39 75.28,-183.7"/>
</a>
</g>
</g>
<!-- Node20&#45;&gt;Node6 -->
<g id="edge28_Node000020_Node000006" class="edge">
<title>Node20&#45;&gt;Node6</title>
<g id="a_edge28_Node000020_Node000006"><a xlink:title=" ">
<path fill="none" stroke="#63b8ff" d="M193.22,-219.98C178.82,-211.69 156.69,-198.94 139.81,-189.22"/>
<polygon fill="#63b8ff" stroke="#63b8ff" points="141.46,-186.13 131.05,-184.17 137.97,-192.19 141.46,-186.13"/>
</a>
</g>
</g>
<!-- Node20&#45;&gt;Node7 -->
<g id="edge25_Node000020_Node000007" class="edge">
<title>Node20&#45;&gt;Node7</title>
<g id="a_edge25_Node000020_Node000007"><a xlink:title=" ">
<path fill="none" stroke="#63b8ff" d="M266.96,-219.98C332.14,-210.57 437.01,-195.43 505.97,-185.47"/>
<polygon fill="#63b8ff" stroke="#63b8ff" points="506.48,-188.93 515.88,-184.04 505.48,-182 506.48,-188.93"/>
</a>
</g>
</g>
<!-- Node20&#45;&gt;Node9 -->
<g id="edge29_Node000020_Node000009" class="edge">
<title>Node20&#45;&gt;Node9</title>
<g id="a_edge29_Node000020_Node000009"><a xlink:title=" ">
<path fill="none" stroke="#63b8ff" d="M204.66,-219.8C201.45,-210.94 196.82,-196.75 195,-184 188.38,-137.75 201.89,-68.6 214,-55 243.16,-22.26 295.06,-13.08 329.76,-10.79"/>
<polygon fill="#63b8ff" stroke="#63b8ff" points="330.11,-14.27 339.93,-10.28 329.76,-7.28 330.11,-14.27"/>
</a>
</g>
</g>
<!-- Node21 -->
<g id="Node000021" class="node">
<title>Node21</title>
<g id="a_Node000021"><a xlink:title=" ">
<polygon fill="#e0e0e0" stroke="#999999" points="314,-184 204,-184 204,-165 314,-165 314,-184"/>
<text text-anchor="middle" x="259" y="-172" font-family="Helvetica,sans-Serif" font-size="10.00">driver/spi_master.h</text>
</a>
</g>
</g>
<!-- Node20&#45;&gt;Node21 -->
<g id="edge26_Node000020_Node000021" class="edge">
<title>Node20&#45;&gt;Node21</title>
<g id="a_edge26_Node000020_Node000021"><a xlink:title=" ">
<path fill="none" stroke="#63b8ff" d="M216.42,-219.75C223.77,-212.11 234.63,-200.82 243.54,-191.56"/>
<polygon fill="#63b8ff" stroke="#63b8ff" points="246.32,-193.72 250.74,-184.09 241.28,-188.87 246.32,-193.72"/>
</a>
</g>
</g>
<!-- Node22 -->
<g id="Node000022" class="node">
<title>Node22</title>
<g id="a_Node000022"><a xlink:title=" ">
<polygon fill="#e0e0e0" stroke="#999999" points="410,-184 332,-184 332,-165 410,-165 410,-184"/>
<text text-anchor="middle" x="371" y="-172" font-family="Helvetica,sans-Serif" font-size="10.00">driver/gpio.h</text>
</a>
</g>
</g>
<!-- Node20&#45;&gt;Node22 -->
<g id="edge27_Node000020_Node000022" class="edge">
<title>Node20&#45;&gt;Node22</title>
<g id="a_edge27_Node000020_Node000022"><a xlink:title=" ">
<path fill="none" stroke="#63b8ff" d="M234.19,-219.98C261.44,-211.13 304.3,-197.19 334.78,-187.28"/>
<polygon fill="#63b8ff" stroke="#63b8ff" points="336.18,-190.5 344.61,-184.08 334.01,-183.85 336.18,-190.5"/>
</a>
</g>
</g>
</g>
</svg>
