<?xml version="1.0" encoding="UTF-8" standalone="no"?>
<!DOCTYPE svg PUBLIC "-//W3C//DTD SVG 1.1//EN"
 "http://www.w3.org/Graphics/SVG/1.1/DTD/svg11.dtd">
<!-- Generated by graphviz version 2.43.0 (0)
 -->
<!-- Title: inc/AS5047U.hpp Pages: 1 -->
<svg width="999pt" height="159pt"
 viewBox="0.00 0.00 998.50 159.00" xmlns="http://www.w3.org/2000/svg" xmlns:xlink="http://www.w3.org/1999/xlink">
<g id="graph0" class="graph" transform="scale(1 1) rotate(0) translate(4 155)">
<title>inc/AS5047U.hpp</title>
<!-- Node1 -->
<g id="Node000001" class="node">
<title>Node1</title>
<g id="a_Node000001"><a xlink:title="Driver for AMS AS5047U Magnetic Rotary Position Sensor (C++21).">
<polygon fill="#999999" stroke="#666666" points="574.5,-151 475.5,-151 475.5,-132 574.5,-132 574.5,-151"/>
<text text-anchor="middle" x="525" y="-139" font-family="Helvetica,sans-Serif" font-size="10.00">inc/AS5047U.hpp</text>
</a>
</g>
</g>
<!-- Node2 -->
<g id="Node000002" class="node">
<title>Node2</title>
<g id="a_Node000002"><a xlink:href="BasicAngleReadingExample_8cpp.html" target="_top" xlink:title="Basic angle reading example with diagnostics.">
<polygon fill="white" stroke="#666666" points="176,-30 0,-30 0,0 176,0 176,-30"/>
<text text-anchor="start" x="8" y="-18" font-family="Helvetica,sans-Serif" font-size="10.00">examples/esp32/main</text>
<text text-anchor="middle" x="88" y="-7" font-family="Helvetica,sans-Serif" font-size="10.00">/BasicAngleReadingExample.cpp</text>
</a>
</g>
</g>
<!-- Node1&#45;&gt;Node2 -->
<g id="edge1_Node000001_Node000002" class="edge">
<title>Node1&#45;&gt;Node2</title>
<g id="a_edge1_Node000001_Node000002"><a xlink:title=" ">
<path fill="none" stroke="#63b8ff" d="M485.26,-129.18C405.21,-106.37 224.78,-54.97 137.35,-30.06"/>
<polygon fill="#63b8ff" stroke="#63b8ff" points="484.39,-132.57 494.96,-131.94 486.3,-125.84 484.39,-132.57"/>
</a>
</g>
</g>
<!-- Node3 -->
<g id="Node000003" class="node">
<title>Node3</title>
<g id="a_Node000003"><a xlink:href="ConfigurationExample_8cpp.html" target="_top" xlink:title="Configuration example with ABI, UVW, and PWM setup.">
<polygon fill="white" stroke="#666666" points="342,-30 194,-30 194,0 342,0 342,-30"/>
<text text-anchor="start" x="202" y="-18" font-family="Helvetica,sans-Serif" font-size="10.00">examples/esp32/main</text>
<text text-anchor="middle" x="268" y="-7" font-family="Helvetica,sans-Serif" font-size="10.00">/ConfigurationExample.cpp</text>
</a>
</g>
</g>
<!-- Node1&#45;&gt;Node3 -->
<g id="edge2_Node000001_Node000003" class="edge">
<title>Node1&#45;&gt;Node3</title>
<g id="a_edge2_Node000001_Node000003"><a xlink:title=" ">
<path fill="none" stroke="#63b8ff" d="M498.09,-127.46C449.49,-103.92 347.47,-54.5 297.23,-30.16"/>
<polygon fill="#63b8ff" stroke="#63b8ff" points="496.81,-130.73 507.34,-131.94 499.86,-124.43 496.81,-130.73"/>
</a>
</g>
</g>
<!-- Node4 -->
<g id="Node000004" class="node">
<title>Node4</title>
<g id="a_Node000004"><a xlink:href="DriverIntegrationTest_8cpp.html" target="_top" xlink:title="Comprehensive Integration Test Suite for AS5047U Driver.">
<polygon fill="white" stroke="#666666" points="503.5,-30 360.5,-30 360.5,0 503.5,0 503.5,-30"/>
<text text-anchor="start" x="368.5" y="-18" font-family="Helvetica,sans-Serif" font-size="10.00">examples/esp32/main</text>
<text text-anchor="middle" x="432" y="-7" font-family="Helvetica,sans-Serif" font-size="10.00">/DriverIntegrationTest.cpp</text>
</a>
</g>
</g>
<!-- Node1&#45;&gt;Node4 -->
<g id="edge3_Node000001_Node000004" class="edge">
<title>Node1&#45;&gt;Node4</title>
<g id="a_edge3_Node000001_Node000004"><a xlink:title=" ">
<path fill="none" stroke="#63b8ff" d="M491.89,-127.66C477.33,-120.43 461.23,-110 451,-96 436.59,-76.29 432.96,-47.22 432.13,-30.08"/>
<polygon fill="#63b8ff" stroke="#63b8ff" points="490.62,-130.93 501.17,-131.96 493.57,-124.58 490.62,-130.93"/>
</a>
</g>
</g>
<!-- Node5 -->
<g id="Node000005" class="node">
<title>Node5</title>
<g id="a_Node000005"><a xlink:href="Esp32As5047uBus_8hpp.html" target="_top" xlink:title="ESP32 SPI transport implementation for AS5047U driver.">
<polygon fill="white" stroke="#666666" points="590,-96 460,-96 460,-66 590,-66 590,-96"/>
<text text-anchor="start" x="468" y="-84" font-family="Helvetica,sans-Serif" font-size="10.00">examples/esp32/main</text>
<text text-anchor="middle" x="525" y="-73" font-family="Helvetica,sans-Serif" font-size="10.00">/Esp32As5047uBus.hpp</text>
</a>
</g>
</g>
<!-- Node1&#45;&gt;Node5 -->
<g id="edge4_Node000001_Node000005" class="edge">
<title>Node1&#45;&gt;Node5</title>
<g id="a_edge4_Node000001_Node000005"><a xlink:title=" ">
<path fill="none" stroke="#63b8ff" d="M525,-121.65C525,-113.36 525,-103.78 525,-96.11"/>
<polygon fill="#63b8ff" stroke="#63b8ff" points="521.5,-121.87 525,-131.87 528.5,-121.87 521.5,-121.87"/>
</a>
</g>
</g>
<!-- Node7 -->
<g id="Node000007" class="node">
<title>Node7</title>
<g id="a_Node000007"><a xlink:href="FullFeaturesExample_8cpp.html" target="_top" xlink:title="Comprehensive example demonstrating all AS5047U features.">
<polygon fill="white" stroke="#666666" points="811,-30 669,-30 669,0 811,0 811,-30"/>
<text text-anchor="start" x="677" y="-18" font-family="Helvetica,sans-Serif" font-size="10.00">examples/esp32/main</text>
<text text-anchor="middle" x="740" y="-7" font-family="Helvetica,sans-Serif" font-size="10.00">/FullFeaturesExample.cpp</text>
</a>
</g>
</g>
<!-- Node1&#45;&gt;Node7 -->
<g id="edge11_Node000001_Node000007" class="edge">
<title>Node1&#45;&gt;Node7</title>
<g id="a_edge11_Node000001_Node000007"><a xlink:title=" ">
<path fill="none" stroke="#63b8ff" d="M548.83,-126.72C563.46,-118.13 582.49,-106.71 599,-96 618.55,-83.32 622.02,-77.99 642,-66 664.11,-52.73 690.15,-39.55 709.83,-30.06"/>
<polygon fill="#63b8ff" stroke="#63b8ff" points="546.79,-123.86 539.92,-131.93 550.32,-129.9 546.79,-123.86"/>
</a>
</g>
</g>
<!-- Node8 -->
<g id="Node000008" class="node">
<title>Node8</title>
<g id="a_Node000008"><a xlink:href="VelocityReadingExample_8cpp.html" target="_top" xlink:title="Velocity reading example with unit conversions.">
<polygon fill="white" stroke="#666666" points="990.5,-30 829.5,-30 829.5,0 990.5,0 990.5,-30"/>
<text text-anchor="start" x="837.5" y="-18" font-family="Helvetica,sans-Serif" font-size="10.00">examples/esp32/main</text>
<text text-anchor="middle" x="910" y="-7" font-family="Helvetica,sans-Serif" font-size="10.00">/VelocityReadingExample.cpp</text>
</a>
</g>
</g>
<!-- Node1&#45;&gt;Node8 -->
<g id="edge12_Node000001_Node000008" class="edge">
<title>Node1&#45;&gt;Node8</title>
<g id="a_edge12_Node000001_Node000008"><a xlink:title=" ">
<path fill="none" stroke="#63b8ff" d="M560.46,-128.52C582.28,-120.55 610.48,-109.14 634,-96 653.71,-84.98 654.39,-75.22 675,-66 702.27,-53.8 772.61,-39.6 829.27,-29.45"/>
<polygon fill="#63b8ff" stroke="#63b8ff" points="559.16,-125.27 550.92,-131.94 561.52,-131.86 559.16,-125.27"/>
</a>
</g>
</g>
<!-- Node9 -->
<g id="Node000009" class="node">
<title>Node9</title>
<g id="a_Node000009"><a xlink:href="AS5047U_8cpp.html" target="_top" xlink:title=" ">
<polygon fill="white" stroke="#666666" points="782,-90.5 684,-90.5 684,-71.5 782,-71.5 782,-90.5"/>
<text text-anchor="middle" x="733" y="-78.5" font-family="Helvetica,sans-Serif" font-size="10.00">src/AS5047U.cpp</text>
</a>
</g>
</g>
<!-- Node1&#45;&gt;Node9 -->
<g id="edge13_Node000001_Node000009" class="edge">
<title>Node1&#45;&gt;Node9</title>
<g id="a_edge13_Node000001_Node000009"><a xlink:title=" ">
<path fill="none" stroke="#63b8ff" d="M564.99,-129.25C605.22,-117.94 666.35,-100.75 702.72,-90.52"/>
<polygon fill="#63b8ff" stroke="#63b8ff" points="563.92,-125.92 555.24,-131.99 565.82,-132.66 563.92,-125.92"/>
</a>
</g>
</g>
<!-- Node5&#45;&gt;Node2 -->
<g id="edge5_Node000005_Node000002" class="edge">
<title>Node5&#45;&gt;Node2</title>
<g id="a_edge5_Node000005_Node000002"><a xlink:title=" ">
<path fill="none" stroke="#63b8ff" d="M449.6,-68.96C373.62,-57.83 256.43,-40.67 176.19,-28.92"/>
<polygon fill="#63b8ff" stroke="#63b8ff" points="449.18,-72.43 459.58,-70.42 450.19,-65.51 449.18,-72.43"/>
</a>
</g>
</g>
<!-- Node5&#45;&gt;Node3 -->
<g id="edge6_Node000005_Node000003" class="edge">
<title>Node5&#45;&gt;Node3</title>
<g id="a_edge6_Node000005_Node000003"><a xlink:title=" ">
<path fill="none" stroke="#63b8ff" d="M458.81,-63.52C417.13,-53.14 363.91,-39.88 324.27,-30.01"/>
<polygon fill="#63b8ff" stroke="#63b8ff" points="458.05,-66.93 468.6,-65.95 459.74,-60.14 458.05,-66.93"/>
</a>
</g>
</g>
<!-- Node5&#45;&gt;Node4 -->
<g id="edge7_Node000005_Node000004" class="edge">
<title>Node5&#45;&gt;Node4</title>
<g id="a_edge7_Node000005_Node000004"><a xlink:title=" ">
<path fill="none" stroke="#63b8ff" d="M495.98,-60.03C481.91,-50.34 465.33,-38.94 452.58,-30.16"/>
<polygon fill="#63b8ff" stroke="#63b8ff" points="494.14,-63.01 504.36,-65.8 498.11,-57.24 494.14,-63.01"/>
</a>
</g>
</g>
<!-- Node6 -->
<g id="Node000006" class="node">
<title>Node6</title>
<g id="a_Node000006"><a xlink:href="Esp32As5047uBus_8cpp.html" target="_top" xlink:title="ESP32 SPI transport implementation for AS5047U driver.">
<polygon fill="white" stroke="#666666" points="650.5,-30 521.5,-30 521.5,0 650.5,0 650.5,-30"/>
<text text-anchor="start" x="529.5" y="-18" font-family="Helvetica,sans-Serif" font-size="10.00">examples/esp32/main</text>
<text text-anchor="middle" x="586" y="-7" font-family="Helvetica,sans-Serif" font-size="10.00">/Esp32As5047uBus.cpp</text>
</a>
</g>
</g>
<!-- Node5&#45;&gt;Node6 -->
<g id="edge8_Node000005_Node000006" class="edge">
<title>Node5&#45;&gt;Node6</title>
<g id="a_edge8_Node000005_Node000006"><a xlink:title=" ">
<path fill="none" stroke="#63b8ff" d="M545.62,-58.37C554.49,-49.06 564.61,-38.44 572.5,-30.16"/>
<polygon fill="#63b8ff" stroke="#63b8ff" points="542.9,-56.14 538.54,-65.8 547.97,-60.97 542.9,-56.14"/>
</a>
</g>
</g>
<!-- Node5&#45;&gt;Node7 -->
<g id="edge9_Node000005_Node000007" class="edge">
<title>Node5&#45;&gt;Node7</title>
<g id="a_edge9_Node000005_Node000007"><a xlink:title=" ">
<path fill="none" stroke="#63b8ff" d="M582.15,-62.99C616.74,-52.69 660.33,-39.72 692.93,-30.01"/>
<polygon fill="#63b8ff" stroke="#63b8ff" points="580.77,-59.75 572.18,-65.95 582.77,-66.46 580.77,-59.75"/>
</a>
</g>
</g>
<!-- Node5&#45;&gt;Node8 -->
<g id="edge10_Node000005_Node000008" class="edge">
<title>Node5&#45;&gt;Node8</title>
<g id="a_edge10_Node000005_Node000008"><a xlink:title=" ">
<path fill="none" stroke="#63b8ff" d="M600.22,-67.5C666.17,-56.53 761.79,-40.64 829.31,-29.41"/>
<polygon fill="#63b8ff" stroke="#63b8ff" points="599.6,-64.05 590.31,-69.14 600.75,-70.96 599.6,-64.05"/>
</a>
</g>
</g>
</g>
</svg>
