<?xml version="1.0" encoding="UTF-8" standalone="no"?>
<!DOCTYPE svg PUBLIC "-//W3C//DTD SVG 1.1//EN"
 "http://www.w3.org/Graphics/SVG/1.1/DTD/svg11.dtd">
<!-- Generated by graphviz version 2.43.0 (0)
 -->
<!-- Title: inc/AS5047U.hpp Pages: 1 -->
<svg width="1303pt" height="137pt"
 viewBox="0.00 0.00 1302.50 137.00" xmlns="http://www.w3.org/2000/svg" xmlns:xlink="http://www.w3.org/1999/xlink">
<g id="graph0" class="graph" transform="scale(1 1) rotate(0) translate(4 133)">
<title>inc/AS5047U.hpp</title>
<!-- Node1 -->
<g id="Node000001" class="node">
<title>Node1</title>
<g id="a_Node000001"><a xlink:title="Driver for AMS AS5047U Magnetic Rotary Position Sensor (C++21).">
<polygon fill="#999999" stroke="#666666" points="645,-129 546,-129 546,-110 645,-110 645,-129"/>
<text text-anchor="middle" x="595.5" y="-117" font-family="Helvetica,sans-Serif" font-size="10.00">inc/AS5047U.hpp</text>
</a>
</g>
</g>
<!-- Node2 -->
<g id="Node000002" class="node">
<title>Node2</title>
<g id="a_Node000002"><a xlink:href="as5047u__spi__interface_8hpp.html" target="_top" xlink:title="CRTP&#45;based SPI bus interface for AS5047U driver.">
<polygon fill="white" stroke="#666666" points="147,-74 0,-74 0,-55 147,-55 147,-74"/>
<text text-anchor="middle" x="73.5" y="-62" font-family="Helvetica,sans-Serif" font-size="10.00">as5047u_spi_interface.hpp</text>
</a>
</g>
</g>
<!-- Node1&#45;&gt;Node2 -->
<g id="edge1_Node000001_Node000002" class="edge">
<title>Node1&#45;&gt;Node2</title>
<g id="a_edge1_Node000001_Node000002"><a xlink:title=" ">
<path fill="none" stroke="#63b8ff" d="M545.92,-113.47C456.46,-104.38 267.15,-85.16 157.27,-74.01"/>
<polygon fill="#63b8ff" stroke="#63b8ff" points="157.52,-70.51 147.22,-72.98 156.81,-77.48 157.52,-70.51"/>
</a>
</g>
</g>
<!-- Node4 -->
<g id="Node000004" class="node">
<title>Node4</title>
<g id="a_Node000004"><a xlink:title=" ">
<polygon fill="#e0e0e0" stroke="#999999" points="299.5,-19 249.5,-19 249.5,0 299.5,0 299.5,-19"/>
<text text-anchor="middle" x="274.5" y="-7" font-family="Helvetica,sans-Serif" font-size="10.00">cstdint</text>
</a>
</g>
</g>
<!-- Node1&#45;&gt;Node4 -->
<g id="edge11_Node000001_Node000004" class="edge">
<title>Node1&#45;&gt;Node4</title>
<g id="a_edge11_Node000001_Node000004"><a xlink:title=" ">
<path fill="none" stroke="#63b8ff" d="M545.86,-116.63C443.71,-112.26 217.57,-99.77 194.5,-74 175.9,-53.23 210.33,-34.02 239.66,-22.29"/>
<polygon fill="#63b8ff" stroke="#63b8ff" points="241.23,-25.44 249.32,-18.6 238.73,-18.89 241.23,-25.44"/>
</a>
</g>
</g>
<!-- Node5 -->
<g id="Node000005" class="node">
<title>Node5</title>
<g id="a_Node000005"><a xlink:href="AS5047U__REGISTERS_8hpp.html" target="_top" xlink:title=" ">
<polygon fill="white" stroke="#666666" points="345,-74 204,-74 204,-55 345,-55 345,-74"/>
<text text-anchor="middle" x="274.5" y="-62" font-family="Helvetica,sans-Serif" font-size="10.00">AS5047U_REGISTERS.hpp</text>
</a>
</g>
</g>
<!-- Node1&#45;&gt;Node5 -->
<g id="edge4_Node000001_Node000005" class="edge">
<title>Node1&#45;&gt;Node5</title>
<g id="a_edge4_Node000001_Node000005"><a xlink:title=" ">
<path fill="none" stroke="#63b8ff" d="M545.7,-110.28C489.15,-100.94 396.85,-85.7 335.89,-75.64"/>
<polygon fill="#63b8ff" stroke="#63b8ff" points="336.45,-72.18 326.02,-74.01 335.31,-79.09 336.45,-72.18"/>
</a>
</g>
</g>
<!-- Node6 -->
<g id="Node000006" class="node">
<title>Node6</title>
<g id="a_Node000006"><a xlink:title=" ">
<polygon fill="#e0e0e0" stroke="#999999" points="427.5,-74 363.5,-74 363.5,-55 427.5,-55 427.5,-74"/>
<text text-anchor="middle" x="395.5" y="-62" font-family="Helvetica,sans-Serif" font-size="10.00">algorithm</text>
</a>
</g>
</g>
<!-- Node1&#45;&gt;Node6 -->
<g id="edge6_Node000001_Node000006" class="edge">
<title>Node1&#45;&gt;Node6</title>
<g id="a_edge6_Node000001_Node000006"><a xlink:title=" ">
<path fill="none" stroke="#63b8ff" d="M563.37,-109.98C529.25,-100.94 475.18,-86.62 437.67,-76.67"/>
<polygon fill="#63b8ff" stroke="#63b8ff" points="438.12,-73.17 427.55,-73.99 436.32,-79.94 438.12,-73.17"/>
</a>
</g>
</g>
<!-- Node7 -->
<g id="Node000007" class="node">
<title>Node7</title>
<g id="a_Node000007"><a xlink:title=" ">
<polygon fill="#e0e0e0" stroke="#999999" points="487.5,-74 445.5,-74 445.5,-55 487.5,-55 487.5,-74"/>
<text text-anchor="middle" x="466.5" y="-62" font-family="Helvetica,sans-Serif" font-size="10.00">array</text>
</a>
</g>
</g>
<!-- Node1&#45;&gt;Node7 -->
<g id="edge7_Node000001_Node000007" class="edge">
<title>Node1&#45;&gt;Node7</title>
<g id="a_edge7_Node000001_Node000007"><a xlink:title=" ">
<path fill="none" stroke="#63b8ff" d="M574.77,-109.98C553.74,-101.34 520.95,-87.87 496.96,-78.02"/>
<polygon fill="#63b8ff" stroke="#63b8ff" points="498.18,-74.73 487.6,-74.17 495.52,-81.21 498.18,-74.73"/>
</a>
</g>
</g>
<!-- Node8 -->
<g id="Node000008" class="node">
<title>Node8</title>
<g id="a_Node000008"><a xlink:title=" ">
<polygon fill="#e0e0e0" stroke="#999999" points="555.5,-74 505.5,-74 505.5,-55 555.5,-55 555.5,-74"/>
<text text-anchor="middle" x="530.5" y="-62" font-family="Helvetica,sans-Serif" font-size="10.00">atomic</text>
</a>
</g>
</g>
<!-- Node1&#45;&gt;Node8 -->
<g id="edge8_Node000001_Node000008" class="edge">
<title>Node1&#45;&gt;Node8</title>
<g id="a_edge8_Node000001_Node000008"><a xlink:title=" ">
<path fill="none" stroke="#63b8ff" d="M585.06,-109.98C575.35,-102.07 560.68,-90.11 549,-80.58"/>
<polygon fill="#63b8ff" stroke="#63b8ff" points="551.1,-77.78 541.13,-74.17 546.67,-83.2 551.1,-77.78"/>
</a>
</g>
</g>
<!-- Node9 -->
<g id="Node000009" class="node">
<title>Node9</title>
<g id="a_Node000009"><a xlink:title=" ">
<polygon fill="#e0e0e0" stroke="#999999" points="617.5,-74 573.5,-74 573.5,-55 617.5,-55 617.5,-74"/>
<text text-anchor="middle" x="595.5" y="-62" font-family="Helvetica,sans-Serif" font-size="10.00">bitset</text>
</a>
</g>
</g>
<!-- Node1&#45;&gt;Node9 -->
<g id="edge9_Node000001_Node000009" class="edge">
<title>Node1&#45;&gt;Node9</title>
<g id="a_edge9_Node000001_Node000009"><a xlink:title=" ">
<path fill="none" stroke="#63b8ff" d="M595.5,-109.75C595.5,-102.8 595.5,-92.85 595.5,-84.13"/>
<polygon fill="#63b8ff" stroke="#63b8ff" points="599,-84.09 595.5,-74.09 592,-84.09 599,-84.09"/>
</a>
</g>
</g>
<!-- Node10 -->
<g id="Node000010" class="node">
<title>Node10</title>
<g id="a_Node000010"><a xlink:title=" ">
<polygon fill="#e0e0e0" stroke="#999999" points="683,-74 636,-74 636,-55 683,-55 683,-74"/>
<text text-anchor="middle" x="659.5" y="-62" font-family="Helvetica,sans-Serif" font-size="10.00">cmath</text>
</a>
</g>
</g>
<!-- Node1&#45;&gt;Node10 -->
<g id="edge10_Node000001_Node000010" class="edge">
<title>Node1&#45;&gt;Node10</title>
<g id="a_edge10_Node000001_Node000010"><a xlink:title=" ">
<path fill="none" stroke="#63b8ff" d="M605.78,-109.98C615.34,-102.07 629.78,-90.11 641.28,-80.58"/>
<polygon fill="#63b8ff" stroke="#63b8ff" points="643.56,-83.24 649.03,-74.17 639.1,-77.85 643.56,-83.24"/>
</a>
</g>
</g>
<!-- Node11 -->
<g id="Node000011" class="node">
<title>Node11</title>
<g id="a_Node000011"><a xlink:title=" ">
<polygon fill="#e0e0e0" stroke="#999999" points="747.5,-74 701.5,-74 701.5,-55 747.5,-55 747.5,-74"/>
<text text-anchor="middle" x="724.5" y="-62" font-family="Helvetica,sans-Serif" font-size="10.00">cstdio</text>
</a>
</g>
</g>
<!-- Node1&#45;&gt;Node11 -->
<g id="edge12_Node000001_Node000011" class="edge">
<title>Node1&#45;&gt;Node11</title>
<g id="a_edge12_Node000001_Node000011"><a xlink:title=" ">
<path fill="none" stroke="#63b8ff" d="M616.23,-109.98C637.26,-101.34 670.05,-87.87 694.04,-78.02"/>
<polygon fill="#63b8ff" stroke="#63b8ff" points="695.48,-81.21 703.4,-74.17 692.82,-74.73 695.48,-81.21"/>
</a>
</g>
</g>
<!-- Node12 -->
<g id="Node000012" class="node">
<title>Node12</title>
<g id="a_Node000012"><a xlink:title=" ">
<polygon fill="#e0e0e0" stroke="#999999" points="831,-74 766,-74 766,-55 831,-55 831,-74"/>
<text text-anchor="middle" x="798.5" y="-62" font-family="Helvetica,sans-Serif" font-size="10.00">functional</text>
</a>
</g>
</g>
<!-- Node1&#45;&gt;Node12 -->
<g id="edge13_Node000001_Node000012" class="edge">
<title>Node1&#45;&gt;Node12</title>
<g id="a_edge13_Node000001_Node000012"><a xlink:title=" ">
<path fill="none" stroke="#63b8ff" d="M628.12,-109.98C662.89,-100.91 718.09,-86.49 756.19,-76.55"/>
<polygon fill="#63b8ff" stroke="#63b8ff" points="757.17,-79.91 765.97,-73.99 755.41,-73.13 757.17,-79.91"/>
</a>
</g>
</g>
<!-- Node13 -->
<g id="Node000013" class="node">
<title>Node13</title>
<g id="a_Node000013"><a xlink:href="AS5047U__types_8hpp.html" target="_top" xlink:title=" ">
<polygon fill="white" stroke="#666666" points="963.5,-74 849.5,-74 849.5,-55 963.5,-55 963.5,-74"/>
<text text-anchor="middle" x="906.5" y="-62" font-family="Helvetica,sans-Serif" font-size="10.00">AS5047U_types.hpp</text>
</a>
</g>
</g>
<!-- Node1&#45;&gt;Node13 -->
<g id="edge14_Node000001_Node000013" class="edge">
<title>Node1&#45;&gt;Node13</title>
<g id="a_edge14_Node000001_Node000013"><a xlink:title=" ">
<path fill="none" stroke="#63b8ff" d="M645.12,-110.04C699.8,-100.72 787.75,-85.74 846.32,-75.76"/>
<polygon fill="#63b8ff" stroke="#63b8ff" points="847.27,-79.14 856.54,-74.01 846.09,-72.24 847.27,-79.14"/>
</a>
</g>
</g>
<!-- Node14 -->
<g id="Node000014" class="node">
<title>Node14</title>
<g id="a_Node000014"><a xlink:href="AS5047U__config_8hpp.html" target="_top" xlink:title=" ">
<polygon fill="white" stroke="#666666" points="1097.5,-74 981.5,-74 981.5,-55 1097.5,-55 1097.5,-74"/>
<text text-anchor="middle" x="1039.5" y="-62" font-family="Helvetica,sans-Serif" font-size="10.00">AS5047U_config.hpp</text>
</a>
</g>
</g>
<!-- Node1&#45;&gt;Node14 -->
<g id="edge16_Node000001_Node000014" class="edge">
<title>Node1&#45;&gt;Node14</title>
<g id="a_edge16_Node000001_Node000014"><a xlink:title=" ">
<path fill="none" stroke="#63b8ff" d="M645.22,-112.77C715.45,-104.65 848.01,-89.2 971.4,-74.13"/>
<polygon fill="#63b8ff" stroke="#63b8ff" points="971.9,-77.59 981.4,-72.9 971.05,-70.64 971.9,-77.59"/>
</a>
</g>
</g>
<!-- Node16 -->
<g id="Node000016" class="node">
<title>Node16</title>
<g id="a_Node000016"><a xlink:href="AS5047U_8cpp.html" target="_top" xlink:title=" ">
<polygon fill="white" stroke="#666666" points="1223,-74 1116,-74 1116,-55 1223,-55 1223,-74"/>
<text text-anchor="middle" x="1169.5" y="-62" font-family="Helvetica,sans-Serif" font-size="10.00">../src/AS5047U.cpp</text>
</a>
</g>
</g>
<!-- Node1&#45;&gt;Node16 -->
<g id="edge19_Node000001_Node000016" class="edge">
<title>Node1&#45;&gt;Node16</title>
<g id="a_edge19_Node000001_Node000016"><a xlink:title=" ">
<path fill="none" stroke="#63b8ff" d="M645.26,-114.95C735.03,-108.38 930.25,-93.3 1105.96,-74.01"/>
<polygon fill="#63b8ff" stroke="#63b8ff" points="1106.35,-77.48 1115.9,-72.91 1105.58,-70.53 1106.35,-77.48"/>
</a>
</g>
</g>
<!-- Node3 -->
<g id="Node000003" class="node">
<title>Node3</title>
<g id="a_Node000003"><a xlink:title=" ">
<polygon fill="#e0e0e0" stroke="#999999" points="100,-19 47,-19 47,0 100,0 100,-19"/>
<text text-anchor="middle" x="73.5" y="-7" font-family="Helvetica,sans-Serif" font-size="10.00">cstddef</text>
</a>
</g>
</g>
<!-- Node2&#45;&gt;Node3 -->
<g id="edge2_Node000002_Node000003" class="edge">
<title>Node2&#45;&gt;Node3</title>
<g id="a_edge2_Node000002_Node000003"><a xlink:title=" ">
<path fill="none" stroke="#63b8ff" d="M73.5,-54.75C73.5,-47.8 73.5,-37.85 73.5,-29.13"/>
<polygon fill="#63b8ff" stroke="#63b8ff" points="77,-29.09 73.5,-19.09 70,-29.09 77,-29.09"/>
</a>
</g>
</g>
<!-- Node2&#45;&gt;Node4 -->
<g id="edge3_Node000002_Node000004" class="edge">
<title>Node2&#45;&gt;Node4</title>
<g id="a_edge3_Node000002_Node000004"><a xlink:title=" ">
<path fill="none" stroke="#63b8ff" d="M105.79,-54.98C142.31,-45.36 201.58,-29.73 239.26,-19.79"/>
<polygon fill="#63b8ff" stroke="#63b8ff" points="240.51,-23.08 249.28,-17.15 238.72,-16.31 240.51,-23.08"/>
</a>
</g>
</g>
<!-- Node5&#45;&gt;Node4 -->
<g id="edge5_Node000005_Node000004" class="edge">
<title>Node5&#45;&gt;Node4</title>
<g id="a_edge5_Node000005_Node000004"><a xlink:title=" ">
<path fill="none" stroke="#63b8ff" d="M274.5,-54.75C274.5,-47.8 274.5,-37.85 274.5,-29.13"/>
<polygon fill="#63b8ff" stroke="#63b8ff" points="278,-29.09 274.5,-19.09 271,-29.09 278,-29.09"/>
</a>
</g>
</g>
<!-- Node13&#45;&gt;Node4 -->
<g id="edge15_Node000013_Node000004" class="edge">
<title>Node13&#45;&gt;Node4</title>
<g id="a_edge15_Node000013_Node000004"><a xlink:title=" ">
<path fill="none" stroke="#63b8ff" d="M849.14,-56.04C845.88,-55.67 842.65,-55.32 839.5,-55 639.4,-34.44 398.57,-18.34 309.67,-12.69"/>
<polygon fill="#63b8ff" stroke="#63b8ff" points="309.8,-9.19 299.6,-12.05 309.36,-16.17 309.8,-9.19"/>
</a>
</g>
</g>
<!-- Node14&#45;&gt;Node4 -->
<g id="edge17_Node000014_Node000004" class="edge">
<title>Node14&#45;&gt;Node4</title>
<g id="a_edge17_Node000014_Node000004"><a xlink:title=" ">
<path fill="none" stroke="#63b8ff" d="M981.42,-55.91C978.41,-55.58 975.42,-55.28 972.5,-55 718.86,-30.85 412.09,-16.39 309.68,-11.96"/>
<polygon fill="#63b8ff" stroke="#63b8ff" points="309.73,-8.46 299.59,-11.53 309.43,-15.46 309.73,-8.46"/>
</a>
</g>
</g>
<!-- Node15 -->
<g id="Node000015" class="node">
<title>Node15</title>
<g id="a_Node000015"><a xlink:title=" ">
<polygon fill="#e0e0e0" stroke="#999999" points="1095,-19 984,-19 984,0 1095,0 1095,-19"/>
<text text-anchor="middle" x="1039.5" y="-7" font-family="Helvetica,sans-Serif" font-size="10.00">as5047u_types.hpp</text>
</a>
</g>
</g>
<!-- Node14&#45;&gt;Node15 -->
<g id="edge18_Node000014_Node000015" class="edge">
<title>Node14&#45;&gt;Node15</title>
<g id="a_edge18_Node000014_Node000015"><a xlink:title=" ">
<path fill="none" stroke="#63b8ff" d="M1039.5,-54.75C1039.5,-47.8 1039.5,-37.85 1039.5,-29.13"/>
<polygon fill="#63b8ff" stroke="#63b8ff" points="1043,-29.09 1039.5,-19.09 1036,-29.09 1043,-29.09"/>
</a>
</g>
</g>
<!-- Node17 -->
<g id="Node000017" class="node">
<title>Node17</title>
<g id="a_Node000017"><a xlink:title=" ">
<polygon fill="#e0e0e0" stroke="#999999" points="1220,-19 1115,-19 1115,0 1220,0 1220,-19"/>
<text text-anchor="middle" x="1167.5" y="-7" font-family="Helvetica,sans-Serif" font-size="10.00">../inc/as5047u.hpp</text>
</a>
</g>
</g>
<!-- Node16&#45;&gt;Node17 -->
<g id="edge20_Node000016_Node000017" class="edge">
<title>Node16&#45;&gt;Node17</title>
<g id="a_edge20_Node000016_Node000017"><a xlink:title=" ">
<path fill="none" stroke="#63b8ff" d="M1169.17,-54.75C1168.91,-47.8 1168.53,-37.85 1168.2,-29.13"/>
<polygon fill="#63b8ff" stroke="#63b8ff" points="1171.7,-28.95 1167.82,-19.09 1164.7,-29.21 1171.7,-28.95"/>
</a>
</g>
</g>
<!-- Node18 -->
<g id="Node000018" class="node">
<title>Node18</title>
<g id="a_Node000018"><a xlink:title=" ">
<polygon fill="#e0e0e0" stroke="#999999" points="1294.5,-19 1238.5,-19 1238.5,0 1294.5,0 1294.5,-19"/>
<text text-anchor="middle" x="1266.5" y="-7" font-family="Helvetica,sans-Serif" font-size="10.00">iomanip</text>
</a>
</g>
</g>
<!-- Node16&#45;&gt;Node18 -->
<g id="edge21_Node000016_Node000018" class="edge">
<title>Node16&#45;&gt;Node18</title>
<g id="a_edge21_Node000016_Node000018"><a xlink:title=" ">
<path fill="none" stroke="#63b8ff" d="M1185.08,-54.98C1200.27,-46.69 1223.6,-33.94 1241.4,-24.22"/>
<polygon fill="#63b8ff" stroke="#63b8ff" points="1243.53,-27.04 1250.63,-19.17 1240.18,-20.89 1243.53,-27.04"/>
</a>
</g>
</g>
</g>
</svg>
