<?xml version="1.0" encoding="UTF-8" standalone="no"?>
<!DOCTYPE svg PUBLIC "-//W3C//DTD SVG 1.1//EN"
 "http://www.w3.org/Graphics/SVG/1.1/DTD/svg11.dtd">
<!-- Generated by graphviz version 2.43.0 (0)
 -->
<!-- Title: inc/as5047u_spi_interface.hpp Pages: 1 -->
<svg width="914pt" height="170pt"
 viewBox="0.00 0.00 914.00 170.00" xmlns="http://www.w3.org/2000/svg" xmlns:xlink="http://www.w3.org/1999/xlink">
<g id="graph0" class="graph" transform="scale(1 1) rotate(0) translate(4 166)">
<title>inc/as5047u_spi_interface.hpp</title>
<!-- Node1 -->
<g id="Node000001" class="node">
<title>Node1</title>
<g id="a_Node000001"><a xlink:title="CRTP&#45;based SPI bus interface for AS5047U driver.">
<polygon fill="#999999" stroke="#666666" points="566.5,-162 402.5,-162 402.5,-143 566.5,-143 566.5,-162"/>
<text text-anchor="middle" x="484.5" y="-150" font-family="Helvetica,sans-Serif" font-size="10.00">inc/as5047u_spi_interface.hpp</text>
</a>
</g>
</g>
<!-- Node2 -->
<g id="Node000002" class="node">
<title>Node2</title>
<g id="a_Node000002"><a xlink:href="esp32__as5047u__bus_8hpp.html" target="_top" xlink:title="ESP32 SPI transport implementation for AS5047U driver (header&#45;only)">
<polygon fill="white" stroke="#666666" points="486,-107 347,-107 347,-77 486,-77 486,-107"/>
<text text-anchor="start" x="355" y="-95" font-family="Helvetica,sans-Serif" font-size="10.00">examples/esp32/main</text>
<text text-anchor="middle" x="416.5" y="-84" font-family="Helvetica,sans-Serif" font-size="10.00">/esp32_as5047u_bus.hpp</text>
</a>
</g>
</g>
<!-- Node1&#45;&gt;Node2 -->
<g id="edge1_Node000001_Node000002" class="edge">
<title>Node1&#45;&gt;Node2</title>
<g id="a_edge1_Node000001_Node000002"><a xlink:title=" ">
<path fill="none" stroke="#63b8ff" d="M466.76,-136.23C456.29,-127.23 443.13,-115.91 432.91,-107.11"/>
<polygon fill="#63b8ff" stroke="#63b8ff" points="464.6,-139 474.47,-142.87 469.17,-133.69 464.6,-139"/>
</a>
</g>
</g>
<!-- Node8 -->
<g id="Node000008" class="node">
<title>Node8</title>
<g id="a_Node000008"><a xlink:href="as5047u_8hpp.html" target="_top" xlink:title="Driver for AMS AS5047U Magnetic Rotary Position Sensor (C++21).">
<polygon fill="white" stroke="#666666" points="605.5,-101.5 509.5,-101.5 509.5,-82.5 605.5,-82.5 605.5,-101.5"/>
<text text-anchor="middle" x="557.5" y="-89.5" font-family="Helvetica,sans-Serif" font-size="10.00">inc/as5047u.hpp</text>
</a>
</g>
</g>
<!-- Node1&#45;&gt;Node8 -->
<g id="edge7_Node000001_Node000008" class="edge">
<title>Node1&#45;&gt;Node8</title>
<g id="a_edge7_Node000001_Node000008"><a xlink:title=" ">
<path fill="none" stroke="#63b8ff" d="M503.17,-136.54C516.96,-125.49 535.24,-110.84 546.68,-101.67"/>
<polygon fill="#63b8ff" stroke="#63b8ff" points="500.89,-133.88 495.27,-142.87 505.26,-139.35 500.89,-133.88"/>
</a>
</g>
</g>
<!-- Node3 -->
<g id="Node000003" class="node">
<title>Node3</title>
<g id="a_Node000003"><a xlink:href="basic__angle__reading__example_8cpp.html" target="_top" xlink:title="Basic angle reading example with diagnostics.">
<polygon fill="white" stroke="#666666" points="312,-41 187,-41 187,0 312,0 312,-41"/>
<text text-anchor="start" x="195" y="-29" font-family="Helvetica,sans-Serif" font-size="10.00">examples/esp32/main</text>
<text text-anchor="start" x="195" y="-18" font-family="Helvetica,sans-Serif" font-size="10.00">/basic_angle_reading</text>
<text text-anchor="middle" x="249.5" y="-7" font-family="Helvetica,sans-Serif" font-size="10.00">_example.cpp</text>
</a>
</g>
</g>
<!-- Node2&#45;&gt;Node3 -->
<g id="edge2_Node000002_Node000003" class="edge">
<title>Node2&#45;&gt;Node3</title>
<g id="a_edge2_Node000002_Node000003"><a xlink:title=" ">
<path fill="none" stroke="#63b8ff" d="M373.33,-73.03C349.8,-63.24 320.64,-51.11 296.53,-41.07"/>
<polygon fill="#63b8ff" stroke="#63b8ff" points="372.13,-76.32 382.71,-76.94 374.82,-69.86 372.13,-76.32"/>
</a>
</g>
</g>
<!-- Node4 -->
<g id="Node000004" class="node">
<title>Node4</title>
<g id="a_Node000004"><a xlink:href="configuration__example_8cpp.html" target="_top" xlink:title="Configuration example with ABI, UVW, and PWM setup.">
<polygon fill="white" stroke="#666666" points="482.5,-35.5 330.5,-35.5 330.5,-5.5 482.5,-5.5 482.5,-35.5"/>
<text text-anchor="start" x="338.5" y="-23.5" font-family="Helvetica,sans-Serif" font-size="10.00">examples/esp32/main</text>
<text text-anchor="middle" x="406.5" y="-12.5" font-family="Helvetica,sans-Serif" font-size="10.00">/configuration_example.cpp</text>
</a>
</g>
</g>
<!-- Node2&#45;&gt;Node4 -->
<g id="edge3_Node000002_Node000004" class="edge">
<title>Node2&#45;&gt;Node4</title>
<g id="a_edge3_Node000002_Node000004"><a xlink:title=" ">
<path fill="none" stroke="#63b8ff" d="M413.01,-66.75C411.51,-56.31 409.81,-44.49 408.52,-35.54"/>
<polygon fill="#63b8ff" stroke="#63b8ff" points="409.59,-67.54 414.48,-76.94 416.52,-66.54 409.59,-67.54"/>
</a>
</g>
</g>
<!-- Node5 -->
<g id="Node000005" class="node">
<title>Node5</title>
<g id="a_Node000005"><a xlink:href="driver__integration__test_8cpp.html" target="_top" xlink:title="Comprehensive Integration Test Suite for as5047u::AS5047U Driver.">
<polygon fill="white" stroke="#666666" points="626,-41 501,-41 501,0 626,0 626,-41"/>
<text text-anchor="start" x="509" y="-29" font-family="Helvetica,sans-Serif" font-size="10.00">examples/esp32/main</text>
<text text-anchor="start" x="509" y="-18" font-family="Helvetica,sans-Serif" font-size="10.00">/driver_integration</text>
<text text-anchor="middle" x="563.5" y="-7" font-family="Helvetica,sans-Serif" font-size="10.00">_test.cpp</text>
</a>
</g>
</g>
<!-- Node2&#45;&gt;Node5 -->
<g id="edge4_Node000002_Node000005" class="edge">
<title>Node2&#45;&gt;Node5</title>
<g id="a_edge4_Node000002_Node000005"><a xlink:title=" ">
<path fill="none" stroke="#63b8ff" d="M455.33,-72.64C475.9,-62.92 501.16,-50.97 522.1,-41.07"/>
<polygon fill="#63b8ff" stroke="#63b8ff" points="453.79,-69.5 446.25,-76.94 456.78,-75.83 453.79,-69.5"/>
</a>
</g>
</g>
<!-- Node6 -->
<g id="Node000006" class="node">
<title>Node6</title>
<g id="a_Node000006"><a xlink:href="full__features__example_8cpp.html" target="_top" xlink:title="Comprehensive example demonstrating all as5047u::AS5047U features.">
<polygon fill="white" stroke="#666666" points="793,-35.5 644,-35.5 644,-5.5 793,-5.5 793,-35.5"/>
<text text-anchor="start" x="652" y="-23.5" font-family="Helvetica,sans-Serif" font-size="10.00">examples/esp32/main</text>
<text text-anchor="middle" x="718.5" y="-12.5" font-family="Helvetica,sans-Serif" font-size="10.00">/full_features_example.cpp</text>
</a>
</g>
</g>
<!-- Node2&#45;&gt;Node6 -->
<g id="edge5_Node000002_Node000006" class="edge">
<title>Node2&#45;&gt;Node6</title>
<g id="a_edge5_Node000002_Node000006"><a xlink:title=" ">
<path fill="none" stroke="#63b8ff" d="M488.11,-74.77C530.9,-65.04 586.33,-52.39 635.5,-41 643,-39.26 650.88,-37.43 658.67,-35.6"/>
<polygon fill="#63b8ff" stroke="#63b8ff" points="487.33,-71.36 478.35,-76.99 488.88,-78.18 487.33,-71.36"/>
</a>
</g>
</g>
<!-- Node7 -->
<g id="Node000007" class="node">
<title>Node7</title>
<g id="a_Node000007"><a xlink:href="velocity__reading__example_8cpp.html" target="_top" xlink:title="Velocity reading example with unit conversions.">
<polygon fill="white" stroke="#666666" points="169,-35.5 0,-35.5 0,-5.5 169,-5.5 169,-35.5"/>
<text text-anchor="start" x="8" y="-23.5" font-family="Helvetica,sans-Serif" font-size="10.00">examples/esp32/main</text>
<text text-anchor="middle" x="84.5" y="-12.5" font-family="Helvetica,sans-Serif" font-size="10.00">/velocity_reading_example.cpp</text>
</a>
</g>
</g>
<!-- Node2&#45;&gt;Node7 -->
<g id="edge6_Node000002_Node000007" class="edge">
<title>Node2&#45;&gt;Node7</title>
<g id="a_edge6_Node000002_Node000007"><a xlink:title=" ">
<path fill="none" stroke="#63b8ff" d="M339.46,-74.89C292.63,-65.1 231.62,-52.33 177.5,-41 169.02,-39.22 160.11,-37.36 151.3,-35.51"/>
<polygon fill="#63b8ff" stroke="#63b8ff" points="339.03,-78.38 349.54,-77 340.46,-71.53 339.03,-78.38"/>
</a>
</g>
</g>
<!-- Node8&#45;&gt;Node3 -->
<g id="edge8_Node000008_Node000003" class="edge">
<title>Node8&#45;&gt;Node3</title>
<g id="a_edge8_Node000008_Node000003"><a xlink:title=" ">
<path fill="none" stroke="#63b8ff" d="M510.11,-80.21C505.18,-79.11 500.24,-78.03 495.5,-77 418.31,-60.3 398.31,-59.33 321.5,-41 318.48,-40.28 315.39,-39.52 312.27,-38.74"/>
<polygon fill="#63b8ff" stroke="#63b8ff" points="509.63,-83.68 520.15,-82.45 511.15,-76.85 509.63,-83.68"/>
</a>
</g>
</g>
<!-- Node8&#45;&gt;Node4 -->
<g id="edge9_Node000008_Node000004" class="edge">
<title>Node8&#45;&gt;Node4</title>
<g id="a_edge9_Node000008_Node000004"><a xlink:title=" ">
<path fill="none" stroke="#63b8ff" d="M529.6,-78.16C503.31,-66.06 464.02,-47.97 436.93,-35.51"/>
<polygon fill="#63b8ff" stroke="#63b8ff" points="528.44,-81.48 538.98,-82.48 531.36,-75.12 528.44,-81.48"/>
</a>
</g>
</g>
<!-- Node8&#45;&gt;Node5 -->
<g id="edge10_Node000008_Node000005" class="edge">
<title>Node8&#45;&gt;Node5</title>
<g id="a_edge10_Node000008_Node000005"><a xlink:title=" ">
<path fill="none" stroke="#63b8ff" d="M559.11,-72.38C559.94,-62.74 560.96,-50.96 561.8,-41.17"/>
<polygon fill="#63b8ff" stroke="#63b8ff" points="555.61,-72.21 558.24,-82.48 562.58,-72.82 555.61,-72.21"/>
</a>
</g>
</g>
<!-- Node8&#45;&gt;Node6 -->
<g id="edge11_Node000008_Node000006" class="edge">
<title>Node8&#45;&gt;Node6</title>
<g id="a_edge11_Node000008_Node000006"><a xlink:title=" ">
<path fill="none" stroke="#63b8ff" d="M586.51,-78.48C614.54,-66.38 656.92,-48.08 686.05,-35.51"/>
<polygon fill="#63b8ff" stroke="#63b8ff" points="585.04,-75.3 577.24,-82.48 587.81,-81.73 585.04,-75.3"/>
</a>
</g>
</g>
<!-- Node8&#45;&gt;Node7 -->
<g id="edge12_Node000008_Node000007" class="edge">
<title>Node8&#45;&gt;Node7</title>
<g id="a_edge12_Node000008_Node000007"><a xlink:title=" ">
<path fill="none" stroke="#63b8ff" d="M513.09,-80.36C507.2,-79.12 501.22,-77.97 495.5,-77 355.25,-53.3 317.93,-63.62 177.5,-41 167.73,-39.43 157.43,-37.52 147.38,-35.52"/>
<polygon fill="#63b8ff" stroke="#63b8ff" points="512.36,-83.78 522.87,-82.48 513.84,-76.94 512.36,-83.78"/>
</a>
</g>
</g>
<!-- Node9 -->
<g id="Node000009" class="node">
<title>Node9</title>
<g id="a_Node000009"><a xlink:href="as5047u_8cpp.html" target="_top" xlink:title=" ">
<polygon fill="white" stroke="#666666" points="906,-30 811,-30 811,-11 906,-11 906,-30"/>
<text text-anchor="middle" x="858.5" y="-18" font-family="Helvetica,sans-Serif" font-size="10.00">src/as5047u.cpp</text>
</a>
</g>
</g>
<!-- Node8&#45;&gt;Node9 -->
<g id="edge13_Node000008_Node000009" class="edge">
<title>Node8&#45;&gt;Node9</title>
<g id="a_edge13_Node000008_Node000009"><a xlink:title=" ">
<path fill="none" stroke="#63b8ff" d="M612.58,-80.65C660.73,-71.81 732.14,-57.86 793.5,-41 804.72,-37.92 816.94,-33.76 827.87,-30.07"/>
<polygon fill="#63b8ff" stroke="#63b8ff" points="611.88,-77.22 602.67,-82.45 613.14,-84.1 611.88,-77.22"/>
</a>
</g>
</g>
<!-- Node9&#45;&gt;Node8 -->
<g id="edge14_Node000009_Node000008" class="edge">
<title>Node9&#45;&gt;Node8</title>
<g id="a_edge14_Node000009_Node000008"><a xlink:title=" ">
<path fill="none" stroke="#63b8ff" d="M834.62,-33.69C827.26,-36.3 819.14,-38.9 811.5,-41 740.97,-60.38 657.14,-75.91 605.51,-84.26"/>
<polygon fill="#63b8ff" stroke="#63b8ff" points="835.93,-36.94 844.08,-30.17 833.48,-30.37 835.93,-36.94"/>
</a>
</g>
</g>
</g>
</svg>
