<?xml version="1.0" encoding="UTF-8" standalone="no"?>
<!DOCTYPE svg PUBLIC "-//W3C//DTD SVG 1.1//EN"
 "http://www.w3.org/Graphics/SVG/1.1/DTD/svg11.dtd">
<!-- Generated by graphviz version 2.43.0 (0)
 -->
<!-- Title: examples/esp32/main/configuration_example.cpp Pages: 1 -->
<svg width="1817pt" height="269pt"
 viewBox="0.00 0.00 1817.00 269.00" xmlns="http://www.w3.org/2000/svg" xmlns:xlink="http://www.w3.org/1999/xlink">
<g id="graph0" class="graph" transform="scale(1 1) rotate(0) translate(4 265)">
<title>examples/esp32/main/configuration_example.cpp</title>
<!-- Node1 -->
<g id="Node000001" class="node">
<title>Node1</title>
<g id="a_Node000001"><a xlink:title="Configuration example with ABI, UVW, and PWM setup.">
<polygon fill="#999999" stroke="#666666" points="935.5,-261 783.5,-261 783.5,-231 935.5,-231 935.5,-261"/>
<text text-anchor="start" x="791.5" y="-249" font-family="Helvetica,sans-Serif" font-size="10.00">examples/esp32/main</text>
<text text-anchor="middle" x="859.5" y="-238" font-family="Helvetica,sans-Serif" font-size="10.00">/configuration_example.cpp</text>
</a>
</g>
</g>
<!-- Node2 -->
<g id="Node000002" class="node">
<title>Node2</title>
<g id="a_Node000002"><a xlink:title=" ">
<polygon fill="#e0e0e0" stroke="#999999" points="63,-134.5 0,-134.5 0,-115.5 63,-115.5 63,-134.5"/>
<text text-anchor="middle" x="31.5" y="-122.5" font-family="Helvetica,sans-Serif" font-size="10.00">esp_log.h</text>
</a>
</g>
</g>
<!-- Node1&#45;&gt;Node2 -->
<g id="edge1_Node000001_Node000002" class="edge">
<title>Node1&#45;&gt;Node2</title>
<g id="a_edge1_Node000001_Node000002"><a xlink:title=" ">
<path fill="none" stroke="#63b8ff" d="M783.47,-243.11C670.52,-239.28 452.11,-227.93 269.5,-195 194.71,-181.51 109.82,-153.79 64.37,-137.89"/>
<polygon fill="#63b8ff" stroke="#63b8ff" points="65.36,-134.53 54.76,-134.5 63.03,-141.13 65.36,-134.53"/>
</a>
</g>
</g>
<!-- Node3 -->
<g id="Node000003" class="node">
<title>Node3</title>
<g id="a_Node000003"><a xlink:title=" ">
<polygon fill="#e0e0e0" stroke="#999999" points="1328,-195 1215,-195 1215,-176 1328,-176 1328,-195"/>
<text text-anchor="middle" x="1271.5" y="-183" font-family="Helvetica,sans-Serif" font-size="10.00">freertos/FreeRTOS.h</text>
</a>
</g>
</g>
<!-- Node1&#45;&gt;Node3 -->
<g id="edge2_Node000001_Node000003" class="edge">
<title>Node1&#45;&gt;Node3</title>
<g id="a_edge2_Node000001_Node000003"><a xlink:title=" ">
<path fill="none" stroke="#63b8ff" d="M935.55,-234.2C1012.71,-223.24 1131,-206.45 1204.68,-195.99"/>
<polygon fill="#63b8ff" stroke="#63b8ff" points="1205.36,-199.43 1214.77,-194.56 1204.37,-192.5 1205.36,-199.43"/>
</a>
</g>
</g>
<!-- Node4 -->
<g id="Node000004" class="node">
<title>Node4</title>
<g id="a_Node000004"><a xlink:title=" ">
<polygon fill="#e0e0e0" stroke="#999999" points="1434.5,-195 1346.5,-195 1346.5,-176 1434.5,-176 1434.5,-195"/>
<text text-anchor="middle" x="1390.5" y="-183" font-family="Helvetica,sans-Serif" font-size="10.00">freertos/task.h</text>
</a>
</g>
</g>
<!-- Node1&#45;&gt;Node4 -->
<g id="edge3_Node000001_Node000004" class="edge">
<title>Node1&#45;&gt;Node4</title>
<g id="a_edge3_Node000001_Node000004"><a xlink:title=" ">
<path fill="none" stroke="#63b8ff" d="M935.82,-238.32C1028.17,-229.94 1188.64,-214.44 1336.13,-195.12"/>
<polygon fill="#63b8ff" stroke="#63b8ff" points="1336.82,-198.56 1346.28,-193.78 1335.91,-191.62 1336.82,-198.56"/>
</a>
</g>
</g>
<!-- Node5 -->
<g id="Node000005" class="node">
<title>Node5</title>
<g id="a_Node000005"><a xlink:title=" ">
<polygon fill="#e0e0e0" stroke="#999999" points="139.5,-134.5 81.5,-134.5 81.5,-115.5 139.5,-115.5 139.5,-134.5"/>
<text text-anchor="middle" x="110.5" y="-122.5" font-family="Helvetica,sans-Serif" font-size="10.00">memory</text>
</a>
</g>
</g>
<!-- Node1&#45;&gt;Node5 -->
<g id="edge4_Node000001_Node000005" class="edge">
<title>Node1&#45;&gt;Node5</title>
<g id="a_edge4_Node000001_Node000005"><a xlink:title=" ">
<path fill="none" stroke="#63b8ff" d="M783.39,-240.88C685.61,-234.78 510.93,-221.14 363.5,-195 266.38,-177.78 242.68,-169.31 148.5,-140 146.37,-139.34 144.19,-138.63 142,-137.88"/>
<polygon fill="#63b8ff" stroke="#63b8ff" points="143.07,-134.55 132.47,-134.53 140.74,-141.15 143.07,-134.55"/>
</a>
</g>
</g>
<!-- Node6 -->
<g id="Node000006" class="node">
<title>Node6</title>
<g id="a_Node000006"><a xlink:title=" ">
<polygon fill="#e0e0e0" stroke="#999999" points="1502.5,-195 1452.5,-195 1452.5,-176 1502.5,-176 1502.5,-195"/>
<text text-anchor="middle" x="1477.5" y="-183" font-family="Helvetica,sans-Serif" font-size="10.00">stdio.h</text>
</a>
</g>
</g>
<!-- Node1&#45;&gt;Node6 -->
<g id="edge5_Node000001_Node000006" class="edge">
<title>Node1&#45;&gt;Node6</title>
<g id="a_edge5_Node000001_Node000006"><a xlink:title=" ">
<path fill="none" stroke="#63b8ff" d="M935.58,-242.36C1045.54,-237.69 1255.29,-225.56 1442.33,-194.93"/>
<polygon fill="#63b8ff" stroke="#63b8ff" points="1443.05,-198.35 1452.34,-193.26 1441.9,-191.45 1443.05,-198.35"/>
</a>
</g>
</g>
<!-- Node7 -->
<g id="Node000007" class="node">
<title>Node7</title>
<g id="a_Node000007"><a xlink:href="as5047u_8hpp.html" target="_top" xlink:title="Driver for AMS AS5047U Magnetic Rotary Position Sensor (C++21)">
<polygon fill="white" stroke="#666666" points="1197,-195 1074,-195 1074,-176 1197,-176 1197,-195"/>
<text text-anchor="middle" x="1135.5" y="-183" font-family="Helvetica,sans-Serif" font-size="10.00">../../../inc/as5047u.hpp</text>
</a>
</g>
</g>
<!-- Node1&#45;&gt;Node7 -->
<g id="edge6_Node000001_Node000007" class="edge">
<title>Node1&#45;&gt;Node7</title>
<g id="a_edge6_Node000001_Node000007"><a xlink:title=" ">
<path fill="none" stroke="#63b8ff" d="M925.61,-230.99C974.58,-220.61 1040.31,-206.68 1085.08,-197.19"/>
<polygon fill="#63b8ff" stroke="#63b8ff" points="1086.09,-200.55 1095.14,-195.05 1084.64,-193.7 1086.09,-200.55"/>
</a>
</g>
</g>
<!-- Node25 -->
<g id="Node000025" class="node">
<title>Node25</title>
<g id="a_Node000025"><a xlink:href="esp32__as5047u__bus_8hpp.html" target="_top" xlink:title="ESP32 SPI transport implementation for AS5047U driver (header&#45;only)">
<polygon fill="white" stroke="#666666" points="508.5,-195 372.5,-195 372.5,-176 508.5,-176 508.5,-195"/>
<text text-anchor="middle" x="440.5" y="-183" font-family="Helvetica,sans-Serif" font-size="10.00">esp32_as5047u_bus.hpp</text>
</a>
</g>
</g>
<!-- Node1&#45;&gt;Node25 -->
<g id="edge30_Node000001_Node000025" class="edge">
<title>Node1&#45;&gt;Node25</title>
<g id="a_edge30_Node000001_Node000025"><a xlink:title=" ">
<path fill="none" stroke="#63b8ff" d="M783.14,-234.34C705.81,-223.54 587.17,-206.98 511.73,-196.45"/>
<polygon fill="#63b8ff" stroke="#63b8ff" points="511.77,-192.92 501.39,-195 510.81,-199.85 511.77,-192.92"/>
</a>
</g>
</g>
<!-- Node26 -->
<g id="Node000026" class="node">
<title>Node26</title>
<g id="a_Node000026"><a xlink:href="esp32__as5047u__test__config_8hpp.html" target="_top" xlink:title="Hardware configuration for AS5047U driver on ESP32&#45;C6.">
<polygon fill="white" stroke="#666666" points="603.5,-140 487.5,-140 487.5,-110 603.5,-110 603.5,-140"/>
<text text-anchor="start" x="495.5" y="-128" font-family="Helvetica,sans-Serif" font-size="10.00">esp32_as5047u_test</text>
<text text-anchor="middle" x="545.5" y="-117" font-family="Helvetica,sans-Serif" font-size="10.00">_config.hpp</text>
</a>
</g>
</g>
<!-- Node1&#45;&gt;Node26 -->
<g id="edge41_Node000001_Node000026" class="edge">
<title>Node1&#45;&gt;Node26</title>
<g id="a_edge41_Node000001_Node000026"><a xlink:title=" ">
<path fill="none" stroke="#63b8ff" d="M822.56,-231C765.31,-209.3 655.25,-167.59 592.45,-143.79"/>
<polygon fill="#63b8ff" stroke="#63b8ff" points="593.38,-140.4 582.79,-140.13 590.9,-146.95 593.38,-140.4"/>
</a>
</g>
</g>
<!-- Node8 -->
<g id="Node000008" class="node">
<title>Node8</title>
<g id="a_Node000008"><a xlink:href="as5047u__spi__interface_8hpp.html" target="_top" xlink:title="CRTP&#45;based SPI bus interface for AS5047U driver.">
<polygon fill="white" stroke="#666666" points="833,-134.5 686,-134.5 686,-115.5 833,-115.5 833,-134.5"/>
<text text-anchor="middle" x="759.5" y="-122.5" font-family="Helvetica,sans-Serif" font-size="10.00">as5047u_spi_interface.hpp</text>
</a>
</g>
</g>
<!-- Node7&#45;&gt;Node8 -->
<g id="edge7_Node000007_Node000008" class="edge">
<title>Node7&#45;&gt;Node8</title>
<g id="a_edge7_Node000007_Node000008"><a xlink:title=" ">
<path fill="none" stroke="#63b8ff" d="M1079.74,-175.96C1021.71,-167.05 928.22,-152.66 847.5,-140 839.57,-138.76 831.24,-137.44 822.99,-136.14"/>
<polygon fill="#63b8ff" stroke="#63b8ff" points="823.44,-132.66 813.01,-134.55 822.34,-139.58 823.44,-132.66"/>
</a>
</g>
</g>
<!-- Node10 -->
<g id="Node000010" class="node">
<title>Node10</title>
<g id="a_Node000010"><a xlink:title=" ">
<polygon fill="#e0e0e0" stroke="#999999" points="887.5,-19 837.5,-19 837.5,0 887.5,0 887.5,-19"/>
<text text-anchor="middle" x="862.5" y="-7" font-family="Helvetica,sans-Serif" font-size="10.00">cstdint</text>
</a>
</g>
</g>
<!-- Node7&#45;&gt;Node10 -->
<g id="edge18_Node000007_Node000010" class="edge">
<title>Node7&#45;&gt;Node10</title>
<g id="a_edge18_Node000007_Node000010"><a xlink:title=" ">
<path fill="none" stroke="#63b8ff" d="M1155.08,-175.98C1169.17,-168.68 1187.1,-156.68 1195.5,-140 1213.1,-105.04 1203.45,-78.95 1172.5,-55 1130.27,-22.32 970.35,-13.59 898.2,-11.3"/>
<polygon fill="#63b8ff" stroke="#63b8ff" points="897.91,-7.79 887.81,-10.99 897.7,-14.79 897.91,-7.79"/>
</a>
</g>
</g>
<!-- Node11 -->
<g id="Node000011" class="node">
<title>Node11</title>
<g id="a_Node000011"><a xlink:href="as5047u__registers_8hpp.html" target="_top" xlink:title="Register definitions for the AS5047U Rotary Position Sensor.">
<polygon fill="white" stroke="#666666" points="1406,-74 1279,-74 1279,-55 1406,-55 1406,-74"/>
<text text-anchor="middle" x="1342.5" y="-62" font-family="Helvetica,sans-Serif" font-size="10.00">as5047u_registers.hpp</text>
</a>
</g>
</g>
<!-- Node7&#45;&gt;Node11 -->
<g id="edge10_Node000007_Node000011" class="edge">
<title>Node7&#45;&gt;Node11</title>
<g id="a_edge10_Node000007_Node000011"><a xlink:title=" ">
<path fill="none" stroke="#63b8ff" d="M1197.21,-176.3C1259.89,-167.34 1349.17,-152.58 1359.5,-140 1372.73,-123.89 1363.31,-99.48 1354.06,-83.04"/>
<polygon fill="#63b8ff" stroke="#63b8ff" points="1357,-81.12 1348.81,-74.4 1351.01,-84.76 1357,-81.12"/>
</a>
</g>
</g>
<!-- Node12 -->
<g id="Node000012" class="node">
<title>Node12</title>
<g id="a_Node000012"><a xlink:title=" ">
<polygon fill="#e0e0e0" stroke="#999999" points="1350.5,-134.5 1242.5,-134.5 1242.5,-115.5 1350.5,-115.5 1350.5,-134.5"/>
<text text-anchor="middle" x="1296.5" y="-122.5" font-family="Helvetica,sans-Serif" font-size="10.00">as5047u_version.h</text>
</a>
</g>
</g>
<!-- Node7&#45;&gt;Node12 -->
<g id="edge12_Node000007_Node000012" class="edge">
<title>Node7&#45;&gt;Node12</title>
<g id="a_edge12_Node000007_Node000012"><a xlink:title=" ">
<path fill="none" stroke="#63b8ff" d="M1158.91,-175.99C1186.45,-165.99 1232.37,-149.3 1263.51,-137.99"/>
<polygon fill="#63b8ff" stroke="#63b8ff" points="1264.86,-141.22 1273.06,-134.52 1262.47,-134.64 1264.86,-141.22"/>
</a>
</g>
</g>
<!-- Node13 -->
<g id="Node000013" class="node">
<title>Node13</title>
<g id="a_Node000013"><a xlink:title=" ">
<polygon fill="#e0e0e0" stroke="#999999" points="1470.5,-134.5 1406.5,-134.5 1406.5,-115.5 1470.5,-115.5 1470.5,-134.5"/>
<text text-anchor="middle" x="1438.5" y="-122.5" font-family="Helvetica,sans-Serif" font-size="10.00">algorithm</text>
</a>
</g>
</g>
<!-- Node7&#45;&gt;Node13 -->
<g id="edge13_Node000007_Node000013" class="edge">
<title>Node7&#45;&gt;Node13</title>
<g id="a_edge13_Node000007_Node000013"><a xlink:title=" ">
<path fill="none" stroke="#63b8ff" d="M1197.21,-176.01C1249.54,-168.29 1326.42,-155.71 1392.5,-140 1395.85,-139.2 1399.31,-138.3 1402.77,-137.35"/>
<polygon fill="#63b8ff" stroke="#63b8ff" points="1403.75,-140.71 1412.38,-134.56 1401.8,-133.98 1403.75,-140.71"/>
</a>
</g>
</g>
<!-- Node14 -->
<g id="Node000014" class="node">
<title>Node14</title>
<g id="a_Node000014"><a xlink:title=" ">
<polygon fill="#e0e0e0" stroke="#999999" points="1530.5,-134.5 1488.5,-134.5 1488.5,-115.5 1530.5,-115.5 1530.5,-134.5"/>
<text text-anchor="middle" x="1509.5" y="-122.5" font-family="Helvetica,sans-Serif" font-size="10.00">array</text>
</a>
</g>
</g>
<!-- Node7&#45;&gt;Node14 -->
<g id="edge14_Node000007_Node000014" class="edge">
<title>Node7&#45;&gt;Node14</title>
<g id="a_edge14_Node000007_Node000014"><a xlink:title=" ">
<path fill="none" stroke="#63b8ff" d="M1197.12,-177.03C1292.43,-165.39 1466.13,-143.88 1479.5,-140 1480.95,-139.58 1482.42,-139.1 1483.88,-138.57"/>
<polygon fill="#63b8ff" stroke="#63b8ff" points="1485.45,-141.71 1493.35,-134.64 1482.77,-135.24 1485.45,-141.71"/>
</a>
</g>
</g>
<!-- Node15 -->
<g id="Node000015" class="node">
<title>Node15</title>
<g id="a_Node000015"><a xlink:title=" ">
<polygon fill="#e0e0e0" stroke="#999999" points="1598.5,-134.5 1548.5,-134.5 1548.5,-115.5 1598.5,-115.5 1598.5,-134.5"/>
<text text-anchor="middle" x="1573.5" y="-122.5" font-family="Helvetica,sans-Serif" font-size="10.00">atomic</text>
</a>
</g>
</g>
<!-- Node7&#45;&gt;Node15 -->
<g id="edge15_Node000007_Node000015" class="edge">
<title>Node7&#45;&gt;Node15</title>
<g id="a_edge15_Node000007_Node000015"><a xlink:title=" ">
<path fill="none" stroke="#63b8ff" d="M1197.07,-177.09C1200.26,-176.71 1203.42,-176.35 1206.5,-176 1354.41,-159.15 1395.23,-176.71 1539.5,-140 1541.66,-139.45 1543.87,-138.79 1546.06,-138.06"/>
<polygon fill="#63b8ff" stroke="#63b8ff" points="1547.34,-141.32 1555.47,-134.53 1544.88,-134.76 1547.34,-141.32"/>
</a>
</g>
</g>
<!-- Node16 -->
<g id="Node000016" class="node">
<title>Node16</title>
<g id="a_Node000016"><a xlink:title=" ">
<polygon fill="#e0e0e0" stroke="#999999" points="1660.5,-134.5 1616.5,-134.5 1616.5,-115.5 1660.5,-115.5 1660.5,-134.5"/>
<text text-anchor="middle" x="1638.5" y="-122.5" font-family="Helvetica,sans-Serif" font-size="10.00">bitset</text>
</a>
</g>
</g>
<!-- Node7&#45;&gt;Node16 -->
<g id="edge16_Node000007_Node000016" class="edge">
<title>Node7&#45;&gt;Node16</title>
<g id="a_edge16_Node000007_Node000016"><a xlink:title=" ">
<path fill="none" stroke="#63b8ff" d="M1197.06,-177.02C1200.25,-176.66 1203.41,-176.32 1206.5,-176 1384.47,-157.36 1434.43,-185.46 1607.5,-140 1609.19,-139.56 1610.9,-139.03 1612.61,-138.44"/>
<polygon fill="#63b8ff" stroke="#63b8ff" points="1614.17,-141.59 1622.14,-134.61 1611.56,-135.09 1614.17,-141.59"/>
</a>
</g>
</g>
<!-- Node17 -->
<g id="Node000017" class="node">
<title>Node17</title>
<g id="a_Node000017"><a xlink:title=" ">
<polygon fill="#e0e0e0" stroke="#999999" points="1726,-134.5 1679,-134.5 1679,-115.5 1726,-115.5 1726,-134.5"/>
<text text-anchor="middle" x="1702.5" y="-122.5" font-family="Helvetica,sans-Serif" font-size="10.00">cmath</text>
</a>
</g>
</g>
<!-- Node7&#45;&gt;Node17 -->
<g id="edge17_Node000007_Node000017" class="edge">
<title>Node7&#45;&gt;Node17</title>
<g id="a_edge17_Node000007_Node000017"><a xlink:title=" ">
<path fill="none" stroke="#63b8ff" d="M1197.06,-176.97C1200.25,-176.63 1203.41,-176.3 1206.5,-176 1411.9,-155.73 1468.99,-188.94 1669.5,-140 1671.45,-139.52 1673.43,-138.95 1675.41,-138.3"/>
<polygon fill="#63b8ff" stroke="#63b8ff" points="1676.94,-141.46 1685.05,-134.64 1674.46,-134.92 1676.94,-141.46"/>
</a>
</g>
</g>
<!-- Node18 -->
<g id="Node000018" class="node">
<title>Node18</title>
<g id="a_Node000018"><a xlink:title=" ">
<polygon fill="#e0e0e0" stroke="#999999" points="667.5,-134.5 621.5,-134.5 621.5,-115.5 667.5,-115.5 667.5,-134.5"/>
<text text-anchor="middle" x="644.5" y="-122.5" font-family="Helvetica,sans-Serif" font-size="10.00">cstdio</text>
</a>
</g>
</g>
<!-- Node7&#45;&gt;Node18 -->
<g id="edge19_Node000007_Node000018" class="edge">
<title>Node7&#45;&gt;Node18</title>
<g id="a_edge19_Node000007_Node000018"><a xlink:title=" ">
<path fill="none" stroke="#63b8ff" d="M1073.92,-184.64C984.81,-183.48 815.39,-176.13 676.5,-140 674.61,-139.51 672.68,-138.92 670.77,-138.26"/>
<polygon fill="#63b8ff" stroke="#63b8ff" points="672,-134.99 661.42,-134.58 669.44,-141.5 672,-134.99"/>
</a>
</g>
</g>
<!-- Node19 -->
<g id="Node000019" class="node">
<title>Node19</title>
<g id="a_Node000019"><a xlink:title=" ">
<polygon fill="#e0e0e0" stroke="#999999" points="1809,-134.5 1744,-134.5 1744,-115.5 1809,-115.5 1809,-134.5"/>
<text text-anchor="middle" x="1776.5" y="-122.5" font-family="Helvetica,sans-Serif" font-size="10.00">functional</text>
</a>
</g>
</g>
<!-- Node7&#45;&gt;Node19 -->
<g id="edge20_Node000007_Node000019" class="edge">
<title>Node7&#45;&gt;Node19</title>
<g id="a_edge20_Node000007_Node000019"><a xlink:title=" ">
<path fill="none" stroke="#63b8ff" d="M1197.05,-176.94C1200.25,-176.6 1203.41,-176.29 1206.5,-176 1441.12,-153.99 1504.47,-186.47 1735.5,-140 1738.57,-139.38 1741.73,-138.59 1744.86,-137.71"/>
<polygon fill="#63b8ff" stroke="#63b8ff" points="1746.17,-140.97 1754.66,-134.63 1744.07,-134.29 1746.17,-140.97"/>
</a>
</g>
</g>
<!-- Node20 -->
<g id="Node000020" class="node">
<title>Node20</title>
<g id="a_Node000020"><a xlink:title=" ">
<polygon fill="#e0e0e0" stroke="#999999" points="1066,-134.5 1021,-134.5 1021,-115.5 1066,-115.5 1066,-134.5"/>
<text text-anchor="middle" x="1043.5" y="-122.5" font-family="Helvetica,sans-Serif" font-size="10.00">utility</text>
</a>
</g>
</g>
<!-- Node7&#45;&gt;Node20 -->
<g id="edge21_Node000007_Node000020" class="edge">
<title>Node7&#45;&gt;Node20</title>
<g id="a_edge21_Node000007_Node000020"><a xlink:title=" ">
<path fill="none" stroke="#63b8ff" d="M1121.93,-175.87C1107.11,-166.45 1083.17,-151.23 1065.64,-140.08"/>
<polygon fill="#63b8ff" stroke="#63b8ff" points="1067.45,-137.08 1057.13,-134.67 1063.69,-142.99 1067.45,-137.08"/>
</a>
</g>
</g>
<!-- Node21 -->
<g id="Node000021" class="node">
<title>Node21</title>
<g id="a_Node000021"><a xlink:href="as5047u__types_8hpp.html" target="_top" xlink:title="Type definitions for the AS5047U driver.">
<polygon fill="white" stroke="#666666" points="918,-74 807,-74 807,-55 918,-55 918,-74"/>
<text text-anchor="middle" x="862.5" y="-62" font-family="Helvetica,sans-Serif" font-size="10.00">as5047u_types.hpp</text>
</a>
</g>
</g>
<!-- Node7&#45;&gt;Node21 -->
<g id="edge22_Node000007_Node000021" class="edge">
<title>Node7&#45;&gt;Node21</title>
<g id="a_edge22_Node000007_Node000021"><a xlink:title=" ">
<path fill="none" stroke="#63b8ff" d="M1073.8,-181.25C1007.76,-176.5 908.8,-165.29 881.5,-140 866.3,-125.92 862.55,-101.53 861.95,-84.51"/>
<polygon fill="#63b8ff" stroke="#63b8ff" points="865.45,-84.11 861.94,-74.12 858.45,-84.12 865.45,-84.11"/>
</a>
</g>
</g>
<!-- Node22 -->
<g id="Node000022" class="node">
<title>Node22</title>
<g id="a_Node000022"><a xlink:href="as5047u__config_8hpp.html" target="_top" xlink:title="Compile&#45;time configuration options for the AS5047U driver.">
<polygon fill="white" stroke="#666666" points="1003,-134.5 890,-134.5 890,-115.5 1003,-115.5 1003,-134.5"/>
<text text-anchor="middle" x="946.5" y="-122.5" font-family="Helvetica,sans-Serif" font-size="10.00">as5047u_config.hpp</text>
</a>
</g>
</g>
<!-- Node7&#45;&gt;Node22 -->
<g id="edge24_Node000007_Node000022" class="edge">
<title>Node7&#45;&gt;Node22</title>
<g id="a_edge24_Node000007_Node000022"><a xlink:title=" ">
<path fill="none" stroke="#63b8ff" d="M1108.02,-175.99C1075.26,-165.86 1020.38,-148.87 983.81,-137.55"/>
<polygon fill="#63b8ff" stroke="#63b8ff" points="984.6,-134.13 974.02,-134.52 982.53,-140.82 984.6,-134.13"/>
</a>
</g>
</g>
<!-- Node23 -->
<g id="Node000023" class="node">
<title>Node23</title>
<g id="a_Node000023"><a xlink:href="as5047u_8ipp.html" target="_top" xlink:title="Template implementation of AS5047U driver methods.">
<polygon fill="white" stroke="#666666" points="1186.5,-134.5 1084.5,-134.5 1084.5,-115.5 1186.5,-115.5 1186.5,-134.5"/>
<text text-anchor="middle" x="1135.5" y="-122.5" font-family="Helvetica,sans-Serif" font-size="10.00">../src/as5047u.ipp</text>
</a>
</g>
</g>
<!-- Node7&#45;&gt;Node23 -->
<g id="edge27_Node000007_Node000023" class="edge">
<title>Node7&#45;&gt;Node23</title>
<g id="a_edge27_Node000007_Node000023"><a xlink:title=" ">
<path fill="none" stroke="#63b8ff" d="M1130.54,-175.87C1128.79,-167.75 1128.32,-155.31 1129.14,-144.89"/>
<polygon fill="#63b8ff" stroke="#63b8ff" points="1132.65,-145.05 1130.54,-134.67 1125.72,-144.1 1132.65,-145.05"/>
</a>
</g>
</g>
<!-- Node9 -->
<g id="Node000009" class="node">
<title>Node9</title>
<g id="a_Node000009"><a xlink:title=" ">
<polygon fill="#e0e0e0" stroke="#999999" points="750,-74 697,-74 697,-55 750,-55 750,-74"/>
<text text-anchor="middle" x="723.5" y="-62" font-family="Helvetica,sans-Serif" font-size="10.00">cstddef</text>
</a>
</g>
</g>
<!-- Node8&#45;&gt;Node9 -->
<g id="edge8_Node000008_Node000009" class="edge">
<title>Node8&#45;&gt;Node9</title>
<g id="a_edge8_Node000008_Node000009"><a xlink:title=" ">
<path fill="none" stroke="#63b8ff" d="M754.19,-115.37C748.92,-106.81 740.71,-93.47 734.11,-82.74"/>
<polygon fill="#63b8ff" stroke="#63b8ff" points="737.06,-80.85 728.83,-74.17 731.09,-84.52 737.06,-80.85"/>
</a>
</g>
</g>
<!-- Node8&#45;&gt;Node10 -->
<g id="edge9_Node000008_Node000010" class="edge">
<title>Node8&#45;&gt;Node10</title>
<g id="a_edge9_Node000008_Node000010"><a xlink:title=" ">
<path fill="none" stroke="#63b8ff" d="M762.97,-115.14C768.76,-101.17 781.45,-73.72 798.5,-55 809.65,-42.76 824.75,-32.06 837.49,-24.22"/>
<polygon fill="#63b8ff" stroke="#63b8ff" points="839.43,-27.14 846.25,-19.04 835.86,-21.12 839.43,-27.14"/>
</a>
</g>
</g>
<!-- Node11&#45;&gt;Node10 -->
<g id="edge11_Node000011_Node000010" class="edge">
<title>Node11&#45;&gt;Node10</title>
<g id="a_edge11_Node000011_Node000010"><a xlink:title=" ">
<path fill="none" stroke="#63b8ff" d="M1278.76,-56.46C1176.25,-45.14 978.14,-23.27 897.72,-14.39"/>
<polygon fill="#63b8ff" stroke="#63b8ff" points="897.94,-10.89 887.62,-13.27 897.17,-17.85 897.94,-10.89"/>
</a>
</g>
</g>
<!-- Node21&#45;&gt;Node10 -->
<g id="edge23_Node000021_Node000010" class="edge">
<title>Node21&#45;&gt;Node10</title>
<g id="a_edge23_Node000021_Node000010"><a xlink:title=" ">
<path fill="none" stroke="#63b8ff" d="M862.5,-54.75C862.5,-47.8 862.5,-37.85 862.5,-29.13"/>
<polygon fill="#63b8ff" stroke="#63b8ff" points="866,-29.09 862.5,-19.09 859,-29.09 866,-29.09"/>
</a>
</g>
</g>
<!-- Node22&#45;&gt;Node10 -->
<g id="edge25_Node000022_Node000010" class="edge">
<title>Node22&#45;&gt;Node10</title>
<g id="a_edge25_Node000022_Node000010"><a xlink:title=" ">
<path fill="none" stroke="#63b8ff" d="M945.99,-115.11C944.78,-101.11 940.78,-73.61 927.5,-55 918.17,-41.92 903.71,-31.47 890.8,-24"/>
<polygon fill="#63b8ff" stroke="#63b8ff" points="892.22,-20.79 881.77,-19.08 888.88,-26.94 892.22,-20.79"/>
</a>
</g>
</g>
<!-- Node22&#45;&gt;Node21 -->
<g id="edge26_Node000022_Node000021" class="edge">
<title>Node22&#45;&gt;Node21</title>
<g id="a_edge26_Node000022_Node000021"><a xlink:title=" ">
<path fill="none" stroke="#63b8ff" d="M934.11,-115.37C920.71,-106.04 899.12,-91.01 883.15,-79.88"/>
<polygon fill="#63b8ff" stroke="#63b8ff" points="885.15,-77.01 874.95,-74.17 881.15,-82.75 885.15,-77.01"/>
</a>
</g>
</g>
<!-- Node23&#45;&gt;Node7 -->
<g id="edge28_Node000023_Node000007" class="edge">
<title>Node23&#45;&gt;Node7</title>
<g id="a_edge28_Node000023_Node000007"><a xlink:title=" ">
<path fill="none" stroke="#63b8ff" d="M1140.46,-134.67C1142.21,-142.8 1142.68,-155.24 1141.85,-165.66"/>
<polygon fill="#63b8ff" stroke="#63b8ff" points="1138.35,-165.49 1140.46,-175.87 1145.28,-166.44 1138.35,-165.49"/>
</a>
</g>
</g>
<!-- Node24 -->
<g id="Node000024" class="node">
<title>Node24</title>
<g id="a_Node000024"><a xlink:title=" ">
<polygon fill="#e0e0e0" stroke="#999999" points="1163.5,-74 1107.5,-74 1107.5,-55 1163.5,-55 1163.5,-74"/>
<text text-anchor="middle" x="1135.5" y="-62" font-family="Helvetica,sans-Serif" font-size="10.00">iomanip</text>
</a>
</g>
</g>
<!-- Node23&#45;&gt;Node24 -->
<g id="edge29_Node000023_Node000024" class="edge">
<title>Node23&#45;&gt;Node24</title>
<g id="a_edge29_Node000023_Node000024"><a xlink:title=" ">
<path fill="none" stroke="#63b8ff" d="M1135.5,-115.37C1135.5,-107.25 1135.5,-94.81 1135.5,-84.39"/>
<polygon fill="#63b8ff" stroke="#63b8ff" points="1139,-84.17 1135.5,-74.17 1132,-84.17 1139,-84.17"/>
</a>
</g>
</g>
<!-- Node25&#45;&gt;Node2 -->
<g id="edge36_Node000025_Node000002" class="edge">
<title>Node25&#45;&gt;Node2</title>
<g id="a_edge36_Node000025_Node000002"><a xlink:title=" ">
<path fill="none" stroke="#63b8ff" d="M372.28,-180.52C297.85,-175.2 175.54,-163.55 72.5,-140 69.52,-139.32 66.45,-138.5 63.39,-137.6"/>
<polygon fill="#63b8ff" stroke="#63b8ff" points="64.4,-134.25 53.81,-134.56 62.28,-140.92 64.4,-134.25"/>
</a>
</g>
</g>
<!-- Node25&#45;&gt;Node5 -->
<g id="edge40_Node000025_Node000005" class="edge">
<title>Node25&#45;&gt;Node5</title>
<g id="a_edge40_Node000025_Node000005"><a xlink:title=" ">
<path fill="none" stroke="#63b8ff" d="M372.45,-178.06C312.77,-171.49 223.98,-159.44 148.5,-140 146.06,-139.37 143.55,-138.64 141.05,-137.86"/>
<polygon fill="#63b8ff" stroke="#63b8ff" points="142.16,-134.54 131.56,-134.62 139.9,-141.16 142.16,-134.54"/>
</a>
</g>
</g>
<!-- Node25&#45;&gt;Node8 -->
<g id="edge31_Node000025_Node000008" class="edge">
<title>Node25&#45;&gt;Node8</title>
<g id="a_edge31_Node000025_Node000008"><a xlink:title=" ">
<path fill="none" stroke="#63b8ff" d="M486.89,-175.99C544.18,-165.49 641.58,-147.62 703.13,-136.34"/>
<polygon fill="#63b8ff" stroke="#63b8ff" points="703.85,-139.76 713.06,-134.52 702.59,-132.88 703.85,-139.76"/>
</a>
</g>
</g>
<!-- Node25&#45;&gt;Node10 -->
<g id="edge37_Node000025_Node000010" class="edge">
<title>Node25&#45;&gt;Node10</title>
<g id="a_edge37_Node000025_Node000010"><a xlink:title=" ">
<path fill="none" stroke="#63b8ff" d="M442.62,-175.8C446.82,-160.35 457.65,-128.07 478.5,-110 580.93,-21.22 752.84,-10.14 826.85,-9.76"/>
<polygon fill="#63b8ff" stroke="#63b8ff" points="827.03,-13.26 837.03,-9.77 827.04,-6.26 827.03,-13.26"/>
</a>
</g>
</g>
<!-- Node25&#45;&gt;Node18 -->
<g id="edge38_Node000025_Node000018" class="edge">
<title>Node25&#45;&gt;Node18</title>
<g id="a_edge38_Node000025_Node000018"><a xlink:title=" ">
<path fill="none" stroke="#63b8ff" d="M481,-175.94C516.2,-168.05 568.33,-155.27 612.5,-140 613.93,-139.5 615.39,-138.97 616.86,-138.42"/>
<polygon fill="#63b8ff" stroke="#63b8ff" points="618.49,-141.53 626.42,-134.51 615.84,-135.05 618.49,-141.53"/>
</a>
</g>
</g>
<!-- Node25&#45;&gt;Node26 -->
<g id="edge32_Node000025_Node000026" class="edge">
<title>Node25&#45;&gt;Node26</title>
<g id="a_edge32_Node000025_Node000026"><a xlink:title=" ">
<path fill="none" stroke="#63b8ff" d="M455.99,-175.87C470.5,-167.78 492.69,-155.42 511.34,-145.03"/>
<polygon fill="#63b8ff" stroke="#63b8ff" points="513.13,-148.04 520.17,-140.11 509.73,-141.92 513.13,-148.04"/>
</a>
</g>
</g>
<!-- Node27 -->
<g id="Node000027" class="node">
<title>Node27</title>
<g id="a_Node000027"><a xlink:title=" ">
<polygon fill="#e0e0e0" stroke="#999999" points="431.5,-134.5 353.5,-134.5 353.5,-115.5 431.5,-115.5 431.5,-134.5"/>
<text text-anchor="middle" x="392.5" y="-122.5" font-family="Helvetica,sans-Serif" font-size="10.00">driver/gpio.h</text>
</a>
</g>
</g>
<!-- Node25&#45;&gt;Node27 -->
<g id="edge34_Node000025_Node000027" class="edge">
<title>Node25&#45;&gt;Node27</title>
<g id="a_edge34_Node000025_Node000027"><a xlink:title=" ">
<path fill="none" stroke="#63b8ff" d="M433.42,-175.87C426.26,-167.14 415.01,-153.43 406.11,-142.59"/>
<polygon fill="#63b8ff" stroke="#63b8ff" points="408.66,-140.18 399.61,-134.67 403.25,-144.62 408.66,-140.18"/>
</a>
</g>
</g>
<!-- Node28 -->
<g id="Node000028" class="node">
<title>Node28</title>
<g id="a_Node000028"><a xlink:title=" ">
<polygon fill="#e0e0e0" stroke="#999999" points="267.5,-134.5 157.5,-134.5 157.5,-115.5 267.5,-115.5 267.5,-134.5"/>
<text text-anchor="middle" x="212.5" y="-122.5" font-family="Helvetica,sans-Serif" font-size="10.00">driver/spi_master.h</text>
</a>
</g>
</g>
<!-- Node25&#45;&gt;Node28 -->
<g id="edge35_Node000025_Node000028" class="edge">
<title>Node25&#45;&gt;Node28</title>
<g id="a_edge35_Node000025_Node000028"><a xlink:title=" ">
<path fill="none" stroke="#63b8ff" d="M407.35,-175.99C367.24,-165.7 299.64,-148.36 255.55,-137.04"/>
<polygon fill="#63b8ff" stroke="#63b8ff" points="256.25,-133.61 245.69,-134.52 254.51,-140.39 256.25,-133.61"/>
</a>
</g>
</g>
<!-- Node29 -->
<g id="Node000029" class="node">
<title>Node29</title>
<g id="a_Node000029"><a xlink:title=" ">
<polygon fill="#e0e0e0" stroke="#999999" points="335.5,-134.5 285.5,-134.5 285.5,-115.5 335.5,-115.5 335.5,-134.5"/>
<text text-anchor="middle" x="310.5" y="-122.5" font-family="Helvetica,sans-Serif" font-size="10.00">cstring</text>
</a>
</g>
</g>
<!-- Node25&#45;&gt;Node29 -->
<g id="edge39_Node000025_Node000029" class="edge">
<title>Node25&#45;&gt;Node29</title>
<g id="a_edge39_Node000025_Node000029"><a xlink:title=" ">
<path fill="none" stroke="#63b8ff" d="M421.6,-175.99C399.84,-166.2 363.88,-150.02 338.79,-138.73"/>
<polygon fill="#63b8ff" stroke="#63b8ff" points="339.98,-135.43 329.43,-134.52 337.11,-141.81 339.98,-135.43"/>
</a>
</g>
</g>
<!-- Node26&#45;&gt;Node10 -->
<g id="edge33_Node000026_Node000010" class="edge">
<title>Node26&#45;&gt;Node10</title>
<g id="a_edge33_Node000026_Node000010"><a xlink:title=" ">
<path fill="none" stroke="#63b8ff" d="M570.47,-109.93C598.31,-94.71 645.03,-70.54 687.5,-55 734.79,-37.7 791.64,-24.59 827.43,-17.22"/>
<polygon fill="#63b8ff" stroke="#63b8ff" points="828.28,-20.62 837.39,-15.21 826.89,-13.76 828.28,-20.62"/>
</a>
</g>
</g>
</g>
</svg>
