<?xml version="1.0" encoding="UTF-8" standalone="no"?>
<!DOCTYPE svg PUBLIC "-//W3C//DTD SVG 1.1//EN"
 "http://www.w3.org/Graphics/SVG/1.1/DTD/svg11.dtd">
<!-- Generated by graphviz version 2.43.0 (0)
 -->
<!-- Title: examples/esp32/main/DriverIntegrationTest.cpp Pages: 1 -->
<svg width="1813pt" height="313pt"
 viewBox="0.00 0.00 1813.00 313.00" xmlns="http://www.w3.org/2000/svg" xmlns:xlink="http://www.w3.org/1999/xlink">
<g id="graph0" class="graph" transform="scale(1 1) rotate(0) translate(4 309)">
<title>examples/esp32/main/DriverIntegrationTest.cpp</title>
<!-- Node1 -->
<g id="Node000001" class="node">
<title>Node1</title>
<g id="a_Node000001"><a xlink:title="Comprehensive Integration Test Suite for AS5047U Driver.">
<polygon fill="#999999" stroke="#666666" points="715,-305 572,-305 572,-275 715,-275 715,-305"/>
<text text-anchor="start" x="580" y="-293" font-family="Helvetica,sans-Serif" font-size="10.00">examples/esp32/main</text>
<text text-anchor="middle" x="643.5" y="-282" font-family="Helvetica,sans-Serif" font-size="10.00">/DriverIntegrationTest.cpp</text>
</a>
</g>
</g>
<!-- Node2 -->
<g id="Node000002" class="node">
<title>Node2</title>
<g id="a_Node000002"><a xlink:title=" ">
<polygon fill="#e0e0e0" stroke="#999999" points="352.5,-239 302.5,-239 302.5,-220 352.5,-220 352.5,-239"/>
<text text-anchor="middle" x="327.5" y="-227" font-family="Helvetica,sans-Serif" font-size="10.00">stdio.h</text>
</a>
</g>
</g>
<!-- Node1&#45;&gt;Node2 -->
<g id="edge1_Node000001_Node000002" class="edge">
<title>Node1&#45;&gt;Node2</title>
<g id="a_edge1_Node000001_Node000002"><a xlink:title=" ">
<path fill="none" stroke="#63b8ff" d="M571.91,-276.81C515.9,-267.09 436.11,-252.86 366.5,-239 365.24,-238.75 363.95,-238.49 362.66,-238.22"/>
<polygon fill="#63b8ff" stroke="#63b8ff" points="363.15,-234.75 352.65,-236.12 361.71,-241.6 363.15,-234.75"/>
</a>
</g>
</g>
<!-- Node3 -->
<g id="Node000003" class="node">
<title>Node3</title>
<g id="a_Node000003"><a xlink:title=" ">
<polygon fill="#e0e0e0" stroke="#999999" points="802.5,-184 744.5,-184 744.5,-165 802.5,-165 802.5,-184"/>
<text text-anchor="middle" x="773.5" y="-172" font-family="Helvetica,sans-Serif" font-size="10.00">memory</text>
</a>
</g>
</g>
<!-- Node1&#45;&gt;Node3 -->
<g id="edge2_Node000001_Node000003" class="edge">
<title>Node1&#45;&gt;Node3</title>
<g id="a_edge2_Node000001_Node000003"><a xlink:title=" ">
<path fill="none" stroke="#63b8ff" d="M653.02,-274.86C663.48,-260.02 681.36,-236.58 700.5,-220 714.58,-207.8 732.4,-196.87 746.91,-188.89"/>
<polygon fill="#63b8ff" stroke="#63b8ff" points="748.72,-191.89 755.89,-184.09 745.42,-185.72 748.72,-191.89"/>
</a>
</g>
</g>
<!-- Node4 -->
<g id="Node000004" class="node">
<title>Node4</title>
<g id="a_Node000004"><a xlink:title=" ">
<polygon fill="#e0e0e0" stroke="#999999" points="113,-184 0,-184 0,-165 113,-165 113,-184"/>
<text text-anchor="middle" x="56.5" y="-172" font-family="Helvetica,sans-Serif" font-size="10.00">freertos/FreeRTOS.h</text>
</a>
</g>
</g>
<!-- Node1&#45;&gt;Node4 -->
<g id="edge3_Node000001_Node000004" class="edge">
<title>Node1&#45;&gt;Node4</title>
<g id="a_edge3_Node000001_Node000004"><a xlink:title=" ">
<path fill="none" stroke="#63b8ff" d="M571.77,-280.87C521.07,-273.63 452.16,-260.72 394.5,-239 378.66,-233.03 377.49,-225.54 361.5,-220 350.34,-216.13 209.57,-196.44 123.23,-184.59"/>
<polygon fill="#63b8ff" stroke="#63b8ff" points="123.62,-181.11 113.24,-183.22 122.67,-188.04 123.62,-181.11"/>
</a>
</g>
</g>
<!-- Node5 -->
<g id="Node000005" class="node">
<title>Node5</title>
<g id="a_Node000005"><a xlink:title=" ">
<polygon fill="#e0e0e0" stroke="#999999" points="219.5,-184 131.5,-184 131.5,-165 219.5,-165 219.5,-184"/>
<text text-anchor="middle" x="175.5" y="-172" font-family="Helvetica,sans-Serif" font-size="10.00">freertos/task.h</text>
</a>
</g>
</g>
<!-- Node1&#45;&gt;Node5 -->
<g id="edge4_Node000001_Node000005" class="edge">
<title>Node1&#45;&gt;Node5</title>
<g id="a_edge4_Node000001_Node000005"><a xlink:title=" ">
<path fill="none" stroke="#63b8ff" d="M572.06,-274.94C532,-266.24 481.41,-253.9 437.5,-239 417.71,-232.29 414.41,-226.34 394.5,-220 364.4,-210.41 283.96,-195.01 229.42,-185.08"/>
<polygon fill="#63b8ff" stroke="#63b8ff" points="230.01,-181.63 219.55,-183.29 228.77,-188.52 230.01,-181.63"/>
</a>
</g>
</g>
<!-- Node6 -->
<g id="Node000006" class="node">
<title>Node6</title>
<g id="a_Node000006"><a xlink:title=" ">
<polygon fill="#e0e0e0" stroke="#999999" points="726,-184 663,-184 663,-165 726,-165 726,-184"/>
<text text-anchor="middle" x="694.5" y="-172" font-family="Helvetica,sans-Serif" font-size="10.00">esp_log.h</text>
</a>
</g>
</g>
<!-- Node1&#45;&gt;Node6 -->
<g id="edge5_Node000001_Node000006" class="edge">
<title>Node1&#45;&gt;Node6</title>
<g id="a_edge5_Node000001_Node000006"><a xlink:title=" ">
<path fill="none" stroke="#63b8ff" d="M647.45,-274.91C651.64,-260.72 658.86,-238.36 667.5,-220 671.93,-210.6 677.82,-200.66 682.98,-192.57"/>
<polygon fill="#63b8ff" stroke="#63b8ff" points="686,-194.34 688.56,-184.06 680.15,-190.51 686,-194.34"/>
</a>
</g>
</g>
<!-- Node7 -->
<g id="Node000007" class="node">
<title>Node7</title>
<g id="a_Node000007"><a xlink:title=" ">
<polygon fill="#e0e0e0" stroke="#999999" points="977.5,-239 893.5,-239 893.5,-220 977.5,-220 977.5,-239"/>
<text text-anchor="middle" x="935.5" y="-227" font-family="Helvetica,sans-Serif" font-size="10.00">esp_system.h</text>
</a>
</g>
</g>
<!-- Node1&#45;&gt;Node7 -->
<g id="edge6_Node000001_Node000007" class="edge">
<title>Node1&#45;&gt;Node7</title>
<g id="a_edge6_Node000001_Node000007"><a xlink:title=" ">
<path fill="none" stroke="#63b8ff" d="M713.44,-274.99C765.63,-264.53 835.8,-250.47 883.18,-240.98"/>
<polygon fill="#63b8ff" stroke="#63b8ff" points="884.11,-244.36 893.23,-238.97 882.74,-237.5 884.11,-244.36"/>
</a>
</g>
</g>
<!-- Node8 -->
<g id="Node000008" class="node">
<title>Node8</title>
<g id="a_Node000008"><a xlink:href="AS5047U_8hpp.html" target="_top" xlink:title="Driver for AMS AS5047U Magnetic Rotary Position Sensor (C++21).">
<polygon fill="white" stroke="#666666" points="1425.5,-184 1299.5,-184 1299.5,-165 1425.5,-165 1425.5,-184"/>
<text text-anchor="middle" x="1362.5" y="-172" font-family="Helvetica,sans-Serif" font-size="10.00">../../../inc/AS5047U.hpp</text>
</a>
</g>
</g>
<!-- Node1&#45;&gt;Node8 -->
<g id="edge7_Node000001_Node000008" class="edge">
<title>Node1&#45;&gt;Node8</title>
<g id="a_edge7_Node000001_Node000008"><a xlink:title=" ">
<path fill="none" stroke="#63b8ff" d="M715.17,-275.12C754.28,-266.58 803.22,-254.34 845.5,-239 863.63,-232.42 865.93,-225.2 884.5,-220 958.61,-199.24 1174.55,-185.28 1289.12,-179.1"/>
<polygon fill="#63b8ff" stroke="#63b8ff" points="1289.41,-182.59 1299.21,-178.57 1289.04,-175.6 1289.41,-182.59"/>
</a>
</g>
</g>
<!-- Node21 -->
<g id="Node000021" class="node">
<title>Node21</title>
<g id="a_Node000021"><a xlink:href="Esp32As5047uBus_8hpp.html" target="_top" xlink:title="ESP32 SPI transport implementation for AS5047U driver.">
<polygon fill="white" stroke="#666666" points="837,-239 710,-239 710,-220 837,-220 837,-239"/>
<text text-anchor="middle" x="773.5" y="-227" font-family="Helvetica,sans-Serif" font-size="10.00">Esp32As5047uBus.hpp</text>
</a>
</g>
</g>
<!-- Node1&#45;&gt;Node21 -->
<g id="edge25_Node000001_Node000021" class="edge">
<title>Node1&#45;&gt;Node21</title>
<g id="a_edge25_Node000001_Node000021"><a xlink:title=" ">
<path fill="none" stroke="#63b8ff" d="M674.64,-274.99C696.04,-265.36 724.23,-252.67 745.03,-243.31"/>
<polygon fill="#63b8ff" stroke="#63b8ff" points="746.62,-246.43 754.3,-239.14 743.75,-240.05 746.62,-246.43"/>
</a>
</g>
</g>
<!-- Node24 -->
<g id="Node000024" class="node">
<title>Node24</title>
<g id="a_Node000024"><a xlink:href="TestFramework_8h.html" target="_top" xlink:title="Shared testing framework for ESP32&#45;C6 comprehensive test suites.">
<polygon fill="white" stroke="#666666" points="546.5,-239 446.5,-239 446.5,-220 546.5,-220 546.5,-239"/>
<text text-anchor="middle" x="496.5" y="-227" font-family="Helvetica,sans-Serif" font-size="10.00">TestFramework.h</text>
</a>
</g>
</g>
<!-- Node1&#45;&gt;Node24 -->
<g id="edge32_Node000001_Node000024" class="edge">
<title>Node1&#45;&gt;Node24</title>
<g id="a_edge32_Node000001_Node000024"><a xlink:title=" ">
<path fill="none" stroke="#63b8ff" d="M608.29,-274.99C583.76,-265.23 551.35,-252.33 527.74,-242.93"/>
<polygon fill="#63b8ff" stroke="#63b8ff" points="528.79,-239.58 518.21,-239.14 526.21,-246.09 528.79,-239.58"/>
</a>
</g>
</g>
<!-- Node9 -->
<g id="Node000009" class="node">
<title>Node9</title>
<g id="a_Node000009"><a xlink:href="AS5047U__REGISTERS_8hpp.html" target="_top" xlink:title="Register definitions for the AS5047U Rotary Position Sensor.">
<polygon fill="white" stroke="#666666" points="1166,-74 1025,-74 1025,-55 1166,-55 1166,-74"/>
<text text-anchor="middle" x="1095.5" y="-62" font-family="Helvetica,sans-Serif" font-size="10.00">AS5047U_REGISTERS.hpp</text>
</a>
</g>
</g>
<!-- Node8&#45;&gt;Node9 -->
<g id="edge8_Node000008_Node000009" class="edge">
<title>Node8&#45;&gt;Node9</title>
<g id="a_edge8_Node000008_Node000009"><a xlink:title=" ">
<path fill="none" stroke="#63b8ff" d="M1299.21,-169.6C1234.94,-164.36 1141.18,-152.82 1114.5,-129 1102.04,-117.87 1097.6,-98.94 1096.09,-84.64"/>
<polygon fill="#63b8ff" stroke="#63b8ff" points="1099.57,-84.14 1095.42,-74.4 1092.58,-84.61 1099.57,-84.14"/>
</a>
</g>
</g>
<!-- Node10 -->
<g id="Node000010" class="node">
<title>Node10</title>
<g id="a_Node000010"><a xlink:title=" ">
<polygon fill="#e0e0e0" stroke="#999999" points="1120.5,-19 1070.5,-19 1070.5,0 1120.5,0 1120.5,-19"/>
<text text-anchor="middle" x="1095.5" y="-7" font-family="Helvetica,sans-Serif" font-size="10.00">cstdint</text>
</a>
</g>
</g>
<!-- Node8&#45;&gt;Node10 -->
<g id="edge15_Node000008_Node000010" class="edge">
<title>Node8&#45;&gt;Node10</title>
<g id="a_edge15_Node000008_Node000010"><a xlink:title=" ">
<path fill="none" stroke="#63b8ff" d="M1299.46,-170.11C1244.93,-165.49 1164.82,-154.61 1099.5,-129 1057.96,-112.71 1036.72,-113.26 1015.5,-74 1002.62,-50.17 1033.59,-32.17 1060.67,-21.53"/>
<polygon fill="#63b8ff" stroke="#63b8ff" points="1062.21,-24.69 1070.38,-17.94 1059.79,-18.12 1062.21,-24.69"/>
</a>
</g>
</g>
<!-- Node11 -->
<g id="Node000011" class="node">
<title>Node11</title>
<g id="a_Node000011"><a xlink:title=" ">
<polygon fill="#e0e0e0" stroke="#999999" points="1359.5,-129 1295.5,-129 1295.5,-110 1359.5,-110 1359.5,-129"/>
<text text-anchor="middle" x="1327.5" y="-117" font-family="Helvetica,sans-Serif" font-size="10.00">algorithm</text>
</a>
</g>
</g>
<!-- Node8&#45;&gt;Node11 -->
<g id="edge10_Node000008_Node000011" class="edge">
<title>Node8&#45;&gt;Node11</title>
<g id="a_edge10_Node000008_Node000011"><a xlink:title=" ">
<path fill="none" stroke="#63b8ff" d="M1356.72,-164.75C1351.88,-157.42 1344.82,-146.73 1338.86,-137.7"/>
<polygon fill="#63b8ff" stroke="#63b8ff" points="1341.6,-135.5 1333.17,-129.09 1335.76,-139.36 1341.6,-135.5"/>
</a>
</g>
</g>
<!-- Node12 -->
<g id="Node000012" class="node">
<title>Node12</title>
<g id="a_Node000012"><a xlink:title=" ">
<polygon fill="#e0e0e0" stroke="#999999" points="1419.5,-129 1377.5,-129 1377.5,-110 1419.5,-110 1419.5,-129"/>
<text text-anchor="middle" x="1398.5" y="-117" font-family="Helvetica,sans-Serif" font-size="10.00">array</text>
</a>
</g>
</g>
<!-- Node8&#45;&gt;Node12 -->
<g id="edge11_Node000008_Node000012" class="edge">
<title>Node8&#45;&gt;Node12</title>
<g id="a_edge11_Node000008_Node000012"><a xlink:title=" ">
<path fill="none" stroke="#63b8ff" d="M1368.44,-164.75C1373.48,-157.34 1380.84,-146.5 1387.01,-137.41"/>
<polygon fill="#63b8ff" stroke="#63b8ff" points="1389.94,-139.33 1392.67,-129.09 1384.15,-135.39 1389.94,-139.33"/>
</a>
</g>
</g>
<!-- Node13 -->
<g id="Node000013" class="node">
<title>Node13</title>
<g id="a_Node000013"><a xlink:title=" ">
<polygon fill="#e0e0e0" stroke="#999999" points="1487.5,-129 1437.5,-129 1437.5,-110 1487.5,-110 1487.5,-129"/>
<text text-anchor="middle" x="1462.5" y="-117" font-family="Helvetica,sans-Serif" font-size="10.00">atomic</text>
</a>
</g>
</g>
<!-- Node8&#45;&gt;Node13 -->
<g id="edge12_Node000008_Node000013" class="edge">
<title>Node8&#45;&gt;Node13</title>
<g id="a_edge12_Node000008_Node000013"><a xlink:title=" ">
<path fill="none" stroke="#63b8ff" d="M1378.57,-164.98C1394.36,-156.61 1418.72,-143.7 1437.13,-133.95"/>
<polygon fill="#63b8ff" stroke="#63b8ff" points="1438.94,-136.95 1446.14,-129.17 1435.67,-130.76 1438.94,-136.95"/>
</a>
</g>
</g>
<!-- Node14 -->
<g id="Node000014" class="node">
<title>Node14</title>
<g id="a_Node000014"><a xlink:title=" ">
<polygon fill="#e0e0e0" stroke="#999999" points="1549.5,-129 1505.5,-129 1505.5,-110 1549.5,-110 1549.5,-129"/>
<text text-anchor="middle" x="1527.5" y="-117" font-family="Helvetica,sans-Serif" font-size="10.00">bitset</text>
</a>
</g>
</g>
<!-- Node8&#45;&gt;Node14 -->
<g id="edge13_Node000008_Node000014" class="edge">
<title>Node8&#45;&gt;Node14</title>
<g id="a_edge13_Node000008_Node000014"><a xlink:title=" ">
<path fill="none" stroke="#63b8ff" d="M1389.01,-164.98C1417.98,-155.68 1464.4,-140.77 1495.41,-130.81"/>
<polygon fill="#63b8ff" stroke="#63b8ff" points="1496.84,-134.03 1505.29,-127.63 1494.7,-127.36 1496.84,-134.03"/>
</a>
</g>
</g>
<!-- Node15 -->
<g id="Node000015" class="node">
<title>Node15</title>
<g id="a_Node000015"><a xlink:title=" ">
<polygon fill="#e0e0e0" stroke="#999999" points="1615,-129 1568,-129 1568,-110 1615,-110 1615,-129"/>
<text text-anchor="middle" x="1591.5" y="-117" font-family="Helvetica,sans-Serif" font-size="10.00">cmath</text>
</a>
</g>
</g>
<!-- Node8&#45;&gt;Node15 -->
<g id="edge14_Node000008_Node000015" class="edge">
<title>Node8&#45;&gt;Node15</title>
<g id="a_edge14_Node000008_Node000015"><a xlink:title=" ">
<path fill="none" stroke="#63b8ff" d="M1401.62,-164.97C1439.15,-156.7 1497.66,-143.62 1557.69,-129.14"/>
<polygon fill="#63b8ff" stroke="#63b8ff" points="1558.83,-132.47 1567.73,-126.71 1557.18,-125.66 1558.83,-132.47"/>
</a>
</g>
</g>
<!-- Node16 -->
<g id="Node000016" class="node">
<title>Node16</title>
<g id="a_Node000016"><a xlink:title=" ">
<polygon fill="#e0e0e0" stroke="#999999" points="1679.5,-129 1633.5,-129 1633.5,-110 1679.5,-110 1679.5,-129"/>
<text text-anchor="middle" x="1656.5" y="-117" font-family="Helvetica,sans-Serif" font-size="10.00">cstdio</text>
</a>
</g>
</g>
<!-- Node8&#45;&gt;Node16 -->
<g id="edge16_Node000008_Node000016" class="edge">
<title>Node8&#45;&gt;Node16</title>
<g id="a_edge16_Node000008_Node000016"><a xlink:title=" ">
<path fill="none" stroke="#63b8ff" d="M1420.82,-164.98C1473.89,-156.89 1554.27,-143.79 1623.5,-129 1623.6,-128.98 1623.7,-128.96 1623.8,-128.93"/>
<polygon fill="#63b8ff" stroke="#63b8ff" points="1624.53,-132.36 1633.48,-126.69 1622.95,-125.54 1624.53,-132.36"/>
</a>
</g>
</g>
<!-- Node17 -->
<g id="Node000017" class="node">
<title>Node17</title>
<g id="a_Node000017"><a xlink:href="AS5047U__types_8hpp.html" target="_top" xlink:title="Type definitions for the AS5047U driver.">
<polygon fill="white" stroke="#666666" points="1336.5,-74 1222.5,-74 1222.5,-55 1336.5,-55 1336.5,-74"/>
<text text-anchor="middle" x="1279.5" y="-62" font-family="Helvetica,sans-Serif" font-size="10.00">AS5047U_types.hpp</text>
</a>
</g>
</g>
<!-- Node8&#45;&gt;Node17 -->
<g id="edge17_Node000008_Node000017" class="edge">
<title>Node8&#45;&gt;Node17</title>
<g id="a_edge17_Node000008_Node000017"><a xlink:title=" ">
<path fill="none" stroke="#63b8ff" d="M1335.89,-164.98C1318.86,-158.08 1297.9,-146.57 1286.5,-129 1277.92,-115.77 1276.71,-97.65 1277.33,-84.15"/>
<polygon fill="#63b8ff" stroke="#63b8ff" points="1280.83,-84.36 1278.16,-74.11 1273.85,-83.78 1280.83,-84.36"/>
</a>
</g>
</g>
<!-- Node18 -->
<g id="Node000018" class="node">
<title>Node18</title>
<g id="a_Node000018"><a xlink:href="AS5047U__config_8hpp.html" target="_top" xlink:title=" ">
<polygon fill="white" stroke="#666666" points="1239.5,-129 1123.5,-129 1123.5,-110 1239.5,-110 1239.5,-129"/>
<text text-anchor="middle" x="1181.5" y="-117" font-family="Helvetica,sans-Serif" font-size="10.00">AS5047U_config.hpp</text>
</a>
</g>
</g>
<!-- Node8&#45;&gt;Node18 -->
<g id="edge19_Node000008_Node000018" class="edge">
<title>Node8&#45;&gt;Node18</title>
<g id="a_edge19_Node000008_Node000018"><a xlink:title=" ">
<path fill="none" stroke="#63b8ff" d="M1333.42,-164.98C1302.9,-156.05 1254.74,-141.94 1220.84,-132.02"/>
<polygon fill="#63b8ff" stroke="#63b8ff" points="1221.39,-128.53 1210.81,-129.08 1219.42,-135.25 1221.39,-128.53"/>
</a>
</g>
</g>
<!-- Node19 -->
<g id="Node000019" class="node">
<title>Node19</title>
<g id="a_Node000019"><a xlink:href="AS5047U_8cpp.html" target="_top" xlink:title=" ">
<polygon fill="white" stroke="#666666" points="1805,-129 1698,-129 1698,-110 1805,-110 1805,-129"/>
<text text-anchor="middle" x="1751.5" y="-117" font-family="Helvetica,sans-Serif" font-size="10.00">../src/AS5047U.cpp</text>
</a>
</g>
</g>
<!-- Node8&#45;&gt;Node19 -->
<g id="edge22_Node000008_Node000019" class="edge">
<title>Node8&#45;&gt;Node19</title>
<g id="a_edge22_Node000008_Node000019"><a xlink:title=" ">
<path fill="none" stroke="#63b8ff" d="M1419.88,-164.98C1491.41,-154.94 1613.12,-138.36 1687.56,-128.53"/>
<polygon fill="#63b8ff" stroke="#63b8ff" points="1688.28,-131.96 1697.74,-127.19 1687.37,-125.02 1688.28,-131.96"/>
</a>
</g>
</g>
<!-- Node9&#45;&gt;Node10 -->
<g id="edge9_Node000009_Node000010" class="edge">
<title>Node9&#45;&gt;Node10</title>
<g id="a_edge9_Node000009_Node000010"><a xlink:title=" ">
<path fill="none" stroke="#63b8ff" d="M1095.5,-54.75C1095.5,-47.8 1095.5,-37.85 1095.5,-29.13"/>
<polygon fill="#63b8ff" stroke="#63b8ff" points="1099,-29.09 1095.5,-19.09 1092,-29.09 1099,-29.09"/>
</a>
</g>
</g>
<!-- Node17&#45;&gt;Node10 -->
<g id="edge18_Node000017_Node000010" class="edge">
<title>Node17&#45;&gt;Node10</title>
<g id="a_edge18_Node000017_Node000010"><a xlink:title=" ">
<path fill="none" stroke="#63b8ff" d="M1249.94,-54.98C1217.3,-45.58 1164.81,-30.46 1130.23,-20.51"/>
<polygon fill="#63b8ff" stroke="#63b8ff" points="1131.13,-17.12 1120.56,-17.72 1129.2,-23.85 1131.13,-17.12"/>
</a>
</g>
</g>
<!-- Node18&#45;&gt;Node10 -->
<g id="edge20_Node000018_Node000010" class="edge">
<title>Node18&#45;&gt;Node10</title>
<g id="a_edge20_Node000018_Node000010"><a xlink:title=" ">
<path fill="none" stroke="#63b8ff" d="M1182.87,-109.87C1184.47,-96.83 1185.63,-71.84 1174.5,-55 1164.22,-39.45 1146.55,-28.76 1130.52,-21.77"/>
<polygon fill="#63b8ff" stroke="#63b8ff" points="1131.42,-18.36 1120.84,-17.88 1128.81,-24.85 1131.42,-18.36"/>
</a>
</g>
</g>
<!-- Node18&#45;&gt;Node17 -->
<g id="edge21_Node000018_Node000017" class="edge">
<title>Node18&#45;&gt;Node17</title>
<g id="a_edge21_Node000018_Node000017"><a xlink:title=" ">
<path fill="none" stroke="#63b8ff" d="M1197.25,-109.98C1212.73,-101.61 1236.59,-88.7 1254.64,-78.95"/>
<polygon fill="#63b8ff" stroke="#63b8ff" points="1256.34,-82.01 1263.47,-74.17 1253.01,-75.85 1256.34,-82.01"/>
</a>
</g>
</g>
<!-- Node19&#45;&gt;Node8 -->
<g id="edge23_Node000019_Node000008" class="edge">
<title>Node19&#45;&gt;Node8</title>
<g id="a_edge23_Node000019_Node000008"><a xlink:title=" ">
<path fill="none" stroke="#63b8ff" d="M1697.86,-128.49C1629.74,-138.08 1512.07,-154.12 1435.74,-164.24"/>
<polygon fill="#63b8ff" stroke="#63b8ff" points="1435.17,-160.78 1425.72,-165.57 1436.09,-167.72 1435.17,-160.78"/>
</a>
</g>
</g>
<!-- Node20 -->
<g id="Node000020" class="node">
<title>Node20</title>
<g id="a_Node000020"><a xlink:title=" ">
<polygon fill="#e0e0e0" stroke="#999999" points="1779.5,-74 1723.5,-74 1723.5,-55 1779.5,-55 1779.5,-74"/>
<text text-anchor="middle" x="1751.5" y="-62" font-family="Helvetica,sans-Serif" font-size="10.00">iomanip</text>
</a>
</g>
</g>
<!-- Node19&#45;&gt;Node20 -->
<g id="edge24_Node000019_Node000020" class="edge">
<title>Node19&#45;&gt;Node20</title>
<g id="a_edge24_Node000019_Node000020"><a xlink:title=" ">
<path fill="none" stroke="#63b8ff" d="M1751.5,-109.75C1751.5,-102.8 1751.5,-92.85 1751.5,-84.13"/>
<polygon fill="#63b8ff" stroke="#63b8ff" points="1755,-84.09 1751.5,-74.09 1748,-84.09 1755,-84.09"/>
</a>
</g>
</g>
<!-- Node21&#45;&gt;Node3 -->
<g id="edge31_Node000021_Node000003" class="edge">
<title>Node21&#45;&gt;Node3</title>
<g id="a_edge31_Node000021_Node000003"><a xlink:title=" ">
<path fill="none" stroke="#63b8ff" d="M773.5,-219.75C773.5,-212.8 773.5,-202.85 773.5,-194.13"/>
<polygon fill="#63b8ff" stroke="#63b8ff" points="777,-194.09 773.5,-184.09 770,-194.09 777,-194.09"/>
</a>
</g>
</g>
<!-- Node21&#45;&gt;Node6 -->
<g id="edge29_Node000021_Node000006" class="edge">
<title>Node21&#45;&gt;Node6</title>
<g id="a_edge29_Node000021_Node000006"><a xlink:title=" ">
<path fill="none" stroke="#63b8ff" d="M760.81,-219.98C748.67,-211.84 730.14,-199.41 715.75,-189.76"/>
<polygon fill="#63b8ff" stroke="#63b8ff" points="717.68,-186.84 707.42,-184.17 713.78,-192.65 717.68,-186.84"/>
</a>
</g>
</g>
<!-- Node21&#45;&gt;Node8 -->
<g id="edge26_Node000021_Node000008" class="edge">
<title>Node21&#45;&gt;Node8</title>
<g id="a_edge26_Node000021_Node000008"><a xlink:title=" ">
<path fill="none" stroke="#63b8ff" d="M837.34,-221.43C842.13,-220.93 846.89,-220.45 851.5,-220 1007.07,-204.75 1189.56,-189.49 1288.9,-181.41"/>
<polygon fill="#63b8ff" stroke="#63b8ff" points="1289.44,-184.87 1299.13,-180.57 1288.88,-177.9 1289.44,-184.87"/>
</a>
</g>
</g>
<!-- Node21&#45;&gt;Node10 -->
<g id="edge30_Node000021_Node000010" class="edge">
<title>Node21&#45;&gt;Node10</title>
<g id="a_edge30_Node000021_Node000010"><a xlink:title=" ">
<path fill="none" stroke="#63b8ff" d="M821.76,-219.98C863.98,-211.74 921.33,-198.42 939.5,-184 990.43,-143.58 962.1,-100.55 1008.5,-55 1023.07,-40.69 1043.18,-30 1060.39,-22.69"/>
<polygon fill="#63b8ff" stroke="#63b8ff" points="1062.15,-25.75 1070.12,-18.77 1059.54,-19.26 1062.15,-25.75"/>
</a>
</g>
</g>
<!-- Node22 -->
<g id="Node000022" class="node">
<title>Node22</title>
<g id="a_Node000022"><a xlink:title=" ">
<polygon fill="#e0e0e0" stroke="#999999" points="930.5,-184 820.5,-184 820.5,-165 930.5,-165 930.5,-184"/>
<text text-anchor="middle" x="875.5" y="-172" font-family="Helvetica,sans-Serif" font-size="10.00">driver/spi_master.h</text>
</a>
</g>
</g>
<!-- Node21&#45;&gt;Node22 -->
<g id="edge27_Node000021_Node000022" class="edge">
<title>Node21&#45;&gt;Node22</title>
<g id="a_edge27_Node000021_Node000022"><a xlink:title=" ">
<path fill="none" stroke="#63b8ff" d="M789.89,-219.98C806.07,-211.57 831.07,-198.59 849.88,-188.81"/>
<polygon fill="#63b8ff" stroke="#63b8ff" points="851.55,-191.89 858.81,-184.17 848.33,-185.68 851.55,-191.89"/>
</a>
</g>
</g>
<!-- Node23 -->
<g id="Node000023" class="node">
<title>Node23</title>
<g id="a_Node000023"><a xlink:title=" ">
<polygon fill="#e0e0e0" stroke="#999999" points="644.5,-184 566.5,-184 566.5,-165 644.5,-165 644.5,-184"/>
<text text-anchor="middle" x="605.5" y="-172" font-family="Helvetica,sans-Serif" font-size="10.00">driver/gpio.h</text>
</a>
</g>
</g>
<!-- Node21&#45;&gt;Node23 -->
<g id="edge28_Node000021_Node000023" class="edge">
<title>Node21&#45;&gt;Node23</title>
<g id="a_edge28_Node000021_Node000023"><a xlink:title=" ">
<path fill="none" stroke="#63b8ff" d="M746.51,-219.98C718.3,-211.09 673.86,-197.07 642.42,-187.15"/>
<polygon fill="#63b8ff" stroke="#63b8ff" points="643.29,-183.75 632.7,-184.08 641.19,-190.43 643.29,-183.75"/>
</a>
</g>
</g>
<!-- Node24&#45;&gt;Node4 -->
<g id="edge36_Node000024_Node000004" class="edge">
<title>Node24&#45;&gt;Node4</title>
<g id="a_edge36_Node000024_Node000004"><a xlink:title=" ">
<path fill="none" stroke="#63b8ff" d="M446.27,-222.68C376.36,-214.54 245.47,-199.19 122.95,-184.05"/>
<polygon fill="#63b8ff" stroke="#63b8ff" points="123.38,-180.57 113.02,-182.82 122.52,-187.52 123.38,-180.57"/>
</a>
</g>
</g>
<!-- Node24&#45;&gt;Node5 -->
<g id="edge39_Node000024_Node000005" class="edge">
<title>Node24&#45;&gt;Node5</title>
<g id="a_edge39_Node000024_Node000005"><a xlink:title=" ">
<path fill="none" stroke="#63b8ff" d="M446.34,-220.22C387.5,-210.5 290.31,-194.46 229.76,-184.46"/>
<polygon fill="#63b8ff" stroke="#63b8ff" points="230.07,-180.96 219.63,-182.79 228.92,-187.87 230.07,-180.96"/>
</a>
</g>
</g>
<!-- Node24&#45;&gt;Node6 -->
<g id="edge33_Node000024_Node000006" class="edge">
<title>Node24&#45;&gt;Node6</title>
<g id="a_edge33_Node000024_Node000006"><a xlink:title=" ">
<path fill="none" stroke="#63b8ff" d="M528.31,-219.98C562.09,-210.94 615.61,-196.62 652.76,-186.67"/>
<polygon fill="#63b8ff" stroke="#63b8ff" points="654.01,-189.96 662.77,-183.99 652.2,-183.2 654.01,-189.96"/>
</a>
</g>
</g>
<!-- Node24&#45;&gt;Node23 -->
<g id="edge35_Node000024_Node000023" class="edge">
<title>Node24&#45;&gt;Node23</title>
<g id="a_edge35_Node000024_Node000023"><a xlink:title=" ">
<path fill="none" stroke="#63b8ff" d="M514.01,-219.98C531.47,-211.5 558.51,-198.35 578.67,-188.54"/>
<polygon fill="#63b8ff" stroke="#63b8ff" points="580.21,-191.69 587.67,-184.17 577.14,-185.4 580.21,-191.69"/>
</a>
</g>
</g>
<!-- Node25 -->
<g id="Node000025" class="node">
<title>Node25</title>
<g id="a_Node000025"><a xlink:title=" ">
<polygon fill="#e0e0e0" stroke="#999999" points="311.5,-184 237.5,-184 237.5,-165 311.5,-165 311.5,-184"/>
<text text-anchor="middle" x="274.5" y="-172" font-family="Helvetica,sans-Serif" font-size="10.00">esp_timer.h</text>
</a>
</g>
</g>
<!-- Node24&#45;&gt;Node25 -->
<g id="edge34_Node000024_Node000025" class="edge">
<title>Node24&#45;&gt;Node25</title>
<g id="a_edge34_Node000024_Node000025"><a xlink:title=" ">
<path fill="none" stroke="#63b8ff" d="M460.83,-219.98C422.67,-210.87 362.03,-196.4 320.35,-186.45"/>
<polygon fill="#63b8ff" stroke="#63b8ff" points="320.99,-183 310.45,-184.08 319.36,-189.81 320.99,-183"/>
</a>
</g>
</g>
<!-- Node26 -->
<g id="Node000026" class="node">
<title>Node26</title>
<g id="a_Node000026"><a xlink:title=" ">
<polygon fill="#e0e0e0" stroke="#999999" points="427,-184 330,-184 330,-165 427,-165 427,-184"/>
<text text-anchor="middle" x="378.5" y="-172" font-family="Helvetica,sans-Serif" font-size="10.00">freertos/queue.h</text>
</a>
</g>
</g>
<!-- Node24&#45;&gt;Node26 -->
<g id="edge37_Node000024_Node000026" class="edge">
<title>Node24&#45;&gt;Node26</title>
<g id="a_edge37_Node000024_Node000026"><a xlink:title=" ">
<path fill="none" stroke="#63b8ff" d="M477.54,-219.98C458.47,-211.42 428.84,-198.11 406.95,-188.28"/>
<polygon fill="#63b8ff" stroke="#63b8ff" points="408.36,-185.07 397.8,-184.17 405.49,-191.46 408.36,-185.07"/>
</a>
</g>
</g>
<!-- Node27 -->
<g id="Node000027" class="node">
<title>Node27</title>
<g id="a_Node000027"><a xlink:title=" ">
<polygon fill="#e0e0e0" stroke="#999999" points="548,-184 445,-184 445,-165 548,-165 548,-184"/>
<text text-anchor="middle" x="496.5" y="-172" font-family="Helvetica,sans-Serif" font-size="10.00">freertos/semphr.h</text>
</a>
</g>
</g>
<!-- Node24&#45;&gt;Node27 -->
<g id="edge38_Node000024_Node000027" class="edge">
<title>Node24&#45;&gt;Node27</title>
<g id="a_edge38_Node000024_Node000027"><a xlink:title=" ">
<path fill="none" stroke="#63b8ff" d="M496.5,-219.75C496.5,-212.8 496.5,-202.85 496.5,-194.13"/>
<polygon fill="#63b8ff" stroke="#63b8ff" points="500,-194.09 496.5,-184.09 493,-194.09 500,-194.09"/>
</a>
</g>
</g>
</g>
</svg>
