<?xml version="1.0" encoding="UTF-8" standalone="no"?>
<!DOCTYPE svg PUBLIC "-//W3C//DTD SVG 1.1//EN"
 "http://www.w3.org/Graphics/SVG/1.1/DTD/svg11.dtd">
<!-- Generated by graphviz version 2.43.0 (0)
 -->
<!-- Title: examples/esp32/main/esp32_as5047u_bus.hpp Pages: 1 -->
<svg width="534pt" height="159pt"
 viewBox="0.00 0.00 534.00 159.00" xmlns="http://www.w3.org/2000/svg" xmlns:xlink="http://www.w3.org/1999/xlink">
<g id="graph0" class="graph" transform="scale(1 1) rotate(0) translate(4 155)">
<title>examples/esp32/main/esp32_as5047u_bus.hpp</title>
<!-- Node1 -->
<g id="Node000001" class="node">
<title>Node1</title>
<g id="a_Node000001"><a xlink:title="ESP32 SPI transport implementation for AS5047U driver.">
<polygon fill="#999999" stroke="#666666" points="326.5,-151 187.5,-151 187.5,-121 326.5,-121 326.5,-151"/>
<text text-anchor="start" x="195.5" y="-139" font-family="Helvetica,sans-Serif" font-size="10.00">examples/esp32/main</text>
<text text-anchor="middle" x="257" y="-128" font-family="Helvetica,sans-Serif" font-size="10.00">/esp32_as5047u_bus.hpp</text>
</a>
</g>
</g>
<!-- Node2 -->
<g id="Node000002" class="node">
<title>Node2</title>
<g id="a_Node000002"><a xlink:href="as5047u__spi__interface_8hpp.html" target="_top" xlink:title="CRTP&#45;based SPI bus interface for AS5047U driver.">
<polygon fill="white" stroke="#666666" points="106,-85 0,-85 0,-55 106,-55 106,-85"/>
<text text-anchor="start" x="8" y="-73" font-family="Helvetica,sans-Serif" font-size="10.00">../../../inc/as5047u</text>
<text text-anchor="middle" x="53" y="-62" font-family="Helvetica,sans-Serif" font-size="10.00">_spi_interface.hpp</text>
</a>
</g>
</g>
<!-- Node1&#45;&gt;Node2 -->
<g id="edge1_Node000001_Node000002" class="edge">
<title>Node1&#45;&gt;Node2</title>
<g id="a_edge1_Node000001_Node000002"><a xlink:title=" ">
<path fill="none" stroke="#63b8ff" d="M212.23,-120.95C181.41,-111.28 140.27,-98.38 107.53,-88.11"/>
<polygon fill="#63b8ff" stroke="#63b8ff" points="108.25,-84.67 97.66,-85.01 106.16,-91.35 108.25,-84.67"/>
</a>
</g>
</g>
<!-- Node4 -->
<g id="Node000004" class="node">
<title>Node4</title>
<g id="a_Node000004"><a xlink:title=" ">
<polygon fill="#e0e0e0" stroke="#999999" points="153,-19 103,-19 103,0 153,0 153,-19"/>
<text text-anchor="middle" x="128" y="-7" font-family="Helvetica,sans-Serif" font-size="10.00">cstdint</text>
</a>
</g>
</g>
<!-- Node1&#45;&gt;Node4 -->
<g id="edge7_Node000001_Node000004" class="edge">
<title>Node1&#45;&gt;Node4</title>
<g id="a_edge7_Node000001_Node000004"><a xlink:title=" ">
<path fill="none" stroke="#63b8ff" d="M208.6,-120.99C189.03,-113.18 167.65,-101.6 153,-85 139.21,-69.38 132.97,-45.87 130.19,-29.46"/>
<polygon fill="#63b8ff" stroke="#63b8ff" points="133.63,-28.82 128.76,-19.41 126.7,-29.8 133.63,-28.82"/>
</a>
</g>
</g>
<!-- Node5 -->
<g id="Node000005" class="node">
<title>Node5</title>
<g id="a_Node000005"><a xlink:title=" ">
<polygon fill="#e0e0e0" stroke="#999999" points="240,-79.5 162,-79.5 162,-60.5 240,-60.5 240,-79.5"/>
<text text-anchor="middle" x="201" y="-67.5" font-family="Helvetica,sans-Serif" font-size="10.00">driver/gpio.h</text>
</a>
</g>
</g>
<!-- Node1&#45;&gt;Node5 -->
<g id="edge4_Node000001_Node000005" class="edge">
<title>Node1&#45;&gt;Node5</title>
<g id="a_edge4_Node000001_Node000005"><a xlink:title=" ">
<path fill="none" stroke="#63b8ff" d="M244.57,-120.8C235.93,-110.92 224.38,-97.72 215.34,-87.39"/>
<polygon fill="#63b8ff" stroke="#63b8ff" points="217.96,-85.07 208.74,-79.84 212.69,-89.67 217.96,-85.07"/>
</a>
</g>
</g>
<!-- Node6 -->
<g id="Node000006" class="node">
<title>Node6</title>
<g id="a_Node000006"><a xlink:title=" ">
<polygon fill="#e0e0e0" stroke="#999999" points="368,-79.5 258,-79.5 258,-60.5 368,-60.5 368,-79.5"/>
<text text-anchor="middle" x="313" y="-67.5" font-family="Helvetica,sans-Serif" font-size="10.00">driver/spi_master.h</text>
</a>
</g>
</g>
<!-- Node1&#45;&gt;Node6 -->
<g id="edge5_Node000001_Node000006" class="edge">
<title>Node1&#45;&gt;Node6</title>
<g id="a_edge5_Node000001_Node000006"><a xlink:title=" ">
<path fill="none" stroke="#63b8ff" d="M269.43,-120.8C278.07,-110.92 289.62,-97.72 298.66,-87.39"/>
<polygon fill="#63b8ff" stroke="#63b8ff" points="301.31,-89.67 305.26,-79.84 296.04,-85.07 301.31,-89.67"/>
</a>
</g>
</g>
<!-- Node7 -->
<g id="Node000007" class="node">
<title>Node7</title>
<g id="a_Node000007"><a xlink:title=" ">
<polygon fill="#e0e0e0" stroke="#999999" points="449.5,-79.5 386.5,-79.5 386.5,-60.5 449.5,-60.5 449.5,-79.5"/>
<text text-anchor="middle" x="418" y="-67.5" font-family="Helvetica,sans-Serif" font-size="10.00">esp_log.h</text>
</a>
</g>
</g>
<!-- Node1&#45;&gt;Node7 -->
<g id="edge6_Node000001_Node000007" class="edge">
<title>Node1&#45;&gt;Node7</title>
<g id="a_edge6_Node000001_Node000007"><a xlink:title=" ">
<path fill="none" stroke="#63b8ff" d="M292.33,-120.95C320.69,-109.68 360.11,-94.01 387.2,-83.25"/>
<polygon fill="#63b8ff" stroke="#63b8ff" points="388.57,-86.46 396.57,-79.52 385.99,-79.96 388.57,-86.46"/>
</a>
</g>
</g>
<!-- Node8 -->
<g id="Node000008" class="node">
<title>Node8</title>
<g id="a_Node000008"><a xlink:title=" ">
<polygon fill="#e0e0e0" stroke="#999999" points="526,-79.5 468,-79.5 468,-60.5 526,-60.5 526,-79.5"/>
<text text-anchor="middle" x="497" y="-67.5" font-family="Helvetica,sans-Serif" font-size="10.00">memory</text>
</a>
</g>
</g>
<!-- Node1&#45;&gt;Node8 -->
<g id="edge8_Node000001_Node000008" class="edge">
<title>Node1&#45;&gt;Node8</title>
<g id="a_edge8_Node000001_Node000008"><a xlink:title=" ">
<path fill="none" stroke="#63b8ff" d="M321.63,-120.92C361.53,-111.75 413.58,-98.94 459,-85 461.13,-84.35 463.31,-83.64 465.51,-82.9"/>
<polygon fill="#63b8ff" stroke="#63b8ff" points="466.76,-86.17 475.04,-79.56 464.44,-79.57 466.76,-86.17"/>
</a>
</g>
</g>
<!-- Node3 -->
<g id="Node000003" class="node">
<title>Node3</title>
<g id="a_Node000003"><a xlink:title=" ">
<polygon fill="#e0e0e0" stroke="#999999" points="79.5,-19 26.5,-19 26.5,0 79.5,0 79.5,-19"/>
<text text-anchor="middle" x="53" y="-7" font-family="Helvetica,sans-Serif" font-size="10.00">cstddef</text>
</a>
</g>
</g>
<!-- Node2&#45;&gt;Node3 -->
<g id="edge2_Node000002_Node000003" class="edge">
<title>Node2&#45;&gt;Node3</title>
<g id="a_edge2_Node000002_Node000003"><a xlink:title=" ">
<path fill="none" stroke="#63b8ff" d="M53,-54.84C53,-47.21 53,-37.7 53,-29.45"/>
<polygon fill="#63b8ff" stroke="#63b8ff" points="56.5,-29.27 53,-19.27 49.5,-29.27 56.5,-29.27"/>
</a>
</g>
</g>
<!-- Node2&#45;&gt;Node4 -->
<g id="edge3_Node000002_Node000004" class="edge">
<title>Node2&#45;&gt;Node4</title>
<g id="a_edge3_Node000002_Node000004"><a xlink:title=" ">
<path fill="none" stroke="#63b8ff" d="M71.16,-54.84C82.49,-46 97.06,-34.63 108.62,-25.62"/>
<polygon fill="#63b8ff" stroke="#63b8ff" points="111.03,-28.18 116.76,-19.27 106.72,-22.66 111.03,-28.18"/>
</a>
</g>
</g>
</g>
</svg>
