<?xml version="1.0" encoding="UTF-8" standalone="no"?>
<!DOCTYPE svg PUBLIC "-//W3C//DTD SVG 1.1//EN"
 "http://www.w3.org/Graphics/SVG/1.1/DTD/svg11.dtd">
<!-- Generated by graphviz version 2.43.0 (0)
 -->
<!-- Title: examples/esp32/main/velocity_reading_example.cpp Pages: 1 -->
<svg width="1631pt" height="269pt"
 viewBox="0.00 0.00 1631.00 269.00" xmlns="http://www.w3.org/2000/svg" xmlns:xlink="http://www.w3.org/1999/xlink">
<g id="graph0" class="graph" transform="scale(1 1) rotate(0) translate(4 265)">
<title>examples/esp32/main/velocity_reading_example.cpp</title>
<!-- Node1 -->
<g id="Node000001" class="node">
<title>Node1</title>
<g id="a_Node000001"><a xlink:title="Velocity reading example with unit conversions.">
<polygon fill="#999999" stroke="#666666" points="1011,-261 842,-261 842,-231 1011,-231 1011,-261"/>
<text text-anchor="start" x="850" y="-249" font-family="Helvetica,sans-Serif" font-size="10.00">examples/esp32/main</text>
<text text-anchor="middle" x="926.5" y="-238" font-family="Helvetica,sans-Serif" font-size="10.00">/velocity_reading_example.cpp</text>
</a>
</g>
</g>
<!-- Node2 -->
<g id="Node000002" class="node">
<title>Node2</title>
<g id="a_Node000002"><a xlink:title=" ">
<polygon fill="#e0e0e0" stroke="#999999" points="63,-134.5 0,-134.5 0,-115.5 63,-115.5 63,-134.5"/>
<text text-anchor="middle" x="31.5" y="-122.5" font-family="Helvetica,sans-Serif" font-size="10.00">esp_log.h</text>
</a>
</g>
</g>
<!-- Node1&#45;&gt;Node2 -->
<g id="edge1_Node000001_Node000002" class="edge">
<title>Node1&#45;&gt;Node2</title>
<g id="a_edge1_Node000001_Node000002"><a xlink:title=" ">
<path fill="none" stroke="#63b8ff" d="M841.96,-245.9C710.31,-245.75 448.95,-239.17 232.5,-195 169.45,-182.13 99.01,-154.77 60.52,-138.64"/>
<polygon fill="#63b8ff" stroke="#63b8ff" points="61.57,-135.28 51,-134.6 58.84,-141.72 61.57,-135.28"/>
</a>
</g>
</g>
<!-- Node3 -->
<g id="Node000003" class="node">
<title>Node3</title>
<g id="a_Node000003"><a xlink:title=" ">
<polygon fill="#e0e0e0" stroke="#999999" points="1298,-195 1185,-195 1185,-176 1298,-176 1298,-195"/>
<text text-anchor="middle" x="1241.5" y="-183" font-family="Helvetica,sans-Serif" font-size="10.00">freertos/FreeRTOS.h</text>
</a>
</g>
</g>
<!-- Node1&#45;&gt;Node3 -->
<g id="edge2_Node000001_Node000003" class="edge">
<title>Node1&#45;&gt;Node3</title>
<g id="a_edge2_Node000001_Node000003"><a xlink:title=" ">
<path fill="none" stroke="#63b8ff" d="M1001.95,-230.99C1058.43,-220.5 1134.44,-206.38 1185.56,-196.89"/>
<polygon fill="#63b8ff" stroke="#63b8ff" points="1186.25,-200.32 1195.44,-195.05 1184.97,-193.44 1186.25,-200.32"/>
</a>
</g>
</g>
<!-- Node4 -->
<g id="Node000004" class="node">
<title>Node4</title>
<g id="a_Node000004"><a xlink:title=" ">
<polygon fill="#e0e0e0" stroke="#999999" points="1404.5,-195 1316.5,-195 1316.5,-176 1404.5,-176 1404.5,-195"/>
<text text-anchor="middle" x="1360.5" y="-183" font-family="Helvetica,sans-Serif" font-size="10.00">freertos/task.h</text>
</a>
</g>
</g>
<!-- Node1&#45;&gt;Node4 -->
<g id="edge3_Node000001_Node000004" class="edge">
<title>Node1&#45;&gt;Node4</title>
<g id="a_edge3_Node000001_Node000004"><a xlink:title=" ">
<path fill="none" stroke="#63b8ff" d="M1011.34,-234.57C1086.27,-225.2 1198.78,-210.73 1306.22,-195.15"/>
<polygon fill="#63b8ff" stroke="#63b8ff" points="1306.88,-198.59 1316.27,-193.69 1305.87,-191.67 1306.88,-198.59"/>
</a>
</g>
</g>
<!-- Node5 -->
<g id="Node000005" class="node">
<title>Node5</title>
<g id="a_Node000005"><a xlink:title=" ">
<polygon fill="#e0e0e0" stroke="#999999" points="139.5,-134.5 81.5,-134.5 81.5,-115.5 139.5,-115.5 139.5,-134.5"/>
<text text-anchor="middle" x="110.5" y="-122.5" font-family="Helvetica,sans-Serif" font-size="10.00">memory</text>
</a>
</g>
</g>
<!-- Node1&#45;&gt;Node5 -->
<g id="edge4_Node000001_Node000005" class="edge">
<title>Node1&#45;&gt;Node5</title>
<g id="a_edge4_Node000001_Node000005"><a xlink:title=" ">
<path fill="none" stroke="#63b8ff" d="M841.78,-245.44C720.29,-244.45 490.22,-236.54 299.5,-195 240.22,-182.09 174.39,-154.94 138.18,-138.81"/>
<polygon fill="#63b8ff" stroke="#63b8ff" points="139.33,-135.5 128.78,-134.58 136.46,-141.88 139.33,-135.5"/>
</a>
</g>
</g>
<!-- Node6 -->
<g id="Node000006" class="node">
<title>Node6</title>
<g id="a_Node000006"><a xlink:title=" ">
<polygon fill="#e0e0e0" stroke="#999999" points="1472.5,-195 1422.5,-195 1422.5,-176 1472.5,-176 1472.5,-195"/>
<text text-anchor="middle" x="1447.5" y="-183" font-family="Helvetica,sans-Serif" font-size="10.00">stdio.h</text>
</a>
</g>
</g>
<!-- Node1&#45;&gt;Node6 -->
<g id="edge5_Node000001_Node000006" class="edge">
<title>Node1&#45;&gt;Node6</title>
<g id="a_edge5_Node000001_Node000006"><a xlink:title=" ">
<path fill="none" stroke="#63b8ff" d="M1011.03,-239.99C1106.37,-233.52 1266.11,-220.18 1412.28,-194.97"/>
<polygon fill="#63b8ff" stroke="#63b8ff" points="1413.09,-198.38 1422.33,-193.22 1411.88,-191.49 1413.09,-198.38"/>
</a>
</g>
</g>
<!-- Node7 -->
<g id="Node000007" class="node">
<title>Node7</title>
<g id="a_Node000007"><a xlink:href="as5047u_8hpp.html" target="_top" xlink:title="Driver for AMS AS5047U Magnetic Rotary Position Sensor (C++21).">
<polygon fill="white" stroke="#666666" points="1167,-195 1044,-195 1044,-176 1167,-176 1167,-195"/>
<text text-anchor="middle" x="1105.5" y="-183" font-family="Helvetica,sans-Serif" font-size="10.00">../../../inc/as5047u.hpp</text>
</a>
</g>
</g>
<!-- Node1&#45;&gt;Node7 -->
<g id="edge6_Node000001_Node000007" class="edge">
<title>Node1&#45;&gt;Node7</title>
<g id="a_edge6_Node000001_Node000007"><a xlink:title=" ">
<path fill="none" stroke="#63b8ff" d="M969.37,-230.99C1000,-220.98 1040.73,-207.67 1069.63,-198.22"/>
<polygon fill="#63b8ff" stroke="#63b8ff" points="1070.91,-201.49 1079.33,-195.05 1068.73,-194.83 1070.91,-201.49"/>
</a>
</g>
</g>
<!-- Node23 -->
<g id="Node000023" class="node">
<title>Node23</title>
<g id="a_Node000023"><a xlink:href="esp32__as5047u__bus_8hpp.html" target="_top" xlink:title="ESP32 SPI transport implementation for AS5047U driver (header&#45;only)">
<polygon fill="white" stroke="#666666" points="444.5,-195 308.5,-195 308.5,-176 444.5,-176 444.5,-195"/>
<text text-anchor="middle" x="376.5" y="-183" font-family="Helvetica,sans-Serif" font-size="10.00">esp32_as5047u_bus.hpp</text>
</a>
</g>
</g>
<!-- Node1&#45;&gt;Node23 -->
<g id="edge28_Node000001_Node000023" class="edge">
<title>Node1&#45;&gt;Node23</title>
<g id="a_edge28_Node000001_Node000023"><a xlink:title=" ">
<path fill="none" stroke="#63b8ff" d="M841.77,-235.99C736.2,-224.76 557.27,-205.73 454.79,-194.83"/>
<polygon fill="#63b8ff" stroke="#63b8ff" points="455.13,-191.34 444.82,-193.77 454.39,-198.3 455.13,-191.34"/>
</a>
</g>
</g>
<!-- Node24 -->
<g id="Node000024" class="node">
<title>Node24</title>
<g id="a_Node000024"><a xlink:href="esp32__as5047u__test__config_8hpp.html" target="_top" xlink:title="Hardware configuration for AS5047U driver on ESP32&#45;C6.">
<polygon fill="white" stroke="#666666" points="603.5,-140 487.5,-140 487.5,-110 603.5,-110 603.5,-140"/>
<text text-anchor="start" x="495.5" y="-128" font-family="Helvetica,sans-Serif" font-size="10.00">esp32_as5047u_test</text>
<text text-anchor="middle" x="545.5" y="-117" font-family="Helvetica,sans-Serif" font-size="10.00">_config.hpp</text>
</a>
</g>
</g>
<!-- Node1&#45;&gt;Node24 -->
<g id="edge38_Node000001_Node000024" class="edge">
<title>Node1&#45;&gt;Node24</title>
<g id="a_edge38_Node000001_Node000024"><a xlink:title=" ">
<path fill="none" stroke="#63b8ff" d="M881.67,-231C811.55,-209.1 676.1,-166.79 600.29,-143.11"/>
<polygon fill="#63b8ff" stroke="#63b8ff" points="601.04,-139.68 590.45,-140.04 598.95,-146.36 601.04,-139.68"/>
</a>
</g>
</g>
<!-- Node8 -->
<g id="Node000008" class="node">
<title>Node8</title>
<g id="a_Node000008"><a xlink:href="as5047u__spi__interface_8hpp.html" target="_top" xlink:title="CRTP&#45;based SPI bus interface for AS5047U driver.">
<polygon fill="white" stroke="#666666" points="769,-134.5 622,-134.5 622,-115.5 769,-115.5 769,-134.5"/>
<text text-anchor="middle" x="695.5" y="-122.5" font-family="Helvetica,sans-Serif" font-size="10.00">as5047u_spi_interface.hpp</text>
</a>
</g>
</g>
<!-- Node7&#45;&gt;Node8 -->
<g id="edge7_Node000007_Node000008" class="edge">
<title>Node7&#45;&gt;Node8</title>
<g id="a_edge7_Node000007_Node000008"><a xlink:title=" ">
<path fill="none" stroke="#63b8ff" d="M1043.72,-176.34C978.85,-167.69 873.93,-153.44 783.5,-140 775.25,-138.77 766.57,-137.44 758.02,-136.11"/>
<polygon fill="#63b8ff" stroke="#63b8ff" points="758.48,-132.64 748.06,-134.54 757.39,-139.55 758.48,-132.64"/>
</a>
</g>
</g>
<!-- Node10 -->
<g id="Node000010" class="node">
<title>Node10</title>
<g id="a_Node000010"><a xlink:title=" ">
<polygon fill="#e0e0e0" stroke="#999999" points="823.5,-19 773.5,-19 773.5,0 823.5,0 823.5,-19"/>
<text text-anchor="middle" x="798.5" y="-7" font-family="Helvetica,sans-Serif" font-size="10.00">cstdint</text>
</a>
</g>
</g>
<!-- Node7&#45;&gt;Node10 -->
<g id="edge17_Node000007_Node000010" class="edge">
<title>Node7&#45;&gt;Node10</title>
<g id="a_edge17_Node000007_Node000010"><a xlink:title=" ">
<path fill="none" stroke="#63b8ff" d="M1162.28,-175.95C1183.57,-169.68 1205.68,-158.82 1218.5,-140 1240.59,-107.55 1226.09,-78.3 1194.5,-55 1137.65,-13.06 919.47,-9.72 833.56,-10.08"/>
<polygon fill="#63b8ff" stroke="#63b8ff" points="833.5,-6.58 823.52,-10.14 833.54,-13.58 833.5,-6.58"/>
</a>
</g>
</g>
<!-- Node11 -->
<g id="Node000011" class="node">
<title>Node11</title>
<g id="a_Node000011"><a xlink:href="as5047u__registers_8hpp.html" target="_top" xlink:title="Register definitions for the AS5047U Rotary Position Sensor.">
<polygon fill="white" stroke="#666666" points="1393,-74 1266,-74 1266,-55 1393,-55 1393,-74"/>
<text text-anchor="middle" x="1329.5" y="-62" font-family="Helvetica,sans-Serif" font-size="10.00">as5047u_registers.hpp</text>
</a>
</g>
</g>
<!-- Node7&#45;&gt;Node11 -->
<g id="edge10_Node000007_Node000011" class="edge">
<title>Node7&#45;&gt;Node11</title>
<g id="a_edge10_Node000007_Node000011"><a xlink:title=" ">
<path fill="none" stroke="#63b8ff" d="M1152.82,-175.95C1182.57,-169.19 1220.96,-157.86 1251.5,-140 1277.65,-124.71 1301.91,-98.98 1316.21,-82.13"/>
<polygon fill="#63b8ff" stroke="#63b8ff" points="1319.07,-84.16 1322.74,-74.22 1313.68,-79.7 1319.07,-84.16"/>
</a>
</g>
</g>
<!-- Node12 -->
<g id="Node000012" class="node">
<title>Node12</title>
<g id="a_Node000012"><a xlink:title=" ">
<polygon fill="#e0e0e0" stroke="#999999" points="1367.5,-134.5 1303.5,-134.5 1303.5,-115.5 1367.5,-115.5 1367.5,-134.5"/>
<text text-anchor="middle" x="1335.5" y="-122.5" font-family="Helvetica,sans-Serif" font-size="10.00">algorithm</text>
</a>
</g>
</g>
<!-- Node7&#45;&gt;Node12 -->
<g id="edge12_Node000007_Node000012" class="edge">
<title>Node7&#45;&gt;Node12</title>
<g id="a_edge12_Node000007_Node000012"><a xlink:title=" ">
<path fill="none" stroke="#63b8ff" d="M1143.72,-175.94C1181.06,-167.42 1239.4,-153.67 1289.5,-140 1292.46,-139.19 1295.53,-138.33 1298.6,-137.44"/>
<polygon fill="#63b8ff" stroke="#63b8ff" points="1299.74,-140.75 1308.33,-134.55 1297.75,-134.04 1299.74,-140.75"/>
</a>
</g>
</g>
<!-- Node13 -->
<g id="Node000013" class="node">
<title>Node13</title>
<g id="a_Node000013"><a xlink:title=" ">
<polygon fill="#e0e0e0" stroke="#999999" points="1427.5,-134.5 1385.5,-134.5 1385.5,-115.5 1427.5,-115.5 1427.5,-134.5"/>
<text text-anchor="middle" x="1406.5" y="-122.5" font-family="Helvetica,sans-Serif" font-size="10.00">array</text>
</a>
</g>
</g>
<!-- Node7&#45;&gt;Node13 -->
<g id="edge13_Node000007_Node000013" class="edge">
<title>Node7&#45;&gt;Node13</title>
<g id="a_edge13_Node000007_Node000013"><a xlink:title=" ">
<path fill="none" stroke="#63b8ff" d="M1167.2,-176.37C1234.73,-167.11 1338.46,-151.75 1376.5,-140 1377.94,-139.55 1379.4,-139.05 1380.86,-138.51"/>
<polygon fill="#63b8ff" stroke="#63b8ff" points="1382.46,-141.64 1390.32,-134.54 1379.74,-135.19 1382.46,-141.64"/>
</a>
</g>
</g>
<!-- Node14 -->
<g id="Node000014" class="node">
<title>Node14</title>
<g id="a_Node000014"><a xlink:title=" ">
<polygon fill="#e0e0e0" stroke="#999999" points="1495.5,-134.5 1445.5,-134.5 1445.5,-115.5 1495.5,-115.5 1495.5,-134.5"/>
<text text-anchor="middle" x="1470.5" y="-122.5" font-family="Helvetica,sans-Serif" font-size="10.00">atomic</text>
</a>
</g>
</g>
<!-- Node7&#45;&gt;Node14 -->
<g id="edge14_Node000007_Node000014" class="edge">
<title>Node7&#45;&gt;Node14</title>
<g id="a_edge14_Node000007_Node000014"><a xlink:title=" ">
<path fill="none" stroke="#63b8ff" d="M1167.19,-177.07C1255.76,-166.28 1411.12,-146.81 1436.5,-140 1438.44,-139.48 1440.42,-138.87 1442.4,-138.21"/>
<polygon fill="#63b8ff" stroke="#63b8ff" points="1443.95,-141.37 1452.09,-134.59 1441.5,-134.81 1443.95,-141.37"/>
</a>
</g>
</g>
<!-- Node15 -->
<g id="Node000015" class="node">
<title>Node15</title>
<g id="a_Node000015"><a xlink:title=" ">
<polygon fill="#e0e0e0" stroke="#999999" points="1557.5,-134.5 1513.5,-134.5 1513.5,-115.5 1557.5,-115.5 1557.5,-134.5"/>
<text text-anchor="middle" x="1535.5" y="-122.5" font-family="Helvetica,sans-Serif" font-size="10.00">bitset</text>
</a>
</g>
</g>
<!-- Node7&#45;&gt;Node15 -->
<g id="edge15_Node000007_Node000015" class="edge">
<title>Node7&#45;&gt;Node15</title>
<g id="a_edge15_Node000007_Node000015"><a xlink:title=" ">
<path fill="none" stroke="#63b8ff" d="M1167.07,-177.09C1170.26,-176.72 1173.42,-176.35 1176.5,-176 1322.2,-159.28 1363.03,-178.66 1504.5,-140 1506.18,-139.54 1507.89,-139 1509.6,-138.4"/>
<polygon fill="#63b8ff" stroke="#63b8ff" points="1511.17,-141.54 1519.13,-134.55 1508.54,-135.05 1511.17,-141.54"/>
</a>
</g>
</g>
<!-- Node16 -->
<g id="Node000016" class="node">
<title>Node16</title>
<g id="a_Node000016"><a xlink:title=" ">
<polygon fill="#e0e0e0" stroke="#999999" points="1623,-134.5 1576,-134.5 1576,-115.5 1623,-115.5 1623,-134.5"/>
<text text-anchor="middle" x="1599.5" y="-122.5" font-family="Helvetica,sans-Serif" font-size="10.00">cmath</text>
</a>
</g>
</g>
<!-- Node7&#45;&gt;Node16 -->
<g id="edge16_Node000007_Node000016" class="edge">
<title>Node7&#45;&gt;Node16</title>
<g id="a_edge16_Node000007_Node000016"><a xlink:title=" ">
<path fill="none" stroke="#63b8ff" d="M1167.06,-177.03C1170.25,-176.67 1173.41,-176.33 1176.5,-176 1349.6,-157.65 1397.7,-182.5 1566.5,-140 1568.45,-139.51 1570.43,-138.92 1572.4,-138.27"/>
<polygon fill="#63b8ff" stroke="#63b8ff" points="1573.94,-141.43 1582.04,-134.59 1571.45,-134.88 1573.94,-141.43"/>
</a>
</g>
</g>
<!-- Node17 -->
<g id="Node000017" class="node">
<title>Node17</title>
<g id="a_Node000017"><a xlink:title=" ">
<polygon fill="#e0e0e0" stroke="#999999" points="1003.5,-134.5 957.5,-134.5 957.5,-115.5 1003.5,-115.5 1003.5,-134.5"/>
<text text-anchor="middle" x="980.5" y="-122.5" font-family="Helvetica,sans-Serif" font-size="10.00">cstdio</text>
</a>
</g>
</g>
<!-- Node7&#45;&gt;Node17 -->
<g id="edge18_Node000007_Node000017" class="edge">
<title>Node7&#45;&gt;Node17</title>
<g id="a_edge18_Node000007_Node000017"><a xlink:title=" ">
<path fill="none" stroke="#63b8ff" d="M1087.32,-175.99C1066.49,-166.25 1032.13,-150.16 1008.02,-138.88"/>
<polygon fill="#63b8ff" stroke="#63b8ff" points="1009.24,-135.59 998.7,-134.52 1006.27,-141.93 1009.24,-135.59"/>
</a>
</g>
</g>
<!-- Node18 -->
<g id="Node000018" class="node">
<title>Node18</title>
<g id="a_Node000018"><a xlink:title=" ">
<polygon fill="#e0e0e0" stroke="#999999" points="1087,-134.5 1022,-134.5 1022,-115.5 1087,-115.5 1087,-134.5"/>
<text text-anchor="middle" x="1054.5" y="-122.5" font-family="Helvetica,sans-Serif" font-size="10.00">functional</text>
</a>
</g>
</g>
<!-- Node7&#45;&gt;Node18 -->
<g id="edge19_Node000007_Node000018" class="edge">
<title>Node7&#45;&gt;Node18</title>
<g id="a_edge19_Node000007_Node000018"><a xlink:title=" ">
<path fill="none" stroke="#63b8ff" d="M1097.97,-175.87C1090.29,-167.05 1078.18,-153.16 1068.69,-142.27"/>
<polygon fill="#63b8ff" stroke="#63b8ff" points="1071.27,-139.91 1062.06,-134.67 1065.99,-144.51 1071.27,-139.91"/>
</a>
</g>
</g>
<!-- Node19 -->
<g id="Node000019" class="node">
<title>Node19</title>
<g id="a_Node000019"><a xlink:href="as5047u__types_8hpp.html" target="_top" xlink:title="Type definitions for the AS5047U driver.">
<polygon fill="white" stroke="#666666" points="854,-74 743,-74 743,-55 854,-55 854,-74"/>
<text text-anchor="middle" x="798.5" y="-62" font-family="Helvetica,sans-Serif" font-size="10.00">as5047u_types.hpp</text>
</a>
</g>
</g>
<!-- Node7&#45;&gt;Node19 -->
<g id="edge20_Node000007_Node000019" class="edge">
<title>Node7&#45;&gt;Node19</title>
<g id="a_edge20_Node000007_Node000019"><a xlink:title=" ">
<path fill="none" stroke="#63b8ff" d="M1043.88,-182.75C969.34,-179.34 849.81,-169.33 817.5,-140 802.16,-126.08 798.44,-101.66 797.88,-84.58"/>
<polygon fill="#63b8ff" stroke="#63b8ff" points="801.38,-84.16 797.9,-74.16 794.38,-84.15 801.38,-84.16"/>
</a>
</g>
</g>
<!-- Node20 -->
<g id="Node000020" class="node">
<title>Node20</title>
<g id="a_Node000020"><a xlink:href="as5047u__config_8hpp.html" target="_top" xlink:title=" ">
<polygon fill="white" stroke="#666666" points="939,-134.5 826,-134.5 826,-115.5 939,-115.5 939,-134.5"/>
<text text-anchor="middle" x="882.5" y="-122.5" font-family="Helvetica,sans-Serif" font-size="10.00">as5047u_config.hpp</text>
</a>
</g>
</g>
<!-- Node7&#45;&gt;Node20 -->
<g id="edge22_Node000007_Node000020" class="edge">
<title>Node7&#45;&gt;Node20</title>
<g id="a_edge22_Node000007_Node000020"><a xlink:title=" ">
<path fill="none" stroke="#63b8ff" d="M1073.07,-175.99C1033.93,-165.73 968.01,-148.43 924.87,-137.12"/>
<polygon fill="#63b8ff" stroke="#63b8ff" points="925.53,-133.67 914.97,-134.52 923.75,-140.44 925.53,-133.67"/>
</a>
</g>
</g>
<!-- Node21 -->
<g id="Node000021" class="node">
<title>Node21</title>
<g id="a_Node000021"><a xlink:href="as5047u_8cpp.html" target="_top" xlink:title=" ">
<polygon fill="white" stroke="#666666" points="1209.5,-134.5 1105.5,-134.5 1105.5,-115.5 1209.5,-115.5 1209.5,-134.5"/>
<text text-anchor="middle" x="1157.5" y="-122.5" font-family="Helvetica,sans-Serif" font-size="10.00">../src/as5047u.cpp</text>
</a>
</g>
</g>
<!-- Node7&#45;&gt;Node21 -->
<g id="edge25_Node000007_Node000021" class="edge">
<title>Node7&#45;&gt;Node21</title>
<g id="a_edge25_Node000007_Node000021"><a xlink:title=" ">
<path fill="none" stroke="#63b8ff" d="M1108.22,-175.87C1114.26,-166.88 1126.58,-152.61 1137.55,-141.64"/>
<polygon fill="#63b8ff" stroke="#63b8ff" points="1140.03,-144.11 1144.83,-134.67 1135.19,-139.05 1140.03,-144.11"/>
</a>
</g>
</g>
<!-- Node9 -->
<g id="Node000009" class="node">
<title>Node9</title>
<g id="a_Node000009"><a xlink:title=" ">
<polygon fill="#e0e0e0" stroke="#999999" points="686,-74 633,-74 633,-55 686,-55 686,-74"/>
<text text-anchor="middle" x="659.5" y="-62" font-family="Helvetica,sans-Serif" font-size="10.00">cstddef</text>
</a>
</g>
</g>
<!-- Node8&#45;&gt;Node9 -->
<g id="edge8_Node000008_Node000009" class="edge">
<title>Node8&#45;&gt;Node9</title>
<g id="a_edge8_Node000008_Node000009"><a xlink:title=" ">
<path fill="none" stroke="#63b8ff" d="M690.19,-115.37C684.92,-106.81 676.71,-93.47 670.11,-82.74"/>
<polygon fill="#63b8ff" stroke="#63b8ff" points="673.06,-80.85 664.83,-74.17 667.09,-84.52 673.06,-80.85"/>
</a>
</g>
</g>
<!-- Node8&#45;&gt;Node10 -->
<g id="edge9_Node000008_Node000010" class="edge">
<title>Node8&#45;&gt;Node10</title>
<g id="a_edge9_Node000008_Node000010"><a xlink:title=" ">
<path fill="none" stroke="#63b8ff" d="M698.97,-115.14C704.76,-101.17 717.45,-73.72 734.5,-55 745.65,-42.76 760.75,-32.06 773.49,-24.22"/>
<polygon fill="#63b8ff" stroke="#63b8ff" points="775.43,-27.14 782.25,-19.04 771.86,-21.12 775.43,-27.14"/>
</a>
</g>
</g>
<!-- Node11&#45;&gt;Node10 -->
<g id="edge11_Node000011_Node000010" class="edge">
<title>Node11&#45;&gt;Node10</title>
<g id="a_edge11_Node000011_Node000010"><a xlink:title=" ">
<path fill="none" stroke="#63b8ff" d="M1265.66,-56.49C1260.87,-55.98 1256.11,-55.48 1251.5,-55 1095.72,-38.86 909.66,-21.04 833.55,-13.82"/>
<polygon fill="#63b8ff" stroke="#63b8ff" points="833.84,-10.33 823.55,-12.87 833.18,-17.3 833.84,-10.33"/>
</a>
</g>
</g>
<!-- Node19&#45;&gt;Node10 -->
<g id="edge21_Node000019_Node000010" class="edge">
<title>Node19&#45;&gt;Node10</title>
<g id="a_edge21_Node000019_Node000010"><a xlink:title=" ">
<path fill="none" stroke="#63b8ff" d="M798.5,-54.75C798.5,-47.8 798.5,-37.85 798.5,-29.13"/>
<polygon fill="#63b8ff" stroke="#63b8ff" points="802,-29.09 798.5,-19.09 795,-29.09 802,-29.09"/>
</a>
</g>
</g>
<!-- Node20&#45;&gt;Node10 -->
<g id="edge23_Node000020_Node000010" class="edge">
<title>Node20&#45;&gt;Node10</title>
<g id="a_edge23_Node000020_Node000010"><a xlink:title=" ">
<path fill="none" stroke="#63b8ff" d="M881.99,-115.11C880.78,-101.11 876.78,-73.61 863.5,-55 854.17,-41.92 839.71,-31.47 826.8,-24"/>
<polygon fill="#63b8ff" stroke="#63b8ff" points="828.22,-20.79 817.77,-19.08 824.88,-26.94 828.22,-20.79"/>
</a>
</g>
</g>
<!-- Node20&#45;&gt;Node19 -->
<g id="edge24_Node000020_Node000019" class="edge">
<title>Node20&#45;&gt;Node19</title>
<g id="a_edge24_Node000020_Node000019"><a xlink:title=" ">
<path fill="none" stroke="#63b8ff" d="M870.11,-115.37C856.71,-106.04 835.12,-91.01 819.15,-79.88"/>
<polygon fill="#63b8ff" stroke="#63b8ff" points="821.15,-77.01 810.95,-74.17 817.15,-82.75 821.15,-77.01"/>
</a>
</g>
</g>
<!-- Node21&#45;&gt;Node7 -->
<g id="edge26_Node000021_Node000007" class="edge">
<title>Node21&#45;&gt;Node7</title>
<g id="a_edge26_Node000021_Node000007"><a xlink:title=" ">
<path fill="none" stroke="#63b8ff" d="M1154.76,-134.67C1148.7,-143.67 1136.37,-157.94 1125.41,-168.91"/>
<polygon fill="#63b8ff" stroke="#63b8ff" points="1122.94,-166.43 1118.13,-175.87 1127.77,-171.49 1122.94,-166.43"/>
</a>
</g>
</g>
<!-- Node22 -->
<g id="Node000022" class="node">
<title>Node22</title>
<g id="a_Node000022"><a xlink:title=" ">
<polygon fill="#e0e0e0" stroke="#999999" points="1185.5,-74 1129.5,-74 1129.5,-55 1185.5,-55 1185.5,-74"/>
<text text-anchor="middle" x="1157.5" y="-62" font-family="Helvetica,sans-Serif" font-size="10.00">iomanip</text>
</a>
</g>
</g>
<!-- Node21&#45;&gt;Node22 -->
<g id="edge27_Node000021_Node000022" class="edge">
<title>Node21&#45;&gt;Node22</title>
<g id="a_edge27_Node000021_Node000022"><a xlink:title=" ">
<path fill="none" stroke="#63b8ff" d="M1157.5,-115.37C1157.5,-107.25 1157.5,-94.81 1157.5,-84.39"/>
<polygon fill="#63b8ff" stroke="#63b8ff" points="1161,-84.17 1157.5,-74.17 1154,-84.17 1161,-84.17"/>
</a>
</g>
</g>
<!-- Node23&#45;&gt;Node2 -->
<g id="edge34_Node000023_Node000002" class="edge">
<title>Node23&#45;&gt;Node2</title>
<g id="a_edge34_Node000023_Node000002"><a xlink:title=" ">
<path fill="none" stroke="#63b8ff" d="M308.2,-178.13C246.14,-171.49 152.34,-159.3 72.5,-140 69.69,-139.32 66.8,-138.53 63.92,-137.68"/>
<polygon fill="#63b8ff" stroke="#63b8ff" points="64.86,-134.3 54.27,-134.6 62.73,-140.97 64.86,-134.3"/>
</a>
</g>
</g>
<!-- Node23&#45;&gt;Node5 -->
<g id="edge37_Node000023_Node000005" class="edge">
<title>Node23&#45;&gt;Node5</title>
<g id="a_edge37_Node000023_Node000005"><a xlink:title=" ">
<path fill="none" stroke="#63b8ff" d="M319.22,-175.93C272.75,-168.36 205.79,-156.03 148.5,-140 146.21,-139.36 143.87,-138.65 141.53,-137.89"/>
<polygon fill="#63b8ff" stroke="#63b8ff" points="142.6,-134.56 132.01,-134.6 140.32,-141.17 142.6,-134.56"/>
</a>
</g>
</g>
<!-- Node23&#45;&gt;Node8 -->
<g id="edge29_Node000023_Node000008" class="edge">
<title>Node23&#45;&gt;Node8</title>
<g id="a_edge29_Node000023_Node000008"><a xlink:title=" ">
<path fill="none" stroke="#63b8ff" d="M422.89,-175.99C480.18,-165.49 577.58,-147.62 639.13,-136.34"/>
<polygon fill="#63b8ff" stroke="#63b8ff" points="639.85,-139.76 649.06,-134.52 638.59,-132.88 639.85,-139.76"/>
</a>
</g>
</g>
<!-- Node23&#45;&gt;Node10 -->
<g id="edge35_Node000023_Node000010" class="edge">
<title>Node23&#45;&gt;Node10</title>
<g id="a_edge35_Node000023_Node000010"><a xlink:title=" ">
<path fill="none" stroke="#63b8ff" d="M389.41,-175.86C402.45,-167.05 423.11,-152.9 440.5,-140 457.79,-127.19 460.24,-121.38 478.5,-110 526.59,-80.04 539.9,-73.36 593.5,-55 651.5,-35.14 721.87,-22.15 763.26,-15.59"/>
<polygon fill="#63b8ff" stroke="#63b8ff" points="764.03,-19.01 773.38,-14.02 762.96,-12.1 764.03,-19.01"/>
</a>
</g>
</g>
<!-- Node23&#45;&gt;Node24 -->
<g id="edge30_Node000023_Node000024" class="edge">
<title>Node23&#45;&gt;Node24</title>
<g id="a_edge30_Node000023_Node000024"><a xlink:title=" ">
<path fill="none" stroke="#63b8ff" d="M401.07,-175.99C425.61,-167.5 464.03,-154.2 495.08,-143.45"/>
<polygon fill="#63b8ff" stroke="#63b8ff" points="496.56,-146.64 504.87,-140.06 494.28,-140.03 496.56,-146.64"/>
</a>
</g>
</g>
<!-- Node25 -->
<g id="Node000025" class="node">
<title>Node25</title>
<g id="a_Node000025"><a xlink:title=" ">
<polygon fill="#e0e0e0" stroke="#999999" points="303.5,-134.5 225.5,-134.5 225.5,-115.5 303.5,-115.5 303.5,-134.5"/>
<text text-anchor="middle" x="264.5" y="-122.5" font-family="Helvetica,sans-Serif" font-size="10.00">driver/gpio.h</text>
</a>
</g>
</g>
<!-- Node23&#45;&gt;Node25 -->
<g id="edge32_Node000023_Node000025" class="edge">
<title>Node23&#45;&gt;Node25</title>
<g id="a_edge32_Node000023_Node000025"><a xlink:title=" ">
<path fill="none" stroke="#63b8ff" d="M359.97,-175.87C341.53,-166.23 311.46,-150.53 289.99,-139.31"/>
<polygon fill="#63b8ff" stroke="#63b8ff" points="291.58,-136.19 281.09,-134.67 288.34,-142.4 291.58,-136.19"/>
</a>
</g>
</g>
<!-- Node26 -->
<g id="Node000026" class="node">
<title>Node26</title>
<g id="a_Node000026"><a xlink:title=" ">
<polygon fill="#e0e0e0" stroke="#999999" points="431.5,-134.5 321.5,-134.5 321.5,-115.5 431.5,-115.5 431.5,-134.5"/>
<text text-anchor="middle" x="376.5" y="-122.5" font-family="Helvetica,sans-Serif" font-size="10.00">driver/spi_master.h</text>
</a>
</g>
</g>
<!-- Node23&#45;&gt;Node26 -->
<g id="edge33_Node000023_Node000026" class="edge">
<title>Node23&#45;&gt;Node26</title>
<g id="a_edge33_Node000023_Node000026"><a xlink:title=" ">
<path fill="none" stroke="#63b8ff" d="M376.5,-175.87C376.5,-167.75 376.5,-155.31 376.5,-144.89"/>
<polygon fill="#63b8ff" stroke="#63b8ff" points="380,-144.67 376.5,-134.67 373,-144.67 380,-144.67"/>
</a>
</g>
</g>
<!-- Node27 -->
<g id="Node000027" class="node">
<title>Node27</title>
<g id="a_Node000027"><a xlink:title=" ">
<polygon fill="#e0e0e0" stroke="#999999" points="207.5,-134.5 157.5,-134.5 157.5,-115.5 207.5,-115.5 207.5,-134.5"/>
<text text-anchor="middle" x="182.5" y="-122.5" font-family="Helvetica,sans-Serif" font-size="10.00">cstring</text>
</a>
</g>
</g>
<!-- Node23&#45;&gt;Node27 -->
<g id="edge36_Node000023_Node000027" class="edge">
<title>Node23&#45;&gt;Node27</title>
<g id="a_edge36_Node000023_Node000027"><a xlink:title=" ">
<path fill="none" stroke="#63b8ff" d="M341.17,-175.97C308.5,-167.77 258.76,-154.52 216.5,-140 214.88,-139.44 213.23,-138.85 211.57,-138.23"/>
<polygon fill="#63b8ff" stroke="#63b8ff" points="212.71,-134.92 202.12,-134.55 210.17,-141.44 212.71,-134.92"/>
</a>
</g>
</g>
<!-- Node24&#45;&gt;Node10 -->
<g id="edge31_Node000024_Node000010" class="edge">
<title>Node24&#45;&gt;Node10</title>
<g id="a_edge31_Node000024_Node000010"><a xlink:title=" ">
<path fill="none" stroke="#63b8ff" d="M557.55,-109.9C571.75,-94.18 596.81,-69.12 623.5,-55 668.39,-31.25 726.55,-19.74 763.21,-14.49"/>
<polygon fill="#63b8ff" stroke="#63b8ff" points="763.96,-17.92 773.4,-13.11 763.02,-10.98 763.96,-17.92"/>
</a>
</g>
</g>
</g>
</svg>
