<?xml version="1.0" encoding="UTF-8" standalone="no"?>
<!DOCTYPE svg PUBLIC "-//W3C//DTD SVG 1.1//EN"
 "http://www.w3.org/Graphics/SVG/1.1/DTD/svg11.dtd">
<!-- Generated by graphviz version 2.43.0 (0)
 -->
<!-- Title: examples/esp32/main/velocity_reading_example.cpp Pages: 1 -->
<svg width="1692pt" height="269pt"
 viewBox="0.00 0.00 1691.50 269.00" xmlns="http://www.w3.org/2000/svg" xmlns:xlink="http://www.w3.org/1999/xlink">
<g id="graph0" class="graph" transform="scale(1 1) rotate(0) translate(4 265)">
<title>examples/esp32/main/velocity_reading_example.cpp</title>
<!-- Node1 -->
<g id="Node000001" class="node">
<title>Node1</title>
<g id="a_Node000001"><a xlink:title="Velocity reading example with unit conversions.">
<polygon fill="#999999" stroke="#666666" points="922,-261 753,-261 753,-231 922,-231 922,-261"/>
<text text-anchor="start" x="761" y="-249" font-family="Helvetica,sans-Serif" font-size="10.00">examples/esp32/main</text>
<text text-anchor="middle" x="837.5" y="-238" font-family="Helvetica,sans-Serif" font-size="10.00">/velocity_reading_example.cpp</text>
</a>
</g>
</g>
<!-- Node2 -->
<g id="Node000002" class="node">
<title>Node2</title>
<g id="a_Node000002"><a xlink:title=" ">
<polygon fill="#e0e0e0" stroke="#999999" points="63,-134.5 0,-134.5 0,-115.5 63,-115.5 63,-134.5"/>
<text text-anchor="middle" x="31.5" y="-122.5" font-family="Helvetica,sans-Serif" font-size="10.00">esp_log.h</text>
</a>
</g>
</g>
<!-- Node1&#45;&gt;Node2 -->
<g id="edge1_Node000001_Node000002" class="edge">
<title>Node1&#45;&gt;Node2</title>
<g id="a_edge1_Node000001_Node000002"><a xlink:title=" ">
<path fill="none" stroke="#63b8ff" d="M752.64,-242.41C641.04,-237.89 439.21,-225.89 269.5,-195 194.93,-181.43 110.28,-153.86 64.74,-137.98"/>
<polygon fill="#63b8ff" stroke="#63b8ff" points="65.69,-134.61 55.1,-134.59 63.37,-141.21 65.69,-134.61"/>
</a>
</g>
</g>
<!-- Node3 -->
<g id="Node000003" class="node">
<title>Node3</title>
<g id="a_Node000003"><a xlink:title=" ">
<polygon fill="#e0e0e0" stroke="#999999" points="1284,-195 1171,-195 1171,-176 1284,-176 1284,-195"/>
<text text-anchor="middle" x="1227.5" y="-183" font-family="Helvetica,sans-Serif" font-size="10.00">freertos/FreeRTOS.h</text>
</a>
</g>
</g>
<!-- Node1&#45;&gt;Node3 -->
<g id="edge2_Node000001_Node000003" class="edge">
<title>Node1&#45;&gt;Node3</title>
<g id="a_edge2_Node000001_Node000003"><a xlink:title=" ">
<path fill="none" stroke="#63b8ff" d="M922.12,-232.31C993.57,-221.59 1094.51,-206.45 1160.46,-196.56"/>
<polygon fill="#63b8ff" stroke="#63b8ff" points="1161.37,-199.96 1170.74,-195.01 1160.33,-193.04 1161.37,-199.96"/>
</a>
</g>
</g>
<!-- Node4 -->
<g id="Node000004" class="node">
<title>Node4</title>
<g id="a_Node000004"><a xlink:title=" ">
<polygon fill="#e0e0e0" stroke="#999999" points="1390.5,-195 1302.5,-195 1302.5,-176 1390.5,-176 1390.5,-195"/>
<text text-anchor="middle" x="1346.5" y="-183" font-family="Helvetica,sans-Serif" font-size="10.00">freertos/task.h</text>
</a>
</g>
</g>
<!-- Node1&#45;&gt;Node4 -->
<g id="edge3_Node000001_Node000004" class="edge">
<title>Node1&#45;&gt;Node4</title>
<g id="a_edge3_Node000001_Node000004"><a xlink:title=" ">
<path fill="none" stroke="#63b8ff" d="M922.12,-236.99C1011.55,-228.24 1156.95,-213.2 1292.15,-195.12"/>
<polygon fill="#63b8ff" stroke="#63b8ff" points="1292.83,-198.56 1302.28,-193.76 1291.9,-191.63 1292.83,-198.56"/>
</a>
</g>
</g>
<!-- Node5 -->
<g id="Node000005" class="node">
<title>Node5</title>
<g id="a_Node000005"><a xlink:title=" ">
<polygon fill="#e0e0e0" stroke="#999999" points="139.5,-134.5 81.5,-134.5 81.5,-115.5 139.5,-115.5 139.5,-134.5"/>
<text text-anchor="middle" x="110.5" y="-122.5" font-family="Helvetica,sans-Serif" font-size="10.00">memory</text>
</a>
</g>
</g>
<!-- Node1&#45;&gt;Node5 -->
<g id="edge4_Node000001_Node000005" class="edge">
<title>Node1&#45;&gt;Node5</title>
<g id="a_edge4_Node000001_Node000005"><a xlink:title=" ">
<path fill="none" stroke="#63b8ff" d="M752.64,-239.78C657.38,-233.06 498.49,-219.25 363.5,-195 266.42,-177.56 242.68,-169.31 148.5,-140 146.37,-139.34 144.19,-138.63 142,-137.88"/>
<polygon fill="#63b8ff" stroke="#63b8ff" points="143.07,-134.55 132.47,-134.53 140.74,-141.15 143.07,-134.55"/>
</a>
</g>
</g>
<!-- Node6 -->
<g id="Node000006" class="node">
<title>Node6</title>
<g id="a_Node000006"><a xlink:title=" ">
<polygon fill="#e0e0e0" stroke="#999999" points="1458.5,-195 1408.5,-195 1408.5,-176 1458.5,-176 1458.5,-195"/>
<text text-anchor="middle" x="1433.5" y="-183" font-family="Helvetica,sans-Serif" font-size="10.00">stdio.h</text>
</a>
</g>
</g>
<!-- Node1&#45;&gt;Node6 -->
<g id="edge5_Node000001_Node000006" class="edge">
<title>Node1&#45;&gt;Node6</title>
<g id="a_edge5_Node000001_Node000006"><a xlink:title=" ">
<path fill="none" stroke="#63b8ff" d="M922.29,-241.59C1030.67,-236.3 1224.12,-223.76 1398.22,-194.95"/>
<polygon fill="#63b8ff" stroke="#63b8ff" points="1399.06,-198.36 1408.34,-193.25 1397.9,-191.46 1399.06,-198.36"/>
</a>
</g>
</g>
<!-- Node7 -->
<g id="Node000007" class="node">
<title>Node7</title>
<g id="a_Node000007"><a xlink:href="as5047u_8hpp.html" target="_top" xlink:title="Driver for AMS AS5047U Magnetic Rotary Position Sensor (C++21)">
<polygon fill="white" stroke="#666666" points="1153,-195 1030,-195 1030,-176 1153,-176 1153,-195"/>
<text text-anchor="middle" x="1091.5" y="-183" font-family="Helvetica,sans-Serif" font-size="10.00">../../../inc/as5047u.hpp</text>
</a>
</g>
</g>
<!-- Node1&#45;&gt;Node7 -->
<g id="edge6_Node000001_Node000007" class="edge">
<title>Node1&#45;&gt;Node7</title>
<g id="a_edge6_Node000001_Node000007"><a xlink:title=" ">
<path fill="none" stroke="#63b8ff" d="M898.34,-230.99C943.22,-220.65 1003.39,-206.79 1044.58,-197.31"/>
<polygon fill="#63b8ff" stroke="#63b8ff" points="1045.4,-200.71 1054.36,-195.05 1043.83,-193.89 1045.4,-200.71"/>
</a>
</g>
</g>
<!-- Node24 -->
<g id="Node000024" class="node">
<title>Node24</title>
<g id="a_Node000024"><a xlink:href="esp32__as5047u__bus_8hpp.html" target="_top" xlink:title="ESP32 SPI transport implementation for AS5047U driver (header&#45;only)">
<polygon fill="white" stroke="#666666" points="508.5,-195 372.5,-195 372.5,-176 508.5,-176 508.5,-195"/>
<text text-anchor="middle" x="440.5" y="-183" font-family="Helvetica,sans-Serif" font-size="10.00">esp32_as5047u_bus.hpp</text>
</a>
</g>
</g>
<!-- Node1&#45;&gt;Node24 -->
<g id="edge29_Node000001_Node000024" class="edge">
<title>Node1&#45;&gt;Node24</title>
<g id="a_edge29_Node000001_Node000024"><a xlink:title=" ">
<path fill="none" stroke="#63b8ff" d="M752.82,-232.52C679.93,-221.78 576.12,-206.48 508.53,-196.53"/>
<polygon fill="#63b8ff" stroke="#63b8ff" points="508.82,-193.03 498.42,-195.03 507.8,-199.96 508.82,-193.03"/>
</a>
</g>
</g>
<!-- Node25 -->
<g id="Node000025" class="node">
<title>Node25</title>
<g id="a_Node000025"><a xlink:href="esp32__as5047u__test__config_8hpp.html" target="_top" xlink:title="Hardware configuration for AS5047U driver on ESP32&#45;C6.">
<polygon fill="white" stroke="#666666" points="603.5,-140 487.5,-140 487.5,-110 603.5,-110 603.5,-140"/>
<text text-anchor="start" x="495.5" y="-128" font-family="Helvetica,sans-Serif" font-size="10.00">esp32_as5047u_test</text>
<text text-anchor="middle" x="545.5" y="-117" font-family="Helvetica,sans-Serif" font-size="10.00">_config.hpp</text>
</a>
</g>
</g>
<!-- Node1&#45;&gt;Node25 -->
<g id="edge40_Node000001_Node000025" class="edge">
<title>Node1&#45;&gt;Node25</title>
<g id="a_edge40_Node000001_Node000025"><a xlink:title=" ">
<path fill="none" stroke="#63b8ff" d="M803.15,-231C750.02,-209.35 647.98,-167.76 589.52,-143.94"/>
<polygon fill="#63b8ff" stroke="#63b8ff" points="590.76,-140.66 580.18,-140.13 588.12,-147.15 590.76,-140.66"/>
</a>
</g>
</g>
<!-- Node8 -->
<g id="Node000008" class="node">
<title>Node8</title>
<g id="a_Node000008"><a xlink:href="as5047u__spi__interface_8hpp.html" target="_top" xlink:title="CRTP&#45;based SPI bus interface for AS5047U driver.">
<polygon fill="white" stroke="#666666" points="833,-134.5 686,-134.5 686,-115.5 833,-115.5 833,-134.5"/>
<text text-anchor="middle" x="759.5" y="-122.5" font-family="Helvetica,sans-Serif" font-size="10.00">as5047u_spi_interface.hpp</text>
</a>
</g>
</g>
<!-- Node7&#45;&gt;Node8 -->
<g id="edge7_Node000007_Node000008" class="edge">
<title>Node7&#45;&gt;Node8</title>
<g id="a_edge7_Node000007_Node000008"><a xlink:title=" ">
<path fill="none" stroke="#63b8ff" d="M1043.22,-175.99C983.48,-165.47 881.81,-147.55 817.78,-136.27"/>
<polygon fill="#63b8ff" stroke="#63b8ff" points="818.29,-132.81 807.83,-134.52 817.07,-139.7 818.29,-132.81"/>
</a>
</g>
</g>
<!-- Node10 -->
<g id="Node000010" class="node">
<title>Node10</title>
<g id="a_Node000010"><a xlink:title=" ">
<polygon fill="#e0e0e0" stroke="#999999" points="887.5,-19 837.5,-19 837.5,0 887.5,0 887.5,-19"/>
<text text-anchor="middle" x="862.5" y="-7" font-family="Helvetica,sans-Serif" font-size="10.00">cstdint</text>
</a>
</g>
</g>
<!-- Node7&#45;&gt;Node10 -->
<g id="edge17_Node000007_Node000010" class="edge">
<title>Node7&#45;&gt;Node10</title>
<g id="a_edge17_Node000007_Node000010"><a xlink:title=" ">
<path fill="none" stroke="#63b8ff" d="M1083.3,-175.73C1062.12,-153.43 1003.22,-93.63 945.5,-55 927.78,-43.14 906.58,-31.82 890.03,-23.56"/>
<polygon fill="#63b8ff" stroke="#63b8ff" points="891.42,-20.34 880.9,-19.07 888.33,-26.62 891.42,-20.34"/>
</a>
</g>
</g>
<!-- Node11 -->
<g id="Node000011" class="node">
<title>Node11</title>
<g id="a_Node000011"><a xlink:href="as5047u__registers_8hpp.html" target="_top" xlink:title="Register definitions for the AS5047U Rotary Position Sensor.">
<polygon fill="white" stroke="#666666" points="1231,-74 1104,-74 1104,-55 1231,-55 1231,-74"/>
<text text-anchor="middle" x="1167.5" y="-62" font-family="Helvetica,sans-Serif" font-size="10.00">as5047u_registers.hpp</text>
</a>
</g>
</g>
<!-- Node7&#45;&gt;Node11 -->
<g id="edge10_Node000007_Node000011" class="edge">
<title>Node7&#45;&gt;Node11</title>
<g id="a_edge10_Node000007_Node000011"><a xlink:title=" ">
<path fill="none" stroke="#63b8ff" d="M1137.66,-176C1158.1,-169.69 1180.25,-158.78 1192.5,-140 1204.09,-122.23 1192.38,-98.57 1181.4,-82.72"/>
<polygon fill="#63b8ff" stroke="#63b8ff" points="1183.98,-80.32 1175.19,-74.4 1178.36,-84.51 1183.98,-80.32"/>
</a>
</g>
</g>
<!-- Node12 -->
<g id="Node000012" class="node">
<title>Node12</title>
<g id="a_Node000012"><a xlink:title=" ">
<polygon fill="#e0e0e0" stroke="#999999" points="1123.5,-134.5 1059.5,-134.5 1059.5,-115.5 1123.5,-115.5 1123.5,-134.5"/>
<text text-anchor="middle" x="1091.5" y="-122.5" font-family="Helvetica,sans-Serif" font-size="10.00">algorithm</text>
</a>
</g>
</g>
<!-- Node7&#45;&gt;Node12 -->
<g id="edge12_Node000007_Node000012" class="edge">
<title>Node7&#45;&gt;Node12</title>
<g id="a_edge12_Node000007_Node000012"><a xlink:title=" ">
<path fill="none" stroke="#63b8ff" d="M1091.5,-175.87C1091.5,-167.75 1091.5,-155.31 1091.5,-144.89"/>
<polygon fill="#63b8ff" stroke="#63b8ff" points="1095,-144.67 1091.5,-134.67 1088,-144.67 1095,-144.67"/>
</a>
</g>
</g>
<!-- Node13 -->
<g id="Node000013" class="node">
<title>Node13</title>
<g id="a_Node000013"><a xlink:title=" ">
<polygon fill="#e0e0e0" stroke="#999999" points="1183.5,-134.5 1141.5,-134.5 1141.5,-115.5 1183.5,-115.5 1183.5,-134.5"/>
<text text-anchor="middle" x="1162.5" y="-122.5" font-family="Helvetica,sans-Serif" font-size="10.00">array</text>
</a>
</g>
</g>
<!-- Node7&#45;&gt;Node13 -->
<g id="edge13_Node000007_Node000013" class="edge">
<title>Node7&#45;&gt;Node13</title>
<g id="a_edge13_Node000007_Node000013"><a xlink:title=" ">
<path fill="none" stroke="#63b8ff" d="M1101.98,-175.87C1112.99,-166.8 1130.54,-152.34 1143.91,-141.32"/>
<polygon fill="#63b8ff" stroke="#63b8ff" points="1146.49,-143.73 1151.98,-134.67 1142.04,-138.33 1146.49,-143.73"/>
</a>
</g>
</g>
<!-- Node14 -->
<g id="Node000014" class="node">
<title>Node14</title>
<g id="a_Node000014"><a xlink:title=" ">
<polygon fill="#e0e0e0" stroke="#999999" points="1289.5,-134.5 1239.5,-134.5 1239.5,-115.5 1289.5,-115.5 1289.5,-134.5"/>
<text text-anchor="middle" x="1264.5" y="-122.5" font-family="Helvetica,sans-Serif" font-size="10.00">atomic</text>
</a>
</g>
</g>
<!-- Node7&#45;&gt;Node14 -->
<g id="edge14_Node000007_Node000014" class="edge">
<title>Node7&#45;&gt;Node14</title>
<g id="a_edge14_Node000007_Node000014"><a xlink:title=" ">
<path fill="none" stroke="#63b8ff" d="M1117.75,-175.99C1144.81,-167.17 1188.2,-152.89 1225.5,-140 1227.39,-139.35 1229.32,-138.67 1231.28,-137.99"/>
<polygon fill="#63b8ff" stroke="#63b8ff" points="1232.77,-141.17 1241.02,-134.53 1230.43,-134.57 1232.77,-141.17"/>
</a>
</g>
</g>
<!-- Node15 -->
<g id="Node000015" class="node">
<title>Node15</title>
<g id="a_Node000015"><a xlink:title=" ">
<polygon fill="#e0e0e0" stroke="#999999" points="1351.5,-134.5 1307.5,-134.5 1307.5,-115.5 1351.5,-115.5 1351.5,-134.5"/>
<text text-anchor="middle" x="1329.5" y="-122.5" font-family="Helvetica,sans-Serif" font-size="10.00">bitset</text>
</a>
</g>
</g>
<!-- Node7&#45;&gt;Node15 -->
<g id="edge15_Node000007_Node000015" class="edge">
<title>Node7&#45;&gt;Node15</title>
<g id="a_edge15_Node000007_Node000015"><a xlink:title=" ">
<path fill="none" stroke="#63b8ff" d="M1146.38,-175.98C1188.6,-168.64 1248.05,-156.61 1298.5,-140 1299.94,-139.53 1301.4,-139.01 1302.86,-138.46"/>
<polygon fill="#63b8ff" stroke="#63b8ff" points="1304.48,-141.58 1312.38,-134.51 1301.8,-135.11 1304.48,-141.58"/>
</a>
</g>
</g>
<!-- Node16 -->
<g id="Node000016" class="node">
<title>Node16</title>
<g id="a_Node000016"><a xlink:title=" ">
<polygon fill="#e0e0e0" stroke="#999999" points="1417,-134.5 1370,-134.5 1370,-115.5 1417,-115.5 1417,-134.5"/>
<text text-anchor="middle" x="1393.5" y="-122.5" font-family="Helvetica,sans-Serif" font-size="10.00">cmath</text>
</a>
</g>
</g>
<!-- Node7&#45;&gt;Node16 -->
<g id="edge16_Node000007_Node000016" class="edge">
<title>Node7&#45;&gt;Node16</title>
<g id="a_edge16_Node000007_Node000016"><a xlink:title=" ">
<path fill="none" stroke="#63b8ff" d="M1153.27,-176.02C1220.25,-166.51 1322.66,-150.99 1360.5,-140 1362.18,-139.51 1363.9,-138.96 1365.61,-138.37"/>
<polygon fill="#63b8ff" stroke="#63b8ff" points="1367.21,-141.5 1375.28,-134.64 1364.69,-134.97 1367.21,-141.5"/>
</a>
</g>
</g>
<!-- Node17 -->
<g id="Node000017" class="node">
<title>Node17</title>
<g id="a_Node000017"><a xlink:title=" ">
<polygon fill="#e0e0e0" stroke="#999999" points="667.5,-134.5 621.5,-134.5 621.5,-115.5 667.5,-115.5 667.5,-134.5"/>
<text text-anchor="middle" x="644.5" y="-122.5" font-family="Helvetica,sans-Serif" font-size="10.00">cstdio</text>
</a>
</g>
</g>
<!-- Node7&#45;&gt;Node17 -->
<g id="edge18_Node000007_Node000017" class="edge">
<title>Node7&#45;&gt;Node17</title>
<g id="a_edge18_Node000007_Node000017"><a xlink:title=" ">
<path fill="none" stroke="#63b8ff" d="M1029.96,-183.73C947.99,-181.39 799.06,-172.55 676.5,-140 674.61,-139.5 672.69,-138.9 670.77,-138.24"/>
<polygon fill="#63b8ff" stroke="#63b8ff" points="672.01,-134.96 661.42,-134.55 669.44,-141.48 672.01,-134.96"/>
</a>
</g>
</g>
<!-- Node18 -->
<g id="Node000018" class="node">
<title>Node18</title>
<g id="a_Node000018"><a xlink:title=" ">
<polygon fill="#e0e0e0" stroke="#999999" points="1500,-134.5 1435,-134.5 1435,-115.5 1500,-115.5 1500,-134.5"/>
<text text-anchor="middle" x="1467.5" y="-122.5" font-family="Helvetica,sans-Serif" font-size="10.00">functional</text>
</a>
</g>
</g>
<!-- Node7&#45;&gt;Node18 -->
<g id="edge19_Node000007_Node000018" class="edge">
<title>Node7&#45;&gt;Node18</title>
<g id="a_edge19_Node000007_Node000018"><a xlink:title=" ">
<path fill="none" stroke="#63b8ff" d="M1153.15,-176.98C1242.59,-165.96 1400.55,-146.09 1426.5,-140 1429.48,-139.3 1432.55,-138.47 1435.6,-137.57"/>
<polygon fill="#63b8ff" stroke="#63b8ff" points="1436.71,-140.89 1445.18,-134.51 1434.59,-134.22 1436.71,-140.89"/>
</a>
</g>
</g>
<!-- Node19 -->
<g id="Node000019" class="node">
<title>Node19</title>
<g id="a_Node000019"><a xlink:title=" ">
<polygon fill="#e0e0e0" stroke="#999999" points="1563,-134.5 1518,-134.5 1518,-115.5 1563,-115.5 1563,-134.5"/>
<text text-anchor="middle" x="1540.5" y="-122.5" font-family="Helvetica,sans-Serif" font-size="10.00">utility</text>
</a>
</g>
</g>
<!-- Node7&#45;&gt;Node19 -->
<g id="edge20_Node000007_Node000019" class="edge">
<title>Node7&#45;&gt;Node19</title>
<g id="a_edge20_Node000007_Node000019"><a xlink:title=" ">
<path fill="none" stroke="#63b8ff" d="M1153.07,-177.07C1156.26,-176.7 1159.42,-176.34 1162.5,-176 1316.59,-158.78 1359.81,-180.43 1509.5,-140 1511.19,-139.54 1512.89,-139.01 1514.6,-138.41"/>
<polygon fill="#63b8ff" stroke="#63b8ff" points="1516.17,-141.56 1524.13,-134.57 1513.55,-135.07 1516.17,-141.56"/>
</a>
</g>
</g>
<!-- Node20 -->
<g id="Node000020" class="node">
<title>Node20</title>
<g id="a_Node000020"><a xlink:href="as5047u__types_8hpp.html" target="_top" xlink:title="Type definitions for the AS5047U driver.">
<polygon fill="white" stroke="#666666" points="918,-74 807,-74 807,-55 918,-55 918,-74"/>
<text text-anchor="middle" x="862.5" y="-62" font-family="Helvetica,sans-Serif" font-size="10.00">as5047u_types.hpp</text>
</a>
</g>
</g>
<!-- Node7&#45;&gt;Node20 -->
<g id="edge21_Node000007_Node000020" class="edge">
<title>Node7&#45;&gt;Node20</title>
<g id="a_edge21_Node000007_Node000020"><a xlink:title=" ">
<path fill="none" stroke="#63b8ff" d="M1029.74,-178.62C975.63,-172.21 902.44,-160.1 881.5,-140 866.63,-125.73 862.79,-101.58 862.08,-84.65"/>
<polygon fill="#63b8ff" stroke="#63b8ff" points="865.57,-84.27 861.99,-74.3 858.57,-84.33 865.57,-84.27"/>
</a>
</g>
</g>
<!-- Node21 -->
<g id="Node000021" class="node">
<title>Node21</title>
<g id="a_Node000021"><a xlink:href="as5047u__config_8hpp.html" target="_top" xlink:title="Compile&#45;time configuration options for the AS5047U driver.">
<polygon fill="white" stroke="#666666" points="1003,-134.5 890,-134.5 890,-115.5 1003,-115.5 1003,-134.5"/>
<text text-anchor="middle" x="946.5" y="-122.5" font-family="Helvetica,sans-Serif" font-size="10.00">as5047u_config.hpp</text>
</a>
</g>
</g>
<!-- Node7&#45;&gt;Node21 -->
<g id="edge23_Node000007_Node000021" class="edge">
<title>Node7&#45;&gt;Node21</title>
<g id="a_edge23_Node000007_Node000021"><a xlink:title=" ">
<path fill="none" stroke="#63b8ff" d="M1070.42,-175.99C1045.82,-166.07 1004.97,-149.59 976.94,-138.28"/>
<polygon fill="#63b8ff" stroke="#63b8ff" points="978.19,-135.01 967.61,-134.52 975.57,-141.5 978.19,-135.01"/>
</a>
</g>
</g>
<!-- Node22 -->
<g id="Node000022" class="node">
<title>Node22</title>
<g id="a_Node000022"><a xlink:href="as5047u_8ipp.html" target="_top" xlink:title="Template implementation of AS5047U driver methods.">
<polygon fill="white" stroke="#666666" points="1683.5,-134.5 1581.5,-134.5 1581.5,-115.5 1683.5,-115.5 1683.5,-134.5"/>
<text text-anchor="middle" x="1632.5" y="-122.5" font-family="Helvetica,sans-Serif" font-size="10.00">../src/as5047u.ipp</text>
</a>
</g>
</g>
<!-- Node7&#45;&gt;Node22 -->
<g id="edge26_Node000007_Node000022" class="edge">
<title>Node7&#45;&gt;Node22</title>
<g id="a_edge26_Node000007_Node000022"><a xlink:title=" ">
<path fill="none" stroke="#63b8ff" d="M1153.13,-176.04C1153.25,-176.03 1153.38,-176.01 1153.5,-176 1335.45,-157.13 1382.87,-168.86 1563.5,-140 1569.18,-139.09 1575.13,-137.95 1581.06,-136.71"/>
<polygon fill="#63b8ff" stroke="#63b8ff" points="1581.95,-140.09 1590.97,-134.55 1580.46,-133.25 1581.95,-140.09"/>
</a>
</g>
</g>
<!-- Node9 -->
<g id="Node000009" class="node">
<title>Node9</title>
<g id="a_Node000009"><a xlink:title=" ">
<polygon fill="#e0e0e0" stroke="#999999" points="750,-74 697,-74 697,-55 750,-55 750,-74"/>
<text text-anchor="middle" x="723.5" y="-62" font-family="Helvetica,sans-Serif" font-size="10.00">cstddef</text>
</a>
</g>
</g>
<!-- Node8&#45;&gt;Node9 -->
<g id="edge8_Node000008_Node000009" class="edge">
<title>Node8&#45;&gt;Node9</title>
<g id="a_edge8_Node000008_Node000009"><a xlink:title=" ">
<path fill="none" stroke="#63b8ff" d="M754.19,-115.37C748.92,-106.81 740.71,-93.47 734.11,-82.74"/>
<polygon fill="#63b8ff" stroke="#63b8ff" points="737.06,-80.85 728.83,-74.17 731.09,-84.52 737.06,-80.85"/>
</a>
</g>
</g>
<!-- Node8&#45;&gt;Node10 -->
<g id="edge9_Node000008_Node000010" class="edge">
<title>Node8&#45;&gt;Node10</title>
<g id="a_edge9_Node000008_Node000010"><a xlink:title=" ">
<path fill="none" stroke="#63b8ff" d="M762.97,-115.14C768.76,-101.17 781.45,-73.72 798.5,-55 809.65,-42.76 824.75,-32.06 837.49,-24.22"/>
<polygon fill="#63b8ff" stroke="#63b8ff" points="839.43,-27.14 846.25,-19.04 835.86,-21.12 839.43,-27.14"/>
</a>
</g>
</g>
<!-- Node11&#45;&gt;Node10 -->
<g id="edge11_Node000011_Node000010" class="edge">
<title>Node11&#45;&gt;Node10</title>
<g id="a_edge11_Node000011_Node000010"><a xlink:title=" ">
<path fill="none" stroke="#63b8ff" d="M1118.5,-54.98C1056.77,-44.26 952.21,-26.09 897.79,-16.63"/>
<polygon fill="#63b8ff" stroke="#63b8ff" points="898.05,-13.13 887.6,-14.86 896.86,-20.02 898.05,-13.13"/>
</a>
</g>
</g>
<!-- Node20&#45;&gt;Node10 -->
<g id="edge22_Node000020_Node000010" class="edge">
<title>Node20&#45;&gt;Node10</title>
<g id="a_edge22_Node000020_Node000010"><a xlink:title=" ">
<path fill="none" stroke="#63b8ff" d="M862.5,-54.75C862.5,-47.8 862.5,-37.85 862.5,-29.13"/>
<polygon fill="#63b8ff" stroke="#63b8ff" points="866,-29.09 862.5,-19.09 859,-29.09 866,-29.09"/>
</a>
</g>
</g>
<!-- Node21&#45;&gt;Node10 -->
<g id="edge24_Node000021_Node000010" class="edge">
<title>Node21&#45;&gt;Node10</title>
<g id="a_edge24_Node000021_Node000010"><a xlink:title=" ">
<path fill="none" stroke="#63b8ff" d="M945.99,-115.11C944.78,-101.11 940.78,-73.61 927.5,-55 918.17,-41.92 903.71,-31.47 890.8,-24"/>
<polygon fill="#63b8ff" stroke="#63b8ff" points="892.22,-20.79 881.77,-19.08 888.88,-26.94 892.22,-20.79"/>
</a>
</g>
</g>
<!-- Node21&#45;&gt;Node20 -->
<g id="edge25_Node000021_Node000020" class="edge">
<title>Node21&#45;&gt;Node20</title>
<g id="a_edge25_Node000021_Node000020"><a xlink:title=" ">
<path fill="none" stroke="#63b8ff" d="M934.11,-115.37C920.71,-106.04 899.12,-91.01 883.15,-79.88"/>
<polygon fill="#63b8ff" stroke="#63b8ff" points="885.15,-77.01 874.95,-74.17 881.15,-82.75 885.15,-77.01"/>
</a>
</g>
</g>
<!-- Node22&#45;&gt;Node7 -->
<g id="edge27_Node000022_Node000007" class="edge">
<title>Node22&#45;&gt;Node7</title>
<g id="a_edge27_Node000022_Node000007"><a xlink:title=" ">
<path fill="none" stroke="#63b8ff" d="M1608.34,-134.55C1599.88,-136.59 1590.37,-138.58 1581.5,-140 1400.87,-168.86 1353.45,-157.13 1171.5,-176 1168.81,-176.28 1166.07,-176.57 1163.3,-176.87"/>
<polygon fill="#63b8ff" stroke="#63b8ff" points="1162.7,-173.42 1153.15,-178 1163.48,-180.38 1162.7,-173.42"/>
</a>
</g>
</g>
<!-- Node23 -->
<g id="Node000023" class="node">
<title>Node23</title>
<g id="a_Node000023"><a xlink:title=" ">
<polygon fill="#e0e0e0" stroke="#999999" points="1660.5,-74 1604.5,-74 1604.5,-55 1660.5,-55 1660.5,-74"/>
<text text-anchor="middle" x="1632.5" y="-62" font-family="Helvetica,sans-Serif" font-size="10.00">iomanip</text>
</a>
</g>
</g>
<!-- Node22&#45;&gt;Node23 -->
<g id="edge28_Node000022_Node000023" class="edge">
<title>Node22&#45;&gt;Node23</title>
<g id="a_edge28_Node000022_Node000023"><a xlink:title=" ">
<path fill="none" stroke="#63b8ff" d="M1632.5,-115.37C1632.5,-107.25 1632.5,-94.81 1632.5,-84.39"/>
<polygon fill="#63b8ff" stroke="#63b8ff" points="1636,-84.17 1632.5,-74.17 1629,-84.17 1636,-84.17"/>
</a>
</g>
</g>
<!-- Node24&#45;&gt;Node2 -->
<g id="edge35_Node000024_Node000002" class="edge">
<title>Node24&#45;&gt;Node2</title>
<g id="a_edge35_Node000024_Node000002"><a xlink:title=" ">
<path fill="none" stroke="#63b8ff" d="M372.28,-180.52C297.85,-175.2 175.54,-163.55 72.5,-140 69.52,-139.32 66.45,-138.5 63.39,-137.6"/>
<polygon fill="#63b8ff" stroke="#63b8ff" points="64.4,-134.25 53.81,-134.56 62.28,-140.92 64.4,-134.25"/>
</a>
</g>
</g>
<!-- Node24&#45;&gt;Node5 -->
<g id="edge39_Node000024_Node000005" class="edge">
<title>Node24&#45;&gt;Node5</title>
<g id="a_edge39_Node000024_Node000005"><a xlink:title=" ">
<path fill="none" stroke="#63b8ff" d="M372.45,-178.06C312.77,-171.49 223.98,-159.44 148.5,-140 146.06,-139.37 143.55,-138.64 141.05,-137.86"/>
<polygon fill="#63b8ff" stroke="#63b8ff" points="142.16,-134.54 131.56,-134.62 139.9,-141.16 142.16,-134.54"/>
</a>
</g>
</g>
<!-- Node24&#45;&gt;Node8 -->
<g id="edge30_Node000024_Node000008" class="edge">
<title>Node24&#45;&gt;Node8</title>
<g id="a_edge30_Node000024_Node000008"><a xlink:title=" ">
<path fill="none" stroke="#63b8ff" d="M486.89,-175.99C544.18,-165.49 641.58,-147.62 703.13,-136.34"/>
<polygon fill="#63b8ff" stroke="#63b8ff" points="703.85,-139.76 713.06,-134.52 702.59,-132.88 703.85,-139.76"/>
</a>
</g>
</g>
<!-- Node24&#45;&gt;Node10 -->
<g id="edge36_Node000024_Node000010" class="edge">
<title>Node24&#45;&gt;Node10</title>
<g id="a_edge36_Node000024_Node000010"><a xlink:title=" ">
<path fill="none" stroke="#63b8ff" d="M442.62,-175.8C446.82,-160.35 457.65,-128.07 478.5,-110 580.93,-21.22 752.84,-10.14 826.85,-9.76"/>
<polygon fill="#63b8ff" stroke="#63b8ff" points="827.03,-13.26 837.03,-9.77 827.04,-6.26 827.03,-13.26"/>
</a>
</g>
</g>
<!-- Node24&#45;&gt;Node17 -->
<g id="edge37_Node000024_Node000017" class="edge">
<title>Node24&#45;&gt;Node17</title>
<g id="a_edge37_Node000024_Node000017"><a xlink:title=" ">
<path fill="none" stroke="#63b8ff" d="M481,-175.94C516.2,-168.05 568.33,-155.27 612.5,-140 613.93,-139.5 615.39,-138.97 616.86,-138.42"/>
<polygon fill="#63b8ff" stroke="#63b8ff" points="618.49,-141.53 626.42,-134.51 615.84,-135.05 618.49,-141.53"/>
</a>
</g>
</g>
<!-- Node24&#45;&gt;Node25 -->
<g id="edge31_Node000024_Node000025" class="edge">
<title>Node24&#45;&gt;Node25</title>
<g id="a_edge31_Node000024_Node000025"><a xlink:title=" ">
<path fill="none" stroke="#63b8ff" d="M455.99,-175.87C470.5,-167.78 492.69,-155.42 511.34,-145.03"/>
<polygon fill="#63b8ff" stroke="#63b8ff" points="513.13,-148.04 520.17,-140.11 509.73,-141.92 513.13,-148.04"/>
</a>
</g>
</g>
<!-- Node26 -->
<g id="Node000026" class="node">
<title>Node26</title>
<g id="a_Node000026"><a xlink:title=" ">
<polygon fill="#e0e0e0" stroke="#999999" points="431.5,-134.5 353.5,-134.5 353.5,-115.5 431.5,-115.5 431.5,-134.5"/>
<text text-anchor="middle" x="392.5" y="-122.5" font-family="Helvetica,sans-Serif" font-size="10.00">driver/gpio.h</text>
</a>
</g>
</g>
<!-- Node24&#45;&gt;Node26 -->
<g id="edge33_Node000024_Node000026" class="edge">
<title>Node24&#45;&gt;Node26</title>
<g id="a_edge33_Node000024_Node000026"><a xlink:title=" ">
<path fill="none" stroke="#63b8ff" d="M433.42,-175.87C426.26,-167.14 415.01,-153.43 406.11,-142.59"/>
<polygon fill="#63b8ff" stroke="#63b8ff" points="408.66,-140.18 399.61,-134.67 403.25,-144.62 408.66,-140.18"/>
</a>
</g>
</g>
<!-- Node27 -->
<g id="Node000027" class="node">
<title>Node27</title>
<g id="a_Node000027"><a xlink:title=" ">
<polygon fill="#e0e0e0" stroke="#999999" points="267.5,-134.5 157.5,-134.5 157.5,-115.5 267.5,-115.5 267.5,-134.5"/>
<text text-anchor="middle" x="212.5" y="-122.5" font-family="Helvetica,sans-Serif" font-size="10.00">driver/spi_master.h</text>
</a>
</g>
</g>
<!-- Node24&#45;&gt;Node27 -->
<g id="edge34_Node000024_Node000027" class="edge">
<title>Node24&#45;&gt;Node27</title>
<g id="a_edge34_Node000024_Node000027"><a xlink:title=" ">
<path fill="none" stroke="#63b8ff" d="M407.35,-175.99C367.24,-165.7 299.64,-148.36 255.55,-137.04"/>
<polygon fill="#63b8ff" stroke="#63b8ff" points="256.25,-133.61 245.69,-134.52 254.51,-140.39 256.25,-133.61"/>
</a>
</g>
</g>
<!-- Node28 -->
<g id="Node000028" class="node">
<title>Node28</title>
<g id="a_Node000028"><a xlink:title=" ">
<polygon fill="#e0e0e0" stroke="#999999" points="335.5,-134.5 285.5,-134.5 285.5,-115.5 335.5,-115.5 335.5,-134.5"/>
<text text-anchor="middle" x="310.5" y="-122.5" font-family="Helvetica,sans-Serif" font-size="10.00">cstring</text>
</a>
</g>
</g>
<!-- Node24&#45;&gt;Node28 -->
<g id="edge38_Node000024_Node000028" class="edge">
<title>Node24&#45;&gt;Node28</title>
<g id="a_edge38_Node000024_Node000028"><a xlink:title=" ">
<path fill="none" stroke="#63b8ff" d="M421.6,-175.99C399.84,-166.2 363.88,-150.02 338.79,-138.73"/>
<polygon fill="#63b8ff" stroke="#63b8ff" points="339.98,-135.43 329.43,-134.52 337.11,-141.81 339.98,-135.43"/>
</a>
</g>
</g>
<!-- Node25&#45;&gt;Node10 -->
<g id="edge32_Node000025_Node000010" class="edge">
<title>Node25&#45;&gt;Node10</title>
<g id="a_edge32_Node000025_Node000010"><a xlink:title=" ">
<path fill="none" stroke="#63b8ff" d="M570.47,-109.93C598.31,-94.71 645.03,-70.54 687.5,-55 734.79,-37.7 791.64,-24.59 827.43,-17.22"/>
<polygon fill="#63b8ff" stroke="#63b8ff" points="828.28,-20.62 837.39,-15.21 826.89,-13.76 828.28,-20.62"/>
</a>
</g>
</g>
</g>
</svg>
