<?xml version="1.0" encoding="UTF-8" standalone="no"?>
<!DOCTYPE svg PUBLIC "-//W3C//DTD SVG 1.1//EN"
 "http://www.w3.org/Graphics/SVG/1.1/DTD/svg11.dtd">
<!-- Generated by graphviz version 2.43.0 (0)
 -->
<!-- Title: inc/AS5047U.hpp Pages: 1 -->
<svg width="848pt" height="192pt"
 viewBox="0.00 0.00 847.50 192.00" xmlns="http://www.w3.org/2000/svg" xmlns:xlink="http://www.w3.org/1999/xlink">
<g id="graph0" class="graph" transform="scale(1 1) rotate(0) translate(4 188)">
<title>inc/AS5047U.hpp</title>
<!-- Node1 -->
<g id="Node000001" class="node">
<title>Node1</title>
<g id="a_Node000001"><a xlink:title="Driver for AMS AS5047U Magnetic Rotary Position Sensor (C++21).">
<polygon fill="#999999" stroke="#666666" points="448,-184 349,-184 349,-165 448,-165 448,-184"/>
<text text-anchor="middle" x="398.5" y="-172" font-family="Helvetica,sans-Serif" font-size="10.00">inc/AS5047U.hpp</text>
</a>
</g>
</g>
<!-- Node2 -->
<g id="Node000002" class="node">
<title>Node2</title>
<g id="a_Node000002"><a xlink:href="AS5047U__Bus_8hpp.html" target="_top" xlink:title="CRTP&#45;based SPI bus interface for AS5047U driver.">
<polygon fill="white" stroke="#666666" points="105,-129 0,-129 0,-110 105,-110 105,-129"/>
<text text-anchor="middle" x="52.5" y="-117" font-family="Helvetica,sans-Serif" font-size="10.00">AS5047U_Bus.hpp</text>
</a>
</g>
</g>
<!-- Node1&#45;&gt;Node2 -->
<g id="edge1_Node000001_Node000002" class="edge">
<title>Node1&#45;&gt;Node2</title>
<g id="a_edge1_Node000001_Node000002"><a xlink:title=" ">
<path fill="none" stroke="#63b8ff" d="M348.93,-165.91C287.34,-156.47 182.21,-140.37 115.12,-130.09"/>
<polygon fill="#63b8ff" stroke="#63b8ff" points="115.51,-126.61 105.1,-128.56 114.45,-133.53 115.51,-126.61"/>
</a>
</g>
</g>
<!-- Node4 -->
<g id="Node000004" class="node">
<title>Node4</title>
<g id="a_Node000004"><a xlink:title=" ">
<polygon fill="#e0e0e0" stroke="#999999" points="257.5,-19 207.5,-19 207.5,0 257.5,0 257.5,-19"/>
<text text-anchor="middle" x="232.5" y="-7" font-family="Helvetica,sans-Serif" font-size="10.00">cstdint</text>
</a>
</g>
</g>
<!-- Node1&#45;&gt;Node4 -->
<g id="edge11_Node000001_Node000004" class="edge">
<title>Node1&#45;&gt;Node4</title>
<g id="a_edge11_Node000001_Node000004"><a xlink:title=" ">
<path fill="none" stroke="#63b8ff" d="M348.64,-168.12C293.29,-161.32 208.35,-148.14 182.5,-129 153.98,-107.88 134.51,-85.59 152.5,-55 162.33,-38.28 180.97,-27.39 197.79,-20.57"/>
<polygon fill="#63b8ff" stroke="#63b8ff" points="199.23,-23.76 207.4,-17.01 196.8,-17.2 199.23,-23.76"/>
</a>
</g>
</g>
<!-- Node5 -->
<g id="Node000005" class="node">
<title>Node5</title>
<g id="a_Node000005"><a xlink:href="AS5047U__REGISTERS_8hpp.html" target="_top" xlink:title="Register definitions for the AS5047U Rotary Position Sensor.">
<polygon fill="white" stroke="#666666" points="303,-74 162,-74 162,-55 303,-55 303,-74"/>
<text text-anchor="middle" x="232.5" y="-62" font-family="Helvetica,sans-Serif" font-size="10.00">AS5047U_REGISTERS.hpp</text>
</a>
</g>
</g>
<!-- Node1&#45;&gt;Node5 -->
<g id="edge4_Node000001_Node000005" class="edge">
<title>Node1&#45;&gt;Node5</title>
<g id="a_edge4_Node000001_Node000005"><a xlink:title=" ">
<path fill="none" stroke="#63b8ff" d="M348.58,-169.89C293.49,-164.75 210.01,-153.12 190.5,-129 177.76,-113.25 195.33,-93.59 211.49,-80.36"/>
<polygon fill="#63b8ff" stroke="#63b8ff" points="213.85,-82.95 219.64,-74.08 209.58,-77.41 213.85,-82.95"/>
</a>
</g>
</g>
<!-- Node6 -->
<g id="Node000006" class="node">
<title>Node6</title>
<g id="a_Node000006"><a xlink:title=" ">
<polygon fill="#e0e0e0" stroke="#999999" points="263.5,-129 199.5,-129 199.5,-110 263.5,-110 263.5,-129"/>
<text text-anchor="middle" x="231.5" y="-117" font-family="Helvetica,sans-Serif" font-size="10.00">algorithm</text>
</a>
</g>
</g>
<!-- Node1&#45;&gt;Node6 -->
<g id="edge6_Node000001_Node000006" class="edge">
<title>Node1&#45;&gt;Node6</title>
<g id="a_edge6_Node000001_Node000006"><a xlink:title=" ">
<path fill="none" stroke="#63b8ff" d="M371.67,-164.98C343.63,-156.09 299.45,-142.07 268.2,-132.15"/>
<polygon fill="#63b8ff" stroke="#63b8ff" points="269.13,-128.77 258.54,-129.08 267.01,-135.44 269.13,-128.77"/>
</a>
</g>
</g>
<!-- Node7 -->
<g id="Node000007" class="node">
<title>Node7</title>
<g id="a_Node000007"><a xlink:title=" ">
<polygon fill="#e0e0e0" stroke="#999999" points="323.5,-129 281.5,-129 281.5,-110 323.5,-110 323.5,-129"/>
<text text-anchor="middle" x="302.5" y="-117" font-family="Helvetica,sans-Serif" font-size="10.00">array</text>
</a>
</g>
</g>
<!-- Node1&#45;&gt;Node7 -->
<g id="edge7_Node000001_Node000007" class="edge">
<title>Node1&#45;&gt;Node7</title>
<g id="a_edge7_Node000001_Node000007"><a xlink:title=" ">
<path fill="none" stroke="#63b8ff" d="M383.08,-164.98C368.05,-156.69 344.96,-143.94 327.34,-134.22"/>
<polygon fill="#63b8ff" stroke="#63b8ff" points="328.65,-130.94 318.2,-129.17 325.27,-137.07 328.65,-130.94"/>
</a>
</g>
</g>
<!-- Node8 -->
<g id="Node000008" class="node">
<title>Node8</title>
<g id="a_Node000008"><a xlink:title=" ">
<polygon fill="#e0e0e0" stroke="#999999" points="391.5,-129 341.5,-129 341.5,-110 391.5,-110 391.5,-129"/>
<text text-anchor="middle" x="366.5" y="-117" font-family="Helvetica,sans-Serif" font-size="10.00">atomic</text>
</a>
</g>
</g>
<!-- Node1&#45;&gt;Node8 -->
<g id="edge8_Node000001_Node000008" class="edge">
<title>Node1&#45;&gt;Node8</title>
<g id="a_edge8_Node000001_Node000008"><a xlink:title=" ">
<path fill="none" stroke="#63b8ff" d="M393.22,-164.75C388.79,-157.42 382.34,-146.73 376.88,-137.7"/>
<polygon fill="#63b8ff" stroke="#63b8ff" points="379.85,-135.84 371.69,-129.09 373.86,-139.46 379.85,-135.84"/>
</a>
</g>
</g>
<!-- Node9 -->
<g id="Node000009" class="node">
<title>Node9</title>
<g id="a_Node000009"><a xlink:title=" ">
<polygon fill="#e0e0e0" stroke="#999999" points="453.5,-129 409.5,-129 409.5,-110 453.5,-110 453.5,-129"/>
<text text-anchor="middle" x="431.5" y="-117" font-family="Helvetica,sans-Serif" font-size="10.00">bitset</text>
</a>
</g>
</g>
<!-- Node1&#45;&gt;Node9 -->
<g id="edge9_Node000001_Node000009" class="edge">
<title>Node1&#45;&gt;Node9</title>
<g id="a_edge9_Node000001_Node000009"><a xlink:title=" ">
<path fill="none" stroke="#63b8ff" d="M403.95,-164.75C408.51,-157.42 415.17,-146.73 420.79,-137.7"/>
<polygon fill="#63b8ff" stroke="#63b8ff" points="423.84,-139.43 426.15,-129.09 417.9,-135.73 423.84,-139.43"/>
</a>
</g>
</g>
<!-- Node10 -->
<g id="Node000010" class="node">
<title>Node10</title>
<g id="a_Node000010"><a xlink:title=" ">
<polygon fill="#e0e0e0" stroke="#999999" points="519,-129 472,-129 472,-110 519,-110 519,-129"/>
<text text-anchor="middle" x="495.5" y="-117" font-family="Helvetica,sans-Serif" font-size="10.00">cmath</text>
</a>
</g>
</g>
<!-- Node1&#45;&gt;Node10 -->
<g id="edge10_Node000001_Node000010" class="edge">
<title>Node1&#45;&gt;Node10</title>
<g id="a_edge10_Node000001_Node000010"><a xlink:title=" ">
<path fill="none" stroke="#63b8ff" d="M414.08,-164.98C429.27,-156.69 452.6,-143.94 470.4,-134.22"/>
<polygon fill="#63b8ff" stroke="#63b8ff" points="472.53,-137.04 479.63,-129.17 469.18,-130.89 472.53,-137.04"/>
</a>
</g>
</g>
<!-- Node11 -->
<g id="Node000011" class="node">
<title>Node11</title>
<g id="a_Node000011"><a xlink:title=" ">
<polygon fill="#e0e0e0" stroke="#999999" points="583.5,-129 537.5,-129 537.5,-110 583.5,-110 583.5,-129"/>
<text text-anchor="middle" x="560.5" y="-117" font-family="Helvetica,sans-Serif" font-size="10.00">cstdio</text>
</a>
</g>
</g>
<!-- Node1&#45;&gt;Node11 -->
<g id="edge12_Node000001_Node000011" class="edge">
<title>Node1&#45;&gt;Node11</title>
<g id="a_edge12_Node000001_Node000011"><a xlink:title=" ">
<path fill="none" stroke="#63b8ff" d="M424.53,-164.98C452.57,-155.81 497.26,-141.19 527.69,-131.23"/>
<polygon fill="#63b8ff" stroke="#63b8ff" points="529.01,-134.49 537.42,-128.05 526.83,-127.83 529.01,-134.49"/>
</a>
</g>
</g>
<!-- Node12 -->
<g id="Node000012" class="node">
<title>Node12</title>
<g id="a_Node000012"><a xlink:title=" ">
<polygon fill="#e0e0e0" stroke="#999999" points="667,-129 602,-129 602,-110 667,-110 667,-129"/>
<text text-anchor="middle" x="634.5" y="-117" font-family="Helvetica,sans-Serif" font-size="10.00">functional</text>
</a>
</g>
</g>
<!-- Node1&#45;&gt;Node12 -->
<g id="edge13_Node000001_Node000012" class="edge">
<title>Node1&#45;&gt;Node12</title>
<g id="a_edge13_Node000001_Node000012"><a xlink:title=" ">
<path fill="none" stroke="#63b8ff" d="M436.42,-164.98C478.97,-155.43 547.82,-139.97 592.12,-130.02"/>
<polygon fill="#63b8ff" stroke="#63b8ff" points="593,-133.41 601.99,-127.8 591.47,-126.58 593,-133.41"/>
</a>
</g>
</g>
<!-- Node13 -->
<g id="Node000013" class="node">
<title>Node13</title>
<g id="a_Node000013"><a xlink:href="AS5047U__types_8hpp.html" target="_top" xlink:title="Type definitions for the AS5047U driver.">
<polygon fill="white" stroke="#666666" points="752.5,-74 638.5,-74 638.5,-55 752.5,-55 752.5,-74"/>
<text text-anchor="middle" x="695.5" y="-62" font-family="Helvetica,sans-Serif" font-size="10.00">AS5047U_types.hpp</text>
</a>
</g>
</g>
<!-- Node1&#45;&gt;Node13 -->
<g id="edge14_Node000001_Node000013" class="edge">
<title>Node1&#45;&gt;Node13</title>
<g id="a_edge14_Node000001_Node000013"><a xlink:title=" ">
<path fill="none" stroke="#63b8ff" d="M448.12,-171.76C518.72,-168.27 643.32,-158.07 676.5,-129 689.07,-117.99 693.49,-99.04 694.97,-84.71"/>
<polygon fill="#63b8ff" stroke="#63b8ff" points="698.48,-84.63 695.62,-74.43 691.49,-84.19 698.48,-84.63"/>
</a>
</g>
</g>
<!-- Node14 -->
<g id="Node000014" class="node">
<title>Node14</title>
<g id="a_Node000014"><a xlink:href="AS5047U__config_8hpp.html" target="_top" xlink:title=" ">
<polygon fill="white" stroke="#666666" points="839.5,-129 723.5,-129 723.5,-110 839.5,-110 839.5,-129"/>
<text text-anchor="middle" x="781.5" y="-117" font-family="Helvetica,sans-Serif" font-size="10.00">AS5047U_config.hpp</text>
</a>
</g>
</g>
<!-- Node1&#45;&gt;Node14 -->
<g id="edge16_Node000001_Node000014" class="edge">
<title>Node1&#45;&gt;Node14</title>
<g id="a_edge16_Node000001_Node000014"><a xlink:title=" ">
<path fill="none" stroke="#63b8ff" d="M448.18,-166.63C515.88,-157.26 637.38,-140.44 713.49,-129.91"/>
<polygon fill="#63b8ff" stroke="#63b8ff" points="714.04,-133.37 723.46,-128.53 713.08,-126.44 714.04,-133.37"/>
</a>
</g>
</g>
<!-- Node3 -->
<g id="Node000003" class="node">
<title>Node3</title>
<g id="a_Node000003"><a xlink:title=" ">
<polygon fill="#e0e0e0" stroke="#999999" points="67,-74 14,-74 14,-55 67,-55 67,-74"/>
<text text-anchor="middle" x="40.5" y="-62" font-family="Helvetica,sans-Serif" font-size="10.00">cstddef</text>
</a>
</g>
</g>
<!-- Node2&#45;&gt;Node3 -->
<g id="edge2_Node000002_Node000003" class="edge">
<title>Node2&#45;&gt;Node3</title>
<g id="a_edge2_Node000002_Node000003"><a xlink:title=" ">
<path fill="none" stroke="#63b8ff" d="M50.52,-109.75C48.93,-102.72 46.64,-92.62 44.65,-83.84"/>
<polygon fill="#63b8ff" stroke="#63b8ff" points="48.07,-83.07 42.44,-74.09 41.24,-84.62 48.07,-83.07"/>
</a>
</g>
</g>
<!-- Node2&#45;&gt;Node4 -->
<g id="edge3_Node000002_Node000004" class="edge">
<title>Node2&#45;&gt;Node4</title>
<g id="a_edge3_Node000002_Node000004"><a xlink:title=" ">
<path fill="none" stroke="#63b8ff" d="M59.89,-109.58C71.41,-96.15 94.89,-70.66 119.5,-55 143.83,-39.52 174.41,-27.88 197.62,-20.39"/>
<polygon fill="#63b8ff" stroke="#63b8ff" points="198.9,-23.66 207.4,-17.34 196.81,-16.98 198.9,-23.66"/>
</a>
</g>
</g>
<!-- Node5&#45;&gt;Node4 -->
<g id="edge5_Node000005_Node000004" class="edge">
<title>Node5&#45;&gt;Node4</title>
<g id="a_edge5_Node000005_Node000004"><a xlink:title=" ">
<path fill="none" stroke="#63b8ff" d="M232.5,-54.75C232.5,-47.8 232.5,-37.85 232.5,-29.13"/>
<polygon fill="#63b8ff" stroke="#63b8ff" points="236,-29.09 232.5,-19.09 229,-29.09 236,-29.09"/>
</a>
</g>
</g>
<!-- Node13&#45;&gt;Node4 -->
<g id="edge15_Node000013_Node000004" class="edge">
<title>Node13&#45;&gt;Node4</title>
<g id="a_edge15_Node000013_Node000004"><a xlink:title=" ">
<path fill="none" stroke="#63b8ff" d="M638.26,-56.95C541.13,-45.83 346.84,-23.59 267.48,-14.5"/>
<polygon fill="#63b8ff" stroke="#63b8ff" points="267.84,-11.02 257.51,-13.36 267.04,-17.98 267.84,-11.02"/>
</a>
</g>
</g>
<!-- Node14&#45;&gt;Node4 -->
<g id="edge17_Node000014_Node000004" class="edge">
<title>Node14&#45;&gt;Node4</title>
<g id="a_edge17_Node000014_Node000004"><a xlink:title=" ">
<path fill="none" stroke="#63b8ff" d="M781.6,-109.87C781.24,-95.87 778.29,-68.43 761.5,-55 723.03,-24.22 379.68,-13.81 267.67,-11.22"/>
<polygon fill="#63b8ff" stroke="#63b8ff" points="267.64,-7.72 257.57,-10.99 267.49,-14.72 267.64,-7.72"/>
</a>
</g>
</g>
<!-- Node14&#45;&gt;Node13 -->
<g id="edge18_Node000014_Node000013" class="edge">
<title>Node14&#45;&gt;Node13</title>
<g id="a_edge18_Node000014_Node000013"><a xlink:title=" ">
<path fill="none" stroke="#63b8ff" d="M767.68,-109.98C754.35,-101.77 733.92,-89.18 718.19,-79.49"/>
<polygon fill="#63b8ff" stroke="#63b8ff" points="719.92,-76.44 709.57,-74.17 716.25,-82.4 719.92,-76.44"/>
</a>
</g>
</g>
</g>
</svg>
