<?xml version="1.0" encoding="UTF-8" standalone="no"?>
<!DOCTYPE svg PUBLIC "-//W3C//DTD SVG 1.1//EN"
 "http://www.w3.org/Graphics/SVG/1.1/DTD/svg11.dtd">
<!-- Generated by graphviz version 2.43.0 (0)
 -->
<!-- Title: inc/as5047u_spi_interface.hpp Pages: 1 -->
<svg width="1071pt" height="170pt"
 viewBox="0.00 0.00 1070.50 170.00" xmlns="http://www.w3.org/2000/svg" xmlns:xlink="http://www.w3.org/1999/xlink">
<g id="graph0" class="graph" transform="scale(1 1) rotate(0) translate(4 166)">
<title>inc/as5047u_spi_interface.hpp</title>
<!-- Node1 -->
<g id="Node000001" class="node">
<title>Node1</title>
<g id="a_Node000001"><a xlink:title="CRTP&#45;based SPI bus interface for AS5047U driver.">
<polygon fill="#999999" stroke="#666666" points="701,-162 537,-162 537,-143 701,-143 701,-162"/>
<text text-anchor="middle" x="619" y="-150" font-family="Helvetica,sans-Serif" font-size="10.00">inc/as5047u_spi_interface.hpp</text>
</a>
</g>
</g>
<!-- Node2 -->
<g id="Node000002" class="node">
<title>Node2</title>
<g id="a_Node000002"><a xlink:href="esp32__as5047u__bus_8hpp.html" target="_top" xlink:title="ESP32 SPI transport implementation for AS5047U driver.">
<polygon fill="white" stroke="#666666" points="620.5,-107 481.5,-107 481.5,-77 620.5,-77 620.5,-107"/>
<text text-anchor="start" x="489.5" y="-95" font-family="Helvetica,sans-Serif" font-size="10.00">examples/esp32/main</text>
<text text-anchor="middle" x="551" y="-84" font-family="Helvetica,sans-Serif" font-size="10.00">/esp32_as5047u_bus.hpp</text>
</a>
</g>
</g>
<!-- Node1&#45;&gt;Node2 -->
<g id="edge1_Node000001_Node000002" class="edge">
<title>Node1&#45;&gt;Node2</title>
<g id="a_edge1_Node000001_Node000002"><a xlink:title=" ">
<path fill="none" stroke="#63b8ff" d="M601.26,-136.23C590.79,-127.23 577.63,-115.91 567.41,-107.11"/>
<polygon fill="#63b8ff" stroke="#63b8ff" points="599.1,-139 608.97,-142.87 603.67,-133.69 599.1,-139"/>
</a>
</g>
</g>
<!-- Node9 -->
<g id="Node000009" class="node">
<title>Node9</title>
<g id="a_Node000009"><a xlink:href="as5047u_8hpp.html" target="_top" xlink:title="Driver for AMS AS5047U Magnetic Rotary Position Sensor (C++21).">
<polygon fill="white" stroke="#666666" points="749,-101.5 653,-101.5 653,-82.5 749,-82.5 749,-101.5"/>
<text text-anchor="middle" x="701" y="-89.5" font-family="Helvetica,sans-Serif" font-size="10.00">inc/as5047u.hpp</text>
</a>
</g>
</g>
<!-- Node1&#45;&gt;Node9 -->
<g id="edge8_Node000001_Node000009" class="edge">
<title>Node1&#45;&gt;Node9</title>
<g id="a_edge8_Node000001_Node000009"><a xlink:title=" ">
<path fill="none" stroke="#63b8ff" d="M639.54,-136.85C655.07,-125.77 675.87,-110.93 688.85,-101.67"/>
<polygon fill="#63b8ff" stroke="#63b8ff" points="637.21,-134.21 631.1,-142.87 641.27,-139.91 637.21,-134.21"/>
</a>
</g>
</g>
<!-- Node3 -->
<g id="Node000003" class="node">
<title>Node3</title>
<g id="a_Node000003"><a xlink:href="basic__angle__reading__example_8cpp.html" target="_top" xlink:title="Basic angle reading example with diagnostics.">
<polygon fill="white" stroke="#666666" points="778.5,-41 653.5,-41 653.5,0 778.5,0 778.5,-41"/>
<text text-anchor="start" x="661.5" y="-29" font-family="Helvetica,sans-Serif" font-size="10.00">examples/esp32/main</text>
<text text-anchor="start" x="661.5" y="-18" font-family="Helvetica,sans-Serif" font-size="10.00">/basic_angle_reading</text>
<text text-anchor="middle" x="716" y="-7" font-family="Helvetica,sans-Serif" font-size="10.00">_example.cpp</text>
</a>
</g>
</g>
<!-- Node2&#45;&gt;Node3 -->
<g id="edge2_Node000002_Node000003" class="edge">
<title>Node2&#45;&gt;Node3</title>
<g id="a_edge2_Node000002_Node000003"><a xlink:title=" ">
<path fill="none" stroke="#63b8ff" d="M593.66,-73.03C616.91,-63.24 645.71,-51.11 669.53,-41.07"/>
<polygon fill="#63b8ff" stroke="#63b8ff" points="592.25,-69.83 584.39,-76.94 594.96,-76.28 592.25,-69.83"/>
</a>
</g>
</g>
<!-- Node4 -->
<g id="Node000004" class="node">
<title>Node4</title>
<g id="a_Node000004"><a xlink:href="configuration__example_8cpp.html" target="_top" xlink:title="Configuration example with ABI, UVW, and PWM setup.">
<polygon fill="white" stroke="#666666" points="949,-35.5 797,-35.5 797,-5.5 949,-5.5 949,-35.5"/>
<text text-anchor="start" x="805" y="-23.5" font-family="Helvetica,sans-Serif" font-size="10.00">examples/esp32/main</text>
<text text-anchor="middle" x="873" y="-12.5" font-family="Helvetica,sans-Serif" font-size="10.00">/configuration_example.cpp</text>
</a>
</g>
</g>
<!-- Node2&#45;&gt;Node4 -->
<g id="edge3_Node000002_Node000004" class="edge">
<title>Node2&#45;&gt;Node4</title>
<g id="a_edge3_Node000002_Node000004"><a xlink:title=" ">
<path fill="none" stroke="#63b8ff" d="M628.96,-74.91C675.23,-65.28 735.01,-52.67 788,-41 795.84,-39.27 804.07,-37.43 812.2,-35.58"/>
<polygon fill="#63b8ff" stroke="#63b8ff" points="628.08,-71.52 619,-76.98 629.51,-78.37 628.08,-71.52"/>
</a>
</g>
</g>
<!-- Node5 -->
<g id="Node000005" class="node">
<title>Node5</title>
<g id="a_Node000005"><a xlink:href="driver__integration__test_8cpp.html" target="_top" xlink:title="Comprehensive Integration Test Suite for as5047u::AS5047U Driver.">
<polygon fill="white" stroke="#666666" points="281.5,-41 156.5,-41 156.5,0 281.5,0 281.5,-41"/>
<text text-anchor="start" x="164.5" y="-29" font-family="Helvetica,sans-Serif" font-size="10.00">examples/esp32/main</text>
<text text-anchor="start" x="164.5" y="-18" font-family="Helvetica,sans-Serif" font-size="10.00">/driver_integration</text>
<text text-anchor="middle" x="219" y="-7" font-family="Helvetica,sans-Serif" font-size="10.00">_test.cpp</text>
</a>
</g>
</g>
<!-- Node2&#45;&gt;Node5 -->
<g id="edge4_Node000002_Node000005" class="edge">
<title>Node2&#45;&gt;Node5</title>
<g id="a_edge4_Node000002_Node000005"><a xlink:title=" ">
<path fill="none" stroke="#63b8ff" d="M471.31,-77.41C419.45,-68.16 350.45,-55.07 290,-41 287.26,-40.36 284.47,-39.69 281.65,-38.99"/>
<polygon fill="#63b8ff" stroke="#63b8ff" points="470.99,-80.91 481.45,-79.21 472.21,-74.02 470.99,-80.91"/>
</a>
</g>
</g>
<!-- Node6 -->
<g id="Node000006" class="node">
<title>Node6</title>
<g id="a_Node000006"><a xlink:href="esp32__as5047u__bus_8cpp.html" target="_top" xlink:title="ESP32 SPI transport implementation for as5047u::AS5047U driver.">
<polygon fill="white" stroke="#666666" points="138,-35.5 0,-35.5 0,-5.5 138,-5.5 138,-35.5"/>
<text text-anchor="start" x="8" y="-23.5" font-family="Helvetica,sans-Serif" font-size="10.00">examples/esp32/main</text>
<text text-anchor="middle" x="69" y="-12.5" font-family="Helvetica,sans-Serif" font-size="10.00">/esp32_as5047u_bus.cpp</text>
</a>
</g>
</g>
<!-- Node2&#45;&gt;Node6 -->
<g id="edge5_Node000002_Node000006" class="edge">
<title>Node2&#45;&gt;Node6</title>
<g id="a_edge5_Node000002_Node000006"><a xlink:title=" ">
<path fill="none" stroke="#63b8ff" d="M471.29,-84.03C389.48,-76.2 258.72,-61.8 147,-41 138.77,-39.47 130.11,-37.58 121.68,-35.59"/>
<polygon fill="#63b8ff" stroke="#63b8ff" points="470.98,-87.51 481.26,-84.97 471.64,-80.54 470.98,-87.51"/>
</a>
</g>
</g>
<!-- Node7 -->
<g id="Node000007" class="node">
<title>Node7</title>
<g id="a_Node000007"><a xlink:href="full__features__example_8cpp.html" target="_top" xlink:title="Comprehensive example demonstrating all as5047u::AS5047U features.">
<polygon fill="white" stroke="#666666" points="448.5,-35.5 299.5,-35.5 299.5,-5.5 448.5,-5.5 448.5,-35.5"/>
<text text-anchor="start" x="307.5" y="-23.5" font-family="Helvetica,sans-Serif" font-size="10.00">examples/esp32/main</text>
<text text-anchor="middle" x="374" y="-12.5" font-family="Helvetica,sans-Serif" font-size="10.00">/full_features_example.cpp</text>
</a>
</g>
</g>
<!-- Node2&#45;&gt;Node7 -->
<g id="edge6_Node000002_Node000007" class="edge">
<title>Node2&#45;&gt;Node7</title>
<g id="a_edge6_Node000002_Node000007"><a xlink:title=" ">
<path fill="none" stroke="#63b8ff" d="M505.83,-73.26C476,-61.55 437.46,-46.42 409.77,-35.54"/>
<polygon fill="#63b8ff" stroke="#63b8ff" points="504.59,-76.54 515.18,-76.94 507.15,-70.02 504.59,-76.54"/>
</a>
</g>
</g>
<!-- Node8 -->
<g id="Node000008" class="node">
<title>Node8</title>
<g id="a_Node000008"><a xlink:href="velocity__reading__example_8cpp.html" target="_top" xlink:title="Velocity reading example with unit conversions.">
<polygon fill="white" stroke="#666666" points="635.5,-35.5 466.5,-35.5 466.5,-5.5 635.5,-5.5 635.5,-35.5"/>
<text text-anchor="start" x="474.5" y="-23.5" font-family="Helvetica,sans-Serif" font-size="10.00">examples/esp32/main</text>
<text text-anchor="middle" x="551" y="-12.5" font-family="Helvetica,sans-Serif" font-size="10.00">/velocity_reading_example.cpp</text>
</a>
</g>
</g>
<!-- Node2&#45;&gt;Node8 -->
<g id="edge7_Node000002_Node000008" class="edge">
<title>Node2&#45;&gt;Node8</title>
<g id="a_edge7_Node000002_Node000008"><a xlink:title=" ">
<path fill="none" stroke="#63b8ff" d="M551,-66.75C551,-56.31 551,-44.49 551,-35.54"/>
<polygon fill="#63b8ff" stroke="#63b8ff" points="547.5,-66.94 551,-76.94 554.5,-66.94 547.5,-66.94"/>
</a>
</g>
</g>
<!-- Node9&#45;&gt;Node3 -->
<g id="edge9_Node000009_Node000003" class="edge">
<title>Node9&#45;&gt;Node3</title>
<g id="a_edge9_Node000009_Node000003"><a xlink:title=" ">
<path fill="none" stroke="#63b8ff" d="M704.95,-72.7C707.04,-62.99 709.62,-51.07 711.75,-41.17"/>
<polygon fill="#63b8ff" stroke="#63b8ff" points="701.53,-71.96 702.84,-82.48 708.37,-73.44 701.53,-71.96"/>
</a>
</g>
</g>
<!-- Node9&#45;&gt;Node4 -->
<g id="edge10_Node000009_Node000004" class="edge">
<title>Node9&#45;&gt;Node4</title>
<g id="a_edge10_Node000009_Node000004"><a xlink:title=" ">
<path fill="none" stroke="#63b8ff" d="M731.6,-78.63C761.54,-66.54 807.08,-48.14 838.34,-35.51"/>
<polygon fill="#63b8ff" stroke="#63b8ff" points="730.05,-75.49 722.09,-82.48 732.67,-81.98 730.05,-75.49"/>
</a>
</g>
</g>
<!-- Node9&#45;&gt;Node5 -->
<g id="edge11_Node000009_Node000005" class="edge">
<title>Node9&#45;&gt;Node5</title>
<g id="a_edge11_Node000009_Node000005"><a xlink:title=" ">
<path fill="none" stroke="#63b8ff" d="M650.13,-80.54C643.05,-79.25 635.85,-78.03 629,-77 479.16,-54.52 438.87,-69.16 290,-41 287.24,-40.48 284.42,-39.9 281.59,-39.28"/>
<polygon fill="#63b8ff" stroke="#63b8ff" points="649.89,-84.06 660.36,-82.46 651.18,-77.18 649.89,-84.06"/>
</a>
</g>
</g>
<!-- Node9&#45;&gt;Node7 -->
<g id="edge12_Node000009_Node000007" class="edge">
<title>Node9&#45;&gt;Node7</title>
<g id="a_edge12_Node000009_Node000007"><a xlink:title=" ">
<path fill="none" stroke="#63b8ff" d="M647.44,-80.48C597.94,-70.65 522.39,-55.38 457,-41 449.19,-39.28 440.99,-37.42 432.9,-35.56"/>
<polygon fill="#63b8ff" stroke="#63b8ff" points="646.79,-83.92 657.28,-82.43 648.16,-77.06 646.79,-83.92"/>
</a>
</g>
</g>
<!-- Node9&#45;&gt;Node8 -->
<g id="edge13_Node000009_Node000008" class="edge">
<title>Node9&#45;&gt;Node8</title>
<g id="a_edge13_Node000009_Node000008"><a xlink:title=" ">
<path fill="none" stroke="#63b8ff" d="M673.28,-78.16C647.17,-66.06 608.14,-47.97 581.23,-35.51"/>
<polygon fill="#63b8ff" stroke="#63b8ff" points="672.06,-81.45 682.61,-82.48 675.01,-75.1 672.06,-81.45"/>
</a>
</g>
</g>
<!-- Node10 -->
<g id="Node000010" class="node">
<title>Node10</title>
<g id="a_Node000010"><a xlink:href="as5047u_8cpp.html" target="_top" xlink:title=" ">
<polygon fill="white" stroke="#666666" points="1062.5,-30 967.5,-30 967.5,-11 1062.5,-11 1062.5,-30"/>
<text text-anchor="middle" x="1015" y="-18" font-family="Helvetica,sans-Serif" font-size="10.00">src/as5047u.cpp</text>
</a>
</g>
</g>
<!-- Node9&#45;&gt;Node10 -->
<g id="edge14_Node000009_Node000010" class="edge">
<title>Node9&#45;&gt;Node10</title>
<g id="a_edge14_Node000009_Node000010"><a xlink:title=" ">
<path fill="none" stroke="#63b8ff" d="M759.3,-80.79C809.89,-72.05 884.7,-58.17 949,-41 960.52,-37.92 973.08,-33.72 984.27,-30"/>
<polygon fill="#63b8ff" stroke="#63b8ff" points="758.46,-77.39 749.2,-82.53 759.65,-84.29 758.46,-77.39"/>
</a>
</g>
</g>
<!-- Node10&#45;&gt;Node9 -->
<g id="edge15_Node000010_Node000009" class="edge">
<title>Node10&#45;&gt;Node9</title>
<g id="a_edge15_Node000010_Node000009"><a xlink:title=" ">
<path fill="none" stroke="#63b8ff" d="M991.2,-33.49C983.52,-36.18 975.01,-38.86 967,-41 892.12,-60.99 802.98,-76.53 749.14,-84.68"/>
<polygon fill="#63b8ff" stroke="#63b8ff" points="992.5,-36.74 1000.68,-30 990.09,-30.17 992.5,-36.74"/>
</a>
</g>
</g>
</g>
</svg>
