<?xml version="1.0" encoding="UTF-8" standalone="no"?>
<!DOCTYPE svg PUBLIC "-//W3C//DTD SVG 1.1//EN"
 "http://www.w3.org/Graphics/SVG/1.1/DTD/svg11.dtd">
<!-- Generated by graphviz version 2.43.0 (0)
 -->
<!-- Title: inc/AS5047U_REGISTERS.hpp Pages: 1 -->
<svg width="968pt" height="148pt"
 viewBox="0.00 0.00 968.00 148.00" xmlns="http://www.w3.org/2000/svg" xmlns:xlink="http://www.w3.org/1999/xlink">
<g id="graph0" class="graph" transform="scale(1 1) rotate(0) translate(4 144)">
<title>inc/AS5047U_REGISTERS.hpp</title>
<!-- Node1 -->
<g id="Node000001" class="node">
<title>Node1</title>
<g id="a_Node000001"><a xlink:title="Register definitions for the AS5047U Rotary Position Sensor.">
<polygon fill="#999999" stroke="#666666" points="591,-140 433,-140 433,-121 591,-121 591,-140"/>
<text text-anchor="middle" x="512" y="-128" font-family="Helvetica,sans-Serif" font-size="10.00">inc/AS5047U_REGISTERS.hpp</text>
</a>
</g>
</g>
<!-- Node2 -->
<g id="Node000002" class="node">
<title>Node2</title>
<g id="a_Node000002"><a xlink:href="AS5047U_8hpp.html" target="_top" xlink:title="Driver for AMS AS5047U Magnetic Rotary Position Sensor (C++21).">
<polygon fill="white" stroke="#666666" points="561.5,-85 462.5,-85 462.5,-66 561.5,-66 561.5,-85"/>
<text text-anchor="middle" x="512" y="-73" font-family="Helvetica,sans-Serif" font-size="10.00">inc/AS5047U.hpp</text>
</a>
</g>
</g>
<!-- Node1&#45;&gt;Node2 -->
<g id="edge1_Node000001_Node000002" class="edge">
<title>Node1&#45;&gt;Node2</title>
<g id="a_edge1_Node000001_Node000002"><a xlink:title=" ">
<path fill="none" stroke="#63b8ff" d="M512,-110.66C512,-101.93 512,-91.99 512,-85.09"/>
<polygon fill="#63b8ff" stroke="#63b8ff" points="508.5,-110.75 512,-120.75 515.5,-110.75 508.5,-110.75"/>
</a>
</g>
</g>
<!-- Node3 -->
<g id="Node000003" class="node">
<title>Node3</title>
<g id="a_Node000003"><a xlink:href="BasicAngleReadingExample_8cpp.html" target="_top" xlink:title="Basic angle reading example with diagnostics.">
<polygon fill="white" stroke="#666666" points="176,-30 0,-30 0,0 176,0 176,-30"/>
<text text-anchor="start" x="8" y="-18" font-family="Helvetica,sans-Serif" font-size="10.00">examples/esp32/main</text>
<text text-anchor="middle" x="88" y="-7" font-family="Helvetica,sans-Serif" font-size="10.00">/BasicAngleReadingExample.cpp</text>
</a>
</g>
</g>
<!-- Node2&#45;&gt;Node3 -->
<g id="edge2_Node000002_Node000003" class="edge">
<title>Node2&#45;&gt;Node3</title>
<g id="a_edge2_Node000002_Node000003"><a xlink:title=" ">
<path fill="none" stroke="#63b8ff" d="M452.25,-66.52C386.68,-57.72 278.31,-43.08 185,-30 182.05,-29.59 179.05,-29.16 176.02,-28.74"/>
<polygon fill="#63b8ff" stroke="#63b8ff" points="452.02,-70.02 462.4,-67.88 452.95,-63.08 452.02,-70.02"/>
</a>
</g>
</g>
<!-- Node4 -->
<g id="Node000004" class="node">
<title>Node4</title>
<g id="a_Node000004"><a xlink:href="ConfigurationExample_8cpp.html" target="_top" xlink:title="Configuration example with ABI, UVW, and PWM setup.">
<polygon fill="white" stroke="#666666" points="342,-30 194,-30 194,0 342,0 342,-30"/>
<text text-anchor="start" x="202" y="-18" font-family="Helvetica,sans-Serif" font-size="10.00">examples/esp32/main</text>
<text text-anchor="middle" x="268" y="-7" font-family="Helvetica,sans-Serif" font-size="10.00">/ConfigurationExample.cpp</text>
</a>
</g>
</g>
<!-- Node2&#45;&gt;Node4 -->
<g id="edge3_Node000002_Node000004" class="edge">
<title>Node2&#45;&gt;Node4</title>
<g id="a_edge3_Node000002_Node000004"><a xlink:title=" ">
<path fill="none" stroke="#63b8ff" d="M466.64,-63.62C427.14,-54.16 369.64,-40.37 326.66,-30.06"/>
<polygon fill="#63b8ff" stroke="#63b8ff" points="465.98,-67.07 476.52,-65.99 467.61,-60.26 465.98,-67.07"/>
</a>
</g>
</g>
<!-- Node5 -->
<g id="Node000005" class="node">
<title>Node5</title>
<g id="a_Node000005"><a xlink:href="DriverIntegrationTest_8cpp.html" target="_top" xlink:title="Comprehensive Integration Test Suite for AS5047U Driver.">
<polygon fill="white" stroke="#666666" points="503.5,-30 360.5,-30 360.5,0 503.5,0 503.5,-30"/>
<text text-anchor="start" x="368.5" y="-18" font-family="Helvetica,sans-Serif" font-size="10.00">examples/esp32/main</text>
<text text-anchor="middle" x="432" y="-7" font-family="Helvetica,sans-Serif" font-size="10.00">/DriverIntegrationTest.cpp</text>
</a>
</g>
</g>
<!-- Node2&#45;&gt;Node5 -->
<g id="edge4_Node000002_Node000005" class="edge">
<title>Node2&#45;&gt;Node5</title>
<g id="a_edge4_Node000002_Node000005"><a xlink:title=" ">
<path fill="none" stroke="#63b8ff" d="M491.85,-59.77C479.42,-50.68 463.57,-39.09 451.3,-30.11"/>
<polygon fill="#63b8ff" stroke="#63b8ff" points="490.06,-62.79 500.2,-65.87 494.19,-57.14 490.06,-62.79"/>
</a>
</g>
</g>
<!-- Node6 -->
<g id="Node000006" class="node">
<title>Node6</title>
<g id="a_Node000006"><a xlink:href="FullFeaturesExample_8cpp.html" target="_top" xlink:title="Comprehensive example demonstrating all AS5047U features.">
<polygon fill="white" stroke="#666666" points="664,-30 522,-30 522,0 664,0 664,-30"/>
<text text-anchor="start" x="530" y="-18" font-family="Helvetica,sans-Serif" font-size="10.00">examples/esp32/main</text>
<text text-anchor="middle" x="593" y="-7" font-family="Helvetica,sans-Serif" font-size="10.00">/FullFeaturesExample.cpp</text>
</a>
</g>
</g>
<!-- Node2&#45;&gt;Node6 -->
<g id="edge5_Node000002_Node000006" class="edge">
<title>Node2&#45;&gt;Node6</title>
<g id="a_edge5_Node000002_Node000006"><a xlink:title=" ">
<path fill="none" stroke="#63b8ff" d="M532.4,-59.77C544.98,-50.68 561.04,-39.09 573.46,-30.11"/>
<polygon fill="#63b8ff" stroke="#63b8ff" points="530.01,-57.18 523.95,-65.87 534.11,-62.85 530.01,-57.18"/>
</a>
</g>
</g>
<!-- Node7 -->
<g id="Node000007" class="node">
<title>Node7</title>
<g id="a_Node000007"><a xlink:href="VelocityReadingExample_8cpp.html" target="_top" xlink:title="Velocity reading example with unit conversions.">
<polygon fill="white" stroke="#666666" points="843.5,-30 682.5,-30 682.5,0 843.5,0 843.5,-30"/>
<text text-anchor="start" x="690.5" y="-18" font-family="Helvetica,sans-Serif" font-size="10.00">examples/esp32/main</text>
<text text-anchor="middle" x="763" y="-7" font-family="Helvetica,sans-Serif" font-size="10.00">/VelocityReadingExample.cpp</text>
</a>
</g>
</g>
<!-- Node2&#45;&gt;Node7 -->
<g id="edge6_Node000002_Node000007" class="edge">
<title>Node2&#45;&gt;Node7</title>
<g id="a_edge6_Node000002_Node000007"><a xlink:title=" ">
<path fill="none" stroke="#63b8ff" d="M558.41,-63.68C599.04,-54.21 658.35,-40.39 702.66,-30.06"/>
<polygon fill="#63b8ff" stroke="#63b8ff" points="557.44,-60.32 548.5,-65.99 559.03,-67.13 557.44,-60.32"/>
</a>
</g>
</g>
<!-- Node8 -->
<g id="Node000008" class="node">
<title>Node8</title>
<g id="a_Node000008"><a xlink:href="AS5047U_8cpp.html" target="_top" xlink:title=" ">
<polygon fill="white" stroke="#666666" points="960,-24.5 862,-24.5 862,-5.5 960,-5.5 960,-24.5"/>
<text text-anchor="middle" x="911" y="-12.5" font-family="Helvetica,sans-Serif" font-size="10.00">src/AS5047U.cpp</text>
</a>
</g>
</g>
<!-- Node2&#45;&gt;Node8 -->
<g id="edge7_Node000002_Node000008" class="edge">
<title>Node2&#45;&gt;Node8</title>
<g id="a_edge7_Node000002_Node000008"><a xlink:title=" ">
<path fill="none" stroke="#63b8ff" d="M571.82,-68.65C640.15,-61.52 755.15,-48.14 853,-30 861.25,-28.47 870.09,-26.51 878.31,-24.54"/>
<polygon fill="#63b8ff" stroke="#63b8ff" points="571.26,-65.19 561.67,-69.7 571.98,-72.16 571.26,-65.19"/>
</a>
</g>
</g>
</g>
</svg>
