<?xml version="1.0" encoding="UTF-8" standalone="no"?>
<!DOCTYPE svg PUBLIC "-//W3C//DTD SVG 1.1//EN"
 "http://www.w3.org/Graphics/SVG/1.1/DTD/svg11.dtd">
<!-- Generated by graphviz version 2.43.0 (0)
 -->
<!-- Title: inc/as5047u_types.hpp Pages: 1 -->
<svg width="914pt" height="214pt"
 viewBox="0.00 0.00 914.00 214.00" xmlns="http://www.w3.org/2000/svg" xmlns:xlink="http://www.w3.org/1999/xlink">
<g id="graph0" class="graph" transform="scale(1 1) rotate(0) translate(4 210)">
<title>inc/as5047u_types.hpp</title>
<!-- Node1 -->
<g id="Node000001" class="node">
<title>Node1</title>
<g id="a_Node000001"><a xlink:title="Type definitions for the AS5047U driver.">
<polygon fill="#999999" stroke="#666666" points="595.5,-206 467.5,-206 467.5,-187 595.5,-187 595.5,-206"/>
<text text-anchor="middle" x="531.5" y="-194" font-family="Helvetica,sans-Serif" font-size="10.00">inc/as5047u_types.hpp</text>
</a>
</g>
</g>
<!-- Node2 -->
<g id="Node000002" class="node">
<title>Node2</title>
<g id="a_Node000002"><a xlink:href="as5047u_8hpp.html" target="_top" xlink:title="Driver for AMS AS5047U Magnetic Rotary Position Sensor (C++21).">
<polygon fill="white" stroke="#666666" points="579.5,-96 483.5,-96 483.5,-77 579.5,-77 579.5,-96"/>
<text text-anchor="middle" x="531.5" y="-84" font-family="Helvetica,sans-Serif" font-size="10.00">inc/as5047u.hpp</text>
</a>
</g>
</g>
<!-- Node1&#45;&gt;Node2 -->
<g id="edge1_Node000001_Node000002" class="edge">
<title>Node1&#45;&gt;Node2</title>
<g id="a_edge1_Node000001_Node000002"><a xlink:title=" ">
<path fill="none" stroke="#63b8ff" d="M517.78,-178.71C512.18,-170.8 506.37,-160.94 503.5,-151 497.62,-130.63 513.06,-108.25 523.28,-96.26"/>
<polygon fill="#63b8ff" stroke="#63b8ff" points="515,-180.84 523.83,-186.7 520.58,-176.61 515,-180.84"/>
</a>
</g>
</g>
<!-- Node9 -->
<g id="Node000009" class="node">
<title>Node9</title>
<g id="a_Node000009"><a xlink:href="as5047u__config_8hpp.html" target="_top" xlink:title=" ">
<polygon fill="white" stroke="#666666" points="644,-151 513,-151 513,-132 644,-132 644,-151"/>
<text text-anchor="middle" x="578.5" y="-139" font-family="Helvetica,sans-Serif" font-size="10.00">inc/as5047u_config.hpp</text>
</a>
</g>
</g>
<!-- Node1&#45;&gt;Node9 -->
<g id="edge9_Node000001_Node000009" class="edge">
<title>Node1&#45;&gt;Node9</title>
<g id="a_edge9_Node000001_Node000009"><a xlink:title=" ">
<path fill="none" stroke="#63b8ff" d="M545.92,-179.24C554.16,-169.95 564.15,-158.68 570.88,-151.09"/>
<polygon fill="#63b8ff" stroke="#63b8ff" points="543.28,-176.94 539.26,-186.75 548.51,-181.59 543.28,-176.94"/>
</a>
</g>
</g>
<!-- Node3 -->
<g id="Node000003" class="node">
<title>Node3</title>
<g id="a_Node000003"><a xlink:href="basic__angle__reading__example_8cpp.html" target="_top" xlink:title="Basic angle reading example with diagnostics.">
<polygon fill="white" stroke="#666666" points="125,-41 0,-41 0,0 125,0 125,-41"/>
<text text-anchor="start" x="8" y="-29" font-family="Helvetica,sans-Serif" font-size="10.00">examples/esp32/main</text>
<text text-anchor="start" x="8" y="-18" font-family="Helvetica,sans-Serif" font-size="10.00">/basic_angle_reading</text>
<text text-anchor="middle" x="62.5" y="-7" font-family="Helvetica,sans-Serif" font-size="10.00">_example.cpp</text>
</a>
</g>
</g>
<!-- Node2&#45;&gt;Node3 -->
<g id="edge2_Node000002_Node000003" class="edge">
<title>Node2&#45;&gt;Node3</title>
<g id="a_edge2_Node000002_Node000003"><a xlink:title=" ">
<path fill="none" stroke="#63b8ff" d="M473.41,-81.78C395.69,-76.17 253.82,-63.71 134.5,-41 131.45,-40.42 128.33,-39.78 125.2,-39.09"/>
<polygon fill="#63b8ff" stroke="#63b8ff" points="473.26,-85.28 483.48,-82.5 473.75,-78.3 473.26,-85.28"/>
</a>
</g>
</g>
<!-- Node4 -->
<g id="Node000004" class="node">
<title>Node4</title>
<g id="a_Node000004"><a xlink:href="configuration__example_8cpp.html" target="_top" xlink:title="Configuration example with ABI, UVW, and PWM setup.">
<polygon fill="white" stroke="#666666" points="295.5,-35.5 143.5,-35.5 143.5,-5.5 295.5,-5.5 295.5,-35.5"/>
<text text-anchor="start" x="151.5" y="-23.5" font-family="Helvetica,sans-Serif" font-size="10.00">examples/esp32/main</text>
<text text-anchor="middle" x="219.5" y="-12.5" font-family="Helvetica,sans-Serif" font-size="10.00">/configuration_example.cpp</text>
</a>
</g>
</g>
<!-- Node2&#45;&gt;Node4 -->
<g id="edge3_Node000002_Node000004" class="edge">
<title>Node2&#45;&gt;Node4</title>
<g id="a_edge3_Node000002_Node000004"><a xlink:title=" ">
<path fill="none" stroke="#63b8ff" d="M475.69,-75.07C429.68,-66.35 362.75,-53.39 304.5,-41 296.5,-39.3 288.1,-37.45 279.81,-35.59"/>
<polygon fill="#63b8ff" stroke="#63b8ff" points="475.28,-78.56 485.76,-76.98 476.58,-71.68 475.28,-78.56"/>
</a>
</g>
</g>
<!-- Node5 -->
<g id="Node000005" class="node">
<title>Node5</title>
<g id="a_Node000005"><a xlink:href="driver__integration__test_8cpp.html" target="_top" xlink:title="Comprehensive Integration Test Suite for as5047u::AS5047U Driver.">
<polygon fill="white" stroke="#666666" points="439,-41 314,-41 314,0 439,0 439,-41"/>
<text text-anchor="start" x="322" y="-29" font-family="Helvetica,sans-Serif" font-size="10.00">examples/esp32/main</text>
<text text-anchor="start" x="322" y="-18" font-family="Helvetica,sans-Serif" font-size="10.00">/driver_integration</text>
<text text-anchor="middle" x="376.5" y="-7" font-family="Helvetica,sans-Serif" font-size="10.00">_test.cpp</text>
</a>
</g>
</g>
<!-- Node2&#45;&gt;Node5 -->
<g id="edge4_Node000002_Node000005" class="edge">
<title>Node2&#45;&gt;Node5</title>
<g id="a_edge4_Node000002_Node000005"><a xlink:title=" ">
<path fill="none" stroke="#63b8ff" d="M501.1,-72.95C479.08,-63.86 448.9,-51.39 423.75,-41.01"/>
<polygon fill="#63b8ff" stroke="#63b8ff" points="500.02,-76.29 510.6,-76.87 502.69,-69.82 500.02,-76.29"/>
</a>
</g>
</g>
<!-- Node6 -->
<g id="Node000006" class="node">
<title>Node6</title>
<g id="a_Node000006"><a xlink:href="full__features__example_8cpp.html" target="_top" xlink:title="Comprehensive example demonstrating all as5047u::AS5047U features.">
<polygon fill="white" stroke="#666666" points="606,-35.5 457,-35.5 457,-5.5 606,-5.5 606,-35.5"/>
<text text-anchor="start" x="465" y="-23.5" font-family="Helvetica,sans-Serif" font-size="10.00">examples/esp32/main</text>
<text text-anchor="middle" x="531.5" y="-12.5" font-family="Helvetica,sans-Serif" font-size="10.00">/full_features_example.cpp</text>
</a>
</g>
</g>
<!-- Node2&#45;&gt;Node6 -->
<g id="edge5_Node000002_Node000006" class="edge">
<title>Node2&#45;&gt;Node6</title>
<g id="a_edge5_Node000002_Node000006"><a xlink:title=" ">
<path fill="none" stroke="#63b8ff" d="M531.5,-66.85C531.5,-56.97 531.5,-45.01 531.5,-35.86"/>
<polygon fill="#63b8ff" stroke="#63b8ff" points="528,-66.87 531.5,-76.87 535,-66.87 528,-66.87"/>
</a>
</g>
</g>
<!-- Node7 -->
<g id="Node000007" class="node">
<title>Node7</title>
<g id="a_Node000007"><a xlink:href="velocity__reading__example_8cpp.html" target="_top" xlink:title="Velocity reading example with unit conversions.">
<polygon fill="white" stroke="#666666" points="793,-35.5 624,-35.5 624,-5.5 793,-5.5 793,-35.5"/>
<text text-anchor="start" x="632" y="-23.5" font-family="Helvetica,sans-Serif" font-size="10.00">examples/esp32/main</text>
<text text-anchor="middle" x="708.5" y="-12.5" font-family="Helvetica,sans-Serif" font-size="10.00">/velocity_reading_example.cpp</text>
</a>
</g>
</g>
<!-- Node2&#45;&gt;Node7 -->
<g id="edge6_Node000002_Node000007" class="edge">
<title>Node2&#45;&gt;Node7</title>
<g id="a_edge6_Node000002_Node000007"><a xlink:title=" ">
<path fill="none" stroke="#63b8ff" d="M564.89,-73.43C594.62,-62.68 638.13,-46.94 669.46,-35.62"/>
<polygon fill="#63b8ff" stroke="#63b8ff" points="563.58,-70.18 555.37,-76.87 565.97,-76.76 563.58,-70.18"/>
</a>
</g>
</g>
<!-- Node8 -->
<g id="Node000008" class="node">
<title>Node8</title>
<g id="a_Node000008"><a xlink:href="as5047u_8cpp.html" target="_top" xlink:title=" ">
<polygon fill="white" stroke="#666666" points="906,-30 811,-30 811,-11 906,-11 906,-30"/>
<text text-anchor="middle" x="858.5" y="-18" font-family="Helvetica,sans-Serif" font-size="10.00">src/as5047u.cpp</text>
</a>
</g>
</g>
<!-- Node2&#45;&gt;Node8 -->
<g id="edge7_Node000002_Node000008" class="edge">
<title>Node2&#45;&gt;Node8</title>
<g id="a_edge7_Node000002_Node000008"><a xlink:title=" ">
<path fill="none" stroke="#63b8ff" d="M589.74,-77.97C643.23,-70.84 724.26,-58.6 793.5,-41 804.97,-38.08 817.44,-33.85 828.51,-30.08"/>
<polygon fill="#63b8ff" stroke="#63b8ff" points="589.21,-74.51 579.75,-79.28 590.12,-81.45 589.21,-74.51"/>
</a>
</g>
</g>
<!-- Node8&#45;&gt;Node2 -->
<g id="edge8_Node000008_Node000002" class="edge">
<title>Node8&#45;&gt;Node2</title>
<g id="a_edge8_Node000008_Node000002"><a xlink:title=" ">
<path fill="none" stroke="#63b8ff" d="M835.07,-33.77C827.6,-36.41 819.32,-39.01 811.5,-41 731.56,-61.32 635.9,-74.5 579.5,-80.91"/>
<polygon fill="#63b8ff" stroke="#63b8ff" points="836.5,-36.97 844.63,-30.17 834.04,-30.41 836.5,-36.97"/>
</a>
</g>
</g>
<!-- Node9&#45;&gt;Node2 -->
<g id="edge10_Node000009_Node000002" class="edge">
<title>Node9&#45;&gt;Node2</title>
<g id="a_edge10_Node000009_Node000002"><a xlink:title=" ">
<path fill="none" stroke="#63b8ff" d="M564.08,-124.24C555.84,-114.95 545.85,-103.68 539.12,-96.09"/>
<polygon fill="#63b8ff" stroke="#63b8ff" points="561.49,-126.59 570.74,-131.75 566.72,-121.94 561.49,-126.59"/>
</a>
</g>
</g>
</g>
</svg>
