<?xml version="1.0" encoding="UTF-8" standalone="no"?>
<!DOCTYPE svg PUBLIC "-//W3C//DTD SVG 1.1//EN"
 "http://www.w3.org/Graphics/SVG/1.1/DTD/svg11.dtd">
<!-- Generated by graphviz version 2.43.0 (0)
 -->
<!-- Title: inc/as5047u.hpp Pages: 1 -->
<svg width="1197pt" height="192pt"
 viewBox="0.00 0.00 1196.50 192.00" xmlns="http://www.w3.org/2000/svg" xmlns:xlink="http://www.w3.org/1999/xlink">
<g id="graph0" class="graph" transform="scale(1 1) rotate(0) translate(4 188)">
<title>inc/as5047u.hpp</title>
<!-- Node1 -->
<g id="Node000001" class="node">
<title>Node1</title>
<g id="a_Node000001"><a xlink:title="Driver for AMS AS5047U Magnetic Rotary Position Sensor (C++21)">
<polygon fill="#999999" stroke="#666666" points="679.5,-184 583.5,-184 583.5,-165 679.5,-165 679.5,-184"/>
<text text-anchor="middle" x="631.5" y="-172" font-family="Helvetica,sans-Serif" font-size="10.00">inc/as5047u.hpp</text>
</a>
</g>
</g>
<!-- Node2 -->
<g id="Node000002" class="node">
<title>Node2</title>
<g id="a_Node000002"><a xlink:href="as5047u__spi__interface_8hpp.html" target="_top" xlink:title="CRTP&#45;based SPI bus interface for AS5047U driver.">
<polygon fill="white" stroke="#666666" points="147,-129 0,-129 0,-110 147,-110 147,-129"/>
<text text-anchor="middle" x="73.5" y="-117" font-family="Helvetica,sans-Serif" font-size="10.00">as5047u_spi_interface.hpp</text>
</a>
</g>
</g>
<!-- Node1&#45;&gt;Node2 -->
<g id="edge1_Node000001_Node000002" class="edge">
<title>Node1&#45;&gt;Node2</title>
<g id="a_edge1_Node000001_Node000002"><a xlink:title=" ">
<path fill="none" stroke="#63b8ff" d="M583.46,-168.98C498.39,-160.97 315.7,-143.75 161.5,-129 160.21,-128.88 158.91,-128.75 157.6,-128.63"/>
<polygon fill="#63b8ff" stroke="#63b8ff" points="157.73,-125.12 147.44,-127.65 157.06,-132.09 157.73,-125.12"/>
</a>
</g>
</g>
<!-- Node4 -->
<g id="Node000004" class="node">
<title>Node4</title>
<g id="a_Node000004"><a xlink:title=" ">
<polygon fill="#e0e0e0" stroke="#999999" points="292.5,-19 242.5,-19 242.5,0 292.5,0 292.5,-19"/>
<text text-anchor="middle" x="267.5" y="-7" font-family="Helvetica,sans-Serif" font-size="10.00">cstdint</text>
</a>
</g>
</g>
<!-- Node1&#45;&gt;Node4 -->
<g id="edge12_Node000001_Node000004" class="edge">
<title>Node1&#45;&gt;Node4</title>
<g id="a_edge12_Node000001_Node000004"><a xlink:title=" ">
<path fill="none" stroke="#63b8ff" d="M583.36,-173.7C488.62,-173.21 282.15,-167.62 224.5,-129 195.01,-109.25 177.12,-85.94 194.5,-55 202.85,-40.14 218.4,-29.65 233.01,-22.61"/>
<polygon fill="#63b8ff" stroke="#63b8ff" points="234.65,-25.71 242.39,-18.47 231.82,-19.31 234.65,-25.71"/>
</a>
</g>
</g>
<!-- Node5 -->
<g id="Node000005" class="node">
<title>Node5</title>
<g id="a_Node000005"><a xlink:href="as5047u__registers_8hpp.html" target="_top" xlink:title="Register definitions for the AS5047U Rotary Position Sensor.">
<polygon fill="white" stroke="#666666" points="331,-74 204,-74 204,-55 331,-55 331,-74"/>
<text text-anchor="middle" x="267.5" y="-62" font-family="Helvetica,sans-Serif" font-size="10.00">as5047u_registers.hpp</text>
</a>
</g>
</g>
<!-- Node1&#45;&gt;Node5 -->
<g id="edge4_Node000001_Node000005" class="edge">
<title>Node1&#45;&gt;Node5</title>
<g id="a_edge4_Node000001_Node000005"><a xlink:title=" ">
<path fill="none" stroke="#63b8ff" d="M583.26,-171.66C482.18,-167.3 255.53,-154.75 232.5,-129 219.61,-114.59 234.78,-94.62 248.98,-80.95"/>
<polygon fill="#63b8ff" stroke="#63b8ff" points="251.52,-83.37 256.59,-74.07 246.82,-78.18 251.52,-83.37"/>
</a>
</g>
</g>
<!-- Node6 -->
<g id="Node000006" class="node">
<title>Node6</title>
<g id="a_Node000006"><a xlink:title=" ">
<polygon fill="#e0e0e0" stroke="#999999" points="349.5,-129 241.5,-129 241.5,-110 349.5,-110 349.5,-129"/>
<text text-anchor="middle" x="295.5" y="-117" font-family="Helvetica,sans-Serif" font-size="10.00">as5047u_version.h</text>
</a>
</g>
</g>
<!-- Node1&#45;&gt;Node6 -->
<g id="edge6_Node000001_Node000006" class="edge">
<title>Node1&#45;&gt;Node6</title>
<g id="a_edge6_Node000001_Node000006"><a xlink:title=" ">
<path fill="none" stroke="#63b8ff" d="M583.36,-165.91C524.54,-156.63 424.81,-140.9 359.56,-130.6"/>
<polygon fill="#63b8ff" stroke="#63b8ff" points="359.81,-127.1 349.39,-129 358.72,-134.02 359.81,-127.1"/>
</a>
</g>
</g>
<!-- Node7 -->
<g id="Node000007" class="node">
<title>Node7</title>
<g id="a_Node000007"><a xlink:title=" ">
<polygon fill="#e0e0e0" stroke="#999999" points="431.5,-129 367.5,-129 367.5,-110 431.5,-110 431.5,-129"/>
<text text-anchor="middle" x="399.5" y="-117" font-family="Helvetica,sans-Serif" font-size="10.00">algorithm</text>
</a>
</g>
</g>
<!-- Node1&#45;&gt;Node7 -->
<g id="edge7_Node000001_Node000007" class="edge">
<title>Node1&#45;&gt;Node7</title>
<g id="a_edge7_Node000001_Node000007"><a xlink:title=" ">
<path fill="none" stroke="#63b8ff" d="M594.23,-164.98C552.6,-155.48 485.38,-140.12 441.81,-130.17"/>
<polygon fill="#63b8ff" stroke="#63b8ff" points="442.35,-126.7 431.82,-127.88 440.79,-133.52 442.35,-126.7"/>
</a>
</g>
</g>
<!-- Node8 -->
<g id="Node000008" class="node">
<title>Node8</title>
<g id="a_Node000008"><a xlink:title=" ">
<polygon fill="#e0e0e0" stroke="#999999" points="491.5,-129 449.5,-129 449.5,-110 491.5,-110 491.5,-129"/>
<text text-anchor="middle" x="470.5" y="-117" font-family="Helvetica,sans-Serif" font-size="10.00">array</text>
</a>
</g>
</g>
<!-- Node1&#45;&gt;Node8 -->
<g id="edge8_Node000001_Node000008" class="edge">
<title>Node1&#45;&gt;Node8</title>
<g id="a_edge8_Node000001_Node000008"><a xlink:title=" ">
<path fill="none" stroke="#63b8ff" d="M605.63,-164.98C577.2,-155.63 531.56,-140.6 501.3,-130.64"/>
<polygon fill="#63b8ff" stroke="#63b8ff" points="502.27,-127.27 491.68,-127.47 500.08,-133.92 502.27,-127.27"/>
</a>
</g>
</g>
<!-- Node9 -->
<g id="Node000009" class="node">
<title>Node9</title>
<g id="a_Node000009"><a xlink:title=" ">
<polygon fill="#e0e0e0" stroke="#999999" points="559.5,-129 509.5,-129 509.5,-110 559.5,-110 559.5,-129"/>
<text text-anchor="middle" x="534.5" y="-117" font-family="Helvetica,sans-Serif" font-size="10.00">atomic</text>
</a>
</g>
</g>
<!-- Node1&#45;&gt;Node9 -->
<g id="edge9_Node000001_Node000009" class="edge">
<title>Node1&#45;&gt;Node9</title>
<g id="a_edge9_Node000001_Node000009"><a xlink:title=" ">
<path fill="none" stroke="#63b8ff" d="M615.92,-164.98C600.73,-156.69 577.4,-143.94 559.6,-134.22"/>
<polygon fill="#63b8ff" stroke="#63b8ff" points="560.82,-130.89 550.37,-129.17 557.47,-137.04 560.82,-130.89"/>
</a>
</g>
</g>
<!-- Node10 -->
<g id="Node000010" class="node">
<title>Node10</title>
<g id="a_Node000010"><a xlink:title=" ">
<polygon fill="#e0e0e0" stroke="#999999" points="621.5,-129 577.5,-129 577.5,-110 621.5,-110 621.5,-129"/>
<text text-anchor="middle" x="599.5" y="-117" font-family="Helvetica,sans-Serif" font-size="10.00">bitset</text>
</a>
</g>
</g>
<!-- Node1&#45;&gt;Node10 -->
<g id="edge10_Node000001_Node000010" class="edge">
<title>Node1&#45;&gt;Node10</title>
<g id="a_edge10_Node000001_Node000010"><a xlink:title=" ">
<path fill="none" stroke="#63b8ff" d="M626.22,-164.75C621.79,-157.42 615.34,-146.73 609.88,-137.7"/>
<polygon fill="#63b8ff" stroke="#63b8ff" points="612.85,-135.84 604.69,-129.09 606.86,-139.46 612.85,-135.84"/>
</a>
</g>
</g>
<!-- Node11 -->
<g id="Node000011" class="node">
<title>Node11</title>
<g id="a_Node000011"><a xlink:title=" ">
<polygon fill="#e0e0e0" stroke="#999999" points="687,-129 640,-129 640,-110 687,-110 687,-129"/>
<text text-anchor="middle" x="663.5" y="-117" font-family="Helvetica,sans-Serif" font-size="10.00">cmath</text>
</a>
</g>
</g>
<!-- Node1&#45;&gt;Node11 -->
<g id="edge11_Node000001_Node000011" class="edge">
<title>Node1&#45;&gt;Node11</title>
<g id="a_edge11_Node000001_Node000011"><a xlink:title=" ">
<path fill="none" stroke="#63b8ff" d="M636.78,-164.75C641.21,-157.42 647.66,-146.73 653.12,-137.7"/>
<polygon fill="#63b8ff" stroke="#63b8ff" points="656.14,-139.46 658.31,-129.09 650.15,-135.84 656.14,-139.46"/>
</a>
</g>
</g>
<!-- Node12 -->
<g id="Node000012" class="node">
<title>Node12</title>
<g id="a_Node000012"><a xlink:title=" ">
<polygon fill="#e0e0e0" stroke="#999999" points="751.5,-129 705.5,-129 705.5,-110 751.5,-110 751.5,-129"/>
<text text-anchor="middle" x="728.5" y="-117" font-family="Helvetica,sans-Serif" font-size="10.00">cstdio</text>
</a>
</g>
</g>
<!-- Node1&#45;&gt;Node12 -->
<g id="edge13_Node000001_Node000012" class="edge">
<title>Node1&#45;&gt;Node12</title>
<g id="a_edge13_Node000001_Node000012"><a xlink:title=" ">
<path fill="none" stroke="#63b8ff" d="M647.08,-164.98C662.27,-156.69 685.6,-143.94 703.4,-134.22"/>
<polygon fill="#63b8ff" stroke="#63b8ff" points="705.53,-137.04 712.63,-129.17 702.18,-130.89 705.53,-137.04"/>
</a>
</g>
</g>
<!-- Node13 -->
<g id="Node000013" class="node">
<title>Node13</title>
<g id="a_Node000013"><a xlink:title=" ">
<polygon fill="#e0e0e0" stroke="#999999" points="835,-129 770,-129 770,-110 835,-110 835,-129"/>
<text text-anchor="middle" x="802.5" y="-117" font-family="Helvetica,sans-Serif" font-size="10.00">functional</text>
</a>
</g>
</g>
<!-- Node1&#45;&gt;Node13 -->
<g id="edge14_Node000001_Node000013" class="edge">
<title>Node1&#45;&gt;Node13</title>
<g id="a_edge14_Node000001_Node000013"><a xlink:title=" ">
<path fill="none" stroke="#63b8ff" d="M658.97,-164.98C687.68,-156.09 732.92,-142.07 764.92,-132.15"/>
<polygon fill="#63b8ff" stroke="#63b8ff" points="766.3,-135.39 774.81,-129.08 764.22,-128.7 766.3,-135.39"/>
</a>
</g>
</g>
<!-- Node14 -->
<g id="Node000014" class="node">
<title>Node14</title>
<g id="a_Node000014"><a xlink:title=" ">
<polygon fill="#e0e0e0" stroke="#999999" points="898,-129 853,-129 853,-110 898,-110 898,-129"/>
<text text-anchor="middle" x="875.5" y="-117" font-family="Helvetica,sans-Serif" font-size="10.00">utility</text>
</a>
</g>
</g>
<!-- Node1&#45;&gt;Node14 -->
<g id="edge15_Node000001_Node000014" class="edge">
<title>Node1&#45;&gt;Node14</title>
<g id="a_edge15_Node000001_Node000014"><a xlink:title=" ">
<path fill="none" stroke="#63b8ff" d="M676.56,-164.92C717.6,-156.93 780.1,-144.28 842.79,-129.31"/>
<polygon fill="#63b8ff" stroke="#63b8ff" points="843.95,-132.63 852.85,-126.88 842.31,-125.82 843.95,-132.63"/>
</a>
</g>
</g>
<!-- Node15 -->
<g id="Node000015" class="node">
<title>Node15</title>
<g id="a_Node000015"><a xlink:href="as5047u__types_8hpp.html" target="_top" xlink:title="Type definitions for the AS5047U driver.">
<polygon fill="white" stroke="#666666" points="982,-74 871,-74 871,-55 982,-55 982,-74"/>
<text text-anchor="middle" x="926.5" y="-62" font-family="Helvetica,sans-Serif" font-size="10.00">as5047u_types.hpp</text>
</a>
</g>
</g>
<!-- Node1&#45;&gt;Node15 -->
<g id="edge16_Node000001_Node000015" class="edge">
<title>Node1&#45;&gt;Node15</title>
<g id="a_edge16_Node000001_Node000015"><a xlink:title=" ">
<path fill="none" stroke="#63b8ff" d="M679.61,-171.77C749.49,-168.27 874.38,-158.04 907.5,-129 920.06,-117.98 924.49,-99.04 925.96,-84.7"/>
<polygon fill="#63b8ff" stroke="#63b8ff" points="929.47,-84.63 926.61,-74.43 922.49,-84.19 929.47,-84.63"/>
</a>
</g>
</g>
<!-- Node16 -->
<g id="Node000016" class="node">
<title>Node16</title>
<g id="a_Node000016"><a xlink:href="as5047u__config_8hpp.html" target="_top" xlink:title="Compile&#45;time configuration options for the AS5047U driver.">
<polygon fill="white" stroke="#666666" points="1068,-129 955,-129 955,-110 1068,-110 1068,-129"/>
<text text-anchor="middle" x="1011.5" y="-117" font-family="Helvetica,sans-Serif" font-size="10.00">as5047u_config.hpp</text>
</a>
</g>
</g>
<!-- Node1&#45;&gt;Node16 -->
<g id="edge18_Node000001_Node000016" class="edge">
<title>Node1&#45;&gt;Node16</title>
<g id="a_edge18_Node000001_Node000016"><a xlink:title=" ">
<path fill="none" stroke="#63b8ff" d="M679.63,-166.79C746.81,-157.42 868.97,-140.38 944.87,-129.79"/>
<polygon fill="#63b8ff" stroke="#63b8ff" points="945.38,-133.26 954.8,-128.41 944.42,-126.32 945.38,-133.26"/>
</a>
</g>
</g>
<!-- Node17 -->
<g id="Node000017" class="node">
<title>Node17</title>
<g id="a_Node000017"><a xlink:href="as5047u_8ipp.html" target="_top" xlink:title="Template implementation of AS5047U driver methods.">
<polygon fill="white" stroke="#666666" points="1188.5,-129 1086.5,-129 1086.5,-110 1188.5,-110 1188.5,-129"/>
<text text-anchor="middle" x="1137.5" y="-117" font-family="Helvetica,sans-Serif" font-size="10.00">../src/as5047u.ipp</text>
</a>
</g>
</g>
<!-- Node1&#45;&gt;Node17 -->
<g id="edge21_Node000001_Node000017" class="edge">
<title>Node1&#45;&gt;Node17</title>
<g id="a_edge21_Node000001_Node000017"><a xlink:title=" ">
<path fill="none" stroke="#63b8ff" d="M679.75,-168.84C760.42,-161.43 927.32,-146.04 1068.5,-129 1071.01,-128.7 1073.58,-128.38 1076.19,-128.04"/>
<polygon fill="#63b8ff" stroke="#63b8ff" points="1076.87,-131.48 1086.33,-126.71 1075.96,-124.54 1076.87,-131.48"/>
</a>
</g>
</g>
<!-- Node3 -->
<g id="Node000003" class="node">
<title>Node3</title>
<g id="a_Node000003"><a xlink:title=" ">
<polygon fill="#e0e0e0" stroke="#999999" points="100,-74 47,-74 47,-55 100,-55 100,-74"/>
<text text-anchor="middle" x="73.5" y="-62" font-family="Helvetica,sans-Serif" font-size="10.00">cstddef</text>
</a>
</g>
</g>
<!-- Node2&#45;&gt;Node3 -->
<g id="edge2_Node000002_Node000003" class="edge">
<title>Node2&#45;&gt;Node3</title>
<g id="a_edge2_Node000002_Node000003"><a xlink:title=" ">
<path fill="none" stroke="#63b8ff" d="M73.5,-109.75C73.5,-102.8 73.5,-92.85 73.5,-84.13"/>
<polygon fill="#63b8ff" stroke="#63b8ff" points="77,-84.09 73.5,-74.09 70,-84.09 77,-84.09"/>
</a>
</g>
</g>
<!-- Node2&#45;&gt;Node4 -->
<g id="edge3_Node000002_Node000004" class="edge">
<title>Node2&#45;&gt;Node4</title>
<g id="a_edge3_Node000002_Node000004"><a xlink:title=" ">
<path fill="none" stroke="#63b8ff" d="M83.81,-109.86C99.73,-96.79 131.6,-71.78 161.5,-55 184.49,-42.1 211.97,-30.67 233.2,-22.62"/>
<polygon fill="#63b8ff" stroke="#63b8ff" points="234.61,-25.83 242.76,-19.06 232.17,-19.27 234.61,-25.83"/>
</a>
</g>
</g>
<!-- Node5&#45;&gt;Node4 -->
<g id="edge5_Node000005_Node000004" class="edge">
<title>Node5&#45;&gt;Node4</title>
<g id="a_edge5_Node000005_Node000004"><a xlink:title=" ">
<path fill="none" stroke="#63b8ff" d="M267.5,-54.75C267.5,-47.8 267.5,-37.85 267.5,-29.13"/>
<polygon fill="#63b8ff" stroke="#63b8ff" points="271,-29.09 267.5,-19.09 264,-29.09 271,-29.09"/>
</a>
</g>
</g>
<!-- Node15&#45;&gt;Node4 -->
<g id="edge17_Node000015_Node000004" class="edge">
<title>Node15&#45;&gt;Node4</title>
<g id="a_edge17_Node000015_Node000004"><a xlink:title=" ">
<path fill="none" stroke="#63b8ff" d="M870.88,-59.03C739.2,-48.44 411.29,-22.06 302.9,-13.35"/>
<polygon fill="#63b8ff" stroke="#63b8ff" points="303.07,-9.85 292.82,-12.54 302.51,-16.83 303.07,-9.85"/>
</a>
</g>
</g>
<!-- Node16&#45;&gt;Node4 -->
<g id="edge19_Node000016_Node000004" class="edge">
<title>Node16&#45;&gt;Node4</title>
<g id="a_edge19_Node000016_Node000004"><a xlink:title=" ">
<path fill="none" stroke="#63b8ff" d="M1011.63,-109.82C1011.32,-95.76 1008.44,-68.24 991.5,-55 936.87,-12.29 440.28,-10.13 302.7,-10.36"/>
<polygon fill="#63b8ff" stroke="#63b8ff" points="302.68,-6.86 292.69,-10.38 302.7,-13.86 302.68,-6.86"/>
</a>
</g>
</g>
<!-- Node16&#45;&gt;Node15 -->
<g id="edge20_Node000016_Node000015" class="edge">
<title>Node16&#45;&gt;Node15</title>
<g id="a_edge20_Node000016_Node000015"><a xlink:title=" ">
<path fill="none" stroke="#63b8ff" d="M997.84,-109.98C984.66,-101.77 964.47,-89.18 948.93,-79.49"/>
<polygon fill="#63b8ff" stroke="#63b8ff" points="950.74,-76.49 940.41,-74.17 947.04,-82.43 950.74,-76.49"/>
</a>
</g>
</g>
<!-- Node17&#45;&gt;Node1 -->
<g id="edge22_Node000017_Node000001" class="edge">
<title>Node17&#45;&gt;Node1</title>
<g id="a_edge22_Node000017_Node000001"><a xlink:title=" ">
<path fill="none" stroke="#63b8ff" d="M1086.81,-128.96C1086.71,-128.97 1086.6,-128.99 1086.5,-129 944.52,-146.13 776.54,-161.6 689.73,-168.96"/>
<polygon fill="#63b8ff" stroke="#63b8ff" points="689.23,-165.49 679.55,-169.82 689.81,-172.47 689.23,-165.49"/>
</a>
</g>
</g>
<!-- Node18 -->
<g id="Node000018" class="node">
<title>Node18</title>
<g id="a_Node000018"><a xlink:title=" ">
<polygon fill="#e0e0e0" stroke="#999999" points="1165.5,-74 1109.5,-74 1109.5,-55 1165.5,-55 1165.5,-74"/>
<text text-anchor="middle" x="1137.5" y="-62" font-family="Helvetica,sans-Serif" font-size="10.00">iomanip</text>
</a>
</g>
</g>
<!-- Node17&#45;&gt;Node18 -->
<g id="edge23_Node000017_Node000018" class="edge">
<title>Node17&#45;&gt;Node18</title>
<g id="a_edge23_Node000017_Node000018"><a xlink:title=" ">
<path fill="none" stroke="#63b8ff" d="M1137.5,-109.75C1137.5,-102.8 1137.5,-92.85 1137.5,-84.13"/>
<polygon fill="#63b8ff" stroke="#63b8ff" points="1141,-84.09 1137.5,-74.09 1134,-84.09 1141,-84.09"/>
</a>
</g>
</g>
</g>
</svg>
