<?xml version="1.0" encoding="UTF-8" standalone="no"?>
<!DOCTYPE svg PUBLIC "-//W3C//DTD SVG 1.1//EN"
 "http://www.w3.org/Graphics/SVG/1.1/DTD/svg11.dtd">
<!-- Generated by graphviz version 2.43.0 (0)
 -->
<!-- Title: inc/as5047u_config.hpp Pages: 1 -->
<svg width="912pt" height="159pt"
 viewBox="0.00 0.00 912.00 159.00" xmlns="http://www.w3.org/2000/svg" xmlns:xlink="http://www.w3.org/1999/xlink">
<g id="graph0" class="graph" transform="scale(1 1) rotate(0) translate(4 155)">
<title>inc/as5047u_config.hpp</title>
<!-- Node1 -->
<g id="Node000001" class="node">
<title>Node1</title>
<g id="a_Node000001"><a xlink:title="Compile&#45;time configuration options for the AS5047U driver.">
<polygon fill="#999999" stroke="#666666" points="597,-151 466,-151 466,-132 597,-132 597,-151"/>
<text text-anchor="middle" x="531.5" y="-139" font-family="Helvetica,sans-Serif" font-size="10.00">inc/as5047u_config.hpp</text>
</a>
</g>
</g>
<!-- Node2 -->
<g id="Node000002" class="node">
<title>Node2</title>
<g id="a_Node000002"><a xlink:href="as5047u_8hpp.html" target="_top" xlink:title="Driver for AMS AS5047U Magnetic Rotary Position Sensor (C++21)">
<polygon fill="white" stroke="#666666" points="579.5,-96 483.5,-96 483.5,-77 579.5,-77 579.5,-96"/>
<text text-anchor="middle" x="531.5" y="-84" font-family="Helvetica,sans-Serif" font-size="10.00">inc/as5047u.hpp</text>
</a>
</g>
</g>
<!-- Node1&#45;&gt;Node2 -->
<g id="edge1_Node000001_Node000002" class="edge">
<title>Node1&#45;&gt;Node2</title>
<g id="a_edge1_Node000001_Node000002"><a xlink:title=" ">
<path fill="none" stroke="#63b8ff" d="M531.5,-121.66C531.5,-112.93 531.5,-102.99 531.5,-96.09"/>
<polygon fill="#63b8ff" stroke="#63b8ff" points="528,-121.75 531.5,-131.75 535,-121.75 528,-121.75"/>
</a>
</g>
</g>
<!-- Node3 -->
<g id="Node000003" class="node">
<title>Node3</title>
<g id="a_Node000003"><a xlink:href="basic__angle__reading__example_8cpp.html" target="_top" xlink:title="Basic angle reading example with diagnostics.">
<polygon fill="white" stroke="#666666" points="125,-41 0,-41 0,0 125,0 125,-41"/>
<text text-anchor="start" x="8" y="-29" font-family="Helvetica,sans-Serif" font-size="10.00">examples/esp32/main</text>
<text text-anchor="start" x="8" y="-18" font-family="Helvetica,sans-Serif" font-size="10.00">/basic_angle_reading</text>
<text text-anchor="middle" x="62.5" y="-7" font-family="Helvetica,sans-Serif" font-size="10.00">_example.cpp</text>
</a>
</g>
</g>
<!-- Node2&#45;&gt;Node3 -->
<g id="edge2_Node000002_Node000003" class="edge">
<title>Node2&#45;&gt;Node3</title>
<g id="a_edge2_Node000002_Node000003"><a xlink:title=" ">
<path fill="none" stroke="#63b8ff" d="M473.41,-81.78C395.69,-76.17 253.82,-63.71 134.5,-41 131.45,-40.42 128.33,-39.78 125.2,-39.09"/>
<polygon fill="#63b8ff" stroke="#63b8ff" points="473.26,-85.28 483.48,-82.5 473.75,-78.3 473.26,-85.28"/>
</a>
</g>
</g>
<!-- Node4 -->
<g id="Node000004" class="node">
<title>Node4</title>
<g id="a_Node000004"><a xlink:href="configuration__example_8cpp.html" target="_top" xlink:title="Configuration example with ABI, UVW, and PWM setup.">
<polygon fill="white" stroke="#666666" points="295.5,-35.5 143.5,-35.5 143.5,-5.5 295.5,-5.5 295.5,-35.5"/>
<text text-anchor="start" x="151.5" y="-23.5" font-family="Helvetica,sans-Serif" font-size="10.00">examples/esp32/main</text>
<text text-anchor="middle" x="219.5" y="-12.5" font-family="Helvetica,sans-Serif" font-size="10.00">/configuration_example.cpp</text>
</a>
</g>
</g>
<!-- Node2&#45;&gt;Node4 -->
<g id="edge3_Node000002_Node000004" class="edge">
<title>Node2&#45;&gt;Node4</title>
<g id="a_edge3_Node000002_Node000004"><a xlink:title=" ">
<path fill="none" stroke="#63b8ff" d="M475.69,-75.07C429.68,-66.35 362.75,-53.39 304.5,-41 296.5,-39.3 288.1,-37.45 279.81,-35.59"/>
<polygon fill="#63b8ff" stroke="#63b8ff" points="475.28,-78.56 485.76,-76.98 476.58,-71.68 475.28,-78.56"/>
</a>
</g>
</g>
<!-- Node5 -->
<g id="Node000005" class="node">
<title>Node5</title>
<g id="a_Node000005"><a xlink:href="driver__integration__test_8cpp.html" target="_top" xlink:title="Comprehensive Integration Test Suite for as5047u::AS5047U Driver.">
<polygon fill="white" stroke="#666666" points="439,-41 314,-41 314,0 439,0 439,-41"/>
<text text-anchor="start" x="322" y="-29" font-family="Helvetica,sans-Serif" font-size="10.00">examples/esp32/main</text>
<text text-anchor="start" x="322" y="-18" font-family="Helvetica,sans-Serif" font-size="10.00">/driver_integration</text>
<text text-anchor="middle" x="376.5" y="-7" font-family="Helvetica,sans-Serif" font-size="10.00">_test.cpp</text>
</a>
</g>
</g>
<!-- Node2&#45;&gt;Node5 -->
<g id="edge4_Node000002_Node000005" class="edge">
<title>Node2&#45;&gt;Node5</title>
<g id="a_edge4_Node000002_Node000005"><a xlink:title=" ">
<path fill="none" stroke="#63b8ff" d="M501.1,-72.95C479.08,-63.86 448.9,-51.39 423.75,-41.01"/>
<polygon fill="#63b8ff" stroke="#63b8ff" points="500.02,-76.29 510.6,-76.87 502.69,-69.82 500.02,-76.29"/>
</a>
</g>
</g>
<!-- Node6 -->
<g id="Node000006" class="node">
<title>Node6</title>
<g id="a_Node000006"><a xlink:href="full__features__example_8cpp.html" target="_top" xlink:title="Comprehensive example demonstrating all as5047u::AS5047U features.">
<polygon fill="white" stroke="#666666" points="606,-35.5 457,-35.5 457,-5.5 606,-5.5 606,-35.5"/>
<text text-anchor="start" x="465" y="-23.5" font-family="Helvetica,sans-Serif" font-size="10.00">examples/esp32/main</text>
<text text-anchor="middle" x="531.5" y="-12.5" font-family="Helvetica,sans-Serif" font-size="10.00">/full_features_example.cpp</text>
</a>
</g>
</g>
<!-- Node2&#45;&gt;Node6 -->
<g id="edge5_Node000002_Node000006" class="edge">
<title>Node2&#45;&gt;Node6</title>
<g id="a_edge5_Node000002_Node000006"><a xlink:title=" ">
<path fill="none" stroke="#63b8ff" d="M531.5,-66.85C531.5,-56.97 531.5,-45.01 531.5,-35.86"/>
<polygon fill="#63b8ff" stroke="#63b8ff" points="528,-66.87 531.5,-76.87 535,-66.87 528,-66.87"/>
</a>
</g>
</g>
<!-- Node7 -->
<g id="Node000007" class="node">
<title>Node7</title>
<g id="a_Node000007"><a xlink:href="velocity__reading__example_8cpp.html" target="_top" xlink:title="Velocity reading example with unit conversions.">
<polygon fill="white" stroke="#666666" points="793,-35.5 624,-35.5 624,-5.5 793,-5.5 793,-35.5"/>
<text text-anchor="start" x="632" y="-23.5" font-family="Helvetica,sans-Serif" font-size="10.00">examples/esp32/main</text>
<text text-anchor="middle" x="708.5" y="-12.5" font-family="Helvetica,sans-Serif" font-size="10.00">/velocity_reading_example.cpp</text>
</a>
</g>
</g>
<!-- Node2&#45;&gt;Node7 -->
<g id="edge6_Node000002_Node000007" class="edge">
<title>Node2&#45;&gt;Node7</title>
<g id="a_edge6_Node000002_Node000007"><a xlink:title=" ">
<path fill="none" stroke="#63b8ff" d="M564.89,-73.43C594.62,-62.68 638.13,-46.94 669.46,-35.62"/>
<polygon fill="#63b8ff" stroke="#63b8ff" points="563.58,-70.18 555.37,-76.87 565.97,-76.76 563.58,-70.18"/>
</a>
</g>
</g>
<!-- Node8 -->
<g id="Node000008" class="node">
<title>Node8</title>
<g id="a_Node000008"><a xlink:href="as5047u_8ipp.html" target="_top" xlink:title="Template implementation of AS5047U driver methods.">
<polygon fill="white" stroke="#666666" points="904,-30 811,-30 811,-11 904,-11 904,-30"/>
<text text-anchor="middle" x="857.5" y="-18" font-family="Helvetica,sans-Serif" font-size="10.00">src/as5047u.ipp</text>
</a>
</g>
</g>
<!-- Node2&#45;&gt;Node8 -->
<g id="edge7_Node000002_Node000008" class="edge">
<title>Node2&#45;&gt;Node8</title>
<g id="a_edge7_Node000002_Node000008"><a xlink:title=" ">
<path fill="none" stroke="#63b8ff" d="M589.76,-78.07C643.27,-71 724.31,-58.8 793.5,-41 804.78,-38.1 817.03,-33.87 827.91,-30.09"/>
<polygon fill="#63b8ff" stroke="#63b8ff" points="589.24,-74.61 579.77,-79.37 590.14,-81.55 589.24,-74.61"/>
</a>
</g>
</g>
<!-- Node8&#45;&gt;Node2 -->
<g id="edge8_Node000008_Node000002" class="edge">
<title>Node8&#45;&gt;Node2</title>
<g id="a_edge8_Node000008_Node000002"><a xlink:title=" ">
<path fill="none" stroke="#63b8ff" d="M834.66,-33.78C827.33,-36.43 819.19,-39.02 811.5,-41 731.62,-61.55 635.94,-74.64 579.52,-80.98"/>
<polygon fill="#63b8ff" stroke="#63b8ff" points="835.95,-37.03 844.04,-30.19 833.45,-30.5 835.95,-37.03"/>
</a>
</g>
</g>
</g>
</svg>
