<?xml version="1.0" encoding="UTF-8" standalone="no"?>
<!DOCTYPE svg PUBLIC "-//W3C//DTD SVG 1.1//EN"
 "http://www.w3.org/Graphics/SVG/1.1/DTD/svg11.dtd">
<!-- Generated by graphviz version 2.43.0 (0)
 -->
<!-- Title: inc/as5047u.hpp Pages: 1 -->
<svg width="1010pt" height="192pt"
 viewBox="0.00 0.00 1009.50 192.00" xmlns="http://www.w3.org/2000/svg" xmlns:xlink="http://www.w3.org/1999/xlink">
<g id="graph0" class="graph" transform="scale(1 1) rotate(0) translate(4 188)">
<title>inc/as5047u.hpp</title>
<!-- Node1 -->
<g id="Node000001" class="node">
<title>Node1</title>
<g id="a_Node000001"><a xlink:title="Driver for AMS AS5047U Magnetic Rotary Position Sensor (C++21).">
<polygon fill="#999999" stroke="#666666" points="553.5,-184 457.5,-184 457.5,-165 553.5,-165 553.5,-184"/>
<text text-anchor="middle" x="505.5" y="-172" font-family="Helvetica,sans-Serif" font-size="10.00">inc/as5047u.hpp</text>
</a>
</g>
</g>
<!-- Node2 -->
<g id="Node000002" class="node">
<title>Node2</title>
<g id="a_Node000002"><a xlink:href="as5047u__spi__interface_8hpp.html" target="_top" xlink:title="CRTP&#45;based SPI bus interface for AS5047U driver.">
<polygon fill="white" stroke="#666666" points="147,-129 0,-129 0,-110 147,-110 147,-129"/>
<text text-anchor="middle" x="73.5" y="-117" font-family="Helvetica,sans-Serif" font-size="10.00">as5047u_spi_interface.hpp</text>
</a>
</g>
</g>
<!-- Node1&#45;&gt;Node2 -->
<g id="edge1_Node000001_Node000002" class="edge">
<title>Node1&#45;&gt;Node2</title>
<g id="a_edge1_Node000001_Node000002"><a xlink:title=" ">
<path fill="none" stroke="#63b8ff" d="M457.2,-167.57C383.42,-158.52 241.87,-141.16 152.85,-130.24"/>
<polygon fill="#63b8ff" stroke="#63b8ff" points="153.15,-126.75 142.8,-129 152.3,-133.69 153.15,-126.75"/>
</a>
</g>
</g>
<!-- Node4 -->
<g id="Node000004" class="node">
<title>Node4</title>
<g id="a_Node000004"><a xlink:title=" ">
<polygon fill="#e0e0e0" stroke="#999999" points="292.5,-19 242.5,-19 242.5,0 292.5,0 292.5,-19"/>
<text text-anchor="middle" x="267.5" y="-7" font-family="Helvetica,sans-Serif" font-size="10.00">cstdint</text>
</a>
</g>
</g>
<!-- Node1&#45;&gt;Node4 -->
<g id="edge11_Node000001_Node000004" class="edge">
<title>Node1&#45;&gt;Node4</title>
<g id="a_edge11_Node000001_Node000004"><a xlink:title=" ">
<path fill="none" stroke="#63b8ff" d="M457.26,-170.95C387.07,-166.4 261.13,-154.83 224.5,-129 195.5,-108.55 177.12,-85.94 194.5,-55 202.85,-40.14 218.4,-29.65 233.01,-22.61"/>
<polygon fill="#63b8ff" stroke="#63b8ff" points="234.65,-25.71 242.39,-18.47 231.82,-19.31 234.65,-25.71"/>
</a>
</g>
</g>
<!-- Node5 -->
<g id="Node000005" class="node">
<title>Node5</title>
<g id="a_Node000005"><a xlink:href="as5047u__registers_8hpp.html" target="_top" xlink:title="Register definitions for the AS5047U Rotary Position Sensor.">
<polygon fill="white" stroke="#666666" points="331,-74 204,-74 204,-55 331,-55 331,-74"/>
<text text-anchor="middle" x="267.5" y="-62" font-family="Helvetica,sans-Serif" font-size="10.00">as5047u_registers.hpp</text>
</a>
</g>
</g>
<!-- Node1&#45;&gt;Node5 -->
<g id="edge4_Node000001_Node000005" class="edge">
<title>Node1&#45;&gt;Node5</title>
<g id="a_edge4_Node000001_Node000005"><a xlink:title=" ">
<path fill="none" stroke="#63b8ff" d="M457.35,-172.84C386.85,-170.74 260.81,-162.29 232.5,-129 220.05,-114.35 234.91,-94.58 248.93,-81.02"/>
<polygon fill="#63b8ff" stroke="#63b8ff" points="251.4,-83.5 256.45,-74.19 246.69,-78.32 251.4,-83.5"/>
</a>
</g>
</g>
<!-- Node6 -->
<g id="Node000006" class="node">
<title>Node6</title>
<g id="a_Node000006"><a xlink:title=" ">
<polygon fill="#e0e0e0" stroke="#999999" points="305.5,-129 241.5,-129 241.5,-110 305.5,-110 305.5,-129"/>
<text text-anchor="middle" x="273.5" y="-117" font-family="Helvetica,sans-Serif" font-size="10.00">algorithm</text>
</a>
</g>
</g>
<!-- Node1&#45;&gt;Node6 -->
<g id="edge6_Node000001_Node000006" class="edge">
<title>Node1&#45;&gt;Node6</title>
<g id="a_edge6_Node000001_Node000006"><a xlink:title=" ">
<path fill="none" stroke="#63b8ff" d="M468.23,-164.98C426.6,-155.48 359.38,-140.12 315.81,-130.17"/>
<polygon fill="#63b8ff" stroke="#63b8ff" points="316.35,-126.7 305.82,-127.88 314.79,-133.52 316.35,-126.7"/>
</a>
</g>
</g>
<!-- Node7 -->
<g id="Node000007" class="node">
<title>Node7</title>
<g id="a_Node000007"><a xlink:title=" ">
<polygon fill="#e0e0e0" stroke="#999999" points="365.5,-129 323.5,-129 323.5,-110 365.5,-110 365.5,-129"/>
<text text-anchor="middle" x="344.5" y="-117" font-family="Helvetica,sans-Serif" font-size="10.00">array</text>
</a>
</g>
</g>
<!-- Node1&#45;&gt;Node7 -->
<g id="edge7_Node000001_Node000007" class="edge">
<title>Node1&#45;&gt;Node7</title>
<g id="a_edge7_Node000001_Node000007"><a xlink:title=" ">
<path fill="none" stroke="#63b8ff" d="M479.63,-164.98C451.2,-155.63 405.56,-140.6 375.3,-130.64"/>
<polygon fill="#63b8ff" stroke="#63b8ff" points="376.27,-127.27 365.68,-127.47 374.08,-133.92 376.27,-127.27"/>
</a>
</g>
</g>
<!-- Node8 -->
<g id="Node000008" class="node">
<title>Node8</title>
<g id="a_Node000008"><a xlink:title=" ">
<polygon fill="#e0e0e0" stroke="#999999" points="433.5,-129 383.5,-129 383.5,-110 433.5,-110 433.5,-129"/>
<text text-anchor="middle" x="408.5" y="-117" font-family="Helvetica,sans-Serif" font-size="10.00">atomic</text>
</a>
</g>
</g>
<!-- Node1&#45;&gt;Node8 -->
<g id="edge8_Node000001_Node000008" class="edge">
<title>Node1&#45;&gt;Node8</title>
<g id="a_edge8_Node000001_Node000008"><a xlink:title=" ">
<path fill="none" stroke="#63b8ff" d="M489.92,-164.98C474.73,-156.69 451.4,-143.94 433.6,-134.22"/>
<polygon fill="#63b8ff" stroke="#63b8ff" points="434.82,-130.89 424.37,-129.17 431.47,-137.04 434.82,-130.89"/>
</a>
</g>
</g>
<!-- Node9 -->
<g id="Node000009" class="node">
<title>Node9</title>
<g id="a_Node000009"><a xlink:title=" ">
<polygon fill="#e0e0e0" stroke="#999999" points="495.5,-129 451.5,-129 451.5,-110 495.5,-110 495.5,-129"/>
<text text-anchor="middle" x="473.5" y="-117" font-family="Helvetica,sans-Serif" font-size="10.00">bitset</text>
</a>
</g>
</g>
<!-- Node1&#45;&gt;Node9 -->
<g id="edge9_Node000001_Node000009" class="edge">
<title>Node1&#45;&gt;Node9</title>
<g id="a_edge9_Node000001_Node000009"><a xlink:title=" ">
<path fill="none" stroke="#63b8ff" d="M500.22,-164.75C495.79,-157.42 489.34,-146.73 483.88,-137.7"/>
<polygon fill="#63b8ff" stroke="#63b8ff" points="486.85,-135.84 478.69,-129.09 480.86,-139.46 486.85,-135.84"/>
</a>
</g>
</g>
<!-- Node10 -->
<g id="Node000010" class="node">
<title>Node10</title>
<g id="a_Node000010"><a xlink:title=" ">
<polygon fill="#e0e0e0" stroke="#999999" points="561,-129 514,-129 514,-110 561,-110 561,-129"/>
<text text-anchor="middle" x="537.5" y="-117" font-family="Helvetica,sans-Serif" font-size="10.00">cmath</text>
</a>
</g>
</g>
<!-- Node1&#45;&gt;Node10 -->
<g id="edge10_Node000001_Node000010" class="edge">
<title>Node1&#45;&gt;Node10</title>
<g id="a_edge10_Node000001_Node000010"><a xlink:title=" ">
<path fill="none" stroke="#63b8ff" d="M510.78,-164.75C515.21,-157.42 521.66,-146.73 527.12,-137.7"/>
<polygon fill="#63b8ff" stroke="#63b8ff" points="530.14,-139.46 532.31,-129.09 524.15,-135.84 530.14,-139.46"/>
</a>
</g>
</g>
<!-- Node11 -->
<g id="Node000011" class="node">
<title>Node11</title>
<g id="a_Node000011"><a xlink:title=" ">
<polygon fill="#e0e0e0" stroke="#999999" points="625.5,-129 579.5,-129 579.5,-110 625.5,-110 625.5,-129"/>
<text text-anchor="middle" x="602.5" y="-117" font-family="Helvetica,sans-Serif" font-size="10.00">cstdio</text>
</a>
</g>
</g>
<!-- Node1&#45;&gt;Node11 -->
<g id="edge12_Node000001_Node000011" class="edge">
<title>Node1&#45;&gt;Node11</title>
<g id="a_edge12_Node000001_Node000011"><a xlink:title=" ">
<path fill="none" stroke="#63b8ff" d="M521.08,-164.98C536.27,-156.69 559.6,-143.94 577.4,-134.22"/>
<polygon fill="#63b8ff" stroke="#63b8ff" points="579.53,-137.04 586.63,-129.17 576.18,-130.89 579.53,-137.04"/>
</a>
</g>
</g>
<!-- Node12 -->
<g id="Node000012" class="node">
<title>Node12</title>
<g id="a_Node000012"><a xlink:title=" ">
<polygon fill="#e0e0e0" stroke="#999999" points="709,-129 644,-129 644,-110 709,-110 709,-129"/>
<text text-anchor="middle" x="676.5" y="-117" font-family="Helvetica,sans-Serif" font-size="10.00">functional</text>
</a>
</g>
</g>
<!-- Node1&#45;&gt;Node12 -->
<g id="edge13_Node000001_Node000012" class="edge">
<title>Node1&#45;&gt;Node12</title>
<g id="a_edge13_Node000001_Node000012"><a xlink:title=" ">
<path fill="none" stroke="#63b8ff" d="M532.97,-164.98C561.68,-156.09 606.92,-142.07 638.92,-132.15"/>
<polygon fill="#63b8ff" stroke="#63b8ff" points="640.3,-135.39 648.81,-129.08 638.22,-128.7 640.3,-135.39"/>
</a>
</g>
</g>
<!-- Node13 -->
<g id="Node000013" class="node">
<title>Node13</title>
<g id="a_Node000013"><a xlink:href="as5047u__types_8hpp.html" target="_top" xlink:title="Type definitions for the AS5047U driver.">
<polygon fill="white" stroke="#666666" points="793,-74 682,-74 682,-55 793,-55 793,-74"/>
<text text-anchor="middle" x="737.5" y="-62" font-family="Helvetica,sans-Serif" font-size="10.00">as5047u_types.hpp</text>
</a>
</g>
</g>
<!-- Node1&#45;&gt;Node13 -->
<g id="edge14_Node000001_Node000013" class="edge">
<title>Node1&#45;&gt;Node13</title>
<g id="a_edge14_Node000001_Node000013"><a xlink:title=" ">
<path fill="none" stroke="#63b8ff" d="M553.95,-169.11C609.19,-163.15 694.92,-150.66 718.5,-129 730.8,-117.7 735.26,-98.79 736.82,-84.54"/>
<polygon fill="#63b8ff" stroke="#63b8ff" points="740.32,-84.57 737.54,-74.34 733.34,-84.07 740.32,-84.57"/>
</a>
</g>
</g>
<!-- Node14 -->
<g id="Node000014" class="node">
<title>Node14</title>
<g id="a_Node000014"><a xlink:href="as5047u__config_8hpp.html" target="_top" xlink:title=" ">
<polygon fill="white" stroke="#666666" points="879,-129 766,-129 766,-110 879,-110 879,-129"/>
<text text-anchor="middle" x="822.5" y="-117" font-family="Helvetica,sans-Serif" font-size="10.00">as5047u_config.hpp</text>
</a>
</g>
</g>
<!-- Node1&#45;&gt;Node14 -->
<g id="edge16_Node000001_Node000014" class="edge">
<title>Node1&#45;&gt;Node14</title>
<g id="a_edge16_Node000001_Node000014"><a xlink:title=" ">
<path fill="none" stroke="#63b8ff" d="M553.65,-165.45C609.23,-156.16 700.77,-140.85 761.34,-130.72"/>
<polygon fill="#63b8ff" stroke="#63b8ff" points="762.25,-134.12 771.53,-129.02 761.09,-127.22 762.25,-134.12"/>
</a>
</g>
</g>
<!-- Node15 -->
<g id="Node000015" class="node">
<title>Node15</title>
<g id="a_Node000015"><a xlink:href="as5047u_8cpp.html" target="_top" xlink:title=" ">
<polygon fill="white" stroke="#666666" points="1001.5,-129 897.5,-129 897.5,-110 1001.5,-110 1001.5,-129"/>
<text text-anchor="middle" x="949.5" y="-117" font-family="Helvetica,sans-Serif" font-size="10.00">../src/as5047u.cpp</text>
</a>
</g>
</g>
<!-- Node1&#45;&gt;Node15 -->
<g id="edge19_Node000001_Node000015" class="edge">
<title>Node1&#45;&gt;Node15</title>
<g id="a_edge19_Node000001_Node000015"><a xlink:title=" ">
<path fill="none" stroke="#63b8ff" d="M553.71,-167.59C625.04,-159.41 762.47,-143.95 879.5,-129 882.01,-128.68 884.57,-128.35 887.16,-128"/>
<polygon fill="#63b8ff" stroke="#63b8ff" points="887.83,-131.45 897.28,-126.66 886.91,-124.51 887.83,-131.45"/>
</a>
</g>
</g>
<!-- Node3 -->
<g id="Node000003" class="node">
<title>Node3</title>
<g id="a_Node000003"><a xlink:title=" ">
<polygon fill="#e0e0e0" stroke="#999999" points="100,-74 47,-74 47,-55 100,-55 100,-74"/>
<text text-anchor="middle" x="73.5" y="-62" font-family="Helvetica,sans-Serif" font-size="10.00">cstddef</text>
</a>
</g>
</g>
<!-- Node2&#45;&gt;Node3 -->
<g id="edge2_Node000002_Node000003" class="edge">
<title>Node2&#45;&gt;Node3</title>
<g id="a_edge2_Node000002_Node000003"><a xlink:title=" ">
<path fill="none" stroke="#63b8ff" d="M73.5,-109.75C73.5,-102.8 73.5,-92.85 73.5,-84.13"/>
<polygon fill="#63b8ff" stroke="#63b8ff" points="77,-84.09 73.5,-74.09 70,-84.09 77,-84.09"/>
</a>
</g>
</g>
<!-- Node2&#45;&gt;Node4 -->
<g id="edge3_Node000002_Node000004" class="edge">
<title>Node2&#45;&gt;Node4</title>
<g id="a_edge3_Node000002_Node000004"><a xlink:title=" ">
<path fill="none" stroke="#63b8ff" d="M83.81,-109.86C99.73,-96.79 131.6,-71.78 161.5,-55 184.49,-42.1 211.97,-30.67 233.2,-22.62"/>
<polygon fill="#63b8ff" stroke="#63b8ff" points="234.61,-25.83 242.76,-19.06 232.17,-19.27 234.61,-25.83"/>
</a>
</g>
</g>
<!-- Node5&#45;&gt;Node4 -->
<g id="edge5_Node000005_Node000004" class="edge">
<title>Node5&#45;&gt;Node4</title>
<g id="a_edge5_Node000005_Node000004"><a xlink:title=" ">
<path fill="none" stroke="#63b8ff" d="M267.5,-54.75C267.5,-47.8 267.5,-37.85 267.5,-29.13"/>
<polygon fill="#63b8ff" stroke="#63b8ff" points="271,-29.09 267.5,-19.09 264,-29.09 271,-29.09"/>
</a>
</g>
</g>
<!-- Node13&#45;&gt;Node4 -->
<g id="edge15_Node000013_Node000004" class="edge">
<title>Node13&#45;&gt;Node4</title>
<g id="a_edge15_Node000013_Node000004"><a xlink:title=" ">
<path fill="none" stroke="#63b8ff" d="M681.74,-57.21C583.88,-46.18 383.94,-23.63 302.85,-14.49"/>
<polygon fill="#63b8ff" stroke="#63b8ff" points="302.99,-10.98 292.66,-13.34 302.21,-17.94 302.99,-10.98"/>
</a>
</g>
</g>
<!-- Node14&#45;&gt;Node4 -->
<g id="edge17_Node000014_Node000004" class="edge">
<title>Node14&#45;&gt;Node4</title>
<g id="a_edge17_Node000014_Node000004"><a xlink:title=" ">
<path fill="none" stroke="#63b8ff" d="M822.6,-109.86C822.24,-95.86 819.29,-68.42 802.5,-55 763.53,-23.85 415.56,-13.68 302.68,-11.18"/>
<polygon fill="#63b8ff" stroke="#63b8ff" points="302.58,-7.68 292.51,-10.96 302.43,-14.68 302.58,-7.68"/>
</a>
</g>
</g>
<!-- Node14&#45;&gt;Node13 -->
<g id="edge18_Node000014_Node000013" class="edge">
<title>Node14&#45;&gt;Node13</title>
<g id="a_edge18_Node000014_Node000013"><a xlink:title=" ">
<path fill="none" stroke="#63b8ff" d="M808.84,-109.98C795.66,-101.77 775.47,-89.18 759.93,-79.49"/>
<polygon fill="#63b8ff" stroke="#63b8ff" points="761.74,-76.49 751.41,-74.17 758.04,-82.43 761.74,-76.49"/>
</a>
</g>
</g>
<!-- Node15&#45;&gt;Node1 -->
<g id="edge20_Node000015_Node000001" class="edge">
<title>Node15&#45;&gt;Node1</title>
<g id="a_edge20_Node000015_Node000001"><a xlink:title=" ">
<path fill="none" stroke="#63b8ff" d="M897.14,-129.05C779.25,-144.1 640.77,-159.66 564.01,-167.78"/>
<polygon fill="#63b8ff" stroke="#63b8ff" points="563.17,-164.35 553.59,-168.88 563.9,-171.31 563.17,-164.35"/>
</a>
</g>
</g>
<!-- Node16 -->
<g id="Node000016" class="node">
<title>Node16</title>
<g id="a_Node000016"><a xlink:title=" ">
<polygon fill="#e0e0e0" stroke="#999999" points="977.5,-74 921.5,-74 921.5,-55 977.5,-55 977.5,-74"/>
<text text-anchor="middle" x="949.5" y="-62" font-family="Helvetica,sans-Serif" font-size="10.00">iomanip</text>
</a>
</g>
</g>
<!-- Node15&#45;&gt;Node16 -->
<g id="edge21_Node000015_Node000016" class="edge">
<title>Node15&#45;&gt;Node16</title>
<g id="a_edge21_Node000015_Node000016"><a xlink:title=" ">
<path fill="none" stroke="#63b8ff" d="M949.5,-109.75C949.5,-102.8 949.5,-92.85 949.5,-84.13"/>
<polygon fill="#63b8ff" stroke="#63b8ff" points="953,-84.09 949.5,-74.09 946,-84.09 953,-84.09"/>
</a>
</g>
</g>
</g>
</svg>
