<?xml version="1.0" encoding="UTF-8" standalone="no"?>
<!DOCTYPE svg PUBLIC "-//W3C//DTD SVG 1.1//EN"
 "http://www.w3.org/Graphics/SVG/1.1/DTD/svg11.dtd">
<!-- Generated by graphviz version 2.43.0 (0)
 -->
<!-- Title: inc/AS5047U_Bus.hpp Pages: 1 -->
<svg width="1115pt" height="159pt"
 viewBox="0.00 0.00 1114.50 159.00" xmlns="http://www.w3.org/2000/svg" xmlns:xlink="http://www.w3.org/1999/xlink">
<g id="graph0" class="graph" transform="scale(1 1) rotate(0) translate(4 155)">
<title>inc/AS5047U_Bus.hpp</title>
<!-- Node1 -->
<g id="Node000001" class="node">
<title>Node1</title>
<g id="a_Node000001"><a xlink:title="CRTP&#45;based SPI bus interface for AS5047U driver.">
<polygon fill="#999999" stroke="#666666" points="676.5,-151 554.5,-151 554.5,-132 676.5,-132 676.5,-151"/>
<text text-anchor="middle" x="615.5" y="-139" font-family="Helvetica,sans-Serif" font-size="10.00">inc/AS5047U_Bus.hpp</text>
</a>
</g>
</g>
<!-- Node2 -->
<g id="Node000002" class="node">
<title>Node2</title>
<g id="a_Node000002"><a xlink:href="Esp32As5047uBus_8hpp.html" target="_top" xlink:title="ESP32 SPI transport implementation for AS5047U driver.">
<polygon fill="white" stroke="#666666" points="614.5,-96 484.5,-96 484.5,-66 614.5,-66 614.5,-96"/>
<text text-anchor="start" x="492.5" y="-84" font-family="Helvetica,sans-Serif" font-size="10.00">examples/esp32/main</text>
<text text-anchor="middle" x="549.5" y="-73" font-family="Helvetica,sans-Serif" font-size="10.00">/Esp32As5047uBus.hpp</text>
</a>
</g>
</g>
<!-- Node1&#45;&gt;Node2 -->
<g id="edge1_Node000001_Node000002" class="edge">
<title>Node1&#45;&gt;Node2</title>
<g id="a_edge1_Node000001_Node000002"><a xlink:title=" ">
<path fill="none" stroke="#63b8ff" d="M598.28,-125.23C588.12,-116.23 575.35,-104.91 565.42,-96.11"/>
<polygon fill="#63b8ff" stroke="#63b8ff" points="595.96,-127.85 605.76,-131.87 600.6,-122.62 595.96,-127.85"/>
</a>
</g>
</g>
<!-- Node9 -->
<g id="Node000009" class="node">
<title>Node9</title>
<g id="a_Node000009"><a xlink:href="AS5047U_8hpp.html" target="_top" xlink:title="Driver for AMS AS5047U Magnetic Rotary Position Sensor (C++21).">
<polygon fill="white" stroke="#666666" points="759,-90.5 660,-90.5 660,-71.5 759,-71.5 759,-90.5"/>
<text text-anchor="middle" x="709.5" y="-78.5" font-family="Helvetica,sans-Serif" font-size="10.00">inc/AS5047U.hpp</text>
</a>
</g>
</g>
<!-- Node1&#45;&gt;Node9 -->
<g id="edge8_Node000001_Node000009" class="edge">
<title>Node1&#45;&gt;Node9</title>
<g id="a_edge8_Node000001_Node000009"><a xlink:title=" ">
<path fill="none" stroke="#63b8ff" d="M638.05,-126.47C655.95,-115.32 680.42,-100.1 695.57,-90.67"/>
<polygon fill="#63b8ff" stroke="#63b8ff" points="636.01,-123.61 629.37,-131.87 639.71,-129.56 636.01,-123.61"/>
</a>
</g>
</g>
<!-- Node3 -->
<g id="Node000003" class="node">
<title>Node3</title>
<g id="a_Node000003"><a xlink:href="BasicAngleReadingExample_8cpp.html" target="_top" xlink:title="Basic angle reading example with diagnostics.">
<polygon fill="white" stroke="#666666" points="824.5,-30 648.5,-30 648.5,0 824.5,0 824.5,-30"/>
<text text-anchor="start" x="656.5" y="-18" font-family="Helvetica,sans-Serif" font-size="10.00">examples/esp32/main</text>
<text text-anchor="middle" x="736.5" y="-7" font-family="Helvetica,sans-Serif" font-size="10.00">/BasicAngleReadingExample.cpp</text>
</a>
</g>
</g>
<!-- Node2&#45;&gt;Node3 -->
<g id="edge2_Node000002_Node000003" class="edge">
<title>Node2&#45;&gt;Node3</title>
<g id="a_edge2_Node000002_Node000003"><a xlink:title=" ">
<path fill="none" stroke="#63b8ff" d="M600.37,-62.59C630.27,-52.36 667.57,-39.59 695.56,-30.01"/>
<polygon fill="#63b8ff" stroke="#63b8ff" points="598.87,-59.41 590.54,-65.95 601.13,-66.03 598.87,-59.41"/>
</a>
</g>
</g>
<!-- Node4 -->
<g id="Node000004" class="node">
<title>Node4</title>
<g id="a_Node000004"><a xlink:href="ConfigurationExample_8cpp.html" target="_top" xlink:title="Configuration example with ABI, UVW, and PWM setup.">
<polygon fill="white" stroke="#666666" points="990.5,-30 842.5,-30 842.5,0 990.5,0 990.5,-30"/>
<text text-anchor="start" x="850.5" y="-18" font-family="Helvetica,sans-Serif" font-size="10.00">examples/esp32/main</text>
<text text-anchor="middle" x="916.5" y="-7" font-family="Helvetica,sans-Serif" font-size="10.00">/ConfigurationExample.cpp</text>
</a>
</g>
</g>
<!-- Node2&#45;&gt;Node4 -->
<g id="edge3_Node000002_Node000004" class="edge">
<title>Node2&#45;&gt;Node4</title>
<g id="a_edge3_Node000002_Node000004"><a xlink:title=" ">
<path fill="none" stroke="#63b8ff" d="M624.67,-66.89C688.33,-55.79 779.1,-39.96 842.45,-28.91"/>
<polygon fill="#63b8ff" stroke="#63b8ff" points="623.94,-63.47 614.69,-68.63 625.14,-70.36 623.94,-63.47"/>
</a>
</g>
</g>
<!-- Node5 -->
<g id="Node000005" class="node">
<title>Node5</title>
<g id="a_Node000005"><a xlink:href="DriverIntegrationTest_8cpp.html" target="_top" xlink:title="Comprehensive Integration Test Suite for as5047u::AS5047U Driver.">
<polygon fill="white" stroke="#666666" points="290,-30 147,-30 147,0 290,0 290,-30"/>
<text text-anchor="start" x="155" y="-18" font-family="Helvetica,sans-Serif" font-size="10.00">examples/esp32/main</text>
<text text-anchor="middle" x="218.5" y="-7" font-family="Helvetica,sans-Serif" font-size="10.00">/DriverIntegrationTest.cpp</text>
</a>
</g>
</g>
<!-- Node2&#45;&gt;Node5 -->
<g id="edge4_Node000002_Node000005" class="edge">
<title>Node2&#45;&gt;Node5</title>
<g id="a_edge4_Node000002_Node000005"><a xlink:title=" ">
<path fill="none" stroke="#63b8ff" d="M474.43,-65.48C419.22,-54.81 344.65,-40.39 290.24,-29.87"/>
<polygon fill="#63b8ff" stroke="#63b8ff" points="474.02,-68.97 484.5,-67.43 475.35,-62.1 474.02,-68.97"/>
</a>
</g>
</g>
<!-- Node6 -->
<g id="Node000006" class="node">
<title>Node6</title>
<g id="a_Node000006"><a xlink:href="Esp32As5047uBus_8cpp.html" target="_top" xlink:title="ESP32 SPI transport implementation for as5047u::AS5047U driver.">
<polygon fill="white" stroke="#666666" points="129,-30 0,-30 0,0 129,0 129,-30"/>
<text text-anchor="start" x="8" y="-18" font-family="Helvetica,sans-Serif" font-size="10.00">examples/esp32/main</text>
<text text-anchor="middle" x="64.5" y="-7" font-family="Helvetica,sans-Serif" font-size="10.00">/Esp32As5047uBus.cpp</text>
</a>
</g>
</g>
<!-- Node2&#45;&gt;Node6 -->
<g id="edge5_Node000002_Node000006" class="edge">
<title>Node2&#45;&gt;Node6</title>
<g id="a_edge5_Node000002_Node000006"><a xlink:title=" ">
<path fill="none" stroke="#63b8ff" d="M474.31,-72.44C391.55,-63.76 254.7,-48.33 137.5,-30 134.82,-29.58 132.09,-29.14 129.34,-28.67"/>
<polygon fill="#63b8ff" stroke="#63b8ff" points="474.06,-75.94 484.37,-73.49 474.79,-68.97 474.06,-75.94"/>
</a>
</g>
</g>
<!-- Node7 -->
<g id="Node000007" class="node">
<title>Node7</title>
<g id="a_Node000007"><a xlink:href="FullFeaturesExample_8cpp.html" target="_top" xlink:title="Comprehensive example demonstrating all as5047u::AS5047U features.">
<polygon fill="white" stroke="#666666" points="450.5,-30 308.5,-30 308.5,0 450.5,0 450.5,-30"/>
<text text-anchor="start" x="316.5" y="-18" font-family="Helvetica,sans-Serif" font-size="10.00">examples/esp32/main</text>
<text text-anchor="middle" x="379.5" y="-7" font-family="Helvetica,sans-Serif" font-size="10.00">/FullFeaturesExample.cpp</text>
</a>
</g>
</g>
<!-- Node2&#45;&gt;Node7 -->
<g id="edge6_Node000002_Node000007" class="edge">
<title>Node2&#45;&gt;Node7</title>
<g id="a_edge6_Node000002_Node000007"><a xlink:title=" ">
<path fill="none" stroke="#63b8ff" d="M502.54,-62.32C475.49,-52.14 441.95,-39.51 416.72,-30.01"/>
<polygon fill="#63b8ff" stroke="#63b8ff" points="501.6,-65.71 512.19,-65.95 504.07,-59.16 501.6,-65.71"/>
</a>
</g>
</g>
<!-- Node8 -->
<g id="Node000008" class="node">
<title>Node8</title>
<g id="a_Node000008"><a xlink:href="VelocityReadingExample_8cpp.html" target="_top" xlink:title="Velocity reading example with unit conversions.">
<polygon fill="white" stroke="#666666" points="630,-30 469,-30 469,0 630,0 630,-30"/>
<text text-anchor="start" x="477" y="-18" font-family="Helvetica,sans-Serif" font-size="10.00">examples/esp32/main</text>
<text text-anchor="middle" x="549.5" y="-7" font-family="Helvetica,sans-Serif" font-size="10.00">/VelocityReadingExample.cpp</text>
</a>
</g>
</g>
<!-- Node2&#45;&gt;Node8 -->
<g id="edge7_Node000002_Node000008" class="edge">
<title>Node2&#45;&gt;Node8</title>
<g id="a_edge7_Node000002_Node000008"><a xlink:title=" ">
<path fill="none" stroke="#63b8ff" d="M549.5,-55.54C549.5,-46.96 549.5,-37.61 549.5,-30.16"/>
<polygon fill="#63b8ff" stroke="#63b8ff" points="546,-55.8 549.5,-65.8 553,-55.8 546,-55.8"/>
</a>
</g>
</g>
<!-- Node9&#45;&gt;Node3 -->
<g id="edge9_Node000009_Node000003" class="edge">
<title>Node9&#45;&gt;Node3</title>
<g id="a_edge9_Node000009_Node000003"><a xlink:title=" ">
<path fill="none" stroke="#63b8ff" d="M717.1,-61.98C721.32,-51.98 726.5,-39.71 730.44,-30.36"/>
<polygon fill="#63b8ff" stroke="#63b8ff" points="713.8,-60.79 713.14,-71.37 720.25,-63.52 713.8,-60.79"/>
</a>
</g>
</g>
<!-- Node9&#45;&gt;Node4 -->
<g id="edge10_Node000009_Node000004" class="edge">
<title>Node9&#45;&gt;Node4</title>
<g id="a_edge10_Node000009_Node000004"><a xlink:title=" ">
<path fill="none" stroke="#63b8ff" d="M747.19,-68.35C781.98,-57.59 833.73,-41.59 870.84,-30.12"/>
<polygon fill="#63b8ff" stroke="#63b8ff" points="745.94,-65.07 737.42,-71.37 748,-71.76 745.94,-65.07"/>
</a>
</g>
</g>
<!-- Node9&#45;&gt;Node5 -->
<g id="edge11_Node000009_Node000005" class="edge">
<title>Node9&#45;&gt;Node5</title>
<g id="a_edge11_Node000009_Node000005"><a xlink:title=" ">
<path fill="none" stroke="#63b8ff" d="M650.06,-69.92C641.17,-68.53 632.1,-67.18 623.5,-66 479.95,-46.35 442.95,-50.35 299.5,-30 296.39,-29.56 293.22,-29.09 290.02,-28.6"/>
<polygon fill="#63b8ff" stroke="#63b8ff" points="649.57,-73.39 659.99,-71.5 650.67,-66.47 649.57,-73.39"/>
</a>
</g>
</g>
<!-- Node9&#45;&gt;Node7 -->
<g id="edge12_Node000009_Node000007" class="edge">
<title>Node9&#45;&gt;Node7</title>
<g id="a_edge12_Node000009_Node000007"><a xlink:title=" ">
<path fill="none" stroke="#63b8ff" d="M655.28,-69.48C599.38,-58.64 511.96,-41.69 450.56,-29.78"/>
<polygon fill="#63b8ff" stroke="#63b8ff" points="654.85,-72.97 665.34,-71.44 656.19,-66.1 654.85,-72.97"/>
</a>
</g>
</g>
<!-- Node9&#45;&gt;Node8 -->
<g id="edge13_Node000009_Node000008" class="edge">
<title>Node9&#45;&gt;Node8</title>
<g id="a_edge13_Node000009_Node000008"><a xlink:title=" ">
<path fill="none" stroke="#63b8ff" d="M678.62,-67.65C651.76,-56.9 612.86,-41.35 584.79,-30.12"/>
<polygon fill="#63b8ff" stroke="#63b8ff" points="677.34,-70.9 687.92,-71.37 679.94,-64.41 677.34,-70.9"/>
</a>
</g>
</g>
<!-- Node10 -->
<g id="Node000010" class="node">
<title>Node10</title>
<g id="a_Node000010"><a xlink:href="AS5047U_8cpp.html" target="_top" xlink:title=" ">
<polygon fill="white" stroke="#666666" points="1106.5,-24.5 1008.5,-24.5 1008.5,-5.5 1106.5,-5.5 1106.5,-24.5"/>
<text text-anchor="middle" x="1057.5" y="-12.5" font-family="Helvetica,sans-Serif" font-size="10.00">src/AS5047U.cpp</text>
</a>
</g>
</g>
<!-- Node9&#45;&gt;Node10 -->
<g id="edge14_Node000009_Node000010" class="edge">
<title>Node9&#45;&gt;Node10</title>
<g id="a_edge14_Node000009_Node000010"><a xlink:title=" ">
<path fill="none" stroke="#63b8ff" d="M768.77,-69.84C825.79,-60.51 914.16,-45.78 990.5,-30 998.41,-28.36 1006.89,-26.43 1015.1,-24.52"/>
<polygon fill="#63b8ff" stroke="#63b8ff" points="768.15,-66.39 758.84,-71.46 769.28,-73.3 768.15,-66.39"/>
</a>
</g>
</g>
<!-- Node10&#45;&gt;Node9 -->
<g id="edge15_Node000010_Node000009" class="edge">
<title>Node10&#45;&gt;Node9</title>
<g id="a_edge15_Node000010_Node000009"><a xlink:title=" ">
<path fill="none" stroke="#63b8ff" d="M1022.53,-26.92C1017.84,-28.01 1013.07,-29.05 1008.5,-30 921.44,-47.99 818.76,-64.62 759.08,-73.43"/>
<polygon fill="#63b8ff" stroke="#63b8ff" points="1023.68,-30.25 1032.59,-24.52 1022.05,-23.44 1023.68,-30.25"/>
</a>
</g>
</g>
</g>
</svg>
