<?xml version="1.0" encoding="UTF-8" standalone="no"?>
<!DOCTYPE svg PUBLIC "-//W3C//DTD SVG 1.1//EN"
 "http://www.w3.org/Graphics/SVG/1.1/DTD/svg11.dtd">
<!-- Generated by graphviz version 2.43.0 (0)
 -->
<!-- Title: src/as5047u.ipp Pages: 1 -->
<svg width="950pt" height="247pt"
 viewBox="0.00 0.00 950.00 247.00" xmlns="http://www.w3.org/2000/svg" xmlns:xlink="http://www.w3.org/1999/xlink">
<g id="graph0" class="graph" transform="scale(1 1) rotate(0) translate(4 243)">
<title>src/as5047u.ipp</title>
<!-- Node1 -->
<g id="Node000001" class="node">
<title>Node1</title>
<g id="a_Node000001"><a xlink:title="Template implementation of AS5047U driver methods.">
<polygon fill="#999999" stroke="#666666" points="520,-239 427,-239 427,-220 520,-220 520,-239"/>
<text text-anchor="middle" x="473.5" y="-227" font-family="Helvetica,sans-Serif" font-size="10.00">src/as5047u.ipp</text>
</a>
</g>
</g>
<!-- Node2 -->
<g id="Node000002" class="node">
<title>Node2</title>
<g id="a_Node000002"><a xlink:href="as5047u_8hpp.html" target="_top" xlink:title="Driver for AMS AS5047U Magnetic Rotary Position Sensor (C++21)">
<polygon fill="white" stroke="#666666" points="526,-184 421,-184 421,-165 526,-165 526,-184"/>
<text text-anchor="middle" x="473.5" y="-172" font-family="Helvetica,sans-Serif" font-size="10.00">../inc/as5047u.hpp</text>
</a>
</g>
</g>
<!-- Node1&#45;&gt;Node2 -->
<g id="edge1_Node000001_Node000002" class="edge">
<title>Node1&#45;&gt;Node2</title>
<g id="a_edge1_Node000001_Node000002"><a xlink:title=" ">
<path fill="none" stroke="#63b8ff" d="M468.33,-219.75C466.84,-212.8 466.4,-202.85 467.02,-194.13"/>
<polygon fill="#63b8ff" stroke="#63b8ff" points="470.51,-194.47 468.37,-184.09 463.57,-193.53 470.51,-194.47"/>
</a>
</g>
</g>
<!-- Node17 -->
<g id="Node000017" class="node">
<title>Node17</title>
<g id="a_Node000017"><a xlink:title=" ">
<polygon fill="#e0e0e0" stroke="#999999" points="600.5,-184 544.5,-184 544.5,-165 600.5,-165 600.5,-184"/>
<text text-anchor="middle" x="572.5" y="-172" font-family="Helvetica,sans-Serif" font-size="10.00">iomanip</text>
</a>
</g>
</g>
<!-- Node1&#45;&gt;Node17 -->
<g id="edge22_Node000001_Node000017" class="edge">
<title>Node1&#45;&gt;Node17</title>
<g id="a_edge22_Node000001_Node000017"><a xlink:title=" ">
<path fill="none" stroke="#63b8ff" d="M489.41,-219.98C505.05,-211.61 529.16,-198.7 547.38,-188.95"/>
<polygon fill="#63b8ff" stroke="#63b8ff" points="549.14,-191.98 556.3,-184.17 545.84,-185.8 549.14,-191.98"/>
</a>
</g>
</g>
<!-- Node2&#45;&gt;Node1 -->
<g id="edge21_Node000002_Node000001" class="edge">
<title>Node2&#45;&gt;Node1</title>
<g id="a_edge21_Node000002_Node000001"><a xlink:title=" ">
<path fill="none" stroke="#63b8ff" d="M478.63,-184.09C480.14,-190.99 480.59,-200.93 479.99,-209.66"/>
<polygon fill="#63b8ff" stroke="#63b8ff" points="476.5,-209.38 478.67,-219.75 483.44,-210.29 476.5,-209.38"/>
</a>
</g>
</g>
<!-- Node3 -->
<g id="Node000003" class="node">
<title>Node3</title>
<g id="a_Node000003"><a xlink:href="as5047u__spi__interface_8hpp.html" target="_top" xlink:title="CRTP&#45;based SPI bus interface for AS5047U driver.">
<polygon fill="white" stroke="#666666" points="147,-129 0,-129 0,-110 147,-110 147,-129"/>
<text text-anchor="middle" x="73.5" y="-117" font-family="Helvetica,sans-Serif" font-size="10.00">as5047u_spi_interface.hpp</text>
</a>
</g>
</g>
<!-- Node2&#45;&gt;Node3 -->
<g id="edge2_Node000002_Node000003" class="edge">
<title>Node2&#45;&gt;Node3</title>
<g id="a_edge2_Node000002_Node000003"><a xlink:title=" ">
<path fill="none" stroke="#63b8ff" d="M420.8,-166.52C350.91,-157.26 227.19,-140.86 147.84,-130.35"/>
<polygon fill="#63b8ff" stroke="#63b8ff" points="148.28,-126.88 137.91,-129.03 147.36,-133.82 148.28,-126.88"/>
</a>
</g>
</g>
<!-- Node5 -->
<g id="Node000005" class="node">
<title>Node5</title>
<g id="a_Node000005"><a xlink:title=" ">
<polygon fill="#e0e0e0" stroke="#999999" points="292.5,-19 242.5,-19 242.5,0 292.5,0 292.5,-19"/>
<text text-anchor="middle" x="267.5" y="-7" font-family="Helvetica,sans-Serif" font-size="10.00">cstdint</text>
</a>
</g>
</g>
<!-- Node2&#45;&gt;Node5 -->
<g id="edge12_Node000002_Node000005" class="edge">
<title>Node2&#45;&gt;Node5</title>
<g id="a_edge12_Node000002_Node000005"><a xlink:title=" ">
<path fill="none" stroke="#63b8ff" d="M420.84,-169.42C357.31,-163.61 255.19,-151.1 224.5,-129 195.7,-108.26 177.12,-85.94 194.5,-55 202.85,-40.14 218.4,-29.65 233.01,-22.61"/>
<polygon fill="#63b8ff" stroke="#63b8ff" points="234.65,-25.71 242.39,-18.47 231.82,-19.31 234.65,-25.71"/>
</a>
</g>
</g>
<!-- Node6 -->
<g id="Node000006" class="node">
<title>Node6</title>
<g id="a_Node000006"><a xlink:href="as5047u__registers_8hpp.html" target="_top" xlink:title="Register definitions for the AS5047U Rotary Position Sensor.">
<polygon fill="white" stroke="#666666" points="331,-74 204,-74 204,-55 331,-55 331,-74"/>
<text text-anchor="middle" x="267.5" y="-62" font-family="Helvetica,sans-Serif" font-size="10.00">as5047u_registers.hpp</text>
</a>
</g>
</g>
<!-- Node2&#45;&gt;Node6 -->
<g id="edge5_Node000002_Node000006" class="edge">
<title>Node2&#45;&gt;Node6</title>
<g id="a_edge5_Node000002_Node000006"><a xlink:title=" ">
<path fill="none" stroke="#63b8ff" d="M420.8,-171.39C357.24,-167.61 255.98,-157.21 232.5,-129 220.27,-114.31 234.87,-94.7 248.77,-81.18"/>
<polygon fill="#63b8ff" stroke="#63b8ff" points="251.21,-83.69 256.24,-74.36 246.5,-78.51 251.21,-83.69"/>
</a>
</g>
</g>
<!-- Node7 -->
<g id="Node000007" class="node">
<title>Node7</title>
<g id="a_Node000007"><a xlink:title=" ">
<polygon fill="#e0e0e0" stroke="#999999" points="305.5,-129 241.5,-129 241.5,-110 305.5,-110 305.5,-129"/>
<text text-anchor="middle" x="273.5" y="-117" font-family="Helvetica,sans-Serif" font-size="10.00">algorithm</text>
</a>
</g>
</g>
<!-- Node2&#45;&gt;Node7 -->
<g id="edge7_Node000002_Node000007" class="edge">
<title>Node2&#45;&gt;Node7</title>
<g id="a_edge7_Node000002_Node000007"><a xlink:title=" ">
<path fill="none" stroke="#63b8ff" d="M441.37,-164.98C407.25,-155.94 353.18,-141.62 315.67,-131.67"/>
<polygon fill="#63b8ff" stroke="#63b8ff" points="316.12,-128.17 305.55,-128.99 314.32,-134.94 316.12,-128.17"/>
</a>
</g>
</g>
<!-- Node8 -->
<g id="Node000008" class="node">
<title>Node8</title>
<g id="a_Node000008"><a xlink:title=" ">
<polygon fill="#e0e0e0" stroke="#999999" points="365.5,-129 323.5,-129 323.5,-110 365.5,-110 365.5,-129"/>
<text text-anchor="middle" x="344.5" y="-117" font-family="Helvetica,sans-Serif" font-size="10.00">array</text>
</a>
</g>
</g>
<!-- Node2&#45;&gt;Node8 -->
<g id="edge8_Node000002_Node000008" class="edge">
<title>Node2&#45;&gt;Node8</title>
<g id="a_edge8_Node000002_Node000008"><a xlink:title=" ">
<path fill="none" stroke="#63b8ff" d="M452.77,-164.98C431.74,-156.34 398.95,-142.87 374.96,-133.02"/>
<polygon fill="#63b8ff" stroke="#63b8ff" points="376.18,-129.73 365.6,-129.17 373.52,-136.21 376.18,-129.73"/>
</a>
</g>
</g>
<!-- Node9 -->
<g id="Node000009" class="node">
<title>Node9</title>
<g id="a_Node000009"><a xlink:title=" ">
<polygon fill="#e0e0e0" stroke="#999999" points="433.5,-129 383.5,-129 383.5,-110 433.5,-110 433.5,-129"/>
<text text-anchor="middle" x="408.5" y="-117" font-family="Helvetica,sans-Serif" font-size="10.00">atomic</text>
</a>
</g>
</g>
<!-- Node2&#45;&gt;Node9 -->
<g id="edge9_Node000002_Node000009" class="edge">
<title>Node2&#45;&gt;Node9</title>
<g id="a_edge9_Node000002_Node000009"><a xlink:title=" ">
<path fill="none" stroke="#63b8ff" d="M463.06,-164.98C453.35,-157.07 438.68,-145.11 427,-135.58"/>
<polygon fill="#63b8ff" stroke="#63b8ff" points="429.1,-132.78 419.13,-129.17 424.67,-138.2 429.1,-132.78"/>
</a>
</g>
</g>
<!-- Node10 -->
<g id="Node000010" class="node">
<title>Node10</title>
<g id="a_Node000010"><a xlink:title=" ">
<polygon fill="#e0e0e0" stroke="#999999" points="495.5,-129 451.5,-129 451.5,-110 495.5,-110 495.5,-129"/>
<text text-anchor="middle" x="473.5" y="-117" font-family="Helvetica,sans-Serif" font-size="10.00">bitset</text>
</a>
</g>
</g>
<!-- Node2&#45;&gt;Node10 -->
<g id="edge10_Node000002_Node000010" class="edge">
<title>Node2&#45;&gt;Node10</title>
<g id="a_edge10_Node000002_Node000010"><a xlink:title=" ">
<path fill="none" stroke="#63b8ff" d="M473.5,-164.75C473.5,-157.8 473.5,-147.85 473.5,-139.13"/>
<polygon fill="#63b8ff" stroke="#63b8ff" points="477,-139.09 473.5,-129.09 470,-139.09 477,-139.09"/>
</a>
</g>
</g>
<!-- Node11 -->
<g id="Node000011" class="node">
<title>Node11</title>
<g id="a_Node000011"><a xlink:title=" ">
<polygon fill="#e0e0e0" stroke="#999999" points="561,-129 514,-129 514,-110 561,-110 561,-129"/>
<text text-anchor="middle" x="537.5" y="-117" font-family="Helvetica,sans-Serif" font-size="10.00">cmath</text>
</a>
</g>
</g>
<!-- Node2&#45;&gt;Node11 -->
<g id="edge11_Node000002_Node000011" class="edge">
<title>Node2&#45;&gt;Node11</title>
<g id="a_edge11_Node000002_Node000011"><a xlink:title=" ">
<path fill="none" stroke="#63b8ff" d="M483.78,-164.98C493.34,-157.07 507.78,-145.11 519.28,-135.58"/>
<polygon fill="#63b8ff" stroke="#63b8ff" points="521.56,-138.24 527.03,-129.17 517.1,-132.85 521.56,-138.24"/>
</a>
</g>
</g>
<!-- Node12 -->
<g id="Node000012" class="node">
<title>Node12</title>
<g id="a_Node000012"><a xlink:title=" ">
<polygon fill="#e0e0e0" stroke="#999999" points="625.5,-129 579.5,-129 579.5,-110 625.5,-110 625.5,-129"/>
<text text-anchor="middle" x="602.5" y="-117" font-family="Helvetica,sans-Serif" font-size="10.00">cstdio</text>
</a>
</g>
</g>
<!-- Node2&#45;&gt;Node12 -->
<g id="edge13_Node000002_Node000012" class="edge">
<title>Node2&#45;&gt;Node12</title>
<g id="a_edge13_Node000002_Node000012"><a xlink:title=" ">
<path fill="none" stroke="#63b8ff" d="M494.23,-164.98C515.26,-156.34 548.05,-142.87 572.04,-133.02"/>
<polygon fill="#63b8ff" stroke="#63b8ff" points="573.48,-136.21 581.4,-129.17 570.82,-129.73 573.48,-136.21"/>
</a>
</g>
</g>
<!-- Node13 -->
<g id="Node000013" class="node">
<title>Node13</title>
<g id="a_Node000013"><a xlink:title=" ">
<polygon fill="#e0e0e0" stroke="#999999" points="709,-129 644,-129 644,-110 709,-110 709,-129"/>
<text text-anchor="middle" x="676.5" y="-117" font-family="Helvetica,sans-Serif" font-size="10.00">functional</text>
</a>
</g>
</g>
<!-- Node2&#45;&gt;Node13 -->
<g id="edge14_Node000002_Node000013" class="edge">
<title>Node2&#45;&gt;Node13</title>
<g id="a_edge14_Node000002_Node000013"><a xlink:title=" ">
<path fill="none" stroke="#63b8ff" d="M506.12,-164.98C540.89,-155.91 596.09,-141.49 634.19,-131.55"/>
<polygon fill="#63b8ff" stroke="#63b8ff" points="635.17,-134.91 643.97,-128.99 633.41,-128.13 635.17,-134.91"/>
</a>
</g>
</g>
<!-- Node14 -->
<g id="Node000014" class="node">
<title>Node14</title>
<g id="a_Node000014"><a xlink:title=" ">
<polygon fill="#e0e0e0" stroke="#999999" points="772,-129 727,-129 727,-110 772,-110 772,-129"/>
<text text-anchor="middle" x="749.5" y="-117" font-family="Helvetica,sans-Serif" font-size="10.00">utility</text>
</a>
</g>
</g>
<!-- Node2&#45;&gt;Node14 -->
<g id="edge15_Node000002_Node000014" class="edge">
<title>Node2&#45;&gt;Node14</title>
<g id="a_edge15_Node000002_Node000014"><a xlink:title=" ">
<path fill="none" stroke="#63b8ff" d="M526.34,-165.28C573.91,-157.57 645.91,-145.14 716.87,-129.22"/>
<polygon fill="#63b8ff" stroke="#63b8ff" points="717.89,-132.58 726.87,-126.95 716.34,-125.75 717.89,-132.58"/>
</a>
</g>
</g>
<!-- Node15 -->
<g id="Node000015" class="node">
<title>Node15</title>
<g id="a_Node000015"><a xlink:href="as5047u__types_8hpp.html" target="_top" xlink:title="Type definitions for the AS5047U driver.">
<polygon fill="white" stroke="#666666" points="856,-74 745,-74 745,-55 856,-55 856,-74"/>
<text text-anchor="middle" x="800.5" y="-62" font-family="Helvetica,sans-Serif" font-size="10.00">as5047u_types.hpp</text>
</a>
</g>
</g>
<!-- Node2&#45;&gt;Node15 -->
<g id="edge16_Node000002_Node000015" class="edge">
<title>Node2&#45;&gt;Node15</title>
<g id="a_edge16_Node000002_Node000015"><a xlink:title=" ">
<path fill="none" stroke="#63b8ff" d="M526.29,-166.24C613.68,-154.16 779.09,-131.08 781.5,-129 794.29,-117.97 798.66,-98.71 800.06,-84.29"/>
<polygon fill="#63b8ff" stroke="#63b8ff" points="803.57,-84.2 800.65,-74.01 796.58,-83.79 803.57,-84.2"/>
</a>
</g>
</g>
<!-- Node16 -->
<g id="Node000016" class="node">
<title>Node16</title>
<g id="a_Node000016"><a xlink:href="as5047u__config_8hpp.html" target="_top" xlink:title="Compile&#45;time configuration options for the AS5047U driver.">
<polygon fill="white" stroke="#666666" points="942,-129 829,-129 829,-110 942,-110 942,-129"/>
<text text-anchor="middle" x="885.5" y="-117" font-family="Helvetica,sans-Serif" font-size="10.00">as5047u_config.hpp</text>
</a>
</g>
</g>
<!-- Node2&#45;&gt;Node16 -->
<g id="edge18_Node000002_Node000016" class="edge">
<title>Node2&#45;&gt;Node16</title>
<g id="a_edge18_Node000002_Node000016"><a xlink:title=" ">
<path fill="none" stroke="#63b8ff" d="M526.26,-166.23C529.39,-165.81 532.48,-165.4 535.5,-165 634.04,-151.98 748.28,-137.59 818.73,-128.79"/>
<polygon fill="#63b8ff" stroke="#63b8ff" points="819.31,-132.25 828.8,-127.54 818.44,-125.3 819.31,-132.25"/>
</a>
</g>
</g>
<!-- Node4 -->
<g id="Node000004" class="node">
<title>Node4</title>
<g id="a_Node000004"><a xlink:title=" ">
<polygon fill="#e0e0e0" stroke="#999999" points="100,-74 47,-74 47,-55 100,-55 100,-74"/>
<text text-anchor="middle" x="73.5" y="-62" font-family="Helvetica,sans-Serif" font-size="10.00">cstddef</text>
</a>
</g>
</g>
<!-- Node3&#45;&gt;Node4 -->
<g id="edge3_Node000003_Node000004" class="edge">
<title>Node3&#45;&gt;Node4</title>
<g id="a_edge3_Node000003_Node000004"><a xlink:title=" ">
<path fill="none" stroke="#63b8ff" d="M73.5,-109.75C73.5,-102.8 73.5,-92.85 73.5,-84.13"/>
<polygon fill="#63b8ff" stroke="#63b8ff" points="77,-84.09 73.5,-74.09 70,-84.09 77,-84.09"/>
</a>
</g>
</g>
<!-- Node3&#45;&gt;Node5 -->
<g id="edge4_Node000003_Node000005" class="edge">
<title>Node3&#45;&gt;Node5</title>
<g id="a_edge4_Node000003_Node000005"><a xlink:title=" ">
<path fill="none" stroke="#63b8ff" d="M83.81,-109.86C99.73,-96.79 131.6,-71.78 161.5,-55 184.49,-42.1 211.97,-30.67 233.2,-22.62"/>
<polygon fill="#63b8ff" stroke="#63b8ff" points="234.61,-25.83 242.76,-19.06 232.17,-19.27 234.61,-25.83"/>
</a>
</g>
</g>
<!-- Node6&#45;&gt;Node5 -->
<g id="edge6_Node000006_Node000005" class="edge">
<title>Node6&#45;&gt;Node5</title>
<g id="a_edge6_Node000006_Node000005"><a xlink:title=" ">
<path fill="none" stroke="#63b8ff" d="M267.5,-54.75C267.5,-47.8 267.5,-37.85 267.5,-29.13"/>
<polygon fill="#63b8ff" stroke="#63b8ff" points="271,-29.09 267.5,-19.09 264,-29.09 271,-29.09"/>
</a>
</g>
</g>
<!-- Node15&#45;&gt;Node5 -->
<g id="edge17_Node000015_Node000005" class="edge">
<title>Node15&#45;&gt;Node5</title>
<g id="a_edge17_Node000015_Node000005"><a xlink:title=" ">
<path fill="none" stroke="#63b8ff" d="M744.97,-57.98C635.2,-47.06 393.24,-23 302.65,-14"/>
<polygon fill="#63b8ff" stroke="#63b8ff" points="302.92,-10.5 292.62,-13 302.23,-17.47 302.92,-10.5"/>
</a>
</g>
</g>
<!-- Node16&#45;&gt;Node5 -->
<g id="edge19_Node000016_Node000005" class="edge">
<title>Node16&#45;&gt;Node5</title>
<g id="a_edge19_Node000016_Node000005"><a xlink:title=" ">
<path fill="none" stroke="#63b8ff" d="M885.61,-109.85C885.27,-95.82 882.35,-68.35 865.5,-55 821.39,-20.05 425.18,-12.39 303.13,-10.86"/>
<polygon fill="#63b8ff" stroke="#63b8ff" points="302.88,-7.36 292.84,-10.74 302.8,-14.35 302.88,-7.36"/>
</a>
</g>
</g>
<!-- Node16&#45;&gt;Node15 -->
<g id="edge20_Node000016_Node000015" class="edge">
<title>Node16&#45;&gt;Node15</title>
<g id="a_edge20_Node000016_Node000015"><a xlink:title=" ">
<path fill="none" stroke="#63b8ff" d="M871.84,-109.98C858.66,-101.77 838.47,-89.18 822.93,-79.49"/>
<polygon fill="#63b8ff" stroke="#63b8ff" points="824.74,-76.49 814.41,-74.17 821.04,-82.43 824.74,-76.49"/>
</a>
</g>
</g>
</g>
</svg>
