<?xml version="1.0" encoding="UTF-8" standalone="no"?>
<!DOCTYPE svg PUBLIC "-//W3C//DTD SVG 1.1//EN"
 "http://www.w3.org/Graphics/SVG/1.1/DTD/svg11.dtd">
<!-- Generated by graphviz version 2.43.0 (0)
 -->
<!-- Title: examples/esp32/main/ConfigurationExample.cpp Pages: 1 -->
<svg width="966pt" height="313pt"
 viewBox="0.00 0.00 965.50 313.00" xmlns="http://www.w3.org/2000/svg" xmlns:xlink="http://www.w3.org/1999/xlink">
<g id="graph0" class="graph" transform="scale(1 1) rotate(0) translate(4 309)">
<title>examples/esp32/main/ConfigurationExample.cpp</title>
<!-- Node1 -->
<g id="Node000001" class="node">
<title>Node1</title>
<g id="a_Node000001"><a xlink:title="Configuration example with ABI, UVW, and PWM setup.">
<polygon fill="#999999" stroke="#666666" points="282,-305 134,-305 134,-275 282,-275 282,-305"/>
<text text-anchor="start" x="142" y="-293" font-family="Helvetica,sans-Serif" font-size="10.00">examples/esp32/main</text>
<text text-anchor="middle" x="208" y="-282" font-family="Helvetica,sans-Serif" font-size="10.00">/ConfigurationExample.cpp</text>
</a>
</g>
</g>
<!-- Node2 -->
<g id="Node000002" class="node">
<title>Node2</title>
<g id="a_Node000002"><a xlink:title=" ">
<polygon fill="#e0e0e0" stroke="#999999" points="50,-239 0,-239 0,-220 50,-220 50,-239"/>
<text text-anchor="middle" x="25" y="-227" font-family="Helvetica,sans-Serif" font-size="10.00">stdio.h</text>
</a>
</g>
</g>
<!-- Node1&#45;&gt;Node2 -->
<g id="edge1_Node000001_Node000002" class="edge">
<title>Node1&#45;&gt;Node2</title>
<g id="a_edge1_Node000001_Node000002"><a xlink:title=" ">
<path fill="none" stroke="#63b8ff" d="M164.17,-274.99C132.29,-264.8 89.71,-251.18 60.07,-241.71"/>
<polygon fill="#63b8ff" stroke="#63b8ff" points="60.76,-238.26 50.17,-238.55 58.63,-244.93 60.76,-238.26"/>
</a>
</g>
</g>
<!-- Node3 -->
<g id="Node000003" class="node">
<title>Node3</title>
<g id="a_Node000003"><a xlink:title=" ">
<polygon fill="#e0e0e0" stroke="#999999" points="66,-184 8,-184 8,-165 66,-165 66,-184"/>
<text text-anchor="middle" x="37" y="-172" font-family="Helvetica,sans-Serif" font-size="10.00">memory</text>
</a>
</g>
</g>
<!-- Node1&#45;&gt;Node3 -->
<g id="edge2_Node000001_Node000003" class="edge">
<title>Node1&#45;&gt;Node3</title>
<g id="a_edge2_Node000001_Node000003"><a xlink:title=" ">
<path fill="none" stroke="#63b8ff" d="M181.94,-274.88C164.64,-265.25 141.59,-251.95 122,-239 98.45,-223.43 72.63,-203.74 55.7,-190.45"/>
<polygon fill="#63b8ff" stroke="#63b8ff" points="57.73,-187.59 47.71,-184.13 53.39,-193.08 57.73,-187.59"/>
</a>
</g>
</g>
<!-- Node4 -->
<g id="Node000004" class="node">
<title>Node4</title>
<g id="a_Node000004"><a xlink:title=" ">
<polygon fill="#e0e0e0" stroke="#999999" points="441.5,-239 328.5,-239 328.5,-220 441.5,-220 441.5,-239"/>
<text text-anchor="middle" x="385" y="-227" font-family="Helvetica,sans-Serif" font-size="10.00">freertos/FreeRTOS.h</text>
</a>
</g>
</g>
<!-- Node1&#45;&gt;Node4 -->
<g id="edge3_Node000001_Node000004" class="edge">
<title>Node1&#45;&gt;Node4</title>
<g id="a_edge3_Node000001_Node000004"><a xlink:title=" ">
<path fill="none" stroke="#63b8ff" d="M250.4,-274.99C280.68,-264.98 320.95,-251.67 349.53,-242.22"/>
<polygon fill="#63b8ff" stroke="#63b8ff" points="350.72,-245.52 359.12,-239.05 348.53,-238.87 350.72,-245.52"/>
</a>
</g>
</g>
<!-- Node5 -->
<g id="Node000005" class="node">
<title>Node5</title>
<g id="a_Node000005"><a xlink:title=" ">
<polygon fill="#e0e0e0" stroke="#999999" points="548,-239 460,-239 460,-220 548,-220 548,-239"/>
<text text-anchor="middle" x="504" y="-227" font-family="Helvetica,sans-Serif" font-size="10.00">freertos/task.h</text>
</a>
</g>
</g>
<!-- Node1&#45;&gt;Node5 -->
<g id="edge4_Node000001_Node000005" class="edge">
<title>Node1&#45;&gt;Node5</title>
<g id="a_edge4_Node000001_Node000005"><a xlink:title=" ">
<path fill="none" stroke="#63b8ff" d="M278.9,-274.99C331.75,-264.54 402.8,-250.5 450.84,-241.01"/>
<polygon fill="#63b8ff" stroke="#63b8ff" points="451.59,-244.43 460.72,-239.05 450.23,-237.56 451.59,-244.43"/>
</a>
</g>
</g>
<!-- Node6 -->
<g id="Node000006" class="node">
<title>Node6</title>
<g id="a_Node000006"><a xlink:title=" ">
<polygon fill="#e0e0e0" stroke="#999999" points="147.5,-184 84.5,-184 84.5,-165 147.5,-165 147.5,-184"/>
<text text-anchor="middle" x="116" y="-172" font-family="Helvetica,sans-Serif" font-size="10.00">esp_log.h</text>
</a>
</g>
</g>
<!-- Node1&#45;&gt;Node6 -->
<g id="edge5_Node000001_Node000006" class="edge">
<title>Node1&#45;&gt;Node6</title>
<g id="a_edge5_Node000001_Node000006"><a xlink:title=" ">
<path fill="none" stroke="#63b8ff" d="M179.23,-274.95C164.43,-266.4 147.19,-254.2 136,-239 126.26,-225.76 121.17,-207.64 118.57,-194.14"/>
<polygon fill="#63b8ff" stroke="#63b8ff" points="121.99,-193.41 116.92,-184.1 115.09,-194.54 121.99,-193.41"/>
</a>
</g>
</g>
<!-- Node7 -->
<g id="Node000007" class="node">
<title>Node7</title>
<g id="a_Node000007"><a xlink:href="AS5047U_8hpp.html" target="_top" xlink:title="Driver for AMS AS5047U Magnetic Rotary Position Sensor (C++21).">
<polygon fill="white" stroke="#666666" points="601,-184 475,-184 475,-165 601,-165 601,-184"/>
<text text-anchor="middle" x="538" y="-172" font-family="Helvetica,sans-Serif" font-size="10.00">../../../inc/AS5047U.hpp</text>
</a>
</g>
</g>
<!-- Node1&#45;&gt;Node7 -->
<g id="edge6_Node000001_Node000007" class="edge">
<title>Node1&#45;&gt;Node7</title>
<g id="a_edge6_Node000001_Node000007"><a xlink:title=" ">
<path fill="none" stroke="#63b8ff" d="M226.34,-274.87C247.68,-259.12 284.54,-234.03 320,-220 366.39,-201.65 421.45,-190.49 464.63,-183.93"/>
<polygon fill="#63b8ff" stroke="#63b8ff" points="465.39,-187.36 474.78,-182.44 464.38,-180.43 465.39,-187.36"/>
</a>
</g>
</g>
<!-- Node18 -->
<g id="Node000018" class="node">
<title>Node18</title>
<g id="a_Node000018"><a xlink:href="Esp32As5047uBus_8hpp.html" target="_top" xlink:title="ESP32 SPI transport implementation for AS5047U driver.">
<polygon fill="white" stroke="#666666" points="271.5,-239 144.5,-239 144.5,-220 271.5,-220 271.5,-239"/>
<text text-anchor="middle" x="208" y="-227" font-family="Helvetica,sans-Serif" font-size="10.00">Esp32As5047uBus.hpp</text>
</a>
</g>
</g>
<!-- Node1&#45;&gt;Node18 -->
<g id="edge21_Node000001_Node000018" class="edge">
<title>Node1&#45;&gt;Node18</title>
<g id="a_edge21_Node000001_Node000018"><a xlink:title=" ">
<path fill="none" stroke="#63b8ff" d="M208,-274.84C208,-267.21 208,-257.7 208,-249.45"/>
<polygon fill="#63b8ff" stroke="#63b8ff" points="211.5,-249.27 208,-239.27 204.5,-249.27 211.5,-249.27"/>
</a>
</g>
</g>
<!-- Node8 -->
<g id="Node000008" class="node">
<title>Node8</title>
<g id="a_Node000008"><a xlink:href="AS5047U__REGISTERS_8hpp.html" target="_top" xlink:title="Register definitions for the AS5047U Rotary Position Sensor.">
<polygon fill="white" stroke="#666666" points="957.5,-74 816.5,-74 816.5,-55 957.5,-55 957.5,-74"/>
<text text-anchor="middle" x="887" y="-62" font-family="Helvetica,sans-Serif" font-size="10.00">AS5047U_REGISTERS.hpp</text>
</a>
</g>
</g>
<!-- Node7&#45;&gt;Node8 -->
<g id="edge7_Node000007_Node000008" class="edge">
<title>Node7&#45;&gt;Node8</title>
<g id="a_edge7_Node000007_Node000008"><a xlink:title=" ">
<path fill="none" stroke="#63b8ff" d="M601.15,-171.19C656.16,-167.27 737.05,-156.79 802,-129 828.82,-117.52 854.99,-95.94 871.05,-81.15"/>
<polygon fill="#63b8ff" stroke="#63b8ff" points="873.62,-83.54 878.48,-74.12 868.81,-78.45 873.62,-83.54"/>
</a>
</g>
</g>
<!-- Node9 -->
<g id="Node000009" class="node">
<title>Node9</title>
<g id="a_Node000009"><a xlink:title=" ">
<polygon fill="#e0e0e0" stroke="#999999" points="639,-19 589,-19 589,0 639,0 639,-19"/>
<text text-anchor="middle" x="614" y="-7" font-family="Helvetica,sans-Serif" font-size="10.00">cstdint</text>
</a>
</g>
</g>
<!-- Node7&#45;&gt;Node9 -->
<g id="edge14_Node000007_Node000009" class="edge">
<title>Node7&#45;&gt;Node9</title>
<g id="a_edge14_Node000007_Node000009"><a xlink:title=" ">
<path fill="none" stroke="#63b8ff" d="M601.21,-168.65C655.87,-162.98 728.88,-151.38 747,-129 782.85,-84.72 698.23,-42.8 647.96,-22.78"/>
<polygon fill="#63b8ff" stroke="#63b8ff" points="649,-19.43 638.41,-19.07 646.47,-25.96 649,-19.43"/>
</a>
</g>
</g>
<!-- Node10 -->
<g id="Node000010" class="node">
<title>Node10</title>
<g id="a_Node000010"><a xlink:title=" ">
<polygon fill="#e0e0e0" stroke="#999999" points="402,-129 338,-129 338,-110 402,-110 402,-129"/>
<text text-anchor="middle" x="370" y="-117" font-family="Helvetica,sans-Serif" font-size="10.00">algorithm</text>
</a>
</g>
</g>
<!-- Node7&#45;&gt;Node10 -->
<g id="edge9_Node000007_Node000010" class="edge">
<title>Node7&#45;&gt;Node10</title>
<g id="a_edge9_Node000007_Node000010"><a xlink:title=" ">
<path fill="none" stroke="#63b8ff" d="M511.01,-164.98C482.8,-156.09 438.36,-142.07 406.92,-132.15"/>
<polygon fill="#63b8ff" stroke="#63b8ff" points="407.79,-128.75 397.2,-129.08 405.69,-135.43 407.79,-128.75"/>
</a>
</g>
</g>
<!-- Node11 -->
<g id="Node000011" class="node">
<title>Node11</title>
<g id="a_Node000011"><a xlink:title=" ">
<polygon fill="#e0e0e0" stroke="#999999" points="462,-129 420,-129 420,-110 462,-110 462,-129"/>
<text text-anchor="middle" x="441" y="-117" font-family="Helvetica,sans-Serif" font-size="10.00">array</text>
</a>
</g>
</g>
<!-- Node7&#45;&gt;Node11 -->
<g id="edge10_Node000007_Node000011" class="edge">
<title>Node7&#45;&gt;Node11</title>
<g id="a_edge10_Node000007_Node000011"><a xlink:title=" ">
<path fill="none" stroke="#63b8ff" d="M522.42,-164.98C507.23,-156.69 483.9,-143.94 466.1,-134.22"/>
<polygon fill="#63b8ff" stroke="#63b8ff" points="467.32,-130.89 456.87,-129.17 463.97,-137.04 467.32,-130.89"/>
</a>
</g>
</g>
<!-- Node12 -->
<g id="Node000012" class="node">
<title>Node12</title>
<g id="a_Node000012"><a xlink:title=" ">
<polygon fill="#e0e0e0" stroke="#999999" points="530,-129 480,-129 480,-110 530,-110 530,-129"/>
<text text-anchor="middle" x="505" y="-117" font-family="Helvetica,sans-Serif" font-size="10.00">atomic</text>
</a>
</g>
</g>
<!-- Node7&#45;&gt;Node12 -->
<g id="edge11_Node000007_Node000012" class="edge">
<title>Node7&#45;&gt;Node12</title>
<g id="a_edge11_Node000007_Node000012"><a xlink:title=" ">
<path fill="none" stroke="#63b8ff" d="M532.55,-164.75C527.99,-157.42 521.33,-146.73 515.71,-137.7"/>
<polygon fill="#63b8ff" stroke="#63b8ff" points="518.6,-135.73 510.35,-129.09 512.66,-139.43 518.6,-135.73"/>
</a>
</g>
</g>
<!-- Node13 -->
<g id="Node000013" class="node">
<title>Node13</title>
<g id="a_Node000013"><a xlink:title=" ">
<polygon fill="#e0e0e0" stroke="#999999" points="592,-129 548,-129 548,-110 592,-110 592,-129"/>
<text text-anchor="middle" x="570" y="-117" font-family="Helvetica,sans-Serif" font-size="10.00">bitset</text>
</a>
</g>
</g>
<!-- Node7&#45;&gt;Node13 -->
<g id="edge12_Node000007_Node000013" class="edge">
<title>Node7&#45;&gt;Node13</title>
<g id="a_edge12_Node000007_Node000013"><a xlink:title=" ">
<path fill="none" stroke="#63b8ff" d="M543.28,-164.75C547.71,-157.42 554.16,-146.73 559.62,-137.7"/>
<polygon fill="#63b8ff" stroke="#63b8ff" points="562.64,-139.46 564.81,-129.09 556.65,-135.84 562.64,-139.46"/>
</a>
</g>
</g>
<!-- Node14 -->
<g id="Node000014" class="node">
<title>Node14</title>
<g id="a_Node000014"><a xlink:title=" ">
<polygon fill="#e0e0e0" stroke="#999999" points="657.5,-129 610.5,-129 610.5,-110 657.5,-110 657.5,-129"/>
<text text-anchor="middle" x="634" y="-117" font-family="Helvetica,sans-Serif" font-size="10.00">cmath</text>
</a>
</g>
</g>
<!-- Node7&#45;&gt;Node14 -->
<g id="edge13_Node000007_Node000014" class="edge">
<title>Node7&#45;&gt;Node14</title>
<g id="a_edge13_Node000007_Node000014"><a xlink:title=" ">
<path fill="none" stroke="#63b8ff" d="M553.42,-164.98C568.45,-156.69 591.54,-143.94 609.16,-134.22"/>
<polygon fill="#63b8ff" stroke="#63b8ff" points="611.23,-137.07 618.3,-129.17 607.85,-130.94 611.23,-137.07"/>
</a>
</g>
</g>
<!-- Node15 -->
<g id="Node000015" class="node">
<title>Node15</title>
<g id="a_Node000015"><a xlink:title=" ">
<polygon fill="#e0e0e0" stroke="#999999" points="722,-129 676,-129 676,-110 722,-110 722,-129"/>
<text text-anchor="middle" x="699" y="-117" font-family="Helvetica,sans-Serif" font-size="10.00">cstdio</text>
</a>
</g>
</g>
<!-- Node7&#45;&gt;Node15 -->
<g id="edge15_Node000007_Node000015" class="edge">
<title>Node7&#45;&gt;Node15</title>
<g id="a_edge15_Node000007_Node000015"><a xlink:title=" ">
<path fill="none" stroke="#63b8ff" d="M563.87,-164.98C591.66,-155.84 635.9,-141.27 666.14,-131.32"/>
<polygon fill="#63b8ff" stroke="#63b8ff" points="667.41,-134.59 675.81,-128.13 665.22,-127.94 667.41,-134.59"/>
</a>
</g>
</g>
<!-- Node16 -->
<g id="Node000016" class="node">
<title>Node16</title>
<g id="a_Node000016"><a xlink:href="AS5047U__types_8hpp.html" target="_top" xlink:title="Type definitions for the AS5047U driver.">
<polygon fill="white" stroke="#666666" points="671,-74 557,-74 557,-55 671,-55 671,-74"/>
<text text-anchor="middle" x="614" y="-62" font-family="Helvetica,sans-Serif" font-size="10.00">AS5047U_types.hpp</text>
</a>
</g>
</g>
<!-- Node7&#45;&gt;Node16 -->
<g id="edge16_Node000007_Node000016" class="edge">
<title>Node7&#45;&gt;Node16</title>
<g id="a_edge16_Node000007_Node000016"><a xlink:title=" ">
<path fill="none" stroke="#63b8ff" d="M601.11,-167.37C651.02,-161.07 714.89,-149.25 731,-129 751.69,-102.99 712.21,-86.16 673.64,-76.41"/>
<polygon fill="#63b8ff" stroke="#63b8ff" points="674.43,-73 663.89,-74.08 672.8,-79.81 674.43,-73"/>
</a>
</g>
</g>
<!-- Node17 -->
<g id="Node000017" class="node">
<title>Node17</title>
<g id="a_Node000017"><a xlink:href="AS5047U__config_8hpp.html" target="_top" xlink:title=" ">
<polygon fill="white" stroke="#666666" points="320,-129 204,-129 204,-110 320,-110 320,-129"/>
<text text-anchor="middle" x="262" y="-117" font-family="Helvetica,sans-Serif" font-size="10.00">AS5047U_config.hpp</text>
</a>
</g>
</g>
<!-- Node7&#45;&gt;Node17 -->
<g id="edge18_Node000007_Node000017" class="edge">
<title>Node7&#45;&gt;Node17</title>
<g id="a_edge18_Node000007_Node000017"><a xlink:title=" ">
<path fill="none" stroke="#63b8ff" d="M493.66,-164.98C445.51,-155.74 368.58,-140.97 316.71,-131.01"/>
<polygon fill="#63b8ff" stroke="#63b8ff" points="317.17,-127.53 306.69,-129.08 315.85,-134.41 317.17,-127.53"/>
</a>
</g>
</g>
<!-- Node8&#45;&gt;Node9 -->
<g id="edge8_Node000008_Node000009" class="edge">
<title>Node8&#45;&gt;Node9</title>
<g id="a_edge8_Node000008_Node000009"><a xlink:title=" ">
<path fill="none" stroke="#63b8ff" d="M843.14,-54.98C789.24,-44.52 698.87,-26.98 649.25,-17.34"/>
<polygon fill="#63b8ff" stroke="#63b8ff" points="649.8,-13.88 639.31,-15.41 648.46,-20.76 649.8,-13.88"/>
</a>
</g>
</g>
<!-- Node16&#45;&gt;Node9 -->
<g id="edge17_Node000016_Node000009" class="edge">
<title>Node16&#45;&gt;Node9</title>
<g id="a_edge17_Node000016_Node000009"><a xlink:title=" ">
<path fill="none" stroke="#63b8ff" d="M614,-54.75C614,-47.8 614,-37.85 614,-29.13"/>
<polygon fill="#63b8ff" stroke="#63b8ff" points="617.5,-29.09 614,-19.09 610.5,-29.09 617.5,-29.09"/>
</a>
</g>
</g>
<!-- Node17&#45;&gt;Node9 -->
<g id="edge19_Node000017_Node000009" class="edge">
<title>Node17&#45;&gt;Node9</title>
<g id="a_edge19_Node000017_Node000009"><a xlink:title=" ">
<path fill="none" stroke="#63b8ff" d="M289.92,-109.94C353.61,-90.39 509.56,-42.55 579.3,-21.15"/>
<polygon fill="#63b8ff" stroke="#63b8ff" points="580.41,-24.47 588.94,-18.19 578.36,-17.78 580.41,-24.47"/>
</a>
</g>
</g>
<!-- Node17&#45;&gt;Node16 -->
<g id="edge20_Node000017_Node000016" class="edge">
<title>Node17&#45;&gt;Node16</title>
<g id="a_edge20_Node000017_Node000016"><a xlink:title=" ">
<path fill="none" stroke="#63b8ff" d="M318.55,-109.98C380.94,-100.59 481.24,-85.49 547.39,-75.53"/>
<polygon fill="#63b8ff" stroke="#63b8ff" points="547.93,-78.99 557.29,-74.04 546.88,-72.07 547.93,-78.99"/>
</a>
</g>
</g>
<!-- Node18&#45;&gt;Node3 -->
<g id="edge27_Node000018_Node000003" class="edge">
<title>Node18&#45;&gt;Node3</title>
<g id="a_edge27_Node000018_Node000003"><a xlink:title=" ">
<path fill="none" stroke="#63b8ff" d="M180.53,-219.98C151.82,-211.09 106.58,-197.07 74.58,-187.15"/>
<polygon fill="#63b8ff" stroke="#63b8ff" points="75.28,-183.7 64.69,-184.08 73.2,-190.39 75.28,-183.7"/>
</a>
</g>
</g>
<!-- Node18&#45;&gt;Node6 -->
<g id="edge25_Node000018_Node000006" class="edge">
<title>Node18&#45;&gt;Node6</title>
<g id="a_edge25_Node000018_Node000006"><a xlink:title=" ">
<path fill="none" stroke="#63b8ff" d="M193.22,-219.98C178.82,-211.69 156.69,-198.94 139.81,-189.22"/>
<polygon fill="#63b8ff" stroke="#63b8ff" points="141.46,-186.13 131.05,-184.17 137.97,-192.19 141.46,-186.13"/>
</a>
</g>
</g>
<!-- Node18&#45;&gt;Node7 -->
<g id="edge22_Node000018_Node000007" class="edge">
<title>Node18&#45;&gt;Node7</title>
<g id="a_edge22_Node000018_Node000007"><a xlink:title=" ">
<path fill="none" stroke="#63b8ff" d="M261.02,-219.98C319.27,-210.63 412.77,-195.61 474.78,-185.65"/>
<polygon fill="#63b8ff" stroke="#63b8ff" points="475.52,-189.08 484.84,-184.04 474.41,-182.17 475.52,-189.08"/>
</a>
</g>
</g>
<!-- Node18&#45;&gt;Node9 -->
<g id="edge26_Node000018_Node000009" class="edge">
<title>Node18&#45;&gt;Node9</title>
<g id="a_edge26_Node000018_Node000009"><a xlink:title=" ">
<path fill="none" stroke="#63b8ff" d="M203.4,-219.94C192.72,-198.79 169.07,-143.32 195,-110 242.48,-48.98 486.7,-21.62 578.8,-13.35"/>
<polygon fill="#63b8ff" stroke="#63b8ff" points="579.34,-16.82 589,-12.46 578.73,-9.84 579.34,-16.82"/>
</a>
</g>
</g>
<!-- Node19 -->
<g id="Node000019" class="node">
<title>Node19</title>
<g id="a_Node000019"><a xlink:title=" ">
<polygon fill="#e0e0e0" stroke="#999999" points="314,-184 204,-184 204,-165 314,-165 314,-184"/>
<text text-anchor="middle" x="259" y="-172" font-family="Helvetica,sans-Serif" font-size="10.00">driver/spi_master.h</text>
</a>
</g>
</g>
<!-- Node18&#45;&gt;Node19 -->
<g id="edge23_Node000018_Node000019" class="edge">
<title>Node18&#45;&gt;Node19</title>
<g id="a_edge23_Node000018_Node000019"><a xlink:title=" ">
<path fill="none" stroke="#63b8ff" d="M216.42,-219.75C223.77,-212.11 234.63,-200.82 243.54,-191.56"/>
<polygon fill="#63b8ff" stroke="#63b8ff" points="246.32,-193.72 250.74,-184.09 241.28,-188.87 246.32,-193.72"/>
</a>
</g>
</g>
<!-- Node20 -->
<g id="Node000020" class="node">
<title>Node20</title>
<g id="a_Node000020"><a xlink:title=" ">
<polygon fill="#e0e0e0" stroke="#999999" points="410,-184 332,-184 332,-165 410,-165 410,-184"/>
<text text-anchor="middle" x="371" y="-172" font-family="Helvetica,sans-Serif" font-size="10.00">driver/gpio.h</text>
</a>
</g>
</g>
<!-- Node18&#45;&gt;Node20 -->
<g id="edge24_Node000018_Node000020" class="edge">
<title>Node18&#45;&gt;Node20</title>
<g id="a_edge24_Node000018_Node000020"><a xlink:title=" ">
<path fill="none" stroke="#63b8ff" d="M234.19,-219.98C261.44,-211.13 304.3,-197.19 334.78,-187.28"/>
<polygon fill="#63b8ff" stroke="#63b8ff" points="336.18,-190.5 344.61,-184.08 334.01,-183.85 336.18,-190.5"/>
</a>
</g>
</g>
</g>
</svg>
