<?xml version="1.0" encoding="UTF-8" standalone="no"?>
<!DOCTYPE svg PUBLIC "-//W3C//DTD SVG 1.1//EN"
 "http://www.w3.org/Graphics/SVG/1.1/DTD/svg11.dtd">
<!-- Generated by graphviz version 2.43.0 (0)
 -->
<!-- Title: examples/esp32/main/configuration_example.cpp Pages: 1 -->
<svg width="1629pt" height="269pt"
 viewBox="0.00 0.00 1629.00 269.00" xmlns="http://www.w3.org/2000/svg" xmlns:xlink="http://www.w3.org/1999/xlink">
<g id="graph0" class="graph" transform="scale(1 1) rotate(0) translate(4 265)">
<title>examples/esp32/main/configuration_example.cpp</title>
<!-- Node1 -->
<g id="Node000001" class="node">
<title>Node1</title>
<g id="a_Node000001"><a xlink:title="Configuration example with ABI, UVW, and PWM setup.">
<polygon fill="#999999" stroke="#666666" points="1002.5,-261 850.5,-261 850.5,-231 1002.5,-231 1002.5,-261"/>
<text text-anchor="start" x="858.5" y="-249" font-family="Helvetica,sans-Serif" font-size="10.00">examples/esp32/main</text>
<text text-anchor="middle" x="926.5" y="-238" font-family="Helvetica,sans-Serif" font-size="10.00">/configuration_example.cpp</text>
</a>
</g>
</g>
<!-- Node2 -->
<g id="Node000002" class="node">
<title>Node2</title>
<g id="a_Node000002"><a xlink:title=" ">
<polygon fill="#e0e0e0" stroke="#999999" points="63,-134.5 0,-134.5 0,-115.5 63,-115.5 63,-134.5"/>
<text text-anchor="middle" x="31.5" y="-122.5" font-family="Helvetica,sans-Serif" font-size="10.00">esp_log.h</text>
</a>
</g>
</g>
<!-- Node1&#45;&gt;Node2 -->
<g id="edge1_Node000001_Node000002" class="edge">
<title>Node1&#45;&gt;Node2</title>
<g id="a_edge1_Node000001_Node000002"><a xlink:title=" ">
<path fill="none" stroke="#63b8ff" d="M850.41,-245.9C721.76,-246.02 453.68,-240.14 232.5,-195 169.45,-182.13 99.01,-154.77 60.52,-138.64"/>
<polygon fill="#63b8ff" stroke="#63b8ff" points="61.57,-135.28 51,-134.6 58.84,-141.72 61.57,-135.28"/>
</a>
</g>
</g>
<!-- Node3 -->
<g id="Node000003" class="node">
<title>Node3</title>
<g id="a_Node000003"><a xlink:title=" ">
<polygon fill="#e0e0e0" stroke="#999999" points="1298,-195 1185,-195 1185,-176 1298,-176 1298,-195"/>
<text text-anchor="middle" x="1241.5" y="-183" font-family="Helvetica,sans-Serif" font-size="10.00">freertos/FreeRTOS.h</text>
</a>
</g>
</g>
<!-- Node1&#45;&gt;Node3 -->
<g id="edge2_Node000001_Node000003" class="edge">
<title>Node1&#45;&gt;Node3</title>
<g id="a_edge2_Node000001_Node000003"><a xlink:title=" ">
<path fill="none" stroke="#63b8ff" d="M1001.95,-230.99C1058.43,-220.5 1134.44,-206.38 1185.56,-196.89"/>
<polygon fill="#63b8ff" stroke="#63b8ff" points="1186.25,-200.32 1195.44,-195.05 1184.97,-193.44 1186.25,-200.32"/>
</a>
</g>
</g>
<!-- Node4 -->
<g id="Node000004" class="node">
<title>Node4</title>
<g id="a_Node000004"><a xlink:title=" ">
<polygon fill="#e0e0e0" stroke="#999999" points="1404.5,-195 1316.5,-195 1316.5,-176 1404.5,-176 1404.5,-195"/>
<text text-anchor="middle" x="1360.5" y="-183" font-family="Helvetica,sans-Serif" font-size="10.00">freertos/task.h</text>
</a>
</g>
</g>
<!-- Node1&#45;&gt;Node4 -->
<g id="edge3_Node000001_Node000004" class="edge">
<title>Node1&#45;&gt;Node4</title>
<g id="a_edge3_Node000001_Node000004"><a xlink:title=" ">
<path fill="none" stroke="#63b8ff" d="M1002.85,-235.63C1077.58,-226.31 1194.92,-211.29 1306.21,-195.15"/>
<polygon fill="#63b8ff" stroke="#63b8ff" points="1306.88,-198.59 1316.27,-193.69 1305.87,-191.67 1306.88,-198.59"/>
</a>
</g>
</g>
<!-- Node5 -->
<g id="Node000005" class="node">
<title>Node5</title>
<g id="a_Node000005"><a xlink:title=" ">
<polygon fill="#e0e0e0" stroke="#999999" points="139.5,-134.5 81.5,-134.5 81.5,-115.5 139.5,-115.5 139.5,-134.5"/>
<text text-anchor="middle" x="110.5" y="-122.5" font-family="Helvetica,sans-Serif" font-size="10.00">memory</text>
</a>
</g>
</g>
<!-- Node1&#45;&gt;Node5 -->
<g id="edge4_Node000001_Node000005" class="edge">
<title>Node1&#45;&gt;Node5</title>
<g id="a_edge4_Node000001_Node000005"><a xlink:title=" ">
<path fill="none" stroke="#63b8ff" d="M850.26,-245.5C731.26,-244.8 494.76,-237.52 299.5,-195 240.22,-182.09 174.39,-154.94 138.18,-138.81"/>
<polygon fill="#63b8ff" stroke="#63b8ff" points="139.33,-135.5 128.78,-134.58 136.46,-141.88 139.33,-135.5"/>
</a>
</g>
</g>
<!-- Node6 -->
<g id="Node000006" class="node">
<title>Node6</title>
<g id="a_Node000006"><a xlink:title=" ">
<polygon fill="#e0e0e0" stroke="#999999" points="1472.5,-195 1422.5,-195 1422.5,-176 1472.5,-176 1472.5,-195"/>
<text text-anchor="middle" x="1447.5" y="-183" font-family="Helvetica,sans-Serif" font-size="10.00">stdio.h</text>
</a>
</g>
</g>
<!-- Node1&#45;&gt;Node6 -->
<g id="edge5_Node000001_Node000006" class="edge">
<title>Node1&#45;&gt;Node6</title>
<g id="a_edge5_Node000001_Node000006"><a xlink:title=" ">
<path fill="none" stroke="#63b8ff" d="M1002.88,-240.54C1097.1,-234.28 1262.23,-220.85 1412.46,-194.94"/>
<polygon fill="#63b8ff" stroke="#63b8ff" points="1413.09,-198.38 1422.33,-193.22 1411.88,-191.49 1413.09,-198.38"/>
</a>
</g>
</g>
<!-- Node7 -->
<g id="Node000007" class="node">
<title>Node7</title>
<g id="a_Node000007"><a xlink:href="as5047u_8hpp.html" target="_top" xlink:title="Driver for AMS AS5047U Magnetic Rotary Position Sensor (C++21)">
<polygon fill="white" stroke="#666666" points="1167,-195 1044,-195 1044,-176 1167,-176 1167,-195"/>
<text text-anchor="middle" x="1105.5" y="-183" font-family="Helvetica,sans-Serif" font-size="10.00">../../../inc/as5047u.hpp</text>
</a>
</g>
</g>
<!-- Node1&#45;&gt;Node7 -->
<g id="edge6_Node000001_Node000007" class="edge">
<title>Node1&#45;&gt;Node7</title>
<g id="a_edge6_Node000001_Node000007"><a xlink:title=" ">
<path fill="none" stroke="#63b8ff" d="M969.37,-230.99C1000,-220.98 1040.73,-207.67 1069.63,-198.22"/>
<polygon fill="#63b8ff" stroke="#63b8ff" points="1070.91,-201.49 1079.33,-195.05 1068.73,-194.83 1070.91,-201.49"/>
</a>
</g>
</g>
<!-- Node23 -->
<g id="Node000023" class="node">
<title>Node23</title>
<g id="a_Node000023"><a xlink:href="esp32__as5047u__bus_8hpp.html" target="_top" xlink:title="ESP32 SPI transport implementation for AS5047U driver (header&#45;only)">
<polygon fill="white" stroke="#666666" points="444.5,-195 308.5,-195 308.5,-176 444.5,-176 444.5,-195"/>
<text text-anchor="middle" x="376.5" y="-183" font-family="Helvetica,sans-Serif" font-size="10.00">esp32_as5047u_bus.hpp</text>
</a>
</g>
</g>
<!-- Node1&#45;&gt;Node23 -->
<g id="edge28_Node000001_Node000023" class="edge">
<title>Node1&#45;&gt;Node23</title>
<g id="a_edge28_Node000001_Node000023"><a xlink:title=" ">
<path fill="none" stroke="#63b8ff" d="M850.31,-236.9C746.13,-225.82 560.18,-206.04 454.87,-194.84"/>
<polygon fill="#63b8ff" stroke="#63b8ff" points="454.94,-191.32 444.62,-193.75 454.2,-198.28 454.94,-191.32"/>
</a>
</g>
</g>
<!-- Node24 -->
<g id="Node000024" class="node">
<title>Node24</title>
<g id="a_Node000024"><a xlink:href="esp32__as5047u__test__config_8hpp.html" target="_top" xlink:title="Hardware configuration for AS5047U driver on ESP32&#45;C6.">
<polygon fill="white" stroke="#666666" points="603.5,-140 487.5,-140 487.5,-110 603.5,-110 603.5,-140"/>
<text text-anchor="start" x="495.5" y="-128" font-family="Helvetica,sans-Serif" font-size="10.00">esp32_as5047u_test</text>
<text text-anchor="middle" x="545.5" y="-117" font-family="Helvetica,sans-Serif" font-size="10.00">_config.hpp</text>
</a>
</g>
</g>
<!-- Node1&#45;&gt;Node24 -->
<g id="edge38_Node000001_Node000024" class="edge">
<title>Node1&#45;&gt;Node24</title>
<g id="a_edge38_Node000001_Node000024"><a xlink:title=" ">
<path fill="none" stroke="#63b8ff" d="M881.67,-231C811.55,-209.1 676.1,-166.79 600.29,-143.11"/>
<polygon fill="#63b8ff" stroke="#63b8ff" points="601.04,-139.68 590.45,-140.04 598.95,-146.36 601.04,-139.68"/>
</a>
</g>
</g>
<!-- Node8 -->
<g id="Node000008" class="node">
<title>Node8</title>
<g id="a_Node000008"><a xlink:href="as5047u__spi__interface_8hpp.html" target="_top" xlink:title="CRTP&#45;based SPI bus interface for AS5047U driver.">
<polygon fill="white" stroke="#666666" points="769,-134.5 622,-134.5 622,-115.5 769,-115.5 769,-134.5"/>
<text text-anchor="middle" x="695.5" y="-122.5" font-family="Helvetica,sans-Serif" font-size="10.00">as5047u_spi_interface.hpp</text>
</a>
</g>
</g>
<!-- Node7&#45;&gt;Node8 -->
<g id="edge7_Node000007_Node000008" class="edge">
<title>Node7&#45;&gt;Node8</title>
<g id="a_edge7_Node000007_Node000008"><a xlink:title=" ">
<path fill="none" stroke="#63b8ff" d="M1043.72,-176.34C978.85,-167.69 873.93,-153.44 783.5,-140 775.25,-138.77 766.57,-137.44 758.02,-136.11"/>
<polygon fill="#63b8ff" stroke="#63b8ff" points="758.48,-132.64 748.06,-134.54 757.39,-139.55 758.48,-132.64"/>
</a>
</g>
</g>
<!-- Node10 -->
<g id="Node000010" class="node">
<title>Node10</title>
<g id="a_Node000010"><a xlink:title=" ">
<polygon fill="#e0e0e0" stroke="#999999" points="823.5,-19 773.5,-19 773.5,0 823.5,0 823.5,-19"/>
<text text-anchor="middle" x="798.5" y="-7" font-family="Helvetica,sans-Serif" font-size="10.00">cstdint</text>
</a>
</g>
</g>
<!-- Node7&#45;&gt;Node10 -->
<g id="edge17_Node000007_Node000010" class="edge">
<title>Node7&#45;&gt;Node10</title>
<g id="a_edge17_Node000007_Node000010"><a xlink:title=" ">
<path fill="none" stroke="#63b8ff" d="M1160.43,-175.96C1181.61,-169.69 1203.76,-158.83 1216.5,-140 1238.43,-107.58 1224.81,-78.48 1193.5,-55 1137.19,-12.77 919.81,-9.59 833.81,-10.03"/>
<polygon fill="#63b8ff" stroke="#63b8ff" points="833.73,-6.54 823.76,-10.11 833.78,-13.54 833.73,-6.54"/>
</a>
</g>
</g>
<!-- Node11 -->
<g id="Node000011" class="node">
<title>Node11</title>
<g id="a_Node000011"><a xlink:href="as5047u__registers_8hpp.html" target="_top" xlink:title="Register definitions for the AS5047U Rotary Position Sensor.">
<polygon fill="white" stroke="#666666" points="1391,-74 1264,-74 1264,-55 1391,-55 1391,-74"/>
<text text-anchor="middle" x="1327.5" y="-62" font-family="Helvetica,sans-Serif" font-size="10.00">as5047u_registers.hpp</text>
</a>
</g>
</g>
<!-- Node7&#45;&gt;Node11 -->
<g id="edge10_Node000007_Node000011" class="edge">
<title>Node7&#45;&gt;Node11</title>
<g id="a_edge10_Node000007_Node000011"><a xlink:title=" ">
<path fill="none" stroke="#63b8ff" d="M1151.51,-175.99C1180.95,-169.2 1219.15,-157.82 1249.5,-140 1275.62,-124.65 1299.88,-98.95 1314.2,-82.11"/>
<polygon fill="#63b8ff" stroke="#63b8ff" points="1317.06,-84.14 1320.74,-74.21 1311.66,-79.68 1317.06,-84.14"/>
</a>
</g>
</g>
<!-- Node12 -->
<g id="Node000012" class="node">
<title>Node12</title>
<g id="a_Node000012"><a xlink:title=" ">
<polygon fill="#e0e0e0" stroke="#999999" points="1365.5,-134.5 1301.5,-134.5 1301.5,-115.5 1365.5,-115.5 1365.5,-134.5"/>
<text text-anchor="middle" x="1333.5" y="-122.5" font-family="Helvetica,sans-Serif" font-size="10.00">algorithm</text>
</a>
</g>
</g>
<!-- Node7&#45;&gt;Node12 -->
<g id="edge12_Node000007_Node000012" class="edge">
<title>Node7&#45;&gt;Node12</title>
<g id="a_edge12_Node000007_Node000012"><a xlink:title=" ">
<path fill="none" stroke="#63b8ff" d="M1142.95,-175.98C1179.86,-167.44 1237.78,-153.63 1287.5,-140 1290.46,-139.19 1293.53,-138.32 1296.6,-137.43"/>
<polygon fill="#63b8ff" stroke="#63b8ff" points="1297.74,-140.74 1306.33,-134.54 1295.75,-134.03 1297.74,-140.74"/>
</a>
</g>
</g>
<!-- Node13 -->
<g id="Node000013" class="node">
<title>Node13</title>
<g id="a_Node000013"><a xlink:title=" ">
<polygon fill="#e0e0e0" stroke="#999999" points="1425.5,-134.5 1383.5,-134.5 1383.5,-115.5 1425.5,-115.5 1425.5,-134.5"/>
<text text-anchor="middle" x="1404.5" y="-122.5" font-family="Helvetica,sans-Serif" font-size="10.00">array</text>
</a>
</g>
</g>
<!-- Node7&#45;&gt;Node13 -->
<g id="edge13_Node000007_Node000013" class="edge">
<title>Node7&#45;&gt;Node13</title>
<g id="a_edge13_Node000007_Node000013"><a xlink:title=" ">
<path fill="none" stroke="#63b8ff" d="M1167.04,-176.3C1234.08,-167.02 1336.8,-151.67 1374.5,-140 1375.94,-139.55 1377.4,-139.05 1378.86,-138.51"/>
<polygon fill="#63b8ff" stroke="#63b8ff" points="1380.46,-141.64 1388.32,-134.53 1377.74,-135.19 1380.46,-141.64"/>
</a>
</g>
</g>
<!-- Node14 -->
<g id="Node000014" class="node">
<title>Node14</title>
<g id="a_Node000014"><a xlink:title=" ">
<polygon fill="#e0e0e0" stroke="#999999" points="1493.5,-134.5 1443.5,-134.5 1443.5,-115.5 1493.5,-115.5 1493.5,-134.5"/>
<text text-anchor="middle" x="1468.5" y="-122.5" font-family="Helvetica,sans-Serif" font-size="10.00">atomic</text>
</a>
</g>
</g>
<!-- Node7&#45;&gt;Node14 -->
<g id="edge14_Node000007_Node000014" class="edge">
<title>Node7&#45;&gt;Node14</title>
<g id="a_edge14_Node000007_Node000014"><a xlink:title=" ">
<path fill="none" stroke="#63b8ff" d="M1167.18,-177.02C1255.28,-166.21 1409.31,-146.77 1434.5,-140 1436.44,-139.48 1438.42,-138.87 1440.4,-138.21"/>
<polygon fill="#63b8ff" stroke="#63b8ff" points="1441.95,-141.37 1450.09,-134.58 1439.5,-134.81 1441.95,-141.37"/>
</a>
</g>
</g>
<!-- Node15 -->
<g id="Node000015" class="node">
<title>Node15</title>
<g id="a_Node000015"><a xlink:title=" ">
<polygon fill="#e0e0e0" stroke="#999999" points="1555.5,-134.5 1511.5,-134.5 1511.5,-115.5 1555.5,-115.5 1555.5,-134.5"/>
<text text-anchor="middle" x="1533.5" y="-122.5" font-family="Helvetica,sans-Serif" font-size="10.00">bitset</text>
</a>
</g>
</g>
<!-- Node7&#45;&gt;Node15 -->
<g id="edge15_Node000007_Node000015" class="edge">
<title>Node7&#45;&gt;Node15</title>
<g id="a_edge15_Node000007_Node000015"><a xlink:title=" ">
<path fill="none" stroke="#63b8ff" d="M1167.07,-177.09C1170.26,-176.72 1173.42,-176.35 1176.5,-176 1321.31,-159.34 1361.9,-178.47 1502.5,-140 1504.18,-139.54 1505.89,-139 1507.6,-138.4"/>
<polygon fill="#63b8ff" stroke="#63b8ff" points="1509.17,-141.54 1517.13,-134.55 1506.54,-135.05 1509.17,-141.54"/>
</a>
</g>
</g>
<!-- Node16 -->
<g id="Node000016" class="node">
<title>Node16</title>
<g id="a_Node000016"><a xlink:title=" ">
<polygon fill="#e0e0e0" stroke="#999999" points="1621,-134.5 1574,-134.5 1574,-115.5 1621,-115.5 1621,-134.5"/>
<text text-anchor="middle" x="1597.5" y="-122.5" font-family="Helvetica,sans-Serif" font-size="10.00">cmath</text>
</a>
</g>
</g>
<!-- Node7&#45;&gt;Node16 -->
<g id="edge16_Node000007_Node000016" class="edge">
<title>Node7&#45;&gt;Node16</title>
<g id="a_edge16_Node000007_Node000016"><a xlink:title=" ">
<path fill="none" stroke="#63b8ff" d="M1167.06,-177.03C1170.25,-176.67 1173.41,-176.33 1176.5,-176 1348.72,-157.71 1396.57,-182.32 1564.5,-140 1566.45,-139.51 1568.43,-138.92 1570.4,-138.27"/>
<polygon fill="#63b8ff" stroke="#63b8ff" points="1571.94,-141.42 1580.04,-134.59 1569.45,-134.88 1571.94,-141.42"/>
</a>
</g>
</g>
<!-- Node17 -->
<g id="Node000017" class="node">
<title>Node17</title>
<g id="a_Node000017"><a xlink:title=" ">
<polygon fill="#e0e0e0" stroke="#999999" points="1003.5,-134.5 957.5,-134.5 957.5,-115.5 1003.5,-115.5 1003.5,-134.5"/>
<text text-anchor="middle" x="980.5" y="-122.5" font-family="Helvetica,sans-Serif" font-size="10.00">cstdio</text>
</a>
</g>
</g>
<!-- Node7&#45;&gt;Node17 -->
<g id="edge18_Node000007_Node000017" class="edge">
<title>Node7&#45;&gt;Node17</title>
<g id="a_edge18_Node000007_Node000017"><a xlink:title=" ">
<path fill="none" stroke="#63b8ff" d="M1087.32,-175.99C1066.49,-166.25 1032.13,-150.16 1008.02,-138.88"/>
<polygon fill="#63b8ff" stroke="#63b8ff" points="1009.24,-135.59 998.7,-134.52 1006.27,-141.93 1009.24,-135.59"/>
</a>
</g>
</g>
<!-- Node18 -->
<g id="Node000018" class="node">
<title>Node18</title>
<g id="a_Node000018"><a xlink:title=" ">
<polygon fill="#e0e0e0" stroke="#999999" points="1087,-134.5 1022,-134.5 1022,-115.5 1087,-115.5 1087,-134.5"/>
<text text-anchor="middle" x="1054.5" y="-122.5" font-family="Helvetica,sans-Serif" font-size="10.00">functional</text>
</a>
</g>
</g>
<!-- Node7&#45;&gt;Node18 -->
<g id="edge19_Node000007_Node000018" class="edge">
<title>Node7&#45;&gt;Node18</title>
<g id="a_edge19_Node000007_Node000018"><a xlink:title=" ">
<path fill="none" stroke="#63b8ff" d="M1097.97,-175.87C1090.29,-167.05 1078.18,-153.16 1068.69,-142.27"/>
<polygon fill="#63b8ff" stroke="#63b8ff" points="1071.27,-139.91 1062.06,-134.67 1065.99,-144.51 1071.27,-139.91"/>
</a>
</g>
</g>
<!-- Node19 -->
<g id="Node000019" class="node">
<title>Node19</title>
<g id="a_Node000019"><a xlink:href="as5047u__types_8hpp.html" target="_top" xlink:title="Type definitions for the AS5047U driver.">
<polygon fill="white" stroke="#666666" points="854,-74 743,-74 743,-55 854,-55 854,-74"/>
<text text-anchor="middle" x="798.5" y="-62" font-family="Helvetica,sans-Serif" font-size="10.00">as5047u_types.hpp</text>
</a>
</g>
</g>
<!-- Node7&#45;&gt;Node19 -->
<g id="edge20_Node000007_Node000019" class="edge">
<title>Node7&#45;&gt;Node19</title>
<g id="a_edge20_Node000007_Node000019"><a xlink:title=" ">
<path fill="none" stroke="#63b8ff" d="M1043.88,-182.75C969.34,-179.34 849.81,-169.33 817.5,-140 802.16,-126.08 798.44,-101.66 797.88,-84.58"/>
<polygon fill="#63b8ff" stroke="#63b8ff" points="801.38,-84.16 797.9,-74.16 794.38,-84.15 801.38,-84.16"/>
</a>
</g>
</g>
<!-- Node20 -->
<g id="Node000020" class="node">
<title>Node20</title>
<g id="a_Node000020"><a xlink:href="as5047u__config_8hpp.html" target="_top" xlink:title="Compile&#45;time configuration options for the AS5047U driver.">
<polygon fill="white" stroke="#666666" points="939,-134.5 826,-134.5 826,-115.5 939,-115.5 939,-134.5"/>
<text text-anchor="middle" x="882.5" y="-122.5" font-family="Helvetica,sans-Serif" font-size="10.00">as5047u_config.hpp</text>
</a>
</g>
</g>
<!-- Node7&#45;&gt;Node20 -->
<g id="edge22_Node000007_Node000020" class="edge">
<title>Node7&#45;&gt;Node20</title>
<g id="a_edge22_Node000007_Node000020"><a xlink:title=" ">
<path fill="none" stroke="#63b8ff" d="M1073.07,-175.99C1033.93,-165.73 968.01,-148.43 924.87,-137.12"/>
<polygon fill="#63b8ff" stroke="#63b8ff" points="925.53,-133.67 914.97,-134.52 923.75,-140.44 925.53,-133.67"/>
</a>
</g>
</g>
<!-- Node21 -->
<g id="Node000021" class="node">
<title>Node21</title>
<g id="a_Node000021"><a xlink:href="as5047u_8ipp.html" target="_top" xlink:title="Template implementation of AS5047U driver methods.">
<polygon fill="white" stroke="#666666" points="1207.5,-134.5 1105.5,-134.5 1105.5,-115.5 1207.5,-115.5 1207.5,-134.5"/>
<text text-anchor="middle" x="1156.5" y="-122.5" font-family="Helvetica,sans-Serif" font-size="10.00">../src/as5047u.ipp</text>
</a>
</g>
</g>
<!-- Node7&#45;&gt;Node21 -->
<g id="edge25_Node000007_Node000021" class="edge">
<title>Node7&#45;&gt;Node21</title>
<g id="a_edge25_Node000007_Node000021"><a xlink:title=" ">
<path fill="none" stroke="#63b8ff" d="M1108.07,-175.87C1113.91,-166.97 1125.8,-152.89 1136.51,-141.95"/>
<polygon fill="#63b8ff" stroke="#63b8ff" points="1139.26,-144.15 1143.98,-134.67 1134.38,-139.14 1139.26,-144.15"/>
</a>
</g>
</g>
<!-- Node9 -->
<g id="Node000009" class="node">
<title>Node9</title>
<g id="a_Node000009"><a xlink:title=" ">
<polygon fill="#e0e0e0" stroke="#999999" points="686,-74 633,-74 633,-55 686,-55 686,-74"/>
<text text-anchor="middle" x="659.5" y="-62" font-family="Helvetica,sans-Serif" font-size="10.00">cstddef</text>
</a>
</g>
</g>
<!-- Node8&#45;&gt;Node9 -->
<g id="edge8_Node000008_Node000009" class="edge">
<title>Node8&#45;&gt;Node9</title>
<g id="a_edge8_Node000008_Node000009"><a xlink:title=" ">
<path fill="none" stroke="#63b8ff" d="M690.19,-115.37C684.92,-106.81 676.71,-93.47 670.11,-82.74"/>
<polygon fill="#63b8ff" stroke="#63b8ff" points="673.06,-80.85 664.83,-74.17 667.09,-84.52 673.06,-80.85"/>
</a>
</g>
</g>
<!-- Node8&#45;&gt;Node10 -->
<g id="edge9_Node000008_Node000010" class="edge">
<title>Node8&#45;&gt;Node10</title>
<g id="a_edge9_Node000008_Node000010"><a xlink:title=" ">
<path fill="none" stroke="#63b8ff" d="M698.97,-115.14C704.76,-101.17 717.45,-73.72 734.5,-55 745.65,-42.76 760.75,-32.06 773.49,-24.22"/>
<polygon fill="#63b8ff" stroke="#63b8ff" points="775.43,-27.14 782.25,-19.04 771.86,-21.12 775.43,-27.14"/>
</a>
</g>
</g>
<!-- Node11&#45;&gt;Node10 -->
<g id="edge11_Node000011_Node000010" class="edge">
<title>Node11&#45;&gt;Node10</title>
<g id="a_edge11_Node000011_Node000010"><a xlink:title=" ">
<path fill="none" stroke="#63b8ff" d="M1263.65,-56.49C1258.87,-55.98 1254.11,-55.48 1249.5,-55 1094.78,-38.94 910.06,-21.14 833.94,-13.87"/>
<polygon fill="#63b8ff" stroke="#63b8ff" points="834.23,-10.38 823.94,-12.92 833.56,-17.35 834.23,-10.38"/>
</a>
</g>
</g>
<!-- Node19&#45;&gt;Node10 -->
<g id="edge21_Node000019_Node000010" class="edge">
<title>Node19&#45;&gt;Node10</title>
<g id="a_edge21_Node000019_Node000010"><a xlink:title=" ">
<path fill="none" stroke="#63b8ff" d="M798.5,-54.75C798.5,-47.8 798.5,-37.85 798.5,-29.13"/>
<polygon fill="#63b8ff" stroke="#63b8ff" points="802,-29.09 798.5,-19.09 795,-29.09 802,-29.09"/>
</a>
</g>
</g>
<!-- Node20&#45;&gt;Node10 -->
<g id="edge23_Node000020_Node000010" class="edge">
<title>Node20&#45;&gt;Node10</title>
<g id="a_edge23_Node000020_Node000010"><a xlink:title=" ">
<path fill="none" stroke="#63b8ff" d="M881.99,-115.11C880.78,-101.11 876.78,-73.61 863.5,-55 854.17,-41.92 839.71,-31.47 826.8,-24"/>
<polygon fill="#63b8ff" stroke="#63b8ff" points="828.22,-20.79 817.77,-19.08 824.88,-26.94 828.22,-20.79"/>
</a>
</g>
</g>
<!-- Node20&#45;&gt;Node19 -->
<g id="edge24_Node000020_Node000019" class="edge">
<title>Node20&#45;&gt;Node19</title>
<g id="a_edge24_Node000020_Node000019"><a xlink:title=" ">
<path fill="none" stroke="#63b8ff" d="M870.11,-115.37C856.71,-106.04 835.12,-91.01 819.15,-79.88"/>
<polygon fill="#63b8ff" stroke="#63b8ff" points="821.15,-77.01 810.95,-74.17 817.15,-82.75 821.15,-77.01"/>
</a>
</g>
</g>
<!-- Node21&#45;&gt;Node7 -->
<g id="edge26_Node000021_Node000007" class="edge">
<title>Node21&#45;&gt;Node7</title>
<g id="a_edge26_Node000021_Node000007"><a xlink:title=" ">
<path fill="none" stroke="#63b8ff" d="M1153.91,-134.67C1148.06,-143.58 1136.15,-157.67 1125.45,-168.59"/>
<polygon fill="#63b8ff" stroke="#63b8ff" points="1122.7,-166.38 1117.98,-175.87 1127.59,-171.4 1122.7,-166.38"/>
</a>
</g>
</g>
<!-- Node22 -->
<g id="Node000022" class="node">
<title>Node22</title>
<g id="a_Node000022"><a xlink:title=" ">
<polygon fill="#e0e0e0" stroke="#999999" points="1184.5,-74 1128.5,-74 1128.5,-55 1184.5,-55 1184.5,-74"/>
<text text-anchor="middle" x="1156.5" y="-62" font-family="Helvetica,sans-Serif" font-size="10.00">iomanip</text>
</a>
</g>
</g>
<!-- Node21&#45;&gt;Node22 -->
<g id="edge27_Node000021_Node000022" class="edge">
<title>Node21&#45;&gt;Node22</title>
<g id="a_edge27_Node000021_Node000022"><a xlink:title=" ">
<path fill="none" stroke="#63b8ff" d="M1156.5,-115.37C1156.5,-107.25 1156.5,-94.81 1156.5,-84.39"/>
<polygon fill="#63b8ff" stroke="#63b8ff" points="1160,-84.17 1156.5,-74.17 1153,-84.17 1160,-84.17"/>
</a>
</g>
</g>
<!-- Node23&#45;&gt;Node2 -->
<g id="edge34_Node000023_Node000002" class="edge">
<title>Node23&#45;&gt;Node2</title>
<g id="a_edge34_Node000023_Node000002"><a xlink:title=" ">
<path fill="none" stroke="#63b8ff" d="M308.2,-178.13C246.14,-171.49 152.34,-159.3 72.5,-140 69.69,-139.32 66.8,-138.53 63.92,-137.68"/>
<polygon fill="#63b8ff" stroke="#63b8ff" points="64.86,-134.3 54.27,-134.6 62.73,-140.97 64.86,-134.3"/>
</a>
</g>
</g>
<!-- Node23&#45;&gt;Node5 -->
<g id="edge37_Node000023_Node000005" class="edge">
<title>Node23&#45;&gt;Node5</title>
<g id="a_edge37_Node000023_Node000005"><a xlink:title=" ">
<path fill="none" stroke="#63b8ff" d="M319.22,-175.93C272.75,-168.36 205.79,-156.03 148.5,-140 146.21,-139.36 143.87,-138.65 141.53,-137.89"/>
<polygon fill="#63b8ff" stroke="#63b8ff" points="142.6,-134.56 132.01,-134.6 140.32,-141.17 142.6,-134.56"/>
</a>
</g>
</g>
<!-- Node23&#45;&gt;Node8 -->
<g id="edge29_Node000023_Node000008" class="edge">
<title>Node23&#45;&gt;Node8</title>
<g id="a_edge29_Node000023_Node000008"><a xlink:title=" ">
<path fill="none" stroke="#63b8ff" d="M422.89,-175.99C480.18,-165.49 577.58,-147.62 639.13,-136.34"/>
<polygon fill="#63b8ff" stroke="#63b8ff" points="639.85,-139.76 649.06,-134.52 638.59,-132.88 639.85,-139.76"/>
</a>
</g>
</g>
<!-- Node23&#45;&gt;Node10 -->
<g id="edge35_Node000023_Node000010" class="edge">
<title>Node23&#45;&gt;Node10</title>
<g id="a_edge35_Node000023_Node000010"><a xlink:title=" ">
<path fill="none" stroke="#63b8ff" d="M389.41,-175.86C402.45,-167.05 423.11,-152.9 440.5,-140 457.79,-127.19 460.24,-121.38 478.5,-110 526.59,-80.04 539.9,-73.36 593.5,-55 651.5,-35.14 721.87,-22.15 763.26,-15.59"/>
<polygon fill="#63b8ff" stroke="#63b8ff" points="764.03,-19.01 773.38,-14.02 762.96,-12.1 764.03,-19.01"/>
</a>
</g>
</g>
<!-- Node23&#45;&gt;Node24 -->
<g id="edge30_Node000023_Node000024" class="edge">
<title>Node23&#45;&gt;Node24</title>
<g id="a_edge30_Node000023_Node000024"><a xlink:title=" ">
<path fill="none" stroke="#63b8ff" d="M401.07,-175.99C425.61,-167.5 464.03,-154.2 495.08,-143.45"/>
<polygon fill="#63b8ff" stroke="#63b8ff" points="496.56,-146.64 504.87,-140.06 494.28,-140.03 496.56,-146.64"/>
</a>
</g>
</g>
<!-- Node25 -->
<g id="Node000025" class="node">
<title>Node25</title>
<g id="a_Node000025"><a xlink:title=" ">
<polygon fill="#e0e0e0" stroke="#999999" points="303.5,-134.5 225.5,-134.5 225.5,-115.5 303.5,-115.5 303.5,-134.5"/>
<text text-anchor="middle" x="264.5" y="-122.5" font-family="Helvetica,sans-Serif" font-size="10.00">driver/gpio.h</text>
</a>
</g>
</g>
<!-- Node23&#45;&gt;Node25 -->
<g id="edge32_Node000023_Node000025" class="edge">
<title>Node23&#45;&gt;Node25</title>
<g id="a_edge32_Node000023_Node000025"><a xlink:title=" ">
<path fill="none" stroke="#63b8ff" d="M359.97,-175.87C341.53,-166.23 311.46,-150.53 289.99,-139.31"/>
<polygon fill="#63b8ff" stroke="#63b8ff" points="291.58,-136.19 281.09,-134.67 288.34,-142.4 291.58,-136.19"/>
</a>
</g>
</g>
<!-- Node26 -->
<g id="Node000026" class="node">
<title>Node26</title>
<g id="a_Node000026"><a xlink:title=" ">
<polygon fill="#e0e0e0" stroke="#999999" points="431.5,-134.5 321.5,-134.5 321.5,-115.5 431.5,-115.5 431.5,-134.5"/>
<text text-anchor="middle" x="376.5" y="-122.5" font-family="Helvetica,sans-Serif" font-size="10.00">driver/spi_master.h</text>
</a>
</g>
</g>
<!-- Node23&#45;&gt;Node26 -->
<g id="edge33_Node000023_Node000026" class="edge">
<title>Node23&#45;&gt;Node26</title>
<g id="a_edge33_Node000023_Node000026"><a xlink:title=" ">
<path fill="none" stroke="#63b8ff" d="M376.5,-175.87C376.5,-167.75 376.5,-155.31 376.5,-144.89"/>
<polygon fill="#63b8ff" stroke="#63b8ff" points="380,-144.67 376.5,-134.67 373,-144.67 380,-144.67"/>
</a>
</g>
</g>
<!-- Node27 -->
<g id="Node000027" class="node">
<title>Node27</title>
<g id="a_Node000027"><a xlink:title=" ">
<polygon fill="#e0e0e0" stroke="#999999" points="207.5,-134.5 157.5,-134.5 157.5,-115.5 207.5,-115.5 207.5,-134.5"/>
<text text-anchor="middle" x="182.5" y="-122.5" font-family="Helvetica,sans-Serif" font-size="10.00">cstring</text>
</a>
</g>
</g>
<!-- Node23&#45;&gt;Node27 -->
<g id="edge36_Node000023_Node000027" class="edge">
<title>Node23&#45;&gt;Node27</title>
<g id="a_edge36_Node000023_Node000027"><a xlink:title=" ">
<path fill="none" stroke="#63b8ff" d="M341.17,-175.97C308.5,-167.77 258.76,-154.52 216.5,-140 214.88,-139.44 213.23,-138.85 211.57,-138.23"/>
<polygon fill="#63b8ff" stroke="#63b8ff" points="212.71,-134.92 202.12,-134.55 210.17,-141.44 212.71,-134.92"/>
</a>
</g>
</g>
<!-- Node24&#45;&gt;Node10 -->
<g id="edge31_Node000024_Node000010" class="edge">
<title>Node24&#45;&gt;Node10</title>
<g id="a_edge31_Node000024_Node000010"><a xlink:title=" ">
<path fill="none" stroke="#63b8ff" d="M557.55,-109.9C571.75,-94.18 596.81,-69.12 623.5,-55 668.39,-31.25 726.55,-19.74 763.21,-14.49"/>
<polygon fill="#63b8ff" stroke="#63b8ff" points="763.96,-17.92 773.4,-13.11 763.02,-10.98 763.96,-17.92"/>
</a>
</g>
</g>
</g>
</svg>
