<?xml version="1.0" encoding="UTF-8" standalone="no"?>
<!DOCTYPE svg PUBLIC "-//W3C//DTD SVG 1.1//EN"
 "http://www.w3.org/Graphics/SVG/1.1/DTD/svg11.dtd">
<!-- Generated by graphviz version 2.43.0 (0)
 -->
<!-- Title: examples/esp32/main/driver_integration_test.cpp Pages: 1 -->
<svg width="2385pt" height="280pt"
 viewBox="0.00 0.00 2385.00 280.00" xmlns="http://www.w3.org/2000/svg" xmlns:xlink="http://www.w3.org/1999/xlink">
<g id="graph0" class="graph" transform="scale(1 1) rotate(0) translate(4 276)">
<title>examples/esp32/main/driver_integration_test.cpp</title>
<!-- Node1 -->
<g id="Node000001" class="node">
<title>Node1</title>
<g id="a_Node000001"><a xlink:title="Comprehensive Integration Test Suite for as5047u::AS5047U Driver.">
<polygon fill="#999999" stroke="#666666" points="1651.5,-272 1526.5,-272 1526.5,-231 1651.5,-231 1651.5,-272"/>
<text text-anchor="start" x="1534.5" y="-260" font-family="Helvetica,sans-Serif" font-size="10.00">examples/esp32/main</text>
<text text-anchor="start" x="1534.5" y="-249" font-family="Helvetica,sans-Serif" font-size="10.00">/driver_integration</text>
<text text-anchor="middle" x="1589" y="-238" font-family="Helvetica,sans-Serif" font-size="10.00">_test.cpp</text>
</a>
</g>
</g>
<!-- Node2 -->
<g id="Node000002" class="node">
<title>Node2</title>
<g id="a_Node000002"><a xlink:title=" ">
<polygon fill="#e0e0e0" stroke="#999999" points="1713.5,-134.5 1650.5,-134.5 1650.5,-115.5 1713.5,-115.5 1713.5,-134.5"/>
<text text-anchor="middle" x="1682" y="-122.5" font-family="Helvetica,sans-Serif" font-size="10.00">esp_log.h</text>
</a>
</g>
</g>
<!-- Node1&#45;&gt;Node2 -->
<g id="edge1_Node000001_Node000002" class="edge">
<title>Node1&#45;&gt;Node2</title>
<g id="a_edge1_Node000001_Node000002"><a xlink:title=" ">
<path fill="none" stroke="#63b8ff" d="M1636.2,-230.86C1651.41,-222.14 1666.71,-210.32 1676,-195 1685.14,-179.92 1685.78,-159.48 1684.65,-144.77"/>
<polygon fill="#63b8ff" stroke="#63b8ff" points="1688.13,-144.37 1683.56,-134.81 1681.17,-145.14 1688.13,-144.37"/>
</a>
</g>
</g>
<!-- Node3 -->
<g id="Node000003" class="node">
<title>Node3</title>
<g id="a_Node000003"><a xlink:title=" ">
<polygon fill="#e0e0e0" stroke="#999999" points="1301,-195 1217,-195 1217,-176 1301,-176 1301,-195"/>
<text text-anchor="middle" x="1259" y="-183" font-family="Helvetica,sans-Serif" font-size="10.00">esp_system.h</text>
</a>
</g>
</g>
<!-- Node1&#45;&gt;Node3 -->
<g id="edge2_Node000001_Node000003" class="edge">
<title>Node1&#45;&gt;Node3</title>
<g id="a_edge2_Node000001_Node000003"><a xlink:title=" ">
<path fill="none" stroke="#63b8ff" d="M1526.15,-238.31C1463.88,-226.23 1369.6,-207.95 1311.29,-196.64"/>
<polygon fill="#63b8ff" stroke="#63b8ff" points="1311.68,-193.15 1301.19,-194.68 1310.34,-200.02 1311.68,-193.15"/>
</a>
</g>
</g>
<!-- Node4 -->
<g id="Node000004" class="node">
<title>Node4</title>
<g id="a_Node000004"><a xlink:title=" ">
<polygon fill="#e0e0e0" stroke="#999999" points="1941.5,-134.5 1828.5,-134.5 1828.5,-115.5 1941.5,-115.5 1941.5,-134.5"/>
<text text-anchor="middle" x="1885" y="-122.5" font-family="Helvetica,sans-Serif" font-size="10.00">freertos/FreeRTOS.h</text>
</a>
</g>
</g>
<!-- Node1&#45;&gt;Node4 -->
<g id="edge3_Node000001_Node000004" class="edge">
<title>Node1&#45;&gt;Node4</title>
<g id="a_edge3_Node000001_Node000004"><a xlink:title=" ">
<path fill="none" stroke="#63b8ff" d="M1635.58,-230.91C1697.06,-205.05 1803.55,-160.26 1855.2,-138.54"/>
<polygon fill="#63b8ff" stroke="#63b8ff" points="1856.61,-141.74 1864.47,-134.63 1853.9,-135.29 1856.61,-141.74"/>
</a>
</g>
</g>
<!-- Node5 -->
<g id="Node000005" class="node">
<title>Node5</title>
<g id="a_Node000005"><a xlink:title=" ">
<polygon fill="#e0e0e0" stroke="#999999" points="2377,-134.5 2289,-134.5 2289,-115.5 2377,-115.5 2377,-134.5"/>
<text text-anchor="middle" x="2333" y="-122.5" font-family="Helvetica,sans-Serif" font-size="10.00">freertos/task.h</text>
</a>
</g>
</g>
<!-- Node1&#45;&gt;Node5 -->
<g id="edge4_Node000001_Node000005" class="edge">
<title>Node1&#45;&gt;Node5</title>
<g id="a_edge4_Node000001_Node000005"><a xlink:title=" ">
<path fill="none" stroke="#63b8ff" d="M1651.76,-243.37C1733.2,-233.83 1879.59,-215.69 2004,-195 2127.38,-174.48 2158.14,-168.21 2280,-140 2283.9,-139.1 2287.96,-138.11 2292.01,-137.1"/>
<polygon fill="#63b8ff" stroke="#63b8ff" points="2293.16,-140.41 2301.97,-134.54 2291.42,-133.63 2293.16,-140.41"/>
</a>
</g>
</g>
<!-- Node6 -->
<g id="Node000006" class="node">
<title>Node6</title>
<g id="a_Node000006"><a xlink:title=" ">
<polygon fill="#e0e0e0" stroke="#999999" points="1560.5,-195 1511.5,-195 1511.5,-176 1560.5,-176 1560.5,-195"/>
<text text-anchor="middle" x="1536" y="-183" font-family="Helvetica,sans-Serif" font-size="10.00">cstdlib</text>
</a>
</g>
</g>
<!-- Node1&#45;&gt;Node6 -->
<g id="edge5_Node000001_Node000006" class="edge">
<title>Node1&#45;&gt;Node6</title>
<g id="a_edge5_Node000001_Node000006"><a xlink:title=" ">
<path fill="none" stroke="#63b8ff" d="M1572.81,-230.95C1565.41,-222.02 1556.75,-211.55 1549.68,-203.02"/>
<polygon fill="#63b8ff" stroke="#63b8ff" points="1552.33,-200.73 1543.25,-195.26 1546.94,-205.19 1552.33,-200.73"/>
</a>
</g>
</g>
<!-- Node7 -->
<g id="Node000007" class="node">
<title>Node7</title>
<g id="a_Node000007"><a xlink:title=" ">
<polygon fill="#e0e0e0" stroke="#999999" points="1632,-134.5 1574,-134.5 1574,-115.5 1632,-115.5 1632,-134.5"/>
<text text-anchor="middle" x="1603" y="-122.5" font-family="Helvetica,sans-Serif" font-size="10.00">memory</text>
</a>
</g>
</g>
<!-- Node1&#45;&gt;Node7 -->
<g id="edge6_Node000001_Node000007" class="edge">
<title>Node1&#45;&gt;Node7</title>
<g id="a_edge6_Node000001_Node000007"><a xlink:title=" ">
<path fill="none" stroke="#63b8ff" d="M1591.22,-230.77C1593.87,-207.19 1598.27,-168.02 1600.88,-144.84"/>
<polygon fill="#63b8ff" stroke="#63b8ff" points="1604.39,-144.94 1602.03,-134.61 1597.44,-144.16 1604.39,-144.94"/>
</a>
</g>
</g>
<!-- Node8 -->
<g id="Node000008" class="node">
<title>Node8</title>
<g id="a_Node000008"><a xlink:title=" ">
<polygon fill="#e0e0e0" stroke="#999999" points="1667,-195 1617,-195 1617,-176 1667,-176 1667,-195"/>
<text text-anchor="middle" x="1642" y="-183" font-family="Helvetica,sans-Serif" font-size="10.00">stdio.h</text>
</a>
</g>
</g>
<!-- Node1&#45;&gt;Node8 -->
<g id="edge7_Node000001_Node000008" class="edge">
<title>Node1&#45;&gt;Node8</title>
<g id="a_edge7_Node000001_Node000008"><a xlink:title=" ">
<path fill="none" stroke="#63b8ff" d="M1605.19,-230.95C1612.59,-222.02 1621.25,-211.55 1628.32,-203.02"/>
<polygon fill="#63b8ff" stroke="#63b8ff" points="1631.06,-205.19 1634.75,-195.26 1625.67,-200.73 1631.06,-205.19"/>
</a>
</g>
</g>
<!-- Node9 -->
<g id="Node000009" class="node">
<title>Node9</title>
<g id="a_Node000009"><a xlink:href="as5047u_8hpp.html" target="_top" xlink:title="Driver for AMS AS5047U Magnetic Rotary Position Sensor (C++21)">
<polygon fill="white" stroke="#666666" points="593.5,-195 470.5,-195 470.5,-176 593.5,-176 593.5,-195"/>
<text text-anchor="middle" x="532" y="-183" font-family="Helvetica,sans-Serif" font-size="10.00">../../../inc/as5047u.hpp</text>
</a>
</g>
</g>
<!-- Node1&#45;&gt;Node9 -->
<g id="edge8_Node000001_Node000009" class="edge">
<title>Node1&#45;&gt;Node9</title>
<g id="a_edge8_Node000001_Node000009"><a xlink:title=" ">
<path fill="none" stroke="#63b8ff" d="M1526.44,-246.71C1341.81,-235.53 799.99,-202.73 603.89,-190.85"/>
<polygon fill="#63b8ff" stroke="#63b8ff" points="603.89,-187.35 593.7,-190.24 603.47,-194.33 603.89,-187.35"/>
</a>
</g>
</g>
<!-- Node27 -->
<g id="Node000027" class="node">
<title>Node27</title>
<g id="a_Node000027"><a xlink:href="esp32__as5047u__bus_8hpp.html" target="_top" xlink:title="ESP32 SPI transport implementation for AS5047U driver (header&#45;only)">
<polygon fill="white" stroke="#666666" points="1493,-195 1357,-195 1357,-176 1493,-176 1493,-195"/>
<text text-anchor="middle" x="1425" y="-183" font-family="Helvetica,sans-Serif" font-size="10.00">esp32_as5047u_bus.hpp</text>
</a>
</g>
</g>
<!-- Node1&#45;&gt;Node27 -->
<g id="edge32_Node000001_Node000027" class="edge">
<title>Node1&#45;&gt;Node27</title>
<g id="a_edge32_Node000001_Node000027"><a xlink:title=" ">
<path fill="none" stroke="#63b8ff" d="M1538.9,-230.95C1512.03,-220.46 1479.75,-207.87 1456.42,-198.76"/>
<polygon fill="#63b8ff" stroke="#63b8ff" points="1457.6,-195.47 1447.02,-195.09 1455.06,-201.99 1457.6,-195.47"/>
</a>
</g>
</g>
<!-- Node28 -->
<g id="Node000028" class="node">
<title>Node28</title>
<g id="a_Node000028"><a xlink:href="esp32__as5047u__test__config_8hpp.html" target="_top" xlink:title="Hardware configuration for AS5047U driver on ESP32&#45;C6.">
<polygon fill="white" stroke="#666666" points="1322,-140 1206,-140 1206,-110 1322,-110 1322,-140"/>
<text text-anchor="start" x="1214" y="-128" font-family="Helvetica,sans-Serif" font-size="10.00">esp32_as5047u_test</text>
<text text-anchor="middle" x="1264" y="-117" font-family="Helvetica,sans-Serif" font-size="10.00">_config.hpp</text>
</a>
</g>
</g>
<!-- Node1&#45;&gt;Node28 -->
<g id="edge43_Node000001_Node000028" class="edge">
<title>Node1&#45;&gt;Node28</title>
<g id="a_edge43_Node000001_Node000028"><a xlink:title=" ">
<path fill="none" stroke="#63b8ff" d="M1526.45,-244.1C1476.18,-237.11 1404.83,-222.95 1348,-195 1323.69,-183.05 1300.24,-162.81 1284.32,-147.34"/>
<polygon fill="#63b8ff" stroke="#63b8ff" points="1286.7,-144.76 1277.14,-140.18 1281.75,-149.72 1286.7,-144.76"/>
</a>
</g>
</g>
<!-- Node32 -->
<g id="Node000032" class="node">
<title>Node32</title>
<g id="a_Node000032"><a xlink:href="TestFramework_8h.html" target="_top" xlink:title="Shared testing framework for ESP32&#45;C6 comprehensive test suites.">
<polygon fill="white" stroke="#666666" points="1995,-195 1895,-195 1895,-176 1995,-176 1995,-195"/>
<text text-anchor="middle" x="1945" y="-183" font-family="Helvetica,sans-Serif" font-size="10.00">TestFramework.h</text>
</a>
</g>
</g>
<!-- Node1&#45;&gt;Node32 -->
<g id="edge44_Node000001_Node000032" class="edge">
<title>Node1&#45;&gt;Node32</title>
<g id="a_edge44_Node000001_Node000032"><a xlink:title=" ">
<path fill="none" stroke="#63b8ff" d="M1651.83,-239.21C1718.52,-227.22 1823.02,-208.43 1887.58,-196.82"/>
<polygon fill="#63b8ff" stroke="#63b8ff" points="1888.37,-200.24 1897.59,-195.02 1887.13,-193.35 1888.37,-200.24"/>
</a>
</g>
</g>
<!-- Node10 -->
<g id="Node000010" class="node">
<title>Node10</title>
<g id="a_Node000010"><a xlink:href="as5047u__spi__interface_8hpp.html" target="_top" xlink:title="CRTP&#45;based SPI bus interface for AS5047U driver.">
<polygon fill="white" stroke="#666666" points="1187.5,-134.5 1040.5,-134.5 1040.5,-115.5 1187.5,-115.5 1187.5,-134.5"/>
<text text-anchor="middle" x="1114" y="-122.5" font-family="Helvetica,sans-Serif" font-size="10.00">as5047u_spi_interface.hpp</text>
</a>
</g>
</g>
<!-- Node9&#45;&gt;Node10 -->
<g id="edge9_Node000009_Node000010" class="edge">
<title>Node9&#45;&gt;Node10</title>
<g id="a_edge9_Node000009_Node000010"><a xlink:title=" ">
<path fill="none" stroke="#63b8ff" d="M593.62,-180.56C688.02,-174.18 874,-160.21 1031,-140 1039.44,-138.91 1048.33,-137.6 1057.04,-136.21"/>
<polygon fill="#63b8ff" stroke="#63b8ff" points="1057.82,-139.63 1067.13,-134.56 1056.69,-132.72 1057.82,-139.63"/>
</a>
</g>
</g>
<!-- Node12 -->
<g id="Node000012" class="node">
<title>Node12</title>
<g id="a_Node000012"><a xlink:title=" ">
<polygon fill="#e0e0e0" stroke="#999999" points="972,-19 922,-19 922,0 972,0 972,-19"/>
<text text-anchor="middle" x="947" y="-7" font-family="Helvetica,sans-Serif" font-size="10.00">cstdint</text>
</a>
</g>
</g>
<!-- Node9&#45;&gt;Node12 -->
<g id="edge20_Node000009_Node000012" class="edge">
<title>Node9&#45;&gt;Node12</title>
<g id="a_edge20_Node000009_Node000012"><a xlink:title=" ">
<path fill="none" stroke="#63b8ff" d="M526.71,-175.92C513.36,-153.04 481.48,-89.92 513,-55 539.57,-25.57 812.97,-14.51 911.69,-11.46"/>
<polygon fill="#63b8ff" stroke="#63b8ff" points="911.88,-14.96 921.77,-11.16 911.67,-7.96 911.88,-14.96"/>
</a>
</g>
</g>
<!-- Node13 -->
<g id="Node000013" class="node">
<title>Node13</title>
<g id="a_Node000013"><a xlink:href="as5047u__registers_8hpp.html" target="_top" xlink:title="Register definitions for the AS5047U Rotary Position Sensor.">
<polygon fill="white" stroke="#666666" points="649.5,-74 522.5,-74 522.5,-55 649.5,-55 649.5,-74"/>
<text text-anchor="middle" x="586" y="-62" font-family="Helvetica,sans-Serif" font-size="10.00">as5047u_registers.hpp</text>
</a>
</g>
</g>
<!-- Node9&#45;&gt;Node13 -->
<g id="edge12_Node000009_Node000013" class="edge">
<title>Node9&#45;&gt;Node13</title>
<g id="a_edge12_Node000009_Node000013"><a xlink:title=" ">
<path fill="none" stroke="#63b8ff" d="M533.02,-175.83C534.97,-161.51 540.02,-132.27 551,-110 556.03,-99.79 563.67,-89.72 570.53,-81.74"/>
<polygon fill="#63b8ff" stroke="#63b8ff" points="573.17,-84.04 577.25,-74.27 567.96,-79.36 573.17,-84.04"/>
</a>
</g>
</g>
<!-- Node14 -->
<g id="Node000014" class="node">
<title>Node14</title>
<g id="a_Node000014"><a xlink:title=" ">
<polygon fill="#e0e0e0" stroke="#999999" points="788,-134.5 680,-134.5 680,-115.5 788,-115.5 788,-134.5"/>
<text text-anchor="middle" x="734" y="-122.5" font-family="Helvetica,sans-Serif" font-size="10.00">as5047u_version.h</text>
</a>
</g>
</g>
<!-- Node9&#45;&gt;Node14 -->
<g id="edge14_Node000009_Node000014" class="edge">
<title>Node9&#45;&gt;Node14</title>
<g id="a_edge14_Node000009_Node000014"><a xlink:title=" ">
<path fill="none" stroke="#63b8ff" d="M561.37,-175.99C596.6,-165.79 655.79,-148.65 694.87,-137.33"/>
<polygon fill="#63b8ff" stroke="#63b8ff" points="695.96,-140.66 704.59,-134.52 694.01,-133.94 695.96,-140.66"/>
</a>
</g>
</g>
<!-- Node15 -->
<g id="Node000015" class="node">
<title>Node15</title>
<g id="a_Node000015"><a xlink:title=" ">
<polygon fill="#e0e0e0" stroke="#999999" points="64,-134.5 0,-134.5 0,-115.5 64,-115.5 64,-134.5"/>
<text text-anchor="middle" x="32" y="-122.5" font-family="Helvetica,sans-Serif" font-size="10.00">algorithm</text>
</a>
</g>
</g>
<!-- Node9&#45;&gt;Node15 -->
<g id="edge15_Node000009_Node000015" class="edge">
<title>Node9&#45;&gt;Node15</title>
<g id="a_edge15_Node000009_Node000015"><a xlink:title=" ">
<path fill="none" stroke="#63b8ff" d="M470.42,-183.06C381.67,-179.97 213.08,-170.27 73,-140 69.94,-139.34 66.79,-138.52 63.66,-137.62"/>
<polygon fill="#63b8ff" stroke="#63b8ff" points="64.45,-134.2 53.86,-134.51 62.34,-140.87 64.45,-134.2"/>
</a>
</g>
</g>
<!-- Node16 -->
<g id="Node000016" class="node">
<title>Node16</title>
<g id="a_Node000016"><a xlink:title=" ">
<polygon fill="#e0e0e0" stroke="#999999" points="124,-134.5 82,-134.5 82,-115.5 124,-115.5 124,-134.5"/>
<text text-anchor="middle" x="103" y="-122.5" font-family="Helvetica,sans-Serif" font-size="10.00">array</text>
</a>
</g>
</g>
<!-- Node9&#45;&gt;Node16 -->
<g id="edge16_Node000009_Node000016" class="edge">
<title>Node9&#45;&gt;Node16</title>
<g id="a_edge16_Node000009_Node000016"><a xlink:title=" ">
<path fill="none" stroke="#63b8ff" d="M470.32,-183.79C390.9,-181.49 249.26,-172.66 133,-140 131.36,-139.54 129.71,-139 128.05,-138.4"/>
<polygon fill="#63b8ff" stroke="#63b8ff" points="129.4,-135.17 118.82,-134.55 126.7,-141.63 129.4,-135.17"/>
</a>
</g>
</g>
<!-- Node17 -->
<g id="Node000017" class="node">
<title>Node17</title>
<g id="a_Node000017"><a xlink:title=" ">
<polygon fill="#e0e0e0" stroke="#999999" points="192,-134.5 142,-134.5 142,-115.5 192,-115.5 192,-134.5"/>
<text text-anchor="middle" x="167" y="-122.5" font-family="Helvetica,sans-Serif" font-size="10.00">atomic</text>
</a>
</g>
</g>
<!-- Node9&#45;&gt;Node17 -->
<g id="edge17_Node000009_Node000017" class="edge">
<title>Node9&#45;&gt;Node17</title>
<g id="a_edge17_Node000009_Node000017"><a xlink:title=" ">
<path fill="none" stroke="#63b8ff" d="M470.37,-180.96C403.19,-176.01 292.98,-164.68 201,-140 199.06,-139.48 197.08,-138.87 195.1,-138.21"/>
<polygon fill="#63b8ff" stroke="#63b8ff" points="196,-134.81 185.41,-134.59 193.55,-141.37 196,-134.81"/>
</a>
</g>
</g>
<!-- Node18 -->
<g id="Node000018" class="node">
<title>Node18</title>
<g id="a_Node000018"><a xlink:title=" ">
<polygon fill="#e0e0e0" stroke="#999999" points="254,-134.5 210,-134.5 210,-115.5 254,-115.5 254,-134.5"/>
<text text-anchor="middle" x="232" y="-122.5" font-family="Helvetica,sans-Serif" font-size="10.00">bitset</text>
</a>
</g>
</g>
<!-- Node9&#45;&gt;Node18 -->
<g id="edge18_Node000009_Node000018" class="edge">
<title>Node9&#45;&gt;Node18</title>
<g id="a_edge18_Node000009_Node000018"><a xlink:title=" ">
<path fill="none" stroke="#63b8ff" d="M470.34,-178.91C415.13,-172.83 332.43,-161.03 263,-140 261.37,-139.51 259.71,-138.94 258.05,-138.34"/>
<polygon fill="#63b8ff" stroke="#63b8ff" points="259.33,-135.08 248.75,-134.52 256.67,-141.55 259.33,-135.08"/>
</a>
</g>
</g>
<!-- Node19 -->
<g id="Node000019" class="node">
<title>Node19</title>
<g id="a_Node000019"><a xlink:title=" ">
<polygon fill="#e0e0e0" stroke="#999999" points="319.5,-134.5 272.5,-134.5 272.5,-115.5 319.5,-115.5 319.5,-134.5"/>
<text text-anchor="middle" x="296" y="-122.5" font-family="Helvetica,sans-Serif" font-size="10.00">cmath</text>
</a>
</g>
</g>
<!-- Node9&#45;&gt;Node19 -->
<g id="edge19_Node000009_Node000019" class="edge">
<title>Node9&#45;&gt;Node19</title>
<g id="a_edge19_Node000009_Node000019"><a xlink:title=" ">
<path fill="none" stroke="#63b8ff" d="M479.26,-175.96C437.62,-168.5 378.34,-156.33 328,-140 326.56,-139.53 325.09,-139.02 323.62,-138.48"/>
<polygon fill="#63b8ff" stroke="#63b8ff" points="324.62,-135.11 314.03,-134.63 322.01,-141.61 324.62,-135.11"/>
</a>
</g>
</g>
<!-- Node20 -->
<g id="Node000020" class="node">
<title>Node20</title>
<g id="a_Node000020"><a xlink:title=" ">
<polygon fill="#e0e0e0" stroke="#999999" points="1022,-134.5 976,-134.5 976,-115.5 1022,-115.5 1022,-134.5"/>
<text text-anchor="middle" x="999" y="-122.5" font-family="Helvetica,sans-Serif" font-size="10.00">cstdio</text>
</a>
</g>
</g>
<!-- Node9&#45;&gt;Node20 -->
<g id="edge21_Node000009_Node000020" class="edge">
<title>Node9&#45;&gt;Node20</title>
<g id="a_edge21_Node000009_Node000020"><a xlink:title=" ">
<path fill="none" stroke="#63b8ff" d="M593.71,-183.11C677.98,-180.08 833.28,-170.47 962,-140 964.51,-139.4 967.09,-138.68 969.65,-137.88"/>
<polygon fill="#63b8ff" stroke="#63b8ff" points="971.03,-141.11 979.33,-134.52 968.73,-134.5 971.03,-141.11"/>
</a>
</g>
</g>
<!-- Node21 -->
<g id="Node000021" class="node">
<title>Node21</title>
<g id="a_Node000021"><a xlink:title=" ">
<polygon fill="#e0e0e0" stroke="#999999" points="402.5,-134.5 337.5,-134.5 337.5,-115.5 402.5,-115.5 402.5,-134.5"/>
<text text-anchor="middle" x="370" y="-122.5" font-family="Helvetica,sans-Serif" font-size="10.00">functional</text>
</a>
</g>
</g>
<!-- Node9&#45;&gt;Node21 -->
<g id="edge22_Node000009_Node000021" class="edge">
<title>Node9&#45;&gt;Node21</title>
<g id="a_edge22_Node000009_Node000021"><a xlink:title=" ">
<path fill="none" stroke="#63b8ff" d="M508.44,-175.99C480.73,-165.99 434.53,-149.3 403.19,-137.99"/>
<polygon fill="#63b8ff" stroke="#63b8ff" points="404.18,-134.62 393.58,-134.52 401.8,-141.21 404.18,-134.62"/>
</a>
</g>
</g>
<!-- Node22 -->
<g id="Node000022" class="node">
<title>Node22</title>
<g id="a_Node000022"><a xlink:title=" ">
<polygon fill="#e0e0e0" stroke="#999999" points="465.5,-134.5 420.5,-134.5 420.5,-115.5 465.5,-115.5 465.5,-134.5"/>
<text text-anchor="middle" x="443" y="-122.5" font-family="Helvetica,sans-Serif" font-size="10.00">utility</text>
</a>
</g>
</g>
<!-- Node9&#45;&gt;Node22 -->
<g id="edge23_Node000009_Node000022" class="edge">
<title>Node9&#45;&gt;Node22</title>
<g id="a_edge23_Node000009_Node000022"><a xlink:title=" ">
<path fill="none" stroke="#63b8ff" d="M518.87,-175.87C504.67,-166.54 481.8,-151.51 464.88,-140.38"/>
<polygon fill="#63b8ff" stroke="#63b8ff" points="466.47,-137.24 456.19,-134.67 462.62,-143.08 466.47,-137.24"/>
</a>
</g>
</g>
<!-- Node23 -->
<g id="Node000023" class="node">
<title>Node23</title>
<g id="a_Node000023"><a xlink:href="as5047u__types_8hpp.html" target="_top" xlink:title="Type definitions for the AS5047U driver.">
<polygon fill="white" stroke="#666666" points="1002.5,-74 891.5,-74 891.5,-55 1002.5,-55 1002.5,-74"/>
<text text-anchor="middle" x="947" y="-62" font-family="Helvetica,sans-Serif" font-size="10.00">as5047u_types.hpp</text>
</a>
</g>
</g>
<!-- Node9&#45;&gt;Node23 -->
<g id="edge24_Node000009_Node000023" class="edge">
<title>Node9&#45;&gt;Node23</title>
<g id="a_edge24_Node000009_Node000023"><a xlink:title=" ">
<path fill="none" stroke="#63b8ff" d="M593.69,-181.39C698.71,-175.53 903.32,-161.5 928,-140 943.77,-126.27 947.35,-101.44 947.76,-84.24"/>
<polygon fill="#63b8ff" stroke="#63b8ff" points="951.26,-84.2 947.67,-74.23 944.26,-84.26 951.26,-84.2"/>
</a>
</g>
</g>
<!-- Node24 -->
<g id="Node000024" class="node">
<title>Node24</title>
<g id="a_Node000024"><a xlink:href="as5047u__config_8hpp.html" target="_top" xlink:title="Compile&#45;time configuration options for the AS5047U driver.">
<polygon fill="white" stroke="#666666" points="919.5,-134.5 806.5,-134.5 806.5,-115.5 919.5,-115.5 919.5,-134.5"/>
<text text-anchor="middle" x="863" y="-122.5" font-family="Helvetica,sans-Serif" font-size="10.00">as5047u_config.hpp</text>
</a>
</g>
</g>
<!-- Node9&#45;&gt;Node24 -->
<g id="edge26_Node000009_Node000024" class="edge">
<title>Node9&#45;&gt;Node24</title>
<g id="a_edge26_Node000009_Node000024"><a xlink:title=" ">
<path fill="none" stroke="#63b8ff" d="M586.94,-175.98C640.61,-167.48 724.59,-153.75 797,-140 802.47,-138.96 808.18,-137.83 813.85,-136.67"/>
<polygon fill="#63b8ff" stroke="#63b8ff" points="814.89,-140.03 823.97,-134.57 813.47,-133.17 814.89,-140.03"/>
</a>
</g>
</g>
<!-- Node25 -->
<g id="Node000025" class="node">
<title>Node25</title>
<g id="a_Node000025"><a xlink:href="as5047u_8ipp.html" target="_top" xlink:title="Template implementation of AS5047U driver methods.">
<polygon fill="white" stroke="#666666" points="662,-134.5 560,-134.5 560,-115.5 662,-115.5 662,-134.5"/>
<text text-anchor="middle" x="611" y="-122.5" font-family="Helvetica,sans-Serif" font-size="10.00">../src/as5047u.ipp</text>
</a>
</g>
</g>
<!-- Node9&#45;&gt;Node25 -->
<g id="edge29_Node000009_Node000025" class="edge">
<title>Node9&#45;&gt;Node25</title>
<g id="a_edge29_Node000009_Node000025"><a xlink:title=" ">
<path fill="none" stroke="#63b8ff" d="M538.7,-175.87C549.29,-166.54 569.27,-151.51 585.67,-140.38"/>
<polygon fill="#63b8ff" stroke="#63b8ff" points="587.91,-143.1 594.33,-134.67 584.06,-137.25 587.91,-143.1"/>
</a>
</g>
</g>
<!-- Node11 -->
<g id="Node000011" class="node">
<title>Node11</title>
<g id="a_Node000011"><a xlink:title=" ">
<polygon fill="#e0e0e0" stroke="#999999" points="1140.5,-74 1087.5,-74 1087.5,-55 1140.5,-55 1140.5,-74"/>
<text text-anchor="middle" x="1114" y="-62" font-family="Helvetica,sans-Serif" font-size="10.00">cstddef</text>
</a>
</g>
</g>
<!-- Node10&#45;&gt;Node11 -->
<g id="edge10_Node000010_Node000011" class="edge">
<title>Node10&#45;&gt;Node11</title>
<g id="a_edge10_Node000010_Node000011"><a xlink:title=" ">
<path fill="none" stroke="#63b8ff" d="M1114,-115.37C1114,-107.25 1114,-94.81 1114,-84.39"/>
<polygon fill="#63b8ff" stroke="#63b8ff" points="1117.5,-84.17 1114,-74.17 1110.5,-84.17 1117.5,-84.17"/>
</a>
</g>
</g>
<!-- Node10&#45;&gt;Node12 -->
<g id="edge11_Node000010_Node000012" class="edge">
<title>Node10&#45;&gt;Node12</title>
<g id="a_edge11_Node000010_Node000012"><a xlink:title=" ">
<path fill="none" stroke="#63b8ff" d="M1101.45,-115.47C1073.04,-96.16 1003.55,-48.93 968.28,-24.96"/>
<polygon fill="#63b8ff" stroke="#63b8ff" points="969.94,-21.86 959.7,-19.13 966,-27.65 969.94,-21.86"/>
</a>
</g>
</g>
<!-- Node13&#45;&gt;Node12 -->
<g id="edge13_Node000013_Node000012" class="edge">
<title>Node13&#45;&gt;Node12</title>
<g id="a_edge13_Node000013_Node000012"><a xlink:title=" ">
<path fill="none" stroke="#63b8ff" d="M644,-54.98C719.55,-43.89 849.32,-24.84 911.61,-15.7"/>
<polygon fill="#63b8ff" stroke="#63b8ff" points="912.34,-19.13 921.72,-14.21 911.32,-12.2 912.34,-19.13"/>
</a>
</g>
</g>
<!-- Node23&#45;&gt;Node12 -->
<g id="edge25_Node000023_Node000012" class="edge">
<title>Node23&#45;&gt;Node12</title>
<g id="a_edge25_Node000023_Node000012"><a xlink:title=" ">
<path fill="none" stroke="#63b8ff" d="M947,-54.75C947,-47.8 947,-37.85 947,-29.13"/>
<polygon fill="#63b8ff" stroke="#63b8ff" points="950.5,-29.09 947,-19.09 943.5,-29.09 950.5,-29.09"/>
</a>
</g>
</g>
<!-- Node24&#45;&gt;Node12 -->
<g id="edge27_Node000024_Node000012" class="edge">
<title>Node24&#45;&gt;Node12</title>
<g id="a_edge27_Node000024_Node000012"><a xlink:title=" ">
<path fill="none" stroke="#63b8ff" d="M863.51,-115.11C864.72,-101.11 868.72,-73.61 882,-55 891.33,-41.92 905.79,-31.47 918.7,-24"/>
<polygon fill="#63b8ff" stroke="#63b8ff" points="920.62,-26.94 927.73,-19.08 917.28,-20.79 920.62,-26.94"/>
</a>
</g>
</g>
<!-- Node24&#45;&gt;Node23 -->
<g id="edge28_Node000024_Node000023" class="edge">
<title>Node24&#45;&gt;Node23</title>
<g id="a_edge28_Node000024_Node000023"><a xlink:title=" ">
<path fill="none" stroke="#63b8ff" d="M875.39,-115.37C888.79,-106.04 910.38,-91.01 926.35,-79.88"/>
<polygon fill="#63b8ff" stroke="#63b8ff" points="928.35,-82.75 934.55,-74.17 924.35,-77.01 928.35,-82.75"/>
</a>
</g>
</g>
<!-- Node25&#45;&gt;Node9 -->
<g id="edge30_Node000025_Node000009" class="edge">
<title>Node25&#45;&gt;Node9</title>
<g id="a_edge30_Node000025_Node000009"><a xlink:title=" ">
<path fill="none" stroke="#63b8ff" d="M604.26,-134.67C593.65,-144.01 573.66,-159.05 557.27,-170.16"/>
<polygon fill="#63b8ff" stroke="#63b8ff" points="555.03,-167.44 548.61,-175.87 558.89,-173.28 555.03,-167.44"/>
</a>
</g>
</g>
<!-- Node26 -->
<g id="Node000026" class="node">
<title>Node26</title>
<g id="a_Node000026"><a xlink:title=" ">
<polygon fill="#e0e0e0" stroke="#999999" points="724,-74 668,-74 668,-55 724,-55 724,-74"/>
<text text-anchor="middle" x="696" y="-62" font-family="Helvetica,sans-Serif" font-size="10.00">iomanip</text>
</a>
</g>
</g>
<!-- Node25&#45;&gt;Node26 -->
<g id="edge31_Node000025_Node000026" class="edge">
<title>Node25&#45;&gt;Node26</title>
<g id="a_edge31_Node000025_Node000026"><a xlink:title=" ">
<path fill="none" stroke="#63b8ff" d="M623.54,-115.37C637.1,-106.04 658.94,-91.01 675.1,-79.88"/>
<polygon fill="#63b8ff" stroke="#63b8ff" points="677.15,-82.72 683.41,-74.17 673.18,-76.95 677.15,-82.72"/>
</a>
</g>
</g>
<!-- Node27&#45;&gt;Node2 -->
<g id="edge38_Node000027_Node000002" class="edge">
<title>Node27&#45;&gt;Node2</title>
<g id="a_edge38_Node000027_Node000002"><a xlink:title=" ">
<path fill="none" stroke="#63b8ff" d="M1475.62,-175.93C1519.66,-168.04 1585.04,-155.25 1641,-140 1643.63,-139.28 1646.34,-138.49 1649.05,-137.65"/>
<polygon fill="#63b8ff" stroke="#63b8ff" points="1650.31,-140.92 1658.74,-134.51 1648.15,-134.26 1650.31,-140.92"/>
</a>
</g>
</g>
<!-- Node27&#45;&gt;Node7 -->
<g id="edge42_Node000027_Node000007" class="edge">
<title>Node27&#45;&gt;Node7</title>
<g id="a_edge42_Node000027_Node000007"><a xlink:title=" ">
<path fill="none" stroke="#63b8ff" d="M1453.28,-175.92C1481.64,-167.22 1526.52,-153.2 1565,-140 1566.85,-139.37 1568.74,-138.71 1570.64,-138.03"/>
<polygon fill="#63b8ff" stroke="#63b8ff" points="1571.93,-141.29 1580.15,-134.61 1569.56,-134.7 1571.93,-141.29"/>
</a>
</g>
</g>
<!-- Node27&#45;&gt;Node10 -->
<g id="edge33_Node000027_Node000010" class="edge">
<title>Node27&#45;&gt;Node10</title>
<g id="a_edge33_Node000027_Node000010"><a xlink:title=" ">
<path fill="none" stroke="#63b8ff" d="M1379.78,-175.99C1324.04,-165.51 1229.35,-147.7 1169.33,-136.41"/>
<polygon fill="#63b8ff" stroke="#63b8ff" points="1169.75,-132.93 1159.28,-134.52 1168.46,-139.81 1169.75,-132.93"/>
</a>
</g>
</g>
<!-- Node27&#45;&gt;Node12 -->
<g id="edge39_Node000027_Node000012" class="edge">
<title>Node27&#45;&gt;Node12</title>
<g id="a_edge39_Node000027_Node000012"><a xlink:title=" ">
<path fill="none" stroke="#63b8ff" d="M1414.01,-175.75C1389.44,-156.2 1332.14,-110.64 1331,-110 1214.21,-44.38 1053.21,-21.04 982.6,-13.61"/>
<polygon fill="#63b8ff" stroke="#63b8ff" points="982.76,-10.1 972.46,-12.58 982.06,-17.07 982.76,-10.1"/>
</a>
</g>
</g>
<!-- Node27&#45;&gt;Node20 -->
<g id="edge40_Node000027_Node000020" class="edge">
<title>Node27&#45;&gt;Node20</title>
<g id="a_edge40_Node000027_Node000020"><a xlink:title=" ">
<path fill="none" stroke="#63b8ff" d="M1356.86,-179.28C1260.84,-171.5 1090.75,-156.05 1031,-140 1029.11,-139.49 1027.19,-138.89 1025.28,-138.23"/>
<polygon fill="#63b8ff" stroke="#63b8ff" points="1026.52,-134.95 1015.93,-134.53 1023.94,-141.46 1026.52,-134.95"/>
</a>
</g>
</g>
<!-- Node27&#45;&gt;Node28 -->
<g id="edge34_Node000027_Node000028" class="edge">
<title>Node27&#45;&gt;Node28</title>
<g id="a_edge34_Node000027_Node000028"><a xlink:title=" ">
<path fill="none" stroke="#63b8ff" d="M1401.59,-175.99C1378.32,-167.54 1341.93,-154.32 1312.42,-143.59"/>
<polygon fill="#63b8ff" stroke="#63b8ff" points="1313.3,-140.19 1302.71,-140.06 1310.91,-146.77 1313.3,-140.19"/>
</a>
</g>
</g>
<!-- Node29 -->
<g id="Node000029" class="node">
<title>Node29</title>
<g id="a_Node000029"><a xlink:title=" ">
<polygon fill="#e0e0e0" stroke="#999999" points="1810,-134.5 1732,-134.5 1732,-115.5 1810,-115.5 1810,-134.5"/>
<text text-anchor="middle" x="1771" y="-122.5" font-family="Helvetica,sans-Serif" font-size="10.00">driver/gpio.h</text>
</a>
</g>
</g>
<!-- Node27&#45;&gt;Node29 -->
<g id="edge36_Node000027_Node000029" class="edge">
<title>Node27&#45;&gt;Node29</title>
<g id="a_edge36_Node000027_Node000029"><a xlink:title=" ">
<path fill="none" stroke="#63b8ff" d="M1493.28,-176.82C1553.77,-169.41 1644.29,-156.85 1722,-140 1725.83,-139.17 1729.8,-138.21 1733.75,-137.18"/>
<polygon fill="#63b8ff" stroke="#63b8ff" points="1734.7,-140.55 1743.43,-134.55 1732.86,-133.8 1734.7,-140.55"/>
</a>
</g>
</g>
<!-- Node30 -->
<g id="Node000030" class="node">
<title>Node30</title>
<g id="a_Node000030"><a xlink:title=" ">
<polygon fill="#e0e0e0" stroke="#999999" points="1556,-134.5 1446,-134.5 1446,-115.5 1556,-115.5 1556,-134.5"/>
<text text-anchor="middle" x="1501" y="-122.5" font-family="Helvetica,sans-Serif" font-size="10.00">driver/spi_master.h</text>
</a>
</g>
</g>
<!-- Node27&#45;&gt;Node30 -->
<g id="edge37_Node000027_Node000030" class="edge">
<title>Node27&#45;&gt;Node30</title>
<g id="a_edge37_Node000027_Node000030"><a xlink:title=" ">
<path fill="none" stroke="#63b8ff" d="M1436.21,-175.87C1448.11,-166.71 1467.14,-152.06 1481.51,-141.01"/>
<polygon fill="#63b8ff" stroke="#63b8ff" points="1483.95,-143.54 1489.74,-134.67 1479.68,-137.99 1483.95,-143.54"/>
</a>
</g>
</g>
<!-- Node31 -->
<g id="Node000031" class="node">
<title>Node31</title>
<g id="a_Node000031"><a xlink:title=" ">
<polygon fill="#e0e0e0" stroke="#999999" points="1428,-134.5 1378,-134.5 1378,-115.5 1428,-115.5 1428,-134.5"/>
<text text-anchor="middle" x="1403" y="-122.5" font-family="Helvetica,sans-Serif" font-size="10.00">cstring</text>
</a>
</g>
</g>
<!-- Node27&#45;&gt;Node31 -->
<g id="edge41_Node000027_Node000031" class="edge">
<title>Node27&#45;&gt;Node31</title>
<g id="a_edge41_Node000027_Node000031"><a xlink:title=" ">
<path fill="none" stroke="#63b8ff" d="M1421.75,-175.87C1418.63,-167.57 1413.82,-154.78 1409.85,-144.22"/>
<polygon fill="#63b8ff" stroke="#63b8ff" points="1413.06,-142.8 1406.26,-134.67 1406.5,-145.26 1413.06,-142.8"/>
</a>
</g>
</g>
<!-- Node28&#45;&gt;Node12 -->
<g id="edge35_Node000028_Node000012" class="edge">
<title>Node28&#45;&gt;Node12</title>
<g id="a_edge35_Node000028_Node000012"><a xlink:title=" ">
<path fill="none" stroke="#63b8ff" d="M1245.07,-109.99C1223.06,-94.36 1185.13,-69.37 1149,-55 1092.83,-32.65 1023.18,-20.45 982.07,-14.72"/>
<polygon fill="#63b8ff" stroke="#63b8ff" points="982.39,-11.23 972.01,-13.37 981.46,-18.17 982.39,-11.23"/>
</a>
</g>
</g>
<!-- Node32&#45;&gt;Node2 -->
<g id="edge45_Node000032_Node000002" class="edge">
<title>Node32&#45;&gt;Node2</title>
<g id="a_edge45_Node000032_Node000002"><a xlink:title=" ">
<path fill="none" stroke="#63b8ff" d="M1894.75,-176.37C1849.47,-168.58 1781.26,-155.71 1723,-140 1720.37,-139.29 1717.66,-138.5 1714.95,-137.67"/>
<polygon fill="#63b8ff" stroke="#63b8ff" points="1715.84,-134.28 1705.25,-134.53 1713.69,-140.94 1715.84,-134.28"/>
</a>
</g>
</g>
<!-- Node32&#45;&gt;Node4 -->
<g id="edge48_Node000032_Node000004" class="edge">
<title>Node32&#45;&gt;Node4</title>
<g id="a_edge48_Node000032_Node000004"><a xlink:title=" ">
<path fill="none" stroke="#63b8ff" d="M1936.15,-175.87C1927.02,-166.97 1912.58,-152.89 1901.36,-141.95"/>
<polygon fill="#63b8ff" stroke="#63b8ff" points="1903.49,-139.14 1893.89,-134.67 1898.61,-144.15 1903.49,-139.14"/>
</a>
</g>
</g>
<!-- Node32&#45;&gt;Node5 -->
<g id="edge51_Node000032_Node000005" class="edge">
<title>Node32&#45;&gt;Node5</title>
<g id="a_edge51_Node000032_Node000005"><a xlink:title=" ">
<path fill="none" stroke="#63b8ff" d="M1995.27,-179.82C2061.08,-173.24 2179.85,-159.8 2280,-140 2284.43,-139.13 2289.03,-138.09 2293.59,-136.99"/>
<polygon fill="#63b8ff" stroke="#63b8ff" points="2294.6,-140.35 2303.44,-134.51 2292.89,-133.56 2294.6,-140.35"/>
</a>
</g>
</g>
<!-- Node32&#45;&gt;Node29 -->
<g id="edge47_Node000032_Node000029" class="edge">
<title>Node32&#45;&gt;Node29</title>
<g id="a_edge47_Node000032_Node000029"><a xlink:title=" ">
<path fill="none" stroke="#63b8ff" d="M1919.7,-175.99C1889.8,-165.94 1839.88,-149.16 1806.22,-137.84"/>
<polygon fill="#63b8ff" stroke="#63b8ff" points="1806.93,-134.39 1796.33,-134.52 1804.69,-141.02 1806.93,-134.39"/>
</a>
</g>
</g>
<!-- Node33 -->
<g id="Node000033" class="node">
<title>Node33</title>
<g id="a_Node000033"><a xlink:title=" ">
<polygon fill="#e0e0e0" stroke="#999999" points="2155,-134.5 2081,-134.5 2081,-115.5 2155,-115.5 2155,-134.5"/>
<text text-anchor="middle" x="2118" y="-122.5" font-family="Helvetica,sans-Serif" font-size="10.00">esp_timer.h</text>
</a>
</g>
</g>
<!-- Node32&#45;&gt;Node33 -->
<g id="edge46_Node000032_Node000033" class="edge">
<title>Node32&#45;&gt;Node33</title>
<g id="a_edge46_Node000032_Node000033"><a xlink:title=" ">
<path fill="none" stroke="#63b8ff" d="M1970.16,-175.99C1999.88,-165.94 2049.52,-149.16 2082.99,-137.84"/>
<polygon fill="#63b8ff" stroke="#63b8ff" points="2084.46,-141.04 2092.81,-134.52 2082.22,-134.4 2084.46,-141.04"/>
</a>
</g>
</g>
<!-- Node34 -->
<g id="Node000034" class="node">
<title>Node34</title>
<g id="a_Node000034"><a xlink:title=" ">
<polygon fill="#e0e0e0" stroke="#999999" points="2270.5,-134.5 2173.5,-134.5 2173.5,-115.5 2270.5,-115.5 2270.5,-134.5"/>
<text text-anchor="middle" x="2222" y="-122.5" font-family="Helvetica,sans-Serif" font-size="10.00">freertos/queue.h</text>
</a>
</g>
</g>
<!-- Node32&#45;&gt;Node34 -->
<g id="edge49_Node000032_Node000034" class="edge">
<title>Node32&#45;&gt;Node34</title>
<g id="a_edge49_Node000032_Node000034"><a xlink:title=" ">
<path fill="none" stroke="#63b8ff" d="M1989.56,-175.94C2033.88,-167.31 2103.78,-153.38 2164,-140 2168.38,-139.03 2172.95,-137.98 2177.5,-136.91"/>
<polygon fill="#63b8ff" stroke="#63b8ff" points="2178.47,-140.28 2187.39,-134.57 2176.85,-133.47 2178.47,-140.28"/>
</a>
</g>
</g>
<!-- Node35 -->
<g id="Node000035" class="node">
<title>Node35</title>
<g id="a_Node000035"><a xlink:title=" ">
<polygon fill="#e0e0e0" stroke="#999999" points="2062.5,-134.5 1959.5,-134.5 1959.5,-115.5 2062.5,-115.5 2062.5,-134.5"/>
<text text-anchor="middle" x="2011" y="-122.5" font-family="Helvetica,sans-Serif" font-size="10.00">freertos/semphr.h</text>
</a>
</g>
</g>
<!-- Node32&#45;&gt;Node35 -->
<g id="edge50_Node000032_Node000035" class="edge">
<title>Node32&#45;&gt;Node35</title>
<g id="a_edge50_Node000032_Node000035"><a xlink:title=" ">
<path fill="none" stroke="#63b8ff" d="M1954.74,-175.87C1964.97,-166.8 1981.29,-152.34 1993.72,-141.32"/>
<polygon fill="#63b8ff" stroke="#63b8ff" points="1996.06,-143.92 2001.22,-134.67 1991.42,-138.68 1996.06,-143.92"/>
</a>
</g>
</g>
</g>
</svg>
