<?xml version="1.0" encoding="UTF-8" standalone="no"?>
<!DOCTYPE svg PUBLIC "-//W3C//DTD SVG 1.1//EN"
 "http://www.w3.org/Graphics/SVG/1.1/DTD/svg11.dtd">
<!-- Generated by graphviz version 2.43.0 (0)
 -->
<!-- Title: examples/esp32/main/esp32_as5047u_bus.hpp Pages: 1 -->
<svg width="800pt" height="159pt"
 viewBox="0.00 0.00 800.00 159.00" xmlns="http://www.w3.org/2000/svg" xmlns:xlink="http://www.w3.org/1999/xlink">
<g id="graph0" class="graph" transform="scale(1 1) rotate(0) translate(4 155)">
<title>examples/esp32/main/esp32_as5047u_bus.hpp</title>
<!-- Node1 -->
<g id="Node000001" class="node">
<title>Node1</title>
<g id="a_Node000001"><a xlink:title="ESP32 SPI transport implementation for AS5047U driver (header&#45;only)">
<polygon fill="#999999" stroke="#666666" points="516.5,-151 377.5,-151 377.5,-121 516.5,-121 516.5,-151"/>
<text text-anchor="start" x="385.5" y="-139" font-family="Helvetica,sans-Serif" font-size="10.00">examples/esp32/main</text>
<text text-anchor="middle" x="447" y="-128" font-family="Helvetica,sans-Serif" font-size="10.00">/esp32_as5047u_bus.hpp</text>
</a>
</g>
</g>
<!-- Node2 -->
<g id="Node000002" class="node">
<title>Node2</title>
<g id="a_Node000002"><a xlink:href="as5047u__spi__interface_8hpp.html" target="_top" xlink:title="CRTP&#45;based SPI bus interface for AS5047U driver.">
<polygon fill="white" stroke="#666666" points="106,-85 0,-85 0,-55 106,-55 106,-85"/>
<text text-anchor="start" x="8" y="-73" font-family="Helvetica,sans-Serif" font-size="10.00">../../../inc/as5047u</text>
<text text-anchor="middle" x="53" y="-62" font-family="Helvetica,sans-Serif" font-size="10.00">_spi_interface.hpp</text>
</a>
</g>
</g>
<!-- Node1&#45;&gt;Node2 -->
<g id="edge1_Node000001_Node000002" class="edge">
<title>Node1&#45;&gt;Node2</title>
<g id="a_edge1_Node000001_Node000002"><a xlink:title=" ">
<path fill="none" stroke="#63b8ff" d="M377.29,-125.46C310.96,-116.12 208.45,-100.99 120,-85 118.75,-84.77 117.49,-84.54 116.22,-84.31"/>
<polygon fill="#63b8ff" stroke="#63b8ff" points="116.82,-80.86 106.34,-82.42 115.51,-87.73 116.82,-80.86"/>
</a>
</g>
</g>
<!-- Node4 -->
<g id="Node000004" class="node">
<title>Node4</title>
<g id="a_Node000004"><a xlink:title=" ">
<polygon fill="#e0e0e0" stroke="#999999" points="159,-19 109,-19 109,0 159,0 159,-19"/>
<text text-anchor="middle" x="134" y="-7" font-family="Helvetica,sans-Serif" font-size="10.00">cstdint</text>
</a>
</g>
</g>
<!-- Node1&#45;&gt;Node4 -->
<g id="edge9_Node000001_Node000004" class="edge">
<title>Node1&#45;&gt;Node4</title>
<g id="a_edge9_Node000001_Node000004"><a xlink:title=" ">
<path fill="none" stroke="#63b8ff" d="M377.32,-131.74C300.91,-126.73 184.88,-114.39 153,-85 137.77,-70.96 134.02,-46.56 133.43,-29.53"/>
<polygon fill="#63b8ff" stroke="#63b8ff" points="136.93,-29.13 133.43,-19.13 129.93,-29.13 136.93,-29.13"/>
</a>
</g>
</g>
<!-- Node5 -->
<g id="Node000005" class="node">
<title>Node5</title>
<g id="a_Node000005"><a xlink:href="esp32__as5047u__test__config_8hpp.html" target="_top" xlink:title="Hardware configuration for AS5047U driver on ESP32&#45;C6.">
<polygon fill="white" stroke="#666666" points="278,-85 162,-85 162,-55 278,-55 278,-85"/>
<text text-anchor="start" x="170" y="-73" font-family="Helvetica,sans-Serif" font-size="10.00">esp32_as5047u_test</text>
<text text-anchor="middle" x="220" y="-62" font-family="Helvetica,sans-Serif" font-size="10.00">_config.hpp</text>
</a>
</g>
</g>
<!-- Node1&#45;&gt;Node5 -->
<g id="edge4_Node000001_Node000005" class="edge">
<title>Node1&#45;&gt;Node5</title>
<g id="a_edge4_Node000001_Node000005"><a xlink:title=" ">
<path fill="none" stroke="#63b8ff" d="M397.18,-120.95C362.59,-111.2 316.32,-98.16 279.74,-87.84"/>
<polygon fill="#63b8ff" stroke="#63b8ff" points="280.27,-84.36 269.7,-85.01 278.37,-91.09 280.27,-84.36"/>
</a>
</g>
</g>
<!-- Node6 -->
<g id="Node000006" class="node">
<title>Node6</title>
<g id="a_Node000006"><a xlink:title=" ">
<polygon fill="#e0e0e0" stroke="#999999" points="374,-79.5 296,-79.5 296,-60.5 374,-60.5 374,-79.5"/>
<text text-anchor="middle" x="335" y="-67.5" font-family="Helvetica,sans-Serif" font-size="10.00">driver/gpio.h</text>
</a>
</g>
</g>
<!-- Node1&#45;&gt;Node6 -->
<g id="edge6_Node000001_Node000006" class="edge">
<title>Node1&#45;&gt;Node6</title>
<g id="a_edge6_Node000001_Node000006"><a xlink:title=" ">
<path fill="none" stroke="#63b8ff" d="M422.42,-120.95C403.47,-110.13 377.42,-95.24 358.7,-84.54"/>
<polygon fill="#63b8ff" stroke="#63b8ff" points="360.32,-81.44 349.91,-79.52 356.85,-87.52 360.32,-81.44"/>
</a>
</g>
</g>
<!-- Node7 -->
<g id="Node000007" class="node">
<title>Node7</title>
<g id="a_Node000007"><a xlink:title=" ">
<polygon fill="#e0e0e0" stroke="#999999" points="502,-79.5 392,-79.5 392,-60.5 502,-60.5 502,-79.5"/>
<text text-anchor="middle" x="447" y="-67.5" font-family="Helvetica,sans-Serif" font-size="10.00">driver/spi_master.h</text>
</a>
</g>
</g>
<!-- Node1&#45;&gt;Node7 -->
<g id="edge7_Node000001_Node000007" class="edge">
<title>Node1&#45;&gt;Node7</title>
<g id="a_edge7_Node000001_Node000007"><a xlink:title=" ">
<path fill="none" stroke="#63b8ff" d="M447,-120.8C447,-111.7 447,-99.79 447,-89.9"/>
<polygon fill="#63b8ff" stroke="#63b8ff" points="450.5,-89.84 447,-79.84 443.5,-89.84 450.5,-89.84"/>
</a>
</g>
</g>
<!-- Node8 -->
<g id="Node000008" class="node">
<title>Node8</title>
<g id="a_Node000008"><a xlink:title=" ">
<polygon fill="#e0e0e0" stroke="#999999" points="583.5,-79.5 520.5,-79.5 520.5,-60.5 583.5,-60.5 583.5,-79.5"/>
<text text-anchor="middle" x="552" y="-67.5" font-family="Helvetica,sans-Serif" font-size="10.00">esp_log.h</text>
</a>
</g>
</g>
<!-- Node1&#45;&gt;Node8 -->
<g id="edge8_Node000001_Node000008" class="edge">
<title>Node1&#45;&gt;Node8</title>
<g id="a_edge8_Node000001_Node000008"><a xlink:title=" ">
<path fill="none" stroke="#63b8ff" d="M470.04,-120.95C487.56,-110.27 511.56,-95.65 529.06,-84.98"/>
<polygon fill="#63b8ff" stroke="#63b8ff" points="531.31,-87.71 538.03,-79.52 527.67,-81.73 531.31,-87.71"/>
</a>
</g>
</g>
<!-- Node9 -->
<g id="Node000009" class="node">
<title>Node9</title>
<g id="a_Node000009"><a xlink:title=" ">
<polygon fill="#e0e0e0" stroke="#999999" points="648,-79.5 602,-79.5 602,-60.5 648,-60.5 648,-79.5"/>
<text text-anchor="middle" x="625" y="-67.5" font-family="Helvetica,sans-Serif" font-size="10.00">cstdio</text>
</a>
</g>
</g>
<!-- Node1&#45;&gt;Node9 -->
<g id="edge10_Node000001_Node000009" class="edge">
<title>Node1&#45;&gt;Node9</title>
<g id="a_edge10_Node000001_Node000009"><a xlink:title=" ">
<path fill="none" stroke="#63b8ff" d="M491.1,-120.95C520.25,-111.4 559.17,-98.17 593,-85 594.21,-84.53 595.44,-84.04 596.68,-83.54"/>
<polygon fill="#63b8ff" stroke="#63b8ff" points="598.3,-86.65 606.16,-79.55 595.58,-80.2 598.3,-86.65"/>
</a>
</g>
</g>
<!-- Node10 -->
<g id="Node000010" class="node">
<title>Node10</title>
<g id="a_Node000010"><a xlink:title=" ">
<polygon fill="#e0e0e0" stroke="#999999" points="716,-79.5 666,-79.5 666,-60.5 716,-60.5 716,-79.5"/>
<text text-anchor="middle" x="691" y="-67.5" font-family="Helvetica,sans-Serif" font-size="10.00">cstring</text>
</a>
</g>
</g>
<!-- Node1&#45;&gt;Node10 -->
<g id="edge11_Node000001_Node000010" class="edge">
<title>Node1&#45;&gt;Node10</title>
<g id="a_edge11_Node000001_Node000010"><a xlink:title=" ">
<path fill="none" stroke="#63b8ff" d="M516.8,-121.26C558.03,-112.43 610.99,-99.85 657,-85 658.67,-84.46 660.37,-83.88 662.09,-83.26"/>
<polygon fill="#63b8ff" stroke="#63b8ff" points="663.7,-86.39 671.78,-79.53 661.19,-79.86 663.7,-86.39"/>
</a>
</g>
</g>
<!-- Node11 -->
<g id="Node000011" class="node">
<title>Node11</title>
<g id="a_Node000011"><a xlink:title=" ">
<polygon fill="#e0e0e0" stroke="#999999" points="792,-79.5 734,-79.5 734,-60.5 792,-60.5 792,-79.5"/>
<text text-anchor="middle" x="763" y="-67.5" font-family="Helvetica,sans-Serif" font-size="10.00">memory</text>
</a>
</g>
</g>
<!-- Node1&#45;&gt;Node11 -->
<g id="edge12_Node000001_Node000011" class="edge">
<title>Node1&#45;&gt;Node11</title>
<g id="a_edge12_Node000001_Node000011"><a xlink:title=" ">
<path fill="none" stroke="#63b8ff" d="M516.58,-125.94C573.27,-117.73 655.08,-104.01 725,-85 727.43,-84.34 729.93,-83.59 732.43,-82.78"/>
<polygon fill="#63b8ff" stroke="#63b8ff" points="733.6,-86.08 741.91,-79.51 731.31,-79.47 733.6,-86.08"/>
</a>
</g>
</g>
<!-- Node3 -->
<g id="Node000003" class="node">
<title>Node3</title>
<g id="a_Node000003"><a xlink:title=" ">
<polygon fill="#e0e0e0" stroke="#999999" points="79.5,-19 26.5,-19 26.5,0 79.5,0 79.5,-19"/>
<text text-anchor="middle" x="53" y="-7" font-family="Helvetica,sans-Serif" font-size="10.00">cstddef</text>
</a>
</g>
</g>
<!-- Node2&#45;&gt;Node3 -->
<g id="edge2_Node000002_Node000003" class="edge">
<title>Node2&#45;&gt;Node3</title>
<g id="a_edge2_Node000002_Node000003"><a xlink:title=" ">
<path fill="none" stroke="#63b8ff" d="M53,-54.84C53,-47.21 53,-37.7 53,-29.45"/>
<polygon fill="#63b8ff" stroke="#63b8ff" points="56.5,-29.27 53,-19.27 49.5,-29.27 56.5,-29.27"/>
</a>
</g>
</g>
<!-- Node2&#45;&gt;Node4 -->
<g id="edge3_Node000002_Node000004" class="edge">
<title>Node2&#45;&gt;Node4</title>
<g id="a_edge3_Node000002_Node000004"><a xlink:title=" ">
<path fill="none" stroke="#63b8ff" d="M72.61,-54.84C84.97,-45.91 100.9,-34.41 113.43,-25.35"/>
<polygon fill="#63b8ff" stroke="#63b8ff" points="115.8,-27.96 121.86,-19.27 111.71,-22.28 115.8,-27.96"/>
</a>
</g>
</g>
<!-- Node5&#45;&gt;Node4 -->
<g id="edge5_Node000005_Node000004" class="edge">
<title>Node5&#45;&gt;Node4</title>
<g id="a_edge5_Node000005_Node000004"><a xlink:title=" ">
<path fill="none" stroke="#63b8ff" d="M199.18,-54.84C185.85,-45.77 168.61,-34.04 155.21,-24.92"/>
<polygon fill="#63b8ff" stroke="#63b8ff" points="156.87,-21.83 146.63,-19.09 152.93,-27.61 156.87,-21.83"/>
</a>
</g>
</g>
</g>
</svg>
