<?xml version="1.0" encoding="UTF-8" standalone="no"?>
<!DOCTYPE svg PUBLIC "-//W3C//DTD SVG 1.1//EN"
 "http://www.w3.org/Graphics/SVG/1.1/DTD/svg11.dtd">
<!-- Generated by graphviz version 2.43.0 (0)
 -->
<!-- Title: examples/esp32/main/esp32_as5047u_bus.hpp Pages: 1 -->
<svg width="736pt" height="159pt"
 viewBox="0.00 0.00 736.00 159.00" xmlns="http://www.w3.org/2000/svg" xmlns:xlink="http://www.w3.org/1999/xlink">
<g id="graph0" class="graph" transform="scale(1 1) rotate(0) translate(4 155)">
<title>examples/esp32/main/esp32_as5047u_bus.hpp</title>
<!-- Node1 -->
<g id="Node000001" class="node">
<title>Node1</title>
<g id="a_Node000001"><a xlink:title="ESP32 SPI transport implementation for AS5047U driver (header&#45;only)">
<polygon fill="#999999" stroke="#666666" points="460.5,-151 321.5,-151 321.5,-121 460.5,-121 460.5,-151"/>
<text text-anchor="start" x="329.5" y="-139" font-family="Helvetica,sans-Serif" font-size="10.00">examples/esp32/main</text>
<text text-anchor="middle" x="391" y="-128" font-family="Helvetica,sans-Serif" font-size="10.00">/esp32_as5047u_bus.hpp</text>
</a>
</g>
</g>
<!-- Node2 -->
<g id="Node000002" class="node">
<title>Node2</title>
<g id="a_Node000002"><a xlink:href="as5047u__spi__interface_8hpp.html" target="_top" xlink:title="CRTP&#45;based SPI bus interface for AS5047U driver.">
<polygon fill="white" stroke="#666666" points="106,-85 0,-85 0,-55 106,-55 106,-85"/>
<text text-anchor="start" x="8" y="-73" font-family="Helvetica,sans-Serif" font-size="10.00">../../../inc/as5047u</text>
<text text-anchor="middle" x="53" y="-62" font-family="Helvetica,sans-Serif" font-size="10.00">_spi_interface.hpp</text>
</a>
</g>
</g>
<!-- Node1&#45;&gt;Node2 -->
<g id="edge1_Node000001_Node000002" class="edge">
<title>Node1&#45;&gt;Node2</title>
<g id="a_edge1_Node000001_Node000002"><a xlink:title=" ">
<path fill="none" stroke="#63b8ff" d="M321.29,-122.6C266.51,-112.75 188.3,-98.44 120,-85 118.72,-84.75 117.43,-84.49 116.13,-84.23"/>
<polygon fill="#63b8ff" stroke="#63b8ff" points="116.5,-80.74 106.01,-82.2 115.12,-87.6 116.5,-80.74"/>
</a>
</g>
</g>
<!-- Node4 -->
<g id="Node000004" class="node">
<title>Node4</title>
<g id="a_Node000004"><a xlink:title=" ">
<polygon fill="#e0e0e0" stroke="#999999" points="159,-19 109,-19 109,0 159,0 159,-19"/>
<text text-anchor="middle" x="134" y="-7" font-family="Helvetica,sans-Serif" font-size="10.00">cstdint</text>
</a>
</g>
</g>
<!-- Node1&#45;&gt;Node4 -->
<g id="edge9_Node000001_Node000004" class="edge">
<title>Node1&#45;&gt;Node4</title>
<g id="a_edge9_Node000001_Node000004"><a xlink:title=" ">
<path fill="none" stroke="#63b8ff" d="M321.31,-128.5C259.96,-121.37 176.78,-107.79 153,-85 138.12,-70.74 134.28,-46.59 133.57,-29.66"/>
<polygon fill="#63b8ff" stroke="#63b8ff" points="137.07,-29.27 133.49,-19.3 130.07,-29.33 137.07,-29.27"/>
</a>
</g>
</g>
<!-- Node5 -->
<g id="Node000005" class="node">
<title>Node5</title>
<g id="a_Node000005"><a xlink:href="esp32__as5047u__test__config_8hpp.html" target="_top" xlink:title="Hardware configuration for AS5047U driver on ESP32&#45;C6.">
<polygon fill="white" stroke="#666666" points="278,-85 162,-85 162,-55 278,-55 278,-85"/>
<text text-anchor="start" x="170" y="-73" font-family="Helvetica,sans-Serif" font-size="10.00">esp32_as5047u_test</text>
<text text-anchor="middle" x="220" y="-62" font-family="Helvetica,sans-Serif" font-size="10.00">_config.hpp</text>
</a>
</g>
</g>
<!-- Node1&#45;&gt;Node5 -->
<g id="edge4_Node000001_Node000005" class="edge">
<title>Node1&#45;&gt;Node5</title>
<g id="a_edge4_Node000001_Node000005"><a xlink:title=" ">
<path fill="none" stroke="#63b8ff" d="M353.47,-120.95C328.08,-111.45 294.34,-98.82 267.14,-88.64"/>
<polygon fill="#63b8ff" stroke="#63b8ff" points="268.03,-85.24 257.44,-85.01 265.58,-91.8 268.03,-85.24"/>
</a>
</g>
</g>
<!-- Node6 -->
<g id="Node000006" class="node">
<title>Node6</title>
<g id="a_Node000006"><a xlink:title=" ">
<polygon fill="#e0e0e0" stroke="#999999" points="374,-79.5 296,-79.5 296,-60.5 374,-60.5 374,-79.5"/>
<text text-anchor="middle" x="335" y="-67.5" font-family="Helvetica,sans-Serif" font-size="10.00">driver/gpio.h</text>
</a>
</g>
</g>
<!-- Node1&#45;&gt;Node6 -->
<g id="edge6_Node000001_Node000006" class="edge">
<title>Node1&#45;&gt;Node6</title>
<g id="a_edge6_Node000001_Node000006"><a xlink:title=" ">
<path fill="none" stroke="#63b8ff" d="M378.57,-120.8C369.93,-110.92 358.38,-97.72 349.34,-87.39"/>
<polygon fill="#63b8ff" stroke="#63b8ff" points="351.96,-85.07 342.74,-79.84 346.69,-89.67 351.96,-85.07"/>
</a>
</g>
</g>
<!-- Node7 -->
<g id="Node000007" class="node">
<title>Node7</title>
<g id="a_Node000007"><a xlink:title=" ">
<polygon fill="#e0e0e0" stroke="#999999" points="502,-79.5 392,-79.5 392,-60.5 502,-60.5 502,-79.5"/>
<text text-anchor="middle" x="447" y="-67.5" font-family="Helvetica,sans-Serif" font-size="10.00">driver/spi_master.h</text>
</a>
</g>
</g>
<!-- Node1&#45;&gt;Node7 -->
<g id="edge7_Node000001_Node000007" class="edge">
<title>Node1&#45;&gt;Node7</title>
<g id="a_edge7_Node000001_Node000007"><a xlink:title=" ">
<path fill="none" stroke="#63b8ff" d="M403.43,-120.8C412.07,-110.92 423.62,-97.72 432.66,-87.39"/>
<polygon fill="#63b8ff" stroke="#63b8ff" points="435.31,-89.67 439.26,-79.84 430.04,-85.07 435.31,-89.67"/>
</a>
</g>
</g>
<!-- Node8 -->
<g id="Node000008" class="node">
<title>Node8</title>
<g id="a_Node000008"><a xlink:title=" ">
<polygon fill="#e0e0e0" stroke="#999999" points="583.5,-79.5 520.5,-79.5 520.5,-60.5 583.5,-60.5 583.5,-79.5"/>
<text text-anchor="middle" x="552" y="-67.5" font-family="Helvetica,sans-Serif" font-size="10.00">esp_log.h</text>
</a>
</g>
</g>
<!-- Node1&#45;&gt;Node8 -->
<g id="edge8_Node000001_Node000008" class="edge">
<title>Node1&#45;&gt;Node8</title>
<g id="a_edge8_Node000001_Node000008"><a xlink:title=" ">
<path fill="none" stroke="#63b8ff" d="M426.33,-120.95C454.69,-109.68 494.11,-94.01 521.2,-83.25"/>
<polygon fill="#63b8ff" stroke="#63b8ff" points="522.57,-86.46 530.57,-79.52 519.99,-79.96 522.57,-86.46"/>
</a>
</g>
</g>
<!-- Node9 -->
<g id="Node000009" class="node">
<title>Node9</title>
<g id="a_Node000009"><a xlink:title=" ">
<polygon fill="#e0e0e0" stroke="#999999" points="652,-79.5 602,-79.5 602,-60.5 652,-60.5 652,-79.5"/>
<text text-anchor="middle" x="627" y="-67.5" font-family="Helvetica,sans-Serif" font-size="10.00">cstring</text>
</a>
</g>
</g>
<!-- Node1&#45;&gt;Node9 -->
<g id="edge10_Node000001_Node000009" class="edge">
<title>Node1&#45;&gt;Node9</title>
<g id="a_edge10_Node000001_Node000009"><a xlink:title=" ">
<path fill="none" stroke="#63b8ff" d="M458.58,-120.9C498.16,-112 548.88,-99.45 593,-85 594.63,-84.47 596.29,-83.89 597.95,-83.29"/>
<polygon fill="#63b8ff" stroke="#63b8ff" points="599.34,-86.51 607.41,-79.64 596.82,-79.98 599.34,-86.51"/>
</a>
</g>
</g>
<!-- Node10 -->
<g id="Node000010" class="node">
<title>Node10</title>
<g id="a_Node000010"><a xlink:title=" ">
<polygon fill="#e0e0e0" stroke="#999999" points="728,-79.5 670,-79.5 670,-60.5 728,-60.5 728,-79.5"/>
<text text-anchor="middle" x="699" y="-67.5" font-family="Helvetica,sans-Serif" font-size="10.00">memory</text>
</a>
</g>
</g>
<!-- Node1&#45;&gt;Node10 -->
<g id="edge11_Node000001_Node000010" class="edge">
<title>Node1&#45;&gt;Node10</title>
<g id="a_edge11_Node000001_Node000010"><a xlink:title=" ">
<path fill="none" stroke="#63b8ff" d="M460.54,-125.45C515.5,-117.1 593.88,-103.43 661,-85 663.29,-84.37 665.63,-83.67 667.98,-82.91"/>
<polygon fill="#63b8ff" stroke="#63b8ff" points="669.18,-86.2 677.5,-79.64 666.91,-79.58 669.18,-86.2"/>
</a>
</g>
</g>
<!-- Node3 -->
<g id="Node000003" class="node">
<title>Node3</title>
<g id="a_Node000003"><a xlink:title=" ">
<polygon fill="#e0e0e0" stroke="#999999" points="79.5,-19 26.5,-19 26.5,0 79.5,0 79.5,-19"/>
<text text-anchor="middle" x="53" y="-7" font-family="Helvetica,sans-Serif" font-size="10.00">cstddef</text>
</a>
</g>
</g>
<!-- Node2&#45;&gt;Node3 -->
<g id="edge2_Node000002_Node000003" class="edge">
<title>Node2&#45;&gt;Node3</title>
<g id="a_edge2_Node000002_Node000003"><a xlink:title=" ">
<path fill="none" stroke="#63b8ff" d="M53,-54.84C53,-47.21 53,-37.7 53,-29.45"/>
<polygon fill="#63b8ff" stroke="#63b8ff" points="56.5,-29.27 53,-19.27 49.5,-29.27 56.5,-29.27"/>
</a>
</g>
</g>
<!-- Node2&#45;&gt;Node4 -->
<g id="edge3_Node000002_Node000004" class="edge">
<title>Node2&#45;&gt;Node4</title>
<g id="a_edge3_Node000002_Node000004"><a xlink:title=" ">
<path fill="none" stroke="#63b8ff" d="M72.61,-54.84C84.97,-45.91 100.9,-34.41 113.43,-25.35"/>
<polygon fill="#63b8ff" stroke="#63b8ff" points="115.8,-27.96 121.86,-19.27 111.71,-22.28 115.8,-27.96"/>
</a>
</g>
</g>
<!-- Node5&#45;&gt;Node4 -->
<g id="edge5_Node000005_Node000004" class="edge">
<title>Node5&#45;&gt;Node4</title>
<g id="a_edge5_Node000005_Node000004"><a xlink:title=" ">
<path fill="none" stroke="#63b8ff" d="M199.18,-54.84C185.85,-45.77 168.61,-34.04 155.21,-24.92"/>
<polygon fill="#63b8ff" stroke="#63b8ff" points="156.87,-21.83 146.63,-19.09 152.93,-27.61 156.87,-21.83"/>
</a>
</g>
</g>
</g>
</svg>
