<?xml version="1.0" encoding="UTF-8" standalone="no"?>
<!DOCTYPE svg PUBLIC "-//W3C//DTD SVG 1.1//EN"
 "http://www.w3.org/Graphics/SVG/1.1/DTD/svg11.dtd">
<!-- Generated by graphviz version 2.43.0 (0)
 -->
<!-- Title: examples/esp32/main/Esp32As5047uBus.cpp Pages: 1 -->
<svg width="534pt" height="214pt"
 viewBox="0.00 0.00 533.50 214.00" xmlns="http://www.w3.org/2000/svg" xmlns:xlink="http://www.w3.org/1999/xlink">
<g id="graph0" class="graph" transform="scale(1 1) rotate(0) translate(4 210)">
<title>examples/esp32/main/Esp32As5047uBus.cpp</title>
<!-- Node1 -->
<g id="Node000001" class="node">
<title>Node1</title>
<g id="a_Node000001"><a xlink:title="ESP32 SPI transport implementation for AS5047U driver.">
<polygon fill="#999999" stroke="#666666" points="377,-206 248,-206 248,-176 377,-176 377,-206"/>
<text text-anchor="start" x="256" y="-194" font-family="Helvetica,sans-Serif" font-size="10.00">examples/esp32/main</text>
<text text-anchor="middle" x="312.5" y="-183" font-family="Helvetica,sans-Serif" font-size="10.00">/Esp32As5047uBus.cpp</text>
</a>
</g>
</g>
<!-- Node2 -->
<g id="Node000002" class="node">
<title>Node2</title>
<g id="a_Node000002"><a xlink:href="Esp32As5047uBus_8hpp.html" target="_top" xlink:title="ESP32 SPI transport implementation for AS5047U driver.">
<polygon fill="white" stroke="#666666" points="320,-140 193,-140 193,-121 320,-121 320,-140"/>
<text text-anchor="middle" x="256.5" y="-128" font-family="Helvetica,sans-Serif" font-size="10.00">Esp32As5047uBus.hpp</text>
</a>
</g>
</g>
<!-- Node1&#45;&gt;Node2 -->
<g id="edge1_Node000001_Node000002" class="edge">
<title>Node1&#45;&gt;Node2</title>
<g id="a_edge1_Node000001_Node000002"><a xlink:title=" ">
<path fill="none" stroke="#63b8ff" d="M298.94,-175.84C290.82,-167.35 280.45,-156.52 272,-147.69"/>
<polygon fill="#63b8ff" stroke="#63b8ff" points="274.33,-145.07 264.89,-140.27 269.28,-149.91 274.33,-145.07"/>
</a>
</g>
</g>
<!-- Node10 -->
<g id="Node000010" class="node">
<title>Node10</title>
<g id="a_Node000010"><a xlink:title=" ">
<polygon fill="#e0e0e0" stroke="#999999" points="399,-140 338,-140 338,-121 399,-121 399,-140"/>
<text text-anchor="middle" x="368.5" y="-128" font-family="Helvetica,sans-Serif" font-size="10.00">esp_err.h</text>
</a>
</g>
</g>
<!-- Node1&#45;&gt;Node10 -->
<g id="edge10_Node000001_Node000010" class="edge">
<title>Node1&#45;&gt;Node10</title>
<g id="a_edge10_Node000001_Node000010"><a xlink:title=" ">
<path fill="none" stroke="#63b8ff" d="M326.06,-175.84C334.18,-167.35 344.55,-156.52 353,-147.69"/>
<polygon fill="#63b8ff" stroke="#63b8ff" points="355.72,-149.91 360.11,-140.27 350.67,-145.07 355.72,-149.91"/>
</a>
</g>
</g>
<!-- Node3 -->
<g id="Node000003" class="node">
<title>Node3</title>
<g id="a_Node000003"><a xlink:href="AS5047U__Bus_8hpp.html" target="_top" xlink:title="CRTP&#45;based SPI bus interface for AS5047U driver.">
<polygon fill="white" stroke="#666666" points="105,-85 0,-85 0,-55 105,-55 105,-85"/>
<text text-anchor="start" x="8" y="-73" font-family="Helvetica,sans-Serif" font-size="10.00">../../../inc/AS5047U</text>
<text text-anchor="middle" x="52.5" y="-62" font-family="Helvetica,sans-Serif" font-size="10.00">_Bus.hpp</text>
</a>
</g>
</g>
<!-- Node2&#45;&gt;Node3 -->
<g id="edge2_Node000002_Node000003" class="edge">
<title>Node2&#45;&gt;Node3</title>
<g id="a_edge2_Node000002_Node000003"><a xlink:title=" ">
<path fill="none" stroke="#63b8ff" d="M226.84,-120.99C196.71,-112.35 149.23,-98.74 111.43,-87.9"/>
<polygon fill="#63b8ff" stroke="#63b8ff" points="112.12,-84.46 101.54,-85.06 110.19,-91.19 112.12,-84.46"/>
</a>
</g>
</g>
<!-- Node5 -->
<g id="Node000005" class="node">
<title>Node5</title>
<g id="a_Node000005"><a xlink:title=" ">
<polygon fill="#e0e0e0" stroke="#999999" points="152.5,-19 102.5,-19 102.5,0 152.5,0 152.5,-19"/>
<text text-anchor="middle" x="127.5" y="-7" font-family="Helvetica,sans-Serif" font-size="10.00">cstdint</text>
</a>
</g>
</g>
<!-- Node2&#45;&gt;Node5 -->
<g id="edge8_Node000002_Node000005" class="edge">
<title>Node2&#45;&gt;Node5</title>
<g id="a_edge8_Node000002_Node000005"><a xlink:title=" ">
<path fill="none" stroke="#63b8ff" d="M216.77,-120.95C195.14,-114.43 169.41,-103.33 152.5,-85 138.22,-69.52 132.07,-45.62 129.44,-29.08"/>
<polygon fill="#63b8ff" stroke="#63b8ff" points="132.89,-28.47 128.12,-19 125.95,-29.37 132.89,-28.47"/>
</a>
</g>
</g>
<!-- Node6 -->
<g id="Node000006" class="node">
<title>Node6</title>
<g id="a_Node000006"><a xlink:title=" ">
<polygon fill="#e0e0e0" stroke="#999999" points="239.5,-79.5 161.5,-79.5 161.5,-60.5 239.5,-60.5 239.5,-79.5"/>
<text text-anchor="middle" x="200.5" y="-67.5" font-family="Helvetica,sans-Serif" font-size="10.00">driver/gpio.h</text>
</a>
</g>
</g>
<!-- Node2&#45;&gt;Node6 -->
<g id="edge5_Node000002_Node000006" class="edge">
<title>Node2&#45;&gt;Node6</title>
<g id="a_edge5_Node000002_Node000006"><a xlink:title=" ">
<path fill="none" stroke="#63b8ff" d="M248.24,-120.87C239.72,-111.97 226.24,-97.89 215.77,-86.95"/>
<polygon fill="#63b8ff" stroke="#63b8ff" points="218.24,-84.47 208.8,-79.67 213.18,-89.31 218.24,-84.47"/>
</a>
</g>
</g>
<!-- Node7 -->
<g id="Node000007" class="node">
<title>Node7</title>
<g id="a_Node000007"><a xlink:title=" ">
<polygon fill="#e0e0e0" stroke="#999999" points="367.5,-79.5 257.5,-79.5 257.5,-60.5 367.5,-60.5 367.5,-79.5"/>
<text text-anchor="middle" x="312.5" y="-67.5" font-family="Helvetica,sans-Serif" font-size="10.00">driver/spi_master.h</text>
</a>
</g>
</g>
<!-- Node2&#45;&gt;Node7 -->
<g id="edge6_Node000002_Node000007" class="edge">
<title>Node2&#45;&gt;Node7</title>
<g id="a_edge6_Node000002_Node000007"><a xlink:title=" ">
<path fill="none" stroke="#63b8ff" d="M264.76,-120.87C273.28,-111.97 286.76,-97.89 297.23,-86.95"/>
<polygon fill="#63b8ff" stroke="#63b8ff" points="299.82,-89.31 304.2,-79.67 294.76,-84.47 299.82,-89.31"/>
</a>
</g>
</g>
<!-- Node8 -->
<g id="Node000008" class="node">
<title>Node8</title>
<g id="a_Node000008"><a xlink:title=" ">
<polygon fill="#e0e0e0" stroke="#999999" points="449,-79.5 386,-79.5 386,-60.5 449,-60.5 449,-79.5"/>
<text text-anchor="middle" x="417.5" y="-67.5" font-family="Helvetica,sans-Serif" font-size="10.00">esp_log.h</text>
</a>
</g>
</g>
<!-- Node2&#45;&gt;Node8 -->
<g id="edge7_Node000002_Node000008" class="edge">
<title>Node2&#45;&gt;Node8</title>
<g id="a_edge7_Node000002_Node000008"><a xlink:title=" ">
<path fill="none" stroke="#63b8ff" d="M279.91,-120.99C307.45,-110.99 353.37,-94.3 384.51,-82.99"/>
<polygon fill="#63b8ff" stroke="#63b8ff" points="385.86,-86.22 394.06,-79.52 383.47,-79.64 385.86,-86.22"/>
</a>
</g>
</g>
<!-- Node9 -->
<g id="Node000009" class="node">
<title>Node9</title>
<g id="a_Node000009"><a xlink:title=" ">
<polygon fill="#e0e0e0" stroke="#999999" points="525.5,-79.5 467.5,-79.5 467.5,-60.5 525.5,-60.5 525.5,-79.5"/>
<text text-anchor="middle" x="496.5" y="-67.5" font-family="Helvetica,sans-Serif" font-size="10.00">memory</text>
</a>
</g>
</g>
<!-- Node2&#45;&gt;Node9 -->
<g id="edge9_Node000002_Node000009" class="edge">
<title>Node2&#45;&gt;Node9</title>
<g id="a_edge9_Node000002_Node000009"><a xlink:title=" ">
<path fill="none" stroke="#63b8ff" d="M303.9,-120.95C345.13,-113.07 406.29,-100.29 458.5,-85 460.78,-84.33 463.11,-83.6 465.46,-82.83"/>
<polygon fill="#63b8ff" stroke="#63b8ff" points="466.68,-86.11 474.97,-79.51 464.37,-79.5 466.68,-86.11"/>
</a>
</g>
</g>
<!-- Node4 -->
<g id="Node000004" class="node">
<title>Node4</title>
<g id="a_Node000004"><a xlink:title=" ">
<polygon fill="#e0e0e0" stroke="#999999" points="79,-19 26,-19 26,0 79,0 79,-19"/>
<text text-anchor="middle" x="52.5" y="-7" font-family="Helvetica,sans-Serif" font-size="10.00">cstddef</text>
</a>
</g>
</g>
<!-- Node3&#45;&gt;Node4 -->
<g id="edge3_Node000003_Node000004" class="edge">
<title>Node3&#45;&gt;Node4</title>
<g id="a_edge3_Node000003_Node000004"><a xlink:title=" ">
<path fill="none" stroke="#63b8ff" d="M52.5,-54.84C52.5,-47.21 52.5,-37.7 52.5,-29.45"/>
<polygon fill="#63b8ff" stroke="#63b8ff" points="56,-29.27 52.5,-19.27 49,-29.27 56,-29.27"/>
</a>
</g>
</g>
<!-- Node3&#45;&gt;Node5 -->
<g id="edge4_Node000003_Node000005" class="edge">
<title>Node3&#45;&gt;Node5</title>
<g id="a_edge4_Node000003_Node000005"><a xlink:title=" ">
<path fill="none" stroke="#63b8ff" d="M70.66,-54.84C81.99,-46 96.56,-34.63 108.12,-25.62"/>
<polygon fill="#63b8ff" stroke="#63b8ff" points="110.53,-28.18 116.26,-19.27 106.22,-22.66 110.53,-28.18"/>
</a>
</g>
</g>
</g>
</svg>
