<?xml version="1.0" encoding="UTF-8" standalone="no"?>
<!DOCTYPE svg PUBLIC "-//W3C//DTD SVG 1.1//EN"
 "http://www.w3.org/Graphics/SVG/1.1/DTD/svg11.dtd">
<!-- Generated by graphviz version 2.43.0 (0)
 -->
<!-- Title: examples/esp32/main/Esp32As5047uBus.hpp Pages: 1 -->
<svg width="1182pt" height="258pt"
 viewBox="0.00 0.00 1181.50 258.00" xmlns="http://www.w3.org/2000/svg" xmlns:xlink="http://www.w3.org/1999/xlink">
<g id="graph0" class="graph" transform="scale(1 1) rotate(0) translate(4 254)">
<title>examples/esp32/main/Esp32As5047uBus.hpp</title>
<!-- Node1 -->
<g id="Node000001" class="node">
<title>Node1</title>
<g id="a_Node000001"><a xlink:title="ESP32 SPI transport implementation for AS5047U driver.">
<polygon fill="#999999" stroke="#666666" points="985.5,-250 855.5,-250 855.5,-220 985.5,-220 985.5,-250"/>
<text text-anchor="start" x="863.5" y="-238" font-family="Helvetica,sans-Serif" font-size="10.00">examples/esp32/main</text>
<text text-anchor="middle" x="920.5" y="-227" font-family="Helvetica,sans-Serif" font-size="10.00">/Esp32As5047uBus.hpp</text>
</a>
</g>
</g>
<!-- Node2 -->
<g id="Node000002" class="node">
<title>Node2</title>
<g id="a_Node000002"><a xlink:href="AS5047U_8hpp.html" target="_top" xlink:title="Driver for AMS AS5047U Magnetic Rotary Position Sensor (C++21).">
<polygon fill="white" stroke="#666666" points="492.5,-184 366.5,-184 366.5,-165 492.5,-165 492.5,-184"/>
<text text-anchor="middle" x="429.5" y="-172" font-family="Helvetica,sans-Serif" font-size="10.00">../../../inc/AS5047U.hpp</text>
</a>
</g>
</g>
<!-- Node1&#45;&gt;Node2 -->
<g id="edge1_Node000001_Node000002" class="edge">
<title>Node1&#45;&gt;Node2</title>
<g id="a_edge1_Node000001_Node000002"><a xlink:title=" ">
<path fill="none" stroke="#63b8ff" d="M855.3,-226.23C763.93,-215.35 598.32,-195.61 502.79,-184.23"/>
<polygon fill="#63b8ff" stroke="#63b8ff" points="502.98,-180.73 492.64,-183.02 502.15,-187.68 502.98,-180.73"/>
</a>
</g>
</g>
<!-- Node4 -->
<g id="Node000004" class="node">
<title>Node4</title>
<g id="a_Node000004"><a xlink:title=" ">
<polygon fill="#e0e0e0" stroke="#999999" points="634.5,-19 584.5,-19 584.5,0 634.5,0 634.5,-19"/>
<text text-anchor="middle" x="609.5" y="-7" font-family="Helvetica,sans-Serif" font-size="10.00">cstdint</text>
</a>
</g>
</g>
<!-- Node1&#45;&gt;Node4 -->
<g id="edge19_Node000001_Node000004" class="edge">
<title>Node1&#45;&gt;Node4</title>
<g id="a_edge19_Node000001_Node000004"><a xlink:title=" ">
<path fill="none" stroke="#63b8ff" d="M865.12,-219.98C843.01,-212.23 818.57,-200.69 800.5,-184 773.34,-158.92 785.82,-138.69 762.5,-110 737.98,-79.84 726.99,-76.34 694.5,-55 676.34,-43.07 654.63,-31.75 637.69,-23.51"/>
<polygon fill="#63b8ff" stroke="#63b8ff" points="638.87,-20.19 628.34,-19.04 635.85,-26.51 638.87,-20.19"/>
</a>
</g>
</g>
<!-- Node13 -->
<g id="Node000013" class="node">
<title>Node13</title>
<g id="a_Node000013"><a xlink:title=" ">
<polygon fill="#e0e0e0" stroke="#999999" points="919.5,-184 809.5,-184 809.5,-165 919.5,-165 919.5,-184"/>
<text text-anchor="middle" x="864.5" y="-172" font-family="Helvetica,sans-Serif" font-size="10.00">driver/spi_master.h</text>
</a>
</g>
</g>
<!-- Node1&#45;&gt;Node13 -->
<g id="edge16_Node000001_Node000013" class="edge">
<title>Node1&#45;&gt;Node13</title>
<g id="a_edge16_Node000001_Node000013"><a xlink:title=" ">
<path fill="none" stroke="#63b8ff" d="M906.94,-219.84C898.82,-211.35 888.45,-200.52 880,-191.69"/>
<polygon fill="#63b8ff" stroke="#63b8ff" points="882.33,-189.07 872.89,-184.27 877.28,-193.91 882.33,-189.07"/>
</a>
</g>
</g>
<!-- Node14 -->
<g id="Node000014" class="node">
<title>Node14</title>
<g id="a_Node000014"><a xlink:title=" ">
<polygon fill="#e0e0e0" stroke="#999999" points="1015.5,-184 937.5,-184 937.5,-165 1015.5,-165 1015.5,-184"/>
<text text-anchor="middle" x="976.5" y="-172" font-family="Helvetica,sans-Serif" font-size="10.00">driver/gpio.h</text>
</a>
</g>
</g>
<!-- Node1&#45;&gt;Node14 -->
<g id="edge17_Node000001_Node000014" class="edge">
<title>Node1&#45;&gt;Node14</title>
<g id="a_edge17_Node000001_Node000014"><a xlink:title=" ">
<path fill="none" stroke="#63b8ff" d="M934.06,-219.84C942.18,-211.35 952.55,-200.52 961,-191.69"/>
<polygon fill="#63b8ff" stroke="#63b8ff" points="963.72,-193.91 968.11,-184.27 958.67,-189.07 963.72,-193.91"/>
</a>
</g>
</g>
<!-- Node15 -->
<g id="Node000015" class="node">
<title>Node15</title>
<g id="a_Node000015"><a xlink:title=" ">
<polygon fill="#e0e0e0" stroke="#999999" points="1097,-184 1034,-184 1034,-165 1097,-165 1097,-184"/>
<text text-anchor="middle" x="1065.5" y="-172" font-family="Helvetica,sans-Serif" font-size="10.00">esp_log.h</text>
</a>
</g>
</g>
<!-- Node1&#45;&gt;Node15 -->
<g id="edge18_Node000001_Node000015" class="edge">
<title>Node1&#45;&gt;Node15</title>
<g id="a_edge18_Node000001_Node000015"><a xlink:title=" ">
<path fill="none" stroke="#63b8ff" d="M955.23,-219.99C979.42,-210.23 1011.4,-197.33 1034.69,-187.93"/>
<polygon fill="#63b8ff" stroke="#63b8ff" points="1036.12,-191.13 1044.09,-184.14 1033.5,-184.63 1036.12,-191.13"/>
</a>
</g>
</g>
<!-- Node16 -->
<g id="Node000016" class="node">
<title>Node16</title>
<g id="a_Node000016"><a xlink:title=" ">
<polygon fill="#e0e0e0" stroke="#999999" points="1173.5,-184 1115.5,-184 1115.5,-165 1173.5,-165 1173.5,-184"/>
<text text-anchor="middle" x="1144.5" y="-172" font-family="Helvetica,sans-Serif" font-size="10.00">memory</text>
</a>
</g>
</g>
<!-- Node1&#45;&gt;Node16 -->
<g id="edge20_Node000001_Node000016" class="edge">
<title>Node1&#45;&gt;Node16</title>
<g id="a_edge20_Node000001_Node000016"><a xlink:title=" ">
<path fill="none" stroke="#63b8ff" d="M974.15,-219.99C1014.61,-209.42 1069.17,-195.17 1105.53,-185.68"/>
<polygon fill="#63b8ff" stroke="#63b8ff" points="1106.48,-189.05 1115.27,-183.13 1104.71,-182.27 1106.48,-189.05"/>
</a>
</g>
</g>
<!-- Node3 -->
<g id="Node000003" class="node">
<title>Node3</title>
<g id="a_Node000003"><a xlink:href="AS5047U__REGISTERS_8hpp.html" target="_top" xlink:title="Register definitions for the AS5047U Rotary Position Sensor.">
<polygon fill="white" stroke="#666666" points="141,-74 0,-74 0,-55 141,-55 141,-74"/>
<text text-anchor="middle" x="70.5" y="-62" font-family="Helvetica,sans-Serif" font-size="10.00">AS5047U_REGISTERS.hpp</text>
</a>
</g>
</g>
<!-- Node2&#45;&gt;Node3 -->
<g id="edge2_Node000002_Node000003" class="edge">
<title>Node2&#45;&gt;Node3</title>
<g id="a_edge2_Node000002_Node000003"><a xlink:title=" ">
<path fill="none" stroke="#63b8ff" d="M366.48,-171.76C309.37,-168.24 223.93,-158.04 155.5,-129 128.64,-117.6 102.48,-96 86.43,-81.18"/>
<polygon fill="#63b8ff" stroke="#63b8ff" points="88.68,-78.49 79.02,-74.14 83.86,-83.57 88.68,-78.49"/>
</a>
</g>
</g>
<!-- Node2&#45;&gt;Node4 -->
<g id="edge9_Node000002_Node000004" class="edge">
<title>Node2&#45;&gt;Node4</title>
<g id="a_edge9_Node000002_Node000004"><a xlink:title=" ">
<path fill="none" stroke="#63b8ff" d="M366.27,-170.72C302.6,-166.44 210.72,-155.69 188.5,-129 183.1,-122.51 183.26,-116.62 188.5,-110 236.69,-49.1 481.78,-21.66 574.18,-13.36"/>
<polygon fill="#63b8ff" stroke="#63b8ff" points="574.76,-16.83 584.42,-12.47 574.15,-9.85 574.76,-16.83"/>
</a>
</g>
</g>
<!-- Node5 -->
<g id="Node000005" class="node">
<title>Node5</title>
<g id="a_Node000005"><a xlink:title=" ">
<polygon fill="#e0e0e0" stroke="#999999" points="261.5,-129 197.5,-129 197.5,-110 261.5,-110 261.5,-129"/>
<text text-anchor="middle" x="229.5" y="-117" font-family="Helvetica,sans-Serif" font-size="10.00">algorithm</text>
</a>
</g>
</g>
<!-- Node2&#45;&gt;Node5 -->
<g id="edge4_Node000002_Node000005" class="edge">
<title>Node2&#45;&gt;Node5</title>
<g id="a_edge4_Node000002_Node000005"><a xlink:title=" ">
<path fill="none" stroke="#63b8ff" d="M397.37,-164.98C363.25,-155.94 309.18,-141.62 271.67,-131.67"/>
<polygon fill="#63b8ff" stroke="#63b8ff" points="272.12,-128.17 261.55,-128.99 270.32,-134.94 272.12,-128.17"/>
</a>
</g>
</g>
<!-- Node6 -->
<g id="Node000006" class="node">
<title>Node6</title>
<g id="a_Node000006"><a xlink:title=" ">
<polygon fill="#e0e0e0" stroke="#999999" points="321.5,-129 279.5,-129 279.5,-110 321.5,-110 321.5,-129"/>
<text text-anchor="middle" x="300.5" y="-117" font-family="Helvetica,sans-Serif" font-size="10.00">array</text>
</a>
</g>
</g>
<!-- Node2&#45;&gt;Node6 -->
<g id="edge5_Node000002_Node000006" class="edge">
<title>Node2&#45;&gt;Node6</title>
<g id="a_edge5_Node000002_Node000006"><a xlink:title=" ">
<path fill="none" stroke="#63b8ff" d="M408.77,-164.98C387.74,-156.34 354.95,-142.87 330.96,-133.02"/>
<polygon fill="#63b8ff" stroke="#63b8ff" points="332.18,-129.73 321.6,-129.17 329.52,-136.21 332.18,-129.73"/>
</a>
</g>
</g>
<!-- Node7 -->
<g id="Node000007" class="node">
<title>Node7</title>
<g id="a_Node000007"><a xlink:title=" ">
<polygon fill="#e0e0e0" stroke="#999999" points="389.5,-129 339.5,-129 339.5,-110 389.5,-110 389.5,-129"/>
<text text-anchor="middle" x="364.5" y="-117" font-family="Helvetica,sans-Serif" font-size="10.00">atomic</text>
</a>
</g>
</g>
<!-- Node2&#45;&gt;Node7 -->
<g id="edge6_Node000002_Node000007" class="edge">
<title>Node2&#45;&gt;Node7</title>
<g id="a_edge6_Node000002_Node000007"><a xlink:title=" ">
<path fill="none" stroke="#63b8ff" d="M419.06,-164.98C409.35,-157.07 394.68,-145.11 383,-135.58"/>
<polygon fill="#63b8ff" stroke="#63b8ff" points="385.1,-132.78 375.13,-129.17 380.67,-138.2 385.1,-132.78"/>
</a>
</g>
</g>
<!-- Node8 -->
<g id="Node000008" class="node">
<title>Node8</title>
<g id="a_Node000008"><a xlink:title=" ">
<polygon fill="#e0e0e0" stroke="#999999" points="451.5,-129 407.5,-129 407.5,-110 451.5,-110 451.5,-129"/>
<text text-anchor="middle" x="429.5" y="-117" font-family="Helvetica,sans-Serif" font-size="10.00">bitset</text>
</a>
</g>
</g>
<!-- Node2&#45;&gt;Node8 -->
<g id="edge7_Node000002_Node000008" class="edge">
<title>Node2&#45;&gt;Node8</title>
<g id="a_edge7_Node000002_Node000008"><a xlink:title=" ">
<path fill="none" stroke="#63b8ff" d="M429.5,-164.75C429.5,-157.8 429.5,-147.85 429.5,-139.13"/>
<polygon fill="#63b8ff" stroke="#63b8ff" points="433,-139.09 429.5,-129.09 426,-139.09 433,-139.09"/>
</a>
</g>
</g>
<!-- Node9 -->
<g id="Node000009" class="node">
<title>Node9</title>
<g id="a_Node000009"><a xlink:title=" ">
<polygon fill="#e0e0e0" stroke="#999999" points="517,-129 470,-129 470,-110 517,-110 517,-129"/>
<text text-anchor="middle" x="493.5" y="-117" font-family="Helvetica,sans-Serif" font-size="10.00">cmath</text>
</a>
</g>
</g>
<!-- Node2&#45;&gt;Node9 -->
<g id="edge8_Node000002_Node000009" class="edge">
<title>Node2&#45;&gt;Node9</title>
<g id="a_edge8_Node000002_Node000009"><a xlink:title=" ">
<path fill="none" stroke="#63b8ff" d="M439.78,-164.98C449.34,-157.07 463.78,-145.11 475.28,-135.58"/>
<polygon fill="#63b8ff" stroke="#63b8ff" points="477.56,-138.24 483.03,-129.17 473.1,-132.85 477.56,-138.24"/>
</a>
</g>
</g>
<!-- Node10 -->
<g id="Node000010" class="node">
<title>Node10</title>
<g id="a_Node000010"><a xlink:title=" ">
<polygon fill="#e0e0e0" stroke="#999999" points="581.5,-129 535.5,-129 535.5,-110 581.5,-110 581.5,-129"/>
<text text-anchor="middle" x="558.5" y="-117" font-family="Helvetica,sans-Serif" font-size="10.00">cstdio</text>
</a>
</g>
</g>
<!-- Node2&#45;&gt;Node10 -->
<g id="edge10_Node000002_Node000010" class="edge">
<title>Node2&#45;&gt;Node10</title>
<g id="a_edge10_Node000002_Node000010"><a xlink:title=" ">
<path fill="none" stroke="#63b8ff" d="M450.23,-164.98C471.26,-156.34 504.05,-142.87 528.04,-133.02"/>
<polygon fill="#63b8ff" stroke="#63b8ff" points="529.48,-136.21 537.4,-129.17 526.82,-129.73 529.48,-136.21"/>
</a>
</g>
</g>
<!-- Node11 -->
<g id="Node000011" class="node">
<title>Node11</title>
<g id="a_Node000011"><a xlink:href="AS5047U__types_8hpp.html" target="_top" xlink:title="Type definitions for the AS5047U driver.">
<polygon fill="white" stroke="#666666" points="666.5,-74 552.5,-74 552.5,-55 666.5,-55 666.5,-74"/>
<text text-anchor="middle" x="609.5" y="-62" font-family="Helvetica,sans-Serif" font-size="10.00">AS5047U_types.hpp</text>
</a>
</g>
</g>
<!-- Node2&#45;&gt;Node11 -->
<g id="edge11_Node000002_Node000011" class="edge">
<title>Node2&#45;&gt;Node11</title>
<g id="a_edge11_Node000002_Node000011"><a xlink:title=" ">
<path fill="none" stroke="#63b8ff" d="M492.88,-170.33C525.92,-165.47 564.7,-154.26 590.5,-129 602.44,-117.31 606.95,-98.46 608.61,-84.32"/>
<polygon fill="#63b8ff" stroke="#63b8ff" points="612.11,-84.48 609.43,-74.23 605.13,-83.91 612.11,-84.48"/>
</a>
</g>
</g>
<!-- Node12 -->
<g id="Node000012" class="node">
<title>Node12</title>
<g id="a_Node000012"><a xlink:href="AS5047U__config_8hpp.html" target="_top" xlink:title=" ">
<polygon fill="white" stroke="#666666" points="753.5,-129 637.5,-129 637.5,-110 753.5,-110 753.5,-129"/>
<text text-anchor="middle" x="695.5" y="-117" font-family="Helvetica,sans-Serif" font-size="10.00">AS5047U_config.hpp</text>
</a>
</g>
</g>
<!-- Node2&#45;&gt;Node12 -->
<g id="edge13_Node000002_Node000012" class="edge">
<title>Node2&#45;&gt;Node12</title>
<g id="a_edge13_Node000002_Node000012"><a xlink:title=" ">
<path fill="none" stroke="#63b8ff" d="M472.24,-164.98C518.54,-155.76 592.48,-141.03 642.46,-131.07"/>
<polygon fill="#63b8ff" stroke="#63b8ff" points="643.3,-134.47 652.43,-129.08 641.94,-127.6 643.3,-134.47"/>
</a>
</g>
</g>
<!-- Node3&#45;&gt;Node4 -->
<g id="edge3_Node000003_Node000004" class="edge">
<title>Node3&#45;&gt;Node4</title>
<g id="a_edge3_Node000003_Node000004"><a xlink:title=" ">
<path fill="none" stroke="#63b8ff" d="M141,-56.44C145.91,-55.95 150.78,-55.47 155.5,-55 311.69,-39.54 498.13,-21.35 574.38,-13.92"/>
<polygon fill="#63b8ff" stroke="#63b8ff" points="574.78,-17.4 584.4,-12.94 574.11,-10.43 574.78,-17.4"/>
</a>
</g>
</g>
<!-- Node11&#45;&gt;Node4 -->
<g id="edge12_Node000011_Node000004" class="edge">
<title>Node11&#45;&gt;Node4</title>
<g id="a_edge12_Node000011_Node000004"><a xlink:title=" ">
<path fill="none" stroke="#63b8ff" d="M609.5,-54.75C609.5,-47.8 609.5,-37.85 609.5,-29.13"/>
<polygon fill="#63b8ff" stroke="#63b8ff" points="613,-29.09 609.5,-19.09 606,-29.09 613,-29.09"/>
</a>
</g>
</g>
<!-- Node12&#45;&gt;Node4 -->
<g id="edge14_Node000012_Node000004" class="edge">
<title>Node12&#45;&gt;Node4</title>
<g id="a_edge14_Node000012_Node000004"><a xlink:title=" ">
<path fill="none" stroke="#63b8ff" d="M694.61,-109.88C692.88,-96.84 688.09,-71.86 675.5,-55 665.79,-41.99 651.09,-31.55 638.03,-24.06"/>
<polygon fill="#63b8ff" stroke="#63b8ff" points="639.36,-20.8 628.9,-19.13 636.04,-26.96 639.36,-20.8"/>
</a>
</g>
</g>
<!-- Node12&#45;&gt;Node11 -->
<g id="edge15_Node000012_Node000011" class="edge">
<title>Node12&#45;&gt;Node11</title>
<g id="a_edge15_Node000012_Node000011"><a xlink:title=" ">
<path fill="none" stroke="#63b8ff" d="M681.68,-109.98C668.35,-101.77 647.92,-89.18 632.19,-79.49"/>
<polygon fill="#63b8ff" stroke="#63b8ff" points="633.92,-76.44 623.57,-74.17 630.25,-82.4 633.92,-76.44"/>
</a>
</g>
</g>
</g>
</svg>
