<?xml version="1.0" encoding="UTF-8" standalone="no"?>
<!DOCTYPE svg PUBLIC "-//W3C//DTD SVG 1.1//EN"
 "http://www.w3.org/Graphics/SVG/1.1/DTD/svg11.dtd">
<!-- Generated by graphviz version 2.43.0 (0)
 -->
<!-- Title: src/AS5047U.cpp Pages: 1 -->
<svg width="852pt" height="148pt"
 viewBox="0.00 0.00 851.50 148.00" xmlns="http://www.w3.org/2000/svg" xmlns:xlink="http://www.w3.org/1999/xlink">
<g id="graph0" class="graph" transform="scale(1 1) rotate(0) translate(4 144)">
<title>src/AS5047U.cpp</title>
<!-- Node1 -->
<g id="Node000001" class="node">
<title>Node1</title>
<g id="a_Node000001"><a xlink:title=" ">
<polygon fill="#999999" stroke="#666666" points="481,-140 383,-140 383,-121 481,-121 481,-140"/>
<text text-anchor="middle" x="432" y="-128" font-family="Helvetica,sans-Serif" font-size="10.00">src/AS5047U.cpp</text>
</a>
</g>
</g>
<!-- Node2 -->
<g id="Node000002" class="node">
<title>Node2</title>
<g id="a_Node000002"><a xlink:href="AS5047U_8hpp.html" target="_top" xlink:title="Driver for AMS AS5047U Magnetic Rotary Position Sensor (C++21).">
<polygon fill="white" stroke="#666666" points="481.5,-85 382.5,-85 382.5,-66 481.5,-66 481.5,-85"/>
<text text-anchor="middle" x="432" y="-73" font-family="Helvetica,sans-Serif" font-size="10.00">inc/AS5047U.hpp</text>
</a>
</g>
</g>
<!-- Node1&#45;&gt;Node2 -->
<g id="edge1_Node000001_Node000002" class="edge">
<title>Node1&#45;&gt;Node2</title>
<g id="a_edge1_Node000001_Node000002"><a xlink:title=" ">
<path fill="none" stroke="#63b8ff" d="M425.51,-110.66C424.91,-101.93 425.36,-91.99 426.87,-85.09"/>
<polygon fill="#63b8ff" stroke="#63b8ff" points="422.06,-111.29 426.83,-120.75 429,-110.38 422.06,-111.29"/>
</a>
</g>
</g>
<!-- Node2&#45;&gt;Node1 -->
<g id="edge7_Node000002_Node000001" class="edge">
<title>Node2&#45;&gt;Node1</title>
<g id="a_edge7_Node000002_Node000001"><a xlink:title=" ">
<path fill="none" stroke="#63b8ff" d="M438.48,-95.13C439.1,-103.85 438.66,-113.8 437.17,-120.75"/>
<polygon fill="#63b8ff" stroke="#63b8ff" points="441.93,-94.53 437.13,-85.09 434.99,-95.47 441.93,-94.53"/>
</a>
</g>
</g>
<!-- Node3 -->
<g id="Node000003" class="node">
<title>Node3</title>
<g id="a_Node000003"><a xlink:href="BasicAngleReadingExample_8cpp.html" target="_top" xlink:title="Basic angle reading example with diagnostics.">
<polygon fill="white" stroke="#666666" points="176,-30 0,-30 0,0 176,0 176,-30"/>
<text text-anchor="start" x="8" y="-18" font-family="Helvetica,sans-Serif" font-size="10.00">examples/esp32/main</text>
<text text-anchor="middle" x="88" y="-7" font-family="Helvetica,sans-Serif" font-size="10.00">/BasicAngleReadingExample.cpp</text>
</a>
</g>
</g>
<!-- Node2&#45;&gt;Node3 -->
<g id="edge2_Node000002_Node000003" class="edge">
<title>Node2&#45;&gt;Node3</title>
<g id="a_edge2_Node000002_Node000003"><a xlink:title=" ">
<path fill="none" stroke="#63b8ff" d="M372.27,-64.34C316.48,-54.86 232.72,-40.61 170.55,-30.04"/>
<polygon fill="#63b8ff" stroke="#63b8ff" points="371.9,-67.83 382.35,-66.06 373.08,-60.93 371.9,-67.83"/>
</a>
</g>
</g>
<!-- Node4 -->
<g id="Node000004" class="node">
<title>Node4</title>
<g id="a_Node000004"><a xlink:href="ConfigurationExample_8cpp.html" target="_top" xlink:title="Configuration example with ABI, UVW, and PWM setup.">
<polygon fill="white" stroke="#666666" points="342,-30 194,-30 194,0 342,0 342,-30"/>
<text text-anchor="start" x="202" y="-18" font-family="Helvetica,sans-Serif" font-size="10.00">examples/esp32/main</text>
<text text-anchor="middle" x="268" y="-7" font-family="Helvetica,sans-Serif" font-size="10.00">/ConfigurationExample.cpp</text>
</a>
</g>
</g>
<!-- Node2&#45;&gt;Node4 -->
<g id="edge3_Node000002_Node000004" class="edge">
<title>Node2&#45;&gt;Node4</title>
<g id="a_edge3_Node000002_Node000004"><a xlink:title=" ">
<path fill="none" stroke="#63b8ff" d="M398.59,-62.58C372.19,-53.16 335.28,-40 307.43,-30.06"/>
<polygon fill="#63b8ff" stroke="#63b8ff" points="397.56,-65.93 408.15,-65.99 399.91,-59.34 397.56,-65.93"/>
</a>
</g>
</g>
<!-- Node5 -->
<g id="Node000005" class="node">
<title>Node5</title>
<g id="a_Node000005"><a xlink:href="DriverIntegrationTest_8cpp.html" target="_top" xlink:title="Comprehensive Integration Test Suite for as5047u::AS5047U Driver.">
<polygon fill="white" stroke="#666666" points="503.5,-30 360.5,-30 360.5,0 503.5,0 503.5,-30"/>
<text text-anchor="start" x="368.5" y="-18" font-family="Helvetica,sans-Serif" font-size="10.00">examples/esp32/main</text>
<text text-anchor="middle" x="432" y="-7" font-family="Helvetica,sans-Serif" font-size="10.00">/DriverIntegrationTest.cpp</text>
</a>
</g>
</g>
<!-- Node2&#45;&gt;Node5 -->
<g id="edge4_Node000002_Node000005" class="edge">
<title>Node2&#45;&gt;Node5</title>
<g id="a_edge4_Node000002_Node000005"><a xlink:title=" ">
<path fill="none" stroke="#63b8ff" d="M432,-55.65C432,-47.36 432,-37.78 432,-30.11"/>
<polygon fill="#63b8ff" stroke="#63b8ff" points="428.5,-55.87 432,-65.87 435.5,-55.87 428.5,-55.87"/>
</a>
</g>
</g>
<!-- Node6 -->
<g id="Node000006" class="node">
<title>Node6</title>
<g id="a_Node000006"><a xlink:href="FullFeaturesExample_8cpp.html" target="_top" xlink:title="Comprehensive example demonstrating all as5047u::AS5047U features.">
<polygon fill="white" stroke="#666666" points="664,-30 522,-30 522,0 664,0 664,-30"/>
<text text-anchor="start" x="530" y="-18" font-family="Helvetica,sans-Serif" font-size="10.00">examples/esp32/main</text>
<text text-anchor="middle" x="593" y="-7" font-family="Helvetica,sans-Serif" font-size="10.00">/FullFeaturesExample.cpp</text>
</a>
</g>
</g>
<!-- Node2&#45;&gt;Node6 -->
<g id="edge5_Node000002_Node000006" class="edge">
<title>Node2&#45;&gt;Node6</title>
<g id="a_edge5_Node000002_Node000006"><a xlink:title=" ">
<path fill="none" stroke="#63b8ff" d="M465.14,-62.46C491.04,-53.05 527.08,-39.95 554.29,-30.06"/>
<polygon fill="#63b8ff" stroke="#63b8ff" points="463.61,-59.29 455.41,-65.99 466,-65.87 463.61,-59.29"/>
</a>
</g>
</g>
<!-- Node7 -->
<g id="Node000007" class="node">
<title>Node7</title>
<g id="a_Node000007"><a xlink:href="VelocityReadingExample_8cpp.html" target="_top" xlink:title="Velocity reading example with unit conversions.">
<polygon fill="white" stroke="#666666" points="843.5,-30 682.5,-30 682.5,0 843.5,0 843.5,-30"/>
<text text-anchor="start" x="690.5" y="-18" font-family="Helvetica,sans-Serif" font-size="10.00">examples/esp32/main</text>
<text text-anchor="middle" x="763" y="-7" font-family="Helvetica,sans-Serif" font-size="10.00">/VelocityReadingExample.cpp</text>
</a>
</g>
</g>
<!-- Node2&#45;&gt;Node7 -->
<g id="edge6_Node000002_Node000007" class="edge">
<title>Node2&#45;&gt;Node7</title>
<g id="a_edge6_Node000002_Node000007"><a xlink:title=" ">
<path fill="none" stroke="#63b8ff" d="M490.18,-64.22C543.9,-54.72 624.17,-40.54 683.74,-30.01"/>
<polygon fill="#63b8ff" stroke="#63b8ff" points="489.37,-60.81 480.13,-65.99 490.59,-67.7 489.37,-60.81"/>
</a>
</g>
</g>
</g>
</svg>
