<?xml version="1.0" encoding="UTF-8" standalone="no"?>
<!DOCTYPE svg PUBLIC "-//W3C//DTD SVG 1.1//EN"
 "http://www.w3.org/Graphics/SVG/1.1/DTD/svg11.dtd">
<!-- Generated by graphviz version 2.43.0 (0)
 -->
<!-- Title: inc/AS5047U.hpp Pages: 1 -->
<svg width="887pt" height="192pt"
 viewBox="0.00 0.00 887.00 192.00" xmlns="http://www.w3.org/2000/svg" xmlns:xlink="http://www.w3.org/1999/xlink">
<g id="graph0" class="graph" transform="scale(1 1) rotate(0) translate(4 188)">
<title>inc/AS5047U.hpp</title>
<!-- Node1 -->
<g id="Node000001" class="node">
<title>Node1</title>
<g id="a_Node000001"><a xlink:title="Driver for AMS AS5047U Magnetic Rotary Position Sensor (C++21).">
<polygon fill="#999999" stroke="#666666" points="511,-184 412,-184 412,-165 511,-165 511,-184"/>
<text text-anchor="middle" x="461.5" y="-172" font-family="Helvetica,sans-Serif" font-size="10.00">inc/AS5047U.hpp</text>
</a>
</g>
</g>
<!-- Node2 -->
<g id="Node000002" class="node">
<title>Node2</title>
<g id="a_Node000002"><a xlink:href="AS5047U__REGISTERS_8hpp.html" target="_top" xlink:title="Register definitions for the AS5047U Rotary Position Sensor.">
<polygon fill="white" stroke="#666666" points="141,-74 0,-74 0,-55 141,-55 141,-74"/>
<text text-anchor="middle" x="70.5" y="-62" font-family="Helvetica,sans-Serif" font-size="10.00">AS5047U_REGISTERS.hpp</text>
</a>
</g>
</g>
<!-- Node1&#45;&gt;Node2 -->
<g id="edge1_Node000001_Node000002" class="edge">
<title>Node1&#45;&gt;Node2</title>
<g id="a_edge1_Node000001_Node000002"><a xlink:title=" ">
<path fill="none" stroke="#63b8ff" d="M411.83,-173.69C349.61,-172.29 240.8,-164.36 155.5,-129 128.55,-117.83 102.41,-96.17 86.39,-81.28"/>
<polygon fill="#63b8ff" stroke="#63b8ff" points="88.64,-78.58 78.99,-74.2 83.8,-83.64 88.64,-78.58"/>
</a>
</g>
</g>
<!-- Node3 -->
<g id="Node000003" class="node">
<title>Node3</title>
<g id="a_Node000003"><a xlink:title=" ">
<polygon fill="#e0e0e0" stroke="#999999" points="414.5,-19 364.5,-19 364.5,0 414.5,0 414.5,-19"/>
<text text-anchor="middle" x="389.5" y="-7" font-family="Helvetica,sans-Serif" font-size="10.00">cstdint</text>
</a>
</g>
</g>
<!-- Node1&#45;&gt;Node3 -->
<g id="edge8_Node000001_Node000003" class="edge">
<title>Node1&#45;&gt;Node3</title>
<g id="a_edge8_Node000001_Node000003"><a xlink:title=" ">
<path fill="none" stroke="#63b8ff" d="M411.89,-172.8C341.12,-170.62 216.61,-162.06 188.5,-129 136.84,-68.23 283.54,-30.84 354.04,-16.82"/>
<polygon fill="#63b8ff" stroke="#63b8ff" points="355.1,-20.18 364.26,-14.84 353.78,-13.3 355.1,-20.18"/>
</a>
</g>
</g>
<!-- Node4 -->
<g id="Node000004" class="node">
<title>Node4</title>
<g id="a_Node000004"><a xlink:title=" ">
<polygon fill="#e0e0e0" stroke="#999999" points="261.5,-129 197.5,-129 197.5,-110 261.5,-110 261.5,-129"/>
<text text-anchor="middle" x="229.5" y="-117" font-family="Helvetica,sans-Serif" font-size="10.00">algorithm</text>
</a>
</g>
</g>
<!-- Node1&#45;&gt;Node4 -->
<g id="edge3_Node000001_Node000004" class="edge">
<title>Node1&#45;&gt;Node4</title>
<g id="a_edge3_Node000001_Node000004"><a xlink:title=" ">
<path fill="none" stroke="#63b8ff" d="M424.23,-164.98C382.6,-155.48 315.38,-140.12 271.81,-130.17"/>
<polygon fill="#63b8ff" stroke="#63b8ff" points="272.35,-126.7 261.82,-127.88 270.79,-133.52 272.35,-126.7"/>
</a>
</g>
</g>
<!-- Node5 -->
<g id="Node000005" class="node">
<title>Node5</title>
<g id="a_Node000005"><a xlink:title=" ">
<polygon fill="#e0e0e0" stroke="#999999" points="321.5,-129 279.5,-129 279.5,-110 321.5,-110 321.5,-129"/>
<text text-anchor="middle" x="300.5" y="-117" font-family="Helvetica,sans-Serif" font-size="10.00">array</text>
</a>
</g>
</g>
<!-- Node1&#45;&gt;Node5 -->
<g id="edge4_Node000001_Node000005" class="edge">
<title>Node1&#45;&gt;Node5</title>
<g id="a_edge4_Node000001_Node000005"><a xlink:title=" ">
<path fill="none" stroke="#63b8ff" d="M435.63,-164.98C407.2,-155.63 361.56,-140.6 331.3,-130.64"/>
<polygon fill="#63b8ff" stroke="#63b8ff" points="332.27,-127.27 321.68,-127.47 330.08,-133.92 332.27,-127.27"/>
</a>
</g>
</g>
<!-- Node6 -->
<g id="Node000006" class="node">
<title>Node6</title>
<g id="a_Node000006"><a xlink:title=" ">
<polygon fill="#e0e0e0" stroke="#999999" points="389.5,-129 339.5,-129 339.5,-110 389.5,-110 389.5,-129"/>
<text text-anchor="middle" x="364.5" y="-117" font-family="Helvetica,sans-Serif" font-size="10.00">atomic</text>
</a>
</g>
</g>
<!-- Node1&#45;&gt;Node6 -->
<g id="edge5_Node000001_Node000006" class="edge">
<title>Node1&#45;&gt;Node6</title>
<g id="a_edge5_Node000001_Node000006"><a xlink:title=" ">
<path fill="none" stroke="#63b8ff" d="M445.92,-164.98C430.73,-156.69 407.4,-143.94 389.6,-134.22"/>
<polygon fill="#63b8ff" stroke="#63b8ff" points="390.82,-130.89 380.37,-129.17 387.47,-137.04 390.82,-130.89"/>
</a>
</g>
</g>
<!-- Node7 -->
<g id="Node000007" class="node">
<title>Node7</title>
<g id="a_Node000007"><a xlink:title=" ">
<polygon fill="#e0e0e0" stroke="#999999" points="451.5,-129 407.5,-129 407.5,-110 451.5,-110 451.5,-129"/>
<text text-anchor="middle" x="429.5" y="-117" font-family="Helvetica,sans-Serif" font-size="10.00">bitset</text>
</a>
</g>
</g>
<!-- Node1&#45;&gt;Node7 -->
<g id="edge6_Node000001_Node000007" class="edge">
<title>Node1&#45;&gt;Node7</title>
<g id="a_edge6_Node000001_Node000007"><a xlink:title=" ">
<path fill="none" stroke="#63b8ff" d="M456.22,-164.75C451.79,-157.42 445.34,-146.73 439.88,-137.7"/>
<polygon fill="#63b8ff" stroke="#63b8ff" points="442.85,-135.84 434.69,-129.09 436.86,-139.46 442.85,-135.84"/>
</a>
</g>
</g>
<!-- Node8 -->
<g id="Node000008" class="node">
<title>Node8</title>
<g id="a_Node000008"><a xlink:title=" ">
<polygon fill="#e0e0e0" stroke="#999999" points="517,-129 470,-129 470,-110 517,-110 517,-129"/>
<text text-anchor="middle" x="493.5" y="-117" font-family="Helvetica,sans-Serif" font-size="10.00">cmath</text>
</a>
</g>
</g>
<!-- Node1&#45;&gt;Node8 -->
<g id="edge7_Node000001_Node000008" class="edge">
<title>Node1&#45;&gt;Node8</title>
<g id="a_edge7_Node000001_Node000008"><a xlink:title=" ">
<path fill="none" stroke="#63b8ff" d="M466.78,-164.75C471.21,-157.42 477.66,-146.73 483.12,-137.7"/>
<polygon fill="#63b8ff" stroke="#63b8ff" points="486.14,-139.46 488.31,-129.09 480.15,-135.84 486.14,-139.46"/>
</a>
</g>
</g>
<!-- Node9 -->
<g id="Node000009" class="node">
<title>Node9</title>
<g id="a_Node000009"><a xlink:title=" ">
<polygon fill="#e0e0e0" stroke="#999999" points="581.5,-129 535.5,-129 535.5,-110 581.5,-110 581.5,-129"/>
<text text-anchor="middle" x="558.5" y="-117" font-family="Helvetica,sans-Serif" font-size="10.00">cstdio</text>
</a>
</g>
</g>
<!-- Node1&#45;&gt;Node9 -->
<g id="edge9_Node000001_Node000009" class="edge">
<title>Node1&#45;&gt;Node9</title>
<g id="a_edge9_Node000001_Node000009"><a xlink:title=" ">
<path fill="none" stroke="#63b8ff" d="M477.08,-164.98C492.27,-156.69 515.6,-143.94 533.4,-134.22"/>
<polygon fill="#63b8ff" stroke="#63b8ff" points="535.53,-137.04 542.63,-129.17 532.18,-130.89 535.53,-137.04"/>
</a>
</g>
</g>
<!-- Node10 -->
<g id="Node000010" class="node">
<title>Node10</title>
<g id="a_Node000010"><a xlink:href="AS5047U__types_8hpp.html" target="_top" xlink:title="Type definitions for the AS5047U driver.">
<polygon fill="white" stroke="#666666" points="666.5,-74 552.5,-74 552.5,-55 666.5,-55 666.5,-74"/>
<text text-anchor="middle" x="609.5" y="-62" font-family="Helvetica,sans-Serif" font-size="10.00">AS5047U_types.hpp</text>
</a>
</g>
</g>
<!-- Node1&#45;&gt;Node10 -->
<g id="edge10_Node000001_Node000010" class="edge">
<title>Node1&#45;&gt;Node10</title>
<g id="a_edge10_Node000001_Node000010"><a xlink:title=" ">
<path fill="none" stroke="#63b8ff" d="M511.21,-167.46C538.01,-161.75 569.75,-150.63 590.5,-129 602.07,-116.94 606.62,-98.14 608.4,-84.12"/>
<polygon fill="#63b8ff" stroke="#63b8ff" points="611.89,-84.39 609.32,-74.12 604.92,-83.76 611.89,-84.39"/>
</a>
</g>
</g>
<!-- Node11 -->
<g id="Node000011" class="node">
<title>Node11</title>
<g id="a_Node000011"><a xlink:href="AS5047U__config_8hpp.html" target="_top" xlink:title=" ">
<polygon fill="white" stroke="#666666" points="753.5,-129 637.5,-129 637.5,-110 753.5,-110 753.5,-129"/>
<text text-anchor="middle" x="695.5" y="-117" font-family="Helvetica,sans-Serif" font-size="10.00">AS5047U_config.hpp</text>
</a>
</g>
</g>
<!-- Node1&#45;&gt;Node11 -->
<g id="edge12_Node000001_Node000011" class="edge">
<title>Node1&#45;&gt;Node11</title>
<g id="a_edge12_Node000001_Node000011"><a xlink:title=" ">
<path fill="none" stroke="#63b8ff" d="M499.1,-164.98C539.49,-155.84 603.78,-141.27 647.73,-131.32"/>
<polygon fill="#63b8ff" stroke="#63b8ff" points="648.63,-134.7 657.61,-129.08 647.08,-127.88 648.63,-134.7"/>
</a>
</g>
</g>
<!-- Node12 -->
<g id="Node000012" class="node">
<title>Node12</title>
<g id="a_Node000012"><a xlink:href="AS5047U_8cpp.html" target="_top" xlink:title=" ">
<polygon fill="white" stroke="#666666" points="879,-129 772,-129 772,-110 879,-110 879,-129"/>
<text text-anchor="middle" x="825.5" y="-117" font-family="Helvetica,sans-Serif" font-size="10.00">../src/AS5047U.cpp</text>
</a>
</g>
</g>
<!-- Node1&#45;&gt;Node12 -->
<g id="edge15_Node000001_Node000012" class="edge">
<title>Node1&#45;&gt;Node12</title>
<g id="a_edge15_Node000001_Node000012"><a xlink:title=" ">
<path fill="none" stroke="#63b8ff" d="M511.01,-165.57C576.09,-155.75 690.31,-139.12 761.76,-129.04"/>
<polygon fill="#63b8ff" stroke="#63b8ff" points="762.57,-132.46 771.98,-127.6 761.59,-125.52 762.57,-132.46"/>
</a>
</g>
</g>
<!-- Node2&#45;&gt;Node3 -->
<g id="edge2_Node000002_Node000003" class="edge">
<title>Node2&#45;&gt;Node3</title>
<g id="a_edge2_Node000002_Node000003"><a xlink:title=" ">
<path fill="none" stroke="#63b8ff" d="M121.75,-54.98C186.94,-44.15 297.81,-25.73 354.24,-16.36"/>
<polygon fill="#63b8ff" stroke="#63b8ff" points="355.16,-19.75 364.45,-14.66 354.01,-12.85 355.16,-19.75"/>
</a>
</g>
</g>
<!-- Node10&#45;&gt;Node3 -->
<g id="edge11_Node000010_Node000003" class="edge">
<title>Node10&#45;&gt;Node3</title>
<g id="a_edge11_Node000010_Node000003"><a xlink:title=" ">
<path fill="none" stroke="#63b8ff" d="M574.15,-54.98C533.06,-45.08 465.65,-28.84 424.64,-18.97"/>
<polygon fill="#63b8ff" stroke="#63b8ff" points="425.36,-15.54 414.82,-16.6 423.72,-22.34 425.36,-15.54"/>
</a>
</g>
</g>
<!-- Node11&#45;&gt;Node3 -->
<g id="edge13_Node000011_Node000003" class="edge">
<title>Node11&#45;&gt;Node3</title>
<g id="a_edge13_Node000011_Node000003"><a xlink:title=" ">
<path fill="none" stroke="#63b8ff" d="M695.49,-110C694.97,-96.18 691.8,-69.01 675.5,-55 638.51,-23.21 493.18,-14.04 425.07,-11.47"/>
<polygon fill="#63b8ff" stroke="#63b8ff" points="424.95,-7.96 414.84,-11.11 424.71,-14.96 424.95,-7.96"/>
</a>
</g>
</g>
<!-- Node11&#45;&gt;Node10 -->
<g id="edge14_Node000011_Node000010" class="edge">
<title>Node11&#45;&gt;Node10</title>
<g id="a_edge14_Node000011_Node000010"><a xlink:title=" ">
<path fill="none" stroke="#63b8ff" d="M681.68,-109.98C668.35,-101.77 647.92,-89.18 632.19,-79.49"/>
<polygon fill="#63b8ff" stroke="#63b8ff" points="633.92,-76.44 623.57,-74.17 630.25,-82.4 633.92,-76.44"/>
</a>
</g>
</g>
<!-- Node12&#45;&gt;Node1 -->
<g id="edge16_Node000012_Node000001" class="edge">
<title>Node12&#45;&gt;Node1</title>
<g id="a_edge16_Node000012_Node000001"><a xlink:title=" ">
<path fill="none" stroke="#63b8ff" d="M772.2,-129.01C705.24,-139.08 590.87,-155.73 521.09,-165.55"/>
<polygon fill="#63b8ff" stroke="#63b8ff" points="520.54,-162.09 511.13,-166.95 521.52,-169.02 520.54,-162.09"/>
</a>
</g>
</g>
<!-- Node13 -->
<g id="Node000013" class="node">
<title>Node13</title>
<g id="a_Node000013"><a xlink:title=" ">
<polygon fill="#e0e0e0" stroke="#999999" points="853.5,-74 797.5,-74 797.5,-55 853.5,-55 853.5,-74"/>
<text text-anchor="middle" x="825.5" y="-62" font-family="Helvetica,sans-Serif" font-size="10.00">iomanip</text>
</a>
</g>
</g>
<!-- Node12&#45;&gt;Node13 -->
<g id="edge17_Node000012_Node000013" class="edge">
<title>Node12&#45;&gt;Node13</title>
<g id="a_edge17_Node000012_Node000013"><a xlink:title=" ">
<path fill="none" stroke="#63b8ff" d="M825.5,-109.75C825.5,-102.8 825.5,-92.85 825.5,-84.13"/>
<polygon fill="#63b8ff" stroke="#63b8ff" points="829,-84.09 825.5,-74.09 822,-84.09 829,-84.09"/>
</a>
</g>
</g>
</g>
</svg>
