<?xml version="1.0" encoding="UTF-8" standalone="no"?>
<!DOCTYPE svg PUBLIC "-//W3C//DTD SVG 1.1//EN"
 "http://www.w3.org/Graphics/SVG/1.1/DTD/svg11.dtd">
<!-- Generated by graphviz version 2.43.0 (0)
 -->
<!-- Title: src/AS5047U.cpp Pages: 1 -->
<svg width="999pt" height="214pt"
 viewBox="0.00 0.00 998.50 214.00" xmlns="http://www.w3.org/2000/svg" xmlns:xlink="http://www.w3.org/1999/xlink">
<g id="graph0" class="graph" transform="scale(1 1) rotate(0) translate(4 210)">
<title>src/AS5047U.cpp</title>
<!-- Node1 -->
<g id="Node000001" class="node">
<title>Node1</title>
<g id="a_Node000001"><a xlink:title=" ">
<polygon fill="#999999" stroke="#666666" points="527,-206 429,-206 429,-187 527,-187 527,-206"/>
<text text-anchor="middle" x="478" y="-194" font-family="Helvetica,sans-Serif" font-size="10.00">src/AS5047U.cpp</text>
</a>
</g>
</g>
<!-- Node2 -->
<g id="Node000002" class="node">
<title>Node2</title>
<g id="a_Node000002"><a xlink:href="AS5047U_8hpp.html" target="_top" xlink:title="Driver for AMS AS5047U Magnetic Rotary Position Sensor (C++21).">
<polygon fill="white" stroke="#666666" points="527.5,-151 428.5,-151 428.5,-132 527.5,-132 527.5,-151"/>
<text text-anchor="middle" x="478" y="-139" font-family="Helvetica,sans-Serif" font-size="10.00">inc/AS5047U.hpp</text>
</a>
</g>
</g>
<!-- Node1&#45;&gt;Node2 -->
<g id="edge1_Node000001_Node000002" class="edge">
<title>Node1&#45;&gt;Node2</title>
<g id="a_edge1_Node000001_Node000002"><a xlink:title=" ">
<path fill="none" stroke="#63b8ff" d="M471.51,-176.66C470.91,-167.93 471.36,-157.99 472.87,-151.09"/>
<polygon fill="#63b8ff" stroke="#63b8ff" points="468.06,-177.29 472.83,-186.75 475,-176.38 468.06,-177.29"/>
</a>
</g>
</g>
<!-- Node2&#45;&gt;Node1 -->
<g id="edge14_Node000002_Node000001" class="edge">
<title>Node2&#45;&gt;Node1</title>
<g id="a_edge14_Node000002_Node000001"><a xlink:title=" ">
<path fill="none" stroke="#63b8ff" d="M484.48,-161.13C485.1,-169.85 484.66,-179.8 483.17,-186.75"/>
<polygon fill="#63b8ff" stroke="#63b8ff" points="487.93,-160.53 483.13,-151.09 480.99,-161.47 487.93,-160.53"/>
</a>
</g>
</g>
<!-- Node3 -->
<g id="Node000003" class="node">
<title>Node3</title>
<g id="a_Node000003"><a xlink:href="BasicAngleReadingExample_8cpp.html" target="_top" xlink:title="Basic angle reading example with diagnostics.">
<polygon fill="white" stroke="#666666" points="176,-30 0,-30 0,0 176,0 176,-30"/>
<text text-anchor="start" x="8" y="-18" font-family="Helvetica,sans-Serif" font-size="10.00">examples/esp32/main</text>
<text text-anchor="middle" x="88" y="-7" font-family="Helvetica,sans-Serif" font-size="10.00">/BasicAngleReadingExample.cpp</text>
</a>
</g>
</g>
<!-- Node2&#45;&gt;Node3 -->
<g id="edge2_Node000002_Node000003" class="edge">
<title>Node2&#45;&gt;Node3</title>
<g id="a_edge2_Node000002_Node000003"><a xlink:title=" ">
<path fill="none" stroke="#63b8ff" d="M441.66,-128.9C369.79,-105.96 209.75,-54.87 132.04,-30.06"/>
<polygon fill="#63b8ff" stroke="#63b8ff" points="440.6,-132.24 451.19,-131.94 442.73,-125.57 440.6,-132.24"/>
</a>
</g>
</g>
<!-- Node4 -->
<g id="Node000004" class="node">
<title>Node4</title>
<g id="a_Node000004"><a xlink:href="ConfigurationExample_8cpp.html" target="_top" xlink:title="Configuration example with ABI, UVW, and PWM setup.">
<polygon fill="white" stroke="#666666" points="342,-30 194,-30 194,0 342,0 342,-30"/>
<text text-anchor="start" x="202" y="-18" font-family="Helvetica,sans-Serif" font-size="10.00">examples/esp32/main</text>
<text text-anchor="middle" x="268" y="-7" font-family="Helvetica,sans-Serif" font-size="10.00">/ConfigurationExample.cpp</text>
</a>
</g>
</g>
<!-- Node2&#45;&gt;Node4 -->
<g id="edge3_Node000002_Node000004" class="edge">
<title>Node2&#45;&gt;Node4</title>
<g id="a_edge3_Node000002_Node000004"><a xlink:title=" ">
<path fill="none" stroke="#63b8ff" d="M454.75,-126.72C414.56,-102.89 332.51,-54.25 291.89,-30.16"/>
<polygon fill="#63b8ff" stroke="#63b8ff" points="453.18,-129.85 463.57,-131.94 456.75,-123.83 453.18,-129.85"/>
</a>
</g>
</g>
<!-- Node5 -->
<g id="Node000005" class="node">
<title>Node5</title>
<g id="a_Node000005"><a xlink:href="DriverIntegrationTest_8cpp.html" target="_top" xlink:title="Comprehensive Integration Test Suite for AS5047U Driver.">
<polygon fill="white" stroke="#666666" points="503.5,-30 360.5,-30 360.5,0 503.5,0 503.5,-30"/>
<text text-anchor="start" x="368.5" y="-18" font-family="Helvetica,sans-Serif" font-size="10.00">examples/esp32/main</text>
<text text-anchor="middle" x="432" y="-7" font-family="Helvetica,sans-Serif" font-size="10.00">/DriverIntegrationTest.cpp</text>
</a>
</g>
</g>
<!-- Node2&#45;&gt;Node5 -->
<g id="edge4_Node000002_Node000005" class="edge">
<title>Node2&#45;&gt;Node5</title>
<g id="a_edge4_Node000002_Node000005"><a xlink:title=" ">
<path fill="none" stroke="#63b8ff" d="M465.84,-123.32C460.65,-115.32 454.89,-105.49 451,-96 441.95,-73.94 436.62,-46.62 434.01,-30.29"/>
<polygon fill="#63b8ff" stroke="#63b8ff" points="463.04,-125.42 471.54,-131.74 468.83,-121.49 463.04,-125.42"/>
</a>
</g>
</g>
<!-- Node6 -->
<g id="Node000006" class="node">
<title>Node6</title>
<g id="a_Node000006"><a xlink:href="Esp32As5047uBus_8hpp.html" target="_top" xlink:title="ESP32 SPI transport implementation for AS5047U driver.">
<polygon fill="white" stroke="#666666" points="590,-96 460,-96 460,-66 590,-66 590,-96"/>
<text text-anchor="start" x="468" y="-84" font-family="Helvetica,sans-Serif" font-size="10.00">examples/esp32/main</text>
<text text-anchor="middle" x="525" y="-73" font-family="Helvetica,sans-Serif" font-size="10.00">/Esp32As5047uBus.hpp</text>
</a>
</g>
</g>
<!-- Node2&#45;&gt;Node6 -->
<g id="edge5_Node000002_Node000006" class="edge">
<title>Node2&#45;&gt;Node6</title>
<g id="a_edge5_Node000002_Node000006"><a xlink:title=" ">
<path fill="none" stroke="#63b8ff" d="M491.35,-123.88C498.39,-115.11 506.94,-104.48 513.66,-96.11"/>
<polygon fill="#63b8ff" stroke="#63b8ff" points="488.47,-121.88 484.94,-131.87 493.93,-126.26 488.47,-121.88"/>
</a>
</g>
</g>
<!-- Node8 -->
<g id="Node000008" class="node">
<title>Node8</title>
<g id="a_Node000008"><a xlink:href="FullFeaturesExample_8cpp.html" target="_top" xlink:title="Comprehensive example demonstrating all AS5047U features.">
<polygon fill="white" stroke="#666666" points="811,-30 669,-30 669,0 811,0 811,-30"/>
<text text-anchor="start" x="677" y="-18" font-family="Helvetica,sans-Serif" font-size="10.00">examples/esp32/main</text>
<text text-anchor="middle" x="740" y="-7" font-family="Helvetica,sans-Serif" font-size="10.00">/FullFeaturesExample.cpp</text>
</a>
</g>
</g>
<!-- Node2&#45;&gt;Node8 -->
<g id="edge12_Node000002_Node000008" class="edge">
<title>Node2&#45;&gt;Node8</title>
<g id="a_edge12_Node000002_Node000008"><a xlink:title=" ">
<path fill="none" stroke="#63b8ff" d="M514.98,-128.66C539.27,-120.45 571.52,-108.75 599,-96 642.41,-75.87 690.34,-47.2 717.65,-30.2"/>
<polygon fill="#63b8ff" stroke="#63b8ff" points="513.81,-125.36 505.43,-131.84 516.02,-132 513.81,-125.36"/>
</a>
</g>
</g>
<!-- Node9 -->
<g id="Node000009" class="node">
<title>Node9</title>
<g id="a_Node000009"><a xlink:href="VelocityReadingExample_8cpp.html" target="_top" xlink:title="Velocity reading example with unit conversions.">
<polygon fill="white" stroke="#666666" points="990.5,-30 829.5,-30 829.5,0 990.5,0 990.5,-30"/>
<text text-anchor="start" x="837.5" y="-18" font-family="Helvetica,sans-Serif" font-size="10.00">examples/esp32/main</text>
<text text-anchor="middle" x="910" y="-7" font-family="Helvetica,sans-Serif" font-size="10.00">/VelocityReadingExample.cpp</text>
</a>
</g>
</g>
<!-- Node2&#45;&gt;Node9 -->
<g id="edge13_Node000002_Node000009" class="edge">
<title>Node2&#45;&gt;Node9</title>
<g id="a_edge13_Node000002_Node000009"><a xlink:title=" ">
<path fill="none" stroke="#63b8ff" d="M519.98,-129.32C552.94,-120.47 599.97,-107.7 641,-96 719.48,-73.62 810.42,-46.28 863.92,-30.05"/>
<polygon fill="#63b8ff" stroke="#63b8ff" points="518.98,-125.96 510.22,-131.93 520.79,-132.72 518.98,-125.96"/>
</a>
</g>
</g>
<!-- Node6&#45;&gt;Node3 -->
<g id="edge6_Node000006_Node000003" class="edge">
<title>Node6&#45;&gt;Node3</title>
<g id="a_edge6_Node000006_Node000003"><a xlink:title=" ">
<path fill="none" stroke="#63b8ff" d="M449.6,-68.96C373.62,-57.83 256.43,-40.67 176.19,-28.92"/>
<polygon fill="#63b8ff" stroke="#63b8ff" points="449.18,-72.43 459.58,-70.42 450.19,-65.51 449.18,-72.43"/>
</a>
</g>
</g>
<!-- Node6&#45;&gt;Node4 -->
<g id="edge7_Node000006_Node000004" class="edge">
<title>Node6&#45;&gt;Node4</title>
<g id="a_edge7_Node000006_Node000004"><a xlink:title=" ">
<path fill="none" stroke="#63b8ff" d="M458.81,-63.52C417.13,-53.14 363.91,-39.88 324.27,-30.01"/>
<polygon fill="#63b8ff" stroke="#63b8ff" points="458.05,-66.93 468.6,-65.95 459.74,-60.14 458.05,-66.93"/>
</a>
</g>
</g>
<!-- Node6&#45;&gt;Node5 -->
<g id="edge8_Node000006_Node000005" class="edge">
<title>Node6&#45;&gt;Node5</title>
<g id="a_edge8_Node000006_Node000005"><a xlink:title=" ">
<path fill="none" stroke="#63b8ff" d="M495.98,-60.03C481.91,-50.34 465.33,-38.94 452.58,-30.16"/>
<polygon fill="#63b8ff" stroke="#63b8ff" points="494.14,-63.01 504.36,-65.8 498.11,-57.24 494.14,-63.01"/>
</a>
</g>
</g>
<!-- Node7 -->
<g id="Node000007" class="node">
<title>Node7</title>
<g id="a_Node000007"><a xlink:href="Esp32As5047uBus_8cpp.html" target="_top" xlink:title="ESP32 SPI transport implementation for AS5047U driver.">
<polygon fill="white" stroke="#666666" points="650.5,-30 521.5,-30 521.5,0 650.5,0 650.5,-30"/>
<text text-anchor="start" x="529.5" y="-18" font-family="Helvetica,sans-Serif" font-size="10.00">examples/esp32/main</text>
<text text-anchor="middle" x="586" y="-7" font-family="Helvetica,sans-Serif" font-size="10.00">/Esp32As5047uBus.cpp</text>
</a>
</g>
</g>
<!-- Node6&#45;&gt;Node7 -->
<g id="edge9_Node000006_Node000007" class="edge">
<title>Node6&#45;&gt;Node7</title>
<g id="a_edge9_Node000006_Node000007"><a xlink:title=" ">
<path fill="none" stroke="#63b8ff" d="M545.62,-58.37C554.49,-49.06 564.61,-38.44 572.5,-30.16"/>
<polygon fill="#63b8ff" stroke="#63b8ff" points="542.9,-56.14 538.54,-65.8 547.97,-60.97 542.9,-56.14"/>
</a>
</g>
</g>
<!-- Node6&#45;&gt;Node8 -->
<g id="edge10_Node000006_Node000008" class="edge">
<title>Node6&#45;&gt;Node8</title>
<g id="a_edge10_Node000006_Node000008"><a xlink:title=" ">
<path fill="none" stroke="#63b8ff" d="M582.15,-62.99C616.74,-52.69 660.33,-39.72 692.93,-30.01"/>
<polygon fill="#63b8ff" stroke="#63b8ff" points="580.77,-59.75 572.18,-65.95 582.77,-66.46 580.77,-59.75"/>
</a>
</g>
</g>
<!-- Node6&#45;&gt;Node9 -->
<g id="edge11_Node000006_Node000009" class="edge">
<title>Node6&#45;&gt;Node9</title>
<g id="a_edge11_Node000006_Node000009"><a xlink:title=" ">
<path fill="none" stroke="#63b8ff" d="M600.22,-67.5C666.17,-56.53 761.79,-40.64 829.31,-29.41"/>
<polygon fill="#63b8ff" stroke="#63b8ff" points="599.6,-64.05 590.31,-69.14 600.75,-70.96 599.6,-64.05"/>
</a>
</g>
</g>
</g>
</svg>
