<?xml version="1.0" encoding="UTF-8" standalone="no"?>
<!DOCTYPE svg PUBLIC "-//W3C//DTD SVG 1.1//EN"
 "http://www.w3.org/Graphics/SVG/1.1/DTD/svg11.dtd">
<!-- Generated by graphviz version 2.43.0 (0)
 -->
<!-- Title: src/as5047u.ipp Pages: 1 -->
<svg width="1076pt" height="247pt"
 viewBox="0.00 0.00 1076.00 247.00" xmlns="http://www.w3.org/2000/svg" xmlns:xlink="http://www.w3.org/1999/xlink">
<g id="graph0" class="graph" transform="scale(1 1) rotate(0) translate(4 243)">
<title>src/as5047u.ipp</title>
<!-- Node1 -->
<g id="Node000001" class="node">
<title>Node1</title>
<g id="a_Node000001"><a xlink:title="Template implementation of AS5047U driver methods.">
<polygon fill="#999999" stroke="#666666" points="613,-239 520,-239 520,-220 613,-220 613,-239"/>
<text text-anchor="middle" x="566.5" y="-227" font-family="Helvetica,sans-Serif" font-size="10.00">src/as5047u.ipp</text>
</a>
</g>
</g>
<!-- Node2 -->
<g id="Node000002" class="node">
<title>Node2</title>
<g id="a_Node000002"><a xlink:href="as5047u_8hpp.html" target="_top" xlink:title="Driver for AMS AS5047U Magnetic Rotary Position Sensor (C++21)">
<polygon fill="white" stroke="#666666" points="619,-184 514,-184 514,-165 619,-165 619,-184"/>
<text text-anchor="middle" x="566.5" y="-172" font-family="Helvetica,sans-Serif" font-size="10.00">../inc/as5047u.hpp</text>
</a>
</g>
</g>
<!-- Node1&#45;&gt;Node2 -->
<g id="edge1_Node000001_Node000002" class="edge">
<title>Node1&#45;&gt;Node2</title>
<g id="a_edge1_Node000001_Node000002"><a xlink:title=" ">
<path fill="none" stroke="#63b8ff" d="M561.33,-219.75C559.84,-212.8 559.4,-202.85 560.02,-194.13"/>
<polygon fill="#63b8ff" stroke="#63b8ff" points="563.51,-194.47 561.37,-184.09 556.57,-193.53 563.51,-194.47"/>
</a>
</g>
</g>
<!-- Node18 -->
<g id="Node000018" class="node">
<title>Node18</title>
<g id="a_Node000018"><a xlink:title=" ">
<polygon fill="#e0e0e0" stroke="#999999" points="693.5,-184 637.5,-184 637.5,-165 693.5,-165 693.5,-184"/>
<text text-anchor="middle" x="665.5" y="-172" font-family="Helvetica,sans-Serif" font-size="10.00">iomanip</text>
</a>
</g>
</g>
<!-- Node1&#45;&gt;Node18 -->
<g id="edge23_Node000001_Node000018" class="edge">
<title>Node1&#45;&gt;Node18</title>
<g id="a_edge23_Node000001_Node000018"><a xlink:title=" ">
<path fill="none" stroke="#63b8ff" d="M582.41,-219.98C598.05,-211.61 622.16,-198.7 640.38,-188.95"/>
<polygon fill="#63b8ff" stroke="#63b8ff" points="642.14,-191.98 649.3,-184.17 638.84,-185.8 642.14,-191.98"/>
</a>
</g>
</g>
<!-- Node2&#45;&gt;Node1 -->
<g id="edge22_Node000002_Node000001" class="edge">
<title>Node2&#45;&gt;Node1</title>
<g id="a_edge22_Node000002_Node000001"><a xlink:title=" ">
<path fill="none" stroke="#63b8ff" d="M571.63,-184.09C573.14,-190.99 573.59,-200.93 572.99,-209.66"/>
<polygon fill="#63b8ff" stroke="#63b8ff" points="569.5,-209.38 571.67,-219.75 576.44,-210.29 569.5,-209.38"/>
</a>
</g>
</g>
<!-- Node3 -->
<g id="Node000003" class="node">
<title>Node3</title>
<g id="a_Node000003"><a xlink:href="as5047u__spi__interface_8hpp.html" target="_top" xlink:title="CRTP&#45;based SPI bus interface for AS5047U driver.">
<polygon fill="white" stroke="#666666" points="147,-129 0,-129 0,-110 147,-110 147,-129"/>
<text text-anchor="middle" x="73.5" y="-117" font-family="Helvetica,sans-Serif" font-size="10.00">as5047u_spi_interface.hpp</text>
</a>
</g>
</g>
<!-- Node2&#45;&gt;Node3 -->
<g id="edge2_Node000002_Node000003" class="edge">
<title>Node2&#45;&gt;Node3</title>
<g id="a_edge2_Node000002_Node000003"><a xlink:title=" ">
<path fill="none" stroke="#63b8ff" d="M513.74,-167.83C428.4,-158.65 259.37,-140.48 157.38,-129.52"/>
<polygon fill="#63b8ff" stroke="#63b8ff" points="157.74,-126.04 147.42,-128.45 156.99,-133 157.74,-126.04"/>
</a>
</g>
</g>
<!-- Node5 -->
<g id="Node000005" class="node">
<title>Node5</title>
<g id="a_Node000005"><a xlink:title=" ">
<polygon fill="#e0e0e0" stroke="#999999" points="292.5,-19 242.5,-19 242.5,0 292.5,0 292.5,-19"/>
<text text-anchor="middle" x="267.5" y="-7" font-family="Helvetica,sans-Serif" font-size="10.00">cstdint</text>
</a>
</g>
</g>
<!-- Node2&#45;&gt;Node5 -->
<g id="edge13_Node000002_Node000005" class="edge">
<title>Node2&#45;&gt;Node5</title>
<g id="a_edge13_Node000002_Node000005"><a xlink:title=" ">
<path fill="none" stroke="#63b8ff" d="M513.74,-172.38C429.74,-169.67 270.38,-160.42 224.5,-129 195.22,-108.95 177.12,-85.94 194.5,-55 202.85,-40.14 218.4,-29.65 233.01,-22.61"/>
<polygon fill="#63b8ff" stroke="#63b8ff" points="234.65,-25.71 242.39,-18.47 231.82,-19.31 234.65,-25.71"/>
</a>
</g>
</g>
<!-- Node6 -->
<g id="Node000006" class="node">
<title>Node6</title>
<g id="a_Node000006"><a xlink:href="as5047u__registers_8hpp.html" target="_top" xlink:title="Register definitions for the AS5047U Rotary Position Sensor.">
<polygon fill="white" stroke="#666666" points="331,-74 204,-74 204,-55 331,-55 331,-74"/>
<text text-anchor="middle" x="267.5" y="-62" font-family="Helvetica,sans-Serif" font-size="10.00">as5047u_registers.hpp</text>
</a>
</g>
</g>
<!-- Node2&#45;&gt;Node6 -->
<g id="edge5_Node000002_Node000006" class="edge">
<title>Node2&#45;&gt;Node6</title>
<g id="a_edge5_Node000002_Node000006"><a xlink:title=" ">
<path fill="none" stroke="#63b8ff" d="M513.94,-170.25C424.54,-164.18 250.73,-149.82 232.5,-129 219.77,-114.46 234.9,-94.51 249.06,-80.88"/>
<polygon fill="#63b8ff" stroke="#63b8ff" points="251.56,-83.33 256.63,-74.03 246.87,-78.14 251.56,-83.33"/>
</a>
</g>
</g>
<!-- Node7 -->
<g id="Node000007" class="node">
<title>Node7</title>
<g id="a_Node000007"><a xlink:title=" ">
<polygon fill="#e0e0e0" stroke="#999999" points="349.5,-129 241.5,-129 241.5,-110 349.5,-110 349.5,-129"/>
<text text-anchor="middle" x="295.5" y="-117" font-family="Helvetica,sans-Serif" font-size="10.00">as5047u_version.h</text>
</a>
</g>
</g>
<!-- Node2&#45;&gt;Node7 -->
<g id="edge7_Node000002_Node000007" class="edge">
<title>Node2&#45;&gt;Node7</title>
<g id="a_edge7_Node000002_Node000007"><a xlink:title=" ">
<path fill="none" stroke="#63b8ff" d="M522.96,-164.98C475.69,-155.74 400.15,-140.97 349.22,-131.01"/>
<polygon fill="#63b8ff" stroke="#63b8ff" points="349.87,-127.57 339.38,-129.08 348.52,-134.44 349.87,-127.57"/>
</a>
</g>
</g>
<!-- Node8 -->
<g id="Node000008" class="node">
<title>Node8</title>
<g id="a_Node000008"><a xlink:title=" ">
<polygon fill="#e0e0e0" stroke="#999999" points="431.5,-129 367.5,-129 367.5,-110 431.5,-110 431.5,-129"/>
<text text-anchor="middle" x="399.5" y="-117" font-family="Helvetica,sans-Serif" font-size="10.00">algorithm</text>
</a>
</g>
</g>
<!-- Node2&#45;&gt;Node8 -->
<g id="edge8_Node000002_Node000008" class="edge">
<title>Node2&#45;&gt;Node8</title>
<g id="a_edge8_Node000002_Node000008"><a xlink:title=" ">
<path fill="none" stroke="#63b8ff" d="M539.67,-164.98C511.63,-156.09 467.45,-142.07 436.2,-132.15"/>
<polygon fill="#63b8ff" stroke="#63b8ff" points="437.13,-128.77 426.54,-129.08 435.01,-135.44 437.13,-128.77"/>
</a>
</g>
</g>
<!-- Node9 -->
<g id="Node000009" class="node">
<title>Node9</title>
<g id="a_Node000009"><a xlink:title=" ">
<polygon fill="#e0e0e0" stroke="#999999" points="491.5,-129 449.5,-129 449.5,-110 491.5,-110 491.5,-129"/>
<text text-anchor="middle" x="470.5" y="-117" font-family="Helvetica,sans-Serif" font-size="10.00">array</text>
</a>
</g>
</g>
<!-- Node2&#45;&gt;Node9 -->
<g id="edge9_Node000002_Node000009" class="edge">
<title>Node2&#45;&gt;Node9</title>
<g id="a_edge9_Node000002_Node000009"><a xlink:title=" ">
<path fill="none" stroke="#63b8ff" d="M551.08,-164.98C536.05,-156.69 512.96,-143.94 495.34,-134.22"/>
<polygon fill="#63b8ff" stroke="#63b8ff" points="496.65,-130.94 486.2,-129.17 493.27,-137.07 496.65,-130.94"/>
</a>
</g>
</g>
<!-- Node10 -->
<g id="Node000010" class="node">
<title>Node10</title>
<g id="a_Node000010"><a xlink:title=" ">
<polygon fill="#e0e0e0" stroke="#999999" points="559.5,-129 509.5,-129 509.5,-110 559.5,-110 559.5,-129"/>
<text text-anchor="middle" x="534.5" y="-117" font-family="Helvetica,sans-Serif" font-size="10.00">atomic</text>
</a>
</g>
</g>
<!-- Node2&#45;&gt;Node10 -->
<g id="edge10_Node000002_Node000010" class="edge">
<title>Node2&#45;&gt;Node10</title>
<g id="a_edge10_Node000002_Node000010"><a xlink:title=" ">
<path fill="none" stroke="#63b8ff" d="M561.22,-164.75C556.79,-157.42 550.34,-146.73 544.88,-137.7"/>
<polygon fill="#63b8ff" stroke="#63b8ff" points="547.85,-135.84 539.69,-129.09 541.86,-139.46 547.85,-135.84"/>
</a>
</g>
</g>
<!-- Node11 -->
<g id="Node000011" class="node">
<title>Node11</title>
<g id="a_Node000011"><a xlink:title=" ">
<polygon fill="#e0e0e0" stroke="#999999" points="621.5,-129 577.5,-129 577.5,-110 621.5,-110 621.5,-129"/>
<text text-anchor="middle" x="599.5" y="-117" font-family="Helvetica,sans-Serif" font-size="10.00">bitset</text>
</a>
</g>
</g>
<!-- Node2&#45;&gt;Node11 -->
<g id="edge11_Node000002_Node000011" class="edge">
<title>Node2&#45;&gt;Node11</title>
<g id="a_edge11_Node000002_Node000011"><a xlink:title=" ">
<path fill="none" stroke="#63b8ff" d="M571.95,-164.75C576.51,-157.42 583.17,-146.73 588.79,-137.7"/>
<polygon fill="#63b8ff" stroke="#63b8ff" points="591.84,-139.43 594.15,-129.09 585.9,-135.73 591.84,-139.43"/>
</a>
</g>
</g>
<!-- Node12 -->
<g id="Node000012" class="node">
<title>Node12</title>
<g id="a_Node000012"><a xlink:title=" ">
<polygon fill="#e0e0e0" stroke="#999999" points="687,-129 640,-129 640,-110 687,-110 687,-129"/>
<text text-anchor="middle" x="663.5" y="-117" font-family="Helvetica,sans-Serif" font-size="10.00">cmath</text>
</a>
</g>
</g>
<!-- Node2&#45;&gt;Node12 -->
<g id="edge12_Node000002_Node000012" class="edge">
<title>Node2&#45;&gt;Node12</title>
<g id="a_edge12_Node000002_Node000012"><a xlink:title=" ">
<path fill="none" stroke="#63b8ff" d="M582.08,-164.98C597.27,-156.69 620.6,-143.94 638.4,-134.22"/>
<polygon fill="#63b8ff" stroke="#63b8ff" points="640.53,-137.04 647.63,-129.17 637.18,-130.89 640.53,-137.04"/>
</a>
</g>
</g>
<!-- Node13 -->
<g id="Node000013" class="node">
<title>Node13</title>
<g id="a_Node000013"><a xlink:title=" ">
<polygon fill="#e0e0e0" stroke="#999999" points="751.5,-129 705.5,-129 705.5,-110 751.5,-110 751.5,-129"/>
<text text-anchor="middle" x="728.5" y="-117" font-family="Helvetica,sans-Serif" font-size="10.00">cstdio</text>
</a>
</g>
</g>
<!-- Node2&#45;&gt;Node13 -->
<g id="edge14_Node000002_Node000013" class="edge">
<title>Node2&#45;&gt;Node13</title>
<g id="a_edge14_Node000002_Node000013"><a xlink:title=" ">
<path fill="none" stroke="#63b8ff" d="M592.53,-164.98C620.57,-155.81 665.26,-141.19 695.69,-131.23"/>
<polygon fill="#63b8ff" stroke="#63b8ff" points="697.01,-134.49 705.42,-128.05 694.83,-127.83 697.01,-134.49"/>
</a>
</g>
</g>
<!-- Node14 -->
<g id="Node000014" class="node">
<title>Node14</title>
<g id="a_Node000014"><a xlink:title=" ">
<polygon fill="#e0e0e0" stroke="#999999" points="835,-129 770,-129 770,-110 835,-110 835,-129"/>
<text text-anchor="middle" x="802.5" y="-117" font-family="Helvetica,sans-Serif" font-size="10.00">functional</text>
</a>
</g>
</g>
<!-- Node2&#45;&gt;Node14 -->
<g id="edge15_Node000002_Node000014" class="edge">
<title>Node2&#45;&gt;Node14</title>
<g id="a_edge15_Node000002_Node000014"><a xlink:title=" ">
<path fill="none" stroke="#63b8ff" d="M604.42,-164.98C646.97,-155.43 715.82,-139.97 760.12,-130.02"/>
<polygon fill="#63b8ff" stroke="#63b8ff" points="761,-133.41 769.99,-127.8 759.47,-126.58 761,-133.41"/>
</a>
</g>
</g>
<!-- Node15 -->
<g id="Node000015" class="node">
<title>Node15</title>
<g id="a_Node000015"><a xlink:title=" ">
<polygon fill="#e0e0e0" stroke="#999999" points="898,-129 853,-129 853,-110 898,-110 898,-129"/>
<text text-anchor="middle" x="875.5" y="-117" font-family="Helvetica,sans-Serif" font-size="10.00">utility</text>
</a>
</g>
</g>
<!-- Node2&#45;&gt;Node15 -->
<g id="edge16_Node000002_Node000015" class="edge">
<title>Node2&#45;&gt;Node15</title>
<g id="a_edge16_Node000002_Node000015"><a xlink:title=" ">
<path fill="none" stroke="#63b8ff" d="M619.24,-165.76C683.35,-156.23 788.81,-140.17 843.06,-129.09"/>
<polygon fill="#63b8ff" stroke="#63b8ff" points="843.82,-132.5 852.88,-127.01 842.38,-125.65 843.82,-132.5"/>
</a>
</g>
</g>
<!-- Node16 -->
<g id="Node000016" class="node">
<title>Node16</title>
<g id="a_Node000016"><a xlink:href="as5047u__types_8hpp.html" target="_top" xlink:title="Type definitions for the AS5047U driver.">
<polygon fill="white" stroke="#666666" points="982,-74 871,-74 871,-55 982,-55 982,-74"/>
<text text-anchor="middle" x="926.5" y="-62" font-family="Helvetica,sans-Serif" font-size="10.00">as5047u_types.hpp</text>
</a>
</g>
</g>
<!-- Node2&#45;&gt;Node16 -->
<g id="edge17_Node000002_Node000016" class="edge">
<title>Node2&#45;&gt;Node16</title>
<g id="a_edge17_Node000002_Node000016"><a xlink:title=" ">
<path fill="none" stroke="#63b8ff" d="M619.26,-166.24C622.39,-165.82 625.48,-165.4 628.5,-165 690.47,-156.75 859.86,-169.47 907.5,-129 920.37,-118.07 924.73,-98.8 926.1,-84.35"/>
<polygon fill="#63b8ff" stroke="#63b8ff" points="929.62,-84.22 926.67,-74.04 922.63,-83.83 929.62,-84.22"/>
</a>
</g>
</g>
<!-- Node17 -->
<g id="Node000017" class="node">
<title>Node17</title>
<g id="a_Node000017"><a xlink:href="as5047u__config_8hpp.html" target="_top" xlink:title="Compile&#45;time configuration options for the AS5047U driver.">
<polygon fill="white" stroke="#666666" points="1068,-129 955,-129 955,-110 1068,-110 1068,-129"/>
<text text-anchor="middle" x="1011.5" y="-117" font-family="Helvetica,sans-Serif" font-size="10.00">as5047u_config.hpp</text>
</a>
</g>
</g>
<!-- Node2&#45;&gt;Node17 -->
<g id="edge19_Node000002_Node000017" class="edge">
<title>Node2&#45;&gt;Node17</title>
<g id="a_edge19_Node000002_Node000017"><a xlink:title=" ">
<path fill="none" stroke="#63b8ff" d="M619.26,-166.19C622.38,-165.78 625.48,-165.38 628.5,-165 766.99,-147.52 801.87,-145.3 940.5,-129 941.96,-128.83 943.45,-128.65 944.94,-128.48"/>
<polygon fill="#63b8ff" stroke="#63b8ff" points="945.4,-131.95 954.92,-127.3 944.58,-125 945.4,-131.95"/>
</a>
</g>
</g>
<!-- Node4 -->
<g id="Node000004" class="node">
<title>Node4</title>
<g id="a_Node000004"><a xlink:title=" ">
<polygon fill="#e0e0e0" stroke="#999999" points="100,-74 47,-74 47,-55 100,-55 100,-74"/>
<text text-anchor="middle" x="73.5" y="-62" font-family="Helvetica,sans-Serif" font-size="10.00">cstddef</text>
</a>
</g>
</g>
<!-- Node3&#45;&gt;Node4 -->
<g id="edge3_Node000003_Node000004" class="edge">
<title>Node3&#45;&gt;Node4</title>
<g id="a_edge3_Node000003_Node000004"><a xlink:title=" ">
<path fill="none" stroke="#63b8ff" d="M73.5,-109.75C73.5,-102.8 73.5,-92.85 73.5,-84.13"/>
<polygon fill="#63b8ff" stroke="#63b8ff" points="77,-84.09 73.5,-74.09 70,-84.09 77,-84.09"/>
</a>
</g>
</g>
<!-- Node3&#45;&gt;Node5 -->
<g id="edge4_Node000003_Node000005" class="edge">
<title>Node3&#45;&gt;Node5</title>
<g id="a_edge4_Node000003_Node000005"><a xlink:title=" ">
<path fill="none" stroke="#63b8ff" d="M83.81,-109.86C99.73,-96.79 131.6,-71.78 161.5,-55 184.49,-42.1 211.97,-30.67 233.2,-22.62"/>
<polygon fill="#63b8ff" stroke="#63b8ff" points="234.61,-25.83 242.76,-19.06 232.17,-19.27 234.61,-25.83"/>
</a>
</g>
</g>
<!-- Node6&#45;&gt;Node5 -->
<g id="edge6_Node000006_Node000005" class="edge">
<title>Node6&#45;&gt;Node5</title>
<g id="a_edge6_Node000006_Node000005"><a xlink:title=" ">
<path fill="none" stroke="#63b8ff" d="M267.5,-54.75C267.5,-47.8 267.5,-37.85 267.5,-29.13"/>
<polygon fill="#63b8ff" stroke="#63b8ff" points="271,-29.09 267.5,-19.09 264,-29.09 271,-29.09"/>
</a>
</g>
</g>
<!-- Node16&#45;&gt;Node5 -->
<g id="edge18_Node000016_Node000005" class="edge">
<title>Node16&#45;&gt;Node5</title>
<g id="a_edge18_Node000016_Node000005"><a xlink:title=" ">
<path fill="none" stroke="#63b8ff" d="M870.88,-59.03C739.2,-48.44 411.29,-22.06 302.9,-13.35"/>
<polygon fill="#63b8ff" stroke="#63b8ff" points="303.07,-9.85 292.82,-12.54 302.51,-16.83 303.07,-9.85"/>
</a>
</g>
</g>
<!-- Node17&#45;&gt;Node5 -->
<g id="edge20_Node000017_Node000005" class="edge">
<title>Node17&#45;&gt;Node5</title>
<g id="a_edge20_Node000017_Node000005"><a xlink:title=" ">
<path fill="none" stroke="#63b8ff" d="M1011.63,-109.82C1011.32,-95.76 1008.44,-68.24 991.5,-55 936.87,-12.29 440.28,-10.13 302.7,-10.36"/>
<polygon fill="#63b8ff" stroke="#63b8ff" points="302.68,-6.86 292.69,-10.38 302.7,-13.86 302.68,-6.86"/>
</a>
</g>
</g>
<!-- Node17&#45;&gt;Node16 -->
<g id="edge21_Node000017_Node000016" class="edge">
<title>Node17&#45;&gt;Node16</title>
<g id="a_edge21_Node000017_Node000016"><a xlink:title=" ">
<path fill="none" stroke="#63b8ff" d="M997.84,-109.98C984.66,-101.77 964.47,-89.18 948.93,-79.49"/>
<polygon fill="#63b8ff" stroke="#63b8ff" points="950.74,-76.49 940.41,-74.17 947.04,-82.43 950.74,-76.49"/>
</a>
</g>
</g>
</g>
</svg>
