<?xml version="1.0" encoding="UTF-8" standalone="no"?>
<!DOCTYPE svg PUBLIC "-//W3C//DTD SVG 1.1//EN"
 "http://www.w3.org/Graphics/SVG/1.1/DTD/svg11.dtd">
<!-- Generated by graphviz version 2.43.0 (0)
 -->
<!-- Title: examples/esp32/main/driver_integration_test.cpp Pages: 1 -->
<svg width="2259pt" height="280pt"
 viewBox="0.00 0.00 2259.00 280.00" xmlns="http://www.w3.org/2000/svg" xmlns:xlink="http://www.w3.org/1999/xlink">
<g id="graph0" class="graph" transform="scale(1 1) rotate(0) translate(4 276)">
<title>examples/esp32/main/driver_integration_test.cpp</title>
<!-- Node1 -->
<g id="Node000001" class="node">
<title>Node1</title>
<g id="a_Node000001"><a xlink:title="Comprehensive Integration Test Suite for as5047u::AS5047U Driver.">
<polygon fill="#999999" stroke="#666666" points="1580.5,-272 1455.5,-272 1455.5,-231 1580.5,-231 1580.5,-272"/>
<text text-anchor="start" x="1463.5" y="-260" font-family="Helvetica,sans-Serif" font-size="10.00">examples/esp32/main</text>
<text text-anchor="start" x="1463.5" y="-249" font-family="Helvetica,sans-Serif" font-size="10.00">/driver_integration</text>
<text text-anchor="middle" x="1518" y="-238" font-family="Helvetica,sans-Serif" font-size="10.00">_test.cpp</text>
</a>
</g>
</g>
<!-- Node2 -->
<g id="Node000002" class="node">
<title>Node2</title>
<g id="a_Node000002"><a xlink:title=" ">
<polygon fill="#e0e0e0" stroke="#999999" points="737.5,-134.5 674.5,-134.5 674.5,-115.5 737.5,-115.5 737.5,-134.5"/>
<text text-anchor="middle" x="706" y="-122.5" font-family="Helvetica,sans-Serif" font-size="10.00">esp_log.h</text>
</a>
</g>
</g>
<!-- Node1&#45;&gt;Node2 -->
<g id="edge1_Node000001_Node000002" class="edge">
<title>Node1&#45;&gt;Node2</title>
<g id="a_edge1_Node000001_Node000002"><a xlink:title=" ">
<path fill="none" stroke="#63b8ff" d="M1455.36,-244.73C1323.89,-231.9 1010.02,-197.52 752,-140 748.56,-139.23 744.99,-138.34 741.45,-137.37"/>
<polygon fill="#63b8ff" stroke="#63b8ff" points="742.18,-133.94 731.61,-134.55 740.25,-140.67 742.18,-133.94"/>
</a>
</g>
</g>
<!-- Node3 -->
<g id="Node000003" class="node">
<title>Node3</title>
<g id="a_Node000003"><a xlink:title=" ">
<polygon fill="#e0e0e0" stroke="#999999" points="1786,-195 1702,-195 1702,-176 1786,-176 1786,-195"/>
<text text-anchor="middle" x="1744" y="-183" font-family="Helvetica,sans-Serif" font-size="10.00">esp_system.h</text>
</a>
</g>
</g>
<!-- Node1&#45;&gt;Node3 -->
<g id="edge2_Node000001_Node000003" class="edge">
<title>Node1&#45;&gt;Node3</title>
<g id="a_edge2_Node000001_Node000003"><a xlink:title=" ">
<path fill="none" stroke="#63b8ff" d="M1580.65,-232.76C1620.13,-221.58 1669.9,-207.48 1704.07,-197.81"/>
<polygon fill="#63b8ff" stroke="#63b8ff" points="1705.04,-201.17 1713.71,-195.08 1703.13,-194.44 1705.04,-201.17"/>
</a>
</g>
</g>
<!-- Node4 -->
<g id="Node000004" class="node">
<title>Node4</title>
<g id="a_Node000004"><a xlink:title=" ">
<polygon fill="#e0e0e0" stroke="#999999" points="1815.5,-134.5 1702.5,-134.5 1702.5,-115.5 1815.5,-115.5 1815.5,-134.5"/>
<text text-anchor="middle" x="1759" y="-122.5" font-family="Helvetica,sans-Serif" font-size="10.00">freertos/FreeRTOS.h</text>
</a>
</g>
</g>
<!-- Node1&#45;&gt;Node4 -->
<g id="edge3_Node000001_Node000004" class="edge">
<title>Node1&#45;&gt;Node4</title>
<g id="a_edge3_Node000001_Node000004"><a xlink:title=" ">
<path fill="none" stroke="#63b8ff" d="M1517.64,-230.94C1518.43,-214.07 1522.36,-190.24 1537,-176 1540.12,-172.97 1644.25,-150.39 1708.77,-136.63"/>
<polygon fill="#63b8ff" stroke="#63b8ff" points="1709.71,-140.01 1718.77,-134.51 1708.26,-133.17 1709.71,-140.01"/>
</a>
</g>
</g>
<!-- Node5 -->
<g id="Node000005" class="node">
<title>Node5</title>
<g id="a_Node000005"><a xlink:title=" ">
<polygon fill="#e0e0e0" stroke="#999999" points="2251,-134.5 2163,-134.5 2163,-115.5 2251,-115.5 2251,-134.5"/>
<text text-anchor="middle" x="2207" y="-122.5" font-family="Helvetica,sans-Serif" font-size="10.00">freertos/task.h</text>
</a>
</g>
</g>
<!-- Node1&#45;&gt;Node5 -->
<g id="edge4_Node000001_Node000005" class="edge">
<title>Node1&#45;&gt;Node5</title>
<g id="a_edge4_Node000001_Node000005"><a xlink:title=" ">
<path fill="none" stroke="#63b8ff" d="M1569.15,-230.89C1595.08,-220.66 1626.94,-207.68 1655,-195 1672.21,-187.23 1674.81,-181.05 1693,-176 1891.02,-121.03 1951.38,-174.38 2154,-140 2158.79,-139.19 2163.78,-138.14 2168.7,-136.99"/>
<polygon fill="#63b8ff" stroke="#63b8ff" points="2169.75,-140.33 2178.6,-134.51 2168.05,-133.54 2169.75,-140.33"/>
</a>
</g>
</g>
<!-- Node6 -->
<g id="Node000006" class="node">
<title>Node6</title>
<g id="a_Node000006"><a xlink:title=" ">
<polygon fill="#e0e0e0" stroke="#999999" points="1852.5,-195 1803.5,-195 1803.5,-176 1852.5,-176 1852.5,-195"/>
<text text-anchor="middle" x="1828" y="-183" font-family="Helvetica,sans-Serif" font-size="10.00">cstdlib</text>
</a>
</g>
</g>
<!-- Node1&#45;&gt;Node6 -->
<g id="edge5_Node000001_Node000006" class="edge">
<title>Node1&#45;&gt;Node6</title>
<g id="a_edge5_Node000001_Node000006"><a xlink:title=" ">
<path fill="none" stroke="#63b8ff" d="M1580.64,-238.96C1634.61,-228.78 1714.82,-213.11 1793.13,-195.34"/>
<polygon fill="#63b8ff" stroke="#63b8ff" points="1794.2,-198.69 1803.17,-193.05 1792.64,-191.86 1794.2,-198.69"/>
</a>
</g>
</g>
<!-- Node7 -->
<g id="Node000007" class="node">
<title>Node7</title>
<g id="a_Node000007"><a xlink:title=" ">
<polygon fill="#e0e0e0" stroke="#999999" points="58,-134.5 0,-134.5 0,-115.5 58,-115.5 58,-134.5"/>
<text text-anchor="middle" x="29" y="-122.5" font-family="Helvetica,sans-Serif" font-size="10.00">memory</text>
</a>
</g>
</g>
<!-- Node1&#45;&gt;Node7 -->
<g id="edge6_Node000001_Node000007" class="edge">
<title>Node1&#45;&gt;Node7</title>
<g id="a_edge6_Node000001_Node000007"><a xlink:title=" ">
<path fill="none" stroke="#63b8ff" d="M1455.36,-249.13C1240.09,-244.17 531.52,-225.86 306,-195 198.01,-180.22 171.46,-171.13 67,-140 64.86,-139.36 62.68,-138.67 60.48,-137.94"/>
<polygon fill="#63b8ff" stroke="#63b8ff" points="61.54,-134.61 50.94,-134.62 59.24,-141.22 61.54,-134.61"/>
</a>
</g>
</g>
<!-- Node8 -->
<g id="Node000008" class="node">
<title>Node8</title>
<g id="a_Node000008"><a xlink:title=" ">
<polygon fill="#e0e0e0" stroke="#999999" points="1921,-195 1871,-195 1871,-176 1921,-176 1921,-195"/>
<text text-anchor="middle" x="1896" y="-183" font-family="Helvetica,sans-Serif" font-size="10.00">stdio.h</text>
</a>
</g>
</g>
<!-- Node1&#45;&gt;Node8 -->
<g id="edge7_Node000001_Node000008" class="edge">
<title>Node1&#45;&gt;Node8</title>
<g id="a_edge7_Node000001_Node000008"><a xlink:title=" ">
<path fill="none" stroke="#63b8ff" d="M1580.75,-242.01C1647.77,-232.58 1757.26,-216.11 1860.8,-195.1"/>
<polygon fill="#63b8ff" stroke="#63b8ff" points="1861.71,-198.49 1870.8,-193.05 1860.3,-191.63 1861.71,-198.49"/>
</a>
</g>
</g>
<!-- Node9 -->
<g id="Node000009" class="node">
<title>Node9</title>
<g id="a_Node000009"><a xlink:href="as5047u_8hpp.html" target="_top" xlink:title="Driver for AMS AS5047U Magnetic Rotary Position Sensor (C++21)">
<polygon fill="white" stroke="#666666" points="1294.5,-195 1171.5,-195 1171.5,-176 1294.5,-176 1294.5,-195"/>
<text text-anchor="middle" x="1233" y="-183" font-family="Helvetica,sans-Serif" font-size="10.00">../../../inc/as5047u.hpp</text>
</a>
</g>
</g>
<!-- Node1&#45;&gt;Node9 -->
<g id="edge8_Node000001_Node000009" class="edge">
<title>Node1&#45;&gt;Node9</title>
<g id="a_edge8_Node000001_Node000009"><a xlink:title=" ">
<path fill="none" stroke="#63b8ff" d="M1455.46,-236.45C1402.83,-224.64 1328.7,-207.99 1280.75,-197.22"/>
<polygon fill="#63b8ff" stroke="#63b8ff" points="1281.45,-193.79 1270.93,-195.02 1279.92,-200.62 1281.45,-193.79"/>
</a>
</g>
</g>
<!-- Node26 -->
<g id="Node000026" class="node">
<title>Node26</title>
<g id="a_Node000026"><a xlink:href="esp32__as5047u__bus_8hpp.html" target="_top" xlink:title="ESP32 SPI transport implementation for AS5047U driver (header&#45;only)">
<polygon fill="white" stroke="#666666" points="542,-195 406,-195 406,-176 542,-176 542,-195"/>
<text text-anchor="middle" x="474" y="-183" font-family="Helvetica,sans-Serif" font-size="10.00">esp32_as5047u_bus.hpp</text>
</a>
</g>
</g>
<!-- Node1&#45;&gt;Node26 -->
<g id="edge31_Node000001_Node000026" class="edge">
<title>Node1&#45;&gt;Node26</title>
<g id="a_edge31_Node000001_Node000026"><a xlink:title=" ">
<path fill="none" stroke="#63b8ff" d="M1455.43,-246.66C1274.58,-235.58 751.42,-203.51 552.25,-191.3"/>
<polygon fill="#63b8ff" stroke="#63b8ff" points="552.35,-187.8 542.16,-190.68 551.93,-194.78 552.35,-187.8"/>
</a>
</g>
</g>
<!-- Node27 -->
<g id="Node000027" class="node">
<title>Node27</title>
<g id="a_Node000027"><a xlink:href="esp32__as5047u__test__config_8hpp.html" target="_top" xlink:title="Hardware configuration for AS5047U driver on ESP32&#45;C6.">
<polygon fill="white" stroke="#666666" points="192,-140 76,-140 76,-110 192,-110 192,-140"/>
<text text-anchor="start" x="84" y="-128" font-family="Helvetica,sans-Serif" font-size="10.00">esp32_as5047u_test</text>
<text text-anchor="middle" x="134" y="-117" font-family="Helvetica,sans-Serif" font-size="10.00">_config.hpp</text>
</a>
</g>
</g>
<!-- Node1&#45;&gt;Node27 -->
<g id="edge42_Node000001_Node000027" class="edge">
<title>Node1&#45;&gt;Node27</title>
<g id="a_edge42_Node000001_Node000027"><a xlink:title=" ">
<path fill="none" stroke="#63b8ff" d="M1455.46,-249.11C1250.97,-244.29 603.54,-226.85 397,-195 322.71,-183.54 239.08,-159.64 186.48,-143.21"/>
<polygon fill="#63b8ff" stroke="#63b8ff" points="187.29,-139.8 176.7,-140.13 185.19,-146.47 187.29,-139.8"/>
</a>
</g>
</g>
<!-- Node31 -->
<g id="Node000031" class="node">
<title>Node31</title>
<g id="a_Node000031"><a xlink:href="TestFramework_8h.html" target="_top" xlink:title="Shared testing framework for ESP32&#45;C6 comprehensive test suites.">
<polygon fill="white" stroke="#666666" points="1646,-195 1546,-195 1546,-176 1646,-176 1646,-195"/>
<text text-anchor="middle" x="1596" y="-183" font-family="Helvetica,sans-Serif" font-size="10.00">TestFramework.h</text>
</a>
</g>
</g>
<!-- Node1&#45;&gt;Node31 -->
<g id="edge43_Node000001_Node000031" class="edge">
<title>Node1&#45;&gt;Node31</title>
<g id="a_edge43_Node000001_Node000031"><a xlink:title=" ">
<path fill="none" stroke="#63b8ff" d="M1541.83,-230.95C1553.28,-221.55 1566.8,-210.46 1577.47,-201.7"/>
<polygon fill="#63b8ff" stroke="#63b8ff" points="1579.81,-204.31 1585.32,-195.26 1575.37,-198.9 1579.81,-204.31"/>
</a>
</g>
</g>
<!-- Node10 -->
<g id="Node000010" class="node">
<title>Node10</title>
<g id="a_Node000010"><a xlink:href="as5047u__spi__interface_8hpp.html" target="_top" xlink:title="CRTP&#45;based SPI bus interface for AS5047U driver.">
<polygon fill="white" stroke="#666666" points="591.5,-134.5 444.5,-134.5 444.5,-115.5 591.5,-115.5 591.5,-134.5"/>
<text text-anchor="middle" x="518" y="-122.5" font-family="Helvetica,sans-Serif" font-size="10.00">as5047u_spi_interface.hpp</text>
</a>
</g>
</g>
<!-- Node9&#45;&gt;Node10 -->
<g id="edge9_Node000009_Node000010" class="edge">
<title>Node9&#45;&gt;Node10</title>
<g id="a_edge9_Node000009_Node000010"><a xlink:title=" ">
<path fill="none" stroke="#63b8ff" d="M1171.36,-182.14C1058.09,-177.37 809.34,-164.85 601,-140 592.25,-138.96 583.02,-137.63 574.01,-136.21"/>
<polygon fill="#63b8ff" stroke="#63b8ff" points="574.42,-132.73 563.98,-134.57 573.29,-139.63 574.42,-132.73"/>
</a>
</g>
</g>
<!-- Node12 -->
<g id="Node000012" class="node">
<title>Node12</title>
<g id="a_Node000012"><a xlink:title=" ">
<polygon fill="#e0e0e0" stroke="#999999" points="791,-19 741,-19 741,0 791,0 791,-19"/>
<text text-anchor="middle" x="766" y="-7" font-family="Helvetica,sans-Serif" font-size="10.00">cstdint</text>
</a>
</g>
</g>
<!-- Node9&#45;&gt;Node12 -->
<g id="edge19_Node000009_Node000012" class="edge">
<title>Node9&#45;&gt;Node12</title>
<g id="a_edge19_Node000009_Node000012"><a xlink:title=" ">
<path fill="none" stroke="#63b8ff" d="M1171.27,-182.52C1054.93,-178.2 812.39,-166.14 785,-140 754.95,-111.32 758.13,-57.56 762.4,-29.17"/>
<polygon fill="#63b8ff" stroke="#63b8ff" points="765.9,-29.46 764.15,-19.01 759,-28.27 765.9,-29.46"/>
</a>
</g>
</g>
<!-- Node13 -->
<g id="Node000013" class="node">
<title>Node13</title>
<g id="a_Node000013"><a xlink:href="as5047u__registers_8hpp.html" target="_top" xlink:title="Register definitions for the AS5047U Rotary Position Sensor.">
<polygon fill="white" stroke="#666666" points="921.5,-74 794.5,-74 794.5,-55 921.5,-55 921.5,-74"/>
<text text-anchor="middle" x="858" y="-62" font-family="Helvetica,sans-Serif" font-size="10.00">as5047u_registers.hpp</text>
</a>
</g>
</g>
<!-- Node9&#45;&gt;Node13 -->
<g id="edge12_Node000009_Node000013" class="edge">
<title>Node9&#45;&gt;Node13</title>
<g id="a_edge12_Node000009_Node000013"><a xlink:title=" ">
<path fill="none" stroke="#63b8ff" d="M1171.4,-184.21C1111.8,-181.83 1020.14,-172.49 948,-140 917.48,-126.26 888.92,-99.28 872.46,-81.84"/>
<polygon fill="#63b8ff" stroke="#63b8ff" points="874.74,-79.15 865.4,-74.14 869.58,-83.88 874.74,-79.15"/>
</a>
</g>
</g>
<!-- Node14 -->
<g id="Node000014" class="node">
<title>Node14</title>
<g id="a_Node000014"><a xlink:title=" ">
<polygon fill="#e0e0e0" stroke="#999999" points="1162,-134.5 1098,-134.5 1098,-115.5 1162,-115.5 1162,-134.5"/>
<text text-anchor="middle" x="1130" y="-122.5" font-family="Helvetica,sans-Serif" font-size="10.00">algorithm</text>
</a>
</g>
</g>
<!-- Node9&#45;&gt;Node14 -->
<g id="edge14_Node000009_Node000014" class="edge">
<title>Node9&#45;&gt;Node14</title>
<g id="a_edge14_Node000009_Node000014"><a xlink:title=" ">
<path fill="none" stroke="#63b8ff" d="M1217.8,-175.87C1200.99,-166.32 1173.68,-150.81 1153.98,-139.62"/>
<polygon fill="#63b8ff" stroke="#63b8ff" points="1155.68,-136.56 1145.26,-134.67 1152.23,-142.65 1155.68,-136.56"/>
</a>
</g>
</g>
<!-- Node15 -->
<g id="Node000015" class="node">
<title>Node15</title>
<g id="a_Node000015"><a xlink:title=" ">
<polygon fill="#e0e0e0" stroke="#999999" points="1222,-134.5 1180,-134.5 1180,-115.5 1222,-115.5 1222,-134.5"/>
<text text-anchor="middle" x="1201" y="-122.5" font-family="Helvetica,sans-Serif" font-size="10.00">array</text>
</a>
</g>
</g>
<!-- Node9&#45;&gt;Node15 -->
<g id="edge15_Node000009_Node000015" class="edge">
<title>Node9&#45;&gt;Node15</title>
<g id="a_edge15_Node000009_Node000015"><a xlink:title=" ">
<path fill="none" stroke="#63b8ff" d="M1228.28,-175.87C1223.65,-167.4 1216.45,-154.24 1210.61,-143.57"/>
<polygon fill="#63b8ff" stroke="#63b8ff" points="1213.61,-141.76 1205.74,-134.67 1207.47,-145.12 1213.61,-141.76"/>
</a>
</g>
</g>
<!-- Node16 -->
<g id="Node000016" class="node">
<title>Node16</title>
<g id="a_Node000016"><a xlink:title=" ">
<polygon fill="#e0e0e0" stroke="#999999" points="1290,-134.5 1240,-134.5 1240,-115.5 1290,-115.5 1290,-134.5"/>
<text text-anchor="middle" x="1265" y="-122.5" font-family="Helvetica,sans-Serif" font-size="10.00">atomic</text>
</a>
</g>
</g>
<!-- Node9&#45;&gt;Node16 -->
<g id="edge16_Node000009_Node000016" class="edge">
<title>Node9&#45;&gt;Node16</title>
<g id="a_edge16_Node000009_Node000016"><a xlink:title=" ">
<path fill="none" stroke="#63b8ff" d="M1237.72,-175.87C1242.35,-167.4 1249.55,-154.24 1255.39,-143.57"/>
<polygon fill="#63b8ff" stroke="#63b8ff" points="1258.53,-145.12 1260.26,-134.67 1252.39,-141.76 1258.53,-145.12"/>
</a>
</g>
</g>
<!-- Node17 -->
<g id="Node000017" class="node">
<title>Node17</title>
<g id="a_Node000017"><a xlink:title=" ">
<polygon fill="#e0e0e0" stroke="#999999" points="1352,-134.5 1308,-134.5 1308,-115.5 1352,-115.5 1352,-134.5"/>
<text text-anchor="middle" x="1330" y="-122.5" font-family="Helvetica,sans-Serif" font-size="10.00">bitset</text>
</a>
</g>
</g>
<!-- Node9&#45;&gt;Node17 -->
<g id="edge17_Node000009_Node000017" class="edge">
<title>Node9&#45;&gt;Node17</title>
<g id="a_edge17_Node000009_Node000017"><a xlink:title=" ">
<path fill="none" stroke="#63b8ff" d="M1247.31,-175.87C1263,-166.41 1288.4,-151.09 1306.91,-139.92"/>
<polygon fill="#63b8ff" stroke="#63b8ff" points="1308.87,-142.83 1315.63,-134.67 1305.26,-136.83 1308.87,-142.83"/>
</a>
</g>
</g>
<!-- Node18 -->
<g id="Node000018" class="node">
<title>Node18</title>
<g id="a_Node000018"><a xlink:title=" ">
<polygon fill="#e0e0e0" stroke="#999999" points="1417.5,-134.5 1370.5,-134.5 1370.5,-115.5 1417.5,-115.5 1417.5,-134.5"/>
<text text-anchor="middle" x="1394" y="-122.5" font-family="Helvetica,sans-Serif" font-size="10.00">cmath</text>
</a>
</g>
</g>
<!-- Node9&#45;&gt;Node18 -->
<g id="edge18_Node000009_Node000018" class="edge">
<title>Node9&#45;&gt;Node18</title>
<g id="a_edge18_Node000009_Node000018"><a xlink:title=" ">
<path fill="none" stroke="#63b8ff" d="M1259.17,-175.97C1285.17,-167.36 1326.1,-153.45 1361,-140 1362.38,-139.47 1363.79,-138.91 1365.2,-138.35"/>
<polygon fill="#63b8ff" stroke="#63b8ff" points="1366.63,-141.55 1374.54,-134.51 1363.96,-135.07 1366.63,-141.55"/>
</a>
</g>
</g>
<!-- Node19 -->
<g id="Node000019" class="node">
<title>Node19</title>
<g id="a_Node000019"><a xlink:title=" ">
<polygon fill="#e0e0e0" stroke="#999999" points="656,-134.5 610,-134.5 610,-115.5 656,-115.5 656,-134.5"/>
<text text-anchor="middle" x="633" y="-122.5" font-family="Helvetica,sans-Serif" font-size="10.00">cstdio</text>
</a>
</g>
</g>
<!-- Node9&#45;&gt;Node19 -->
<g id="edge20_Node000009_Node000019" class="edge">
<title>Node9&#45;&gt;Node19</title>
<g id="a_edge20_Node000009_Node000019"><a xlink:title=" ">
<path fill="none" stroke="#63b8ff" d="M1171.46,-182.27C1044.92,-177.26 759.51,-163.66 665,-140 663.06,-139.51 661.09,-138.92 659.12,-138.26"/>
<polygon fill="#63b8ff" stroke="#63b8ff" points="660.16,-134.9 649.57,-134.5 657.59,-141.42 660.16,-134.9"/>
</a>
</g>
</g>
<!-- Node20 -->
<g id="Node000020" class="node">
<title>Node20</title>
<g id="a_Node000020"><a xlink:title=" ">
<polygon fill="#e0e0e0" stroke="#999999" points="1500.5,-134.5 1435.5,-134.5 1435.5,-115.5 1500.5,-115.5 1500.5,-134.5"/>
<text text-anchor="middle" x="1468" y="-122.5" font-family="Helvetica,sans-Serif" font-size="10.00">functional</text>
</a>
</g>
</g>
<!-- Node9&#45;&gt;Node20 -->
<g id="edge21_Node000009_Node000020" class="edge">
<title>Node9&#45;&gt;Node20</title>
<g id="a_edge21_Node000009_Node000020"><a xlink:title=" ">
<path fill="none" stroke="#63b8ff" d="M1275.46,-175.92C1314.76,-167.7 1374.69,-154.43 1426,-140 1428.62,-139.26 1431.31,-138.47 1434.01,-137.63"/>
<polygon fill="#63b8ff" stroke="#63b8ff" points="1435.23,-140.92 1443.69,-134.54 1433.1,-134.25 1435.23,-140.92"/>
</a>
</g>
</g>
<!-- Node21 -->
<g id="Node000021" class="node">
<title>Node21</title>
<g id="a_Node000021"><a xlink:title=" ">
<polygon fill="#e0e0e0" stroke="#999999" points="1563.5,-134.5 1518.5,-134.5 1518.5,-115.5 1563.5,-115.5 1563.5,-134.5"/>
<text text-anchor="middle" x="1541" y="-122.5" font-family="Helvetica,sans-Serif" font-size="10.00">utility</text>
</a>
</g>
</g>
<!-- Node9&#45;&gt;Node21 -->
<g id="edge22_Node000009_Node000021" class="edge">
<title>Node9&#45;&gt;Node21</title>
<g id="a_edge22_Node000009_Node000021"><a xlink:title=" ">
<path fill="none" stroke="#63b8ff" d="M1294.56,-179.07C1351.15,-173.03 1436.95,-161.2 1509,-140 1510.68,-139.51 1512.39,-138.94 1514.1,-138.34"/>
<polygon fill="#63b8ff" stroke="#63b8ff" points="1515.7,-141.47 1523.69,-134.52 1513.11,-134.97 1515.7,-141.47"/>
</a>
</g>
</g>
<!-- Node22 -->
<g id="Node000022" class="node">
<title>Node22</title>
<g id="a_Node000022"><a xlink:href="as5047u__types_8hpp.html" target="_top" xlink:title="Type definitions for the AS5047U driver.">
<polygon fill="white" stroke="#666666" points="1050.5,-74 939.5,-74 939.5,-55 1050.5,-55 1050.5,-74"/>
<text text-anchor="middle" x="995" y="-62" font-family="Helvetica,sans-Serif" font-size="10.00">as5047u_types.hpp</text>
</a>
</g>
</g>
<!-- Node9&#45;&gt;Node22 -->
<g id="edge23_Node000009_Node000022" class="edge">
<title>Node9&#45;&gt;Node22</title>
<g id="a_edge23_Node000009_Node000022"><a xlink:title=" ">
<path fill="none" stroke="#63b8ff" d="M1171.46,-183.51C1098.68,-180.89 983.99,-171.68 957,-140 941.79,-122.14 960.91,-97.15 977.09,-81.14"/>
<polygon fill="#63b8ff" stroke="#63b8ff" points="979.73,-83.47 984.63,-74.08 974.94,-78.36 979.73,-83.47"/>
</a>
</g>
</g>
<!-- Node23 -->
<g id="Node000023" class="node">
<title>Node23</title>
<g id="a_Node000023"><a xlink:href="as5047u__config_8hpp.html" target="_top" xlink:title="Compile&#45;time configuration options for the AS5047U driver.">
<polygon fill="white" stroke="#666666" points="1079.5,-134.5 966.5,-134.5 966.5,-115.5 1079.5,-115.5 1079.5,-134.5"/>
<text text-anchor="middle" x="1023" y="-122.5" font-family="Helvetica,sans-Serif" font-size="10.00">as5047u_config.hpp</text>
</a>
</g>
</g>
<!-- Node9&#45;&gt;Node23 -->
<g id="edge25_Node000009_Node000023" class="edge">
<title>Node9&#45;&gt;Node23</title>
<g id="a_edge25_Node000009_Node000023"><a xlink:title=" ">
<path fill="none" stroke="#63b8ff" d="M1202.46,-175.99C1165.76,-165.77 1104.05,-148.58 1063.42,-137.26"/>
<polygon fill="#63b8ff" stroke="#63b8ff" points="1064.15,-133.83 1053.57,-134.52 1062.27,-140.57 1064.15,-133.83"/>
</a>
</g>
</g>
<!-- Node24 -->
<g id="Node000024" class="node">
<title>Node24</title>
<g id="a_Node000024"><a xlink:href="as5047u_8ipp.html" target="_top" xlink:title="Template implementation of AS5047U driver methods.">
<polygon fill="white" stroke="#666666" points="1684,-134.5 1582,-134.5 1582,-115.5 1684,-115.5 1684,-134.5"/>
<text text-anchor="middle" x="1633" y="-122.5" font-family="Helvetica,sans-Serif" font-size="10.00">../src/as5047u.ipp</text>
</a>
</g>
</g>
<!-- Node9&#45;&gt;Node24 -->
<g id="edge28_Node000009_Node000024" class="edge">
<title>Node9&#45;&gt;Node24</title>
<g id="a_edge28_Node000009_Node000024"><a xlink:title=" ">
<path fill="none" stroke="#63b8ff" d="M1294.55,-177.57C1361.24,-170.11 1470.43,-157 1564,-140 1569.33,-139.03 1574.89,-137.9 1580.47,-136.71"/>
<polygon fill="#63b8ff" stroke="#63b8ff" points="1581.44,-140.08 1590.45,-134.51 1579.94,-133.24 1581.44,-140.08"/>
</a>
</g>
</g>
<!-- Node11 -->
<g id="Node000011" class="node">
<title>Node11</title>
<g id="a_Node000011"><a xlink:title=" ">
<polygon fill="#e0e0e0" stroke="#999999" points="544.5,-74 491.5,-74 491.5,-55 544.5,-55 544.5,-74"/>
<text text-anchor="middle" x="518" y="-62" font-family="Helvetica,sans-Serif" font-size="10.00">cstddef</text>
</a>
</g>
</g>
<!-- Node10&#45;&gt;Node11 -->
<g id="edge10_Node000010_Node000011" class="edge">
<title>Node10&#45;&gt;Node11</title>
<g id="a_edge10_Node000010_Node000011"><a xlink:title=" ">
<path fill="none" stroke="#63b8ff" d="M518,-115.37C518,-107.25 518,-94.81 518,-84.39"/>
<polygon fill="#63b8ff" stroke="#63b8ff" points="521.5,-84.17 518,-74.17 514.5,-84.17 521.5,-84.17"/>
</a>
</g>
</g>
<!-- Node10&#45;&gt;Node12 -->
<g id="edge11_Node000010_Node000012" class="edge">
<title>Node10&#45;&gt;Node12</title>
<g id="a_edge11_Node000010_Node000012"><a xlink:title=" ">
<path fill="none" stroke="#63b8ff" d="M536.64,-115.47C579.82,-95.71 686.89,-46.71 737.99,-23.32"/>
<polygon fill="#63b8ff" stroke="#63b8ff" points="739.51,-26.47 747.14,-19.13 736.59,-20.11 739.51,-26.47"/>
</a>
</g>
</g>
<!-- Node13&#45;&gt;Node12 -->
<g id="edge13_Node000013_Node000012" class="edge">
<title>Node13&#45;&gt;Node12</title>
<g id="a_edge13_Node000013_Node000012"><a xlink:title=" ">
<path fill="none" stroke="#63b8ff" d="M843.22,-54.98C828.82,-46.69 806.69,-33.94 789.81,-24.22"/>
<polygon fill="#63b8ff" stroke="#63b8ff" points="791.46,-21.13 781.05,-19.17 787.97,-27.19 791.46,-21.13"/>
</a>
</g>
</g>
<!-- Node22&#45;&gt;Node12 -->
<g id="edge24_Node000022_Node000012" class="edge">
<title>Node22&#45;&gt;Node12</title>
<g id="a_edge24_Node000022_Node000012"><a xlink:title=" ">
<path fill="none" stroke="#63b8ff" d="M958.21,-54.98C914.87,-44.96 843.43,-28.42 800.92,-18.58"/>
<polygon fill="#63b8ff" stroke="#63b8ff" points="801.56,-15.14 791.03,-16.29 799.98,-21.96 801.56,-15.14"/>
</a>
</g>
</g>
<!-- Node23&#45;&gt;Node12 -->
<g id="edge26_Node000023_Node000012" class="edge">
<title>Node23&#45;&gt;Node12</title>
<g id="a_edge26_Node000023_Node000012"><a xlink:title=" ">
<path fill="none" stroke="#63b8ff" d="M1033.53,-115.4C1049.24,-101.55 1075.29,-73.96 1059,-55 1026.14,-16.77 871.93,-10.99 801.39,-10.39"/>
<polygon fill="#63b8ff" stroke="#63b8ff" points="801.23,-6.89 791.21,-10.33 801.19,-13.89 801.23,-6.89"/>
</a>
</g>
</g>
<!-- Node23&#45;&gt;Node22 -->
<g id="edge27_Node000023_Node000022" class="edge">
<title>Node23&#45;&gt;Node22</title>
<g id="a_edge27_Node000023_Node000022"><a xlink:title=" ">
<path fill="none" stroke="#63b8ff" d="M1018.87,-115.37C1014.86,-106.99 1008.65,-94.01 1003.56,-83.39"/>
<polygon fill="#63b8ff" stroke="#63b8ff" points="1006.62,-81.68 999.15,-74.17 1000.31,-84.7 1006.62,-81.68"/>
</a>
</g>
</g>
<!-- Node24&#45;&gt;Node9 -->
<g id="edge29_Node000024_Node000009" class="edge">
<title>Node24&#45;&gt;Node9</title>
<g id="a_edge29_Node000024_Node000009"><a xlink:title=" ">
<path fill="none" stroke="#63b8ff" d="M1607.88,-134.51C1599.66,-136.48 1590.52,-138.45 1582,-140 1486.95,-157.26 1375.79,-170.52 1304.84,-177.92"/>
<polygon fill="#63b8ff" stroke="#63b8ff" points="1304.26,-174.46 1294.67,-178.96 1304.98,-181.42 1304.26,-174.46"/>
</a>
</g>
</g>
<!-- Node25 -->
<g id="Node000025" class="node">
<title>Node25</title>
<g id="a_Node000025"><a xlink:title=" ">
<polygon fill="#e0e0e0" stroke="#999999" points="1661,-74 1605,-74 1605,-55 1661,-55 1661,-74"/>
<text text-anchor="middle" x="1633" y="-62" font-family="Helvetica,sans-Serif" font-size="10.00">iomanip</text>
</a>
</g>
</g>
<!-- Node24&#45;&gt;Node25 -->
<g id="edge30_Node000024_Node000025" class="edge">
<title>Node24&#45;&gt;Node25</title>
<g id="a_edge30_Node000024_Node000025"><a xlink:title=" ">
<path fill="none" stroke="#63b8ff" d="M1633,-115.37C1633,-107.25 1633,-94.81 1633,-84.39"/>
<polygon fill="#63b8ff" stroke="#63b8ff" points="1636.5,-84.17 1633,-74.17 1629.5,-84.17 1636.5,-84.17"/>
</a>
</g>
</g>
<!-- Node26&#45;&gt;Node2 -->
<g id="edge37_Node000026_Node000002" class="edge">
<title>Node26&#45;&gt;Node2</title>
<g id="a_edge37_Node000026_Node000002"><a xlink:title=" ">
<path fill="none" stroke="#63b8ff" d="M516.04,-175.97C554.95,-167.78 614.27,-154.53 665,-140 667.47,-139.29 670.01,-138.53 672.55,-137.73"/>
<polygon fill="#63b8ff" stroke="#63b8ff" points="673.86,-140.98 682.28,-134.55 671.69,-134.33 673.86,-140.98"/>
</a>
</g>
</g>
<!-- Node26&#45;&gt;Node7 -->
<g id="edge41_Node000026_Node000007" class="edge">
<title>Node26&#45;&gt;Node7</title>
<g id="a_edge41_Node000026_Node000007"><a xlink:title=" ">
<path fill="none" stroke="#63b8ff" d="M405.81,-182.12C324.27,-178.11 184.11,-167.54 67,-140 64.48,-139.41 61.91,-138.7 59.34,-137.92"/>
<polygon fill="#63b8ff" stroke="#63b8ff" points="60.22,-134.52 49.63,-134.64 57.98,-141.15 60.22,-134.52"/>
</a>
</g>
</g>
<!-- Node26&#45;&gt;Node10 -->
<g id="edge32_Node000026_Node000010" class="edge">
<title>Node26&#45;&gt;Node10</title>
<g id="a_edge32_Node000026_Node000010"><a xlink:title=" ">
<path fill="none" stroke="#63b8ff" d="M480.49,-175.87C486.99,-167.23 497.16,-153.7 505.28,-142.92"/>
<polygon fill="#63b8ff" stroke="#63b8ff" points="508.27,-144.76 511.48,-134.67 502.67,-140.56 508.27,-144.76"/>
</a>
</g>
</g>
<!-- Node26&#45;&gt;Node12 -->
<g id="edge38_Node000026_Node000012" class="edge">
<title>Node26&#45;&gt;Node12</title>
<g id="a_edge38_Node000026_Node000012"><a xlink:title=" ">
<path fill="none" stroke="#63b8ff" d="M405.95,-176.06C340.42,-167.24 249.7,-152.91 239,-140 230.49,-129.73 230.68,-120.42 239,-110 300.73,-32.74 622.88,-15.19 730.76,-11.45"/>
<polygon fill="#63b8ff" stroke="#63b8ff" points="730.93,-14.95 740.81,-11.12 730.7,-7.95 730.93,-14.95"/>
</a>
</g>
</g>
<!-- Node26&#45;&gt;Node19 -->
<g id="edge39_Node000026_Node000019" class="edge">
<title>Node26&#45;&gt;Node19</title>
<g id="a_edge39_Node000026_Node000019"><a xlink:title=" ">
<path fill="none" stroke="#63b8ff" d="M499.75,-175.93C525.34,-167.28 565.61,-153.35 600,-140 601.21,-139.53 602.44,-139.05 603.68,-138.55"/>
<polygon fill="#63b8ff" stroke="#63b8ff" points="605.27,-141.68 613.19,-134.64 602.61,-135.21 605.27,-141.68"/>
</a>
</g>
</g>
<!-- Node26&#45;&gt;Node27 -->
<g id="edge33_Node000026_Node000027" class="edge">
<title>Node26&#45;&gt;Node27</title>
<g id="a_edge33_Node000026_Node000027"><a xlink:title=" ">
<path fill="none" stroke="#63b8ff" d="M420.03,-175.98C365.85,-167.33 280.04,-153.34 206,-140 204.73,-139.77 203.45,-139.54 202.16,-139.3"/>
<polygon fill="#63b8ff" stroke="#63b8ff" points="202.6,-135.83 192.13,-137.45 201.33,-142.71 202.6,-135.83"/>
</a>
</g>
</g>
<!-- Node28 -->
<g id="Node000028" class="node">
<title>Node28</title>
<g id="a_Node000028"><a xlink:title=" ">
<polygon fill="#e0e0e0" stroke="#999999" points="872,-134.5 794,-134.5 794,-115.5 872,-115.5 872,-134.5"/>
<text text-anchor="middle" x="833" y="-122.5" font-family="Helvetica,sans-Serif" font-size="10.00">driver/gpio.h</text>
</a>
</g>
</g>
<!-- Node26&#45;&gt;Node28 -->
<g id="edge35_Node000026_Node000028" class="edge">
<title>Node26&#45;&gt;Node28</title>
<g id="a_edge35_Node000026_Node000028"><a xlink:title=" ">
<path fill="none" stroke="#63b8ff" d="M526.2,-175.99C595.29,-164.74 716.21,-145.03 783.77,-134.02"/>
<polygon fill="#63b8ff" stroke="#63b8ff" points="784.43,-137.46 793.74,-132.4 783.31,-130.55 784.43,-137.46"/>
</a>
</g>
</g>
<!-- Node29 -->
<g id="Node000029" class="node">
<title>Node29</title>
<g id="a_Node000029"><a xlink:title=" ">
<polygon fill="#e0e0e0" stroke="#999999" points="426,-134.5 316,-134.5 316,-115.5 426,-115.5 426,-134.5"/>
<text text-anchor="middle" x="371" y="-122.5" font-family="Helvetica,sans-Serif" font-size="10.00">driver/spi_master.h</text>
</a>
</g>
</g>
<!-- Node26&#45;&gt;Node29 -->
<g id="edge36_Node000026_Node000029" class="edge">
<title>Node26&#45;&gt;Node29</title>
<g id="a_edge36_Node000026_Node000029"><a xlink:title=" ">
<path fill="none" stroke="#63b8ff" d="M458.8,-175.87C441.99,-166.32 414.68,-150.81 394.98,-139.62"/>
<polygon fill="#63b8ff" stroke="#63b8ff" points="396.68,-136.56 386.26,-134.67 393.23,-142.65 396.68,-136.56"/>
</a>
</g>
</g>
<!-- Node30 -->
<g id="Node000030" class="node">
<title>Node30</title>
<g id="a_Node000030"><a xlink:title=" ">
<polygon fill="#e0e0e0" stroke="#999999" points="298,-134.5 248,-134.5 248,-115.5 298,-115.5 298,-134.5"/>
<text text-anchor="middle" x="273" y="-122.5" font-family="Helvetica,sans-Serif" font-size="10.00">cstring</text>
</a>
</g>
</g>
<!-- Node26&#45;&gt;Node30 -->
<g id="edge40_Node000026_Node000030" class="edge">
<title>Node26&#45;&gt;Node30</title>
<g id="a_edge40_Node000026_Node000030"><a xlink:title=" ">
<path fill="none" stroke="#63b8ff" d="M436.44,-175.97C402.32,-167.88 350.78,-154.78 307,-140 305.38,-139.45 303.72,-138.87 302.06,-138.26"/>
<polygon fill="#63b8ff" stroke="#63b8ff" points="303.2,-134.94 292.61,-134.58 300.66,-141.47 303.2,-134.94"/>
</a>
</g>
</g>
<!-- Node27&#45;&gt;Node12 -->
<g id="edge34_Node000027_Node000012" class="edge">
<title>Node27&#45;&gt;Node12</title>
<g id="a_edge34_Node000027_Node000012"><a xlink:title=" ">
<path fill="none" stroke="#63b8ff" d="M143.83,-109.95C156.21,-93.52 179.15,-67.05 206,-55 300.41,-12.65 623.03,-9.93 730.7,-10.24"/>
<polygon fill="#63b8ff" stroke="#63b8ff" points="730.71,-13.74 740.72,-10.28 730.74,-6.74 730.71,-13.74"/>
</a>
</g>
</g>
<!-- Node31&#45;&gt;Node2 -->
<g id="edge44_Node000031_Node000002" class="edge">
<title>Node31&#45;&gt;Node2</title>
<g id="a_edge44_Node000031_Node000002"><a xlink:title=" ">
<path fill="none" stroke="#63b8ff" d="M1545.79,-182.54C1392.76,-176.44 933.57,-157.18 785,-140 772.91,-138.6 759.86,-136.53 747.93,-134.4"/>
<polygon fill="#63b8ff" stroke="#63b8ff" points="748.24,-130.9 737.78,-132.53 746.98,-137.78 748.24,-130.9"/>
</a>
</g>
</g>
<!-- Node31&#45;&gt;Node4 -->
<g id="edge47_Node000031_Node000004" class="edge">
<title>Node31&#45;&gt;Node4</title>
<g id="a_edge47_Node000031_Node000004"><a xlink:title=" ">
<path fill="none" stroke="#63b8ff" d="M1619.7,-175.99C1647.59,-165.99 1694.07,-149.3 1725.6,-137.99"/>
<polygon fill="#63b8ff" stroke="#63b8ff" points="1727.04,-141.19 1735.27,-134.52 1724.68,-134.6 1727.04,-141.19"/>
</a>
</g>
</g>
<!-- Node31&#45;&gt;Node5 -->
<g id="edge50_Node000031_Node000005" class="edge">
<title>Node31&#45;&gt;Node5</title>
<g id="a_edge50_Node000031_Node000005"><a xlink:title=" ">
<path fill="none" stroke="#63b8ff" d="M1646.28,-177.54C1650.91,-176.98 1655.54,-176.46 1660,-176 1878.98,-153.5 1936.87,-176.27 2154,-140 2158.79,-139.2 2163.78,-138.16 2168.7,-137.01"/>
<polygon fill="#63b8ff" stroke="#63b8ff" points="2169.75,-140.36 2178.6,-134.54 2168.05,-133.57 2169.75,-140.36"/>
</a>
</g>
</g>
<!-- Node31&#45;&gt;Node28 -->
<g id="edge46_Node000031_Node000028" class="edge">
<title>Node31&#45;&gt;Node28</title>
<g id="a_edge46_Node000031_Node000028"><a xlink:title=" ">
<path fill="none" stroke="#63b8ff" d="M1545.82,-181.74C1437.95,-175.65 1176,-159.98 957,-140 932.3,-137.75 904.9,-134.71 882.15,-132.04"/>
<polygon fill="#63b8ff" stroke="#63b8ff" points="882.39,-128.54 872.05,-130.84 881.57,-135.5 882.39,-128.54"/>
</a>
</g>
</g>
<!-- Node32 -->
<g id="Node000032" class="node">
<title>Node32</title>
<g id="a_Node000032"><a xlink:title=" ">
<polygon fill="#e0e0e0" stroke="#999999" points="2029,-134.5 1955,-134.5 1955,-115.5 2029,-115.5 2029,-134.5"/>
<text text-anchor="middle" x="1992" y="-122.5" font-family="Helvetica,sans-Serif" font-size="10.00">esp_timer.h</text>
</a>
</g>
</g>
<!-- Node31&#45;&gt;Node32 -->
<g id="edge45_Node000031_Node000032" class="edge">
<title>Node31&#45;&gt;Node32</title>
<g id="a_edge45_Node000031_Node000032"><a xlink:title=" ">
<path fill="none" stroke="#63b8ff" d="M1646.3,-177.79C1650.93,-177.18 1655.55,-176.58 1660,-176 1787.06,-159.57 1820.71,-166.75 1946,-140 1949.45,-139.26 1953.02,-138.39 1956.57,-137.44"/>
<polygon fill="#63b8ff" stroke="#63b8ff" points="1957.76,-140.74 1966.41,-134.63 1955.84,-134.01 1957.76,-140.74"/>
</a>
</g>
</g>
<!-- Node33 -->
<g id="Node000033" class="node">
<title>Node33</title>
<g id="a_Node000033"><a xlink:title=" ">
<polygon fill="#e0e0e0" stroke="#999999" points="2144.5,-134.5 2047.5,-134.5 2047.5,-115.5 2144.5,-115.5 2144.5,-134.5"/>
<text text-anchor="middle" x="2096" y="-122.5" font-family="Helvetica,sans-Serif" font-size="10.00">freertos/queue.h</text>
</a>
</g>
</g>
<!-- Node31&#45;&gt;Node33 -->
<g id="edge48_Node000031_Node000033" class="edge">
<title>Node31&#45;&gt;Node33</title>
<g id="a_edge48_Node000031_Node000033"><a xlink:title=" ">
<path fill="none" stroke="#63b8ff" d="M1646.29,-177.64C1650.92,-177.06 1655.55,-176.51 1660,-176 1827.67,-156.89 1871.56,-167.87 2038,-140 2043.36,-139.1 2048.97,-137.98 2054.49,-136.77"/>
<polygon fill="#63b8ff" stroke="#63b8ff" points="2055.3,-140.18 2064.26,-134.52 2053.73,-133.36 2055.3,-140.18"/>
</a>
</g>
</g>
<!-- Node34 -->
<g id="Node000034" class="node">
<title>Node34</title>
<g id="a_Node000034"><a xlink:title=" ">
<polygon fill="#e0e0e0" stroke="#999999" points="1936.5,-134.5 1833.5,-134.5 1833.5,-115.5 1936.5,-115.5 1936.5,-134.5"/>
<text text-anchor="middle" x="1885" y="-122.5" font-family="Helvetica,sans-Serif" font-size="10.00">freertos/semphr.h</text>
</a>
</g>
</g>
<!-- Node31&#45;&gt;Node34 -->
<g id="edge49_Node000031_Node000034" class="edge">
<title>Node31&#45;&gt;Node34</title>
<g id="a_edge49_Node000031_Node000034"><a xlink:title=" ">
<path fill="none" stroke="#63b8ff" d="M1642.59,-175.97C1688.94,-167.37 1762.03,-153.46 1825,-140 1829.72,-138.99 1834.64,-137.9 1839.54,-136.79"/>
<polygon fill="#63b8ff" stroke="#63b8ff" points="1840.55,-140.16 1849.52,-134.51 1838.99,-133.33 1840.55,-140.16"/>
</a>
</g>
</g>
</g>
</svg>
