<?xml version="1.0" encoding="UTF-8" standalone="no"?>
<!DOCTYPE svg PUBLIC "-//W3C//DTD SVG 1.1//EN"
 "http://www.w3.org/Graphics/SVG/1.1/DTD/svg11.dtd">
<!-- Generated by graphviz version 2.43.0 (0)
 -->
<!-- Title: examples/esp32/main/DriverIntegrationTest.cpp Pages: 1 -->
<svg width="1934pt" height="258pt"
 viewBox="0.00 0.00 1934.31 258.00" xmlns="http://www.w3.org/2000/svg" xmlns:xlink="http://www.w3.org/1999/xlink">
<g id="graph0" class="graph" transform="scale(1 1) rotate(0) translate(4 254)">
<title>examples/esp32/main/DriverIntegrationTest.cpp</title>
<!-- Node1 -->
<g id="Node000001" class="node">
<title>Node1</title>
<g id="a_Node000001"><a xlink:title="Comprehensive Integration Test Suite for as5047u::AS5047U Driver.">
<polygon fill="#999999" stroke="#666666" points="1309.81,-250 1166.81,-250 1166.81,-220 1309.81,-220 1309.81,-250"/>
<text text-anchor="start" x="1174.81" y="-238" font-family="Helvetica,sans-Serif" font-size="10.00">examples/esp32/main</text>
<text text-anchor="middle" x="1238.31" y="-227" font-family="Helvetica,sans-Serif" font-size="10.00">/DriverIntegrationTest.cpp</text>
</a>
</g>
</g>
<!-- Node2 -->
<g id="Node000002" class="node">
<title>Node2</title>
<g id="a_Node000002"><a xlink:title=" ">
<polygon fill="#e0e0e0" stroke="#999999" points="1359.81,-129 1296.81,-129 1296.81,-110 1359.81,-110 1359.81,-129"/>
<text text-anchor="middle" x="1328.31" y="-117" font-family="Helvetica,sans-Serif" font-size="10.00">esp_log.h</text>
</a>
</g>
</g>
<!-- Node1&#45;&gt;Node2 -->
<g id="edge1_Node000001_Node000002" class="edge">
<title>Node1&#45;&gt;Node2</title>
<g id="a_edge1_Node000001_Node000002"><a xlink:title=" ">
<path fill="none" stroke="#63b8ff" d="M1239.23,-219.73C1240.82,-204.78 1245.22,-181.25 1257.31,-165 1267.4,-151.44 1282.96,-141.02 1296.94,-133.69"/>
<polygon fill="#63b8ff" stroke="#63b8ff" points="1298.85,-136.65 1306.28,-129.1 1295.77,-130.37 1298.85,-136.65"/>
</a>
</g>
</g>
<!-- Node3 -->
<g id="Node000003" class="node">
<title>Node3</title>
<g id="a_Node000003"><a xlink:title=" ">
<polygon fill="#e0e0e0" stroke="#999999" points="1011.31,-184 927.31,-184 927.31,-165 1011.31,-165 1011.31,-184"/>
<text text-anchor="middle" x="969.31" y="-172" font-family="Helvetica,sans-Serif" font-size="10.00">esp_system.h</text>
</a>
</g>
</g>
<!-- Node1&#45;&gt;Node3 -->
<g id="edge2_Node000001_Node000003" class="edge">
<title>Node1&#45;&gt;Node3</title>
<g id="a_edge2_Node000001_Node000003"><a xlink:title=" ">
<path fill="none" stroke="#63b8ff" d="M1173.88,-219.99C1126.15,-209.61 1062.09,-195.68 1018.45,-186.19"/>
<polygon fill="#63b8ff" stroke="#63b8ff" points="1019.16,-182.76 1008.64,-184.05 1017.67,-189.6 1019.16,-182.76"/>
</a>
</g>
</g>
<!-- Node4 -->
<g id="Node000004" class="node">
<title>Node4</title>
<g id="a_Node000004"><a xlink:title=" ">
<polygon fill="#e0e0e0" stroke="#999999" points="1490.81,-129 1377.81,-129 1377.81,-110 1490.81,-110 1490.81,-129"/>
<text text-anchor="middle" x="1434.31" y="-117" font-family="Helvetica,sans-Serif" font-size="10.00">freertos/FreeRTOS.h</text>
</a>
</g>
</g>
<!-- Node1&#45;&gt;Node4 -->
<g id="edge3_Node000001_Node000004" class="edge">
<title>Node1&#45;&gt;Node4</title>
<g id="a_edge3_Node000001_Node000004"><a xlink:title=" ">
<path fill="none" stroke="#63b8ff" d="M1263.09,-219.81C1280.51,-209.83 1304.35,-196.13 1325.31,-184 1354.84,-166.92 1388.78,-147.12 1410.84,-134.23"/>
<polygon fill="#63b8ff" stroke="#63b8ff" points="1412.65,-137.22 1419.52,-129.16 1409.12,-131.18 1412.65,-137.22"/>
</a>
</g>
</g>
<!-- Node5 -->
<g id="Node000005" class="node">
<title>Node5</title>
<g id="a_Node000005"><a xlink:title=" ">
<polygon fill="#e0e0e0" stroke="#999999" points="1926.31,-129 1838.31,-129 1838.31,-110 1926.31,-110 1926.31,-129"/>
<text text-anchor="middle" x="1882.31" y="-117" font-family="Helvetica,sans-Serif" font-size="10.00">freertos/task.h</text>
</a>
</g>
</g>
<!-- Node1&#45;&gt;Node5 -->
<g id="edge4_Node000001_Node000005" class="edge">
<title>Node1&#45;&gt;Node5</title>
<g id="a_edge4_Node000001_Node000005"><a xlink:title=" ">
<path fill="none" stroke="#63b8ff" d="M1310.02,-222.28C1370.41,-212.34 1459.07,-197.57 1536.31,-184 1639.59,-165.86 1759.96,-143.49 1828.05,-130.72"/>
<polygon fill="#63b8ff" stroke="#63b8ff" points="1828.93,-134.12 1838.11,-128.84 1827.64,-127.24 1828.93,-134.12"/>
</a>
</g>
</g>
<!-- Node6 -->
<g id="Node000006" class="node">
<title>Node6</title>
<g id="a_Node000006"><a xlink:title=" ">
<polygon fill="#e0e0e0" stroke="#999999" points="1016.31,-129 958.31,-129 958.31,-110 1016.31,-110 1016.31,-129"/>
<text text-anchor="middle" x="987.31" y="-117" font-family="Helvetica,sans-Serif" font-size="10.00">memory</text>
</a>
</g>
</g>
<!-- Node1&#45;&gt;Node6 -->
<g id="edge5_Node000001_Node000006" class="edge">
<title>Node1&#45;&gt;Node6</title>
<g id="a_edge5_Node000001_Node000006"><a xlink:title=" ">
<path fill="none" stroke="#63b8ff" d="M1166.63,-221.98C1132.41,-214.31 1091.75,-202.28 1058.31,-184 1035.99,-171.8 1014.86,-151.34 1001.55,-136.94"/>
<polygon fill="#63b8ff" stroke="#63b8ff" points="1003.95,-134.38 994.67,-129.28 998.75,-139.06 1003.95,-134.38"/>
</a>
</g>
</g>
<!-- Node7 -->
<g id="Node000007" class="node">
<title>Node7</title>
<g id="a_Node000007"><a xlink:title=" ">
<polygon fill="#e0e0e0" stroke="#999999" points="1316.31,-184 1266.31,-184 1266.31,-165 1316.31,-165 1316.31,-184"/>
<text text-anchor="middle" x="1291.31" y="-172" font-family="Helvetica,sans-Serif" font-size="10.00">stdio.h</text>
</a>
</g>
</g>
<!-- Node1&#45;&gt;Node7 -->
<g id="edge6_Node000001_Node000007" class="edge">
<title>Node1&#45;&gt;Node7</title>
<g id="a_edge6_Node000001_Node000007"><a xlink:title=" ">
<path fill="none" stroke="#63b8ff" d="M1251.14,-219.84C1258.84,-211.35 1268.65,-200.52 1276.65,-191.69"/>
<polygon fill="#63b8ff" stroke="#63b8ff" points="1279.25,-194.03 1283.37,-184.27 1274.06,-189.33 1279.25,-194.03"/>
</a>
</g>
</g>
<!-- Node8 -->
<g id="Node000008" class="node">
<title>Node8</title>
<g id="a_Node000008"><a xlink:href="AS5047U_8hpp.html" target="_top" xlink:title="Driver for AMS AS5047U Magnetic Rotary Position Sensor (C++21).">
<polygon fill="white" stroke="#666666" points="567.31,-184 441.31,-184 441.31,-165 567.31,-165 567.31,-184"/>
<text text-anchor="middle" x="504.31" y="-172" font-family="Helvetica,sans-Serif" font-size="10.00">../../../inc/AS5047U.hpp</text>
</a>
</g>
</g>
<!-- Node1&#45;&gt;Node8 -->
<g id="edge7_Node000001_Node000008" class="edge">
<title>Node1&#45;&gt;Node8</title>
<g id="a_edge7_Node000001_Node000008"><a xlink:title=" ">
<path fill="none" stroke="#63b8ff" d="M1166.6,-228.28C1026.71,-217.14 718.79,-192.59 577.63,-181.34"/>
<polygon fill="#63b8ff" stroke="#63b8ff" points="577.6,-177.83 567.35,-180.52 577.04,-184.81 577.6,-177.83"/>
</a>
</g>
</g>
<!-- Node24 -->
<g id="Node000024" class="node">
<title>Node24</title>
<g id="a_Node000024"><a xlink:href="Esp32As5047uBus_8hpp.html" target="_top" xlink:title="ESP32 SPI transport implementation for AS5047U driver.">
<polygon fill="white" stroke="#666666" points="1194.81,-184 1067.81,-184 1067.81,-165 1194.81,-165 1194.81,-184"/>
<text text-anchor="middle" x="1131.31" y="-172" font-family="Helvetica,sans-Serif" font-size="10.00">Esp32As5047uBus.hpp</text>
</a>
</g>
</g>
<!-- Node1&#45;&gt;Node24 -->
<g id="edge29_Node000001_Node000024" class="edge">
<title>Node1&#45;&gt;Node24</title>
<g id="a_edge29_Node000001_Node000024"><a xlink:title=" ">
<path fill="none" stroke="#63b8ff" d="M1212.68,-219.99C1195.47,-210.58 1172.91,-198.24 1155.92,-188.95"/>
<polygon fill="#63b8ff" stroke="#63b8ff" points="1157.57,-185.87 1147.11,-184.14 1154.21,-192.01 1157.57,-185.87"/>
</a>
</g>
</g>
<!-- Node27 -->
<g id="Node000027" class="node">
<title>Node27</title>
<g id="a_Node000027"><a xlink:href="TestFramework_8h.html" target="_top" xlink:title="Shared testing framework for ESP32&#45;C6 comprehensive test suites.">
<polygon fill="white" stroke="#666666" points="1527.31,-184 1427.31,-184 1427.31,-165 1527.31,-165 1527.31,-184"/>
<text text-anchor="middle" x="1477.31" y="-172" font-family="Helvetica,sans-Serif" font-size="10.00">TestFramework.h</text>
</a>
</g>
</g>
<!-- Node1&#45;&gt;Node27 -->
<g id="edge36_Node000001_Node000027" class="edge">
<title>Node1&#45;&gt;Node27</title>
<g id="a_edge36_Node000001_Node000027"><a xlink:title=" ">
<path fill="none" stroke="#63b8ff" d="M1295.56,-219.99C1337.52,-209.72 1393.69,-195.97 1432.42,-186.49"/>
<polygon fill="#63b8ff" stroke="#63b8ff" points="1433.49,-189.83 1442.37,-184.05 1431.82,-183.03 1433.49,-189.83"/>
</a>
</g>
</g>
<!-- Node9 -->
<g id="Node000009" class="node">
<title>Node9</title>
<g id="a_Node000009"><a xlink:href="AS5047U__Bus_8hpp.html" target="_top" xlink:title="CRTP&#45;based SPI bus interface for AS5047U driver.">
<polygon fill="white" stroke="#666666" points="939.81,-129 834.81,-129 834.81,-110 939.81,-110 939.81,-129"/>
<text text-anchor="middle" x="887.31" y="-117" font-family="Helvetica,sans-Serif" font-size="10.00">AS5047U_Bus.hpp</text>
</a>
</g>
</g>
<!-- Node8&#45;&gt;Node9 -->
<g id="edge8_Node000008_Node000009" class="edge">
<title>Node8&#45;&gt;Node9</title>
<g id="a_edge8_Node000008_Node000009"><a xlink:title=" ">
<path fill="none" stroke="#63b8ff" d="M565.85,-164.98C636.79,-155.17 752.79,-139.12 824.34,-129.21"/>
<polygon fill="#63b8ff" stroke="#63b8ff" points="825.13,-132.64 834.56,-127.8 824.18,-125.7 825.13,-132.64"/>
</a>
</g>
</g>
<!-- Node11 -->
<g id="Node000011" class="node">
<title>Node11</title>
<g id="a_Node000011"><a xlink:title=" ">
<polygon fill="#e0e0e0" stroke="#999999" points="712.31,-19 662.31,-19 662.31,0 712.31,0 712.31,-19"/>
<text text-anchor="middle" x="687.31" y="-7" font-family="Helvetica,sans-Serif" font-size="10.00">cstdint</text>
</a>
</g>
</g>
<!-- Node8&#45;&gt;Node11 -->
<g id="edge18_Node000008_Node000011" class="edge">
<title>Node8&#45;&gt;Node11</title>
<g id="a_edge18_Node000008_Node000011"><a xlink:title=" ">
<path fill="none" stroke="#63b8ff" d="M440.88,-172.54C312.66,-169.95 32.31,-160.69 3.31,-129 -2.39,-122.77 1.46,-118.24 3.31,-110 9.23,-83.62 6.97,-70.23 29.31,-55 80.96,-19.79 523.24,-12.27 652.17,-10.82"/>
<polygon fill="#63b8ff" stroke="#63b8ff" points="652.33,-14.32 662.29,-10.71 652.25,-7.32 652.33,-14.32"/>
</a>
</g>
</g>
<!-- Node12 -->
<g id="Node000012" class="node">
<title>Node12</title>
<g id="a_Node000012"><a xlink:href="AS5047U__REGISTERS_8hpp.html" target="_top" xlink:title="Register definitions for the AS5047U Rotary Position Sensor.">
<polygon fill="white" stroke="#666666" points="830.81,-74 689.81,-74 689.81,-55 830.81,-55 830.81,-74"/>
<text text-anchor="middle" x="760.31" y="-62" font-family="Helvetica,sans-Serif" font-size="10.00">AS5047U_REGISTERS.hpp</text>
</a>
</g>
</g>
<!-- Node8&#45;&gt;Node12 -->
<g id="edge11_Node000008_Node000012" class="edge">
<title>Node8&#45;&gt;Node12</title>
<g id="a_edge11_Node000008_Node000012"><a xlink:title=" ">
<path fill="none" stroke="#63b8ff" d="M567.35,-171.82C636.6,-168.49 741.35,-158.57 766.31,-129 776.79,-116.6 773.3,-97.57 768.4,-83.58"/>
<polygon fill="#63b8ff" stroke="#63b8ff" points="771.55,-82.03 764.59,-74.05 765.05,-84.63 771.55,-82.03"/>
</a>
</g>
</g>
<!-- Node13 -->
<g id="Node000013" class="node">
<title>Node13</title>
<g id="a_Node000013"><a xlink:title=" ">
<polygon fill="#e0e0e0" stroke="#999999" points="336.31,-129 272.31,-129 272.31,-110 336.31,-110 336.31,-129"/>
<text text-anchor="middle" x="304.31" y="-117" font-family="Helvetica,sans-Serif" font-size="10.00">algorithm</text>
</a>
</g>
</g>
<!-- Node8&#45;&gt;Node13 -->
<g id="edge13_Node000008_Node000013" class="edge">
<title>Node8&#45;&gt;Node13</title>
<g id="a_edge13_Node000008_Node000013"><a xlink:title=" ">
<path fill="none" stroke="#63b8ff" d="M472.18,-164.98C438.06,-155.94 384,-141.62 346.48,-131.67"/>
<polygon fill="#63b8ff" stroke="#63b8ff" points="346.93,-128.17 336.37,-128.99 345.14,-134.94 346.93,-128.17"/>
</a>
</g>
</g>
<!-- Node14 -->
<g id="Node000014" class="node">
<title>Node14</title>
<g id="a_Node000014"><a xlink:title=" ">
<polygon fill="#e0e0e0" stroke="#999999" points="396.31,-129 354.31,-129 354.31,-110 396.31,-110 396.31,-129"/>
<text text-anchor="middle" x="375.31" y="-117" font-family="Helvetica,sans-Serif" font-size="10.00">array</text>
</a>
</g>
</g>
<!-- Node8&#45;&gt;Node14 -->
<g id="edge14_Node000008_Node000014" class="edge">
<title>Node8&#45;&gt;Node14</title>
<g id="a_edge14_Node000008_Node000014"><a xlink:title=" ">
<path fill="none" stroke="#63b8ff" d="M483.59,-164.98C462.55,-156.34 429.76,-142.87 405.78,-133.02"/>
<polygon fill="#63b8ff" stroke="#63b8ff" points="407,-129.73 396.42,-129.17 404.34,-136.21 407,-129.73"/>
</a>
</g>
</g>
<!-- Node15 -->
<g id="Node000015" class="node">
<title>Node15</title>
<g id="a_Node000015"><a xlink:title=" ">
<polygon fill="#e0e0e0" stroke="#999999" points="464.31,-129 414.31,-129 414.31,-110 464.31,-110 464.31,-129"/>
<text text-anchor="middle" x="439.31" y="-117" font-family="Helvetica,sans-Serif" font-size="10.00">atomic</text>
</a>
</g>
</g>
<!-- Node8&#45;&gt;Node15 -->
<g id="edge15_Node000008_Node000015" class="edge">
<title>Node8&#45;&gt;Node15</title>
<g id="a_edge15_Node000008_Node000015"><a xlink:title=" ">
<path fill="none" stroke="#63b8ff" d="M493.87,-164.98C484.17,-157.07 469.5,-145.11 457.81,-135.58"/>
<polygon fill="#63b8ff" stroke="#63b8ff" points="459.91,-132.78 449.95,-129.17 455.48,-138.2 459.91,-132.78"/>
</a>
</g>
</g>
<!-- Node16 -->
<g id="Node000016" class="node">
<title>Node16</title>
<g id="a_Node000016"><a xlink:title=" ">
<polygon fill="#e0e0e0" stroke="#999999" points="526.31,-129 482.31,-129 482.31,-110 526.31,-110 526.31,-129"/>
<text text-anchor="middle" x="504.31" y="-117" font-family="Helvetica,sans-Serif" font-size="10.00">bitset</text>
</a>
</g>
</g>
<!-- Node8&#45;&gt;Node16 -->
<g id="edge16_Node000008_Node000016" class="edge">
<title>Node8&#45;&gt;Node16</title>
<g id="a_edge16_Node000008_Node000016"><a xlink:title=" ">
<path fill="none" stroke="#63b8ff" d="M504.31,-164.75C504.31,-157.8 504.31,-147.85 504.31,-139.13"/>
<polygon fill="#63b8ff" stroke="#63b8ff" points="507.81,-139.09 504.31,-129.09 500.81,-139.09 507.81,-139.09"/>
</a>
</g>
</g>
<!-- Node17 -->
<g id="Node000017" class="node">
<title>Node17</title>
<g id="a_Node000017"><a xlink:title=" ">
<polygon fill="#e0e0e0" stroke="#999999" points="591.81,-129 544.81,-129 544.81,-110 591.81,-110 591.81,-129"/>
<text text-anchor="middle" x="568.31" y="-117" font-family="Helvetica,sans-Serif" font-size="10.00">cmath</text>
</a>
</g>
</g>
<!-- Node8&#45;&gt;Node17 -->
<g id="edge17_Node000008_Node000017" class="edge">
<title>Node8&#45;&gt;Node17</title>
<g id="a_edge17_Node000008_Node000017"><a xlink:title=" ">
<path fill="none" stroke="#63b8ff" d="M514.6,-164.98C524.15,-157.07 538.59,-145.11 550.1,-135.58"/>
<polygon fill="#63b8ff" stroke="#63b8ff" points="552.37,-138.24 557.84,-129.17 547.91,-132.85 552.37,-138.24"/>
</a>
</g>
</g>
<!-- Node18 -->
<g id="Node000018" class="node">
<title>Node18</title>
<g id="a_Node000018"><a xlink:title=" ">
<polygon fill="#e0e0e0" stroke="#999999" points="656.31,-129 610.31,-129 610.31,-110 656.31,-110 656.31,-129"/>
<text text-anchor="middle" x="633.31" y="-117" font-family="Helvetica,sans-Serif" font-size="10.00">cstdio</text>
</a>
</g>
</g>
<!-- Node8&#45;&gt;Node18 -->
<g id="edge19_Node000008_Node000018" class="edge">
<title>Node8&#45;&gt;Node18</title>
<g id="a_edge19_Node000008_Node000018"><a xlink:title=" ">
<path fill="none" stroke="#63b8ff" d="M525.04,-164.98C546.07,-156.34 578.86,-142.87 602.85,-133.02"/>
<polygon fill="#63b8ff" stroke="#63b8ff" points="604.29,-136.21 612.21,-129.17 601.63,-129.73 604.29,-136.21"/>
</a>
</g>
</g>
<!-- Node19 -->
<g id="Node000019" class="node">
<title>Node19</title>
<g id="a_Node000019"><a xlink:title=" ">
<polygon fill="#e0e0e0" stroke="#999999" points="739.81,-129 674.81,-129 674.81,-110 739.81,-110 739.81,-129"/>
<text text-anchor="middle" x="707.31" y="-117" font-family="Helvetica,sans-Serif" font-size="10.00">functional</text>
</a>
</g>
</g>
<!-- Node8&#45;&gt;Node19 -->
<g id="edge20_Node000008_Node000019" class="edge">
<title>Node8&#45;&gt;Node19</title>
<g id="a_edge20_Node000008_Node000019"><a xlink:title=" ">
<path fill="none" stroke="#63b8ff" d="M536.93,-164.98C571.7,-155.91 626.9,-141.49 665,-131.55"/>
<polygon fill="#63b8ff" stroke="#63b8ff" points="665.99,-134.91 674.78,-128.99 664.22,-128.13 665.99,-134.91"/>
</a>
</g>
</g>
<!-- Node20 -->
<g id="Node000020" class="node">
<title>Node20</title>
<g id="a_Node000020"><a xlink:href="AS5047U__types_8hpp.html" target="_top" xlink:title="Type definitions for the AS5047U driver.">
<polygon fill="white" stroke="#666666" points="671.31,-74 557.31,-74 557.31,-55 671.31,-55 671.31,-74"/>
<text text-anchor="middle" x="614.31" y="-62" font-family="Helvetica,sans-Serif" font-size="10.00">AS5047U_types.hpp</text>
</a>
</g>
</g>
<!-- Node8&#45;&gt;Node20 -->
<g id="edge21_Node000008_Node000020" class="edge">
<title>Node8&#45;&gt;Node20</title>
<g id="a_edge21_Node000008_Node000020"><a xlink:title=" ">
<path fill="none" stroke="#63b8ff" d="M567.44,-170.89C631.92,-166.75 725.7,-156.11 748.31,-129 772.23,-100.33 726.04,-83.76 681.5,-74.79"/>
<polygon fill="#63b8ff" stroke="#63b8ff" points="681.93,-71.31 671.45,-72.88 680.63,-78.19 681.93,-71.31"/>
</a>
</g>
</g>
<!-- Node21 -->
<g id="Node000021" class="node">
<title>Node21</title>
<g id="a_Node000021"><a xlink:href="AS5047U__config_8hpp.html" target="_top" xlink:title=" ">
<polygon fill="white" stroke="#666666" points="254.31,-129 138.31,-129 138.31,-110 254.31,-110 254.31,-129"/>
<text text-anchor="middle" x="196.31" y="-117" font-family="Helvetica,sans-Serif" font-size="10.00">AS5047U_config.hpp</text>
</a>
</g>
</g>
<!-- Node8&#45;&gt;Node21 -->
<g id="edge23_Node000008_Node000021" class="edge">
<title>Node8&#45;&gt;Node21</title>
<g id="a_edge23_Node000008_Node000021"><a xlink:title=" ">
<path fill="none" stroke="#63b8ff" d="M454.83,-164.98C400.69,-155.67 313.92,-140.74 256.03,-130.78"/>
<polygon fill="#63b8ff" stroke="#63b8ff" points="256.38,-127.28 245.93,-129.04 255.19,-134.18 256.38,-127.28"/>
</a>
</g>
</g>
<!-- Node22 -->
<g id="Node000022" class="node">
<title>Node22</title>
<g id="a_Node000022"><a xlink:href="AS5047U_8cpp.html" target="_top" xlink:title=" ">
<polygon fill="white" stroke="#666666" points="119.81,-129 12.81,-129 12.81,-110 119.81,-110 119.81,-129"/>
<text text-anchor="middle" x="66.31" y="-117" font-family="Helvetica,sans-Serif" font-size="10.00">../src/AS5047U.cpp</text>
</a>
</g>
</g>
<!-- Node8&#45;&gt;Node22 -->
<g id="edge26_Node000008_Node000022" class="edge">
<title>Node8&#45;&gt;Node22</title>
<g id="a_edge26_Node000008_Node000022"><a xlink:title=" ">
<path fill="none" stroke="#63b8ff" d="M441.21,-167.04C367.15,-158.86 240.68,-144.18 129.96,-130.22"/>
<polygon fill="#63b8ff" stroke="#63b8ff" points="130.34,-126.74 119.98,-128.96 129.47,-133.69 130.34,-126.74"/>
</a>
</g>
</g>
<!-- Node10 -->
<g id="Node000010" class="node">
<title>Node10</title>
<g id="a_Node000010"><a xlink:title=" ">
<polygon fill="#e0e0e0" stroke="#999999" points="940.81,-74 887.81,-74 887.81,-55 940.81,-55 940.81,-74"/>
<text text-anchor="middle" x="914.31" y="-62" font-family="Helvetica,sans-Serif" font-size="10.00">cstddef</text>
</a>
</g>
</g>
<!-- Node9&#45;&gt;Node10 -->
<g id="edge9_Node000009_Node000010" class="edge">
<title>Node9&#45;&gt;Node10</title>
<g id="a_edge9_Node000009_Node000010"><a xlink:title=" ">
<path fill="none" stroke="#63b8ff" d="M891.77,-109.75C895.43,-102.57 900.72,-92.18 905.26,-83.27"/>
<polygon fill="#63b8ff" stroke="#63b8ff" points="908.52,-84.59 909.94,-74.09 902.28,-81.41 908.52,-84.59"/>
</a>
</g>
</g>
<!-- Node9&#45;&gt;Node11 -->
<g id="edge10_Node000009_Node000011" class="edge">
<title>Node9&#45;&gt;Node11</title>
<g id="a_edge10_Node000009_Node000011"><a xlink:title=" ">
<path fill="none" stroke="#63b8ff" d="M883.02,-109.68C875.88,-95.93 860.24,-69.44 839.31,-55 803.99,-30.62 755.22,-19.42 722.55,-14.4"/>
<polygon fill="#63b8ff" stroke="#63b8ff" points="722.93,-10.92 712.54,-12.98 721.95,-17.85 722.93,-10.92"/>
</a>
</g>
</g>
<!-- Node12&#45;&gt;Node11 -->
<g id="edge12_Node000012_Node000011" class="edge">
<title>Node12&#45;&gt;Node11</title>
<g id="a_edge12_Node000012_Node000011"><a xlink:title=" ">
<path fill="none" stroke="#63b8ff" d="M748.58,-54.98C737.58,-47 720.89,-34.88 707.71,-25.31"/>
<polygon fill="#63b8ff" stroke="#63b8ff" points="709.4,-22.21 699.25,-19.17 705.29,-27.88 709.4,-22.21"/>
</a>
</g>
</g>
<!-- Node20&#45;&gt;Node11 -->
<g id="edge22_Node000020_Node000011" class="edge">
<title>Node20&#45;&gt;Node11</title>
<g id="a_edge22_Node000020_Node000011"><a xlink:title=" ">
<path fill="none" stroke="#63b8ff" d="M626.04,-54.98C637.04,-47 653.73,-34.88 666.92,-25.31"/>
<polygon fill="#63b8ff" stroke="#63b8ff" points="669.33,-27.88 675.37,-19.17 665.22,-22.21 669.33,-27.88"/>
</a>
</g>
</g>
<!-- Node21&#45;&gt;Node11 -->
<g id="edge24_Node000021_Node000011" class="edge">
<title>Node21&#45;&gt;Node11</title>
<g id="a_edge24_Node000021_Node000011"><a xlink:title=" ">
<path fill="none" stroke="#63b8ff" d="M235.25,-109.94C328.41,-89.44 563.03,-37.84 652.19,-18.23"/>
<polygon fill="#63b8ff" stroke="#63b8ff" points="653.07,-21.62 662.08,-16.05 651.56,-14.78 653.07,-21.62"/>
</a>
</g>
</g>
<!-- Node21&#45;&gt;Node20 -->
<g id="edge25_Node000021_Node000020" class="edge">
<title>Node21&#45;&gt;Node20</title>
<g id="a_edge25_Node000021_Node000020"><a xlink:title=" ">
<path fill="none" stroke="#63b8ff" d="M254.42,-111.13C257.43,-110.75 260.4,-110.37 263.31,-110 362.05,-97.48 476.41,-82.98 547.06,-74.02"/>
<polygon fill="#63b8ff" stroke="#63b8ff" points="547.68,-77.47 557.16,-72.74 546.8,-70.53 547.68,-77.47"/>
</a>
</g>
</g>
<!-- Node22&#45;&gt;Node8 -->
<g id="edge27_Node000022_Node000008" class="edge">
<title>Node22&#45;&gt;Node8</title>
<g id="a_edge27_Node000022_Node000008"><a xlink:title=" ">
<path fill="none" stroke="#63b8ff" d="M119.96,-126.62C126.18,-127.44 132.4,-128.25 138.31,-129 239.88,-141.88 357.07,-155.6 430.98,-164.35"/>
<polygon fill="#63b8ff" stroke="#63b8ff" points="430.78,-167.85 441.12,-165.55 431.6,-160.9 430.78,-167.85"/>
</a>
</g>
</g>
<!-- Node23 -->
<g id="Node000023" class="node">
<title>Node23</title>
<g id="a_Node000023"><a xlink:title=" ">
<polygon fill="#e0e0e0" stroke="#999999" points="94.31,-74 38.31,-74 38.31,-55 94.31,-55 94.31,-74"/>
<text text-anchor="middle" x="66.31" y="-62" font-family="Helvetica,sans-Serif" font-size="10.00">iomanip</text>
</a>
</g>
</g>
<!-- Node22&#45;&gt;Node23 -->
<g id="edge28_Node000022_Node000023" class="edge">
<title>Node22&#45;&gt;Node23</title>
<g id="a_edge28_Node000022_Node000023"><a xlink:title=" ">
<path fill="none" stroke="#63b8ff" d="M66.31,-109.75C66.31,-102.8 66.31,-92.85 66.31,-84.13"/>
<polygon fill="#63b8ff" stroke="#63b8ff" points="69.81,-84.09 66.31,-74.09 62.81,-84.09 69.81,-84.09"/>
</a>
</g>
</g>
<!-- Node24&#45;&gt;Node2 -->
<g id="edge33_Node000024_Node000002" class="edge">
<title>Node24&#45;&gt;Node2</title>
<g id="a_edge33_Node000024_Node000002"><a xlink:title=" ">
<path fill="none" stroke="#63b8ff" d="M1162.96,-164.98C1196.57,-155.94 1249.82,-141.62 1286.78,-131.67"/>
<polygon fill="#63b8ff" stroke="#63b8ff" points="1287.99,-134.97 1296.74,-128.99 1286.17,-128.21 1287.99,-134.97"/>
</a>
</g>
</g>
<!-- Node24&#45;&gt;Node6 -->
<g id="edge35_Node000024_Node000006" class="edge">
<title>Node24&#45;&gt;Node6</title>
<g id="a_edge35_Node000024_Node000006"><a xlink:title=" ">
<path fill="none" stroke="#63b8ff" d="M1108.18,-164.98C1084.49,-156.27 1047.44,-142.63 1020.61,-132.75"/>
<polygon fill="#63b8ff" stroke="#63b8ff" points="1021.46,-129.34 1010.87,-129.17 1019.05,-135.91 1021.46,-129.34"/>
</a>
</g>
</g>
<!-- Node24&#45;&gt;Node9 -->
<g id="edge30_Node000024_Node000009" class="edge">
<title>Node24&#45;&gt;Node9</title>
<g id="a_edge30_Node000024_Node000009"><a xlink:title=" ">
<path fill="none" stroke="#63b8ff" d="M1092.11,-164.98C1049.9,-155.82 982.67,-141.21 936.83,-131.26"/>
<polygon fill="#63b8ff" stroke="#63b8ff" points="937.34,-127.78 926.82,-129.08 935.85,-134.63 937.34,-127.78"/>
</a>
</g>
</g>
<!-- Node24&#45;&gt;Node11 -->
<g id="edge34_Node000024_Node000011" class="edge">
<title>Node24&#45;&gt;Node11</title>
<g id="a_edge34_Node000024_Node000011"><a xlink:title=" ">
<path fill="none" stroke="#63b8ff" d="M1118.12,-164.86C1076.68,-137.72 951.66,-55.92 949.31,-55 872.09,-24.81 774.17,-15.08 722.67,-11.96"/>
<polygon fill="#63b8ff" stroke="#63b8ff" points="722.59,-8.45 712.41,-11.39 722.2,-15.44 722.59,-8.45"/>
</a>
</g>
</g>
<!-- Node25 -->
<g id="Node000025" class="node">
<title>Node25</title>
<g id="a_Node000025"><a xlink:title=" ">
<polygon fill="#e0e0e0" stroke="#999999" points="1278.31,-129 1200.31,-129 1200.31,-110 1278.31,-110 1278.31,-129"/>
<text text-anchor="middle" x="1239.31" y="-117" font-family="Helvetica,sans-Serif" font-size="10.00">driver/gpio.h</text>
</a>
</g>
</g>
<!-- Node24&#45;&gt;Node25 -->
<g id="edge31_Node000024_Node000025" class="edge">
<title>Node24&#45;&gt;Node25</title>
<g id="a_edge31_Node000024_Node000025"><a xlink:title=" ">
<path fill="none" stroke="#63b8ff" d="M1148.66,-164.98C1165.88,-156.54 1192.51,-143.47 1212.46,-133.68"/>
<polygon fill="#63b8ff" stroke="#63b8ff" points="1214.21,-136.72 1221.64,-129.17 1211.13,-130.43 1214.21,-136.72"/>
</a>
</g>
</g>
<!-- Node26 -->
<g id="Node000026" class="node">
<title>Node26</title>
<g id="a_Node000026"><a xlink:title=" ">
<polygon fill="#e0e0e0" stroke="#999999" points="1182.31,-129 1072.31,-129 1072.31,-110 1182.31,-110 1182.31,-129"/>
<text text-anchor="middle" x="1127.31" y="-117" font-family="Helvetica,sans-Serif" font-size="10.00">driver/spi_master.h</text>
</a>
</g>
</g>
<!-- Node24&#45;&gt;Node26 -->
<g id="edge32_Node000024_Node000026" class="edge">
<title>Node24&#45;&gt;Node26</title>
<g id="a_edge32_Node000024_Node000026"><a xlink:title=" ">
<path fill="none" stroke="#63b8ff" d="M1130.65,-164.75C1130.13,-157.8 1129.38,-147.85 1128.72,-139.13"/>
<polygon fill="#63b8ff" stroke="#63b8ff" points="1132.2,-138.8 1127.96,-129.09 1125.22,-139.32 1132.2,-138.8"/>
</a>
</g>
</g>
<!-- Node27&#45;&gt;Node2 -->
<g id="edge37_Node000027_Node000002" class="edge">
<title>Node27&#45;&gt;Node2</title>
<g id="a_edge37_Node000027_Node000002"><a xlink:title=" ">
<path fill="none" stroke="#63b8ff" d="M1453.37,-164.98C1428.76,-156.23 1390.19,-142.51 1362.4,-132.62"/>
<polygon fill="#63b8ff" stroke="#63b8ff" points="1363.28,-129.22 1352.69,-129.17 1360.94,-135.82 1363.28,-129.22"/>
</a>
</g>
</g>
<!-- Node27&#45;&gt;Node4 -->
<g id="edge40_Node000027_Node000004" class="edge">
<title>Node27&#45;&gt;Node4</title>
<g id="a_edge40_Node000027_Node000004"><a xlink:title=" ">
<path fill="none" stroke="#63b8ff" d="M1470.21,-164.75C1464.14,-157.26 1455.23,-146.28 1447.8,-137.13"/>
<polygon fill="#63b8ff" stroke="#63b8ff" points="1450.3,-134.65 1441.28,-129.09 1444.86,-139.06 1450.3,-134.65"/>
</a>
</g>
</g>
<!-- Node27&#45;&gt;Node5 -->
<g id="edge43_Node000027_Node000005" class="edge">
<title>Node27&#45;&gt;Node5</title>
<g id="a_edge43_Node000027_Node000005"><a xlink:title=" ">
<path fill="none" stroke="#63b8ff" d="M1527.51,-167.69C1593.86,-159.88 1714.66,-145.27 1827.86,-129.17"/>
<polygon fill="#63b8ff" stroke="#63b8ff" points="1828.68,-132.59 1838.08,-127.71 1827.69,-125.66 1828.68,-132.59"/>
</a>
</g>
</g>
<!-- Node27&#45;&gt;Node25 -->
<g id="edge39_Node000027_Node000025" class="edge">
<title>Node27&#45;&gt;Node25</title>
<g id="a_edge39_Node000027_Node000025"><a xlink:title=" ">
<path fill="none" stroke="#63b8ff" d="M1439.07,-164.98C1397.91,-155.82 1332.32,-141.21 1287.62,-131.26"/>
<polygon fill="#63b8ff" stroke="#63b8ff" points="1288.37,-127.84 1277.85,-129.08 1286.85,-134.67 1288.37,-127.84"/>
</a>
</g>
</g>
<!-- Node28 -->
<g id="Node000028" class="node">
<title>Node28</title>
<g id="a_Node000028"><a xlink:title=" ">
<polygon fill="#e0e0e0" stroke="#999999" points="1704.31,-129 1630.31,-129 1630.31,-110 1704.31,-110 1704.31,-129"/>
<text text-anchor="middle" x="1667.31" y="-117" font-family="Helvetica,sans-Serif" font-size="10.00">esp_timer.h</text>
</a>
</g>
</g>
<!-- Node27&#45;&gt;Node28 -->
<g id="edge38_Node000027_Node000028" class="edge">
<title>Node27&#45;&gt;Node28</title>
<g id="a_edge38_Node000027_Node000028"><a xlink:title=" ">
<path fill="none" stroke="#63b8ff" d="M1507.84,-164.98C1540.01,-156.01 1590.87,-141.82 1626.48,-131.89"/>
<polygon fill="#63b8ff" stroke="#63b8ff" points="1627.85,-135.14 1636.55,-129.08 1625.97,-128.4 1627.85,-135.14"/>
</a>
</g>
</g>
<!-- Node29 -->
<g id="Node000029" class="node">
<title>Node29</title>
<g id="a_Node000029"><a xlink:title=" ">
<polygon fill="#e0e0e0" stroke="#999999" points="1819.81,-129 1722.81,-129 1722.81,-110 1819.81,-110 1819.81,-129"/>
<text text-anchor="middle" x="1771.31" y="-117" font-family="Helvetica,sans-Serif" font-size="10.00">freertos/queue.h</text>
</a>
</g>
</g>
<!-- Node27&#45;&gt;Node29 -->
<g id="edge41_Node000027_Node000029" class="edge">
<title>Node27&#45;&gt;Node29</title>
<g id="a_edge41_Node000027_Node000029"><a xlink:title=" ">
<path fill="none" stroke="#63b8ff" d="M1524.55,-164.98C1576.05,-155.7 1658.47,-140.84 1713.72,-130.88"/>
<polygon fill="#63b8ff" stroke="#63b8ff" points="1714.49,-134.3 1723.71,-129.08 1713.24,-127.41 1714.49,-134.3"/>
</a>
</g>
</g>
<!-- Node30 -->
<g id="Node000030" class="node">
<title>Node30</title>
<g id="a_Node000030"><a xlink:title=" ">
<polygon fill="#e0e0e0" stroke="#999999" points="1611.81,-129 1508.81,-129 1508.81,-110 1611.81,-110 1611.81,-129"/>
<text text-anchor="middle" x="1560.31" y="-117" font-family="Helvetica,sans-Serif" font-size="10.00">freertos/semphr.h</text>
</a>
</g>
</g>
<!-- Node27&#45;&gt;Node30 -->
<g id="edge42_Node000027_Node000030" class="edge">
<title>Node27&#45;&gt;Node30</title>
<g id="a_edge42_Node000027_Node000030"><a xlink:title=" ">
<path fill="none" stroke="#63b8ff" d="M1490.65,-164.98C1503.4,-156.84 1522.87,-144.41 1537.98,-134.76"/>
<polygon fill="#63b8ff" stroke="#63b8ff" points="1540.19,-137.5 1546.73,-129.17 1536.42,-131.6 1540.19,-137.5"/>
</a>
</g>
</g>
</g>
</svg>
