<?xml version="1.0" encoding="UTF-8" standalone="no"?>
<!DOCTYPE svg PUBLIC "-//W3C//DTD SVG 1.1//EN"
 "http://www.w3.org/Graphics/SVG/1.1/DTD/svg11.dtd">
<!-- Generated by graphviz version 2.43.0 (0)
 -->
<!-- Title: examples/esp32/main/Esp32As5047uBus.hpp Pages: 1 -->
<svg width="999pt" height="104pt"
 viewBox="0.00 0.00 998.50 104.00" xmlns="http://www.w3.org/2000/svg" xmlns:xlink="http://www.w3.org/1999/xlink">
<g id="graph0" class="graph" transform="scale(1 1) rotate(0) translate(4 100)">
<title>examples/esp32/main/Esp32As5047uBus.hpp</title>
<!-- Node1 -->
<g id="Node000001" class="node">
<title>Node1</title>
<g id="a_Node000001"><a xlink:title="ESP32 SPI transport implementation for AS5047U driver.">
<polygon fill="#999999" stroke="#666666" points="574,-96 444,-96 444,-66 574,-66 574,-96"/>
<text text-anchor="start" x="452" y="-84" font-family="Helvetica,sans-Serif" font-size="10.00">examples/esp32/main</text>
<text text-anchor="middle" x="509" y="-73" font-family="Helvetica,sans-Serif" font-size="10.00">/Esp32As5047uBus.hpp</text>
</a>
</g>
</g>
<!-- Node2 -->
<g id="Node000002" class="node">
<title>Node2</title>
<g id="a_Node000002"><a xlink:href="BasicAngleReadingExample_8cpp.html" target="_top" xlink:title="Basic angle reading example with diagnostics.">
<polygon fill="white" stroke="#666666" points="176,-30 0,-30 0,0 176,0 176,-30"/>
<text text-anchor="start" x="8" y="-18" font-family="Helvetica,sans-Serif" font-size="10.00">examples/esp32/main</text>
<text text-anchor="middle" x="88" y="-7" font-family="Helvetica,sans-Serif" font-size="10.00">/BasicAngleReadingExample.cpp</text>
</a>
</g>
</g>
<!-- Node1&#45;&gt;Node2 -->
<g id="edge1_Node000001_Node000002" class="edge">
<title>Node1&#45;&gt;Node2</title>
<g id="a_edge1_Node000001_Node000002"><a xlink:title=" ">
<path fill="none" stroke="#63b8ff" d="M433.74,-68.56C361.52,-57.58 252.46,-41 176.2,-29.41"/>
<polygon fill="#63b8ff" stroke="#63b8ff" points="433.27,-72.03 443.68,-70.07 434.32,-65.11 433.27,-72.03"/>
</a>
</g>
</g>
<!-- Node3 -->
<g id="Node000003" class="node">
<title>Node3</title>
<g id="a_Node000003"><a xlink:href="ConfigurationExample_8cpp.html" target="_top" xlink:title="Configuration example with ABI, UVW, and PWM setup.">
<polygon fill="white" stroke="#666666" points="342,-30 194,-30 194,0 342,0 342,-30"/>
<text text-anchor="start" x="202" y="-18" font-family="Helvetica,sans-Serif" font-size="10.00">examples/esp32/main</text>
<text text-anchor="middle" x="268" y="-7" font-family="Helvetica,sans-Serif" font-size="10.00">/ConfigurationExample.cpp</text>
</a>
</g>
</g>
<!-- Node1&#45;&gt;Node3 -->
<g id="edge2_Node000001_Node000003" class="edge">
<title>Node1&#45;&gt;Node3</title>
<g id="a_edge2_Node000001_Node000003"><a xlink:title=" ">
<path fill="none" stroke="#63b8ff" d="M446.44,-63.39C407.42,-53.03 357.78,-39.84 320.77,-30.01"/>
<polygon fill="#63b8ff" stroke="#63b8ff" points="445.55,-66.77 456.11,-65.95 447.34,-60.01 445.55,-66.77"/>
</a>
</g>
</g>
<!-- Node4 -->
<g id="Node000004" class="node">
<title>Node4</title>
<g id="a_Node000004"><a xlink:href="DriverIntegrationTest_8cpp.html" target="_top" xlink:title="Comprehensive Integration Test Suite for as5047u::AS5047U Driver.">
<polygon fill="white" stroke="#666666" points="503.5,-30 360.5,-30 360.5,0 503.5,0 503.5,-30"/>
<text text-anchor="start" x="368.5" y="-18" font-family="Helvetica,sans-Serif" font-size="10.00">examples/esp32/main</text>
<text text-anchor="middle" x="432" y="-7" font-family="Helvetica,sans-Serif" font-size="10.00">/DriverIntegrationTest.cpp</text>
</a>
</g>
</g>
<!-- Node1&#45;&gt;Node4 -->
<g id="edge3_Node000001_Node000004" class="edge">
<title>Node1&#45;&gt;Node4</title>
<g id="a_edge3_Node000001_Node000004"><a xlink:title=" ">
<path fill="none" stroke="#63b8ff" d="M483.98,-59.2C472.55,-49.7 459.3,-38.69 449.04,-30.16"/>
<polygon fill="#63b8ff" stroke="#63b8ff" points="481.98,-62.1 491.91,-65.8 486.46,-56.71 481.98,-62.1"/>
</a>
</g>
</g>
<!-- Node5 -->
<g id="Node000005" class="node">
<title>Node5</title>
<g id="a_Node000005"><a xlink:href="Esp32As5047uBus_8cpp.html" target="_top" xlink:title="ESP32 SPI transport implementation for as5047u::AS5047U driver.">
<polygon fill="white" stroke="#666666" points="650.5,-30 521.5,-30 521.5,0 650.5,0 650.5,-30"/>
<text text-anchor="start" x="529.5" y="-18" font-family="Helvetica,sans-Serif" font-size="10.00">examples/esp32/main</text>
<text text-anchor="middle" x="586" y="-7" font-family="Helvetica,sans-Serif" font-size="10.00">/Esp32As5047uBus.cpp</text>
</a>
</g>
</g>
<!-- Node1&#45;&gt;Node5 -->
<g id="edge4_Node000001_Node000005" class="edge">
<title>Node1&#45;&gt;Node5</title>
<g id="a_edge4_Node000001_Node000005"><a xlink:title=" ">
<path fill="none" stroke="#63b8ff" d="M534.02,-59.2C545.45,-49.7 558.7,-38.69 568.96,-30.16"/>
<polygon fill="#63b8ff" stroke="#63b8ff" points="531.54,-56.71 526.09,-65.8 536.02,-62.1 531.54,-56.71"/>
</a>
</g>
</g>
<!-- Node6 -->
<g id="Node000006" class="node">
<title>Node6</title>
<g id="a_Node000006"><a xlink:href="FullFeaturesExample_8cpp.html" target="_top" xlink:title="Comprehensive example demonstrating all as5047u::AS5047U features.">
<polygon fill="white" stroke="#666666" points="811,-30 669,-30 669,0 811,0 811,-30"/>
<text text-anchor="start" x="677" y="-18" font-family="Helvetica,sans-Serif" font-size="10.00">examples/esp32/main</text>
<text text-anchor="middle" x="740" y="-7" font-family="Helvetica,sans-Serif" font-size="10.00">/FullFeaturesExample.cpp</text>
</a>
</g>
</g>
<!-- Node1&#45;&gt;Node6 -->
<g id="edge5_Node000001_Node000006" class="edge">
<title>Node1&#45;&gt;Node6</title>
<g id="a_edge5_Node000001_Node000006"><a xlink:title=" ">
<path fill="none" stroke="#63b8ff" d="M569.44,-63.25C606.76,-52.91 654.1,-39.8 689.42,-30.01"/>
<polygon fill="#63b8ff" stroke="#63b8ff" points="568.4,-59.91 559.69,-65.95 570.27,-66.66 568.4,-59.91"/>
</a>
</g>
</g>
<!-- Node7 -->
<g id="Node000007" class="node">
<title>Node7</title>
<g id="a_Node000007"><a xlink:href="VelocityReadingExample_8cpp.html" target="_top" xlink:title="Velocity reading example with unit conversions.">
<polygon fill="white" stroke="#666666" points="990.5,-30 829.5,-30 829.5,0 990.5,0 990.5,-30"/>
<text text-anchor="start" x="837.5" y="-18" font-family="Helvetica,sans-Serif" font-size="10.00">examples/esp32/main</text>
<text text-anchor="middle" x="910" y="-7" font-family="Helvetica,sans-Serif" font-size="10.00">/VelocityReadingExample.cpp</text>
</a>
</g>
</g>
<!-- Node1&#45;&gt;Node7 -->
<g id="edge6_Node000001_Node000007" class="edge">
<title>Node1&#45;&gt;Node7</title>
<g id="a_edge6_Node000001_Node000007"><a xlink:title=" ">
<path fill="none" stroke="#63b8ff" d="M584.38,-67.97C654.28,-56.81 757.99,-40.26 829.49,-28.85"/>
<polygon fill="#63b8ff" stroke="#63b8ff" points="583.64,-64.54 574.32,-69.57 584.75,-71.45 583.64,-64.54"/>
</a>
</g>
</g>
</g>
</svg>
