<?xml version="1.0" encoding="UTF-8" standalone="no"?>
<!DOCTYPE svg PUBLIC "-//W3C//DTD SVG 1.1//EN"
 "http://www.w3.org/Graphics/SVG/1.1/DTD/svg11.dtd">
<!-- Generated by graphviz version 2.43.0 (0)
 -->
<!-- Title: examples/esp32/main/esp32_as5047u_bus.hpp Pages: 1 -->
<svg width="801pt" height="115pt"
 viewBox="0.00 0.00 801.00 115.00" xmlns="http://www.w3.org/2000/svg" xmlns:xlink="http://www.w3.org/1999/xlink">
<g id="graph0" class="graph" transform="scale(1 1) rotate(0) translate(4 111)">
<title>examples/esp32/main/esp32_as5047u_bus.hpp</title>
<!-- Node1 -->
<g id="Node000001" class="node">
<title>Node1</title>
<g id="a_Node000001"><a xlink:title="ESP32 SPI transport implementation for AS5047U driver (header&#45;only)">
<polygon fill="#999999" stroke="#666666" points="446,-107 307,-107 307,-77 446,-77 446,-107"/>
<text text-anchor="start" x="315" y="-95" font-family="Helvetica,sans-Serif" font-size="10.00">examples/esp32/main</text>
<text text-anchor="middle" x="376.5" y="-84" font-family="Helvetica,sans-Serif" font-size="10.00">/esp32_as5047u_bus.hpp</text>
</a>
</g>
</g>
<!-- Node2 -->
<g id="Node000002" class="node">
<title>Node2</title>
<g id="a_Node000002"><a xlink:href="basic__angle__reading__example_8cpp.html" target="_top" xlink:title="Basic angle reading example with diagnostics.">
<polygon fill="white" stroke="#666666" points="125,-41 0,-41 0,0 125,0 125,-41"/>
<text text-anchor="start" x="8" y="-29" font-family="Helvetica,sans-Serif" font-size="10.00">examples/esp32/main</text>
<text text-anchor="start" x="8" y="-18" font-family="Helvetica,sans-Serif" font-size="10.00">/basic_angle_reading</text>
<text text-anchor="middle" x="62.5" y="-7" font-family="Helvetica,sans-Serif" font-size="10.00">_example.cpp</text>
</a>
</g>
</g>
<!-- Node1&#45;&gt;Node2 -->
<g id="edge1_Node000001_Node000002" class="edge">
<title>Node1&#45;&gt;Node2</title>
<g id="a_edge1_Node000001_Node000002"><a xlink:title=" ">
<path fill="none" stroke="#63b8ff" d="M297,-75.84C249.65,-66.49 188.46,-53.87 134.5,-41 131.48,-40.28 128.39,-39.52 125.27,-38.74"/>
<polygon fill="#63b8ff" stroke="#63b8ff" points="296.4,-79.29 306.88,-77.78 297.75,-72.42 296.4,-79.29"/>
</a>
</g>
</g>
<!-- Node3 -->
<g id="Node000003" class="node">
<title>Node3</title>
<g id="a_Node000003"><a xlink:href="configuration__example_8cpp.html" target="_top" xlink:title="Configuration example with ABI, UVW, and PWM setup.">
<polygon fill="white" stroke="#666666" points="295.5,-35.5 143.5,-35.5 143.5,-5.5 295.5,-5.5 295.5,-35.5"/>
<text text-anchor="start" x="151.5" y="-23.5" font-family="Helvetica,sans-Serif" font-size="10.00">examples/esp32/main</text>
<text text-anchor="middle" x="219.5" y="-12.5" font-family="Helvetica,sans-Serif" font-size="10.00">/configuration_example.cpp</text>
</a>
</g>
</g>
<!-- Node1&#45;&gt;Node3 -->
<g id="edge2_Node000001_Node000003" class="edge">
<title>Node1&#45;&gt;Node3</title>
<g id="a_edge2_Node000001_Node000003"><a xlink:title=" ">
<path fill="none" stroke="#63b8ff" d="M335.4,-72.81C309.09,-61.16 275.47,-46.28 251.22,-35.54"/>
<polygon fill="#63b8ff" stroke="#63b8ff" points="334.17,-76.09 344.73,-76.94 337,-69.69 334.17,-76.09"/>
</a>
</g>
</g>
<!-- Node4 -->
<g id="Node000004" class="node">
<title>Node4</title>
<g id="a_Node000004"><a xlink:href="driver__integration__test_8cpp.html" target="_top" xlink:title="Comprehensive Integration Test Suite for as5047u::AS5047U Driver.">
<polygon fill="white" stroke="#666666" points="439,-41 314,-41 314,0 439,0 439,-41"/>
<text text-anchor="start" x="322" y="-29" font-family="Helvetica,sans-Serif" font-size="10.00">examples/esp32/main</text>
<text text-anchor="start" x="322" y="-18" font-family="Helvetica,sans-Serif" font-size="10.00">/driver_integration</text>
<text text-anchor="middle" x="376.5" y="-7" font-family="Helvetica,sans-Serif" font-size="10.00">_test.cpp</text>
</a>
</g>
</g>
<!-- Node1&#45;&gt;Node4 -->
<g id="edge3_Node000001_Node000004" class="edge">
<title>Node1&#45;&gt;Node4</title>
<g id="a_edge3_Node000001_Node000004"><a xlink:title=" ">
<path fill="none" stroke="#63b8ff" d="M376.5,-66.91C376.5,-58.47 376.5,-49.1 376.5,-41.07"/>
<polygon fill="#63b8ff" stroke="#63b8ff" points="373,-66.94 376.5,-76.94 380,-66.94 373,-66.94"/>
</a>
</g>
</g>
<!-- Node5 -->
<g id="Node000005" class="node">
<title>Node5</title>
<g id="a_Node000005"><a xlink:href="full__features__example_8cpp.html" target="_top" xlink:title="Comprehensive example demonstrating all as5047u::AS5047U features.">
<polygon fill="white" stroke="#666666" points="606,-35.5 457,-35.5 457,-5.5 606,-5.5 606,-35.5"/>
<text text-anchor="start" x="465" y="-23.5" font-family="Helvetica,sans-Serif" font-size="10.00">examples/esp32/main</text>
<text text-anchor="middle" x="531.5" y="-12.5" font-family="Helvetica,sans-Serif" font-size="10.00">/full_features_example.cpp</text>
</a>
</g>
</g>
<!-- Node1&#45;&gt;Node5 -->
<g id="edge4_Node000001_Node000005" class="edge">
<title>Node1&#45;&gt;Node5</title>
<g id="a_edge4_Node000001_Node000005"><a xlink:title=" ">
<path fill="none" stroke="#63b8ff" d="M417.08,-72.81C443.05,-61.16 476.24,-46.28 500.18,-35.54"/>
<polygon fill="#63b8ff" stroke="#63b8ff" points="415.56,-69.65 407.87,-76.94 418.42,-76.04 415.56,-69.65"/>
</a>
</g>
</g>
<!-- Node6 -->
<g id="Node000006" class="node">
<title>Node6</title>
<g id="a_Node000006"><a xlink:href="velocity__reading__example_8cpp.html" target="_top" xlink:title="Velocity reading example with unit conversions.">
<polygon fill="white" stroke="#666666" points="793,-35.5 624,-35.5 624,-5.5 793,-5.5 793,-35.5"/>
<text text-anchor="start" x="632" y="-23.5" font-family="Helvetica,sans-Serif" font-size="10.00">examples/esp32/main</text>
<text text-anchor="middle" x="708.5" y="-12.5" font-family="Helvetica,sans-Serif" font-size="10.00">/velocity_reading_example.cpp</text>
</a>
</g>
</g>
<!-- Node1&#45;&gt;Node6 -->
<g id="edge5_Node000001_Node000006" class="edge">
<title>Node1&#45;&gt;Node6</title>
<g id="a_edge5_Node000001_Node000006"><a xlink:title=" ">
<path fill="none" stroke="#63b8ff" d="M453.54,-74.89C500.37,-65.1 561.38,-52.33 615.5,-41 623.98,-39.22 632.89,-37.36 641.7,-35.51"/>
<polygon fill="#63b8ff" stroke="#63b8ff" points="452.54,-71.53 443.46,-77 453.97,-78.38 452.54,-71.53"/>
</a>
</g>
</g>
</g>
</svg>
