<?xml version="1.0" encoding="UTF-8" standalone="no"?>
<!DOCTYPE svg PUBLIC "-//W3C//DTD SVG 1.1//EN"
 "http://www.w3.org/Graphics/SVG/1.1/DTD/svg11.dtd">
<!-- Generated by graphviz version 2.43.0 (0)
 -->
<!-- Title: examples/esp32/main/esp32_as5047u_test_config.hpp Pages: 1 -->
<svg width="801pt" height="192pt"
 viewBox="0.00 0.00 801.00 192.00" xmlns="http://www.w3.org/2000/svg" xmlns:xlink="http://www.w3.org/1999/xlink">
<g id="graph0" class="graph" transform="scale(1 1) rotate(0) translate(4 188)">
<title>examples/esp32/main/esp32_as5047u_test_config.hpp</title>
<!-- Node1 -->
<g id="Node000001" class="node">
<title>Node1</title>
<g id="a_Node000001"><a xlink:title="Hardware configuration for AS5047U driver on ESP32&#45;C6.">
<polygon fill="#999999" stroke="#666666" points="470,-184 345,-184 345,-143 470,-143 470,-184"/>
<text text-anchor="start" x="353" y="-172" font-family="Helvetica,sans-Serif" font-size="10.00">examples/esp32/main</text>
<text text-anchor="start" x="353" y="-161" font-family="Helvetica,sans-Serif" font-size="10.00">/esp32_as5047u_test</text>
<text text-anchor="middle" x="407.5" y="-150" font-family="Helvetica,sans-Serif" font-size="10.00">_config.hpp</text>
</a>
</g>
</g>
<!-- Node2 -->
<g id="Node000002" class="node">
<title>Node2</title>
<g id="a_Node000002"><a xlink:href="basic__angle__reading__example_8cpp.html" target="_top" xlink:title="Basic angle reading example with diagnostics.">
<polygon fill="white" stroke="#666666" points="125,-41 0,-41 0,0 125,0 125,-41"/>
<text text-anchor="start" x="8" y="-29" font-family="Helvetica,sans-Serif" font-size="10.00">examples/esp32/main</text>
<text text-anchor="start" x="8" y="-18" font-family="Helvetica,sans-Serif" font-size="10.00">/basic_angle_reading</text>
<text text-anchor="middle" x="62.5" y="-7" font-family="Helvetica,sans-Serif" font-size="10.00">_example.cpp</text>
</a>
</g>
</g>
<!-- Node1&#45;&gt;Node2 -->
<g id="edge1_Node000001_Node000002" class="edge">
<title>Node1&#45;&gt;Node2</title>
<g id="a_edge1_Node000001_Node000002"><a xlink:title=" ">
<path fill="none" stroke="#63b8ff" d="M337.31,-139.61C309.44,-130.1 277.24,-118.59 248.5,-107 197.25,-86.33 139.63,-59.22 102.29,-41.13"/>
<polygon fill="#63b8ff" stroke="#63b8ff" points="336.38,-142.99 346.97,-142.88 338.63,-136.36 336.38,-142.99"/>
</a>
</g>
</g>
<!-- Node3 -->
<g id="Node000003" class="node">
<title>Node3</title>
<g id="a_Node000003"><a xlink:href="configuration__example_8cpp.html" target="_top" xlink:title="Configuration example with ABI, UVW, and PWM setup.">
<polygon fill="white" stroke="#666666" points="295.5,-35.5 143.5,-35.5 143.5,-5.5 295.5,-5.5 295.5,-35.5"/>
<text text-anchor="start" x="151.5" y="-23.5" font-family="Helvetica,sans-Serif" font-size="10.00">examples/esp32/main</text>
<text text-anchor="middle" x="219.5" y="-12.5" font-family="Helvetica,sans-Serif" font-size="10.00">/configuration_example.cpp</text>
</a>
</g>
</g>
<!-- Node1&#45;&gt;Node3 -->
<g id="edge2_Node000001_Node000003" class="edge">
<title>Node1&#45;&gt;Node3</title>
<g id="a_edge2_Node000001_Node000003"><a xlink:title=" ">
<path fill="none" stroke="#63b8ff" d="M335.31,-139.35C315.95,-131.05 295.87,-120.35 279.5,-107 254.9,-86.95 235.9,-54.36 226.33,-35.74"/>
<polygon fill="#63b8ff" stroke="#63b8ff" points="334.15,-142.66 344.73,-143.23 336.82,-136.18 334.15,-142.66"/>
</a>
</g>
</g>
<!-- Node4 -->
<g id="Node000004" class="node">
<title>Node4</title>
<g id="a_Node000004"><a xlink:href="driver__integration__test_8cpp.html" target="_top" xlink:title="Comprehensive Integration Test Suite for as5047u::AS5047U Driver.">
<polygon fill="white" stroke="#666666" points="439,-41 314,-41 314,0 439,0 439,-41"/>
<text text-anchor="start" x="322" y="-29" font-family="Helvetica,sans-Serif" font-size="10.00">examples/esp32/main</text>
<text text-anchor="start" x="322" y="-18" font-family="Helvetica,sans-Serif" font-size="10.00">/driver_integration</text>
<text text-anchor="middle" x="376.5" y="-7" font-family="Helvetica,sans-Serif" font-size="10.00">_test.cpp</text>
</a>
</g>
</g>
<!-- Node1&#45;&gt;Node4 -->
<g id="edge3_Node000001_Node000004" class="edge">
<title>Node1&#45;&gt;Node4</title>
<g id="a_edge3_Node000001_Node000004"><a xlink:title=" ">
<path fill="none" stroke="#63b8ff" d="M427.79,-133.97C437.16,-117.12 444.61,-95.54 436.5,-77 430.25,-62.7 418.29,-50.44 406.69,-41.11"/>
<polygon fill="#63b8ff" stroke="#63b8ff" points="424.64,-132.42 422.47,-142.79 430.63,-136.03 424.64,-132.42"/>
</a>
</g>
</g>
<!-- Node5 -->
<g id="Node000005" class="node">
<title>Node5</title>
<g id="a_Node000005"><a xlink:href="esp32__as5047u__bus_8hpp.html" target="_top" xlink:title="ESP32 SPI transport implementation for AS5047U driver (header&#45;only)">
<polygon fill="white" stroke="#666666" points="428,-107 289,-107 289,-77 428,-77 428,-107"/>
<text text-anchor="start" x="297" y="-95" font-family="Helvetica,sans-Serif" font-size="10.00">examples/esp32/main</text>
<text text-anchor="middle" x="358.5" y="-84" font-family="Helvetica,sans-Serif" font-size="10.00">/esp32_as5047u_bus.hpp</text>
</a>
</g>
</g>
<!-- Node1&#45;&gt;Node5 -->
<g id="edge4_Node000001_Node000005" class="edge">
<title>Node1&#45;&gt;Node5</title>
<g id="a_edge4_Node000001_Node000005"><a xlink:title=" ">
<path fill="none" stroke="#63b8ff" d="M387.69,-134.4C381.05,-124.99 373.94,-114.9 368.4,-107.04"/>
<polygon fill="#63b8ff" stroke="#63b8ff" points="384.97,-136.61 393.59,-142.77 390.69,-132.58 384.97,-136.61"/>
</a>
</g>
</g>
<!-- Node6 -->
<g id="Node000006" class="node">
<title>Node6</title>
<g id="a_Node000006"><a xlink:href="full__features__example_8cpp.html" target="_top" xlink:title="Comprehensive example demonstrating all as5047u::AS5047U features.">
<polygon fill="white" stroke="#666666" points="606,-35.5 457,-35.5 457,-5.5 606,-5.5 606,-35.5"/>
<text text-anchor="start" x="465" y="-23.5" font-family="Helvetica,sans-Serif" font-size="10.00">examples/esp32/main</text>
<text text-anchor="middle" x="531.5" y="-12.5" font-family="Helvetica,sans-Serif" font-size="10.00">/full_features_example.cpp</text>
</a>
</g>
</g>
<!-- Node1&#45;&gt;Node6 -->
<g id="edge10_Node000001_Node000006" class="edge">
<title>Node1&#45;&gt;Node6</title>
<g id="a_edge10_Node000001_Node000006"><a xlink:title=" ">
<path fill="none" stroke="#63b8ff" d="M431.37,-135.36C457.5,-105.64 498.42,-59.12 518.91,-35.81"/>
<polygon fill="#63b8ff" stroke="#63b8ff" points="428.72,-133.07 424.74,-142.89 433.97,-137.7 428.72,-133.07"/>
</a>
</g>
</g>
<!-- Node7 -->
<g id="Node000007" class="node">
<title>Node7</title>
<g id="a_Node000007"><a xlink:href="velocity__reading__example_8cpp.html" target="_top" xlink:title="Velocity reading example with unit conversions.">
<polygon fill="white" stroke="#666666" points="793,-35.5 624,-35.5 624,-5.5 793,-5.5 793,-35.5"/>
<text text-anchor="start" x="632" y="-23.5" font-family="Helvetica,sans-Serif" font-size="10.00">examples/esp32/main</text>
<text text-anchor="middle" x="708.5" y="-12.5" font-family="Helvetica,sans-Serif" font-size="10.00">/velocity_reading_example.cpp</text>
</a>
</g>
</g>
<!-- Node1&#45;&gt;Node7 -->
<g id="edge11_Node000001_Node000007" class="edge">
<title>Node1&#45;&gt;Node7</title>
<g id="a_edge11_Node000001_Node000007"><a xlink:title=" ">
<path fill="none" stroke="#63b8ff" d="M458.73,-138.5C521.84,-108.94 626.99,-59.68 678.37,-35.61"/>
<polygon fill="#63b8ff" stroke="#63b8ff" points="456.92,-135.48 449.35,-142.89 459.89,-141.82 456.92,-135.48"/>
</a>
</g>
</g>
<!-- Node5&#45;&gt;Node2 -->
<g id="edge5_Node000005_Node000002" class="edge">
<title>Node5&#45;&gt;Node2</title>
<g id="a_edge5_Node000005_Node000002"><a xlink:title=" ">
<path fill="none" stroke="#63b8ff" d="M281.76,-74.76C238.42,-65.37 183.31,-53.05 134.5,-41 131.48,-40.26 128.4,-39.48 125.29,-38.68"/>
<polygon fill="#63b8ff" stroke="#63b8ff" points="281.15,-78.21 291.67,-76.9 282.63,-71.37 281.15,-78.21"/>
</a>
</g>
</g>
<!-- Node5&#45;&gt;Node3 -->
<g id="edge6_Node000005_Node000003" class="edge">
<title>Node5&#45;&gt;Node3</title>
<g id="a_edge6_Node000005_Node000003"><a xlink:title=" ">
<path fill="none" stroke="#63b8ff" d="M321.19,-72.34C298.04,-60.77 268.77,-46.14 247.59,-35.54"/>
<polygon fill="#63b8ff" stroke="#63b8ff" points="319.86,-75.59 330.37,-76.94 322.99,-69.33 319.86,-75.59"/>
</a>
</g>
</g>
<!-- Node5&#45;&gt;Node4 -->
<g id="edge7_Node000005_Node000004" class="edge">
<title>Node5&#45;&gt;Node4</title>
<g id="a_edge7_Node000005_Node000004"><a xlink:title=" ">
<path fill="none" stroke="#63b8ff" d="M364.67,-67.19C366.87,-58.68 369.33,-49.19 371.43,-41.07"/>
<polygon fill="#63b8ff" stroke="#63b8ff" points="361.26,-66.38 362.14,-76.94 368.04,-68.13 361.26,-66.38"/>
</a>
</g>
</g>
<!-- Node5&#45;&gt;Node6 -->
<g id="edge8_Node000005_Node000006" class="edge">
<title>Node5&#45;&gt;Node6</title>
<g id="a_edge8_Node000005_Node000006"><a xlink:title=" ">
<path fill="none" stroke="#63b8ff" d="M403.03,-73.11C432.13,-61.42 469.59,-46.37 496.54,-35.54"/>
<polygon fill="#63b8ff" stroke="#63b8ff" points="401.48,-69.96 393.51,-76.94 404.09,-76.46 401.48,-69.96"/>
</a>
</g>
</g>
<!-- Node5&#45;&gt;Node7 -->
<g id="edge9_Node000005_Node000007" class="edge">
<title>Node5&#45;&gt;Node7</title>
<g id="a_edge9_Node000005_Node000007"><a xlink:title=" ">
<path fill="none" stroke="#63b8ff" d="M437.97,-75.73C488.54,-65.95 555.4,-52.9 614.5,-41 623.16,-39.26 632.26,-37.4 641.25,-35.55"/>
<polygon fill="#63b8ff" stroke="#63b8ff" points="437.24,-72.3 428.08,-77.64 438.56,-79.18 437.24,-72.3"/>
</a>
</g>
</g>
</g>
</svg>
