<?xml version="1.0" encoding="UTF-8" standalone="no"?>
<!DOCTYPE svg PUBLIC "-//W3C//DTD SVG 1.1//EN"
 "http://www.w3.org/Graphics/SVG/1.1/DTD/svg11.dtd">
<!-- Generated by graphviz version 2.43.0 (0)
 -->
<!-- Title: examples/esp32/main/velocity_reading_example.cpp Pages: 1 -->
<svg width="1430pt" height="258pt"
 viewBox="0.00 0.00 1429.50 258.00" xmlns="http://www.w3.org/2000/svg" xmlns:xlink="http://www.w3.org/1999/xlink">
<g id="graph0" class="graph" transform="scale(1 1) rotate(0) translate(4 254)">
<title>examples/esp32/main/velocity_reading_example.cpp</title>
<!-- Node1 -->
<g id="Node000001" class="node">
<title>Node1</title>
<g id="a_Node000001"><a xlink:title="Velocity reading example with unit conversions.">
<polygon fill="#999999" stroke="#666666" points="963,-250 794,-250 794,-220 963,-220 963,-250"/>
<text text-anchor="start" x="802" y="-238" font-family="Helvetica,sans-Serif" font-size="10.00">examples/esp32/main</text>
<text text-anchor="middle" x="878.5" y="-227" font-family="Helvetica,sans-Serif" font-size="10.00">/velocity_reading_example.cpp</text>
</a>
</g>
</g>
<!-- Node2 -->
<g id="Node000002" class="node">
<title>Node2</title>
<g id="a_Node000002"><a xlink:title=" ">
<polygon fill="#e0e0e0" stroke="#999999" points="63,-129 0,-129 0,-110 63,-110 63,-129"/>
<text text-anchor="middle" x="31.5" y="-117" font-family="Helvetica,sans-Serif" font-size="10.00">esp_log.h</text>
</a>
</g>
</g>
<!-- Node1&#45;&gt;Node2 -->
<g id="edge1_Node000001_Node000002" class="edge">
<title>Node1&#45;&gt;Node2</title>
<g id="a_edge1_Node000001_Node000002"><a xlink:title=" ">
<path fill="none" stroke="#63b8ff" d="M793.76,-231.36C634.49,-225.83 296.27,-211.23 182.5,-184 136.03,-172.88 85.52,-149.01 56.29,-133.91"/>
<polygon fill="#63b8ff" stroke="#63b8ff" points="57.71,-130.7 47.22,-129.15 54.45,-136.9 57.71,-130.7"/>
</a>
</g>
</g>
<!-- Node3 -->
<g id="Node000003" class="node">
<title>Node3</title>
<g id="a_Node000003"><a xlink:title=" ">
<polygon fill="#e0e0e0" stroke="#999999" points="1071,-184 958,-184 958,-165 1071,-165 1071,-184"/>
<text text-anchor="middle" x="1014.5" y="-172" font-family="Helvetica,sans-Serif" font-size="10.00">freertos/FreeRTOS.h</text>
</a>
</g>
</g>
<!-- Node1&#45;&gt;Node3 -->
<g id="edge2_Node000001_Node000003" class="edge">
<title>Node1&#45;&gt;Node3</title>
<g id="a_edge2_Node000001_Node000003"><a xlink:title=" ">
<path fill="none" stroke="#63b8ff" d="M911.08,-219.99C933.56,-210.31 963.22,-197.56 985.01,-188.18"/>
<polygon fill="#63b8ff" stroke="#63b8ff" points="986.61,-191.31 994.42,-184.14 983.85,-184.88 986.61,-191.31"/>
</a>
</g>
</g>
<!-- Node4 -->
<g id="Node000004" class="node">
<title>Node4</title>
<g id="a_Node000004"><a xlink:title=" ">
<polygon fill="#e0e0e0" stroke="#999999" points="1177.5,-184 1089.5,-184 1089.5,-165 1177.5,-165 1177.5,-184"/>
<text text-anchor="middle" x="1133.5" y="-172" font-family="Helvetica,sans-Serif" font-size="10.00">freertos/task.h</text>
</a>
</g>
</g>
<!-- Node1&#45;&gt;Node4 -->
<g id="edge3_Node000001_Node000004" class="edge">
<title>Node1&#45;&gt;Node4</title>
<g id="a_edge3_Node000001_Node000004"><a xlink:title=" ">
<path fill="none" stroke="#63b8ff" d="M939.58,-219.99C984.63,-209.65 1045.04,-195.79 1086.39,-186.31"/>
<polygon fill="#63b8ff" stroke="#63b8ff" points="1087.25,-189.7 1096.21,-184.05 1085.69,-182.88 1087.25,-189.7"/>
</a>
</g>
</g>
<!-- Node5 -->
<g id="Node000005" class="node">
<title>Node5</title>
<g id="a_Node000005"><a xlink:title=" ">
<polygon fill="#e0e0e0" stroke="#999999" points="139.5,-129 81.5,-129 81.5,-110 139.5,-110 139.5,-129"/>
<text text-anchor="middle" x="110.5" y="-117" font-family="Helvetica,sans-Serif" font-size="10.00">memory</text>
</a>
</g>
</g>
<!-- Node1&#45;&gt;Node5 -->
<g id="edge4_Node000001_Node000005" class="edge">
<title>Node1&#45;&gt;Node5</title>
<g id="a_edge4_Node000001_Node000005"><a xlink:title=" ">
<path fill="none" stroke="#63b8ff" d="M793.95,-231.7C643.35,-226.91 334.76,-213.72 231.5,-184 193.86,-173.17 154.45,-149.9 131.2,-134.74"/>
<polygon fill="#63b8ff" stroke="#63b8ff" points="133.11,-131.8 122.84,-129.18 129.23,-137.63 133.11,-131.8"/>
</a>
</g>
</g>
<!-- Node6 -->
<g id="Node000006" class="node">
<title>Node6</title>
<g id="a_Node000006"><a xlink:title=" ">
<polygon fill="#e0e0e0" stroke="#999999" points="1245.5,-184 1195.5,-184 1195.5,-165 1245.5,-165 1245.5,-184"/>
<text text-anchor="middle" x="1220.5" y="-172" font-family="Helvetica,sans-Serif" font-size="10.00">stdio.h</text>
</a>
</g>
</g>
<!-- Node1&#45;&gt;Node6 -->
<g id="edge5_Node000001_Node000006" class="edge">
<title>Node1&#45;&gt;Node6</title>
<g id="a_edge5_Node000001_Node000006"><a xlink:title=" ">
<path fill="none" stroke="#63b8ff" d="M963.17,-222.21C1022.81,-213.45 1104.72,-200.51 1185.46,-184.07"/>
<polygon fill="#63b8ff" stroke="#63b8ff" points="1186.21,-187.49 1195.3,-182.05 1184.8,-180.63 1186.21,-187.49"/>
</a>
</g>
</g>
<!-- Node7 -->
<g id="Node000007" class="node">
<title>Node7</title>
<g id="a_Node000007"><a xlink:href="as5047u_8hpp.html" target="_top" xlink:title="Driver for AMS AS5047U Magnetic Rotary Position Sensor (C++21).">
<polygon fill="white" stroke="#666666" points="940,-184 817,-184 817,-165 940,-165 940,-184"/>
<text text-anchor="middle" x="878.5" y="-172" font-family="Helvetica,sans-Serif" font-size="10.00">../../../inc/as5047u.hpp</text>
</a>
</g>
</g>
<!-- Node1&#45;&gt;Node7 -->
<g id="edge6_Node000001_Node000007" class="edge">
<title>Node1&#45;&gt;Node7</title>
<g id="a_edge6_Node000001_Node000007"><a xlink:title=" ">
<path fill="none" stroke="#63b8ff" d="M878.5,-219.84C878.5,-212.21 878.5,-202.7 878.5,-194.45"/>
<polygon fill="#63b8ff" stroke="#63b8ff" points="882,-194.27 878.5,-184.27 875,-194.27 882,-194.27"/>
</a>
</g>
</g>
<!-- Node23 -->
<g id="Node000023" class="node">
<title>Node23</title>
<g id="a_Node000023"><a xlink:href="esp32__as5047u__bus_8hpp.html" target="_top" xlink:title="ESP32 SPI transport implementation for AS5047U driver.">
<polygon fill="white" stroke="#666666" points="376.5,-184 240.5,-184 240.5,-165 376.5,-165 376.5,-184"/>
<text text-anchor="middle" x="308.5" y="-172" font-family="Helvetica,sans-Serif" font-size="10.00">esp32_as5047u_bus.hpp</text>
</a>
</g>
</g>
<!-- Node1&#45;&gt;Node23 -->
<g id="edge28_Node000001_Node000023" class="edge">
<title>Node1&#45;&gt;Node23</title>
<g id="a_edge28_Node000001_Node000023"><a xlink:title=" ">
<path fill="none" stroke="#63b8ff" d="M793.78,-225.31C683.82,-214.02 493.43,-194.48 386.74,-183.53"/>
<polygon fill="#63b8ff" stroke="#63b8ff" points="386.99,-180.04 376.69,-182.5 386.28,-187 386.99,-180.04"/>
</a>
</g>
</g>
<!-- Node8 -->
<g id="Node000008" class="node">
<title>Node8</title>
<g id="a_Node000008"><a xlink:href="as5047u__spi__interface_8hpp.html" target="_top" xlink:title="CRTP&#45;based SPI bus interface for AS5047U driver.">
<polygon fill="white" stroke="#666666" points="567,-129 420,-129 420,-110 567,-110 567,-129"/>
<text text-anchor="middle" x="493.5" y="-117" font-family="Helvetica,sans-Serif" font-size="10.00">as5047u_spi_interface.hpp</text>
</a>
</g>
</g>
<!-- Node7&#45;&gt;Node8 -->
<g id="edge7_Node000007_Node000008" class="edge">
<title>Node7&#45;&gt;Node8</title>
<g id="a_edge7_Node000007_Node000008"><a xlink:title=" ">
<path fill="none" stroke="#63b8ff" d="M816.64,-164.98C748.13,-155.55 637.8,-140.36 565.47,-130.41"/>
<polygon fill="#63b8ff" stroke="#63b8ff" points="565.91,-126.93 555.52,-129.04 564.95,-133.87 565.91,-126.93"/>
</a>
</g>
</g>
<!-- Node10 -->
<g id="Node000010" class="node">
<title>Node10</title>
<g id="a_Node000010"><a xlink:title=" ">
<polygon fill="#e0e0e0" stroke="#999999" points="687.5,-19 637.5,-19 637.5,0 687.5,0 687.5,-19"/>
<text text-anchor="middle" x="662.5" y="-7" font-family="Helvetica,sans-Serif" font-size="10.00">cstdint</text>
</a>
</g>
</g>
<!-- Node7&#45;&gt;Node10 -->
<g id="edge17_Node000007_Node000010" class="edge">
<title>Node7&#45;&gt;Node10</title>
<g id="a_edge17_Node000007_Node000010"><a xlink:title=" ">
<path fill="none" stroke="#63b8ff" d="M940.18,-165.42C1003.44,-156.5 1094.04,-141.72 1104.5,-129 1109.86,-122.48 1109.77,-116.59 1104.5,-110 1053.35,-46.06 793.06,-20.31 697.63,-12.92"/>
<polygon fill="#63b8ff" stroke="#63b8ff" points="697.85,-9.43 687.61,-12.17 697.32,-16.41 697.85,-9.43"/>
</a>
</g>
</g>
<!-- Node11 -->
<g id="Node000011" class="node">
<title>Node11</title>
<g id="a_Node000011"><a xlink:href="as5047u__registers_8hpp.html" target="_top" xlink:title="Register definitions for the AS5047U Rotary Position Sensor.">
<polygon fill="white" stroke="#666666" points="658,-74 531,-74 531,-55 658,-55 658,-74"/>
<text text-anchor="middle" x="594.5" y="-62" font-family="Helvetica,sans-Serif" font-size="10.00">as5047u_registers.hpp</text>
</a>
</g>
</g>
<!-- Node7&#45;&gt;Node11 -->
<g id="edge10_Node000007_Node000011" class="edge">
<title>Node7&#45;&gt;Node11</title>
<g id="a_edge10_Node000007_Node000011"><a xlink:title=" ">
<path fill="none" stroke="#63b8ff" d="M816.88,-173.4C767.08,-170.72 696.9,-160.83 644.5,-129 626.38,-117.99 612.23,-97.85 603.67,-83.2"/>
<polygon fill="#63b8ff" stroke="#63b8ff" points="606.56,-81.18 598.67,-74.11 600.43,-84.56 606.56,-81.18"/>
</a>
</g>
</g>
<!-- Node12 -->
<g id="Node000012" class="node">
<title>Node12</title>
<g id="a_Node000012"><a xlink:title=" ">
<polygon fill="#e0e0e0" stroke="#999999" points="1421.5,-129 1357.5,-129 1357.5,-110 1421.5,-110 1421.5,-129"/>
<text text-anchor="middle" x="1389.5" y="-117" font-family="Helvetica,sans-Serif" font-size="10.00">algorithm</text>
</a>
</g>
</g>
<!-- Node7&#45;&gt;Node12 -->
<g id="edge12_Node000007_Node000012" class="edge">
<title>Node7&#45;&gt;Node12</title>
<g id="a_edge12_Node000007_Node000012"><a xlink:title=" ">
<path fill="none" stroke="#63b8ff" d="M940.06,-166.02C943.25,-165.67 946.41,-165.32 949.5,-165 1123.3,-146.76 1170.63,-154.8 1347.18,-129.03"/>
<polygon fill="#63b8ff" stroke="#63b8ff" points="1347.95,-132.45 1357.33,-127.53 1346.93,-125.53 1347.95,-132.45"/>
</a>
</g>
</g>
<!-- Node13 -->
<g id="Node000013" class="node">
<title>Node13</title>
<g id="a_Node000013"><a xlink:title=" ">
<polygon fill="#e0e0e0" stroke="#999999" points="703.5,-129 661.5,-129 661.5,-110 703.5,-110 703.5,-129"/>
<text text-anchor="middle" x="682.5" y="-117" font-family="Helvetica,sans-Serif" font-size="10.00">array</text>
</a>
</g>
</g>
<!-- Node7&#45;&gt;Node13 -->
<g id="edge13_Node000007_Node000013" class="edge">
<title>Node7&#45;&gt;Node13</title>
<g id="a_edge13_Node000007_Node000013"><a xlink:title=" ">
<path fill="none" stroke="#63b8ff" d="M846.02,-164.94C814.49,-156.6 765.04,-143.43 713.45,-129.23"/>
<polygon fill="#63b8ff" stroke="#63b8ff" points="714.37,-125.86 703.79,-126.57 712.51,-132.61 714.37,-125.86"/>
</a>
</g>
</g>
<!-- Node14 -->
<g id="Node000014" class="node">
<title>Node14</title>
<g id="a_Node000014"><a xlink:title=" ">
<polygon fill="#e0e0e0" stroke="#999999" points="903.5,-129 853.5,-129 853.5,-110 903.5,-110 903.5,-129"/>
<text text-anchor="middle" x="878.5" y="-117" font-family="Helvetica,sans-Serif" font-size="10.00">atomic</text>
</a>
</g>
</g>
<!-- Node7&#45;&gt;Node14 -->
<g id="edge14_Node000007_Node000014" class="edge">
<title>Node7&#45;&gt;Node14</title>
<g id="a_edge14_Node000007_Node000014"><a xlink:title=" ">
<path fill="none" stroke="#63b8ff" d="M878.5,-164.75C878.5,-157.8 878.5,-147.85 878.5,-139.13"/>
<polygon fill="#63b8ff" stroke="#63b8ff" points="882,-139.09 878.5,-129.09 875,-139.09 882,-139.09"/>
</a>
</g>
</g>
<!-- Node15 -->
<g id="Node000015" class="node">
<title>Node15</title>
<g id="a_Node000015"><a xlink:title=" ">
<polygon fill="#e0e0e0" stroke="#999999" points="965.5,-129 921.5,-129 921.5,-110 965.5,-110 965.5,-129"/>
<text text-anchor="middle" x="943.5" y="-117" font-family="Helvetica,sans-Serif" font-size="10.00">bitset</text>
</a>
</g>
</g>
<!-- Node7&#45;&gt;Node15 -->
<g id="edge15_Node000007_Node000015" class="edge">
<title>Node7&#45;&gt;Node15</title>
<g id="a_edge15_Node000007_Node000015"><a xlink:title=" ">
<path fill="none" stroke="#63b8ff" d="M888.94,-164.98C898.65,-157.07 913.32,-145.11 925,-135.58"/>
<polygon fill="#63b8ff" stroke="#63b8ff" points="927.33,-138.2 932.87,-129.17 922.9,-132.78 927.33,-138.2"/>
</a>
</g>
</g>
<!-- Node16 -->
<g id="Node000016" class="node">
<title>Node16</title>
<g id="a_Node000016"><a xlink:title=" ">
<polygon fill="#e0e0e0" stroke="#999999" points="1031,-129 984,-129 984,-110 1031,-110 1031,-129"/>
<text text-anchor="middle" x="1007.5" y="-117" font-family="Helvetica,sans-Serif" font-size="10.00">cmath</text>
</a>
</g>
</g>
<!-- Node7&#45;&gt;Node16 -->
<g id="edge16_Node000007_Node000016" class="edge">
<title>Node7&#45;&gt;Node16</title>
<g id="a_edge16_Node000007_Node000016"><a xlink:title=" ">
<path fill="none" stroke="#63b8ff" d="M899.23,-164.98C920.26,-156.34 953.05,-142.87 977.04,-133.02"/>
<polygon fill="#63b8ff" stroke="#63b8ff" points="978.48,-136.21 986.4,-129.17 975.82,-129.73 978.48,-136.21"/>
</a>
</g>
</g>
<!-- Node17 -->
<g id="Node000017" class="node">
<title>Node17</title>
<g id="a_Node000017"><a xlink:title=" ">
<polygon fill="#e0e0e0" stroke="#999999" points="1095.5,-129 1049.5,-129 1049.5,-110 1095.5,-110 1095.5,-129"/>
<text text-anchor="middle" x="1072.5" y="-117" font-family="Helvetica,sans-Serif" font-size="10.00">cstdio</text>
</a>
</g>
</g>
<!-- Node7&#45;&gt;Node17 -->
<g id="edge18_Node000007_Node000017" class="edge">
<title>Node7&#45;&gt;Node17</title>
<g id="a_edge18_Node000007_Node000017"><a xlink:title=" ">
<path fill="none" stroke="#63b8ff" d="M909.67,-164.98C945.15,-155.29 1002.89,-139.52 1039.23,-129.59"/>
<polygon fill="#63b8ff" stroke="#63b8ff" points="1040.6,-132.84 1049.32,-126.83 1038.75,-126.09 1040.6,-132.84"/>
</a>
</g>
</g>
<!-- Node18 -->
<g id="Node000018" class="node">
<title>Node18</title>
<g id="a_Node000018"><a xlink:title=" ">
<polygon fill="#e0e0e0" stroke="#999999" points="1217,-129 1152,-129 1152,-110 1217,-110 1217,-129"/>
<text text-anchor="middle" x="1184.5" y="-117" font-family="Helvetica,sans-Serif" font-size="10.00">functional</text>
</a>
</g>
</g>
<!-- Node7&#45;&gt;Node18 -->
<g id="edge19_Node000007_Node000018" class="edge">
<title>Node7&#45;&gt;Node18</title>
<g id="a_edge19_Node000007_Node000018"><a xlink:title=" ">
<path fill="none" stroke="#63b8ff" d="M929.14,-164.93C981.37,-156.07 1065.16,-141.76 1137.5,-129 1138.95,-128.74 1140.43,-128.48 1141.93,-128.22"/>
<polygon fill="#63b8ff" stroke="#63b8ff" points="1142.66,-131.64 1151.89,-126.44 1141.43,-124.75 1142.66,-131.64"/>
</a>
</g>
</g>
<!-- Node19 -->
<g id="Node000019" class="node">
<title>Node19</title>
<g id="a_Node000019"><a xlink:href="as5047u__types_8hpp.html" target="_top" xlink:title="Type definitions for the AS5047U driver.">
<polygon fill="white" stroke="#666666" points="787,-74 676,-74 676,-55 787,-55 787,-74"/>
<text text-anchor="middle" x="731.5" y="-62" font-family="Helvetica,sans-Serif" font-size="10.00">as5047u_types.hpp</text>
</a>
</g>
</g>
<!-- Node7&#45;&gt;Node19 -->
<g id="edge20_Node000007_Node000019" class="edge">
<title>Node7&#45;&gt;Node19</title>
<g id="a_edge20_Node000007_Node000019"><a xlink:title=" ">
<path fill="none" stroke="#63b8ff" d="M816.96,-169.96C757.32,-165.09 672.98,-153.9 652.5,-129 635.28,-108.06 667.41,-89.32 695.72,-77.72"/>
<polygon fill="#63b8ff" stroke="#63b8ff" points="697.05,-80.96 705.1,-74.07 694.51,-74.44 697.05,-80.96"/>
</a>
</g>
</g>
<!-- Node20 -->
<g id="Node000020" class="node">
<title>Node20</title>
<g id="a_Node000020"><a xlink:href="as5047u__config_8hpp.html" target="_top" xlink:title=" ">
<polygon fill="white" stroke="#666666" points="835,-129 722,-129 722,-110 835,-110 835,-129"/>
<text text-anchor="middle" x="778.5" y="-117" font-family="Helvetica,sans-Serif" font-size="10.00">as5047u_config.hpp</text>
</a>
</g>
</g>
<!-- Node7&#45;&gt;Node20 -->
<g id="edge22_Node000007_Node000020" class="edge">
<title>Node7&#45;&gt;Node20</title>
<g id="a_edge22_Node000007_Node000020"><a xlink:title=" ">
<path fill="none" stroke="#63b8ff" d="M862.43,-164.98C846.64,-156.61 822.28,-143.7 803.87,-133.95"/>
<polygon fill="#63b8ff" stroke="#63b8ff" points="805.33,-130.76 794.86,-129.17 802.06,-136.95 805.33,-130.76"/>
</a>
</g>
</g>
<!-- Node21 -->
<g id="Node000021" class="node">
<title>Node21</title>
<g id="a_Node000021"><a xlink:href="as5047u_8cpp.html" target="_top" xlink:title=" ">
<polygon fill="white" stroke="#666666" points="1339.5,-129 1235.5,-129 1235.5,-110 1339.5,-110 1339.5,-129"/>
<text text-anchor="middle" x="1287.5" y="-117" font-family="Helvetica,sans-Serif" font-size="10.00">../src/as5047u.cpp</text>
</a>
</g>
</g>
<!-- Node7&#45;&gt;Node21 -->
<g id="edge25_Node000007_Node000021" class="edge">
<title>Node7&#45;&gt;Node21</title>
<g id="a_edge25_Node000007_Node000021"><a xlink:title=" ">
<path fill="none" stroke="#63b8ff" d="M940.1,-164.99C1008.07,-156.19 1120.45,-141.97 1217.5,-129 1220,-128.67 1222.57,-128.32 1225.16,-127.97"/>
<polygon fill="#63b8ff" stroke="#63b8ff" points="1225.83,-131.41 1235.27,-126.6 1224.89,-124.47 1225.83,-131.41"/>
</a>
</g>
</g>
<!-- Node9 -->
<g id="Node000009" class="node">
<title>Node9</title>
<g id="a_Node000009"><a xlink:title=" ">
<polygon fill="#e0e0e0" stroke="#999999" points="474,-74 421,-74 421,-55 474,-55 474,-74"/>
<text text-anchor="middle" x="447.5" y="-62" font-family="Helvetica,sans-Serif" font-size="10.00">cstddef</text>
</a>
</g>
</g>
<!-- Node8&#45;&gt;Node9 -->
<g id="edge8_Node000008_Node000009" class="edge">
<title>Node8&#45;&gt;Node9</title>
<g id="a_edge8_Node000008_Node000009"><a xlink:title=" ">
<path fill="none" stroke="#63b8ff" d="M485.9,-109.75C479.34,-102.18 469.68,-91.05 461.69,-81.84"/>
<polygon fill="#63b8ff" stroke="#63b8ff" points="464.15,-79.35 454.95,-74.09 458.87,-83.94 464.15,-79.35"/>
</a>
</g>
</g>
<!-- Node8&#45;&gt;Node10 -->
<g id="edge9_Node000008_Node000010" class="edge">
<title>Node8&#45;&gt;Node10</title>
<g id="a_edge9_Node000008_Node000010"><a xlink:title=" ">
<path fill="none" stroke="#63b8ff" d="M494.98,-109.77C497.75,-96.13 504.99,-69.79 521.5,-55 550.96,-28.61 596.03,-17.86 627.26,-13.49"/>
<polygon fill="#63b8ff" stroke="#63b8ff" points="627.78,-16.96 637.27,-12.24 626.91,-10.01 627.78,-16.96"/>
</a>
</g>
</g>
<!-- Node11&#45;&gt;Node10 -->
<g id="edge11_Node000011_Node000010" class="edge">
<title>Node11&#45;&gt;Node10</title>
<g id="a_edge11_Node000011_Node000010"><a xlink:title=" ">
<path fill="none" stroke="#63b8ff" d="M605.43,-54.98C615.58,-47.07 630.92,-35.11 643.15,-25.58"/>
<polygon fill="#63b8ff" stroke="#63b8ff" points="645.64,-28.08 651.38,-19.17 641.34,-22.56 645.64,-28.08"/>
</a>
</g>
</g>
<!-- Node19&#45;&gt;Node10 -->
<g id="edge21_Node000019_Node000010" class="edge">
<title>Node19&#45;&gt;Node10</title>
<g id="a_edge21_Node000019_Node000010"><a xlink:title=" ">
<path fill="none" stroke="#63b8ff" d="M720.41,-54.98C710.01,-47 694.24,-34.88 681.78,-25.31"/>
<polygon fill="#63b8ff" stroke="#63b8ff" points="683.85,-22.49 673.79,-19.17 679.59,-28.04 683.85,-22.49"/>
</a>
</g>
</g>
<!-- Node20&#45;&gt;Node10 -->
<g id="edge23_Node000020_Node000010" class="edge">
<title>Node20&#45;&gt;Node10</title>
<g id="a_edge23_Node000020_Node000010"><a xlink:title=" ">
<path fill="none" stroke="#63b8ff" d="M784.98,-109.88C793.92,-96.84 807.64,-71.86 795.5,-55 773.39,-24.29 729.1,-14.46 697.71,-11.49"/>
<polygon fill="#63b8ff" stroke="#63b8ff" points="697.85,-7.99 687.62,-10.72 697.32,-14.97 697.85,-7.99"/>
</a>
</g>
</g>
<!-- Node20&#45;&gt;Node19 -->
<g id="edge24_Node000020_Node000019" class="edge">
<title>Node20&#45;&gt;Node19</title>
<g id="a_edge24_Node000020_Node000019"><a xlink:title=" ">
<path fill="none" stroke="#63b8ff" d="M770.74,-109.75C764.03,-102.18 754.16,-91.05 745.99,-81.84"/>
<polygon fill="#63b8ff" stroke="#63b8ff" points="748.37,-79.25 739.12,-74.09 743.13,-83.89 748.37,-79.25"/>
</a>
</g>
</g>
<!-- Node21&#45;&gt;Node7 -->
<g id="edge26_Node000021_Node000007" class="edge">
<title>Node21&#45;&gt;Node7</title>
<g id="a_edge26_Node000021_Node000007"><a xlink:title=" ">
<path fill="none" stroke="#63b8ff" d="M1235.2,-129.04C1136.86,-142.18 1022.86,-156.6 950.64,-165.35"/>
<polygon fill="#63b8ff" stroke="#63b8ff" points="949.8,-161.93 940.29,-166.6 950.64,-168.88 949.8,-161.93"/>
</a>
</g>
</g>
<!-- Node22 -->
<g id="Node000022" class="node">
<title>Node22</title>
<g id="a_Node000022"><a xlink:title=" ">
<polygon fill="#e0e0e0" stroke="#999999" points="1315.5,-74 1259.5,-74 1259.5,-55 1315.5,-55 1315.5,-74"/>
<text text-anchor="middle" x="1287.5" y="-62" font-family="Helvetica,sans-Serif" font-size="10.00">iomanip</text>
</a>
</g>
</g>
<!-- Node21&#45;&gt;Node22 -->
<g id="edge27_Node000021_Node000022" class="edge">
<title>Node21&#45;&gt;Node22</title>
<g id="a_edge27_Node000021_Node000022"><a xlink:title=" ">
<path fill="none" stroke="#63b8ff" d="M1287.5,-109.75C1287.5,-102.8 1287.5,-92.85 1287.5,-84.13"/>
<polygon fill="#63b8ff" stroke="#63b8ff" points="1291,-84.09 1287.5,-74.09 1284,-84.09 1291,-84.09"/>
</a>
</g>
</g>
<!-- Node23&#45;&gt;Node2 -->
<g id="edge32_Node000023_Node000002" class="edge">
<title>Node23&#45;&gt;Node2</title>
<g id="a_edge32_Node000023_Node000002"><a xlink:title=" ">
<path fill="none" stroke="#63b8ff" d="M261.88,-164.97C216.38,-156.58 144.93,-143.26 73.37,-129.14"/>
<polygon fill="#63b8ff" stroke="#63b8ff" points="73.76,-125.65 63.27,-127.15 72.4,-132.52 73.76,-125.65"/>
</a>
</g>
</g>
<!-- Node23&#45;&gt;Node5 -->
<g id="edge34_Node000023_Node000005" class="edge">
<title>Node23&#45;&gt;Node5</title>
<g id="a_edge34_Node000023_Node000005"><a xlink:title=" ">
<path fill="none" stroke="#63b8ff" d="M276.69,-164.98C242.11,-155.73 186.84,-140.94 149.64,-130.98"/>
<polygon fill="#63b8ff" stroke="#63b8ff" points="150.22,-127.51 139.65,-128.3 148.41,-134.27 150.22,-127.51"/>
</a>
</g>
</g>
<!-- Node23&#45;&gt;Node8 -->
<g id="edge29_Node000023_Node000008" class="edge">
<title>Node23&#45;&gt;Node8</title>
<g id="a_edge29_Node000023_Node000008"><a xlink:title=" ">
<path fill="none" stroke="#63b8ff" d="M338.22,-164.98C369.55,-156.01 419.07,-141.82 453.74,-131.89"/>
<polygon fill="#63b8ff" stroke="#63b8ff" points="454.89,-135.2 463.54,-129.08 452.97,-128.47 454.89,-135.2"/>
</a>
</g>
</g>
<!-- Node23&#45;&gt;Node10 -->
<g id="edge33_Node000023_Node000010" class="edge">
<title>Node23&#45;&gt;Node10</title>
<g id="a_edge33_Node000023_Node000010"><a xlink:title=" ">
<path fill="none" stroke="#63b8ff" d="M325.14,-164.91C339.13,-157.04 358.96,-144.31 372.5,-129 397.13,-101.15 381.47,-76.92 411.5,-55 445.3,-30.32 566.17,-17.82 627,-12.97"/>
<polygon fill="#63b8ff" stroke="#63b8ff" points="627.57,-16.44 637.28,-12.18 627.04,-9.46 627.57,-16.44"/>
</a>
</g>
</g>
<!-- Node24 -->
<g id="Node000024" class="node">
<title>Node24</title>
<g id="a_Node000024"><a xlink:title=" ">
<polygon fill="#e0e0e0" stroke="#999999" points="235.5,-129 157.5,-129 157.5,-110 235.5,-110 235.5,-129"/>
<text text-anchor="middle" x="196.5" y="-117" font-family="Helvetica,sans-Serif" font-size="10.00">driver/gpio.h</text>
</a>
</g>
</g>
<!-- Node23&#45;&gt;Node24 -->
<g id="edge30_Node000023_Node000024" class="edge">
<title>Node23&#45;&gt;Node24</title>
<g id="a_edge30_Node000023_Node000024"><a xlink:title=" ">
<path fill="none" stroke="#63b8ff" d="M290.51,-164.98C272.57,-156.5 244.78,-143.35 224.07,-133.54"/>
<polygon fill="#63b8ff" stroke="#63b8ff" points="225.36,-130.28 214.82,-129.17 222.36,-136.61 225.36,-130.28"/>
</a>
</g>
</g>
<!-- Node25 -->
<g id="Node000025" class="node">
<title>Node25</title>
<g id="a_Node000025"><a xlink:title=" ">
<polygon fill="#e0e0e0" stroke="#999999" points="363.5,-129 253.5,-129 253.5,-110 363.5,-110 363.5,-129"/>
<text text-anchor="middle" x="308.5" y="-117" font-family="Helvetica,sans-Serif" font-size="10.00">driver/spi_master.h</text>
</a>
</g>
</g>
<!-- Node23&#45;&gt;Node25 -->
<g id="edge31_Node000023_Node000025" class="edge">
<title>Node23&#45;&gt;Node25</title>
<g id="a_edge31_Node000023_Node000025"><a xlink:title=" ">
<path fill="none" stroke="#63b8ff" d="M308.5,-164.75C308.5,-157.8 308.5,-147.85 308.5,-139.13"/>
<polygon fill="#63b8ff" stroke="#63b8ff" points="312,-139.09 308.5,-129.09 305,-139.09 312,-139.09"/>
</a>
</g>
</g>
</g>
</svg>
