<?xml version="1.0" encoding="UTF-8" standalone="no"?>
<!DOCTYPE svg PUBLIC "-//W3C//DTD SVG 1.1//EN"
 "http://www.w3.org/Graphics/SVG/1.1/DTD/svg11.dtd">
<!-- Generated by graphviz version 2.43.0 (0)
 -->
<!-- Title: examples/esp32/main/VelocityReadingExample.cpp Pages: 1 -->
<svg width="1393pt" height="258pt"
 viewBox="0.00 0.00 1392.50 258.00" xmlns="http://www.w3.org/2000/svg" xmlns:xlink="http://www.w3.org/1999/xlink">
<g id="graph0" class="graph" transform="scale(1 1) rotate(0) translate(4 254)">
<title>examples/esp32/main/VelocityReadingExample.cpp</title>
<!-- Node1 -->
<g id="Node000001" class="node">
<title>Node1</title>
<g id="a_Node000001"><a xlink:title="Velocity reading example with unit conversions.">
<polygon fill="#999999" stroke="#666666" points="919,-250 758,-250 758,-220 919,-220 919,-250"/>
<text text-anchor="start" x="766" y="-238" font-family="Helvetica,sans-Serif" font-size="10.00">examples/esp32/main</text>
<text text-anchor="middle" x="838.5" y="-227" font-family="Helvetica,sans-Serif" font-size="10.00">/VelocityReadingExample.cpp</text>
</a>
</g>
</g>
<!-- Node2 -->
<g id="Node000002" class="node">
<title>Node2</title>
<g id="a_Node000002"><a xlink:title=" ">
<polygon fill="#e0e0e0" stroke="#999999" points="63,-129 0,-129 0,-110 63,-110 63,-129"/>
<text text-anchor="middle" x="31.5" y="-117" font-family="Helvetica,sans-Serif" font-size="10.00">esp_log.h</text>
</a>
</g>
</g>
<!-- Node1&#45;&gt;Node2 -->
<g id="edge1_Node000001_Node000002" class="edge">
<title>Node1&#45;&gt;Node2</title>
<g id="a_edge1_Node000001_Node000002"><a xlink:title=" ">
<path fill="none" stroke="#63b8ff" d="M757.84,-230.99C607.95,-224.87 292.03,-209.37 185.5,-184 138.23,-172.75 86.68,-148.91 56.82,-133.86"/>
<polygon fill="#63b8ff" stroke="#63b8ff" points="58.06,-130.56 47.57,-129.12 54.87,-136.79 58.06,-130.56"/>
</a>
</g>
</g>
<!-- Node3 -->
<g id="Node000003" class="node">
<title>Node3</title>
<g id="a_Node000003"><a xlink:title=" ">
<polygon fill="#e0e0e0" stroke="#999999" points="1033,-184 920,-184 920,-165 1033,-165 1033,-184"/>
<text text-anchor="middle" x="976.5" y="-172" font-family="Helvetica,sans-Serif" font-size="10.00">freertos/FreeRTOS.h</text>
</a>
</g>
</g>
<!-- Node1&#45;&gt;Node3 -->
<g id="edge2_Node000001_Node000003" class="edge">
<title>Node1&#45;&gt;Node3</title>
<g id="a_edge2_Node000001_Node000003"><a xlink:title=" ">
<path fill="none" stroke="#63b8ff" d="M871.55,-219.99C894.48,-210.27 924.74,-197.44 946.88,-188.06"/>
<polygon fill="#63b8ff" stroke="#63b8ff" points="948.28,-191.26 956.12,-184.14 945.55,-184.82 948.28,-191.26"/>
</a>
</g>
</g>
<!-- Node4 -->
<g id="Node000004" class="node">
<title>Node4</title>
<g id="a_Node000004"><a xlink:title=" ">
<polygon fill="#e0e0e0" stroke="#999999" points="1139.5,-184 1051.5,-184 1051.5,-165 1139.5,-165 1139.5,-184"/>
<text text-anchor="middle" x="1095.5" y="-172" font-family="Helvetica,sans-Serif" font-size="10.00">freertos/task.h</text>
</a>
</g>
</g>
<!-- Node1&#45;&gt;Node4 -->
<g id="edge3_Node000001_Node000004" class="edge">
<title>Node1&#45;&gt;Node4</title>
<g id="a_edge3_Node000001_Node000004"><a xlink:title=" ">
<path fill="none" stroke="#63b8ff" d="M900.06,-219.99C945.47,-209.65 1006.35,-195.79 1048.02,-186.31"/>
<polygon fill="#63b8ff" stroke="#63b8ff" points="1048.95,-189.69 1057.92,-184.05 1047.4,-182.86 1048.95,-189.69"/>
</a>
</g>
</g>
<!-- Node5 -->
<g id="Node000005" class="node">
<title>Node5</title>
<g id="a_Node000005"><a xlink:title=" ">
<polygon fill="#e0e0e0" stroke="#999999" points="139.5,-129 81.5,-129 81.5,-110 139.5,-110 139.5,-129"/>
<text text-anchor="middle" x="110.5" y="-117" font-family="Helvetica,sans-Serif" font-size="10.00">memory</text>
</a>
</g>
</g>
<!-- Node1&#45;&gt;Node5 -->
<g id="edge4_Node000001_Node000005" class="edge">
<title>Node1&#45;&gt;Node5</title>
<g id="a_edge4_Node000001_Node000005"><a xlink:title=" ">
<path fill="none" stroke="#63b8ff" d="M757.79,-231.16C616.79,-225.56 331.44,-211.21 235.5,-184 196.84,-173.03 156.06,-149.81 131.97,-134.69"/>
<polygon fill="#63b8ff" stroke="#63b8ff" points="133.61,-131.59 123.3,-129.15 129.84,-137.48 133.61,-131.59"/>
</a>
</g>
</g>
<!-- Node6 -->
<g id="Node000006" class="node">
<title>Node6</title>
<g id="a_Node000006"><a xlink:title=" ">
<polygon fill="#e0e0e0" stroke="#999999" points="1207.5,-184 1157.5,-184 1157.5,-165 1207.5,-165 1207.5,-184"/>
<text text-anchor="middle" x="1182.5" y="-172" font-family="Helvetica,sans-Serif" font-size="10.00">stdio.h</text>
</a>
</g>
</g>
<!-- Node1&#45;&gt;Node6 -->
<g id="edge5_Node000001_Node000006" class="edge">
<title>Node1&#45;&gt;Node6</title>
<g id="a_edge5_Node000001_Node000006"><a xlink:title=" ">
<path fill="none" stroke="#63b8ff" d="M919.13,-222.92C979.51,-214.17 1064.31,-200.95 1147.44,-184.07"/>
<polygon fill="#63b8ff" stroke="#63b8ff" points="1148.21,-187.49 1157.3,-182.05 1146.8,-180.63 1148.21,-187.49"/>
</a>
</g>
</g>
<!-- Node7 -->
<g id="Node000007" class="node">
<title>Node7</title>
<g id="a_Node000007"><a xlink:href="AS5047U_8hpp.html" target="_top" xlink:title="Driver for AMS AS5047U Magnetic Rotary Position Sensor (C++21).">
<polygon fill="white" stroke="#666666" points="901.5,-184 775.5,-184 775.5,-165 901.5,-165 901.5,-184"/>
<text text-anchor="middle" x="838.5" y="-172" font-family="Helvetica,sans-Serif" font-size="10.00">../../../inc/AS5047U.hpp</text>
</a>
</g>
</g>
<!-- Node1&#45;&gt;Node7 -->
<g id="edge6_Node000001_Node000007" class="edge">
<title>Node1&#45;&gt;Node7</title>
<g id="a_edge6_Node000001_Node000007"><a xlink:title=" ">
<path fill="none" stroke="#63b8ff" d="M838.5,-219.84C838.5,-212.21 838.5,-202.7 838.5,-194.45"/>
<polygon fill="#63b8ff" stroke="#63b8ff" points="842,-194.27 838.5,-184.27 835,-194.27 842,-194.27"/>
</a>
</g>
</g>
<!-- Node23 -->
<g id="Node000023" class="node">
<title>Node23</title>
<g id="a_Node000023"><a xlink:href="Esp32As5047uBus_8hpp.html" target="_top" xlink:title="ESP32 SPI transport implementation for AS5047U driver.">
<polygon fill="white" stroke="#666666" points="372,-184 245,-184 245,-165 372,-165 372,-184"/>
<text text-anchor="middle" x="308.5" y="-172" font-family="Helvetica,sans-Serif" font-size="10.00">Esp32As5047uBus.hpp</text>
</a>
</g>
</g>
<!-- Node1&#45;&gt;Node23 -->
<g id="edge28_Node000001_Node000023" class="edge">
<title>Node1&#45;&gt;Node23</title>
<g id="a_edge28_Node000001_Node000023"><a xlink:title=" ">
<path fill="none" stroke="#63b8ff" d="M757.72,-225.08C655.56,-213.81 481.12,-194.55 382.36,-183.65"/>
<polygon fill="#63b8ff" stroke="#63b8ff" points="382.49,-180.15 372.17,-182.53 381.73,-187.1 382.49,-180.15"/>
</a>
</g>
</g>
<!-- Node8 -->
<g id="Node000008" class="node">
<title>Node8</title>
<g id="a_Node000008"><a xlink:href="AS5047U__Bus_8hpp.html" target="_top" xlink:title="CRTP&#45;based SPI bus interface for AS5047U driver.">
<polygon fill="white" stroke="#666666" points="525,-129 420,-129 420,-110 525,-110 525,-129"/>
<text text-anchor="middle" x="472.5" y="-117" font-family="Helvetica,sans-Serif" font-size="10.00">AS5047U_Bus.hpp</text>
</a>
</g>
</g>
<!-- Node7&#45;&gt;Node8 -->
<g id="edge7_Node000007_Node000008" class="edge">
<title>Node7&#45;&gt;Node8</title>
<g id="a_edge7_Node000007_Node000008"><a xlink:title=" ">
<path fill="none" stroke="#63b8ff" d="M779.7,-164.98C712.81,-155.3 604.01,-139.54 535.45,-129.62"/>
<polygon fill="#63b8ff" stroke="#63b8ff" points="535.62,-126.1 525.22,-128.13 534.61,-133.03 535.62,-126.1"/>
</a>
</g>
</g>
<!-- Node10 -->
<g id="Node000010" class="node">
<title>Node10</title>
<g id="a_Node000010"><a xlink:title=" ">
<polygon fill="#e0e0e0" stroke="#999999" points="698.5,-19 648.5,-19 648.5,0 698.5,0 698.5,-19"/>
<text text-anchor="middle" x="673.5" y="-7" font-family="Helvetica,sans-Serif" font-size="10.00">cstdint</text>
</a>
</g>
</g>
<!-- Node7&#45;&gt;Node10 -->
<g id="edge17_Node000007_Node000010" class="edge">
<title>Node7&#45;&gt;Node10</title>
<g id="a_edge17_Node000007_Node000010"><a xlink:title=" ">
<path fill="none" stroke="#63b8ff" d="M901.63,-165.21C964.81,-156.28 1054.12,-141.63 1064.5,-129 1069.86,-122.48 1069.68,-116.67 1064.5,-110 1020.45,-53.34 796.39,-23.63 708.73,-14.04"/>
<polygon fill="#63b8ff" stroke="#63b8ff" points="709.05,-10.55 698.73,-12.96 708.3,-17.51 709.05,-10.55"/>
</a>
</g>
</g>
<!-- Node11 -->
<g id="Node000011" class="node">
<title>Node11</title>
<g id="a_Node000011"><a xlink:href="AS5047U__REGISTERS_8hpp.html" target="_top" xlink:title="Register definitions for the AS5047U Rotary Position Sensor.">
<polygon fill="white" stroke="#666666" points="671,-74 530,-74 530,-55 671,-55 671,-74"/>
<text text-anchor="middle" x="600.5" y="-62" font-family="Helvetica,sans-Serif" font-size="10.00">AS5047U_REGISTERS.hpp</text>
</a>
</g>
</g>
<!-- Node7&#45;&gt;Node11 -->
<g id="edge10_Node000007_Node000011" class="edge">
<title>Node7&#45;&gt;Node11</title>
<g id="a_edge10_Node000007_Node000011"><a xlink:title=" ">
<path fill="none" stroke="#63b8ff" d="M775.47,-170.56C712.61,-166.16 622.35,-155.32 600.5,-129 590.27,-116.69 591.65,-97.91 594.75,-83.97"/>
<polygon fill="#63b8ff" stroke="#63b8ff" points="598.21,-84.61 597.42,-74.04 591.45,-82.79 598.21,-84.61"/>
</a>
</g>
</g>
<!-- Node12 -->
<g id="Node000012" class="node">
<title>Node12</title>
<g id="a_Node000012"><a xlink:title=" ">
<polygon fill="#e0e0e0" stroke="#999999" points="1384.5,-129 1320.5,-129 1320.5,-110 1384.5,-110 1384.5,-129"/>
<text text-anchor="middle" x="1352.5" y="-117" font-family="Helvetica,sans-Serif" font-size="10.00">algorithm</text>
</a>
</g>
</g>
<!-- Node7&#45;&gt;Node12 -->
<g id="edge12_Node000007_Node000012" class="edge">
<title>Node7&#45;&gt;Node12</title>
<g id="a_edge12_Node000007_Node000012"><a xlink:title=" ">
<path fill="none" stroke="#63b8ff" d="M901.7,-165.94C904.68,-165.61 907.62,-165.3 910.5,-165 1085.27,-146.84 1132.78,-154.9 1310.4,-129"/>
<polygon fill="#63b8ff" stroke="#63b8ff" points="1310.95,-132.45 1320.33,-127.53 1309.93,-125.53 1310.95,-132.45"/>
</a>
</g>
</g>
<!-- Node13 -->
<g id="Node000013" class="node">
<title>Node13</title>
<g id="a_Node000013"><a xlink:title=" ">
<polygon fill="#e0e0e0" stroke="#999999" points="661.5,-129 619.5,-129 619.5,-110 661.5,-110 661.5,-129"/>
<text text-anchor="middle" x="640.5" y="-117" font-family="Helvetica,sans-Serif" font-size="10.00">array</text>
</a>
</g>
</g>
<!-- Node7&#45;&gt;Node13 -->
<g id="edge13_Node000007_Node000013" class="edge">
<title>Node7&#45;&gt;Node13</title>
<g id="a_edge13_Node000007_Node000013"><a xlink:title=" ">
<path fill="none" stroke="#63b8ff" d="M805.62,-164.97C773.71,-156.65 723.65,-143.5 671.54,-129.25"/>
<polygon fill="#63b8ff" stroke="#63b8ff" points="672.36,-125.85 661.79,-126.58 670.51,-132.6 672.36,-125.85"/>
</a>
</g>
</g>
<!-- Node14 -->
<g id="Node000014" class="node">
<title>Node14</title>
<g id="a_Node000014"><a xlink:title=" ">
<polygon fill="#e0e0e0" stroke="#999999" points="863.5,-129 813.5,-129 813.5,-110 863.5,-110 863.5,-129"/>
<text text-anchor="middle" x="838.5" y="-117" font-family="Helvetica,sans-Serif" font-size="10.00">atomic</text>
</a>
</g>
</g>
<!-- Node7&#45;&gt;Node14 -->
<g id="edge14_Node000007_Node000014" class="edge">
<title>Node7&#45;&gt;Node14</title>
<g id="a_edge14_Node000007_Node000014"><a xlink:title=" ">
<path fill="none" stroke="#63b8ff" d="M838.5,-164.75C838.5,-157.8 838.5,-147.85 838.5,-139.13"/>
<polygon fill="#63b8ff" stroke="#63b8ff" points="842,-139.09 838.5,-129.09 835,-139.09 842,-139.09"/>
</a>
</g>
</g>
<!-- Node15 -->
<g id="Node000015" class="node">
<title>Node15</title>
<g id="a_Node000015"><a xlink:title=" ">
<polygon fill="#e0e0e0" stroke="#999999" points="925.5,-129 881.5,-129 881.5,-110 925.5,-110 925.5,-129"/>
<text text-anchor="middle" x="903.5" y="-117" font-family="Helvetica,sans-Serif" font-size="10.00">bitset</text>
</a>
</g>
</g>
<!-- Node7&#45;&gt;Node15 -->
<g id="edge15_Node000007_Node000015" class="edge">
<title>Node7&#45;&gt;Node15</title>
<g id="a_edge15_Node000007_Node000015"><a xlink:title=" ">
<path fill="none" stroke="#63b8ff" d="M848.94,-164.98C858.65,-157.07 873.32,-145.11 885,-135.58"/>
<polygon fill="#63b8ff" stroke="#63b8ff" points="887.33,-138.2 892.87,-129.17 882.9,-132.78 887.33,-138.2"/>
</a>
</g>
</g>
<!-- Node16 -->
<g id="Node000016" class="node">
<title>Node16</title>
<g id="a_Node000016"><a xlink:title=" ">
<polygon fill="#e0e0e0" stroke="#999999" points="991,-129 944,-129 944,-110 991,-110 991,-129"/>
<text text-anchor="middle" x="967.5" y="-117" font-family="Helvetica,sans-Serif" font-size="10.00">cmath</text>
</a>
</g>
</g>
<!-- Node7&#45;&gt;Node16 -->
<g id="edge16_Node000007_Node000016" class="edge">
<title>Node7&#45;&gt;Node16</title>
<g id="a_edge16_Node000007_Node000016"><a xlink:title=" ">
<path fill="none" stroke="#63b8ff" d="M859.23,-164.98C880.26,-156.34 913.05,-142.87 937.04,-133.02"/>
<polygon fill="#63b8ff" stroke="#63b8ff" points="938.48,-136.21 946.4,-129.17 935.82,-129.73 938.48,-136.21"/>
</a>
</g>
</g>
<!-- Node17 -->
<g id="Node000017" class="node">
<title>Node17</title>
<g id="a_Node000017"><a xlink:title=" ">
<polygon fill="#e0e0e0" stroke="#999999" points="1055.5,-129 1009.5,-129 1009.5,-110 1055.5,-110 1055.5,-129"/>
<text text-anchor="middle" x="1032.5" y="-117" font-family="Helvetica,sans-Serif" font-size="10.00">cstdio</text>
</a>
</g>
</g>
<!-- Node7&#45;&gt;Node17 -->
<g id="edge18_Node000007_Node000017" class="edge">
<title>Node7&#45;&gt;Node17</title>
<g id="a_edge18_Node000007_Node000017"><a xlink:title=" ">
<path fill="none" stroke="#63b8ff" d="M869.67,-164.98C905.15,-155.29 962.89,-139.52 999.23,-129.59"/>
<polygon fill="#63b8ff" stroke="#63b8ff" points="1000.6,-132.84 1009.32,-126.83 998.75,-126.09 1000.6,-132.84"/>
</a>
</g>
</g>
<!-- Node18 -->
<g id="Node000018" class="node">
<title>Node18</title>
<g id="a_Node000018"><a xlink:title=" ">
<polygon fill="#e0e0e0" stroke="#999999" points="1177,-129 1112,-129 1112,-110 1177,-110 1177,-129"/>
<text text-anchor="middle" x="1144.5" y="-117" font-family="Helvetica,sans-Serif" font-size="10.00">functional</text>
</a>
</g>
</g>
<!-- Node7&#45;&gt;Node18 -->
<g id="edge19_Node000007_Node000018" class="edge">
<title>Node7&#45;&gt;Node18</title>
<g id="a_edge19_Node000007_Node000018"><a xlink:title=" ">
<path fill="none" stroke="#63b8ff" d="M889.14,-164.93C941.37,-156.07 1025.16,-141.76 1097.5,-129 1098.95,-128.74 1100.43,-128.48 1101.93,-128.22"/>
<polygon fill="#63b8ff" stroke="#63b8ff" points="1102.66,-131.64 1111.89,-126.44 1101.43,-124.75 1102.66,-131.64"/>
</a>
</g>
</g>
<!-- Node19 -->
<g id="Node000019" class="node">
<title>Node19</title>
<g id="a_Node000019"><a xlink:href="AS5047U__types_8hpp.html" target="_top" xlink:title="Type definitions for the AS5047U driver.">
<polygon fill="white" stroke="#666666" points="803.5,-74 689.5,-74 689.5,-55 803.5,-55 803.5,-74"/>
<text text-anchor="middle" x="746.5" y="-62" font-family="Helvetica,sans-Serif" font-size="10.00">AS5047U_types.hpp</text>
</a>
</g>
</g>
<!-- Node7&#45;&gt;Node19 -->
<g id="edge20_Node000007_Node000019" class="edge">
<title>Node7&#45;&gt;Node19</title>
<g id="a_edge20_Node000007_Node000019"><a xlink:title=" ">
<path fill="none" stroke="#63b8ff" d="M775.29,-169.95C715.21,-165.1 631.05,-153.94 610.5,-129 586.34,-99.67 633.82,-83.16 679.17,-74.37"/>
<polygon fill="#63b8ff" stroke="#63b8ff" points="679.88,-77.8 689.09,-72.56 678.62,-70.91 679.88,-77.8"/>
</a>
</g>
</g>
<!-- Node20 -->
<g id="Node000020" class="node">
<title>Node20</title>
<g id="a_Node000020"><a xlink:href="AS5047U__config_8hpp.html" target="_top" xlink:title=" ">
<polygon fill="white" stroke="#666666" points="795.5,-129 679.5,-129 679.5,-110 795.5,-110 795.5,-129"/>
<text text-anchor="middle" x="737.5" y="-117" font-family="Helvetica,sans-Serif" font-size="10.00">AS5047U_config.hpp</text>
</a>
</g>
</g>
<!-- Node7&#45;&gt;Node20 -->
<g id="edge22_Node000007_Node000020" class="edge">
<title>Node7&#45;&gt;Node20</title>
<g id="a_edge22_Node000007_Node000020"><a xlink:title=" ">
<path fill="none" stroke="#63b8ff" d="M822.27,-164.98C806.32,-156.61 781.72,-143.7 763.12,-133.95"/>
<polygon fill="#63b8ff" stroke="#63b8ff" points="764.5,-130.72 754.02,-129.17 761.25,-136.92 764.5,-130.72"/>
</a>
</g>
</g>
<!-- Node21 -->
<g id="Node000021" class="node">
<title>Node21</title>
<g id="a_Node000021"><a xlink:href="AS5047U_8cpp.html" target="_top" xlink:title=" ">
<polygon fill="white" stroke="#666666" points="1302,-129 1195,-129 1195,-110 1302,-110 1302,-129"/>
<text text-anchor="middle" x="1248.5" y="-117" font-family="Helvetica,sans-Serif" font-size="10.00">../src/AS5047U.cpp</text>
</a>
</g>
</g>
<!-- Node7&#45;&gt;Node21 -->
<g id="edge25_Node000007_Node000021" class="edge">
<title>Node7&#45;&gt;Node21</title>
<g id="a_edge25_Node000007_Node000021"><a xlink:title=" ">
<path fill="none" stroke="#63b8ff" d="M899.78,-164.98C967.71,-156.16 1080.29,-141.88 1177.5,-129 1179.86,-128.69 1182.28,-128.37 1184.72,-128.04"/>
<polygon fill="#63b8ff" stroke="#63b8ff" points="1185.43,-131.47 1194.88,-126.68 1184.5,-124.54 1185.43,-131.47"/>
</a>
</g>
</g>
<!-- Node9 -->
<g id="Node000009" class="node">
<title>Node9</title>
<g id="a_Node000009"><a xlink:title=" ">
<polygon fill="#e0e0e0" stroke="#999999" points="473,-74 420,-74 420,-55 473,-55 473,-74"/>
<text text-anchor="middle" x="446.5" y="-62" font-family="Helvetica,sans-Serif" font-size="10.00">cstddef</text>
</a>
</g>
</g>
<!-- Node8&#45;&gt;Node9 -->
<g id="edge8_Node000008_Node000009" class="edge">
<title>Node8&#45;&gt;Node9</title>
<g id="a_edge8_Node000008_Node000009"><a xlink:title=" ">
<path fill="none" stroke="#63b8ff" d="M468.21,-109.75C464.69,-102.57 459.59,-92.18 455.22,-83.27"/>
<polygon fill="#63b8ff" stroke="#63b8ff" points="458.26,-81.53 450.71,-74.09 451.98,-84.61 458.26,-81.53"/>
</a>
</g>
</g>
<!-- Node8&#45;&gt;Node10 -->
<g id="edge9_Node000008_Node000010" class="edge">
<title>Node8&#45;&gt;Node10</title>
<g id="a_edge9_Node000008_Node000010"><a xlink:title=" ">
<path fill="none" stroke="#63b8ff" d="M476.79,-109.68C483.92,-95.92 499.56,-69.43 520.5,-55 556.16,-30.43 605.43,-19.27 638.32,-14.3"/>
<polygon fill="#63b8ff" stroke="#63b8ff" points="638.96,-17.75 648.39,-12.9 638,-10.82 638.96,-17.75"/>
</a>
</g>
</g>
<!-- Node11&#45;&gt;Node10 -->
<g id="edge11_Node000011_Node000010" class="edge">
<title>Node11&#45;&gt;Node10</title>
<g id="a_edge11_Node000011_Node000010"><a xlink:title=" ">
<path fill="none" stroke="#63b8ff" d="M612.23,-54.98C623.23,-47 639.92,-34.88 653.1,-25.31"/>
<polygon fill="#63b8ff" stroke="#63b8ff" points="655.52,-27.88 661.56,-19.17 651.41,-22.21 655.52,-27.88"/>
</a>
</g>
</g>
<!-- Node19&#45;&gt;Node10 -->
<g id="edge21_Node000019_Node000010" class="edge">
<title>Node19&#45;&gt;Node10</title>
<g id="a_edge21_Node000019_Node000010"><a xlink:title=" ">
<path fill="none" stroke="#63b8ff" d="M734.77,-54.98C723.77,-47 707.08,-34.88 693.9,-25.31"/>
<polygon fill="#63b8ff" stroke="#63b8ff" points="695.59,-22.21 685.44,-19.17 691.48,-27.88 695.59,-22.21"/>
</a>
</g>
</g>
<!-- Node20&#45;&gt;Node10 -->
<g id="edge23_Node000020_Node000010" class="edge">
<title>Node20&#45;&gt;Node10</title>
<g id="a_edge23_Node000020_Node000010"><a xlink:title=" ">
<path fill="none" stroke="#63b8ff" d="M762.5,-109.94C790.46,-98.98 829.7,-78.57 812.5,-55 788.91,-22.68 741.54,-13.3 708.69,-10.86"/>
<polygon fill="#63b8ff" stroke="#63b8ff" points="708.77,-7.36 698.59,-10.29 708.38,-14.35 708.77,-7.36"/>
</a>
</g>
</g>
<!-- Node20&#45;&gt;Node19 -->
<g id="edge24_Node000020_Node000019" class="edge">
<title>Node20&#45;&gt;Node19</title>
<g id="a_edge24_Node000020_Node000019"><a xlink:title=" ">
<path fill="none" stroke="#63b8ff" d="M738.99,-109.75C740.17,-102.8 741.86,-92.85 743.34,-84.13"/>
<polygon fill="#63b8ff" stroke="#63b8ff" points="746.82,-84.53 745.04,-74.09 739.92,-83.36 746.82,-84.53"/>
</a>
</g>
</g>
<!-- Node21&#45;&gt;Node7 -->
<g id="edge26_Node000021_Node000007" class="edge">
<title>Node21&#45;&gt;Node7</title>
<g id="a_edge26_Node000021_Node000007"><a xlink:title=" ">
<path fill="none" stroke="#63b8ff" d="M1195.2,-129.04C1097.43,-141.99 984.18,-156.35 911.9,-165.15"/>
<polygon fill="#63b8ff" stroke="#63b8ff" points="911.05,-161.73 901.54,-166.41 911.89,-168.68 911.05,-161.73"/>
</a>
</g>
</g>
<!-- Node22 -->
<g id="Node000022" class="node">
<title>Node22</title>
<g id="a_Node000022"><a xlink:title=" ">
<polygon fill="#e0e0e0" stroke="#999999" points="1276.5,-74 1220.5,-74 1220.5,-55 1276.5,-55 1276.5,-74"/>
<text text-anchor="middle" x="1248.5" y="-62" font-family="Helvetica,sans-Serif" font-size="10.00">iomanip</text>
</a>
</g>
</g>
<!-- Node21&#45;&gt;Node22 -->
<g id="edge27_Node000021_Node000022" class="edge">
<title>Node21&#45;&gt;Node22</title>
<g id="a_edge27_Node000021_Node000022"><a xlink:title=" ">
<path fill="none" stroke="#63b8ff" d="M1248.5,-109.75C1248.5,-102.8 1248.5,-92.85 1248.5,-84.13"/>
<polygon fill="#63b8ff" stroke="#63b8ff" points="1252,-84.09 1248.5,-74.09 1245,-84.09 1252,-84.09"/>
</a>
</g>
</g>
<!-- Node23&#45;&gt;Node2 -->
<g id="edge32_Node000023_Node000002" class="edge">
<title>Node23&#45;&gt;Node2</title>
<g id="a_edge32_Node000023_Node000002"><a xlink:title=" ">
<path fill="none" stroke="#63b8ff" d="M261.88,-164.97C216.38,-156.58 144.93,-143.26 73.37,-129.14"/>
<polygon fill="#63b8ff" stroke="#63b8ff" points="73.76,-125.65 63.27,-127.15 72.4,-132.52 73.76,-125.65"/>
</a>
</g>
</g>
<!-- Node23&#45;&gt;Node5 -->
<g id="edge34_Node000023_Node000005" class="edge">
<title>Node23&#45;&gt;Node5</title>
<g id="a_edge34_Node000023_Node000005"><a xlink:title=" ">
<path fill="none" stroke="#63b8ff" d="M276.69,-164.98C242.11,-155.73 186.84,-140.94 149.64,-130.98"/>
<polygon fill="#63b8ff" stroke="#63b8ff" points="150.22,-127.51 139.65,-128.3 148.41,-134.27 150.22,-127.51"/>
</a>
</g>
</g>
<!-- Node23&#45;&gt;Node8 -->
<g id="edge29_Node000023_Node000008" class="edge">
<title>Node23&#45;&gt;Node8</title>
<g id="a_edge29_Node000023_Node000008"><a xlink:title=" ">
<path fill="none" stroke="#63b8ff" d="M334.85,-164.98C362.26,-156.13 405.39,-142.19 436.06,-132.28"/>
<polygon fill="#63b8ff" stroke="#63b8ff" points="437.5,-135.49 445.94,-129.08 435.35,-128.83 437.5,-135.49"/>
</a>
</g>
</g>
<!-- Node23&#45;&gt;Node10 -->
<g id="edge33_Node000023_Node000010" class="edge">
<title>Node23&#45;&gt;Node10</title>
<g id="a_edge33_Node000023_Node000010"><a xlink:title=" ">
<path fill="none" stroke="#63b8ff" d="M325.18,-164.94C339.2,-157.1 359.04,-144.38 372.5,-129 396.85,-101.18 380.67,-76.84 410.5,-55 446.17,-28.88 574.96,-16.97 638.1,-12.6"/>
<polygon fill="#63b8ff" stroke="#63b8ff" points="638.62,-16.07 648.37,-11.92 638.16,-9.09 638.62,-16.07"/>
</a>
</g>
</g>
<!-- Node24 -->
<g id="Node000024" class="node">
<title>Node24</title>
<g id="a_Node000024"><a xlink:title=" ">
<polygon fill="#e0e0e0" stroke="#999999" points="235.5,-129 157.5,-129 157.5,-110 235.5,-110 235.5,-129"/>
<text text-anchor="middle" x="196.5" y="-117" font-family="Helvetica,sans-Serif" font-size="10.00">driver/gpio.h</text>
</a>
</g>
</g>
<!-- Node23&#45;&gt;Node24 -->
<g id="edge30_Node000023_Node000024" class="edge">
<title>Node23&#45;&gt;Node24</title>
<g id="a_edge30_Node000023_Node000024"><a xlink:title=" ">
<path fill="none" stroke="#63b8ff" d="M290.51,-164.98C272.57,-156.5 244.78,-143.35 224.07,-133.54"/>
<polygon fill="#63b8ff" stroke="#63b8ff" points="225.36,-130.28 214.82,-129.17 222.36,-136.61 225.36,-130.28"/>
</a>
</g>
</g>
<!-- Node25 -->
<g id="Node000025" class="node">
<title>Node25</title>
<g id="a_Node000025"><a xlink:title=" ">
<polygon fill="#e0e0e0" stroke="#999999" points="363.5,-129 253.5,-129 253.5,-110 363.5,-110 363.5,-129"/>
<text text-anchor="middle" x="308.5" y="-117" font-family="Helvetica,sans-Serif" font-size="10.00">driver/spi_master.h</text>
</a>
</g>
</g>
<!-- Node23&#45;&gt;Node25 -->
<g id="edge31_Node000023_Node000025" class="edge">
<title>Node23&#45;&gt;Node25</title>
<g id="a_edge31_Node000023_Node000025"><a xlink:title=" ">
<path fill="none" stroke="#63b8ff" d="M308.5,-164.75C308.5,-157.8 308.5,-147.85 308.5,-139.13"/>
<polygon fill="#63b8ff" stroke="#63b8ff" points="312,-139.09 308.5,-129.09 305,-139.09 312,-139.09"/>
</a>
</g>
</g>
</g>
</svg>
