<?xml version="1.0" encoding="UTF-8" standalone="no"?>
<!DOCTYPE svg PUBLIC "-//W3C//DTD SVG 1.1//EN"
 "http://www.w3.org/Graphics/SVG/1.1/DTD/svg11.dtd">
<!-- Generated by graphviz version 2.43.0 (0)
 -->
<!-- Title: examples/esp32/main/velocity_reading_example.cpp Pages: 1 -->
<svg width="725pt" height="214pt"
 viewBox="0.00 0.00 725.00 214.00" xmlns="http://www.w3.org/2000/svg" xmlns:xlink="http://www.w3.org/1999/xlink">
<g id="graph0" class="graph" transform="scale(1 1) rotate(0) translate(4 210)">
<title>examples/esp32/main/velocity_reading_example.cpp</title>
<!-- Node1 -->
<g id="Node000001" class="node">
<title>Node1</title>
<g id="a_Node000001"><a xlink:title="Velocity reading example with unit conversions.">
<polygon fill="#999999" stroke="#666666" points="429,-206 260,-206 260,-176 429,-176 429,-206"/>
<text text-anchor="start" x="268" y="-194" font-family="Helvetica,sans-Serif" font-size="10.00">examples/esp32/main</text>
<text text-anchor="middle" x="344.5" y="-183" font-family="Helvetica,sans-Serif" font-size="10.00">/velocity_reading_example.cpp</text>
</a>
</g>
</g>
<!-- Node2 -->
<g id="Node000002" class="node">
<title>Node2</title>
<g id="a_Node000002"><a xlink:title=" ">
<polygon fill="#e0e0e0" stroke="#999999" points="63,-79.5 0,-79.5 0,-60.5 63,-60.5 63,-79.5"/>
<text text-anchor="middle" x="31.5" y="-67.5" font-family="Helvetica,sans-Serif" font-size="10.00">esp_log.h</text>
</a>
</g>
</g>
<!-- Node1&#45;&gt;Node2 -->
<g id="edge1_Node000001_Node000002" class="edge">
<title>Node1&#45;&gt;Node2</title>
<g id="a_edge1_Node000001_Node000002"><a xlink:title=" ">
<path fill="none" stroke="#63b8ff" d="M259.86,-182.39C213.81,-175.72 156.93,-163.25 110.5,-140 84.43,-126.95 60.07,-103.24 45.48,-87.3"/>
<polygon fill="#63b8ff" stroke="#63b8ff" points="48.04,-84.92 38.78,-79.77 42.81,-89.57 48.04,-84.92"/>
</a>
</g>
</g>
<!-- Node3 -->
<g id="Node000003" class="node">
<title>Node3</title>
<g id="a_Node000003"><a xlink:title=" ">
<polygon fill="#e0e0e0" stroke="#999999" points="401,-140 288,-140 288,-121 401,-121 401,-140"/>
<text text-anchor="middle" x="344.5" y="-128" font-family="Helvetica,sans-Serif" font-size="10.00">freertos/FreeRTOS.h</text>
</a>
</g>
</g>
<!-- Node1&#45;&gt;Node3 -->
<g id="edge2_Node000001_Node000003" class="edge">
<title>Node1&#45;&gt;Node3</title>
<g id="a_edge2_Node000001_Node000003"><a xlink:title=" ">
<path fill="none" stroke="#63b8ff" d="M344.5,-175.84C344.5,-168.21 344.5,-158.7 344.5,-150.45"/>
<polygon fill="#63b8ff" stroke="#63b8ff" points="348,-150.27 344.5,-140.27 341,-150.27 348,-150.27"/>
</a>
</g>
</g>
<!-- Node4 -->
<g id="Node000004" class="node">
<title>Node4</title>
<g id="a_Node000004"><a xlink:title=" ">
<polygon fill="#e0e0e0" stroke="#999999" points="507.5,-140 419.5,-140 419.5,-121 507.5,-121 507.5,-140"/>
<text text-anchor="middle" x="463.5" y="-128" font-family="Helvetica,sans-Serif" font-size="10.00">freertos/task.h</text>
</a>
</g>
</g>
<!-- Node1&#45;&gt;Node4 -->
<g id="edge3_Node000001_Node000004" class="edge">
<title>Node1&#45;&gt;Node4</title>
<g id="a_edge3_Node000001_Node000004"><a xlink:title=" ">
<path fill="none" stroke="#63b8ff" d="M373,-175.99C392.41,-166.45 417.93,-153.9 436.92,-144.57"/>
<polygon fill="#63b8ff" stroke="#63b8ff" points="438.5,-147.69 445.93,-140.14 435.41,-141.41 438.5,-147.69"/>
</a>
</g>
</g>
<!-- Node5 -->
<g id="Node000005" class="node">
<title>Node5</title>
<g id="a_Node000005"><a xlink:title=" ">
<polygon fill="#e0e0e0" stroke="#999999" points="139.5,-79.5 81.5,-79.5 81.5,-60.5 139.5,-60.5 139.5,-79.5"/>
<text text-anchor="middle" x="110.5" y="-67.5" font-family="Helvetica,sans-Serif" font-size="10.00">memory</text>
</a>
</g>
</g>
<!-- Node1&#45;&gt;Node5 -->
<g id="edge4_Node000001_Node000005" class="edge">
<title>Node1&#45;&gt;Node5</title>
<g id="a_edge4_Node000001_Node000005"><a xlink:title=" ">
<path fill="none" stroke="#63b8ff" d="M259.98,-180.33C206.29,-172.45 143.45,-159.4 124.5,-140 111.58,-126.77 109.04,-105.08 109.12,-89.55"/>
<polygon fill="#63b8ff" stroke="#63b8ff" points="112.62,-89.68 109.54,-79.54 105.63,-89.39 112.62,-89.68"/>
</a>
</g>
</g>
<!-- Node6 -->
<g id="Node000006" class="node">
<title>Node6</title>
<g id="a_Node000006"><a xlink:title=" ">
<polygon fill="#e0e0e0" stroke="#999999" points="575.5,-140 525.5,-140 525.5,-121 575.5,-121 575.5,-140"/>
<text text-anchor="middle" x="550.5" y="-128" font-family="Helvetica,sans-Serif" font-size="10.00">stdio.h</text>
</a>
</g>
</g>
<!-- Node1&#45;&gt;Node6 -->
<g id="edge5_Node000001_Node000006" class="edge">
<title>Node1&#45;&gt;Node6</title>
<g id="a_edge5_Node000001_Node000006"><a xlink:title=" ">
<path fill="none" stroke="#63b8ff" d="M393.84,-175.99C431.38,-165.33 482.11,-150.92 515.54,-141.43"/>
<polygon fill="#63b8ff" stroke="#63b8ff" points="516.66,-144.75 525.33,-138.65 514.75,-138.01 516.66,-144.75"/>
</a>
</g>
</g>
<!-- Node7 -->
<g id="Node000007" class="node">
<title>Node7</title>
<g id="a_Node000007"><a xlink:title=" ">
<polygon fill="#e0e0e0" stroke="#999999" points="717,-140 594,-140 594,-121 717,-121 717,-140"/>
<text text-anchor="middle" x="655.5" y="-128" font-family="Helvetica,sans-Serif" font-size="10.00">../../../inc/as5047u.hpp</text>
</a>
</g>
</g>
<!-- Node1&#45;&gt;Node7 -->
<g id="edge6_Node000001_Node000007" class="edge">
<title>Node1&#45;&gt;Node7</title>
<g id="a_edge6_Node000001_Node000007"><a xlink:title=" ">
<path fill="none" stroke="#63b8ff" d="M418.99,-175.99C474.64,-165.52 549.49,-151.44 599.96,-141.95"/>
<polygon fill="#63b8ff" stroke="#63b8ff" points="600.85,-145.34 610.03,-140.05 599.55,-138.46 600.85,-145.34"/>
</a>
</g>
</g>
<!-- Node8 -->
<g id="Node000008" class="node">
<title>Node8</title>
<g id="a_Node000008"><a xlink:href="esp32__as5047u__bus_8hpp.html" target="_top" xlink:title="ESP32 SPI transport implementation for AS5047U driver.">
<polygon fill="white" stroke="#666666" points="269.5,-140 133.5,-140 133.5,-121 269.5,-121 269.5,-140"/>
<text text-anchor="middle" x="201.5" y="-128" font-family="Helvetica,sans-Serif" font-size="10.00">esp32_as5047u_bus.hpp</text>
</a>
</g>
</g>
<!-- Node1&#45;&gt;Node8 -->
<g id="edge7_Node000001_Node000008" class="edge">
<title>Node1&#45;&gt;Node8</title>
<g id="a_edge7_Node000001_Node000008"><a xlink:title=" ">
<path fill="none" stroke="#63b8ff" d="M310.25,-175.99C286.39,-166.23 254.85,-153.33 231.89,-143.93"/>
<polygon fill="#63b8ff" stroke="#63b8ff" points="233.2,-140.69 222.62,-140.14 230.55,-147.17 233.2,-140.69"/>
</a>
</g>
</g>
<!-- Node8&#45;&gt;Node2 -->
<g id="edge13_Node000008_Node000002" class="edge">
<title>Node8&#45;&gt;Node2</title>
<g id="a_edge13_Node000008_Node000002"><a xlink:title=" ">
<path fill="none" stroke="#63b8ff" d="M176.78,-120.99C147.57,-110.94 98.8,-94.16 65.91,-82.84"/>
<polygon fill="#63b8ff" stroke="#63b8ff" points="66.84,-79.46 56.25,-79.52 64.57,-86.08 66.84,-79.46"/>
</a>
</g>
</g>
<!-- Node8&#45;&gt;Node5 -->
<g id="edge15_Node000008_Node000005" class="edge">
<title>Node8&#45;&gt;Node5</title>
<g id="a_edge15_Node000008_Node000005"><a xlink:title=" ">
<path fill="none" stroke="#63b8ff" d="M188.07,-120.87C173.42,-111.45 149.74,-96.23 132.4,-85.08"/>
<polygon fill="#63b8ff" stroke="#63b8ff" points="134.29,-82.13 123.98,-79.67 130.5,-88.02 134.29,-82.13"/>
</a>
</g>
</g>
<!-- Node9 -->
<g id="Node000009" class="node">
<title>Node9</title>
<g id="a_Node000009"><a xlink:href="as5047u__spi__interface_8hpp.html" target="_top" xlink:title="CRTP&#45;based SPI bus interface for AS5047U driver.">
<polygon fill="white" stroke="#666666" points="487.5,-85 381.5,-85 381.5,-55 487.5,-55 487.5,-85"/>
<text text-anchor="start" x="389.5" y="-73" font-family="Helvetica,sans-Serif" font-size="10.00">../../../inc/as5047u</text>
<text text-anchor="middle" x="434.5" y="-62" font-family="Helvetica,sans-Serif" font-size="10.00">_spi_interface.hpp</text>
</a>
</g>
</g>
<!-- Node8&#45;&gt;Node9 -->
<g id="edge8_Node000008_Node000009" class="edge">
<title>Node8&#45;&gt;Node9</title>
<g id="a_edge8_Node000008_Node000009"><a xlink:title=" ">
<path fill="none" stroke="#63b8ff" d="M235.38,-120.99C270.93,-112.07 327.64,-97.83 371.46,-86.83"/>
<polygon fill="#63b8ff" stroke="#63b8ff" points="372.32,-90.22 381.17,-84.39 370.62,-83.43 372.32,-90.22"/>
</a>
</g>
</g>
<!-- Node11 -->
<g id="Node000011" class="node">
<title>Node11</title>
<g id="a_Node000011"><a xlink:title=" ">
<polygon fill="#e0e0e0" stroke="#999999" points="534.5,-19 484.5,-19 484.5,0 534.5,0 534.5,-19"/>
<text text-anchor="middle" x="509.5" y="-7" font-family="Helvetica,sans-Serif" font-size="10.00">cstdint</text>
</a>
</g>
</g>
<!-- Node8&#45;&gt;Node11 -->
<g id="edge14_Node000008_Node000011" class="edge">
<title>Node8&#45;&gt;Node11</title>
<g id="a_edge14_Node000008_Node000011"><a xlink:title=" ">
<path fill="none" stroke="#63b8ff" d="M269.7,-121.24C354.29,-110.7 488.42,-92.9 496.5,-85 511,-70.83 512.74,-46.66 511.83,-29.7"/>
<polygon fill="#63b8ff" stroke="#63b8ff" points="515.28,-28.98 510.91,-19.33 508.31,-29.6 515.28,-28.98"/>
</a>
</g>
</g>
<!-- Node12 -->
<g id="Node000012" class="node">
<title>Node12</title>
<g id="a_Node000012"><a xlink:title=" ">
<polygon fill="#e0e0e0" stroke="#999999" points="235.5,-79.5 157.5,-79.5 157.5,-60.5 235.5,-60.5 235.5,-79.5"/>
<text text-anchor="middle" x="196.5" y="-67.5" font-family="Helvetica,sans-Serif" font-size="10.00">driver/gpio.h</text>
</a>
</g>
</g>
<!-- Node8&#45;&gt;Node12 -->
<g id="edge11_Node000008_Node000012" class="edge">
<title>Node8&#45;&gt;Node12</title>
<g id="a_edge11_Node000008_Node000012"><a xlink:title=" ">
<path fill="none" stroke="#63b8ff" d="M200.76,-120.87C200.07,-112.75 199,-100.31 198.11,-89.89"/>
<polygon fill="#63b8ff" stroke="#63b8ff" points="201.58,-89.33 197.24,-79.67 194.61,-89.93 201.58,-89.33"/>
</a>
</g>
</g>
<!-- Node13 -->
<g id="Node000013" class="node">
<title>Node13</title>
<g id="a_Node000013"><a xlink:title=" ">
<polygon fill="#e0e0e0" stroke="#999999" points="363.5,-79.5 253.5,-79.5 253.5,-60.5 363.5,-60.5 363.5,-79.5"/>
<text text-anchor="middle" x="308.5" y="-67.5" font-family="Helvetica,sans-Serif" font-size="10.00">driver/spi_master.h</text>
</a>
</g>
</g>
<!-- Node8&#45;&gt;Node13 -->
<g id="edge12_Node000008_Node000013" class="edge">
<title>Node8&#45;&gt;Node13</title>
<g id="a_edge12_Node000008_Node000013"><a xlink:title=" ">
<path fill="none" stroke="#63b8ff" d="M217.29,-120.87C234.83,-111.28 263.38,-95.67 283.87,-84.47"/>
<polygon fill="#63b8ff" stroke="#63b8ff" points="285.55,-87.54 292.65,-79.67 282.19,-81.39 285.55,-87.54"/>
</a>
</g>
</g>
<!-- Node10 -->
<g id="Node000010" class="node">
<title>Node10</title>
<g id="a_Node000010"><a xlink:title=" ">
<polygon fill="#e0e0e0" stroke="#999999" points="461,-19 408,-19 408,0 461,0 461,-19"/>
<text text-anchor="middle" x="434.5" y="-7" font-family="Helvetica,sans-Serif" font-size="10.00">cstddef</text>
</a>
</g>
</g>
<!-- Node9&#45;&gt;Node10 -->
<g id="edge9_Node000009_Node000010" class="edge">
<title>Node9&#45;&gt;Node10</title>
<g id="a_edge9_Node000009_Node000010"><a xlink:title=" ">
<path fill="none" stroke="#63b8ff" d="M434.5,-54.84C434.5,-47.21 434.5,-37.7 434.5,-29.45"/>
<polygon fill="#63b8ff" stroke="#63b8ff" points="438,-29.27 434.5,-19.27 431,-29.27 438,-29.27"/>
</a>
</g>
</g>
<!-- Node9&#45;&gt;Node11 -->
<g id="edge10_Node000009_Node000011" class="edge">
<title>Node9&#45;&gt;Node11</title>
<g id="a_edge10_Node000009_Node000011"><a xlink:title=" ">
<path fill="none" stroke="#63b8ff" d="M452.66,-54.84C463.99,-46 478.56,-34.63 490.12,-25.62"/>
<polygon fill="#63b8ff" stroke="#63b8ff" points="492.53,-28.18 498.26,-19.27 488.22,-22.66 492.53,-28.18"/>
</a>
</g>
</g>
</g>
</svg>
